<svg xmlns="http://www.w3.org/2000/svg" xmlns:xlink="http://www.w3.org/1999/xlink" width="307" height="314" viewBox="0 0 307 314">
  <defs>
    <clipPath id="clip-path">
      <rect id="Rectángulo_7690" data-name="Rectángulo 7690" width="307" height="314" transform="translate(964 493)" fill="#fff" stroke="#707070" stroke-width="1"/>
    </clipPath>
  </defs>
  <g id="Enmascarar_grupo_88" data-name="Enmascarar grupo 88" transform="translate(-964 -493)" clip-path="url(#clip-path)">
    <g id="Grupo_69780" data-name="Grupo 69780" transform="translate(-1542.74 284.475)">
      <ellipse id="Elipse_5160" data-name="Elipse 5160" cx="196.591" cy="6.233" rx="196.591" ry="6.233" transform="translate(2482.558 708.221)" fill="#f1d4d0"/>
      <path id="Trazado_117695" data-name="Trazado 117695" d="M2864.125,299.137l-5.674-.47a109.736,109.736,0,0,1,1.829-12.247c1.941-9.176,4.63-14.551,8.222-16.43a6.735,6.735,0,0,1,6.8.314l-2.85,4.929c-.8-.463-1.105-.3-1.307-.2-1.427.746-3.564,4.425-5.28,12.511A106.032,106.032,0,0,0,2864.125,299.137Z" transform="translate(-253.583 -38.046)" fill="#ffc020"/>
      <path id="Trazado_117696" data-name="Trazado 117696" d="M2747.91,740.318c-66.824-.336-120.938-55.3-120.28-122.121a121.51,121.51,0,0,1,1.962-20.622,32.306,32.306,0,0,0-16.424-34.271,54.222,54.222,0,1,1,72.009-76.094,32.425,32.425,0,0,0,35.1,14.616,121.162,121.162,0,0,1,28.255-3.322c66.971,0,121.395,54.843,120.9,121.812A120.908,120.908,0,0,1,2747.91,740.318Z" transform="translate(-68.979 -167.679)" fill="#ffad54" opacity="0.41"/>
      <g id="Grupo_69750" data-name="Grupo 69750" transform="translate(2534.343 427.959)">
        <g id="Grupo_69749" data-name="Grupo 69749" transform="translate(0 257.027)">
          <path id="Trazado_117697" data-name="Trazado 117697" d="M2747.06,1686.786l-1.374,2.3h-95.958l-1.37-2.3a4.079,4.079,0,0,1,2.129-5.93l47.009-16.8,0-.152.209.076.208-.076v.152l47.013,16.8A4.078,4.078,0,0,1,2747.06,1686.786Z" transform="translate(-2645.804 -1663.908)" fill="#c17569"/>
          <path id="Trazado_117698" data-name="Trazado 117698" d="M2745.518,1744.611h-103.81a4.076,4.076,0,0,1,4.076-4.075h95.658a4.076,4.076,0,0,1,4.076,4.075Z" transform="translate(-2641.708 -1715.602)" fill="#9a5253"/>
          <path id="Trazado_117699" data-name="Trazado 117699" d="M2851.01,1687.1l-1.374,2.3h-8.6l1.5-3.6-40.667-21.424,47.013,16.8A4.078,4.078,0,0,1,2851.01,1687.1Z" transform="translate(-2749.754 -1664.223)" fill="#9a5253"/>
        </g>
        <rect id="Rectángulo_7688" data-name="Rectángulo 7688" width="9.661" height="263.98" transform="translate(47.074 0)" fill="#c17569"/>
        <ellipse id="Elipse_5161" data-name="Elipse 5161" cx="15.823" cy="5.754" rx="15.823" ry="5.754" transform="translate(35.642 8.871)" fill="#9a5253"/>
      </g>
      <g id="Grupo_69753" data-name="Grupo 69753" transform="translate(2533.385 228.97)">
        <g id="Grupo_69751" data-name="Grupo 69751" transform="translate(0 0)">
          <path id="Trazado_117700" data-name="Trazado 117700" d="M2729.845,356.328c-1.8,6.825-9.832,39.8-9.832,39.8s12.189,39.319,13.149,50.35S2732.2,481,2732.2,481a269.434,269.434,0,0,1-38.229,5.88c-1.894.14-3.842.254-5.831.338q-2.989-.126-5.834-.338a269.448,269.448,0,0,1-38.229-5.88s-1.92-23.493-.96-34.521,13.146-50.35,13.146-50.35-8.032-32.972-9.828-39.8c-2.4-9.11-7.672-39.8-7.672-39.8,11.506-8.632,33.325-21.1,33.325-21.1l3.595-16.782H2700.6l3.595,16.782s21.815,12.466,33.325,21.1C2737.516,316.531,2732.244,347.218,2729.845,356.328Z" transform="translate(-2638.764 -273.377)" fill="#4c2959"/>
          <path id="Trazado_117701" data-name="Trazado 117701" d="M2714.081,337.6s.719,62.214,1.438,66.529,4.316,11.508,4.316,11.508l.359,26.971s-1.438,43.874-1.438,53.224v29.849l-5.035-1.079-7.911-175.853L2713,337.6Z" transform="translate(-2683.994 -313.143)" fill="#421c4e"/>
          <path id="Trazado_117702" data-name="Trazado 117702" d="M2690.337,481.274s8.99,19.779,20.858,21.217,36.681.36,36.681.36l-2.157,10.429s-27.691-.719-33.8-.719-13.666-3.237-16.183-7.192S2690.337,481.274,2690.337,481.274Z" transform="translate(-2673.556 -410.069)" fill="#421c4e"/>
          <ellipse id="Elipse_5162" data-name="Elipse 5162" cx="12.467" cy="5.274" rx="12.467" ry="5.274" transform="translate(36.92)" fill="#421c4e"/>
        </g>
        <path id="Trazado_117703" data-name="Trazado 117703" d="M2684.68,337.6s-5.035,57.539,2.877,99.974l-1.439,138.813s-16.183-3.956-20.5-9.71c0,0-3.476-73.6,3.956-102.851,3.869-15.225,5.754-26.252,5.754-26.252s-13.426-74.86-11.268-87.087Z" transform="translate(-2655.672 -313.143)" fill="#ff9696"/>
        <path id="Trazado_117704" data-name="Trazado 117704" d="M2846.608,337.6s5.035,57.539-2.877,99.974l1.439,138.813s12.946-4.315,17.261-10.069c0,0,6.428-76.239-1-105.488-3.868-15.225-5.753-21.1-5.753-21.1s13.3-77.676,11.147-89.9Z" transform="translate(-2777.037 -313.143)" fill="#ff9696"/>
        <g id="Grupo_69752" data-name="Grupo 69752" transform="translate(15.676 122.748)">
          <path id="Trazado_117705" data-name="Trazado 117705" d="M2688.763,639.682s24.455,7.434,30.209,7.434,33.541-7.434,33.541-7.434a26.25,26.25,0,0,1,1.542,4.956c.32,2.078-30.408,8.231-35.442,8.231s-30.767-7.072-31.487-8.151A4.662,4.662,0,0,1,2688.763,639.682Z" transform="translate(-2686.939 -639.682)" fill="#ff9696"/>
          <path id="Trazado_117706" data-name="Trazado 117706" d="M2767.531,667.669a.775.775,0,0,0-.619.285,10.684,10.684,0,0,0-1.811,2.984,97.663,97.663,0,0,0-4.031,10.868c-2.737,8.594-5.079,18.156-4.566,19.432,1.348,3.371,4.866,5.155,7.774,5.861a11.954,11.954,0,0,0,2.774.372C2769.93,707.47,2770.408,668.151,2767.531,667.669Zm-2.638,32.368c-.717,1.678-3.356-1.678-4.312-3.6s4.312-25.274,4.312-20.616C2764.893,676.54,2765.614,698.359,2764.893,700.037Z" transform="translate(-2733.821 -658.559)" fill="#ff9696"/>
          <path id="Trazado_117707" data-name="Trazado 117707" d="M2805.194,688.148c-.479-5.276-11.028-22.3-11.028-22.3-.96-.718-1.917.96-2.4,1.917s.482,22.537,3.359,25.414S2805.676,693.421,2805.194,688.148Zm-4.912,1.917c-.721.839-3,.839-3.6-.361s-1.917-12.705-2.038-14.861C2794.645,674.844,2801,689.226,2800.282,690.066Z" transform="translate(-2757.579 -657.219)" fill="#ff9696"/>
          <path id="Trazado_117708" data-name="Trazado 117708" d="M2792.669,678.738l5.274,46.031-3.836.719s-2.637-38.839-2.877-41.716A7.867,7.867,0,0,1,2792.669,678.738Z" transform="translate(-2757.28 -666.03)" fill="#ff9696"/>
          <path id="Trazado_117709" data-name="Trazado 117709" d="M2761.491,672.651s-1-1.36-3.177.659c-3.812,3.531-9.769,11.853-9.769,16.123l4.555,1.438S2753.34,680.083,2761.491,672.651Z" transform="translate(-2728.499 -661.621)" fill="#ff9696"/>
          <path id="Trazado_117710" data-name="Trazado 117710" d="M2702.126,649.757s21.1,7.192,22.7,7.352.479-1.758-2.558-2.717S2702.126,649.757,2702.126,649.757Z" transform="translate(-2697.185 -646.479)" fill="#ff9696"/>
          <path id="Trazado_117711" data-name="Trazado 117711" d="M2783.461,666.949a14.048,14.048,0,0,0-2.158,2.637c-.239.719,2.637,2.158,2.637,2.158a1.646,1.646,0,0,0,.6-1.558A16.178,16.178,0,0,0,2783.461,666.949Z" transform="translate(-2750.589 -658.077)" fill="#ff9696"/>
          <path id="Trazado_117712" data-name="Trazado 117712" d="M2764.278,736.417c-2.908-.706-6.427-2.49-7.774-5.861-.512-1.275,1.83-10.838,4.566-19.432-.554,2.479-3.09,13.977-2.767,15.472C2758.614,728.066,2763.147,734.759,2764.278,736.417Z" transform="translate(-2733.821 -687.878)" fill="#ff9696"/>
        </g>
      </g>
      <g id="Grupo_69755" data-name="Grupo 69755" transform="translate(2687.424 212.825)">
        <path id="Trazado_117713" data-name="Trazado 117713" d="M3313.82,338.269a1.136,1.136,0,0,1-.857-.388l-11.348-12.946a1.139,1.139,0,0,1,1.713-1.5l11.348,12.946a1.139,1.139,0,0,1-.856,1.889Z" transform="translate(-3239.781 -287.181)" fill="#d4bdb7"/>
        <path id="Trazado_117714" data-name="Trazado 117714" d="M3119.083,235.915a.527.527,0,0,1-.274-.977c.354-.214,8.766-5.2,18-1.369a.527.527,0,1,1-.4.974c-8.734-3.622-16.971,1.247-17.053,1.3A.523.523,0,0,1,3119.083,235.915Z" transform="translate(-3116.477 -225.846)" fill="#933662"/>
        <g id="Grupo_69754" data-name="Grupo 69754" transform="translate(60.033 17.044)">
          <path id="Trazado_117715" data-name="Trazado 117715" d="M3297.806,297.331a1.139,1.139,0,0,1-1.111-1.393l6.832-29.848a1.139,1.139,0,1,1,2.22.508l-6.833,29.848A1.139,1.139,0,0,1,3297.806,297.331Z" transform="translate(-3296.667 -265.205)" fill="#d4bdb7"/>
        </g>
        <path id="Trazado_117716" data-name="Trazado 117716" d="M3123.375,273.9c-1.171,0-5.267-.38-9.021-5.321-4.37-5.75-.863-12.486-.711-12.77a.527.527,0,0,1,.93.5c-.034.064-3.336,6.432.62,11.637,3.969,5.222,8.23,4.913,8.408,4.9a.527.527,0,0,1,.1,1.049C3123.671,273.893,3123.559,273.9,3123.375,273.9Z" transform="translate(-3112.168 -241.637)" fill="#933662"/>
        <path id="Trazado_117717" data-name="Trazado 117717" d="M3307.226,305.431a.527.527,0,0,1-.506-.676c1.173-3.988.885-15.282-2.759-16.433-3.1-.979-6.681,4.757-7.8,7.05a.527.527,0,0,1-.948-.462c.181-.37,4.468-9.043,9.064-7.593,4.729,1.494,4.57,13.938,3.453,17.735A.527.527,0,0,1,3307.226,305.431Z" transform="translate(-3235.618 -262.969)" fill="#933662"/>
        <path id="Trazado_117718" data-name="Trazado 117718" d="M3174.893,260.974c-3.552,15.31-15.31,15.752-15.31,15.752l-22.863-22.718-11.751-11.674s-13.311-3.991-10.873-13.532,19.3-7.767,19.3-7.767,3.327-8.4,18.194-8.207c10.472.134,18.015,11.832,21.63,24.493C3175.666,245.851,3176.319,254.813,3174.893,260.974Z" transform="translate(-3113.268 -212.825)" fill="#933662"/>
        <path id="Trazado_117719" data-name="Trazado 117719" d="M3145.9,254.963s-13.091-1.11-14.422,5.547,7.322,8.653,7.322,8.653Z" transform="translate(-3125.101 -241.205)" fill="#662150"/>
        <path id="Trazado_117720" data-name="Trazado 117720" d="M3216.917,289.5c-3.551,15.31-15.31,15.752-15.31,15.752l-22.862-22.718-2.653-27.426s22.852,20.635,30.173,19.083a11.782,11.782,0,0,0,8.874-8.431l.109.088C3217.69,274.373,3218.344,283.334,3216.917,289.5Z" transform="translate(-3155.293 -241.347)" fill="#662150"/>
        <path id="Trazado_117721" data-name="Trazado 117721" d="M3307.974,316.1c-1.331,7.1-4.992,10.76-7.434,10.318s-4.992-2.333-4.55-5.438.447-15.31.447-15.31a9.9,9.9,0,0,1,3.372-4.022,5.445,5.445,0,0,1,2.617-.857c2.357-.13,5.006,4.462,5.667,9.738A18.077,18.077,0,0,1,3307.974,316.1Z" transform="translate(-3236.144 -272.165)" fill="#933662"/>
        <path id="Trazado_117722" data-name="Trazado 117722" d="M3307.974,317.881c-1.331,7.1-4.992,10.76-7.434,10.318s-4.992-2.333-4.55-5.438.447-15.31.447-15.31a9.9,9.9,0,0,1,3.372-4.022c1.476,3.667,1.194,6.425.917,10.9-.3,4.736,1.479,8.1,3.844,7.247,2.821-1.012,3.407-7.237,3.523-9.267A18.077,18.077,0,0,1,3307.974,317.881Z" transform="translate(-3236.144 -273.948)" fill="#662150"/>
        <path id="Trazado_117723" data-name="Trazado 117723" d="M3224.729,236.922s10.206-.148,14.348,5.769a13.615,13.615,0,0,1,2.219,11.538,17.978,17.978,0,0,0-3.994-10.058C3233.456,239.363,3224.729,236.922,3224.729,236.922Z" transform="translate(-3188.103 -229.081)" fill="#662150"/>
        <path id="Trazado_117724" data-name="Trazado 117724" d="M3177.452,242.971s11.686-5.177,17.6-.148a50.763,50.763,0,0,1-7.248,1.035A80.164,80.164,0,0,1,3177.452,242.971Z" transform="translate(-3156.209 -231.58)" fill="#662150"/>
        <path id="Trazado_117725" data-name="Trazado 117725" d="M3291.208,312.807a1.138,1.138,0,0,1-.87-.4l-5.314-6.273a1.139,1.139,0,0,1,1.738-1.472l5.314,6.273a1.139,1.139,0,0,1-.868,1.875Z" transform="translate(-3228.597 -274.506)" fill="#d4bdb7"/>
        <circle id="Elipse_5163" data-name="Elipse 5163" cx="2.684" cy="2.684" r="2.684" transform="translate(53.965 27.299)" fill="#d4bdb7"/>
        <circle id="Elipse_5164" data-name="Elipse 5164" cx="2.684" cy="2.684" r="2.684" transform="translate(65.473 15.072)" fill="#d4bdb7"/>
        <path id="Trazado_117726" data-name="Trazado 117726" d="M3295.841,354.34a1.156,1.156,0,0,1-.32-.046,1.139,1.139,0,0,1-.773-1.413l1.518-5.194a1.139,1.139,0,1,1,2.186.639l-1.519,5.194A1.139,1.139,0,0,1,3295.841,354.34Z" transform="translate(-3235.308 -303.252)" fill="#d4bdb7"/>
      </g>
      <g id="Grupo_69757" data-name="Grupo 69757" transform="translate(2644.038 647.125)">
        <g id="Grupo_69756" data-name="Grupo 69756" transform="translate(3.393)">
          <path id="Trazado_117727" data-name="Trazado 117727" d="M3056.938,1601.893c0,3.356-1.631,8.049-6.112,8.831-7.552,1.319-17.262-2.4-28.53-.24a96.336,96.336,0,0,1-32.486.519s-3.185-7.763,5.755-9.448c16.182-3.06,28.771-6.776,38.838-13.487l-2.667-28.569-1.169-11.95,23.976,3.2v36.244C3054.543,1589.385,3056.938,1598.538,3056.938,1601.893Z" transform="translate(-2989.258 -1547.55)" fill="#e9948d"/>
          <path id="Trazado_117728" data-name="Trazado 117728" d="M3140.187,1550.746v5.364c-7.455,3.109-17.2,3.481-22.806,3.39l-1.169-11.95Z" transform="translate(-3074.903 -1547.55)" fill="#cf696d"/>
        </g>
        <path id="Trazado_117729" data-name="Trazado 117729" d="M2978.958,1742.132h75.919s1.818,2.6.379,3.556-76.4,0-76.4,0Z" transform="translate(-2978.849 -1678.818)" fill="#300a43"/>
        <path id="Trazado_117730" data-name="Trazado 117730" d="M2978.94,1713.641s-1.119-7.113,3.836-9.031,23.335-5.274,23.335-5.274,8.951,2.637,11.827,14.145Z" transform="translate(-2978.832 -1649.947)" fill="#300a43"/>
      </g>
      <g id="Grupo_69759" data-name="Grupo 69759" transform="translate(2763.174 633.421)">
        <path id="Trazado_117731" data-name="Trazado 117731" d="M3386.005,1641c-2.1,3.344-4.092,6.4-5.637,8.731a9.911,9.911,0,0,1-8.257,4.423h-25.285l24.454-9.707s15.4-26.022,17.976-30.482c2.289-3.967,6.723-6.093,9.6-5.4a3.362,3.362,0,0,1,2.631,2.885C3402.022,1614.516,3392.4,1630.836,3386.005,1641Z" transform="translate(-3346.223 -1574.921)" fill="#442d51"/>
        <g id="Grupo_69758" data-name="Grupo 69758" transform="translate(1.804)">
          <path id="Trazado_117732" data-name="Trazado 117732" d="M3388.633,1543.077c-.957,3.116-5.034,15.343-5.273,18.938s-3.6,19.181-8.871,20.859-22.537.239-22.537.239-1.461-5.713,4.077-8.15c5.994-2.638,9.82-10.481,9.349-19.181-.478-8.871-.239-17.26-.239-17.26l-9.96-14.045-4.666-6.575,16.3-12.466s.767,1.328,1.947,3.336c3.439,5.861,10.412,17.53,12.2,18.957,2.4,1.921,6.715,4.316,8.15,6.237S3389.593,1539.96,3388.633,1543.077Z" transform="translate(-3350.514 -1505.436)" fill="#e9948d"/>
          <path id="Trazado_117733" data-name="Trazado 117733" d="M3368.765,1508.772c-1.906,4.3-6.408,12.705-13.586,15.7l-4.666-6.575,16.3-12.466S3367.584,1506.765,3368.765,1508.772Z" transform="translate(-3350.514 -1505.436)" fill="#cf696d"/>
        </g>
        <path id="Trazado_117734" data-name="Trazado 117734" d="M3344.976,1707.879s-.479-8.631,7.072-11.508,8.631-8.271,8.631-8.271,10.789-.36,16.183,1.439a14.313,14.313,0,0,1,7.552,5.394l-5.43,8.915a8.822,8.822,0,0,1-7.6,4.233Z" transform="translate(-3344.97 -1628.644)" fill="#300a43"/>
        <path id="Trazado_117735" data-name="Trazado 117735" d="M3462.558,1641.269l-.577.687-1.678.239s14.855-25.084,16.173-28.679-1.317-4.555-1.317-4.555l.247-.129a3.363,3.363,0,0,1,2.63,2.885C3478.576,1614.784,3468.955,1631.1,3462.558,1641.269Z" transform="translate(-3422.776 -1575.189)" fill="#300a43"/>
      </g>
      <g id="Grupo_69760" data-name="Grupo 69760" transform="translate(2644.334 294.66)">
        <path id="Trazado_117736" data-name="Trazado 117736" d="M3040.455,499.586c-3.176-.235-6.828-.516-10.58-.831-1.38-.114-2.781-.234-4.174-.362-1.562-.141-3.344-.268-5.247-.4-6.982-.483-17.106-1.146-24.1-1.595a13.148,13.148,0,0,1-11.143-7.793l-4.945-11.217-.529-1.2.1-.013,22.2-2.419,20.577-2.245,5.22-.456.113-.013,15.4-1.7C3044.522,481.4,3041.379,495.72,3040.455,499.586Z" transform="translate(-2979.741 -467.713)" fill="#e9948d"/>
        <path id="Trazado_117737" data-name="Trazado 117737" d="M3114.282,502.294c-1.382-.114-2.779-.235-4.172-.357-1.564-.141-3.344-.273-5.25-.406,3.054-11.817,2.35-23.547,2.164-26.477l5.219-.459Z" transform="translate(-3064.149 -471.254)" fill="#cf696d"/>
        <path id="Trazado_117738" data-name="Trazado 117738" d="M3183.8,464.328l-7.189,32.6s-4.392-.277-10.545-.733c.926-3.864,1.044-17.9-.125-29.953Z" transform="translate(-3105.357 -464.328)" fill="#7fcad8"/>
        <path id="Trazado_117739" data-name="Trazado 117739" d="M3134.726,495.756c-.1.659-.165,1.019-.165,1.019l-14.694-.29c.022-.234.042-.472.06-.713.7-8.806.151-24.052.019-27.446-.017-.441-.029-.683-.029-.683l15.2-2.482c.014.075.027.146.041.222C3137.3,477.3,3135.334,491.829,3134.726,495.756Z" transform="translate(-3074.272 -464.889)" fill="#a4f0fe"/>
      </g>
      <g id="Grupo_69761" data-name="Grupo 69761" transform="translate(2683.309 296.938)">
        <path id="Trazado_117740" data-name="Trazado 117740" d="M3169.2,537.856c-6.833,16.9-8.811,65.891-8.811,65.891s-.911,1.408-3.955,2.676c-4.05,1.682-12.31,3.306-21.758,3.717a70.415,70.415,0,0,1-28.766-4.673s-3.959-41-5.037-57.539-3.127-26.314,1.8-34.525c6.472-10.788,29.848-42.075,29.848-42.075h32.008s10.428,12.227,12.227,23.015a43.063,43.063,0,0,1,.528,5.424C3177.658,510.115,3174.966,523.6,3169.2,537.856Z" transform="translate(-3099.523 -471.328)" fill="#7fcad8"/>
        <path id="Trazado_117741" data-name="Trazado 117741" d="M3195.986,477.245c-.12.6-4.2,12.467-4.2,12.467l-2.637-6.114,4.436-10.429Z" transform="translate(-3159.989 -472.57)" fill="#63a6b9"/>
        <path id="Trazado_117742" data-name="Trazado 117742" d="M3150.793,489.565l-16.143,26.772a62.115,62.115,0,0,0,13.265,11.707c8.468,5.76-9.589,2.518-9.589,2.518l-9.589-14.624,21.1-28.77Z" transform="translate(-3119.231 -482.014)" fill="#63a6b9"/>
        <path id="Trazado_117743" data-name="Trazado 117743" d="M3206.838,474.607l.479,17.022s23.015-5.035,27.811-12.946l-4.8-5.514Z" transform="translate(-3171.919 -472.57)" fill="#63a6b9"/>
        <path id="Trazado_117744" data-name="Trazado 117744" d="M3301.622,499.768c-4.016-1.522-7.513-3.807-8.082-7.224-1.439-8.628-9.71-19.059-9.71-19.059l1.568-2.156h3.469s10.428,12.227,12.227,23.015A43.063,43.063,0,0,1,3301.622,499.768Z" transform="translate(-3223.86 -471.328)" fill="#63a6b9"/>
        <path id="Trazado_117745" data-name="Trazado 117745" d="M3219.973,666.147s-27.451,37.161-28.41,41,0,14.864,0,14.864,13.666,1.678,19.419-.48-2.158,7.193-2.158,7.193l-29.249,10.549,5.274-41.236,40.038-54.662Z" transform="translate(-3153.528 -587.391)" fill="#63a6b9"/>
      </g>
      <path id="Trazado_117746" data-name="Trazado 117746" d="M3254.239,438.638s10.549-2.877,11.188.08-4.954,6.313-7.512,7.113S3254.239,438.638,3254.239,438.638Z" transform="translate(-520.588 -151.49)" fill="#63a6b9"/>
      <g id="Grupo_69762" data-name="Grupo 69762" transform="translate(2713.265 267.588)">
        <path id="Trazado_117747" data-name="Trazado 117747" d="M3218.394,407.037a21.86,21.86,0,0,1-9.686,6.985,16.922,16.922,0,0,1-11.266.225l-3.1-10.62-2.755-9.432,13.292-13.067,3.6.9.007,0Z" transform="translate(-3191.585 -381.127)" fill="#e9948d"/>
        <path id="Trazado_117748" data-name="Trazado 117748" d="M3208.477,382.022c-1.3,4.656-5.462,17.049-14.138,21.6l-2.755-9.432,13.292-13.067Z" transform="translate(-3191.585 -381.127)" fill="#cf696d"/>
      </g>
      <g id="Grupo_69763" data-name="Grupo 69763" transform="translate(2678.908 431.077)">
        <path id="Trazado_117749" data-name="Trazado 117749" d="M3144.576,885.252s-11.141,98.236-15.214,122.42c-.376,2.209-.687,3.8-.93,4.643-1.166,4.084-2.57,20.589-3.826,38.768-1.841,26.644-3.364,53.094-3.364,53.094-11.509,5.276-26.613,1.08-26.613,1.08S3086,1018.79,3086,1007.281s10.792-123.707,10.792-123.707C3115.492,890.767,3144.576,885.252,3144.576,885.252Z" transform="translate(-3085.997 -883.574)" fill="#5b4885"/>
        <path id="Trazado_117750" data-name="Trazado 117750" d="M3157.673,1075.995l-1.23,24.127c-.375,2.209-.687,3.8-.93,4.642-1.165,4.084-2.57,20.589-3.826,38.768-6.328-7.846-23.194-28.933-24.943-33.013-2.156-5.034,2.16-89.9,2.16-89.9Z" transform="translate(-3113.078 -976.024)" fill="#473574"/>
      </g>
      <g id="Grupo_69764" data-name="Grupo 69764" transform="translate(2683.309 296.938)">
        <path id="Trazado_117751" data-name="Trazado 117751" d="M3175.919,526.108c-2.984,7.66-10.352,36.658-12.47,53.823-2.076,16.824-1.438,24.1-1.438,24.1l-4.961,3.6s.042-.459.106-1.268c.353-4.2.061-12.584,1.5-25.111,1.074-9.349,7.315-44.113,14.148-58.139s1.078-20.859-2.521-23.736-15.821-6.833-23.732,4.677-15.825,36.68-14.744,63.294,2.874,42.792,2.874,42.792a70.415,70.415,0,0,1-28.766-4.673s-3.959-41-5.037-57.539-3.127-26.314,1.8-34.525c.159-.266.33-.547.513-.839.307-.5.649-1.036,1.01-1.6,7.99-12.417,28.326-39.634,28.326-39.634l1.757.679-4.236,7.114-18.02,26.731.148.171c1.143,1.3,8.742,9.676,16.034,11.335,0,0,11.608-15.951,17.021-21.7,7.793-8.272,24.814-9.107,30.569-.118S3181.192,512.564,3175.919,526.108Z" transform="translate(-3099.523 -471.328)" fill="#5b4885"/>
        <path id="Trazado_117752" data-name="Trazado 117752" d="M3175.128,612.791s-2.876,6.174-3.915,8.911c0,0,6.154,5.454,9.67,6.733l-1.5,2.577s-4.676-3.836-10.309-8.511C3169.076,622.5,3172.193,617.886,3175.128,612.791Z" transform="translate(-3146.445 -566.761)" fill="#473574"/>
        <path id="Trazado_117753" data-name="Trazado 117753" d="M3119.734,647.119l-6.053-11.35-.008-.123c-.044-.683-1.057-16.778,1.881-21.553l.326-.53,17.7,13.183-.089.366c-.025.1-2.519,10.46-3.226,15.411l-.046.323Zm-4.932-11.668,5.454,10.226,8.933-3.64c.688-4.557,2.67-12.973,3.112-14.826l-16.071-11.968C3113.964,620.115,3114.717,634,3114.8,635.451Z" transform="translate(-3108.931 -567.283)" fill="#473574"/>
        <rect id="Rectángulo_7689" data-name="Rectángulo 7689" width="1.139" height="15.629" transform="matrix(0.537, -0.844, 0.844, 0.537, 9.44, 55.981)" fill="#473574"/>
        <path id="Trazado_117754" data-name="Trazado 117754" d="M3120.345,578.27l-5.155,9.467-4.4-3.595c.307-.5.649-1.036,1.01-1.6l3.153,2.521,4.675-7.631.148.171Z" transform="translate(-3107.122 -542.907)" fill="#473574"/>
      </g>
      <g id="Grupo_69765" data-name="Grupo 69765" transform="translate(2611.201 235.12)">
        <path id="Trazado_117755" data-name="Trazado 117755" d="M2897.611,306.154s4.091,6.312,5.609,8.485a5.523,5.523,0,0,0,3.7,2.371l6.525-7.85-3.437-10-3.672-1.373Z" transform="translate(-2891.202 -292.434)" fill="#e9948d"/>
        <path id="Trazado_117756" data-name="Trazado 117756" d="M2884.58,283.38s-2.847,1.246-2.522,2.482c0,0-1.742.973-1.783,2.047,0,0-2.876,1.561-2.279,3.9a40.924,40.924,0,0,0,1.845,5.186l3.83,3.666s2.35-1.358,1.843-2.674a17.489,17.489,0,0,0-1.793-3.09l2.8,2.552s2.522-2.482,1.569-3.779-1.854-2.461-1.854-2.461l2.969,3.393,4.952-9.918-5.065-3.342Z" transform="translate(-2877.914 -281.343)" fill="#e9948d"/>
        <path id="Trazado_117757" data-name="Trazado 117757" d="M2906.786,283.188a4.763,4.763,0,0,0,3.336,3.255c2.664.637,5.25,1.531,5.25,1.531l2.3,2.038a11.407,11.407,0,0,0-3.082,7.544,34.982,34.982,0,0,0-10.157,1.056l-1.506-1.687s.706-.851-.133-2.9-1.317-3.422-1.317-3.422l2.979,4.6a3.318,3.318,0,0,0,2.139-1.705c.506-1.3-2.473-5.9-2.473-5.9l2.289.58-.366-2.127-1.273-2.457S2905,283.552,2906.786,283.188Z" transform="translate(-2893.807 -282.588)" fill="#cf696d"/>
      </g>
      <path id="Trazado_117758" data-name="Trazado 117758" d="M2864.655,636.1c-.769-9.221,1-12.413,4.2-17.262,2.722-4.127,6.45-9.778,10.261-24.676a42.771,42.771,0,0,0,1.51-11.126,10.011,10.011,0,0,1-.739,1.243c-4.458,6.336-11.084,6.587-15.672,4.027a11.966,11.966,0,0,1-5.1-15.417c2.591-6.045,10.4-9.242,17.053-6.979a12.242,12.242,0,0,1,1.167.467c-.048-2.723-.221-5.353-.447-7.461-.485-3.163-8.863-58.506-6.246-88.008,1.469-16.552,5.864-68.77,6.467-78.8.254-4.215-.422-12.325-1.2-21.715-1.025-12.3-2.187-26.237-1.916-38.115.472-20.77-.627-51.707-.638-52.017l5.69-.2c.011.311,1.116,31.413.641,52.352-.263,11.577.885,25.356,1.9,37.513.8,9.609,1.492,17.907,1.214,22.53-.606,10.07-5.008,62.382-6.479,78.957-2.576,29.042,6.123,86.129,6.211,86.7l.016.125a92.936,92.936,0,0,1,.434,12.895c2.968,4.236,4.928,11.633,1.652,24.44-4.048,15.824-8.247,22.189-11.025,26.4-2.693,4.084-3.923,5.948-3.281,13.654Zm7-65.236c-3.126,0-6.183,1.661-7.3,4.267a6.2,6.2,0,0,0,2.637,8.2c2.29,1.278,5.658,1.338,8.24-2.332,1.082-1.538,1.674-4.548,1.942-8.011a7.762,7.762,0,0,0-2.833-1.691A8.359,8.359,0,0,0,2871.654,570.862Z" transform="translate(-253.314 -45.356)" fill="#ffc020"/>
      <g id="Grupo_69767" data-name="Grupo 69767" transform="translate(2618.014 342.53)">
        <path id="Trazado_117759" data-name="Trazado 117759" d="M2986.042,654.791l68.687,38.12-2.157,21.577s-3.6,3.237-11.148-1.8-60.416-45.672-60.416-45.672Z" transform="translate(-2954.275 -640.686)" fill="#e9948d"/>
        <g id="Grupo_69766" data-name="Grupo 69766" transform="translate(0)">
          <path id="Trazado_117760" data-name="Trazado 117760" d="M2925.581,611.443s10.389.959,12.466,1.438,7.193,6.393,7.193,6.393l4.315,9.43-5.314,11.707s-17.381,1.878-19.459,1.559a13.345,13.345,0,0,1-4.315-1.758l6.633-19.26s2.877-.479,3.676-.16,6.473-.24,6.473-.24-2.078-2.4-4-2.877-5.354-.959-6.633-2.078S2925.581,611.443,2925.581,611.443Z" transform="translate(-2913.433 -611.443)" fill="#e9948d"/>
          <path id="Trazado_117761" data-name="Trazado 117761" d="M2898.853,618.742s2.278-1.439,3.956-.6,4.8,5.154,4.8,5.154l6.713,1.918-2.877,5.874-7.432-2.877Z" transform="translate(-2898.853 -615.786)" fill="#e9948d"/>
          <path id="Trazado_117762" data-name="Trazado 117762" d="M2907.495,641.9a10.728,10.728,0,0,0-.6,5.274,8.133,8.133,0,0,0-.719,4.2,5.315,5.315,0,0,0-.48,3.476c.48,1.678,5.594,6.633,5.594,6.633l5.554-13.466Z" transform="translate(-2903.379 -631.988)" fill="#e9948d"/>
        </g>
      </g>
      <g id="Grupo_69773" data-name="Grupo 69773" transform="translate(2689.098 429.638)">
        <path id="Trazado_117763" data-name="Trazado 117763" d="M3186.126,887.99s12.727,20.7,12.727,35.8-10.789,89.185-10.789,89.185l35.243,77.677a21.634,21.634,0,0,1-7.752,9.51,53.065,53.065,0,0,1-11.667,5.594s-56.1-78.4-58.258-87.747S3133.4,925.95,3133.4,925.95l1.438-35.242S3162.39,898.061,3186.126,887.99Z" transform="translate(-3128.168 -885.114)" fill="#5b4885"/>
        <path id="Trazado_117764" data-name="Trazado 117764" d="M3219.118,984.042s4.875-1.119,8.71,3.836a9.281,9.281,0,0,1,1.279,9.75S3221.994,990.355,3219.118,984.042Z" transform="translate(-3185.993 -949.839)" fill="#6193cb"/>
        <g id="Grupo_69768" data-name="Grupo 69768" transform="translate(47.858 8.06)">
          <path id="Trazado_117765" data-name="Trazado 117765" d="M3268.852,907.267a.57.57,0,0,1-.552-.43c-.348-1.384-.564-2.194-.564-2.2a.569.569,0,0,1,1.1-.294s.218.817.569,2.212a.569.569,0,0,1-.413.691A.581.581,0,0,1,3268.852,907.267Z" transform="translate(-3266.635 -903.924)" fill="#473574"/>
          <path id="Trazado_117766" data-name="Trazado 117766" d="M3303.418,1111.441a.568.568,0,0,1-.51-.317l-2.02-4.074a.569.569,0,1,1,1.02-.505l2.02,4.074a.57.57,0,0,1-.51.822Zm-4.04-8.148a.568.568,0,0,1-.51-.317l-2.019-4.074a.569.569,0,1,1,1.02-.506l2.02,4.074a.569.569,0,0,1-.51.823Zm-4.039-8.148a.569.569,0,0,1-.51-.317l-2.02-4.074a.569.569,0,1,1,1.02-.506l2.02,4.074a.57.57,0,0,1-.51.823ZM3291.3,1087a.57.57,0,0,1-.511-.317l-2.019-4.074a.569.569,0,0,1,1.02-.506l2.019,4.074a.57.57,0,0,1-.509.823Zm-4.039-8.148a.57.57,0,0,1-.511-.317l-2.019-4.074a.569.569,0,1,1,1.02-.506l2.02,4.074a.569.569,0,0,1-.51.822Zm-4.039-8.148a.569.569,0,0,1-.51-.317l-2.02-4.074a.569.569,0,1,1,1.02-.506l2.02,4.074a.569.569,0,0,1-.51.822Zm-4.039-8.148a.569.569,0,0,1-.511-.317l-2.02-4.074a.569.569,0,1,1,1.02-.506l2.02,4.074a.569.569,0,0,1-.509.822Zm-4.039-8.148a.57.57,0,0,1-.511-.317l-2.02-4.074a.57.57,0,0,1,1.021-.506l2.02,4.074a.57.57,0,0,1-.51.823Zm-4.04-8.148a.57.57,0,0,1-.511-.317l-2.019-4.074a.569.569,0,1,1,1.02-.506l2.019,4.074a.569.569,0,0,1-.51.823Zm-4.039-8.148a.569.569,0,0,1-.51-.317l-2.02-4.074a.569.569,0,1,1,1.02-.506l2.02,4.074a.569.569,0,0,1-.51.823Zm-2.1-8.533-.057,0a.569.569,0,0,1-.51-.623c.124-1.241.276-2.773.452-4.542a.569.569,0,0,1,1.133.112c-.175,1.77-.328,3.3-.452,4.543A.57.57,0,0,1,3264.966,1029.577Zm.9-9.083-.056,0a.569.569,0,0,1-.511-.622c.14-1.428.289-2.947.444-4.54a.569.569,0,1,1,1.133.111c-.155,1.593-.3,3.112-.445,4.54A.569.569,0,0,1,3265.866,1020.494Zm.886-9.079-.056,0a.57.57,0,0,1-.512-.621c.143-1.473.289-2.989.438-4.538a.563.563,0,0,1,.621-.512.57.57,0,0,1,.513.621c-.149,1.549-.295,3.066-.437,4.539A.569.569,0,0,1,3266.752,1011.415Zm.872-9.077-.055,0a.569.569,0,0,1-.513-.621q.214-2.243.43-4.538a.569.569,0,1,1,1.134.107c-.144,1.527-.288,3.043-.43,4.539A.569.569,0,0,1,3267.624,1002.338Zm.855-9.077a.485.485,0,0,1-.053,0,.569.569,0,0,1-.514-.62c.141-1.513.281-3.029.42-4.541a.569.569,0,1,1,1.134.1c-.139,1.512-.279,3.029-.42,4.542A.569.569,0,0,1,3268.479,993.262Zm.835-9.081-.052,0a.57.57,0,0,1-.516-.618c.139-1.53.275-3.046.408-4.54a.57.57,0,0,1,1.135.1c-.133,1.495-.269,3.011-.408,4.541A.569.569,0,0,1,3269.314,984.181Zm.806-9.082-.05,0a.569.569,0,0,1-.518-.617c.135-1.553.264-3.071.387-4.541a.57.57,0,0,1,1.135.095c-.123,1.472-.253,2.99-.388,4.545A.569.569,0,0,1,3270.12,975.1Zm.761-9.088-.046,0a.569.569,0,0,1-.521-.613c.127-1.6.246-3.123.351-4.545a.569.569,0,1,1,1.136.084c-.1,1.423-.223,2.947-.352,4.551A.569.569,0,0,1,3270.88,966.011Zm.667-9.1h-.037a.569.569,0,0,1-.532-.6c.119-1.888.2-3.416.231-4.542a.56.56,0,0,1,.586-.552.57.57,0,0,1,.553.587c-.035,1.138-.113,2.679-.233,4.579A.569.569,0,0,1,3271.547,956.91Zm.1-9.112a.569.569,0,0,1-.567-.524c-.107-1.349-.274-2.859-.5-4.49a.569.569,0,1,1,1.128-.155c.226,1.652.4,3.184.5,4.554a.569.569,0,0,1-.522.613Zm-1.2-9.018a.569.569,0,0,1-.561-.472c-.244-1.41-.522-2.911-.829-4.46a.569.569,0,1,1,1.117-.221c.309,1.559.589,3.069.834,4.488a.57.57,0,0,1-.464.658A.582.582,0,0,1,3270.449,938.78Zm-1.759-8.929a.57.57,0,0,1-.556-.448c-.316-1.452-.653-2.942-1-4.429a.569.569,0,1,1,1.108-.26c.351,1.493.689,2.989,1.007,4.447a.569.569,0,0,1-.557.69Z" transform="translate(-3264.396 -917.653)" fill="#473574"/>
          <path id="Trazado_117767" data-name="Trazado 117767" d="M3389.972,1510.907a.569.569,0,0,1-.51-.317l-1.012-2.04a.569.569,0,1,1,1.02-.506l1.011,2.041a.569.569,0,0,1-.509.823Z" transform="translate(-3348.044 -1311.259)" fill="#473574"/>
        </g>
        <path id="Trazado_117768" data-name="Trazado 117768" d="M3201.483,983a.567.567,0,0,1-.371-.139c-7.913-6.834-14.837-21.505-15.128-22.126a.569.569,0,0,1,1.031-.483c.07.15,7.114,15.074,14.841,21.747a.57.57,0,0,1-.373,1Z" transform="translate(-3163.604 -933.639)" fill="#473574"/>
        <path id="Trazado_117769" data-name="Trazado 117769" d="M3117.916,880.709s36.438,6.355,56.1-1.557l2.879,5.673s-11.987,5.594-29.249,6.074a117.639,117.639,0,0,1-30.328-3Z" transform="translate(-3117.316 -879.152)" fill="#473574"/>
        <g id="Grupo_69769" data-name="Grupo 69769" transform="translate(29.444 5.045)">
          <path id="Trazado_117770" data-name="Trazado 117770" d="M3209.26,920.868l-1.454-1.753,7.6-6.3a17.813,17.813,0,0,1-.758-5.545c-.025-5.468,3.834-11.045,8.6-12.434a4.12,4.12,0,0,1,3.326.414c2.858,1.692,4,6.5,4.116,7.04l.15.679Zm15.205-23.935a2.063,2.063,0,0,0-.581.088c-3.794,1.1-6.981,5.792-6.961,10.237a18.532,18.532,0,0,0,.4,3.962l10.97-9.1c-.43-1.487-1.426-4.053-2.882-4.913A1.822,1.822,0,0,0,3224.465,896.933Z" transform="translate(-3207.806 -894.658)" fill="#d4bdb7"/>
          <path id="Trazado_117771" data-name="Trazado 117771" d="M3211.378,944.393l-1.192-1.941,23.9-14.666.594.362c.475.289,4.657,2.915,5.337,6.165a4.118,4.118,0,0,1-.681,3.282c-2.851,4.066-9.376,5.92-14.543,4.135a17.833,17.833,0,0,1-5-2.5Zm10.54-6.468a18.564,18.564,0,0,0,3.617,1.653c4.2,1.452,9.666-.055,11.935-3.29a1.823,1.823,0,0,0,.317-1.505c-.345-1.656-2.452-3.426-3.722-4.312Z" transform="translate(-3209.412 -917.006)" fill="#d4bdb7"/>
          <path id="Trazado_117772" data-name="Trazado 117772" d="M3214.521,967.381a1.066,1.066,0,1,1,1.066,1.066A1.066,1.066,0,0,1,3214.521,967.381Z" transform="translate(-3212.336 -942.999)" fill="#4c2959"/>
        </g>
        <path id="Trazado_117773" data-name="Trazado 117773" d="M3209.567,964.365a.563.563,0,0,1-.3-.083c-8.317-5.062-20.555-29.754-21.072-30.8a.569.569,0,0,1,1.021-.5c.125.254,12.607,25.442,20.643,30.333a.57.57,0,0,1-.3,1.056Z" transform="translate(-3165.095 -915.248)" fill="#473574"/>
        <g id="Grupo_69770" data-name="Grupo 69770" transform="translate(38.179 31.259)">
          <path id="Trazado_117774" data-name="Trazado 117774" d="M3235.032,986.671a.38.38,0,0,1-.357-.509l2-5.514a.379.379,0,1,1,.713.259l-2,5.514A.38.38,0,0,1,3235.032,986.671Z" transform="translate(-3234.652 -978.712)" fill="#d4bdb7"/>
          <circle id="Elipse_5165" data-name="Elipse 5165" cx="1.366" cy="1.366" r="1.366" transform="translate(1.271)" fill="#d4bdb7"/>
        </g>
        <g id="Grupo_69771" data-name="Grupo 69771" transform="translate(40.936 37.921)">
          <path id="Trazado_117775" data-name="Trazado 117775" d="M3243.505,1002.336a.38.38,0,0,1-.164-.722l3.836-1.838a.38.38,0,0,1,.328.685l-3.836,1.838A.375.375,0,0,1,3243.505,1002.336Z" transform="translate(-3243.125 -998.422)" fill="#d4bdb7"/>
          <path id="Trazado_117776" data-name="Trazado 117776" d="M3256.3,998a1.366,1.366,0,1,1-.056-1.931A1.365,1.365,0,0,1,3256.3,998Z" transform="translate(-3250.42 -995.693)" fill="#d4bdb7"/>
        </g>
        <g id="Grupo_69772" data-name="Grupo 69772" transform="translate(40.916 41.099)">
          <path id="Trazado_117777" data-name="Trazado 117777" d="M3243.443,1009.405a.38.38,0,0,1,0-.759l6.414-.057h0a.38.38,0,0,1,0,.759l-6.415.057Z" transform="translate(-3243.063 -1007.571)" fill="#d4bdb7"/>
          <path id="Trazado_117778" data-name="Trazado 117778" d="M3263.931,1008.087a1.366,1.366,0,1,1,.731-1.788A1.365,1.365,0,0,1,3263.931,1008.087Z" transform="translate(-3255.863 -1005.462)" fill="#d4bdb7"/>
        </g>
      </g>
      <g id="Grupo_69774" data-name="Grupo 69774" transform="translate(2613.704 230.339)">
        <path id="Trazado_117779" data-name="Trazado 117779" d="M2976.087,390.834s-8.349,12.4-13.589,15.833a13.064,13.064,0,0,1-6.165-6.446L2951.389,389c-.141-.4-.288-.8-.429-1.213-6.58-18.46-14.031-43.226-14.031-43.226l11.022-6.231,25.207,47.038Z" transform="translate(-2920.23 -315.009)" fill="#e9948d"/>
        <path id="Trazado_117780" data-name="Trazado 117780" d="M2885.608,273.107s2.763,3.535,10.158-2.033l8.376.839-6.071-4.727a5.947,5.947,0,0,0-6.243.813Z" transform="translate(-2885.608 -266.648)" fill="#e9948d"/>
        <path id="Trazado_117781" data-name="Trazado 117781" d="M2930.977,299.2s1.147-5.184.487-7.361-3.48-9.423-3.48-9.423-4.241-3.852-8.489-4.411a54.2,54.2,0,0,1-8.964-2.182,3.768,3.768,0,0,0,.415,4.08c1.61,1.871,7.611,5.135,7.611,5.135s.562,5.773,1.616,7.739-4.824,9.419-4.824,9.419,4.1,3.018,7.248,2.19S2930.977,299.2,2930.977,299.2Z" transform="translate(-2902.133 -272.836)" fill="#e9948d"/>
      </g>
      <g id="Grupo_69777" data-name="Grupo 69777" transform="translate(2689.141 224.947)">
        <path id="Trazado_117782" data-name="Trazado 117782" d="M3136.528,255.107s-8.653,4.437-9.984,11.537-.444,15.753-9.1,18.416a6.408,6.408,0,0,0,4.216,5.768s-1.109,14.866,7.1,22.631c0,0,13.534-1.553,19.081-6.656s9.541-10.872,10.872-23.3a44.9,44.9,0,0,1-13.978-12.869A72.329,72.329,0,0,1,3136.528,255.107Z" transform="translate(-3117.447 -253.471)" fill="#e9948d"/>
        <g id="Grupo_69775" data-name="Grupo 69775" transform="translate(38.187 28.816)">
          <path id="Trazado_117783" data-name="Trazado 117783" d="M3235.181,340.193s5.968-3.551,8.46.076-2.092,15.564-8.749,12.346A90.215,90.215,0,0,1,3235.181,340.193Z" transform="translate(-3234.807 -338.637)" fill="#e9948d"/>
          <path id="Trazado_117784" data-name="Trazado 117784" d="M3244.755,355.7c-.03-.013-.06-.018-.091-.029a2.932,2.932,0,0,1,1.582-1.358s-2.6-.648-3.868,2.4l0,.071a1.776,1.776,0,1,0,2.381-1.083Z" transform="translate(-3239.851 -349.176)" fill="#cf696d"/>
        </g>
        <path id="Trazado_117785" data-name="Trazado 117785" d="M3130.4,357.223s4.141.3,4.733-3.7c0,0,.887,2.662-.37,3.624C3133.77,357.911,3130.957,357.666,3130.4,357.223Z" transform="translate(-3126.187 -319.865)" fill="#cf696d"/>
        <path id="Trazado_117786" data-name="Trazado 117786" d="M3167.407,324.4c0,1.471-.731,2.664-1.634,2.664s-1.634-1.193-1.634-2.664.731-2.664,1.634-2.664S3167.407,322.926,3167.407,324.4Z" transform="translate(-3148.946 -298.418)"/>
        <path id="Trazado_117787" data-name="Trazado 117787" d="M3165.767,322.717a.507.507,0,0,1-.467-.312,2.877,2.877,0,0,0-1.584-1.743,2.974,2.974,0,0,0-2.135.184.506.506,0,0,1-.475-.894,3.972,3.972,0,0,1,2.943-.246,3.83,3.83,0,0,1,2.185,2.31.506.506,0,0,1-.467.7Z" transform="translate(-3146.72 -296.924)"/>
        <path id="Trazado_117788" data-name="Trazado 117788" d="M3155.519,299.691s6.1-.37,8.32.37c1.157.386,3.476,3.032,3.476,3.032a20.721,20.721,0,0,0-5.436-1c-2,0-4.067.148-4.844-.185S3155.519,299.691,3155.519,299.691Z" transform="translate(-3143.131 -283.486)" fill="#662150"/>
        <path id="Trazado_117789" data-name="Trazado 117789" d="M3143.345,382.183a9.374,9.374,0,0,0,.961,3.993c2.588.074,4.659,0,6.138-2.071s1.183-3.106,1.183-3.106A12.335,12.335,0,0,1,3143.345,382.183Z" transform="translate(-3134.918 -338.4)" fill="#fff"/>
        <path id="Trazado_117790" data-name="Trazado 117790" d="M3144.709,380.549a13.347,13.347,0,0,1-3.992-.631.527.527,0,0,1,.344-1c.054.019,5.5,1.846,8.552-1.206a.527.527,0,1,1,.746.745A7.78,7.78,0,0,1,3144.709,380.549Z" transform="translate(-3132.906 -336.081)" fill="#cf696d"/>
        <g id="Grupo_69776" data-name="Grupo 69776" transform="translate(11.168 30.924)">
          <path id="Trazado_117791" data-name="Trazado 117791" d="M3152.8,345.632a.517.517,0,1,1-.517-.517A.517.517,0,0,1,3152.8,345.632Z" transform="translate(-3151.768 -345.115)" fill="#cf696d"/>
          <path id="Trazado_117792" data-name="Trazado 117792" d="M3161.563,348.314a.517.517,0,1,1-.518-.518A.517.517,0,0,1,3161.563,348.314Z" transform="translate(-3157.678 -346.924)" fill="#cf696d"/>
          <path id="Trazado_117793" data-name="Trazado 117793" d="M3154.225,353.224a.518.518,0,1,1-.518-.518A.518.518,0,0,1,3154.225,353.224Z" transform="translate(-3152.727 -350.236)" fill="#cf696d"/>
          <path id="Trazado_117794" data-name="Trazado 117794" d="M3165.872,353.338a.518.518,0,1,1-.518-.517A.517.517,0,0,1,3165.872,353.338Z" transform="translate(-3160.584 -350.314)" fill="#cf696d"/>
          <path id="Trazado_117795" data-name="Trazado 117795" d="M3172.467,347.288a.517.517,0,1,1-.518-.518A.517.517,0,0,1,3172.467,347.288Z" transform="translate(-3165.034 -346.231)" fill="#cf696d"/>
        </g>
        <path id="Trazado_117796" data-name="Trazado 117796" d="M3191.224,278.644a.527.527,0,0,1-.244-.06c-9.421-4.935-14.9-26.92-15.133-27.854a.527.527,0,0,1,1.024-.251c.055.224,5.6,22.456,14.6,27.171a.527.527,0,0,1-.245.994Z" transform="translate(-3156.834 -250.078)" fill="#933662"/>
        <path id="Trazado_117797" data-name="Trazado 117797" d="M3198.4,358.09c.39,1.152-1.626,2.875-4.5,3.85s-5.527.832-5.917-.32,1.627-2.875,4.5-3.85S3198.013,356.938,3198.4,358.09Z" transform="translate(-3164.998 -322.292)" fill="#cf696d" opacity="0.5"/>
      </g>
      <g id="Grupo_69778" data-name="Grupo 69778" transform="translate(2703.083 321.798)">
        <path id="Trazado_117798" data-name="Trazado 117798" d="M3244.5,574.654c-1.382,2.49-7.338,12.846-14.269,24.735a41.419,41.419,0,0,0-9.706-9.031,45.483,45.483,0,0,0-14.725-6.013l10.287-24.435c5.037-11.149,16.9-15.825,25.892-8.993C3249.317,556.5,3248.091,568.182,3244.5,574.654Z" transform="translate(-3190.991 -547.729)" fill="#7fcad8"/>
        <path id="Trazado_117799" data-name="Trazado 117799" d="M3199.532,675.3c-1.1,1.879-2.217,3.8-3.344,5.728-1.848,3.158-3.728,6.354-5.568,9.478-.79,1.34-1.576,2.665-2.346,3.967l-.479.809c-7.254,12.238-13.4,22.309-14.272,22.89-2.156,1.439-6.472,1.8-11.149-1.8s0-25.892,0-25.892l5.2-12.356.7-1.655,1.655-3.929,5.174-12.287a45.476,45.476,0,0,1,14.725,6.013A41.407,41.407,0,0,1,3199.532,675.3Z" transform="translate(-3160.296 -623.645)" fill="#e9948d"/>
        <path id="Trazado_117800" data-name="Trazado 117800" d="M3211.276,698.185l-7.915,13.445-.479.809c-3.963-11.991-16.43-15.827-20.221-17.154l.7-1.655,1.655-3.929c4.893-1.549,13.711-4.255,14.743-4S3207.525,693.767,3211.276,698.185Z" transform="translate(-3175.385 -640.797)" fill="#cf696d"/>
        <path id="Trazado_117801" data-name="Trazado 117801" d="M3215.608,676.366l-8.872,14.865s-.4-.444-1.124-1.177a67.761,67.761,0,0,0-11.342-9.372,34.839,34.839,0,0,0-11-4.661c-.482-.1-.744-.137-.744-.137l6.472-16.3s.4.068,1.1.22a45.478,45.478,0,0,1,14.725,6.013,41.415,41.415,0,0,1,9.707,9.031C3215.247,675.789,3215.608,676.366,3215.608,676.366Z" transform="translate(-3175.29 -623.188)" fill="#a4f0fe"/>
      </g>
      <g id="Grupo_69779" data-name="Grupo 69779" transform="translate(2714.312 287.228)">
        <path id="Trazado_117802" data-name="Trazado 117802" d="M3205.364,451.8l3.476,14.145s10.909-1.918,18.1-5.514a24.365,24.365,0,0,0,10.309-10.069l-4.795-8.871s-.48,5.754-11.987,8.391S3205.364,451.8,3205.364,451.8Z" transform="translate(-3201.927 -441.486)" fill="#a4f0fe"/>
        <path id="Trazado_117803" data-name="Trazado 117803" d="M3196.961,456.468,3194.8,467.9l1.279,5.994,2.637-11.987Z" transform="translate(-3194.803 -451.593)" fill="#a4f0fe"/>
      </g>
    </g>
  </g>
</svg>
