<svg xmlns="http://www.w3.org/2000/svg" xmlns:xlink="http://www.w3.org/1999/xlink" width="467" height="264.873" viewBox="0 0 467 264.873"><defs><clipPath id="a"><path d="M200.184,248.475c2.188-1.879,11.16-15.748,14.083-26.8,17.519,9.911,19.4,40.566,19.4,40.566l21.9,46.932L236.79,321.682,203.63,304.79Z" transform="translate(-200.184 -221.673)" fill="none"/></clipPath><linearGradient id="b" x1="9.44" y1="0.741" x2="10.582" y2="-0.66" gradientUnits="objectBoundingBox"><stop offset="0.055" stop-color="#fff"/><stop offset="0.643" stop-color="#b8aba8"/></linearGradient><linearGradient id="c" x1="13.159" y1="1.328" x2="14.557" y2="-0.732" xlink:href="#b"/><linearGradient id="d" x1="-16.351" y1="-2.666" x2="-15.374" y2="-2.666" gradientUnits="objectBoundingBox"><stop offset="0" stop-color="#fff"/><stop offset="0.643" stop-color="#c6c0b9"/></linearGradient></defs><g transform="translate(-119.928 -196.186)"><g transform="translate(301.614 245.415)"><g clip-path="url(#a)"><g transform="translate(1.988)"><path d="M236.159,269l-8.18-7.655s-1.92-1.1-9.306-1.984a10.874,10.874,0,0,0-1.184-1.215l-2.385,1.98-1.5,2.66a5.25,5.25,0,0,1,1.213,1c1.58,2.316,3.071,3.081,4.143,4.466,1.733,2.2,5.777,3.734,5.777,3.734l.753-.145-3.95-4.782-.241-2.042s2.283-1.244,3.637-.365a51.409,51.409,0,0,0,10.206,4.68C236.519,269.738,236.159,269,236.159,269Z" transform="translate(-189.671 -187.7)" fill="#edc0b7"/><path d="M213.308,221.673c3.546,5.008,6.156,30.055,7.407,35.474S232.5,290.082,232.5,290.082l-8.759,4.172s-14.6-24.192-15.439-28.782-7.087-20.855-7.087-20.855Z" transform="translate(-201.213 -221.673)" fill="#ede3b7"/><path d="M222.743,256.659l-11.058,5.63,3.131,2.92,9.384-4.169Z" transform="translate(-191.458 -189.083)" fill="#636363"/></g></g></g><g transform="translate(259.382 359.41)"><path d="M178.587,280.691c1.228,7.351-.243,12.014-.243,14.96a98.188,98.188,0,0,0,2.946,26.985c3.427,13.252,2.942,14.718,1.961,19.632s-3.929,9.316-1.472,11.278,9.812.485,9.812-5.889,0-10.793-.494-13.729.981-16.2,1.476-25.025-.153-11.709.489-15.7a37.531,37.531,0,0,0-.489-12.51Z" transform="translate(-178.319 -280.691)" fill="#f7d8d0"/><path d="M181.866,317.348c-.981,2.2-1.149,7.247.572,7.5s7.208-.775,8.255-9.422c.282-4.715,0-5.493,0-5.493s2.262,6.83,1.284,11-1.675,4.6-3.145,8.279-6.654,6.059-8.371,4.837-1.358-5.182-.867-8.62A47.192,47.192,0,0,1,181.866,317.348Z" transform="translate(-177.508 -253.455)" fill="#232121"/><g transform="translate(18.729 0.817)"><path d="M202.043,281.114c-.346,7.458,1.677,11.906,2.028,14.828a98.27,98.27,0,0,1,.286,27.142c-1.833,13.569-1.169,14.969.392,19.723s5.01,8.79,2.81,11.033-9.692,1.65-10.444-4.688-1.292-10.714-1.155-13.691-2.9-15.962-4.441-24.662c-1.537-8.717-1.254-11.647-2.362-15.533a37.469,37.469,0,0,1-1-12.491Z" transform="translate(-188.016 -281.114)" fill="#edc0b7"/><path d="M202.1,317.918c1.238,2.067,2.65,6.316.064,7.062-1.665.481-6.2-1.5-8.912-8.7a18.238,18.238,0,0,1-.921-5.567s-.939,7.568.529,11.589,2.067,4.081,4.47,7.234c2.957,3.882,7.91,5.441,9.472,4.029s.075-6.928-1.592-9.973C203.8,321.012,202.1,317.918,202.1,317.918Z" transform="translate(-184.269 -253.544)"/></g><path d="M191.532,308.619c-1.539-8.713-1.252-11.645-2.356-15.531a44.538,44.538,0,0,1-1.082-9l14.152.436c.479,4.228,1.584,7.145,1.835,9.25a102.937,102.937,0,0,1,1.016,18.757l-12.731.52C192.056,311.5,191.777,310,191.532,308.619Z" transform="translate(-169.214 -277.528)" fill="url(#b)" style="mix-blend-mode:multiply;isolation:isolate"/><path d="M178.69,284.169l14.465.96a29.414,29.414,0,0,1-.326,4.812c-.618,3.832-.052,6.648-.442,14.68L178.663,286.8C178.682,286.6,178.682,284.378,178.69,284.169Z" transform="translate(-177.999 -277.451)" fill="url(#c)" style="mix-blend-mode:multiply;isolation:isolate"/></g><path d="M178.371,277.472a48.69,48.69,0,0,1,11.842-20.024,196.667,196.667,0,0,0,4.257-27.928s-1.876-12,4.2-15.75c4.547-2.8,12.35-2.181,16.8-.7,23.1,7.7,25.552,17.851,25.552,17.851-2.1,6.646-4.317,12.889-7.355,18.2-2.223,3.894-11.52,14.859-15.244,19.2a60.147,60.147,0,0,1,5.1,19.653c.883,8.472-2.642,54.707-6.08,64.61l-46.677-.207S174.506,290.707,178.371,277.472Z" transform="translate(74.024 14.558)" fill="#232121"/><g transform="translate(256.121 226.351)"><path d="M237.039,232.849c-2.1,6.65-5.337,10.973-8.369,16.285-2.225,3.894-11.525,14.859-15.242,19.2a60.048,60.048,0,0,1,5.091,19.653c.881,8.472,8.895,57.322,10.5,64.726l-52.352-.158c-.431-14.54,2.76-42.268,2.949-57.776.253-20.723,7.631-28.838,9.03-33.037s12.254-14.933,14.125-19.6c1.53-3.824,5.13-23.682.224-30.329a75.333,75.333,0,0,1,7.469,1.279C233.57,220.783,237.039,232.849,237.039,232.849Z" transform="translate(-176.631 -211.803)"/></g><g transform="translate(396.054 300.017)"><path d="M272.865,249.942a23.369,23.369,0,0,1-7.738,2.658,59.781,59.781,0,0,0-6.8-.112c-.858.222-5.507,1.787-6.341,1.81s-3.195-.216-2.88.744,2.181,1.312,2.946,1.312a28.145,28.145,0,0,0,3.564.071c.78-.126-2.049,2.418-.346,4.271.489.531,6.328,2.523,6.606,2.5,1.259-.087,15.095-7.863,15.095-7.863Z" transform="translate(-249.078 -249.942)" fill="#f7d8d0"/><path d="M261.546,259.9l1.393-1.806a1.579,1.579,0,0,0,.305-1.754c-.182-.431-1.192-.1-1.63.388-.139.158-1.52,1.576-1.52,1.576a4.287,4.287,0,0,0,.724-1.138c.467-1.182.829-2.318-.156-2.681s-1.7,1.9-2.416,2.432c.352-.68,1.1-2.92.326-3.181s-2.453,1.787-2.609,1.943a7.651,7.651,0,0,1-1.188.566,10.608,10.608,0,0,0,1.136-1.862c.06-.359-.211-.823-.869-.973-.682-.162-2.175,1.234-2.488,1.541s-1.841,1.294-2.26,1.715.562,1.23.821,1.59,1.194-.209,1.495.11c.313.3.989,1.333,1.651,1.391s1.706-.006,1.706-.006a6.614,6.614,0,0,0,1.6,1.041c.929.408,1.342-.211,1.764.2C259.736,261.421,261.546,259.9,261.546,259.9Z" transform="translate(-248.041 -246.72)" fill="#edc0b7"/></g><path d="M289.786,221.169c-1.883.9-.757,7.243-1.082,8.875s-7,27.567-7.4,29.614-22.85,18.666-22.85,18.666L265,289.593l25.471-18.521,11-32.255Z" transform="translate(155.707 23.272)" fill="#d8d8d8"/><path d="M298.448,312.779c.8,1.509-1.74,7.7-10.542,10.834-4.813,1.709-10.925,2.028-10.832,5.833s1.472,6.675,8.335,6.9,23.215-5.939,25.119-5.98-1.389-5.6-2.1-11.483S298.448,312.779,298.448,312.779Z" transform="translate(173.054 108.61)" fill="#300901"/><path d="M282.973,256.774c-.006,2.555,5.182,75.689,4.526,78.882s2.271,44.207,2.271,44.207,13.77,1.646,15.686,1.655-1.483-80.983-.834-83.541,1.8-47.939,1.8-47.939Z" transform="translate(178.55 50.165)"/><path d="M300.9,314.44c1.389,1.155,3.7,12.028-3.649,17.4-4.388,3.206-10.33,3.933-10.743,7.958-.4,3.971,5.791,7.836,12.634,5.341s16.1-8.789,17.948-9.588.8-11.249-2.233-16.76S300.9,314.44,300.9,314.44Z" transform="translate(181.826 110.06)" fill="#5e1c17"/><path d="M317.552,249.737c2.345,6.616,5.385,17.378,5.248,27.818-.278,20.822-3.552,40.995-3.094,48.282.767,12.115,4.589,56.706,1.468,61.867-1.018,1.686-18.462,2.646-20.675-1.818-.676-1.356-5.09-49.714-5.066-57.378s-9.783-50.5-11.786-63.356c-.68-4.417,11.334-12.107,11.334-12.107Z" transform="translate(179.152 49.884)" fill="#232121"/><path d="M279.745,208.6c1.437,3.425,1.561,7.5,6.052,10.917s6.349,3.15,6.349,3.15l-11.164,26.524s.581-13.973-11.33-22.705C266.234,223.983,279.745,208.6,279.745,208.6Z" transform="translate(165.625 11.566)" fill="#edc0b7"/><path d="M292.876,302.2c-3.724-1.284-4.537-29.149-7.537-32.357-3.017-3.21-10.737-33.025-10.737-33.025s1.3-3,4.663-10.983,3.579-11.508,3.579-11.508c5.783,2.443,7.8,1.978,17.386,8.626,10.1,7.006,18.039,28.332,19.329,31.723,2.656,7,11.427,23.959,11.7,39.326C331.261,294,313.186,309.228,292.876,302.2Z" transform="translate(170.753 16.9)" fill="#232121"/><g transform="translate(406.438 196.186)"><path d="M256.545,215.5c.471-10,22.639-25.846,30.476-12.764,14.3,23.839-1.516,33.784-1.516,33.784-4.2,3.044-4.613,4.641-7.9,4.591-2.183-.023-4.91-1.3-7.566-4.448-1.835.321-3.774,1.068-4.077-.2.191-1.978-2.061-7.193-2.146-8.539C260.671,222.543,256.312,220.212,256.545,215.5Z" transform="translate(-252.514 -194.698)" fill="#edc0b7"/><path d="M281.817,197.65c-2.915-1.632-8.719-2.559-15.126.863-6.21,3.322-7.7,5.735-9.534,12.145-.946,3.249,1.6,7.846,1.6,7.846a12.174,12.174,0,0,1,3.84-2.109c1.694-.379,3.28-2.3,6.7-.549a57.613,57.613,0,0,0,5.464,2.383s14.544,7.5,15.755,9.517,5.217-.158,5.217-.158.361-10.909-1-16.209C291.595,198.99,282.5,198.056,281.817,197.65Z" transform="translate(-252.131 -196.186)" fill="#5e1c17"/><g transform="translate(0 0.129)"><path d="M271.5,215.821c-3.43-1.738-5.018.182-6.716.558s-5.432,5.074-5.432,5.074-5.752-2.662-4.79-5.941c1.827-6.409,8.1-13.7,14.33-17.028a19.282,19.282,0,0,1,7.1-2.231c-2.424,2.66-3.332,7.5,4.777,21.817a13.688,13.688,0,0,0-1.507,3.427S274.393,217.285,271.5,215.821Z" transform="translate(-254.454 -196.253)" fill="#300901"/></g><path d="M267.07,211.081c.736-1.383,1.675-4.887,3.486-4.054s5.6,6.731,3.639,9.619C272.254,219.526,267.07,211.081,267.07,211.081Z" transform="translate(-242.701 -186.205)" fill="#edc0b7"/></g><path d="M299.541,241.58c-1.368-2.32-7.33,13.14-9.917,20.134-.7-2.331-1.3-4.161-1.7-5.149-2.132-5.254-9.857-26.9-9.857-26.9l-4.023-7.154c-.692,3.44-.353,20.015-.353,20.015s3.973,10.635,6.111,15.889,10.842,20.886,10.27,38.918c-.131,4.008,3.289.023,5.337-2.8.861,1.7,2.482,4.47,3.83,4.249,1.933-.326,17.14-7.516,19.441-7.444C315.166,281.246,312.291,263.111,299.541,241.58Z" transform="translate(169.826 24.525)"/><path d="M272.81,220.621l-1.415,2.907,1.713,6.926,2.741-5.679Z" transform="translate(167.765 22.762)" fill="#e0e0e0"/><path d="M281.138,213.175c-1.706,5.771-8.754,15.649-8.754,15.649l4.84,10.523,10.146-22.9Z" transform="translate(168.686 15.826)" fill="#fff"/><g transform="translate(141.296 342.651)"><rect width="354.744" height="43.461" transform="translate(5.392 3.884)" fill="#5b5b5b"/><rect width="11.142" height="118.408" transform="translate(352.628)" fill="#5b5b5b"/><rect width="11.141" height="118.408" fill="#5b5b5b"/></g><g transform="translate(119.928 331.627)"><path d="M523.333,275.644c0,.493-.553.9-1.229.9H64.594c-.683,0-1.234-.408-1.234-.9l13.932-8.416a4.468,4.468,0,0,1,2.432-.921l424.486.039a8.989,8.989,0,0,1,3.343.958Z" transform="translate(-63.167 -266.307)" fill="#f4f0ce"/><path d="M530.26,279.874c0,.653-5.464,1.174-6.125,1.174H64.463a1.187,1.187,0,0,1-1.2-1.174v-7.639a1.191,1.191,0,0,1,1.2-1.176H524.135c.661,0,6.125.527,6.125,1.176Z" transform="translate(-63.26 -261.881)" fill="#d8d8d8"/></g><g transform="translate(173.631 278.494)"><path d="M200.889,270.983c0,1.821-1.76,3.3-3.936,3.3H138.006c-2.177,0-3.938-1.478-3.938-3.3v-4.956c0-1.823,1.762-3.3,3.938-3.3h58.946c2.177,0,3.936,1.48,3.936,3.3Z" transform="translate(-133.79 -216.512)" fill="#ff8825"/><path d="M200.889,264.759c0,1.819-1.76,3.3-3.936,3.3H138.006c-2.177,0-3.938-1.476-3.938-3.3V259.8c0-1.819,1.762-3.3,3.938-3.3h58.946c2.177,0,3.936,1.482,3.936,3.3Z" transform="translate(-133.79 -222.306)" fill="#ce0000"/><path d="M200.889,258.778c0,1.821-1.76,3.3-3.936,3.3H138.006c-2.177,0-3.938-1.478-3.938-3.3v-4.952c0-1.823,1.762-3.3,3.938-3.3h58.946c2.177,0,3.936,1.482,3.936,3.3Z" transform="translate(-133.79 -227.88)" fill="#4d87db"/><path d="M201.177,252.794c0,1.827-1.765,3.3-3.942,3.3H138.288c-2.167,0-3.935-1.476-3.935-3.3v-4.95c0-1.825,1.767-3.3,3.935-3.3h58.946c2.177,0,3.942,1.478,3.942,3.3Z" transform="translate(-133.523 -233.45)" fill="#f9a819"/><path d="M200.749,247.054c0,1.821-1.76,3.3-3.936,3.3H137.866c-2.175,0-3.942-1.478-3.942-3.3V242.1c0-1.827,1.767-3.3,3.942-3.3h58.946c2.177,0,3.936,1.476,3.936,3.3Z" transform="translate(-133.924 -238.799)" fill="#9e5ea5"/></g><path d="M217.632,198.514c2.8,1.746,6.587,2.687,9.215,13.065,3.734,14.751-3.848,41.3-7.7,44.8-3.5-2.8-17.266-17.961-17.266-17.961Z" transform="translate(103.014 2.169)" fill="#300901"/><g transform="translate(288.097 199.233)"><path d="M214.348,225.037c-4.184,1.408-6.61,3.927-8.561,8.6-.433,1.018-4.553,4.2-8.754-.7-1.9-2.217-3.5-3.148-3.848-9.449,2.9-1.76,6.882-8.01,7.581-16.024S214.348,225.037,214.348,225.037Z" transform="translate(-193.186 -190.182)" fill="#edc0b7"/><g transform="translate(0.35 15.976)" style="mix-blend-mode:multiply;isolation:isolate"><path d="M200.946,206.756c.408-4.566,11.309,13.81,14.591,19.854L198.968,234.9c-7.006-3.848-5.163-9.683-5.6-11.547C196.26,221.588,200.243,214.766,200.946,206.756Z" transform="translate(-193.367 -206.035)" fill="url(#d)"/></g><path d="M223.278,233.621a30.64,30.64,0,0,1,.666-4.049,41.026,41.026,0,0,0,3.114-4.85c5.8-10.558,4.833-19.731-3.556-24.347s-17.824-3.587-23.636,6.975-4.16,25,4.238,29.622c5.509,3.034,11.17,1.34,16.055-3.154C221.5,234.282,222.869,234.527,223.278,233.621Z" transform="translate(-190.166 -197.764)" fill="#edc0b7"/></g><path d="M214.086,215.449c3.5,1.4,4.894,4.9,3.5,9.976-.435,1.568,4.315-11.84,1.512-18.145s-6.3-9.329-9.791-8.864S214.086,215.449,214.086,215.449Z" transform="translate(109.124 2.034)"/><path d="M227.089,216.917c-1.752,1.4-7.179,1.58-11.025.875s-8.4,3.849-8.4,3.849l-10.853-8.054s1.053-14.573,15.4-16.09c9.426-1,11.328,3.436,12.955,6.824C229.184,212.721,227.089,216.917,227.089,216.917Z" transform="translate(98.285 1.088)" fill="#5e1c17"/><path d="M218.156,216.177c-2.451,1.055-21,15.75-14.7,35.7-11.9-5.6-11.9-27.65-11.9-27.65s8.754-21.463,19.483-25.78C215.454,196.674,218.156,216.177,218.156,216.177Z" transform="translate(93.39 2.002)" fill="#5e1c17"/><g transform="translate(248.184 226.997)"><path d="M187.336,235.269c.444,1.118.336.757,2.567,3.21.255.274,2.378,1.918,2.928,2.347,2.449.946,6.548,3,6.971,3,.5,0,2.383-.187,2.544.875.193,1.265-2.519.813-3.967.641a20.085,20.085,0,0,1,2.575,4.106s-1.441,4.585-2.362,4.585c-2.347,0-4.17-.79-6.791-2.467-1.147-.728-7.815-10.714-8.263-11.386S187.336,235.269,187.336,235.269Z" transform="translate(-162.292 -190.59)" fill="#edc0b7"/><g transform="translate(0)"><path d="M204.742,216.679c-.751-2.25-1.265-4.725-3.973-4.531-6.411.471-23.625,13.917-28.21,26.846-1.039,9.6,20.436,25.969,22.315,26.18s4.939-5.795,4.939-5.795-12.466-15.576-13.09-18.239c-.212-.9-2.148-6.648,13.3-11.587C202.831,228.659,206.621,222.314,204.742,216.679Z" transform="translate(-172.522 -212.138)" fill="#ede3b7"/><path d="M193.861,239.19l-2.812-4.378-9.18,8.969,4.382,2.812Z" transform="translate(-163.816 -191.015)" fill="#636363"/></g></g><path d="M190.072,229.214c-2.144-1.717-14.16-8.586-15.875,6.005s-3.434,33.9-3.434,33.9l8.586,1.719s4.931-35.617,9.225-35.617S190.072,229.214,190.072,229.214Z" transform="translate(74.024 27.863)" fill="#5e1c17"/><path d="M190.545,230.432c-1.29-4.286-13.737-6.223-15.45,8.367s-3.222,44.2-3.222,44.2l7.3.425s6.863-47.413,11.157-47.413S190.545,230.432,190.545,230.432Z" transform="translate(75.058 29.004)" fill="#ce0000"/><path d="M189.781,230.723c-2.146-1.717-12.23-3.649-12.87,6-.981,14.662-2.148,40.126-2.148,40.126l8.58,1.5s1.933-41.414,6.223-41.414S189.781,230.723,189.781,230.723Z" transform="translate(77.75 30.86)" fill="#76347f"/><path d="M190.662,232.528c-2.571-2.731-11.744-1.607-12.23,7.724-.757,14.674-1.447,38.036-1.447,38.036l6.652.85s3.216-40.653,7.512-40.653S190.662,232.528,190.662,232.528Z" transform="translate(79.82 32.643)" fill="#fff"/><path d="M193.762,237.682a40.14,40.14,0,0,0-3-5.263s-6.44-1.072-8.367,4.079c-1.414,3.776-4.3,26.6-4.3,26.6l10.2,9.493s-1.609-26.443-.11-30.306C188.728,240.877,193.762,237.682,193.762,237.682Z" transform="translate(80.854 33.665)" fill="#f9a819"/><path d="M284.048,266.309s20.159,7.367,22.093,9.3-8.014,70.423-8.014,70.423-42.488,3.216-46.347,4.5c-1.286-23.171-2.177-71.951-5.4-75.167s-11.467-9.055-11.467-9.055Z" transform="translate(133.784 65.321)" fill="#ce0000"/><path d="M265.888,275.48l-2.052,18.832-53.875-3.661.854-15.239,1.352-8.986,42.976-.241Z" transform="translate(110.537 65.205)" fill="#f9a819"/><path d="M192.2,266.425s-24.669,6.013-25.313,8.588l-5.994,66.5s60.063,9.244,80.661,8.273c0-45.482,7.626-74.188,7.626-74.188l13.521-9.416Z" transform="translate(64.831 65.205)" fill="#9e5ea5"/><g transform="translate(416.175 241.386)"><path d="M280.485,254.457c-1.138,1.615-3.577,4.224-4.719,5.841s-7.62,4.57-8.248,5.615-2.957,3.643-3.6,4.6a53.56,53.56,0,0,1-3.973,5.592c-.925.946-.417,2.754,1.4,1.128,2.324-2.086,4.976-4.914,4.976-4.914s-.4,2.049.46,2.478c1.323.657,1.207.272,2.007-.3.831.676,1.883,1.377,3.259.23.734,1.379,1.957,1.018,3.262.023s5.768-7.386,7.065-9.262,6.469-6.055,6.469-6.055Z" transform="translate(-259.495 -187.105)" fill="#f7d8d0"/><path d="M290.44,223.707c3.4-6.034,9.457-4.788,13.741-.446s.873,36.995-5.151,51.5c0,0-17.361,26.842-20.6,27.9-7.971-5.87-11.369-9.806-11.369-9.806l18.4-28.95Z" transform="translate(-252.447 -219.587)" fill="#fff"/></g><g transform="translate(507.098 314.889)"><g transform="translate(26.823)"><path d="M.134,0H4.57A.135.135,0,0,1,4.7.135V2.462a.134.134,0,0,1-.134.134H.134A.134.134,0,0,1,0,2.462V.134A.134.134,0,0,1,.134,0Z" transform="translate(3.487)"/><path d="M.193,0H6.553a.192.192,0,0,1,.192.192V3.528a.191.191,0,0,1-.191.191H.193A.193.193,0,0,1,0,3.526V.193A.193.193,0,0,1,.193,0Z" transform="translate(2.467 18.668)"/><path d="M332.135,276.636a1.3,1.3,0,0,1-1.3,1.3h-9.084a1.3,1.3,0,0,1-1.3-1.3l1.3-17.3a1.3,1.3,0,0,1,1.3-1.3h6.488a1.3,1.3,0,0,1,1.3,1.3Z" transform="translate(-320.455 -257.277)" fill="#4d87db"/></g><g transform="translate(40.232)"><path d="M.136,0H4.572a.134.134,0,0,1,.134.134V2.462a.134.134,0,0,1-.134.134H.136A.136.136,0,0,1,0,2.46V.136A.136.136,0,0,1,.136,0Z" transform="translate(3.488)"/><path d="M.193,0H6.552a.193.193,0,0,1,.193.193V3.528a.191.191,0,0,1-.191.191H.193A.193.193,0,0,1,0,3.526V.193A.193.193,0,0,1,.193,0Z" transform="translate(2.468 18.668)"/><path d="M339.077,276.636a1.3,1.3,0,0,1-1.3,1.3h-9.084a1.3,1.3,0,0,1-1.3-1.3l1.3-17.3a1.3,1.3,0,0,1,1.3-1.3h6.488a1.3,1.3,0,0,1,1.3,1.3Z" transform="translate(-327.397 -257.277)" fill="#f9a819"/></g><g transform="translate(13.627)"><path d="M.134,0H4.57A.134.134,0,0,1,4.7.134V2.462A.134.134,0,0,1,4.57,2.6H.135A.135.135,0,0,1,0,2.461V.134A.134.134,0,0,1,.134,0Z" transform="translate(3.489)"/><path d="M.193,0H6.551a.192.192,0,0,1,.192.192V3.528a.191.191,0,0,1-.191.191H.192A.192.192,0,0,1,0,3.527V.193A.193.193,0,0,1,.193,0Z" transform="translate(2.469 18.668)"/><path d="M325.3,276.636a1.3,1.3,0,0,1-1.3,1.3h-9.086a1.3,1.3,0,0,1-1.3-1.3l1.3-17.3a1.3,1.3,0,0,1,1.3-1.3h6.49a1.3,1.3,0,0,1,1.3,1.3Z" transform="translate(-313.623 -257.277)" fill="#76347f"/></g><path d="M.134,0H4.57A.135.135,0,0,1,4.7.135V2.462a.134.134,0,0,1-.134.134H.134A.134.134,0,0,1,0,2.462V.134A.134.134,0,0,1,.134,0Z" transform="translate(3.488)"/><path d="M.193,0H6.55a.193.193,0,0,1,.193.193V3.528a.191.191,0,0,1-.191.191H.193A.193.193,0,0,1,0,3.526V.193A.193.193,0,0,1,.193,0Z" transform="translate(2.469 18.668)"/><path d="M318.25,276.636a1.3,1.3,0,0,1-1.3,1.3h-9.086a1.3,1.3,0,0,1-1.3-1.3l1.3-17.3a1.3,1.3,0,0,1,1.3-1.3h6.49a1.3,1.3,0,0,1,1.3,1.3Z" transform="translate(-306.568 -257.277)" fill="#ff8825"/></g><g transform="translate(222.506 340.208)"><g transform="translate(0)"><path d="M159.228,339.514s63.283,6.992,83.88,6.02c3.038-35.314,7.046-71.577,7.384-74.429-17.467-.7-68.268.518-82.036-.355l-.015.01Z" transform="translate(-159.228 -270.75)" fill="#76347f"/></g></g><g transform="translate(320.412 340.564)"><path d="M265.326,298.458l.724-27.524c-10.144.589-45.36.212-55.2.29l-.931,16.491Z" transform="translate(-209.916 -270.934)" fill="#ff8825"/></g><g transform="translate(380.289 340.685)"><path d="M310.733,340.9s-8.383-67.318-10.3-69.9c-13.279.12-38.509.12-59.514.12,2.948,7.946,1.978,54.143,3.179,75.894C247.964,345.724,310.733,340.9,310.733,340.9Z" transform="translate(-240.916 -270.997)" fill="#8c0000"/></g></g></svg>