<svg xmlns="http://www.w3.org/2000/svg" xmlns:xlink="http://www.w3.org/1999/xlink" width="256" height="179" viewBox="0 0 256 179">
  <defs>
    <clipPath id="clip-path">
      <rect id="Rectángulo_7440" data-name="Rectángulo 7440" width="256" height="179" rx="9" transform="translate(2098.489 1418.909)" fill="none"/>
    </clipPath>
  </defs>
  <g id="Grupo_60892" data-name="Grupo 60892" transform="translate(-2098.489 -1418.909)">
    <rect id="Rectángulo_7440-2" data-name="Rectángulo 7440" width="256" height="179" rx="9" transform="translate(2098.489 1418.909)" fill="#fff"/>
    <g id="Grupo_60920" data-name="Grupo 60920">
      <g id="Grupo_60919" data-name="Grupo 60919" clip-path="url(#clip-path)">
        <g id="Grupo_60918" data-name="Grupo 60918">
          <path id="Trazado_116447" data-name="Trazado 116447" d="M2298.139,1449.179l-42.7,7.56a77.79,77.79,0,0,1-12.963,1.553c-6.225.044-12.388-1.406-18.614-1.375-7.043.036-13.923,1.962-20.7,3.872l-38.944,10.974a3.725,3.725,0,0,0-2.07,1.106,3.647,3.647,0,0,0-.213,3.017,64.067,64.067,0,0,0,7.905,19.2c3.135,5.073,7,9.733,9.441,15.172,4.936,10.975,3.673,24.1,9.285,34.743,7.412,14.058,25.536,21.374,29.462,36.775,1.524,5.977.688,12.684,3.877,17.964,3.733,6.181,11.59,8.234,18.69,9.55,35.338,6.553,71.842,8.164,107.222,1.842,8.337-1.49,16.917-3.566,23.506-8.886,6.857-5.537,10.784-14.072,12.338-22.748s.955-17.58.147-26.356a570.837,570.837,0,0,0-13.773-82.6c-1.669-6.857-3.546-13.861-7.68-19.581-2.543-3.519-7.322-10.334-11.46-11.94-3.916-1.52-9.779,1.411-13.565,2.341C2324.384,1444.536,2311.254,1446.858,2298.139,1449.179Z" fill="#dcd0c9" style="isolation: isolate"/>
          <g id="Grupo_60892-2" data-name="Grupo 60892">
            <path id="Trazado_116448" data-name="Trazado 116448" d="M2285.107,1553.937c.849,3.588-1.235,7.162-3.35,10.182a136.517,136.517,0,0,1-27.58,29.1" fill="none" stroke="#d8c3ba" stroke-miterlimit="10" stroke-width="1"/>
            <path id="Trazado_116449" data-name="Trazado 116449" d="M2302.514,1561.772a32.406,32.406,0,0,0,6.774,20.443" fill="none" stroke="#d8c3ba" stroke-miterlimit="10" stroke-width="1"/>
            <path id="Trazado_116450" data-name="Trazado 116450" d="M2286.066,1553.1c-.753.608-.088,1.806.608,2.479a43.77,43.77,0,0,0,14.77,9.4,87.8,87.8,0,0,0-9.84-8.691,55.6,55.6,0,0,1,6.518,5.708,32.381,32.381,0,0,1-8.886-4.992,23.114,23.114,0,0,1,4.848,3.9,48.08,48.08,0,0,0-6.224-4.745l12.071,7.81a6.3,6.3,0,0,0-3.674-5.824l2.963,2.114a13.686,13.686,0,0,1-10.01-4.116,5.144,5.144,0,0,1,2.607,1.506l-5.324-3.585c2.773,5.457,11.346,6.214,13.478,11.952" fill="none" stroke="#d8c3ba" stroke-miterlimit="10" stroke-width="1"/>
            <path id="Trazado_116451" data-name="Trazado 116451" d="M2260.6,1527.54c1.742,5.358.087,11.391-3.19,15.974s-8,7.921-12.848,10.786-9.941,5.359-14.474,8.7" fill="none" stroke="#d8c3ba" stroke-miterlimit="10" stroke-width="1"/>
            <path id="Trazado_116452" data-name="Trazado 116452" d="M2202.5,1556.388a36.448,36.448,0,0,1,14.692-2.186" fill="none" stroke="#d8c3ba" stroke-miterlimit="10" stroke-width="1"/>
            <path id="Trazado_116453" data-name="Trazado 116453" d="M2230.724,1590.557c.2-.45.844.124.875.616a5.262,5.262,0,0,1-2.136,4.23,15.532,15.532,0,0,1-4.373,2.216" fill="none" stroke="#d8c3ba" stroke-miterlimit="10" stroke-width="1"/>
            <path id="Trazado_116454" data-name="Trazado 116454" d="M2312.021,1587.956c-.577,2.084,1.666,4.014,3.82,4.2s4.236-.711,6.363-1.1a2.7,2.7,0,0,1,1.683.091,2.776,2.776,0,0,1,1.058,1.178c1.259,2.185,2.623,5,5.144,5.023" fill="none" stroke="#d8c3ba" stroke-miterlimit="10" stroke-width="1"/>
            <path id="Trazado_116455" data-name="Trazado 116455" d="M2302.933,1557.412l2.634,5.483c.64,1.333,1.281,2.666,2,3.96a38.7,38.7,0,0,0,8.079,10.12" fill="none" stroke="#d8c3ba" stroke-miterlimit="10" stroke-width="1"/>
            <path id="Trazado_116456" data-name="Trazado 116456" d="M2304.63,1563.074l-14.019-8.976a2.885,2.885,0,0,0-1.447-.588,4.6,4.6,0,0,0-1.83.687c-.6.268-1.446.307-1.783-.258-.252-.424-.083-.968-.165-1.455-.2-1.19-1.682-1.587-2.881-1.728l-8.946-1.054" fill="none" stroke="#d8c3ba" stroke-miterlimit="10" stroke-width="1"/>
          </g>
          <text id="Borde_del_escote." data-name="Borde del escote." transform="translate(2160.299 1438.587)" font-size="12" font-family="MyriadPro-Regular, Myriad Pro"><tspan x="0" y="0">Borde del escote.</tspan></text>
          <g id="Grupo_60909" data-name="Grupo 60909">
            <g id="Grupo_60894" data-name="Grupo 60894">
              <g id="Grupo_60893" data-name="Grupo 60893">
                <path id="Trazado_116457" data-name="Trazado 116457" d="M2174.22,1474.328s33.616,20.2,35.181,24.585-2.329,53.366-2.329,53.366-6.63,2.442-10.926-2.585-6.856-37.658-6.856-37.658l-28.991-23.4Z" fill="#dd886b"/>
              </g>
            </g>
            <g id="Grupo_60896" data-name="Grupo 60896">
              <g id="Grupo_60895" data-name="Grupo 60895">
                <path id="Trazado_116458" data-name="Trazado 116458" d="M2167.854,1472.232s30.068,24.436,30.994,29.035-9.628,53.4-9.628,53.4-6.815,1.646-10.322-3.936-.909-37.373-.909-37.373l-26.929-27.248Z" fill="#dd886b"/>
              </g>
            </g>
            <g id="Grupo_60898" data-name="Grupo 60898">
              <g id="Grupo_60897" data-name="Grupo 60897">
                <path id="Trazado_116459" data-name="Trazado 116459" d="M2171.161,1480.079s15.244,16.992,15.738,21.412-11.789,48.559-11.789,48.559a8.841,8.841,0,0,1-8.613-5.078c-2.646-5.689,1.678-35.023,1.678-35.023l-12.736-16.712Z" fill="#dd886b"/>
              </g>
            </g>
            <g id="Grupo_60900" data-name="Grupo 60900">
              <g id="Grupo_60899" data-name="Grupo 60899">
                <path id="Trazado_116460" data-name="Trazado 116460" d="M2213.374,1527.764a3.845,3.845,0,0,0-.409-.437c-1.977-1.216-5.909-2-10.776-2.473a.511.511,0,0,1-.132,0c-14.646-1.449-37.511-.468-40.64-2.417-4.227-2.636-5.66-9.539.583-14.663,6.663-5.472,17.637-12.82,17.637-12.82l25.614,5.73s2.7,20.234,7.124,25.9c.034.059.076.086.109.144.163.192.682.773.962,1.078.227.076.422.145.606.194,6.759,2.258,7.843-.214,9.392-1.526a34.02,34.02,0,0,0,.646-9.406c-.024-.22-.028-.451-.032-.682-.627-12.587-3.379-27.315-5.969-30.485-3.982-4.854-39.066-20.25-44.479-21.887-5.393-1.648-63.942,29.595-63.942,29.595l-106.887,8.116-17.072,65.475s125.528-20.21,132.107-17.77c12.07,4.525,29.268,5.273,37.675,1.957,11.7-4.626,33.511-8.268,47.108-11.09,3.249-.664,6.027-1.288,8.084-1.858a23.778,23.778,0,0,0,2.446-.8,6.624,6.624,0,0,0,.958-.452C2215.976,1536.013,2215.993,1531.073,2213.374,1527.764Z" fill="#ffa780"/>
              </g>
            </g>
            <g id="Grupo_60902" data-name="Grupo 60902">
              <g id="Grupo_60901" data-name="Grupo 60901">
                <path id="Trazado_116461" data-name="Trazado 116461" d="M2214.051,1528.331a4.45,4.45,0,0,0-.92-.872A11.507,11.507,0,0,0,2214.051,1528.331Z" fill="#ffa780"/>
              </g>
            </g>
            <g id="Grupo_60904" data-name="Grupo 60904">
              <g id="Grupo_60903" data-name="Grupo 60903">
                <path id="Trazado_116462" data-name="Trazado 116462" d="M2223.444,1526.468a6.483,6.483,0,0,1-2.873-8.4l3.519-1A34.02,34.02,0,0,1,2223.444,1526.468Z" fill="#f2d1c2"/>
              </g>
            </g>
            <path id="Trazado_116463" data-name="Trazado 116463" d="M2204.778,1509.325c-1.212,3.08-1.276,6.473-1.324,9.782l-.281,19.462c-.031,2.213.127,4.809,1.966,6.038a6.7,6.7,0,0,0,4.024.7,500.8,500.8,0,0,0,50.675-4.556,2.578,2.578,0,0,0,2.681-2.948,414,414,0,0,0,2.329-41.637c.024-4.448-.036-8.982-1.429-13.207s-4.341-8.161-8.528-9.665c-6.576-2.361-13.075,1.589-18.677,4.6-4.534,2.434-10.219,3.382-14.479,6.106-4.193,2.68-4.643,7.406-6.952,11.494C2211.974,1500.464,2206.9,1503.929,2204.778,1509.325Z" fill="#dcd0c9" style="isolation: isolate"/>
            <g id="Grupo_60906" data-name="Grupo 60906">
              <g id="Grupo_60905" data-name="Grupo 60905">
                <path id="Trazado_116464" data-name="Trazado 116464" d="M2214.033,1537.451c-.058.034-.4.156-.972.382-.07.014-.148.06-.236.085-.387.094-1.091.269-2.033.478-2.064.469-4.973,1.092-8.31,1.781-8.027,1.643-18.4,3.713-23.133,4.639,6.6-6.705,13.823-12.685,19.8-20.1,1,.019,1.967.079,2.9.132a.511.511,0,0,0,.132,0c4.555.292,8.248.8,10.186,1.724.145.072.26.135.374.2a1.792,1.792,0,0,0,.2.118,5.47,5.47,0,0,0,.874.791,2.044,2.044,0,0,1,.23.308C2216.332,1531.032,2215.867,1536.362,2214.033,1537.451Z" fill="#ffa780"/>
              </g>
            </g>
            <g id="Grupo_60908" data-name="Grupo 60908">
              <g id="Grupo_60907" data-name="Grupo 60907">
                <path id="Trazado_116465" data-name="Trazado 116465" d="M2213.061,1537.833c-.07.014-.148.06-.236.085-.387.094-1.091.269-2.033.478-2.166.607-4.944,1.231-8.193,1.9a.575.575,0,0,1-.117-.114,4.726,4.726,0,0,1-1.072-1.714c-1-2.846.811-6.076,4.071-7.213,3.248-1.157,6.7.189,7.7,3.034a4.811,4.811,0,0,1-.054,3.354A.988.988,0,0,1,2213.061,1537.833Z" fill="#f2d1c2"/>
              </g>
            </g>
          </g>
          <g id="Grupo_60910" data-name="Grupo 60910">
            <path id="Trazado_116466" data-name="Trazado 116466" d="M2303.307,1476.1s-32.859.407-35.9,2.976-21.728,40.571-21.728,40.571,3.664,4.685,8.935,2.821,20.289-24.366,20.289-24.366l32.254-3.93Z" fill="#dd886b"/>
          </g>
          <g id="Grupo_60911" data-name="Grupo 60911">
            <path id="Trazado_116467" data-name="Trazado 116467" d="M2297.971,1474.141s-32.989-4.275-36.336-2.187-26.561,36.7-26.561,36.7,3.12,5.115,8.624,4.037,24.393-21.424,24.393-21.424l31.6-.285Z" fill="#dd886b"/>
          </g>
          <g id="Grupo_60912" data-name="Grupo 60912">
            <path id="Trazado_116468" data-name="Trazado 116468" d="M2296.976,1479.575s-19.085,3.267-21.741,5.945-17.741,38.49-17.741,38.49a7.5,7.5,0,0,0,8.4,1.161c4.756-2.388,17.332-24.166,17.332-24.166l17.269-4.4Z" fill="#dd886b"/>
          </g>
          <g id="Grupo_60913" data-name="Grupo 60913">
            <path id="Trazado_116469" data-name="Trazado 116469" d="M2337.812,1523.672s-23.282-51.226-27.736-52.979c-4.474-1.758-40.8-15.685-46-14.558-3.4.737-14.339,11.685-21.386,19.716-3.569,4.071-6.143,7.391-6.218,8.253a6.223,6.223,0,0,0,6.551,4.949c-3.472.821-6.471,6.147-5.838,7.906,1.66,4.577,28.56,27.85,31.836,40.4,1.948,7.4,22.445,20.017,32.855,23.377,5.661,1.828,71.327,80.869,71.327,80.869l47.744-43.261Zm-49.149-19.8c1.444,6.688-.863,11.76-5.053,11.292-4.169-.463-31.481-25.344-39.3-26.2a.666.666,0,0,0-.132-.008c.252-.031.509-.084.766-.136,5.856-1.267,21.26-13.421,21.26-13.421l19.836,10S2287.113,1496.728,2288.663,1503.874Z" fill="#ffa780"/>
          </g>
          <g id="Grupo_60914" data-name="Grupo 60914">
            <path id="Trazado_116470" data-name="Trazado 116470" d="M2243.048,1489.061a3.79,3.79,0,0,1,1.071-.1A9.879,9.879,0,0,1,2243.048,1489.061Z" fill="#ffa780"/>
          </g>
          <g id="Grupo_60915" data-name="Grupo 60915">
            <path id="Trazado_116471" data-name="Trazado 116471" d="M2242.686,1475.851a5.876,5.876,0,0,1-2.025,7.542,5.6,5.6,0,0,1-4.193.711C2236.543,1483.242,2239.117,1479.922,2242.686,1475.851Z" fill="#f2d1c2"/>
          </g>
          <path id="Trazado_116472" data-name="Trazado 116472" d="M2248.623,1488.6a1.179,1.179,0,0,0-1.658.292l-18.2,26.658.954.405,19.161-25.692A1.179,1.179,0,0,0,2248.623,1488.6Zm-.5,1.684-1.537,1.8a.375.375,0,0,1-.608-.435l1.207-2.035a.579.579,0,1,1,.938.672Z" fill="#ffe8c2"/>
          <g id="Grupo_60916" data-name="Grupo 60916">
            <path id="Trazado_116473" data-name="Trazado 116473" d="M2254.854,1494.508c-.256,8.281,1.21,16.187,1.8,24.282-4.538-5.18-9.48-10.251-13.25-14.263a56.042,56.042,0,0,1-5.9-6.916,4.405,4.405,0,0,1-.319-.652c-.654-1.764,2.379-7.093,5.86-7.9a7.212,7.212,0,0,0,1.08-.1,1.336,1.336,0,0,0,.187.009C2246.545,1489.214,2250.411,1491.444,2254.854,1494.508Z" fill="#ffa780"/>
          </g>
          <g id="Grupo_60917" data-name="Grupo 60917">
            <path id="Trazado_116474" data-name="Trazado 116474" d="M2248.266,1495.419a5.969,5.969,0,0,1-1.657,8.271,5.523,5.523,0,0,1-3.208.837,56.042,56.042,0,0,1-5.9-6.916,5.71,5.71,0,0,1,2.6-4.281A5.967,5.967,0,0,1,2248.266,1495.419Z" fill="#f2d1c2"/>
          </g>
          <path id="Trazado_116475" data-name="Trazado 116475" d="M2247.89,1490.572c-1.1-1.7.955-4.035,2.972-3.88s3.568,1.831,4.655,3.537c3.317,5.2,4.287,11.644,3.759,17.793s-2.456,12.086-4.57,17.884a36.148,36.148,0,0,1-4.282,8.922c-6.454,8.95-18.833,10.709-29.822,11.7-4.273.386-9.188.546-12.145-2.563-3-3.158-2.53-8.174-1.628-12.437,1.633-7.715,4.017-15.247,6.4-22.765.786-2.482,1.669-5.11,3.692-6.747s5.565-1.651,6.813.633" fill="none" stroke="#45b7fe" stroke-miterlimit="10" stroke-width="0.5"/>
          <path id="Trazado_116476" data-name="Trazado 116476" d="M2227.536,1488.23l-3.7,9.93" fill="none" stroke="#bfb2ac" stroke-miterlimit="10" stroke-width="1"/>
          <path id="Trazado_116477" data-name="Trazado 116477" d="M2223.64,1504.663a107.019,107.019,0,0,1-3.89,11" fill="none" stroke="#bfb2ac" stroke-miterlimit="10" stroke-width="1"/>
          <path id="Trazado_116478" data-name="Trazado 116478" d="M2216.943,1500.2a53.552,53.552,0,0,0,17.381-.213c.739-.132,1.9.2,1.584.883" fill="none" stroke="#bfb2ac" stroke-miterlimit="10" stroke-width="1"/>
          <path id="Trazado_116479" data-name="Trazado 116479" d="M2203.213,1527.06c4.382-6.049-1.826-12.921,2.239-19.571,3.879-6.346,10.768-9.951,10.935-18.338l-.651.621a8.807,8.807,0,0,1,3.626-3.953c5.819,1.51,11.221-.241,16.981,1.481" fill="none" stroke="#bfb2ac" stroke-miterlimit="10" stroke-width="1"/>
          <line id="Línea_511" data-name="Línea 511" x2="16.456" y2="40.806" transform="translate(2206.145 1445.421)" fill="none" stroke="#706f6f" stroke-miterlimit="10" stroke-width="1"/>
        </g>
        <path id="Trazado_116480" data-name="Trazado 116480" d="M2350.828,1440.824a8.575,8.575,0,0,0-6.4-.509,27.134,27.134,0,0,0-4.2,2.075,45.454,45.454,0,0,1-10.3,3.443c-7.668,1.9-15.407,3.8-23.3,4.033" fill="none" stroke="#d8c3ba" stroke-miterlimit="10" stroke-width="1"/>
        <path id="Trazado_116481" data-name="Trazado 116481" d="M2353.053,1441.15l-1.662,1.667a2.277,2.277,0,0,0-.694,1.013,1.711,1.711,0,0,0,1.059,1.756c.658.332,1.413.42,2.1.691,2.265.9,3.282,3.509,3.777,5.893a32.637,32.637,0,0,1-.03,13.383" fill="none" stroke="#d8c3ba" stroke-miterlimit="10" stroke-width="1"/>
        <path id="Trazado_116482" data-name="Trazado 116482" d="M2354.489,1441.346a8.239,8.239,0,0,0-4.551,7.151c-.025,1.921.632,3.878.129,5.732-.518,1.91-2.156,3.289-3.8,4.4a35.186,35.186,0,0,1-7.7,3.917c-.927.337-2.242.483-2.639-.42" fill="none" stroke="#d8c3ba" stroke-miterlimit="10" stroke-width="1"/>
        <path id="Trazado_116483" data-name="Trazado 116483" d="M2350.348,1445.474a55.639,55.639,0,0,1-3.327,28.718" fill="none" stroke="#d8c3ba" stroke-miterlimit="10" stroke-width="1"/>
      </g>
    </g>
  </g>
</svg>
