<svg xmlns="http://www.w3.org/2000/svg" width="714.191" height="134.66" viewBox="0 0 714.191 134.66"><g transform="translate(-586.818 -1315.716)"><g transform="translate(971.648 1315.916)"><g transform="translate(12.655 3.059)"><g transform="translate(8.724 16.809)"><circle cx="48.634" cy="48.634" r="48.634" fill="#ffad54"/></g><g transform="translate(6.62)"><path d="M1121.974,1345.125a.81.81,0,0,1-.624-1.328c1.391-1.678,2.882-3.306,4.433-4.838a.81.81,0,1,1,1.139,1.152c-1.513,1.5-2.968,3.083-4.324,4.72A.808.808,0,0,1,1121.974,1345.125Zm9.211-9.1a.811.811,0,0,1-.51-1.441c1.7-1.371,3.481-2.672,5.3-3.865a.81.81,0,0,1,.888,1.356c-1.777,1.164-3.517,2.433-5.172,3.77A.807.807,0,0,1,1131.185,1336.026Zm10.831-7.093a.811.811,0,0,1-.374-1.53c1.935-1.006,3.943-1.925,5.968-2.731a.811.811,0,1,1,.6,1.506,63.866,63.866,0,0,0-5.819,2.663A.808.808,0,0,1,1142.016,1328.932Zm12.029-4.788a.81.81,0,0,1-.222-1.59c2.095-.6,4.246-1.1,6.4-1.483a.811.811,0,0,1,.286,1.6,64.009,64.009,0,0,0-6.236,1.446A.82.82,0,0,1,1154.045,1324.145Zm12.743-2.292a.81.81,0,0,1-.064-1.618c.214-.017.428-.033.643-.048,1.966-.137,3.952-.186,5.916-.147a.811.811,0,0,1-.016,1.621h-.016c-1.917-.039-3.854.01-5.772.143q-.314.022-.628.047Z" transform="translate(-1121.164 -1320.026)" fill="#665059"/></g><g transform="translate(109.174 60.363)"><path d="M1257.579,1443.849a.8.8,0,0,1-.473-.153.81.81,0,0,1-.184-1.131c1.245-1.727,2.416-3.534,3.48-5.372a.811.811,0,1,1,1.4.813c-1.091,1.885-2.292,3.738-3.568,5.507A.812.812,0,0,1,1257.579,1443.849Zm6.489-11.2a.81.81,0,0,1-.737-1.145,63.962,63.962,0,0,0,2.343-5.955.811.811,0,1,1,1.537.517,65.4,65.4,0,0,1-2.4,6.106A.81.81,0,0,1,1264.068,1432.646Zm4.13-12.268a.812.812,0,0,1-.791-.991,63.677,63.677,0,0,0,1.1-6.3.811.811,0,0,1,1.609.2,65.591,65.591,0,0,1-1.134,6.462A.811.811,0,0,1,1268.2,1420.378Zm1.593-12.844h-.019a.811.811,0,0,1-.792-.83c.011-.5.017-1,.017-1.5,0-1.489-.052-3-.156-4.494a.811.811,0,1,1,1.617-.112c.106,1.53.16,3.079.16,4.606,0,.511-.006,1.028-.018,1.537A.811.811,0,0,1,1269.79,1407.535Z" transform="translate(-1256.769 -1399.844)" fill="#665059"/></g><g transform="translate(0 96.604)"><path d="M1169.708,1482.477c-1.276,0-2.57-.038-3.842-.112a.811.811,0,0,1,.094-1.618c2.118.124,4.271.142,6.4.055a.81.81,0,1,1,.066,1.619C1171.524,1482.458,1170.609,1482.477,1169.708,1482.477Zm9.14-.638a.81.81,0,0,1-.111-1.613c2.11-.3,4.225-.7,6.287-1.2a.811.811,0,0,1,.384,1.575c-2.114.515-4.283.931-6.446,1.234A.842.842,0,0,1,1178.848,1481.839Zm-19.377-.173a.825.825,0,0,1-.129-.01,65.477,65.477,0,0,1-6.415-1.36.811.811,0,0,1,.416-1.567,63.7,63.7,0,0,0,6.255,1.326.811.811,0,0,1-.127,1.612Zm-12.505-3.318a.808.808,0,0,1-.285-.052c-2.038-.767-4.062-1.647-6.016-2.615a.811.811,0,0,1,.721-1.453c1.905.945,3.879,1.8,5.867,2.551a.811.811,0,0,1-.286,1.569Zm-11.6-5.747a.808.808,0,0,1-.43-.124c-1.846-1.158-3.656-2.422-5.379-3.758a.811.811,0,0,1,.994-1.281c1.681,1.3,3.446,2.537,5.246,3.666a.811.811,0,0,1-.431,1.5Zm-10.23-7.932a.807.807,0,0,1-.558-.222c-1.582-1.5-3.107-3.1-4.531-4.747a.81.81,0,0,1,1.227-1.059c1.389,1.609,2.876,3.166,4.419,4.631a.81.81,0,0,1-.557,1.4Zm-8.463-9.8a.808.808,0,0,1-.663-.344c-1.255-1.786-2.433-3.654-3.5-5.552a.81.81,0,1,1,1.413-.795c1.041,1.851,2.19,3.674,3.414,5.415a.811.811,0,0,1-.662,1.277Z" transform="translate(-1112.409 -1447.765)" fill="#665059"/></g></g><g transform="translate(0 33.579)"><path d="M1130.872,1416.925c3.037.11,9.8,1.714,11.332,2.687a1.613,1.613,0,0,0,2.014-.239c1.859-1.943,6-6.245,7.8-7.985a.883.883,0,0,0-.144-1.394c-2.42-1.548-11.272-9.967-12.171-19.384-.917-9.605,5.1-14.023,7.752-16.694a1.326,1.326,0,0,0-.021-1.909l-3.73-3.572a1.312,1.312,0,0,0-1.342-.283,6.515,6.515,0,0,1-7.718-2.334c-3.569-4.663-10.228-4.358-10.228-4.358s-6.374-.316-9.95,4.342a6.513,6.513,0,0,1-7.721,2.322,1.314,1.314,0,0,0-1.343.281l-3.735,3.567a1.324,1.324,0,0,0-.024,1.908c2.651,2.676,8.319,7.1,7.387,16.708-.914,9.415-9.44,17.82-11.863,19.364a.882.882,0,0,0-.146,1.393c1.805,1.743,5.933,6.051,7.79,8a1.613,1.613,0,0,0,2.014.242c1.533-.971,8.3-2.564,11.336-2.669,4.385-.152,5.4,1.926,6.433,2S1126.487,1416.766,1130.872,1416.925Z" transform="translate(-1095.938 -1360.644)" fill="#fff"/><path d="M1142.8,1420.41a2.4,2.4,0,0,1-1.295-.376c-1.308-.831-7.84-2.449-10.926-2.561a6.592,6.592,0,0,0-4.667,1.331,2.511,2.511,0,0,1-1.64.662,3.017,3.017,0,0,1-1.445-.657,7.15,7.15,0,0,0-4.9-1.346c-3.085.107-9.62,1.714-10.93,2.544a2.417,2.417,0,0,1-3.034-.368c-1.732-1.815-5.955-6.224-7.767-7.973a1.693,1.693,0,0,1,.273-2.66c2.183-1.391,10.605-9.62,11.492-18.759.809-8.334-3.5-12.5-6.346-15.264-.289-.28-.561-.544-.811-.795a2.134,2.134,0,0,1,.041-3.065l3.734-3.567a2.135,2.135,0,0,1,2.175-.459,5.688,5.688,0,0,0,6.806-2.051c3.683-4.8,9.983-4.683,10.594-4.66.623-.022,7.191-.131,10.87,4.677a5.689,5.689,0,0,0,6.8,2.063,2.134,2.134,0,0,1,2.174.462l3.729,3.573a2.135,2.135,0,0,1,.036,3.065c-.3.3-.634.618-.99.954-2.911,2.757-7.311,6.924-6.53,15.091.868,9.1,9.451,17.275,11.8,18.779a1.694,1.694,0,0,1,.269,2.661c-1.814,1.745-6.045,6.148-7.78,7.961A2.4,2.4,0,0,1,1142.8,1420.41Zm-12.162-4.557c2.946.107,9.979,1.7,11.737,2.813a.8.8,0,0,0,.994-.116c1.742-1.819,5.991-6.242,7.827-8.008a.074.074,0,0,0,.028-.062.09.09,0,0,0-.046-.064,32.472,32.472,0,0,1-6.866-6.935c-2.313-3.059-5.175-7.806-5.676-13.055-.855-8.954,4.08-13.629,7.03-16.422.347-.328.674-.639.955-.921a.514.514,0,0,0-.008-.752l-3.729-3.573a.5.5,0,0,0-.511-.105,7.315,7.315,0,0,1-8.632-2.6c-3.273-4.278-9.484-4.045-9.547-4.041-.025,0-.052,0-.077,0-.058,0-6-.228-9.267,4.026a7.315,7.315,0,0,1-8.636,2.592.5.5,0,0,0-.511.1l-3.735,3.567a.515.515,0,0,0-.008.752c.237.24.5.5.786.771,2.886,2.8,7.716,7.473,6.832,16.585-.958,9.866-9.814,18.426-12.234,19.969a.092.092,0,0,0-.047.064.073.073,0,0,0,.028.062c1.834,1.77,6.076,6.2,7.814,8.021a.8.8,0,0,0,.994.117c1.76-1.115,8.795-2.692,11.741-2.794a8.788,8.788,0,0,1,5.863,1.624.7.7,0,0,0,1.24.014A8.22,8.22,0,0,1,1130.64,1415.853Z" transform="translate(-1095.676 -1360.382)" fill="#665059"/><g transform="translate(25.149 3.099)"><circle cx="2.66" cy="2.66" r="2.66" transform="translate(0.811 0.811)" fill="#fff"/><path d="M1132.4,1371.421h0a3.471,3.471,0,0,1,0-6.942h0a3.471,3.471,0,0,1,0,6.942Zm0-5.32a1.849,1.849,0,0,0,0,3.7h0a1.85,1.85,0,0,0,1.85-1.848h0a1.849,1.849,0,0,0-1.848-1.85Z" transform="translate(-1128.93 -1364.479)" fill="#665059"/></g></g><g transform="translate(55.076)"><g transform="translate(0 28.636)"><g transform="translate(0 16.493)"><rect width="46.619" height="13.095" rx="6.548" transform="translate(2.331 0.626) rotate(7.483)" fill="#fff"/><path d="M1214.045,1395.961a2.334,2.334,0,0,1-.306-.02l-43.21-5.676h0a2.332,2.332,0,0,1-2.006-2.613l1.31-9.972a2.333,2.333,0,0,1,2.613-2.006l43.21,5.676a2.335,2.335,0,0,1,2.006,2.613l-1.31,9.972a2.335,2.335,0,0,1-2.307,2.026Zm-43.3-7.3,43.21,5.675a.712.712,0,0,0,.795-.609l1.31-9.972a.714.714,0,0,0-.61-.795l-43.21-5.675a.712.712,0,0,0-.795.609l-1.31,9.972a.71.71,0,0,0,.61.795Z" transform="translate(-1168.503 -1375.654)" fill="#665059"/></g><g transform="translate(7.063 21.47)"><rect width="4.57" height="33.249" rx="0.701" transform="translate(0.746 5.277) rotate(-82.517)" fill="#fff"/><path d="M1211.1,1392.589a1.241,1.241,0,0,1-.175-.012l-31.914-4.192h0a1.341,1.341,0,0,1-1.155-1.5l.457-3.48a1.342,1.342,0,0,1,1.5-1.154l31.915,4.192a1.342,1.342,0,0,1,1.154,1.5l-.457,3.48A1.343,1.343,0,0,1,1211.1,1392.589Zm.036-1.619h0Zm-31.637-4.156,31.359,4.12.384-2.924-31.359-4.119Zm-.277-.036Z" transform="translate(-1177.842 -1382.236)" fill="#665059"/></g><g transform="translate(41.986)"><path d="M1241.928,1354.918c3.164.65,5.674,5.312,10.328,7.747,4,2.095,5.775,2.864,13.288,3.615a1.25,1.25,0,0,1,1.005,1.777l-9.456,19.613c-1.244,2.03-1.648,2.313-3.711,2.313-4.016,0-18.07-4.71-25.705-11.875a6.267,6.267,0,0,0-3.556-1.663s2.745.225,5.648-4.513l12.16-17.014" transform="translate(-1224.045 -1354.107)" fill="#99f8ff"/><path d="M1253.357,1390.533c-2.311,0-7.057-1.332-11.808-3.314a49.567,49.567,0,0,1-14.452-8.782l-.024-.024a5.5,5.5,0,0,0-3.052-1.423l.075-.807.066-.808h-.017c.026,0,2.354.041,4.908-4.128.01-.016.02-.032.032-.048l12.16-17.014a.811.811,0,0,1,.823-.323c1.874.386,3.411,1.873,5.192,3.6a23.7,23.7,0,0,0,5.348,4.227c3.911,2.047,5.638,2.791,12.993,3.527a2.059,2.059,0,0,1,1.657,2.93l-9.459,19.618a.782.782,0,0,1-.039.072C1256.439,1389.986,1255.834,1390.533,1253.357,1390.533Zm-25.141-13.269a47.975,47.975,0,0,0,13.958,8.459c5.251,2.191,9.479,3.188,11.183,3.188,1.673,0,1.87-.053,3-1.891l9.44-19.577a.439.439,0,0,0-.356-.618c-7.653-.765-9.467-1.55-13.584-3.7a24.972,24.972,0,0,1-5.724-4.5,13.235,13.235,0,0,0-3.9-3.03l-11.811,16.526a11.81,11.81,0,0,1-3.751,4.033A7.015,7.015,0,0,1,1228.216,1377.265Z" transform="translate(-1224.021 -1353.846)" fill="#665059"/></g><g transform="translate(46.029 24.27)"><path d="M1230.438,1394.1l3.245-4.672-3.245-2.414A7.412,7.412,0,0,1,1230.438,1394.1Z" transform="translate(-1229.627 -1386.2)" fill="#fff"/><path d="M1230.176,1394.646a.811.811,0,0,1-.7-1.216,6.6,6.6,0,0,0,0-6.267.811.811,0,0,1,1.181-1.064l3.244,2.414a.81.81,0,0,1,.182,1.112l-3.245,4.673A.809.809,0,0,1,1230.176,1394.646Zm1.61-5.689a8.278,8.278,0,0,1,.115.975l.408-.586Z" transform="translate(-1229.366 -1385.938)" fill="#665059"/></g></g><g transform="translate(0 12.974)"><g transform="translate(0 18.899)"><rect width="46.619" height="13.095" rx="6.548" transform="translate(2.331 0.626) rotate(7.483)" fill="#fff"/><path d="M1214.045,1378.432a2.355,2.355,0,0,1-.306-.02l-43.21-5.676a2.332,2.332,0,0,1-2.006-2.613l1.31-9.972a2.333,2.333,0,0,1,2.613-2.006l43.21,5.676a2.335,2.335,0,0,1,2.006,2.613l-1.31,9.972a2.334,2.334,0,0,1-2.307,2.026Zm-43.3-7.3,43.21,5.676a.71.71,0,0,0,.795-.61l1.31-9.972a.709.709,0,0,0-.61-.794l-43.21-5.676a.712.712,0,0,0-.795.61l-1.31,9.972a.71.71,0,0,0,.61.795Z" transform="translate(-1168.503 -1358.126)" fill="#665059"/></g><g transform="translate(7.063 23.876)"><rect width="4.57" height="33.249" rx="0.701" transform="translate(0.746 5.277) rotate(-82.517)" fill="#fff"/><path d="M1211.1,1375.06a1.283,1.283,0,0,1-.175-.012l-31.914-4.192h0a1.342,1.342,0,0,1-1.154-1.5l.457-3.48a1.343,1.343,0,0,1,1.5-1.154l31.916,4.192a1.342,1.342,0,0,1,1.154,1.5l-.457,3.48A1.343,1.343,0,0,1,1211.1,1375.06Zm-31.6-5.775,31.359,4.12.384-2.924-31.359-4.119Zm-.278-.036h0Z" transform="translate(-1177.842 -1364.707)" fill="#665059"/></g><g transform="translate(2.63)"><path d="M1173.052,1355.6l20.993-20.24c1.586-1.318,3.951-1.175,4.891-1.1l29.563,2.566.652.082c3.26.731,4.795,3.118,4.352,6.492h0c-.377,2.2-17.256,24.944-17.256,24.944-.282.153,4.067-4.945-1.019-8.828a9.476,9.476,0,0,0-4.186-1.358c-2.59-.389-5.091-.669-5.091-.669l-26.946-3.539S1174.663,1353.194,1173.052,1355.6Z" transform="translate(-1172.241 -1333.397)" fill="#fff"/><path d="M1215.98,1368.887a.817.817,0,0,1-.6-.253.926.926,0,0,1,.021-1.2c1.91-3.076,1.6-5.613-.929-7.541a9.1,9.1,0,0,0-3.815-1.2c-2.543-.382-5.036-.662-5.061-.665l-26.961-3.542-.032,0a7.256,7.256,0,0,0-4.352.569l-.9.868a.811.811,0,0,1-1.236-1.035,4.053,4.053,0,0,1,1.141-1.125l19.963-19.247.045-.04c1.883-1.564,4.584-1.355,5.472-1.286l29.571,2.565.032,0,.652.083.076.014c3.618.811,5.479,3.573,4.978,7.388l0,.031c-.079.467-.266,1.562-8.91,13.634-4.222,5.9-8.453,11.6-8.495,11.657a.815.815,0,0,1-.657.328Zm-37.115-16.007,26.931,3.537c.01,0,2.531.284,5.106.671a10.4,10.4,0,0,1,4.558,1.515,6.578,6.578,0,0,1,2.8,5.017c6.2-8.464,13.826-19.179,14.178-20.622.379-2.954-.932-4.926-3.692-5.559l-.6-.076-29.546-2.564c-.715-.055-2.9-.225-4.283.9l-17.712,17.078A10.941,10.941,0,0,1,1178.865,1352.88Z" transform="translate(-1171.98 -1333.136)" fill="#665059"/></g></g><g transform="translate(1.075)"><g transform="translate(2.116)"><path d="M1174.309,1338.441l20.992-20.24c1.586-1.317,3.952-1.175,4.892-1.1l29.563,2.565.652.082c3.26.731,4.795,3.118,4.351,6.492h0c-.318,1.866-12.469,18.454-16.186,23.5a3.116,3.116,0,0,1-2.87,1.245C1206.894,1349.959,1168.966,1345.14,1174.309,1338.441Z" transform="translate(-1172.984 -1316.242)" fill="#fff"/><path d="M1215.8,1351.55a3.932,3.932,0,0,1-.451-.026c-3.856-.447-13.822-1.685-23.046-3.521a97.4,97.4,0,0,1-12.5-3.187c-4.045-1.409-6.232-2.8-6.881-4.374a2.626,2.626,0,0,1,.492-2.769.994.994,0,0,1,.071-.078l20.992-20.24c.015-.013.029-.027.045-.04,1.883-1.564,4.584-1.355,5.472-1.286l29.571,2.565.032,0,.652.083c.025,0,.051.008.076.013,3.618.811,5.478,3.573,4.978,7.388l0,.031c-.071.414-.237,1.383-6.956,10.889-3.495,4.944-7.375,10.237-9.378,12.952A3.936,3.936,0,0,1,1215.8,1351.55Zm-41.149-12.826a1.016,1.016,0,0,0-.23,1.1c.5,1.208,3.524,3.669,18.2,6.589,9.166,1.823,19.08,3.055,22.916,3.5a2.31,2.31,0,0,0,2.124-.921c9.439-12.8,15.728-21.878,16.039-23.148.378-2.954-.932-4.925-3.692-5.559l-.6-.076-29.546-2.564c-.715-.055-2.9-.225-4.283.9Z" transform="translate(-1172.723 -1315.981)" fill="#665059"/></g><g transform="translate(0 18.899)"><rect width="46.619" height="13.095" rx="6.548" transform="translate(2.331 0.626) rotate(7.483)" fill="#fff"/><path d="M1215.467,1361.277a2.344,2.344,0,0,1-.306-.02l-43.21-5.676a2.331,2.331,0,0,1-2.006-2.613l1.309-9.972a2.335,2.335,0,0,1,2.614-2.006l43.21,5.676a2.333,2.333,0,0,1,2.006,2.614l-1.31,9.971a2.336,2.336,0,0,1-2.307,2.026Zm-41.9-18.685a.709.709,0,0,0-.7.615l-1.31,9.972a.714.714,0,0,0,.61.795l43.21,5.675a.712.712,0,0,0,.795-.609l1.31-9.972a.713.713,0,0,0-.61-.794l-43.21-5.676A.64.64,0,0,0,1173.563,1342.592Z" transform="translate(-1169.925 -1340.97)" fill="#665059"/></g><g transform="translate(7.062 23.876)"><rect width="4.57" height="33.249" rx="0.701" transform="translate(0.746 5.277) rotate(-82.517)" fill="#fff"/><path d="M1212.521,1357.905a1.248,1.248,0,0,1-.177-.012l-31.915-4.192h0a1.342,1.342,0,0,1-1.155-1.5l.458-3.479a1.341,1.341,0,0,1,1.5-1.155l31.915,4.192a1.342,1.342,0,0,1,1.155,1.5l-.457,3.48a1.344,1.344,0,0,1-1.327,1.166Zm.034-1.619h0Zm-31.637-4.156,31.358,4.119.384-2.924-31.358-4.119Z" transform="translate(-1179.263 -1347.552)" fill="#665059"/></g><g transform="translate(42.501 2.895)"><line y1="21.315" x2="16.898" transform="translate(0.811 0.81)" fill="#fff"/><path d="M1226.933,1342.745a.81.81,0,0,1-.634-1.313l16.9-21.315a.811.811,0,1,1,1.271,1.007l-16.9,21.314A.81.81,0,0,1,1226.933,1342.745Z" transform="translate(-1226.123 -1319.809)" fill="#665059"/></g></g></g><g transform="translate(58.607 67.257)"><g transform="translate(0.668 41.281)"><rect width="15.851" height="55.698" rx="5.446" transform="translate(56.509 0.811) rotate(90)" fill="#fff"/><path d="M1229.676,1476.972h-53.922a1.7,1.7,0,0,1-1.7-1.7V1461.2a1.7,1.7,0,0,1,1.7-1.7h53.922a1.7,1.7,0,0,1,1.7,1.7v14.074A1.7,1.7,0,0,1,1229.676,1476.972Zm-53.922-15.851a.081.081,0,0,0-.078.078v14.074a.081.081,0,0,0,.078.078h53.922a.081.081,0,0,0,.078-.078V1461.2a.081.081,0,0,0-.078-.078Z" transform="translate(-1174.055 -1459.499)" fill="#665059"/></g><g transform="translate(0.566 31.486)"><rect width="15.851" height="55.698" rx="5.446" transform="translate(55.318 0.657) rotate(78.927)" fill="#99f8ff"/><path d="M1178.321,1474.115a1.7,1.7,0,0,1-1.665-1.373l-2.7-13.812a1.7,1.7,0,0,1,1.341-1.994l52.918-10.356a1.7,1.7,0,0,1,1.994,1.341l2.7,13.812a1.7,1.7,0,0,1-1.341,1.994l-52.917,10.356A1.688,1.688,0,0,1,1178.321,1474.115Zm50.214-25.947h-.014l-52.917,10.357a.074.074,0,0,0-.048.033.073.073,0,0,0-.013.057l2.7,13.812h0a.075.075,0,0,0,.034.049.075.075,0,0,0,.057.013l52.918-10.357a.08.08,0,0,0,.061-.091l-2.7-13.812A.081.081,0,0,0,1228.535,1448.169Z" transform="translate(-1173.92 -1446.548)" fill="#665059"/><g transform="translate(43.813 1.939)"><line x2="3.044" y2="15.556" transform="translate(0.811 0.811)" fill="#fff"/><path d="M1235.707,1466.289a.81.81,0,0,1-.794-.655l-3.045-15.556a.811.811,0,0,1,1.591-.311l3.044,15.555a.811.811,0,0,1-.64.951A.859.859,0,0,1,1235.707,1466.289Z" transform="translate(-1231.853 -1449.112)" fill="#665059"/></g><g transform="translate(29.861 4.669)"><line x2="3.044" y2="15.556" transform="translate(0.81 0.811)" fill="#fff"/><path d="M1217.259,1469.9a.812.812,0,0,1-.795-.656l-3.044-15.555a.81.81,0,1,1,1.59-.312l3.045,15.556a.81.81,0,0,1-.64.951A.8.8,0,0,1,1217.259,1469.9Z" transform="translate(-1213.405 -1452.722)" fill="#665059"/></g><g transform="translate(12.117 8.142)"><line x2="3.044" y2="15.556" transform="translate(0.811 0.811)" fill="#fff"/><path d="M1193.8,1474.491a.81.81,0,0,1-.795-.655l-3.045-15.556a.811.811,0,1,1,1.591-.312l3.045,15.555a.811.811,0,0,1-.64.951A.784.784,0,0,1,1193.8,1474.491Z" transform="translate(-1189.942 -1457.314)" fill="#665059"/></g></g><g transform="translate(0 14.881)"><rect width="55.698" height="15.851" rx="1.175" transform="translate(0.47 30.789) rotate(-32.98)" fill="#fff"/><path d="M1182.535,1469.146a1.7,1.7,0,0,1-1.428-.774l-7.662-11.807a1.7,1.7,0,0,1,.5-2.35l45.233-29.352a1.7,1.7,0,0,1,2.35.5l7.661,11.806a1.7,1.7,0,0,1-.5,2.351l-45.233,29.352A1.694,1.694,0,0,1,1182.535,1469.146Zm37.566-42.934a.072.072,0,0,0-.039.011l-45.233,29.352a.075.075,0,0,0-.033.049.077.077,0,0,0,.01.058l7.662,11.807h0a.071.071,0,0,0,.049.032.07.07,0,0,0,.058-.01l45.233-29.351a.081.081,0,0,0,.023-.108l-7.661-11.806a.076.076,0,0,0-.05-.032Z" transform="translate(-1173.172 -1424.591)" fill="#665059"/><g transform="translate(37.24 5.591)"><line x2="8.628" y2="13.297" transform="translate(0.811 0.81)" fill="#fff"/><path d="M1231.855,1446.9a.81.81,0,0,1-.681-.369l-8.629-13.3a.811.811,0,0,1,1.36-.883l8.629,13.3a.811.811,0,0,1-.679,1.251Z" transform="translate(-1222.414 -1431.984)" fill="#665059"/></g><g transform="translate(25.315 13.33)"><line x2="8.628" y2="13.297" transform="translate(0.811 0.811)" fill="#fff"/><path d="M1216.085,1457.135a.809.809,0,0,1-.681-.37l-8.629-13.3a.811.811,0,1,1,1.36-.883l8.629,13.3a.811.811,0,0,1-.679,1.252Z" transform="translate(-1206.645 -1442.217)" fill="#665059"/></g><g transform="translate(10.148 23.172)"><line x2="8.628" y2="13.297" transform="translate(0.811 0.811)" fill="#fff"/><path d="M1196.031,1470.149a.811.811,0,0,1-.681-.37l-8.629-13.3a.811.811,0,0,1,1.361-.882l8.628,13.3a.811.811,0,0,1-.679,1.252Z" transform="translate(-1186.59 -1455.231)" fill="#665059"/></g></g><g transform="translate(0.235 3.608)"><rect width="55.698" height="15.851" rx="1.175" transform="translate(0.465 46.6) rotate(-55.925)" fill="#99f8ff"/><path d="M1186.833,1465.631a1.686,1.686,0,0,1-.947-.291h0l-11.658-7.885a1.7,1.7,0,0,1-.455-2.359l30.211-44.663a1.7,1.7,0,0,1,2.359-.455l11.658,7.885a1.7,1.7,0,0,1,.456,2.359l-30.212,44.663a1.709,1.709,0,0,1-1.412.747Zm-.039-1.634a.075.075,0,0,0,.058.011.071.071,0,0,0,.05-.032l30.211-44.663a.08.08,0,0,0-.021-.107l-11.658-7.886a.073.073,0,0,0-.058-.011.079.079,0,0,0-.05.032L1175.116,1456a.081.081,0,0,0,.021.108Z" transform="translate(-1173.482 -1409.685)" fill="#665059"/><g transform="translate(24.755 8.681)"><line x2="13.13" y2="8.881" transform="translate(0.811 0.81)" fill="#fff"/><path d="M1220.154,1431.666a.8.8,0,0,1-.453-.14l-13.13-8.881a.81.81,0,1,1,.908-1.343l13.13,8.881a.811.811,0,0,1-.455,1.482Z" transform="translate(-1206.215 -1421.164)" fill="#665059"/></g><g transform="translate(16.79 20.456)"><line x2="13.13" y2="8.881" transform="translate(0.811 0.811)" fill="#fff"/><path d="M1209.622,1447.236a.8.8,0,0,1-.454-.139l-13.129-8.881a.811.811,0,0,1,.908-1.343l13.129,8.882a.81.81,0,0,1-.454,1.481Z" transform="translate(-1195.683 -1436.734)" fill="#665059"/></g></g><g transform="translate(0.229)"><rect width="15.851" height="55.698" rx="5.446" transform="translate(15.447 0.606) rotate(15.454)" fill="#fff"/><path d="M1188.74,1464.035a1.689,1.689,0,0,1-.454-.062l-13.566-3.75a1.7,1.7,0,0,1-1.184-2.09l14.367-51.972a1.7,1.7,0,0,1,2.09-1.185l13.566,3.75a1.7,1.7,0,0,1,1.184,2.09l-14.368,51.972a1.7,1.7,0,0,1-1.636,1.247Zm.8-57.5a.082.082,0,0,0-.077.057l-14.367,51.972a.081.081,0,0,0,.054.1l13.565,3.75h0a.081.081,0,0,0,.1-.054l14.367-51.972a.075.075,0,0,0-.008-.059.077.077,0,0,0-.046-.037l-13.565-3.75Z" transform="translate(-1173.475 -1404.914)" fill="#665059"/><g transform="translate(11.733 10.299)"><line x2="15.278" y2="4.224" transform="translate(0.811 0.811)" fill="#fff"/><path d="M1205.078,1424.377a.8.8,0,0,1-.216-.029l-15.278-4.224a.81.81,0,0,1,.432-1.562l15.278,4.224a.811.811,0,0,1-.215,1.592Z" transform="translate(-1188.989 -1418.532)" fill="#665059"/></g><g transform="translate(7.945 24.001)"><line x2="15.278" y2="4.224" transform="translate(0.811 0.811)" fill="#fff"/><path d="M1200.069,1442.5a.823.823,0,0,1-.216-.03l-15.278-4.224a.81.81,0,0,1,.432-1.562l15.278,4.224a.811.811,0,0,1-.216,1.592Z" transform="translate(-1183.98 -1436.651)" fill="#665059"/></g></g><g transform="translate(0.623 1.434)"><rect width="15.851" height="55.698" rx="5.446" transform="translate(0.81 0.811)" fill="#fff"/><path d="M1189.769,1464.13h-14.075a1.7,1.7,0,0,1-1.7-1.7v-53.921a1.7,1.7,0,0,1,1.7-1.7h14.075a1.7,1.7,0,0,1,1.7,1.7v53.921A1.7,1.7,0,0,1,1189.769,1464.13Zm-14.075-55.7a.081.081,0,0,0-.078.077v53.921a.081.081,0,0,0,.078.078h14.075a.081.081,0,0,0,.077-.078v-53.921a.081.081,0,0,0-.077-.077Z" transform="translate(-1173.996 -1406.81)" fill="#665059"/></g><g transform="translate(6.567 48.855)"><circle cx="1.981" cy="1.981" r="1.981" transform="translate(0.409 4.265) rotate(-76.717)" fill="#fadc8c"/><path d="M1184.647,1475.1a2.792,2.792,0,1,1,2.792-2.792A2.8,2.8,0,0,1,1184.647,1475.1Zm0-3.963a1.171,1.171,0,1,0,1.171,1.171A1.173,1.173,0,0,0,1184.647,1471.136Z" transform="translate(-1181.855 -1469.515)" fill="#665059"/></g></g></g><g transform="translate(1169.697 1319.194)"><g transform="translate(0 3.922)"><g transform="translate(17.023 12.968)"><circle cx="48.634" cy="48.634" r="48.634" fill="#c0dee1"/></g><path d="M1358.6,1393.417a.811.811,0,0,1-.806-.743c-.085-1-.147-2.02-.186-3.026-.033-.858-.051-1.729-.051-2.589q0-.472.007-.942a.811.811,0,0,1,.811-.8h.011a.812.812,0,0,1,.8.822q-.007.459-.007.92c0,.839.017,1.689.049,2.527.038.982.1,1.975.181,2.952a.811.811,0,0,1-.74.876C1358.644,1393.416,1358.621,1393.417,1358.6,1393.417Zm.188-12.943a.785.785,0,0,1-.093-.005.811.811,0,0,1-.713-.9,65.472,65.472,0,0,1,1.072-6.474.81.81,0,1,1,1.584.345,63.984,63.984,0,0,0-1.045,6.313A.811.811,0,0,1,1358.786,1380.474Zm2.752-12.648a.811.811,0,0,1-.771-1.062c.675-2.072,1.464-4.132,2.343-6.126a.81.81,0,0,1,1.483.654c-.858,1.944-1.627,3.955-2.285,5.974A.811.811,0,0,1,1361.538,1367.826Zm5.222-11.838a.811.811,0,0,1-.7-1.211c1.073-1.894,2.256-3.757,3.515-5.538a.81.81,0,1,1,1.323.936c-1.228,1.737-2.381,3.554-3.428,5.4A.812.812,0,0,1,1366.76,1355.988Zm7.472-10.569a.811.811,0,0,1-.612-1.342c1.429-1.646,2.957-3.24,4.542-4.736a.81.81,0,0,1,1.112,1.179c-1.546,1.46-3.036,3.014-4.43,4.619A.809.809,0,0,1,1374.232,1345.418Zm9.416-8.887a.81.81,0,0,1-.5-1.452c1.727-1.333,3.541-2.593,5.391-3.744a.81.81,0,1,1,.857,1.376c-1.8,1.124-3.573,2.353-5.257,3.652A.808.808,0,0,1,1383.648,1336.531Zm10.992-6.846a.811.811,0,0,1-.358-1.538,65.488,65.488,0,0,1,6.031-2.595.81.81,0,0,1,.565,1.519c-1.993.741-3.971,1.593-5.881,2.531A.81.81,0,0,1,1394.64,1329.686Z" transform="translate(-1357.555 -1325.502)" fill="#665059"/><g transform="translate(108.287 12.648)"><path d="M1522.833,1396.084l-.051,0a.811.811,0,0,1-.759-.859c.082-1.324.124-2.669.124-4,0-.8-.015-1.609-.045-2.4a.811.811,0,0,1,1.62-.06c.03.814.045,1.643.045,2.463,0,1.362-.042,2.741-.126,4.1A.811.811,0,0,1,1522.833,1396.084Zm-.479-12.938a.811.811,0,0,1-.8-.7c-.288-2.109-.685-4.226-1.181-6.291a.811.811,0,0,1,1.577-.379c.508,2.118.916,4.288,1.211,6.451a.811.811,0,0,1-.694.913A.942.942,0,0,1,1522.354,1383.146Zm-3.024-12.59a.811.811,0,0,1-.766-.543,63.952,63.952,0,0,0-2.414-5.927.81.81,0,1,1,1.469-.686,65.442,65.442,0,0,1,2.476,6.077.81.81,0,0,1-.765,1.078Zm-5.481-11.729a.81.81,0,0,1-.7-.4c-1.088-1.826-2.282-3.618-3.548-5.327a.81.81,0,0,1,1.3-.965c1.3,1.752,2.522,3.59,3.638,5.462a.811.811,0,0,1-.7,1.226Zm-7.706-10.4a.808.808,0,0,1-.6-.266c-1.43-1.575-2.955-3.095-4.533-4.519a.81.81,0,1,1,1.086-1.2c1.618,1.46,3.182,3.019,4.647,4.633a.81.81,0,0,1-.6,1.355Z" transform="translate(-1500.742 -1342.227)" fill="#665059"/></g><g transform="translate(23.872 111.052)"><path d="M1430.858,1488.552c-1.823,0-3.665-.077-5.474-.227a.811.811,0,0,1,.135-1.615c1.765.147,3.562.221,5.34.221h0q.526,0,1.054-.008h.014a.81.81,0,0,1,.013,1.62q-.541.009-1.081.009Zm-11.828-1.084a.829.829,0,0,1-.149-.014,65.38,65.38,0,0,1-6.383-1.519.811.811,0,1,1,.454-1.556,63.788,63.788,0,0,0,6.224,1.481.811.811,0,0,1-.147,1.608Zm-12.426-3.625a.813.813,0,0,1-.3-.06c-2.02-.818-4.022-1.748-5.951-2.764a.81.81,0,1,1,.756-1.434c1.882.991,3.834,1.9,5.8,2.7a.811.811,0,0,1-.3,1.562Zm-11.454-6.034a.807.807,0,0,1-.447-.135c-1.817-1.2-3.594-2.512-5.284-3.89a.811.811,0,1,1,1.025-1.256c1.648,1.345,3.382,2.621,5.155,3.795a.81.81,0,0,1-.449,1.486Z" transform="translate(-1389.121 -1472.345)" fill="#665059"/></g></g><g transform="translate(45.319)"><g transform="translate(39.766)"><path d="M1479.072,1324.423l-.005-1.047c0-1.1-.55-1.989-1.229-1.989h-5.475c-.679,0-1.23.89-1.23,1.989l0,1.047" transform="translate(-1470.323 -1320.577)" fill="#99f8ff"/><path d="M1478.811,1324.973a.81.81,0,0,1-.81-.806l-.005-1.048a1.41,1.41,0,0,0-.427-1.183H1472.1a1.438,1.438,0,0,0-.418,1.178l0,1.044a.81.81,0,1,1-1.621.006l0-1.048c0-1.572.9-2.8,2.039-2.8h5.476c1.144,0,2.04,1.23,2.04,2.8l.005,1.043a.811.811,0,0,1-.806.815Z" transform="translate(-1470.062 -1320.315)" fill="#665059"/></g><g transform="translate(35.126 53.709)"><path d="M1482.237,1392.406v.4a3.688,3.688,0,0,1-2.608,3.8,28.558,28.558,0,0,1-5.975.539,29.377,29.377,0,0,1-6.048-.539,3.687,3.687,0,0,1-2.607-3.8v-.4" transform="translate(-1464.189 -1391.595)" fill="#99f8ff"/><path d="M1473.392,1397.7a29.942,29.942,0,0,1-6.2-.555,4.472,4.472,0,0,1-3.262-4.595v-.4a.81.81,0,1,1,1.621,0v.4a2.911,2.911,0,0,0,1.953,3,28.451,28.451,0,0,0,5.892.524,27.59,27.59,0,0,0,5.819-.524,2.911,2.911,0,0,0,1.953-3v-.4a.81.81,0,1,1,1.621,0v.4a4.472,4.472,0,0,1-3.263,4.595A29.1,29.1,0,0,1,1473.392,1397.7Z" transform="translate(-1463.927 -1391.334)" fill="#665059"/></g><g transform="translate(8.432)"><path d="M1437.641,1324.423l-.005-1.047c0-1.1-.551-1.989-1.229-1.989h-5.476c-.679,0-1.229.89-1.229,1.989l0,1.047" transform="translate(-1428.891 -1320.577)" fill="#99f8ff"/><path d="M1437.379,1324.973a.81.81,0,0,1-.811-.806l-.005-1.048a1.412,1.412,0,0,0-.426-1.183h-5.468a1.434,1.434,0,0,0-.418,1.178l0,1.044a.811.811,0,0,1-.808.814h0a.81.81,0,0,1-.811-.808l0-1.048c0-1.572.9-2.8,2.04-2.8h5.476c1.143,0,2.039,1.23,2.039,2.8l.006,1.043a.811.811,0,0,1-.807.815Z" transform="translate(-1428.629 -1320.315)" fill="#665059"/></g><g transform="translate(3.792 53.709)"><path d="M1440.8,1392.406v.4a3.688,3.688,0,0,1-2.608,3.8,28.553,28.553,0,0,1-5.975.539,29.373,29.373,0,0,1-6.047-.539,3.688,3.688,0,0,1-2.608-3.8v-.4" transform="translate(-1422.755 -1391.595)" fill="#99f8ff"/><path d="M1431.959,1397.7a29.942,29.942,0,0,1-6.2-.555,4.473,4.473,0,0,1-3.262-4.595v-.4a.811.811,0,1,1,1.621,0v.4a2.911,2.911,0,0,0,1.952,3,28.466,28.466,0,0,0,5.892.524,27.6,27.6,0,0,0,5.82-.524,2.911,2.911,0,0,0,1.952-3v-.4a.811.811,0,1,1,1.622,0v.4a4.473,4.473,0,0,1-3.263,4.595A29.108,29.108,0,0,1,1431.959,1397.7Z" transform="translate(-1422.494 -1391.334)" fill="#665059"/></g><g transform="translate(0 3.049)"><path d="M1430.877,1377.56a26,26,0,0,1-10.06-2.027c-.08-.033-.149-.09-.229-.129a3.061,3.061,0,0,1-2.029-3.276l2.071-43.062c.1-2.049,1.464-3.647,3.116-3.647h14.336c1.652,0,3.018,1.6,3.117,3.647l2.071,43.062a3.342,3.342,0,0,1-2.029,3.276,2.278,2.278,0,0,1-.229.129,26.009,26.009,0,0,1-10.061,2.027" transform="translate(-1417.741 -1324.609)" fill="#fff"/><path d="M1430.688,1378.11h-.073a26.636,26.636,0,0,1-10.364-2.087,1.641,1.641,0,0,1-.252-.133l-.033-.02a3.852,3.852,0,0,1-2.479-4.042l2.071-43.061c.119-2.478,1.844-4.42,3.926-4.42h14.336c2.083,0,3.807,1.941,3.926,4.42l2.071,43.061a4.115,4.115,0,0,1-2.45,4.027c-.016.008-.031.018-.047.028a1.794,1.794,0,0,1-.269.141A26.63,26.63,0,0,1,1430.688,1378.11Zm-9.809-3.582a25.071,25.071,0,0,0,9.736,1.96h.073a25.084,25.084,0,0,0,9.745-1.964l.039-.024c.038-.023.076-.047.116-.069a2.538,2.538,0,0,0,1.609-2.527l-2.071-43.061c-.077-1.613-1.091-2.877-2.307-2.877h-14.336c-1.216,0-2.229,1.264-2.307,2.877l-2.071,43.061a2.283,2.283,0,0,0,1.569,2.507,1.9,1.9,0,0,1,.183.1Zm19.567-.009h0Z" transform="translate(-1417.48 -1324.347)" fill="#665059"/></g><g transform="translate(1.969 8.933)"><path d="M1442.116,1336.832h0l-20.956-3.634" transform="translate(-1420.346 -1332.388)" fill="#fff"/><path d="M1441.855,1337.381h0a.773.773,0,0,1-.138-.012l-20.956-3.633a.811.811,0,0,1,.277-1.6l20.942,3.631a.81.81,0,0,1-.121,1.611Z" transform="translate(-1420.084 -1332.127)" fill="#665059"/></g><g transform="translate(1.811 12.776)"><line x2="21.232" y2="3.802" transform="translate(0.811 0.811)" fill="#fff"/><path d="M1441.919,1342.632a.865.865,0,0,1-.144-.013l-21.232-3.8a.811.811,0,0,1,.286-1.6l21.232,3.8a.811.811,0,0,1-.142,1.609Z" transform="translate(-1419.875 -1337.209)" fill="#665059"/></g><g transform="translate(1.609 16.636)"><line x2="21.705" y2="3.768" transform="translate(0.811 0.811)" fill="#fff"/><path d="M1442.126,1347.7a.791.791,0,0,1-.14-.012l-21.705-3.768a.811.811,0,1,1,.278-1.6l21.705,3.769a.811.811,0,0,1-.138,1.609Z" transform="translate(-1419.608 -1342.313)" fill="#665059"/></g><g transform="translate(0.567 38.173)"><line x2="23.815" y2="4.627" transform="translate(0.811 0.81)" fill="#fff"/><path d="M1442.857,1377.038a.778.778,0,0,1-.155-.015l-23.815-4.627a.81.81,0,1,1,.309-1.591l23.815,4.627a.81.81,0,0,1-.153,1.606Z" transform="translate(-1418.23 -1370.791)" fill="#665059"/></g><g transform="translate(0.344 42.672)"><line x1="24.226" y1="4.789" transform="translate(0.811 0.81)" fill="#fff"/><path d="M1442.973,1383.149a.87.87,0,0,1-.158-.015l-24.226-4.79a.81.81,0,1,1,.314-1.589l24.226,4.789a.81.81,0,0,1-.156,1.605Z" transform="translate(-1417.936 -1376.74)" fill="#665059"/></g><g transform="translate(8.379 8.14)"><path d="M1443.938,1332.15c-.395.1-14.307,1.872-14.307,1.872" transform="translate(-1428.821 -1331.34)" fill="#fff"/><path d="M1429.369,1334.571a.811.811,0,0,1-.1-1.615c5.439-.693,13.7-1.757,14.231-1.857a.81.81,0,0,1,.376,1.577c-.4.1-10.2,1.355-14.4,1.889A.766.766,0,0,1,1429.369,1334.571Z" transform="translate(-1428.559 -1331.078)" fill="#665059"/></g><g transform="translate(1.367 18.755)"><line x1="12.477" y2="2.603" transform="translate(0.811 0.811)" fill="#fff"/><path d="M1420.1,1349.338a.811.811,0,0,1-.165-1.6l12.478-2.6a.81.81,0,0,1,.331,1.587l-12.478,2.6A.839.839,0,0,1,1420.1,1349.338Z" transform="translate(-1419.288 -1345.114)" fill="#665059"/></g><g transform="translate(0.176 46.507)"><line x1="19.545" y2="4.474" transform="translate(0.811 0.811)" fill="#fff"/><path d="M1418.523,1387.907a.81.81,0,0,1-.18-1.6l19.546-4.474a.81.81,0,1,1,.361,1.58l-19.546,4.474A.785.785,0,0,1,1418.523,1387.907Z" transform="translate(-1417.713 -1381.812)" fill="#665059"/></g><g transform="translate(1.12 21.17)"><line x1="22.17" y2="5.53" transform="translate(0.81 0.811)" fill="#fff"/><path d="M1419.772,1355.46a.811.811,0,0,1-.2-1.6l22.17-5.531a.811.811,0,1,1,.392,1.573l-22.17,5.53A.794.794,0,0,1,1419.772,1355.46Z" transform="translate(-1418.962 -1348.308)" fill="#665059"/></g><g transform="translate(0.942 25.318)"><line x1="22.546" y2="5.676" transform="translate(0.811 0.811)" fill="#fff"/><path d="M1419.536,1361.09a.811.811,0,0,1-.2-1.6l22.546-5.676a.811.811,0,1,1,.4,1.572l-22.546,5.676A.819.819,0,0,1,1419.536,1361.09Z" transform="translate(-1418.726 -1353.792)" fill="#665059"/></g><g transform="translate(0.754 29.317)"><line x1="22.98" y2="5.759" transform="translate(0.811 0.811)" fill="#fff"/><path d="M1419.288,1366.461a.81.81,0,0,1-.2-1.6l22.98-5.76a.81.81,0,0,1,.394,1.572l-22.98,5.76A.818.818,0,0,1,1419.288,1366.461Z" transform="translate(-1418.478 -1359.081)" fill="#665059"/></g><g transform="translate(2.898 34.551)"><line x2="21.232" y2="3.999" transform="translate(0.81 0.811)" fill="#fff"/><path d="M1443.356,1371.622a.79.79,0,0,1-.151-.014l-21.232-4a.811.811,0,0,1,.3-1.594l21.232,4a.811.811,0,0,1-.149,1.607Z" transform="translate(-1421.312 -1366.001)" fill="#665059"/></g><g transform="translate(31.334 3.049)"><path d="M1472.382,1377.56a26,26,0,0,0,10.06-2.027,2.3,2.3,0,0,0,.229-.129,3.343,3.343,0,0,0,2.029-3.276l-2.071-43.062c-.1-2.049-1.465-3.647-3.116-3.647h-14.336c-1.652,0-3.018,1.6-3.117,3.647l-2.071,43.062a3.061,3.061,0,0,0,2.029,3.276c.08.038.149.1.229.129a26.009,26.009,0,0,0,10.061,2.027" transform="translate(-1459.174 -1324.609)" fill="#fff"/><path d="M1472.121,1378.11h-.073a26.631,26.631,0,0,1-10.364-2.087,1.559,1.559,0,0,1-.252-.133c-.011-.007-.022-.015-.033-.02a3.853,3.853,0,0,1-2.48-4.042l2.072-43.061c.119-2.478,1.843-4.42,3.926-4.42h14.336c2.082,0,3.806,1.941,3.926,4.42l2.071,43.061a4.114,4.114,0,0,1-2.449,4.027.524.524,0,0,0-.047.028,1.825,1.825,0,0,1-.269.141A26.635,26.635,0,0,1,1472.121,1378.11Zm-9.809-3.582a25.063,25.063,0,0,0,9.736,1.96h.073a25.082,25.082,0,0,0,9.744-1.964.4.4,0,0,0,.039-.024c.039-.023.077-.047.116-.069a2.536,2.536,0,0,0,1.609-2.527l-2.071-43.061c-.078-1.613-1.091-2.877-2.307-2.877h-14.336c-1.216,0-2.229,1.264-2.307,2.877l-2.072,43.061a2.285,2.285,0,0,0,1.569,2.507,1.873,1.873,0,0,1,.183.1Zm19.567-.009h0Z" transform="translate(-1458.912 -1324.347)" fill="#665059"/></g><g transform="translate(33.303 8.933)"><path d="M1483.549,1336.832h0l-20.956-3.634" transform="translate(-1461.778 -1332.388)" fill="#fff"/><path d="M1483.287,1337.381h0a.779.779,0,0,1-.138-.012l-20.955-3.633a.811.811,0,1,1,.277-1.6l20.942,3.631a.81.81,0,0,1-.12,1.611Z" transform="translate(-1461.516 -1332.127)" fill="#665059"/></g><g transform="translate(33.145 12.776)"><line x2="21.232" y2="3.802" transform="translate(0.811 0.811)" fill="#fff"/><path d="M1483.352,1342.632a.857.857,0,0,1-.144-.013l-21.232-3.8a.811.811,0,1,1,.286-1.6l21.232,3.8a.811.811,0,0,1-.142,1.609Z" transform="translate(-1461.308 -1337.209)" fill="#665059"/></g><g transform="translate(32.944 16.637)"><path d="M1483.809,1347.154l-9.476-1.645-12.219-2.123" transform="translate(-1461.303 -1342.575)" fill="#fff"/><path d="M1483.548,1347.7a.792.792,0,0,1-.14-.012l-21.695-3.768a.81.81,0,1,1,.277-1.6l21.695,3.768a.811.811,0,0,1-.138,1.609Z" transform="translate(-1461.042 -1342.314)" fill="#665059"/></g><g transform="translate(31.901 38.173)"><line x2="23.815" y2="4.627" transform="translate(0.811 0.81)" fill="#fff"/><path d="M1484.29,1377.038a.778.778,0,0,1-.156-.015l-23.815-4.627a.81.81,0,1,1,.308-1.591l23.816,4.627a.81.81,0,0,1-.154,1.606Z" transform="translate(-1459.663 -1370.791)" fill="#665059"/></g><g transform="translate(31.679 42.672)"><line x1="24.226" y1="4.789" transform="translate(0.81 0.81)" fill="#fff"/><path d="M1484.406,1383.149a.877.877,0,0,1-.158-.015l-24.226-4.79a.81.81,0,0,1,.315-1.589l24.226,4.789a.81.81,0,0,1-.156,1.605Z" transform="translate(-1459.369 -1376.74)" fill="#665059"/></g><g transform="translate(39.712 8.14)"><path d="M1485.371,1332.15c-.395.1-14.307,1.872-14.307,1.872" transform="translate(-1470.253 -1331.34)" fill="#fff"/><path d="M1470.8,1334.571a.81.81,0,0,1-.1-1.615c5.44-.693,13.7-1.758,14.231-1.857a.81.81,0,0,1,.375,1.577c-.4.1-10.2,1.354-14.4,1.889A.782.782,0,0,1,1470.8,1334.571Z" transform="translate(-1469.991 -1331.078)" fill="#665059"/></g><g transform="translate(32.701 18.755)"><line x1="12.477" y2="2.603" transform="translate(0.811 0.811)" fill="#fff"/><path d="M1461.53,1349.338a.811.811,0,0,1-.165-1.6l12.477-2.6a.81.81,0,1,1,.331,1.587l-12.477,2.6A.833.833,0,0,1,1461.53,1349.338Z" transform="translate(-1460.72 -1345.114)" fill="#665059"/></g><g transform="translate(31.51 46.507)"><line x1="19.545" y2="4.474" transform="translate(0.811 0.811)" fill="#fff"/><path d="M1459.956,1387.907a.81.81,0,0,1-.18-1.6l19.546-4.474a.81.81,0,0,1,.362,1.58l-19.546,4.474A.787.787,0,0,1,1459.956,1387.907Z" transform="translate(-1459.146 -1381.812)" fill="#665059"/></g><g transform="translate(32.454 21.17)"><line x1="22.17" y2="5.53" transform="translate(0.811 0.811)" fill="#fff"/><path d="M1461.2,1355.46a.811.811,0,0,1-.2-1.6l22.17-5.531a.811.811,0,0,1,.393,1.573l-22.171,5.53A.8.8,0,0,1,1461.2,1355.46Z" transform="translate(-1460.394 -1348.308)" fill="#665059"/></g><g transform="translate(32.276 25.318)"><line x1="22.546" y2="5.676" transform="translate(0.811 0.811)" fill="#fff"/><path d="M1460.968,1361.09a.811.811,0,0,1-.2-1.6l22.546-5.676a.811.811,0,0,1,.4,1.572l-22.546,5.676A.82.82,0,0,1,1460.968,1361.09Z" transform="translate(-1460.158 -1353.792)" fill="#665059"/></g><g transform="translate(32.089 29.317)"><line x1="22.98" y2="5.759" transform="translate(0.811 0.811)" fill="#fff"/><path d="M1460.721,1366.461a.81.81,0,0,1-.2-1.6l22.98-5.76a.81.81,0,1,1,.394,1.572l-22.98,5.76A.815.815,0,0,1,1460.721,1366.461Z" transform="translate(-1459.911 -1359.081)" fill="#665059"/></g><g transform="translate(34.231 34.551)"><line x2="21.232" y2="3.999" transform="translate(0.811 0.811)" fill="#fff"/><path d="M1484.788,1371.622a.782.782,0,0,1-.151-.014l-21.232-4a.811.811,0,1,1,.3-1.594l21.231,4a.811.811,0,0,1-.149,1.607Z" transform="translate(-1462.744 -1366.001)" fill="#665059"/></g></g><g transform="translate(55.447 64.727)"><g transform="translate(66.957 9.542)"><path d="M1520.481,1419.592h3.775c1.029,0,2.2,2.946,2.2,6.384s-.549,6.6-2.2,6.6h-2.2" transform="translate(-1519.671 -1418.781)" fill="#fff"/><path d="M1524,1433.121h-2.2a.811.811,0,0,1,0-1.621h2.2c.557,0,1.385-1.541,1.385-5.785,0-3.174-.988-5.3-1.438-5.574h-3.723a.811.811,0,1,1,0-1.621H1524c1.857,0,3.007,3.735,3.007,7.2C1527,1430.629,1525.99,1433.121,1524,1433.121Zm0-12.98h0Zm-.076-.013Z" transform="translate(-1519.409 -1418.52)" fill="#665059"/></g><g transform="translate(0 3.688)"><path d="M1469.8,1467.8h28.415c3.02,0,4.118-1.684,4.118-4.911s-2.2-41.957-3.432-45.184-1.647-5.192-5.9-5.613-51.9-.16-51.9-.16-7.677,1.563-7.539,6.755.411,9.962.411,11.787,2.109,5.241,3.343,6.364c1.044.948,10.657.806,13.633.58a1.184,1.184,0,0,0,1.042-.878,10.742,10.742,0,0,1,6-6.768,18.827,18.827,0,0,1,15.1-.141c4.05,1.684,3.432,13.191,3.432,16s-.343,3.929-4.8,3.929h-35.827c-2.2,0-3.156,2.385-3.706,5.052s0,7.156,0,8.419c0,2.105,1.648,4.771,5.354,4.771Z" transform="translate(-1431.134 -1411.042)" fill="#fff"/><path d="M1497.954,1468.35h-60.673c-4,0-6.164-2.876-6.164-5.582,0-.294-.036-.831-.078-1.452a30.1,30.1,0,0,1,.095-7.131c.5-2.447,1.518-5.7,4.5-5.7h35.827c1.92,0,3.035-.216,3.508-.68.409-.4.486-1.167.486-2.439,0-.271.006-.624.013-1.04.051-3.19.209-12.9-2.945-14.208a18.043,18.043,0,0,0-14.441.124,9.872,9.872,0,0,0-5.569,6.253,2,2,0,0,1-1.761,1.469c-1.515.115-4.7.207-7.618.153-5.7-.107-6.325-.671-6.622-.941-1.268-1.152-3.609-4.8-3.609-6.965,0-.888-.067-2.5-.151-4.55s-.191-4.594-.26-7.216c-.154-5.8,7.847-7.5,8.188-7.571a.81.81,0,0,1,.157-.016c1.947-.01,47.734-.256,51.982.163,4.445.44,5.232,2.54,6.321,5.445.083.221.169.45.259.685,1.373,3.585,3.485,43.27,3.485,45.473C1502.883,1466.478,1501.27,1468.35,1497.954,1468.35Zm-62.321-18.242c-.86,0-2.1.456-2.912,4.4a29.53,29.53,0,0,0-.064,6.7c.045.677.081,1.212.081,1.56,0,1.592,1.21,3.96,4.543,3.96h60.673c2.042,0,3.307-.686,3.307-4.1s-2.223-41.876-3.378-44.894c-.091-.239-.177-.471-.262-.7-1.045-2.789-1.522-4.061-4.963-4.4-4.081-.4-49.438-.169-51.728-.157-.738.169-6.93,1.72-6.819,5.923.069,2.61.174,5.15.259,7.191.086,2.065.154,3.7.154,4.617,0,1.494,1.928,4.7,3.061,5.749,1.022.607,9.084.688,13.044.387a.372.372,0,0,0,.322-.286,11.624,11.624,0,0,1,6.437-7.285,19.67,19.67,0,0,1,15.758-.156c3.675,1.528,4.056,8.81,3.943,15.731-.007.406-.012.749-.012,1.014,0,3.343-.78,4.74-5.615,4.74Z" transform="translate(-1430.872 -1410.78)" fill="#665059"/></g><g transform="translate(14.452 3.746)"><line y1="25.634" transform="translate(0.811 0.811)" fill="#fff"/><path d="M1450.793,1438.112a.811.811,0,0,1-.811-.811v-25.634a.811.811,0,1,1,1.621,0V1437.3A.811.811,0,0,1,1450.793,1438.112Z" transform="translate(-1449.982 -1410.856)" fill="#665059"/></g><g transform="translate(17.507 3.754)"><line y1="25.581" transform="translate(0.811 0.811)" fill="#fff"/><path d="M1454.833,1438.07a.811.811,0,0,1-.811-.811v-25.581a.811.811,0,0,1,1.622,0v25.581A.811.811,0,0,1,1454.833,1438.07Z" transform="translate(-1454.022 -1410.867)" fill="#665059"/></g><g transform="translate(39.984 7.858)"><ellipse cx="5.216" cy="5.332" rx="5.216" ry="5.332" transform="translate(0.81 0.811)" fill="#99f8ff"/><path d="M1489.77,1428.579a6.144,6.144,0,1,1,6.027-6.143A6.093,6.093,0,0,1,1489.77,1428.579Zm0-10.665a4.523,4.523,0,1,0,4.405,4.522A4.47,4.47,0,0,0,1489.77,1417.914Z" transform="translate(-1483.743 -1416.293)" fill="#665059"/></g><g transform="translate(54.934 5.821)"><rect width="7.871" height="2.993" rx="1.497" transform="translate(0.81 0.81)" fill="#99f8ff"/><path d="M1511.906,1418.215h-7.3a1.1,1.1,0,0,1-1.1-1.1V1414.7a1.1,1.1,0,0,1,1.1-1.1h7.3a1.1,1.1,0,0,1,1.1,1.1v2.422A1.1,1.1,0,0,1,1511.906,1418.215Zm-6.775-1.621h6.25v-1.372h-6.25Z" transform="translate(-1503.511 -1413.6)" fill="#665059"/></g><g transform="translate(58.501 2.76)"><line y1="6.054" transform="translate(0.811 0.81)" fill="#fff"/><path d="M1509.038,1417.228a.811.811,0,0,1-.811-.811v-6.055a.811.811,0,0,1,1.621,0v6.055A.811.811,0,0,1,1509.038,1417.228Z" transform="translate(-1508.227 -1409.553)" fill="#665059"/></g><g transform="translate(53.368 21.171)"><rect width="4.324" height="2.315" rx="1.158" transform="translate(0.811 0.811)" fill="#fff"/><path d="M1506.306,1437.834h-3.787a1.08,1.08,0,0,1-1.079-1.079v-1.778a1.08,1.08,0,0,1,1.079-1.079h3.787a1.08,1.08,0,0,1,1.079,1.079v1.778A1.08,1.08,0,0,1,1506.306,1437.834Zm-3.245-1.621h2.7v-.694h-2.7Z" transform="translate(-1501.44 -1433.897)" fill="#665059"/></g><g transform="translate(53.368 26.03)"><rect width="4.324" height="2.315" rx="1.158" transform="translate(0.811 0.81)" fill="#fff"/><path d="M1506.306,1444.258h-3.787a1.08,1.08,0,0,1-1.079-1.079V1441.4a1.08,1.08,0,0,1,1.079-1.079h3.787a1.08,1.08,0,0,1,1.079,1.079v1.778A1.08,1.08,0,0,1,1506.306,1444.258Zm-3.245-1.621h2.7v-.694h-2.7Z" transform="translate(-1501.44 -1440.322)" fill="#665059"/></g><g transform="translate(53.368 30.888)"><rect width="4.324" height="2.315" rx="1.158" transform="translate(0.811 0.811)" fill="#fff"/><path d="M1506.306,1450.683h-3.787a1.08,1.08,0,0,1-1.079-1.079v-1.778a1.08,1.08,0,0,1,1.079-1.079h3.787a1.08,1.08,0,0,1,1.079,1.079v1.778A1.08,1.08,0,0,1,1506.306,1450.683Zm-3.245-1.621h2.7v-.694h-2.7Z" transform="translate(-1501.44 -1446.746)" fill="#665059"/></g><g transform="translate(53.368 35.747)"><rect width="4.324" height="2.315" rx="1.158" transform="translate(0.811 0.81)" fill="#fff"/><path d="M1506.306,1457.108h-3.787a1.081,1.081,0,0,1-1.079-1.079v-1.778a1.08,1.08,0,0,1,1.079-1.079h3.787a1.08,1.08,0,0,1,1.079,1.079v1.778A1.08,1.08,0,0,1,1506.306,1457.108Zm-3.245-1.621h2.7v-.694h-2.7Z" transform="translate(-1501.44 -1453.171)" fill="#665059"/></g><g transform="translate(53.368 40.605)"><rect width="4.324" height="2.315" rx="1.158" transform="translate(0.811 0.811)" fill="#fff"/><path d="M1506.306,1463.531h-3.787a1.08,1.08,0,0,1-1.079-1.079v-1.778a1.08,1.08,0,0,1,1.079-1.079h3.787a1.08,1.08,0,0,1,1.079,1.079v1.778A1.08,1.08,0,0,1,1506.306,1463.531Zm-3.245-1.621h2.7v-.694h-2.7Z" transform="translate(-1501.44 -1459.595)" fill="#665059"/></g><g transform="translate(60.334 21.171)"><rect width="4.324" height="2.315" rx="1.158" transform="translate(0.81 0.811)" fill="#fff"/><path d="M1515.518,1437.834h-3.787a1.08,1.08,0,0,1-1.079-1.079v-1.778a1.08,1.08,0,0,1,1.079-1.079h3.787a1.08,1.08,0,0,1,1.079,1.079v1.778A1.08,1.08,0,0,1,1515.518,1437.834Zm-3.245-1.621h2.7v-.694h-2.7Z" transform="translate(-1510.652 -1433.897)" fill="#665059"/></g><g transform="translate(60.334 26.03)"><rect width="4.324" height="2.315" rx="1.158" transform="translate(0.81 0.81)" fill="#fff"/><path d="M1515.518,1444.258h-3.787a1.08,1.08,0,0,1-1.079-1.079V1441.4a1.08,1.08,0,0,1,1.079-1.079h3.787a1.08,1.08,0,0,1,1.079,1.079v1.778A1.08,1.08,0,0,1,1515.518,1444.258Zm-3.245-1.621h2.7v-.694h-2.7Z" transform="translate(-1510.652 -1440.322)" fill="#665059"/></g><g transform="translate(60.334 30.888)"><rect width="4.324" height="2.315" rx="1.158" transform="translate(0.81 0.811)" fill="#fff"/><path d="M1515.518,1450.683h-3.787a1.08,1.08,0,0,1-1.079-1.079v-1.778a1.08,1.08,0,0,1,1.079-1.079h3.787a1.08,1.08,0,0,1,1.079,1.079v1.778A1.08,1.08,0,0,1,1515.518,1450.683Zm-3.245-1.621h2.7v-.694h-2.7Z" transform="translate(-1510.652 -1446.746)" fill="#665059"/></g><g transform="translate(60.334 35.747)"><rect width="4.324" height="2.315" rx="1.158" transform="translate(0.81 0.81)" fill="#fff"/><path d="M1515.518,1457.108h-3.787a1.08,1.08,0,0,1-1.079-1.079v-1.778a1.08,1.08,0,0,1,1.079-1.079h3.787a1.08,1.08,0,0,1,1.079,1.079v1.778A1.081,1.081,0,0,1,1515.518,1457.108Zm-3.245-1.621h2.7v-.694h-2.7Z" transform="translate(-1510.652 -1453.171)" fill="#665059"/></g><g transform="translate(60.334 40.605)"><rect width="4.324" height="2.315" rx="1.158" transform="translate(0.81 0.811)" fill="#fff"/><path d="M1515.518,1463.531h-3.787a1.08,1.08,0,0,1-1.079-1.079v-1.778a1.08,1.08,0,0,1,1.079-1.079h3.787a1.08,1.08,0,0,1,1.079,1.079v1.778A1.08,1.08,0,0,1,1515.518,1463.531Zm-3.245-1.621h2.7v-.694h-2.7Z" transform="translate(-1510.652 -1459.595)" fill="#665059"/></g><g transform="translate(24.198 9.471)"><rect width="4.804" height="6.876" rx="2.402" transform="translate(0.811 0.811)" fill="#99f8ff"/><path d="M1467.927,1426.924h-3.69a1.37,1.37,0,0,1-1.368-1.368V1419.8a1.37,1.37,0,0,1,1.368-1.368h3.69a1.37,1.37,0,0,1,1.368,1.368v5.761A1.37,1.37,0,0,1,1467.927,1426.924Zm-3.436-1.621h3.183v-5.255h-3.183Z" transform="translate(-1462.869 -1418.427)" fill="#665059"/></g><g transform="translate(24.242 12.837)"><line x1="4.726" transform="translate(0.811 0.811)" fill="#fff"/><path d="M1468.464,1424.5h-4.726a.811.811,0,1,1,0-1.621h4.726a.811.811,0,0,1,0,1.621Z" transform="translate(-1462.927 -1422.877)" fill="#665059"/></g><g transform="translate(13.68)"><line x1="5.01" transform="translate(0.81 0.81)" fill="#fff"/><path d="M1454.782,1407.524h-5.01a.81.81,0,1,1,0-1.621h5.01a.81.81,0,1,1,0,1.621Z" transform="translate(-1448.961 -1405.903)" fill="#665059"/></g><g transform="translate(16.185 0.011)"><line y2="3.717" transform="translate(0.81 0.81)" fill="#fff"/><path d="M1453.084,1411.255a.81.81,0,0,1-.81-.811v-3.716a.81.81,0,1,1,1.621,0v3.716A.811.811,0,0,1,1453.084,1411.255Z" transform="translate(-1452.274 -1405.917)" fill="#665059"/></g><g transform="translate(12.736 29.45)"><path d="M1450.912,1445.915v8.262a1.076,1.076,0,0,1-1.063,1.087h0a1.076,1.076,0,0,1-1.064-1.087v-8.245Z" transform="translate(-1447.974 -1445.105)" fill="#fff"/><path d="M1449.588,1455.814a1.889,1.889,0,0,1-1.875-1.9v-8.245a.811.811,0,0,1,.8-.811l2.127-.017h.006a.811.811,0,0,1,.811.81v8.262A1.889,1.889,0,0,1,1449.588,1455.814Zm-.253-9.339v7.441a.254.254,0,1,0,.506,0v-7.445Z" transform="translate(-1447.713 -1444.844)" fill="#665059"/></g><g transform="translate(13.8 38.799)"><line y1="1.579" transform="translate(0.81 0.811)" fill="#fff"/><path d="M1449.931,1460.406a.81.81,0,0,1-.811-.81v-1.579a.81.81,0,1,1,1.621,0v1.579A.81.81,0,0,1,1449.931,1460.406Z" transform="translate(-1449.12 -1457.206)" fill="#665059"/></g><g transform="translate(5.994 41.395)"><path d="M1455.26,1461.729c0,.744-.164,3.28-1.3,3.28h-12.782c-1.261,0-1.246-3.3-1.3-3.3Z" transform="translate(-1439.059 -1460.9)" fill="#99f8ff"/><path d="M1453.695,1465.558h-12.782c-1.789,0-1.993-2.645-2.081-3.774,0-.058-.008-.107-.011-.144a.812.812,0,0,1,.789-1h0l15.388.017a.811.811,0,0,1,.81.811C1455.809,1462.15,1455.707,1465.558,1453.695,1465.558Zm-12.735-1.621h12.707a3.365,3.365,0,0,0,.478-1.659l-13.638-.016C1440.651,1463.514,1440.875,1463.852,1440.959,1463.936Zm-1.354-1.676h0Zm0,0h0Zm0,0h0Zm-.1-.008a.906.906,0,0,0,.1.008A.906.906,0,0,1,1439.5,1462.253Zm0,0Zm-.641-.492a.669.669,0,0,0,.044.091A.787.787,0,0,1,1438.86,1461.761Z" transform="translate(-1438.798 -1460.639)" fill="#665059"/></g><g transform="translate(14.916 32.923)"><line x2="2.951" transform="translate(0.81 0.81)" fill="#fff"/><path d="M1454.357,1451.058h-2.952a.81.81,0,0,1,0-1.621h2.952a.81.81,0,1,1,0,1.621Z" transform="translate(-1450.595 -1449.437)" fill="#665059"/></g><g transform="translate(17.884 31.695)"><line y2="2.456" transform="translate(0.81 0.811)" fill="#fff"/><path d="M1455.331,1451.89a.811.811,0,0,1-.811-.811v-2.455a.81.81,0,1,1,1.621,0v2.455A.811.811,0,0,1,1455.331,1451.89Z" transform="translate(-1454.52 -1447.813)" fill="#665059"/></g><g transform="translate(11.988 40.6)"><rect width="4.542" height="2.193" rx="1.096" transform="translate(0.351 0.351)" fill="#915aad"/><path d="M1451.363,1462.484h-4.033a.607.607,0,0,1-.606-.606v-1.684a.606.606,0,0,1,.606-.606h4.033a.607.607,0,0,1,.606.606v1.684A.608.608,0,0,1,1451.363,1462.484Zm-3.936-.7h3.839v-1.49h-3.839Z" transform="translate(-1446.724 -1459.588)" fill="#665059"/></g><g transform="translate(50.21 14.874)"><path d="M1517.808,1457.888h0l-18.12-.106a2.443,2.443,0,0,1-2.418-2.459v-22.31a7.051,7.051,0,0,1,1.963-4.378c1.29-1.4,3.781-3.063,8.319-3.063,7.56,0,9.063,3.443,9.124,3.589l-1.5.616.007.016c-.012-.026-1.277-2.6-7.631-2.6-7.191,0-8.661,4.591-8.661,5.82v22.31a.822.822,0,0,0,.8.839l18.124.105a.811.811,0,0,1,0,1.621Z" transform="translate(-1497.265 -1425.571)" fill="#665059"/></g></g><g transform="translate(2.906 21.839)"><g transform="translate(0 0.712)"><path d="M1383.809,1351.659l-2.3,15.045a68.856,68.856,0,0,0-.792,10.414V1403.2a3.669,3.669,0,0,1-3.669,3.669H1373.4a10.932,10.932,0,0,0-10.933,10.933v8.242a10.932,10.932,0,0,0,10.933,10.933h0a10.932,10.932,0,0,0,10.932-10.933v-37.651l3.62-3.33v-7.94a68.778,68.778,0,0,0-.793-10.414l-2.3-15.045A.532.532,0,0,0,1383.809,1351.659Zm-3.094,74.054a7.458,7.458,0,0,1-7.457,7.458h0a7.458,7.458,0,0,1-7.458-7.458v-7.771a7.458,7.458,0,0,1,7.458-7.457h0a7.457,7.457,0,0,1,7.457,7.457Z" transform="translate(-1361.659 -1350.397)" fill="#fff"/><path d="M1373.141,1437.521a11.757,11.757,0,0,1-11.743-11.743v-8.242a11.757,11.757,0,0,1,11.743-11.743h3.644a2.861,2.861,0,0,0,2.858-2.858v-26.077a69.918,69.918,0,0,1,.8-10.537l2.3-15.045h0a1.343,1.343,0,0,1,2.655,0l2.3,15.045a69.9,69.9,0,0,1,.8,10.537v7.94a.808.808,0,0,1-.262.6l-3.358,3.09v37.295A11.757,11.757,0,0,1,1373.141,1437.521Zm0-30.107a10.134,10.134,0,0,0-10.123,10.122v8.242a10.122,10.122,0,0,0,20.244,0v-37.65a.812.812,0,0,1,.262-.6l3.359-3.09v-7.584a68.272,68.272,0,0,0-.783-10.292l-2.027-13.248-2.027,13.248a68.256,68.256,0,0,0-.783,10.292v26.077a4.484,4.484,0,0,1-4.479,4.48Zm-.145,26.306a8.277,8.277,0,0,1-8.267-8.268v-7.771a8.268,8.268,0,1,1,16.536,0v7.771A8.277,8.277,0,0,1,1373,1433.719Zm0-22.686a6.654,6.654,0,0,0-6.647,6.647v7.771a6.647,6.647,0,1,0,13.293,0v-7.771A6.654,6.654,0,0,0,1373,1411.034Z" transform="translate(-1361.398 -1350.135)" fill="#665059"/></g><g transform="translate(18.011)"><path d="M1401.072,1406.635h-3.645a3.668,3.668,0,0,1-3.668-3.668v-26.078c0-3.486.424-6.968-.1-10.415l-3-15.776a.533.533,0,0,0-1.046,0l-3.09,15.779c-.527,3.446,0,6.928,0,10.415v7.94l3.62,3.331v37.65a10.932,10.932,0,0,0,10.933,10.933h0A10.932,10.932,0,0,0,1412,1425.809v-8.242A10.932,10.932,0,0,0,1401.072,1406.635Zm7.6,18.848a7.458,7.458,0,0,1-7.458,7.458h0a7.457,7.457,0,0,1-7.457-7.458v-7.771a7.457,7.457,0,0,1,7.457-7.457h0a7.458,7.458,0,0,1,7.458,7.457Z" transform="translate(-1385.475 -1349.454)" fill="#fff"/><path d="M1400.811,1437.292a11.757,11.757,0,0,1-11.743-11.743v-37.3l-3.359-3.09a.811.811,0,0,1-.262-.6v-7.94c0-1.144-.059-2.315-.116-3.448a35.078,35.078,0,0,1,.126-7.089l.005-.033,3.09-15.779a1.329,1.329,0,0,1,1.318-1.085h0a1.33,1.33,0,0,1,1.316,1.092l3,15.776.005.029a38.8,38.8,0,0,1,.192,7.338c-.04,1.05-.081,2.137-.081,3.2V1402.7a2.861,2.861,0,0,0,2.858,2.858h3.644a11.757,11.757,0,0,1,11.743,11.743v8.242A11.757,11.757,0,0,1,1400.811,1437.292Zm-13.742-53.08,3.358,3.09a.81.81,0,0,1,.262.6v37.651a10.122,10.122,0,0,0,20.244,0v-8.242a10.133,10.133,0,0,0-10.122-10.122h-3.644a4.484,4.484,0,0,1-4.479-4.479v-26.077c0-1.093.042-2.194.082-3.26a37.006,37.006,0,0,0-.172-7.018l-2.73-14.346-2.81,14.349a33.38,33.38,0,0,0-.107,6.746c.058,1.153.119,2.345.119,3.53Zm13.886,49.279a8.277,8.277,0,0,1-8.268-8.268v-7.771a8.268,8.268,0,1,1,16.536,0v7.771A8.278,8.278,0,0,1,1400.956,1433.49Zm0-22.686a6.654,6.654,0,0,0-6.647,6.647v7.771a6.647,6.647,0,0,0,13.294,0v-7.771A6.654,6.654,0,0,0,1400.956,1410.8Z" transform="translate(-1385.214 -1349.193)" fill="#665059"/><g transform="translate(3.854 0.291)"><path d="M1391.382,1350.65V1373.6c-.046,2.3,1.4,2.227,3.572,2.971" transform="translate(-1390.571 -1349.84)" fill="#fff"/><path d="M1394.693,1377.118a.822.822,0,0,1-.262-.044c-.366-.125-.71-.226-1.043-.324-1.606-.471-3.124-.917-3.076-3.421v-22.941a.811.811,0,1,1,1.621,0v22.965c-.025,1.23.313,1.373,1.913,1.842.333.1.711.209,1.111.346a.811.811,0,0,1-.263,1.578Z" transform="translate(-1390.31 -1349.578)" fill="#665059"/></g></g><g transform="translate(20.162 29.126)"><circle cx="1.703" cy="1.703" r="1.703" transform="translate(0.811 0.81)" fill="#fff"/><path d="M1390.572,1392.733a2.513,2.513,0,1,1,2.514-2.514A2.516,2.516,0,0,1,1390.572,1392.733Zm0-3.406a.893.893,0,1,0,.892.892A.894.894,0,0,0,1390.572,1389.327Z" transform="translate(-1388.058 -1387.706)" fill="#665059"/></g></g></g><g transform="translate(772.314 1316.173)"><g transform="translate(9.369 0)"><g transform="translate(17.022 17.022)"><circle cx="48.634" cy="48.634" r="48.634" fill="#ede3b7"/></g><g transform="translate(0 37.787)"><path d="M845.45,1399.471a.811.811,0,0,1-.808-.755c-.1-1.509-.156-3.043-.156-4.562,0-.665.01-1.337.029-2a.811.811,0,1,1,1.621.048c-.02.645-.03,1.3-.03,1.95,0,1.481.052,2.979.153,4.45a.811.811,0,0,1-.753.864Zm.392-12.941a.717.717,0,0,1-.106-.007.811.811,0,0,1-.7-.908c.281-2.164.675-4.336,1.171-6.456a.81.81,0,1,1,1.578.368c-.482,2.068-.867,4.186-1.141,6.3A.81.81,0,0,1,845.842,1386.53Zm2.945-12.605a.8.8,0,0,1-.263-.044.81.81,0,0,1-.5-1.029,65.465,65.465,0,0,1,2.438-6.093.811.811,0,0,1,1.473.677,63.861,63.861,0,0,0-2.378,5.942A.811.811,0,0,1,848.787,1373.924Z" transform="translate(-844.487 -1366.286)" fill="#665059"/></g><g transform="translate(36.782)"><path d="M950.347,1324.452a.809.809,0,0,1-.355-.082,63.925,63.925,0,0,0-5.887-2.509.811.811,0,0,1,.56-1.522,65.523,65.523,0,0,1,6.037,2.573.811.811,0,0,1-.355,1.54Zm-56.412-.14a.811.811,0,0,1-.352-1.541,65.628,65.628,0,0,1,6.051-2.543.811.811,0,0,1,.552,1.525,63.819,63.819,0,0,0-5.9,2.48A.81.81,0,0,1,893.936,1324.312Zm44.263-4.33a.814.814,0,0,1-.2-.026,63.861,63.861,0,0,0-6.27-1.28.811.811,0,0,1,.244-1.6,65.367,65.367,0,0,1,6.429,1.313.811.811,0,0,1-.2,1.6Zm-32.091-.08a.811.811,0,0,1-.2-1.6c2.112-.532,4.278-.963,6.437-1.281a.811.811,0,1,1,.236,1.6c-2.105.31-4.218.731-6.278,1.25A.82.82,0,0,1,906.108,1319.9Zm19.3-1.873h-.042c-2.12-.11-4.282-.116-6.4-.016a.811.811,0,0,1-.076-1.62c2.175-.1,4.391-.1,6.563.017a.81.81,0,0,1-.041,1.62Z" transform="translate(-893.124 -1316.321)" fill="#665059"/></g><g transform="translate(118.534 28.47)"><path d="M1010.275,1411.245a.82.82,0,0,1-.241-.037.811.811,0,0,1-.533-1.015,63.918,63.918,0,0,0,1.591-6.2.81.81,0,1,1,1.588.323,65.3,65.3,0,0,1-1.631,6.357A.811.811,0,0,1,1010.275,1411.245Zm2.585-12.686a.746.746,0,0,1-.082,0,.811.811,0,0,1-.725-.888c.213-2.11.323-4.261.327-6.393a.81.81,0,0,1,.81-.809h0a.811.811,0,0,1,.809.812c0,2.186-.116,4.391-.335,6.553A.811.811,0,0,1,1012.86,1398.559Zm.022-12.949a.81.81,0,0,1-.805-.732c-.206-2.12-.522-4.251-.938-6.333a.811.811,0,0,1,1.59-.318c.426,2.135.749,4.32.96,6.493a.81.81,0,0,1-.728.885C1012.935,1385.608,1012.908,1385.61,1012.882,1385.61Zm-2.536-12.7a.81.81,0,0,1-.774-.573,63.728,63.728,0,0,0-2.184-6.017.811.811,0,0,1,1.494-.629,65.235,65.235,0,0,1,2.239,6.171.81.81,0,0,1-.775,1.048Zm-5.023-11.934a.811.811,0,0,1-.712-.423c-.99-1.817-2.082-3.608-3.247-5.323a.811.811,0,1,1,1.342-.911c1.193,1.758,2.313,3.594,3.329,5.458a.81.81,0,0,1-.712,1.2Z" transform="translate(-1001.224 -1353.966)" fill="#665059"/></g><g transform="translate(32.885 118.985)"><path d="M919.742,1485.972h-.013c-2.185-.033-4.388-.176-6.548-.423a.811.811,0,1,1,.184-1.611c2.107.241,4.256.38,6.388.413a.81.81,0,0,1-.011,1.621Zm6.478-.221a.811.811,0,0,1-.066-1.618c2.122-.178,4.257-.464,6.345-.852a.811.811,0,0,1,.3,1.594c-2.141.4-4.33.691-6.506.873A.667.667,0,0,1,926.221,1485.751Zm-19.34-1.256a.8.8,0,0,1-.173-.019,65.286,65.286,0,0,1-6.334-1.717.811.811,0,0,1,.5-1.541,63.9,63.9,0,0,0,6.176,1.675.811.811,0,0,1-.172,1.6Zm32.072-1.108a.811.811,0,0,1-.227-1.589,63.9,63.9,0,0,0,6.046-2.1.81.81,0,1,1,.609,1.5,65.226,65.226,0,0,1-6.2,2.155A.815.815,0,0,1,938.952,1483.387Zm-44.381-2.9a.808.808,0,0,1-.327-.069c-1.993-.88-3.965-1.873-5.863-2.949a.811.811,0,0,1,.8-1.41c1.85,1.05,3.774,2.018,5.717,2.876a.811.811,0,0,1-.328,1.552Zm56.383-1.956a.811.811,0,0,1-.379-1.528c1.85-.976,3.674-2.056,5.422-3.211a.81.81,0,1,1,.893,1.352c-1.792,1.184-3.662,2.292-5.558,3.293A.806.806,0,0,1,950.954,1478.526Z" transform="translate(-887.971 -1473.653)" fill="#665059"/></g></g><g transform="translate(87.266 1.451)"><g transform="translate(21.773)"><g transform="translate(12.273 98.193)"><rect width="6.397" height="10.357" rx="3.198" transform="matrix(-0.994, 0.105, -0.105, -0.994, 8.185, 11.036)" fill="#99f8ff"/><path d="M994.99,1460.523a1.555,1.555,0,0,1-1.541-1.39l-.932-8.823a1.556,1.556,0,0,1,1.381-1.708l4.886-.515a1.554,1.554,0,0,1,1.707,1.381l.931,8.824a1.554,1.554,0,0,1-1.381,1.707l-4.886.516Q995.073,1460.523,994.99,1460.523Zm-.853-10.315.917,8.687,4.749-.5-.917-8.688Z" transform="translate(-992.509 -1448.079)" fill="#665059"/></g><g transform="translate(2.236 3.07)"><rect width="6.397" height="14.165" rx="3.198" transform="matrix(-0.994, 0.105, -0.105, -0.994, 8.585, 14.824)" fill="#99f8ff"/><path d="M982.118,1338.531a1.555,1.555,0,0,1-1.543-1.39l-1.33-12.611a1.554,1.554,0,0,1,1.381-1.707l4.886-.516a1.555,1.555,0,0,1,1.708,1.382l1.33,12.611a1.555,1.555,0,0,1-1.381,1.707l-4.885.515A1.5,1.5,0,0,1,982.118,1338.531Zm-1.254-14.1,1.317,12.474,4.749-.5-1.317-12.474Z" transform="translate(-979.237 -1322.298)" fill="#665059"/></g><g transform="translate(0 8.287)"><rect width="12.185" height="94.736" rx="1.869" transform="translate(0.67 1.949) rotate(-6.024)" fill="#fff"/><path d="M988.147,1426.029a2.227,2.227,0,0,1-2.21-1.991l-9.645-91.4a2.227,2.227,0,0,1,1.978-2.445l9.307-.982a2.228,2.228,0,0,1,2.445,1.979l9.645,91.4a2.229,2.229,0,0,1-1.978,2.445l-9.307.982h0A2.276,2.276,0,0,1,988.147,1426.029Zm.15-.819h0Zm-.487-94.392a.577.577,0,0,0-.063,0l-9.307.982a.6.6,0,0,0-.536.663l9.645,91.4a.605.605,0,0,0,.662.536l9.307-.982a.608.608,0,0,0,.536-.663l-9.645-91.4a.608.608,0,0,0-.6-.539Z" transform="translate(-976.28 -1329.196)" fill="#665059"/></g><g transform="translate(4.992)"><line x1="0.352" y1="3.332" transform="translate(0.811 0.811)" fill="#fff"/><path d="M984.041,1323.193a.81.81,0,0,1-.8-.726l-.352-3.332a.811.811,0,0,1,1.612-.17l.352,3.332a.813.813,0,0,1-.808.9Z" transform="translate(-982.88 -1318.239)" fill="#665059"/></g></g><g transform="translate(0 11.567)"><path d="M962.864,1360.1l-2.173-20.59a5.5,5.5,0,0,0-6.028-4.878l-1.212.129a5.548,5.548,0,0,0-4.854,6.242l2.15,20.376" transform="translate(-947.75 -1333.795)" fill="#fff"/><path d="M950.484,1361.932a.811.811,0,0,1-.805-.726l-2.15-20.375a6.335,6.335,0,0,1,5.576-7.134l1.212-.128a6.3,6.3,0,0,1,6.92,5.6l2.173,20.591a.811.811,0,0,1-1.612.17l-2.173-20.591a4.678,4.678,0,0,0-5.137-4.156l-1.212.128a4.733,4.733,0,0,0-4.134,5.352l2.15,20.375a.811.811,0,0,1-.807.9Z" transform="translate(-947.489 -1333.534)" fill="#665059"/><g transform="translate(8.416 5.274)"><line x2="1.924" y2="18.23" transform="translate(0.811 0.811)" fill="#fff"/><path d="M961.351,1360.358a.81.81,0,0,1-.805-.725l-1.924-18.23a.811.811,0,1,1,1.612-.17l1.924,18.23a.81.81,0,0,1-.722.891A.672.672,0,0,1,961.351,1360.358Z" transform="translate(-958.617 -1340.507)" fill="#665059"/></g><g transform="translate(3.795 5.749)"><line x2="1.933" y2="18.317" transform="translate(0.81 0.811)" fill="#fff"/><path d="M955.249,1361.074a.81.81,0,0,1-.8-.725l-1.933-18.317a.811.811,0,1,1,1.612-.17l1.932,18.318a.81.81,0,0,1-.807.9Z" transform="translate(-952.507 -1341.135)" fill="#665059"/></g><g transform="translate(2.194 23.524)"><path d="M963.582,1367.8c-.045-.426-.471-2.588-6.112-1.992-5.673.6-6.058,2.776-6.005,3.271s.884,2.553,6.557,1.954C963.662,1370.441,963.628,1368.229,963.582,1367.8Z" transform="translate(-950.651 -1364.9)" fill="#fff"/><path d="M955.853,1371.694a8.157,8.157,0,0,1-3.865-.774,2.4,2.4,0,0,1-.455-4.313c1.131-.964,3.012-1.592,5.591-1.863,6.164-.651,6.918,1.913,7,2.714h0a2.715,2.715,0,0,1-.886,2.216c-1.01.994-2.825,1.637-5.4,1.908A19.114,19.114,0,0,1,955.853,1371.694Zm3.156-5.436a16.508,16.508,0,0,0-1.714.1c-5.212.551-5.285,2.369-5.284,2.387s.453,1.777,5.665,1.227c2.736-.289,3.918-.949,4.429-1.451a1.115,1.115,0,0,0,.411-.891C962.456,1367.067,961.617,1366.258,959.009,1366.258Z" transform="translate(-950.39 -1364.64)" fill="#665059"/></g></g></g><g transform="translate(0 5.906)"><g transform="translate(14.353)"><path d="M877.69,1398.309l-2.555-13.172a14.007,14.007,0,0,1-.219-3.69l3.339-45.73c.1-1.43-.2-9.91-8.016-10.481l-.1-.008c-7.815-.57-9.349,7.776-9.454,9.206l-3.339,45.73a14.026,14.026,0,0,1-.753,3.619l-4.442,12.661" transform="translate(-851.339 -1324.391)" fill="#fff"/><path d="M877.428,1398.859a.81.81,0,0,1-.795-.656l-2.555-13.173a14.838,14.838,0,0,1-.231-3.9l3.339-45.729c.006-.09.444-9.051-7.267-9.614l-.1-.008a7,7,0,0,0-6.873,3.474,12.416,12.416,0,0,0-1.714,4.982l-3.339,45.73a14.831,14.831,0,0,1-.8,3.828l-4.441,12.661a.81.81,0,1,1-1.529-.536l4.441-12.661a13.169,13.169,0,0,0,.709-3.409l3.339-45.73a14,14,0,0,1,1.957-5.724,8.621,8.621,0,0,1,8.364-4.231l.1.008a8.619,8.619,0,0,1,7.662,5.4,13.989,13.989,0,0,1,1.1,5.947l-3.339,45.729a13.163,13.163,0,0,0,.206,3.477l2.555,13.172a.81.81,0,0,1-.641.951A.831.831,0,0,1,877.428,1398.859Z" transform="translate(-851.077 -1324.13)" fill="#665059"/></g><g transform="translate(22.168 40.472)"><path d="M873.006,1406.61l1.889-25.866a1.358,1.358,0,0,0-1.255-1.453l-3.856-.281-.1-.008-3.857-.281a1.357,1.357,0,0,0-1.453,1.255l-1.888,25.867" transform="translate(-861.672 -1377.907)" fill="#fff"/><path d="M872.745,1407.159l-.06,0a.81.81,0,0,1-.749-.867l1.889-25.866a.546.546,0,0,0-.506-.585l-7.815-.57a.539.539,0,0,0-.4.131.545.545,0,0,0-.188.375l-1.888,25.866a.811.811,0,1,1-1.617-.118l1.888-25.867a2.167,2.167,0,0,1,2.32-2l7.815.57a2.168,2.168,0,0,1,2,2.32l-1.889,25.866A.81.81,0,0,1,872.745,1407.159Z" transform="translate(-861.411 -1377.645)" fill="#665059"/></g><g transform="translate(0 60.344)"><circle cx="19.206" cy="19.206" r="19.206" transform="translate(0 30.703) rotate(-53.061)" fill="#fff"/><path d="M861.222,1453.05q-.732,0-1.472-.054a20.009,20.009,0,1,1,1.472.054Zm-.042-38.415a18.4,18.4,0,0,0-1.311,36.745c.453.032.905.049,1.352.049a18.4,18.4,0,0,0,1.327-36.744Q861.861,1414.635,861.179,1414.635Z" transform="translate(-834.314 -1406.138)" fill="#665059"/></g><g transform="translate(5.377 72.846)"><circle cx="17.926" cy="17.926" r="17.926" transform="translate(0 35.186) rotate(-78.939)" fill="#fff"/><path d="M861.008,1460.963q-.693,0-1.393-.051a18.7,18.7,0,1,1,1.393.051Zm-.054-35.854a17.156,17.156,0,1,0,1.272.047C861.8,1425.125,861.375,1425.109,860.953,1425.109Z" transform="translate(-839.947 -1421.193)" fill="#665059"/></g><g transform="translate(19.298 86.767)"><circle cx="6.3" cy="6.3" r="6.3" transform="translate(0.811 0.811)" fill="#99f8ff"/><path d="M864.738,1453.084q-.264,0-.529-.02a7.084,7.084,0,1,1,.529.02Zm-.02-12.6a5.5,5.5,0,1,0,.408.015C864.989,1440.488,864.853,1440.483,864.718,1440.483Z" transform="translate(-857.615 -1438.862)" fill="#665059"/></g><g transform="translate(23.035 39.834)"><rect width="4.097" height="12.343" rx="2.049" transform="translate(0.777 4.864) rotate(-85.824)" fill="#99f8ff"/><path d="M875.206,1383.341c-.032,0-.064,0-.1,0l-11.362-.829a1.285,1.285,0,0,1-1.189-1.376l.229-3.138a1.287,1.287,0,0,1,1.376-1.189l11.363.83a1.287,1.287,0,0,1,1.189,1.376h0l-.229,3.139a1.287,1.287,0,0,1-1.281,1.193Zm-11.005-2.425,10.693.781.181-2.469-10.694-.781Zm11.707-1.965h0Zm-.809-.059h0Z" transform="translate(-862.557 -1376.802)" fill="#665059"/></g><g transform="translate(25.748 50.411)"><rect width="15.416" height="3.739" rx="1.869" transform="translate(0.78 16.155) rotate(-85.824)" fill="#99f8ff"/><path d="M870.254,1408c-.03,0-.061,0-.092,0l-2.864-.209a1.245,1.245,0,0,1-1.15-1.331l1.06-14.51a1.244,1.244,0,0,1,1.332-1.15l2.864.209a1.246,1.246,0,0,1,1.15,1.332h0l-1.06,14.51a1.247,1.247,0,0,1-1.24,1.153Zm-2.462-1.8,2.112.154,1.005-13.759-2.112-.154Zm3.953-13.921h0Z" transform="translate(-866.145 -1390.789)" fill="#665059"/></g><g transform="translate(28.017 9.508)"><circle cx="3.432" cy="3.432" r="3.432" transform="matrix(0.99, -0.143, 0.143, 0.99, 0.356, 1.336)" fill="#99f8ff"/><path d="M873.387,1345.187h-.007a4.242,4.242,0,0,1,.007-8.484h.007a4.242,4.242,0,0,1-.007,8.484Zm0-6.863a2.621,2.621,0,0,0,0,5.242h0a2.621,2.621,0,0,0,0-5.242Z" transform="translate(-869.145 -1336.702)" fill="#665059"/></g></g><g transform="translate(46.065 34.975)"><g transform="translate(0.815 0.811)"><path d="M922.659,1448.474h15.149a1.926,1.926,0,0,0,1.888-1.547c.457-2.26,1.153-6.517.643-9.484-1.379-8.01-6.041-17.006-6.238-24.688-.163-6.35,4.465-13.132,6.566-17.86s5.41-13.8,3.939-15.5c-2.248-2.594-10.505-3.677-14.182-6.567-2.432-1.91-3.256-5.316-3.535-7.4a2.076,2.076,0,0,0-2.064-1.791H914.239a2.075,2.075,0,0,0-2.064,1.791c-.279,2.086-1.1,5.491-3.535,7.4-3.677,2.89-11.983,4.071-14.183,6.567-1.484,1.683,1.838,10.768,3.94,15.5s6.729,11.51,6.566,17.86c-.2,7.682-4.859,16.678-6.238,24.688-.51,2.967.186,7.224.643,9.484a1.926,1.926,0,0,0,1.888,1.547h21.4Z" transform="translate(-894.088 -1363.64)" fill="#fff"/></g><path d="M937.546,1449.023H900.994a2.746,2.746,0,0,1-2.682-2.2c-.47-2.326-1.18-6.688-.647-9.782a77.666,77.666,0,0,1,2.956-10.641c1.553-4.729,3.159-9.619,3.27-13.931.118-4.6-2.5-9.649-4.608-13.7-.7-1.357-1.37-2.639-1.889-3.806a79.9,79.9,0,0,1-3.35-8.989c-1.547-5.238-1.057-6.691-.457-7.372,1.261-1.429,4.061-2.394,7.027-3.415,2.735-.942,5.565-1.917,7.264-3.252,2.249-1.767,2.99-5.065,3.232-6.872a2.9,2.9,0,0,1,2.868-2.494h10.586a2.9,2.9,0,0,1,2.868,2.494c.241,1.807.982,5.1,3.231,6.872,1.679,1.319,4.463,2.267,7.155,3.185,3,1.023,5.84,1.989,7.139,3.487.594.685,1.078,2.142-.465,7.372a79.8,79.8,0,0,1-3.346,8.984c-.52,1.168-1.185,2.45-1.89,3.806-2.1,4.054-4.725,9.1-4.607,13.7.11,4.312,1.717,9.2,3.27,13.931a77.7,77.7,0,0,1,2.956,10.641c.532,3.093-.177,7.456-.647,9.782A2.746,2.746,0,0,1,937.546,1449.023Zm-23.569-84.834a1.268,1.268,0,0,0-1.261,1.088c-.335,2.506-1.273,5.917-3.837,7.932-1.914,1.5-4.875,2.524-7.737,3.511-2.636.907-5.361,1.846-6.338,2.954-.028.032-.68.848.795,5.841a78.271,78.271,0,0,0,3.278,8.79c.5,1.122,1.154,2.383,1.847,3.718,2.191,4.219,4.918,9.471,4.789,14.491-.117,4.551-1.761,9.555-3.351,14.4a76.452,76.452,0,0,0-2.9,10.41c-.488,2.833.191,6.971.639,9.186a1.121,1.121,0,0,0,1.093.9h36.552a1.121,1.121,0,0,0,1.093-.9c.448-2.215,1.126-6.353.639-9.186a76.724,76.724,0,0,0-2.9-10.41c-1.591-4.84-3.234-9.845-3.351-14.4-.129-5.021,2.6-10.272,4.79-14.491.693-1.335,1.348-2.6,1.847-3.718a77.875,77.875,0,0,0,3.272-8.785c1.473-4.993.824-5.818.8-5.85-1.012-1.167-3.771-2.107-6.438-3.015-2.82-.961-5.737-1.955-7.633-3.445-2.565-2.015-3.5-5.425-3.837-7.932a1.268,1.268,0,0,0-1.261-1.088Z" transform="translate(-893.01 -1362.568)" fill="#665059"/><g transform="translate(13.737 9.764)"><path d="M922.934,1383.453l-.058,0a12.838,12.838,0,0,1-4.436-1.169.811.811,0,0,1,.675-1.474,11.238,11.238,0,0,0,3.877,1.026.811.811,0,0,1-.057,1.619Zm4.259-.542a.811.811,0,0,1-.251-1.582,14.443,14.443,0,0,0,3.641-1.837.81.81,0,0,1,.914,1.339,16.039,16.039,0,0,1-4.053,2.04A.806.806,0,0,1,927.193,1382.911Zm-12.069-2.847a.809.809,0,0,1-.5-.177,28.788,28.788,0,0,1-3.232-3.05.81.81,0,1,1,1.194-1.1,27.286,27.286,0,0,0,3.049,2.878.811.811,0,0,1-.506,1.445Zm19.227-1.861a.811.811,0,0,1-.57-1.387c.343-.339.69-.7,1.034-1.075a.811.811,0,1,1,1.194,1.1c-.361.393-.727.773-1.088,1.13A.808.808,0,0,1,934.35,1378.2Z" transform="translate(-911.174 -1375.479)" fill="#665059"/></g><g transform="translate(6.905 12.626)"><path d="M903.249,1402.5a.811.811,0,0,1-.811-.8l-.06-4.323a.811.811,0,0,1,1.621-.023l.06,4.323a.811.811,0,0,1-.8.822Zm-.12-8.646a.811.811,0,0,1-.811-.8l-.06-4.322a.811.811,0,0,1,.8-.822h.011a.811.811,0,0,1,.811.8l.06,4.323a.81.81,0,0,1-.8.821Zm-.119-8.645a.81.81,0,0,1-.811-.8l-.06-4.323a.81.81,0,0,1,.8-.821h.011a.812.812,0,0,1,.811.8l.06,4.323a.811.811,0,0,1-.8.822Z" transform="translate(-902.14 -1379.263)" fill="#665059"/></g><g transform="translate(43.778 12.626)"><path d="M951.709,1402.5H951.7a.811.811,0,0,1-.8-.821l.054-4.322a.81.81,0,1,1,1.621.02l-.053,4.323A.81.81,0,0,1,951.709,1402.5Zm.106-8.645H951.8a.81.81,0,0,1-.8-.821l.053-4.323a.81.81,0,0,1,.81-.8h.011a.811.811,0,0,1,.8.821l-.053,4.323A.811.811,0,0,1,951.815,1393.853Zm.106-8.646h-.011a.81.81,0,0,1-.8-.821l.053-4.323a.811.811,0,0,1,.81-.8h.011a.81.81,0,0,1,.8.82l-.053,4.323A.81.81,0,0,1,951.921,1385.207Z" transform="translate(-950.898 -1379.263)" fill="#665059"/></g><g transform="translate(10.88 49.115)"><path d="M937.167,1429.134h-3.021a.811.811,0,1,1,0-1.622h3.021a.811.811,0,0,1,0,1.622Zm-7.344,0H925.5a.811.811,0,0,1,0-1.622h4.323a.811.811,0,0,1,0,1.622Zm-8.646,0h-4.323a.811.811,0,1,1,0-1.622h4.323a.811.811,0,1,1,0,1.622Zm-8.646,0h-4.323a.811.811,0,0,1,0-1.622h4.323a.811.811,0,0,1,0,1.622Z" transform="translate(-907.397 -1427.512)" fill="#665059"/></g></g></g><g transform="translate(586.818 1315.716)"><g transform="translate(16.974 17.022)"><circle cx="48.634" cy="48.634" r="48.634" fill="#ff9696"/></g><g transform="translate(38.145)"><path d="M638.068,1323.049a.811.811,0,0,1-.334-1.549,65.447,65.447,0,0,1,6.111-2.4.81.81,0,1,1,.515,1.537,63.849,63.849,0,0,0-5.958,2.337A.8.8,0,0,1,638.068,1323.049Zm44.357-3.266a.829.829,0,0,1-.221-.031,63.705,63.705,0,0,0-6.238-1.432.811.811,0,1,1,.283-1.6,65.522,65.522,0,0,1,6.4,1.468.811.811,0,0,1-.221,1.591Zm-32.081-.848a.811.811,0,0,1-.179-1.6c2.124-.481,4.3-.859,6.467-1.125a.81.81,0,0,1,.2,1.609,63.945,63.945,0,0,0-6.306,1.1A.805.805,0,0,1,650.344,1318.935Zm19.335-1.412-.062,0c-2.114-.16-4.266-.216-6.4-.167a.811.811,0,0,1-.037-1.621c2.189-.051,4.394.008,6.56.171a.811.811,0,0,1-.06,1.619Z" transform="translate(-637.257 -1315.716)" fill="#665059"/></g><g transform="translate(118.455 28.424)"><path d="M755.15,1385.1a.811.811,0,0,1-.806-.734c-.2-2.12-.514-4.251-.926-6.334a.81.81,0,1,1,1.59-.314c.423,2.136.743,4.321.95,6.494a.81.81,0,0,1-.73.884C755.2,1385.1,755.176,1385.1,755.15,1385.1Zm-2.514-12.7a.811.811,0,0,1-.775-.574,63.449,63.449,0,0,0-2.173-6.02.811.811,0,0,1,1.5-.627c.842,2.012,1.593,4.089,2.229,6.173a.811.811,0,0,1-.776,1.048Zm-5-11.941a.811.811,0,0,1-.713-.424c-1.013-1.867-2.134-3.707-3.331-5.466a.81.81,0,1,1,1.34-.911c1.227,1.8,2.376,3.69,3.415,5.6a.811.811,0,0,1-.712,1.2Z" transform="translate(-743.45 -1353.3)" fill="#665059"/></g><g transform="translate(44.318 125.112)"><path d="M665.33,1487.335h-.017c-2.185-.045-4.387-.2-6.545-.461a.811.811,0,1,1,.194-1.609c2.105.254,4.253.405,6.385.45a.81.81,0,0,1-.017,1.621Zm6.478-.183a.811.811,0,0,1-.062-1.619c2.124-.165,4.259-.439,6.349-.814a.811.811,0,1,1,.287,1.6c-2.142.384-4.333.665-6.51.835Zm-19.332-1.37a.8.8,0,0,1-.178-.02,65.6,65.6,0,0,1-6.324-1.755.81.81,0,1,1,.511-1.538,63.83,63.83,0,0,0,6.167,1.711.811.811,0,0,1-.177,1.6Zm32.075-.919a.81.81,0,0,1-.222-1.59,63.811,63.811,0,0,0,6.058-2.065.811.811,0,1,1,.6,1.506,65.484,65.484,0,0,1-6.213,2.118A.817.817,0,0,1,684.552,1484.863Z" transform="translate(-645.42 -1481.15)" fill="#665059"/></g><g transform="translate(0 43.281)"><path d="M605.465,1440.848a.808.808,0,0,1-.587-.252c-1.5-1.579-2.946-3.251-4.284-4.971a.81.81,0,1,1,1.279-1c1.306,1.677,2.712,3.308,4.179,4.848a.811.811,0,0,1-.587,1.37Zm-7.954-10.216a.81.81,0,0,1-.687-.379c-1.162-1.846-2.244-3.771-3.215-5.722a.811.811,0,0,1,1.452-.722c.946,1.9,2,3.78,3.135,5.58a.811.811,0,0,1-.685,1.242Zm-5.768-11.592a.812.812,0,0,1-.759-.524c-.77-2.04-1.445-4.142-2.007-6.249a.811.811,0,1,1,1.567-.417,63.765,63.765,0,0,0,1.957,6.093.811.811,0,0,1-.759,1.1Zm-3.334-12.51a.811.811,0,0,1-.8-.682c-.346-2.148-.588-4.342-.719-6.522a.81.81,0,1,1,1.618-.1c.129,2.127.365,4.267.7,6.362a.811.811,0,0,1-.671.93A.843.843,0,0,1,588.409,1406.53Zm-.78-12.926H587.6a.812.812,0,0,1-.779-.841c.084-2.183.278-4.383.576-6.536a.81.81,0,0,1,1.606.222c-.291,2.1-.48,4.246-.562,6.376A.811.811,0,0,1,587.63,1393.6Zm1.78-12.823a.844.844,0,0,1-.192-.023.812.812,0,0,1-.6-.98,65.573,65.573,0,0,1,1.867-6.291.811.811,0,1,1,1.529.538,64,64,0,0,0-1.821,6.136A.811.811,0,0,1,589.409,1380.781Z" transform="translate(-586.818 -1372.946)" fill="#665059"/></g><g transform="translate(57.597 62.544)"><path d="M694.074,1455.926H664.05v-56.437H732.31v56.437H694.074Z" transform="translate(-663.239 -1398.679)" fill="#fff"/><path d="M732.048,1456.475h-68.26a.811.811,0,0,1-.811-.811v-56.437a.811.811,0,0,1,.811-.811h68.26a.811.811,0,0,1,.811.811v56.437A.811.811,0,0,1,732.048,1456.475Zm-67.449-1.621h66.638v-54.815H664.6Z" transform="translate(-662.978 -1398.417)" fill="#665059"/><g transform="translate(28.635 6.03)"><g transform="translate(0 35.589)"><path d="M706.4,1454.522c-.085.1-4.651,9.529-4.479,9.433,0,0,9.141-4.592,9.239-4.677Z" transform="translate(-701.103 -1453.712)" fill="#fff"/><path d="M701.657,1464.5a.816.816,0,0,1-.632-.3c-.327-.4-.159-.783.054-1.267.112-.255.279-.62.5-1.087.475-1.02,1.094-2.317,1.529-3.224,2.262-4.716,2.357-4.826,2.419-4.9a.811.811,0,0,1,1.186-.042l4.76,4.755a.81.81,0,0,1-.041,1.185c-.1.088-.175.152-9.406,4.789A.807.807,0,0,1,701.657,1464.5Zm4.7-8.876c-.73,1.49-2.123,4.374-3.041,6.323,2.335-1.175,4.882-2.46,6.223-3.144Z" transform="translate(-700.842 -1453.45)" fill="#665059"/></g><g transform="translate(34.757)"><path d="M757.688,1411.48l-3.893-3.89c-.243-.242-.743-.135-1.117.24l-4.806,4.824,4.773,4.768,4.807-4.825C757.826,1412.222,757.932,1411.722,757.688,1411.48Z" transform="translate(-747.062 -1406.652)" fill="#fff"/><path d="M752.384,1417.972a.81.81,0,0,1-.572-.237l-4.773-4.768a.812.812,0,0,1,0-1.146l4.806-4.823a1.61,1.61,0,0,1,2.263-.242l3.894,3.89a1.337,1.337,0,0,1,.333,1.251,2.066,2.066,0,0,1-.569,1.013l-4.806,4.824a.812.812,0,0,1-.573.239Zm-3.627-5.58,3.626,3.623,4.234-4.249a.624.624,0,0,0,.093-.117l-3.6-3.6a.613.613,0,0,0-.116.092Zm8.1-.6h0Z" transform="translate(-746.801 -1406.391)" fill="#665059"/></g><g transform="translate(4.485 5.191)"><path d="M707.844,1444.725l4.76,4.756c.034-.03,30.284-30.385,30.284-30.385l-4.773-4.768S707.873,1444.691,707.844,1444.725Z" transform="translate(-707.033 -1413.516)" fill="#ffad54"/><path d="M712.343,1450.03a.811.811,0,0,1-.573-.237l-4.76-4.755a.81.81,0,0,1-.04-1.1c.026-.03.048-.055,30.311-30.44a.812.812,0,0,1,.573-.238h0a.812.812,0,0,1,.573.237l4.773,4.769a.811.811,0,0,1,0,1.146c-30.272,30.375-30.3,30.4-30.327,30.424A.811.811,0,0,1,712.343,1450.03Zm-3.615-5.568,3.614,3.611c3.789-3.8,25.336-25.421,29.14-29.237l-3.626-3.623C734.049,1419.035,712.508,1440.663,708.728,1444.462Z" transform="translate(-706.772 -1413.255)" fill="#665059"/></g></g><g transform="translate(66.085 8.738)"><line x2="4.765" y2="4.759" transform="translate(0.81 0.811)" fill="#fff"/><path d="M755.938,1416.351a.807.807,0,0,1-.572-.237l-4.765-4.759a.81.81,0,1,1,1.145-1.147l4.765,4.759a.81.81,0,0,1-.573,1.384Z" transform="translate(-750.362 -1409.971)" fill="#665059"/></g></g><g transform="translate(9.346 10.796)"><g transform="translate(0 11.875)"><path d="M624.452,1418.626h12.832a1.631,1.631,0,0,0,1.6-1.311,25.266,25.266,0,0,0,.544-8.033c-1.168-6.786-5.117-14.405-5.284-20.913-.138-5.379,3.782-11.124,5.562-15.129s4.582-11.689,3.337-13.125c-1.905-2.2-8.9-3.115-12.014-5.562-2.06-1.618-2.757-4.5-2.993-6.27a1.758,1.758,0,0,0-1.749-1.516H617.32a1.758,1.758,0,0,0-1.749,1.516c-.236,1.767-.933,4.652-2.993,6.27-3.115,2.447-10.15,3.448-12.014,5.562-1.257,1.426,1.557,9.121,3.337,13.125s5.7,9.75,5.562,15.129c-.167,6.508-4.116,14.127-5.284,20.913a25.272,25.272,0,0,0,.545,8.033,1.631,1.631,0,0,0,1.6,1.311h18.131Z" transform="translate(-599.438 -1345.954)" fill="#fff"/><path d="M637.022,1419.175H606.06a2.452,2.452,0,0,1-2.393-1.961,26.017,26.017,0,0,1-.549-8.332,65.861,65.861,0,0,1,2.508-9.031c1.313-4,2.67-8.13,2.764-11.765.1-3.867-2.112-8.125-3.89-11.547-.6-1.151-1.162-2.239-1.6-3.231a67.971,67.971,0,0,1-2.844-7.63c-1.327-4.494-.89-5.761-.36-6.362,1.089-1.236,3.477-2.058,6-2.928a22.791,22.791,0,0,0,6.117-2.735c1.871-1.469,2.49-4.227,2.692-5.74a2.576,2.576,0,0,1,2.552-2.22h8.966a2.576,2.576,0,0,1,2.552,2.22c.2,1.513.82,4.271,2.691,5.74a22.151,22.151,0,0,0,6.024,2.678c2.561.873,4.979,1.7,6.1,2.991.523.6.955,1.873-.369,6.36a67.532,67.532,0,0,1-2.84,7.626c-.441.992-1.006,2.08-1.6,3.231-1.777,3.422-3.989,7.681-3.889,11.547.094,3.635,1.451,7.768,2.764,11.765a65.87,65.87,0,0,1,2.508,9.031,26.019,26.019,0,0,1-.549,8.332A2.451,2.451,0,0,1,637.022,1419.175Zm-19.964-71.861a.95.95,0,0,0-.945.813c-.287,2.146-1.092,5.068-3.3,6.8-1.639,1.287-4.156,2.155-6.591,2.993-2.217.763-4.51,1.553-5.316,2.468,0,.005-.518.737.719,4.9a66.343,66.343,0,0,0,2.75,7.363c.421.948.975,2.014,1.561,3.143,1.863,3.587,4.181,8.05,4.07,12.335-.1,3.873-1.494,8.121-2.844,12.229a64.873,64.873,0,0,0-2.451,8.8,24.536,24.536,0,0,0,.541,7.735.825.825,0,0,0,.8.661h30.963a.824.824,0,0,0,.8-.661,24.536,24.536,0,0,0,.541-7.735,64.908,64.908,0,0,0-2.451-8.8c-1.35-4.108-2.745-8.357-2.845-12.229-.11-4.285,2.208-8.749,4.071-12.335.586-1.129,1.14-2.2,1.561-3.143a66.065,66.065,0,0,0,2.748-7.366c1.235-4.161.721-4.895.716-4.9-.834-.962-3.154-1.752-5.4-2.517-2.4-.817-4.88-1.662-6.5-2.937-2.205-1.733-3.01-4.654-3.3-6.8a.95.95,0,0,0-.945-.813Z" transform="translate(-599.177 -1345.693)" fill="#665059"/></g><g transform="translate(9.144 54.647)"><path d="M637.159,1403.321h-24.82" transform="translate(-611.528 -1402.511)" fill="#fff"/><path d="M636.9,1403.871h-24.82a.81.81,0,1,1,0-1.621H636.9a.81.81,0,1,1,0,1.621Z" transform="translate(-611.267 -1402.25)" fill="#665059"/></g><g transform="translate(21.552 7.635)"><line y1="4.213" transform="translate(0.811 0.81)" fill="#fff"/><path d="M628.485,1345.92a.811.811,0,0,1-.811-.811V1340.9a.811.811,0,0,1,1.621,0v4.212A.811.811,0,0,1,628.485,1345.92Z" transform="translate(-627.674 -1340.086)" fill="#665059"/></g><g transform="translate(21.552 83.708)"><line y1="27.059" transform="translate(0.811 0.811)" fill="#fff"/><path d="M628.485,1469.358a.811.811,0,0,1-.811-.811v-27.059a.811.811,0,0,1,1.621,0v27.059A.811.811,0,0,1,628.485,1469.358Z" transform="translate(-627.674 -1440.677)" fill="#665059"/></g><g transform="translate(19.049)"><rect width="5.006" height="7.634" rx="2.503" transform="translate(0.81 0.811)" fill="#fff"/><path d="M629.6,1339.247h-3.845a1.393,1.393,0,0,1-1.391-1.392v-6.474a1.392,1.392,0,0,1,1.391-1.391H629.6a1.393,1.393,0,0,1,1.392,1.391v6.474A1.394,1.394,0,0,1,629.6,1339.247Zm-3.614-1.621h3.384v-6.013h-3.384Z" transform="translate(-624.365 -1329.991)" fill="#665059"/></g></g><g transform="translate(56.682 3.642)"><g transform="translate(2.832 33.6)"><g transform="translate(0.46 1.522)"><path d="M666.932,1378.031a.81.81,0,0,1-.709-1.2,5.222,5.222,0,0,1,3.9-2.537c3.759-.669,43.121-7.239,43.518-7.3a.81.81,0,1,1,.267,1.6c-.4.067-39.75,6.635-43.5,7.3a3.639,3.639,0,0,0-2.767,1.726A.809.809,0,0,1,666.932,1378.031Z" transform="translate(-666.121 -1366.974)" fill="#665059"/></g><g transform="translate(4.432 12.141)"><path d="M672.183,1386.256a.811.811,0,0,1-.076-1.618l38.048-3.619a.811.811,0,1,1,.153,1.614l-38.048,3.619A.665.665,0,0,1,672.183,1386.256Z" transform="translate(-671.374 -1381.016)" fill="#665059"/></g><g transform="translate(47.706 5.387)"><line x2="3.731" y2="3.88" transform="translate(0.811 0.81)" fill="#fff"/><path d="M733.137,1377.586a.81.81,0,0,1-.585-.249l-3.73-3.88a.81.81,0,1,1,1.168-1.123l3.731,3.88a.811.811,0,0,1-.584,1.373Z" transform="translate(-728.595 -1372.085)" fill="#665059"/></g><g transform="translate(41.595 2.339)"><path d="M725.026,1372.314l-1.254,4.734a.145.145,0,0,1-.281,0l-1.906-7.917" transform="translate(-720.775 -1368.316)" fill="#fff"/><path d="M723.371,1377.7h-.012a.957.957,0,0,1-.914-.719l-1.908-7.928a.811.811,0,1,1,1.576-.38l1.289,5.357.579-2.187a.811.811,0,0,1,1.567.415l-1.254,4.733A.962.962,0,0,1,723.371,1377.7Z" transform="translate(-720.514 -1368.054)" fill="#665059"/></g><g transform="translate(0 8.988)"><circle cx="3.459" cy="3.459" r="3.459" transform="matrix(1, -0.008, 0.008, 1, 0.785, 0.837)" fill="#99f8ff"/><path d="M669.775,1385.386a4.269,4.269,0,1,1,4.258-4.678h0a4.268,4.268,0,0,1-3.842,4.658Q669.983,1385.386,669.775,1385.386Zm.01-6.918c-.085,0-.169,0-.256.012a2.648,2.648,0,1,0,2.89,2.383h0A2.652,2.652,0,0,0,669.785,1378.468Z" transform="translate(-665.514 -1376.847)" fill="#665059"/></g><g transform="translate(41.549)"><path d="M733.521,1370.356l-7.4,1.069a2.584,2.584,0,0,1-2.04-.583c-.643-.542-1.44-1.217-1.7-1.448a2.88,2.88,0,0,1-.852-1.43.366.366,0,0,1,.3-.455c1.69-.234,8.622-1.2,10.353-1.449,1.976-.286,4.5,1.82,5.085,5.871s-1.472,5.508-4.281,5.965c-2.425.394-8.237,1.279-9.7,1.5a.365.365,0,0,1-.415-.31l-.309-2.138a.365.365,0,0,1,.309-.414l9.418-1.362C734.574,1374.844,733.521,1370.356,733.521,1370.356Z" transform="translate(-720.714 -1365.223)" fill="#99f8ff"/><path d="M722.978,1379.95a1.176,1.176,0,0,1-1.159-1.009l-.309-2.138a1.178,1.178,0,0,1,1-1.333l9.418-1.362a.6.6,0,0,0,.443-.278,4.783,4.783,0,0,0,.236-2.822l-6.622.958a3.4,3.4,0,0,1-2.68-.765c-.635-.536-1.448-1.224-1.717-1.466a3.674,3.674,0,0,1-1.1-1.834,1.177,1.177,0,0,1,.979-1.457c2-.278,8.664-1.205,10.349-1.449a4.439,4.439,0,0,1,3.766,1.553,8.915,8.915,0,0,1,2.237,5.005c.569,3.939-1.1,6.254-4.953,6.88-1.591.259-4.838.762-9.651,1.494l-.058.009A1.181,1.181,0,0,1,722.978,1379.95Zm.2-2.939.181,1.255c4.595-.7,7.7-1.181,9.248-1.432,2.971-.483,4.051-1.993,3.609-5.048a7.543,7.543,0,0,0-1.805-4.119,2.909,2.909,0,0,0-2.362-1.066c-1.556.224-7.345,1.031-9.808,1.373a1.952,1.952,0,0,0,.429.556c.2.177.793.686,1.677,1.432a1.78,1.78,0,0,0,1.4.4l7.4-1.069a.812.812,0,0,1,.905.617c.077.331.724,3.269-.343,4.834a2.216,2.216,0,0,1-1.551.97Z" transform="translate(-720.453 -1364.962)" fill="#665059"/></g></g><g transform="translate(0)"><g transform="translate(0.276)"><path d="M705.651,1320.815c-1.773.985-3.561,1.938-5.357,2.875q-1.344.708-2.7,1.4t-2.706,1.379q-5.418,2.744-10.893,5.366c-3.651,1.745-7.318,3.458-10.985,5.168l-5.486,2.593-1.358.654a6.133,6.133,0,0,0-1.134.717,3.629,3.629,0,0,0-1.333,2.061.794.794,0,1,1-1.55-.343v0a5.073,5.073,0,0,1,.7-1.651,5.465,5.465,0,0,1,.548-.7,6,6,0,0,1,.64-.595,7.68,7.68,0,0,1,1.426-.9l1.371-.674,5.471-2.642q5.464-2.651,10.957-5.239,5.5-2.565,11.061-5.015,1.387-.616,2.784-1.214t2.793-1.194c1.865-.79,3.738-1.566,5.624-2.308a.151.151,0,0,1,.129.272Z" transform="translate(-662.133 -1320.532)" fill="#665059"/></g><g transform="translate(5.072 21.58)"><path d="M669.285,1354.675a.811.811,0,0,1-.084-1.617l37.94-3.987a.811.811,0,1,1,.169,1.612l-37.94,3.987A.848.848,0,0,1,669.285,1354.675Z" transform="translate(-668.475 -1349.067)" fill="#665059"/></g><g transform="translate(48.238 14.825)"><line x2="3.731" y2="3.88" transform="translate(0.81 0.811)" fill="#fff"/><path d="M730.1,1345.636a.807.807,0,0,1-.585-.249l-3.731-3.88a.811.811,0,0,1,1.168-1.124l3.731,3.88a.81.81,0,0,1-.584,1.372Z" transform="translate(-725.554 -1340.135)" fill="#665059"/></g><g transform="translate(42.126 11.777)"><path d="M721.984,1340.364l-1.254,4.733a.145.145,0,0,1-.281,0l-1.906-7.917" transform="translate(-717.733 -1336.366)" fill="#fff"/><path d="M720.329,1345.753h-.011a.956.956,0,0,1-.914-.719l-1.909-7.929a.81.81,0,0,1,1.576-.379l1.289,5.357.579-2.187a.811.811,0,1,1,1.567.415l-1.254,4.734A.96.96,0,0,1,720.329,1345.753Z" transform="translate(-717.472 -1336.105)" fill="#665059"/></g><g transform="translate(0 17.894)"><circle cx="3.843" cy="3.843" r="3.843" transform="translate(0 7.348) rotate(-72.936)" fill="#99f8ff"/><path d="M666.61,1353.7a4.654,4.654,0,1,1,4.64-5.1h0a4.658,4.658,0,0,1-4.187,5.078Q666.836,1353.7,666.61,1353.7Zm.011-7.687q-.145,0-.293.014a3.033,3.033,0,1,0,3.309,2.729h0A3.037,3.037,0,0,0,666.62,1346.01Z" transform="translate(-661.816 -1344.241)" fill="#665059"/></g><g transform="translate(42.081 9.439)"><path d="M730.479,1338.407l-7.395,1.069a2.591,2.591,0,0,1-2.041-.583c-.642-.542-1.44-1.218-1.7-1.448a2.868,2.868,0,0,1-.851-1.43.366.366,0,0,1,.3-.455c1.69-.235,8.622-1.2,10.353-1.449,1.976-.286,4.5,1.82,5.085,5.871s-1.472,5.508-4.281,5.965c-2.424.394-8.237,1.278-9.7,1.5a.364.364,0,0,1-.414-.31l-.309-2.138a.366.366,0,0,1,.31-.415l9.418-1.362C731.532,1342.894,730.479,1338.407,730.479,1338.407Z" transform="translate(-717.673 -1333.274)" fill="#99f8ff"/><path d="M719.937,1348a1.174,1.174,0,0,1-1.159-1.009l-.309-2.137a1.179,1.179,0,0,1,1-1.333l9.418-1.362a.6.6,0,0,0,.443-.277,4.784,4.784,0,0,0,.237-2.822l-6.623.958a3.4,3.4,0,0,1-2.679-.766c-.927-.781-1.5-1.274-1.716-1.465a3.674,3.674,0,0,1-1.1-1.834,1.177,1.177,0,0,1,.978-1.457c2-.278,8.665-1.2,10.349-1.448a4.439,4.439,0,0,1,3.766,1.552,8.911,8.911,0,0,1,2.237,5.005c.569,3.939-1.1,6.254-4.953,6.881-1.576.256-4.808.756-9.606,1.487l-.1.015A1.2,1.2,0,0,1,719.937,1348Zm.2-2.939.181,1.255c4.6-.7,7.714-1.183,9.247-1.432,2.972-.483,4.051-1.993,3.609-5.049a7.544,7.544,0,0,0-1.805-4.118,2.907,2.907,0,0,0-2.361-1.066c-1.556.225-7.345,1.031-9.809,1.373a1.965,1.965,0,0,0,.429.557c.138.123.54.472,1.677,1.432a1.78,1.78,0,0,0,1.4.4l7.4-1.069a.811.811,0,0,1,.905.617c.077.33.725,3.268-.342,4.833a2.218,2.218,0,0,1-1.551.97Z" transform="translate(-717.412 -1333.013)" fill="#665059"/></g></g></g></g></g></svg>