<svg xmlns="http://www.w3.org/2000/svg" width="292" height="329" viewBox="0 0 292 329">
  <g id="Grupo_61024" data-name="Grupo 61024" transform="translate(-1870.489 -2929.133)">
    <rect id="Rectángulo_7597" data-name="Rectángulo 7597" width="292" height="329" rx="9" transform="translate(1870.489 2929.132)" fill="#fff"/>
    <g id="Grupo_61028" data-name="Grupo 61028">
      <path id="Trazado_116947" data-name="Trazado 116947" d="M2032.34,3021.03a48.2,48.2,0,0,0-1.6-7.161c-1.381-4.188-3.826-8-4.83-12.3a93.831,93.831,0,0,0-43.411-23.1,13.325,13.325,0,0,0-4.6-.412,18.387,18.387,0,0,0-4.187,1.381,33.124,33.124,0,0,1-21.8.825c-4.447-1.379-7.614-3.284-11.8-1.252l-7.329,3.555c-9.86,4.783-19.737,9.574-30,13.418-5.169,1.936-10.85,3.956-13.719,8.673-4.747,7.8-5.209,17.972-4.552,27.083s2.765,18.05,4,27.1c2.087,15.269,1.683,30.767.754,46.15a157.019,157.019,0,0,0-.483,16.17,140.678,140.678,0,0,0,2.032,16.563q4.863,29.811,9.724,59.623c.207,1.27,1.236,2.951,2.313,2.246a8.065,8.065,0,0,0-2.585,6.2c3.056.77,6.249,1.611,8.57,3.743,1.711,1.573,2.828,3.751,4.7,5.125a13.9,13.9,0,0,0,5.675,2.051c25.491,4.973,51.779,2.233,77.6-.523a43.791,43.791,0,0,0,9.226-1.658c8.368-2.78,15.008-10.543,23.816-10.936,4.172-8.315,4.772-19.242,5.893-28.477,1.78-14.649,2.2-29.427,2.446-44.182C2038.821,3094.2,2038.406,3057.266,2032.34,3021.03Zm-26.349,64.446a124.477,124.477,0,0,1-2.654,12.794c-.342-1.338-1.535-2.247-2.434-3.295a12.645,12.645,0,0,1-2.615-6.277,22.718,22.718,0,0,1,.864-10.645c.809-2.484,2.837-7.734,5.457-8.681C2007.611,3073.768,2006.745,3080.543,2005.991,3085.476Zm7.828,57.451c-2.719-.306-4.147-3.487-4.184-6.223-.035-2.644.692-5.326.163-7.9a.463.463,0,0,0-.055.034l-.047,1.886c-.674-.357-.553-1.434.047-1.886l.007-.306c.022.09.03.181.048.272a1.058,1.058,0,0,1,.162-.1,1.938,1.938,0,0,1,2.2.838,5.658,5.658,0,0,1,.756,2.408A51.275,51.275,0,0,1,2013.819,3142.927Z" fill="#e1dbdd"/>
      <g id="Grupo_61024-2" data-name="Grupo 61024">
        <path id="Trazado_116948" data-name="Trazado 116948" d="M2029.508,2949.873h1.238v8.554h4.1v1.039h-5.338Z" fill="#3a3a3a"/>
        <path id="Trazado_116949" data-name="Trazado 116949" d="M2039.993,2959.466l-.1-.868h-.044a2.563,2.563,0,0,1-2.1,1.024,1.963,1.963,0,0,1-2.107-1.978c0-1.665,1.48-2.576,4.141-2.562v-.142a1.421,1.421,0,0,0-1.566-1.594,3.427,3.427,0,0,0-1.792.513l-.285-.826a4.278,4.278,0,0,1,2.264-.612c2.1,0,2.617,1.438,2.617,2.818v2.576a9.737,9.737,0,0,0,.115,1.651Zm-.184-3.516c-1.368-.028-2.919.214-2.919,1.552a1.108,1.108,0,0,0,1.182,1.2,1.716,1.716,0,0,0,1.665-1.152,1.333,1.333,0,0,0,.072-.4Z" fill="#3a3a3a"/>
        <path id="Trazado_116950" data-name="Trazado 116950" d="M2046.05,2954.826c0-.882-.028-1.594-.056-2.248h1.123l.058,1.181h.028a2.705,2.705,0,0,1,2.448-1.338c1.665,0,2.917,1.409,2.917,3.5,0,2.476-1.508,3.7-3.131,3.7a2.411,2.411,0,0,1-2.119-1.081h-.03v3.743h-1.238Zm1.238,1.836a2.973,2.973,0,0,0,.057.513,1.934,1.934,0,0,0,1.88,1.465c1.323,0,2.091-1.081,2.091-2.661,0-1.381-.726-2.562-2.05-2.562a2,2,0,0,0-1.893,1.551,2.07,2.07,0,0,0-.085.513Z" fill="#3a3a3a"/>
        <path id="Trazado_116951" data-name="Trazado 116951" d="M2057.958,2959.466l-.1-.868h-.044a2.563,2.563,0,0,1-2.1,1.024,1.964,1.964,0,0,1-2.108-1.978c0-1.665,1.48-2.576,4.142-2.562v-.142a1.42,1.42,0,0,0-1.566-1.594,3.425,3.425,0,0,0-1.792.513l-.286-.826a4.28,4.28,0,0,1,2.264-.612c2.106,0,2.618,1.438,2.618,2.818v2.576a9.737,9.737,0,0,0,.115,1.651Zm-.185-3.516c-1.367-.028-2.919.214-2.919,1.552a1.109,1.109,0,0,0,1.183,1.2,1.717,1.717,0,0,0,1.665-1.152,1.331,1.331,0,0,0,.071-.4Z" fill="#3a3a3a"/>
        <path id="Trazado_116952" data-name="Trazado 116952" d="M2061,2954.727c0-.812-.014-1.509-.058-2.149h1.1l.043,1.351h.058a2.065,2.065,0,0,1,1.907-1.508,1.324,1.324,0,0,1,.355.043v1.181a1.9,1.9,0,0,0-.426-.043,1.759,1.759,0,0,0-1.681,1.608,3.607,3.607,0,0,0-.056.584v3.672H2061Z" fill="#3a3a3a"/>
        <path id="Trazado_116953" data-name="Trazado 116953" d="M2067.5,2950.6v1.979h1.794v.953H2067.5v3.714c0,.854.242,1.339.938,1.339a2.778,2.778,0,0,0,.727-.086l.057.939a3.06,3.06,0,0,1-1.111.171,1.736,1.736,0,0,1-1.351-.526,2.553,2.553,0,0,1-.485-1.794v-3.757h-1.067v-.953h1.067v-1.651Z" fill="#3a3a3a"/>
        <path id="Trazado_116954" data-name="Trazado 116954" d="M2071.313,2956.249a2.205,2.205,0,0,0,2.361,2.391,4.525,4.525,0,0,0,1.907-.356l.214.9a5.579,5.579,0,0,1-2.291.427,3.2,3.2,0,0,1-3.388-3.472c0-2.079,1.225-3.715,3.231-3.715,2.248,0,2.847,1.979,2.847,3.245a4.705,4.705,0,0,1-.043.583Zm3.671-.9a1.784,1.784,0,0,0-1.736-2.036,2.077,2.077,0,0,0-1.921,2.036Z" fill="#3a3a3a"/>
        <path id="Trazado_116955" data-name="Trazado 116955" d="M2084.57,2959.466l-.1-.868h-.043a2.565,2.565,0,0,1-2.106,1.024,1.963,1.963,0,0,1-2.107-1.978c0-1.665,1.48-2.576,4.141-2.562v-.142a1.42,1.42,0,0,0-1.566-1.594,3.42,3.42,0,0,0-1.791.513l-.286-.826a4.278,4.278,0,0,1,2.264-.612c2.1,0,2.617,1.438,2.617,2.818v2.576a9.737,9.737,0,0,0,.115,1.651Zm-.184-3.516c-1.367-.028-2.919.214-2.919,1.552a1.109,1.109,0,0,0,1.183,1.2,1.715,1.715,0,0,0,1.664-1.152,1.333,1.333,0,0,0,.072-.4Z" fill="#3a3a3a"/>
        <path id="Trazado_116956" data-name="Trazado 116956" d="M2087.612,2949.361h1.253v10.1h-1.253Z" fill="#3a3a3a"/>
        <path id="Trazado_116957" data-name="Trazado 116957" d="M2092.478,2950.6v1.979h1.792v.953h-1.792v3.714c0,.854.24,1.339.939,1.339a2.777,2.777,0,0,0,.726-.086l.056.939a3.05,3.05,0,0,1-1.11.171,1.734,1.734,0,0,1-1.351-.526,2.549,2.549,0,0,1-.484-1.794v-3.757h-1.068v-.953h1.068v-1.651Z" fill="#3a3a3a"/>
        <path id="Trazado_116958" data-name="Trazado 116958" d="M2099.491,2959.466l-.1-.868h-.042a2.57,2.57,0,0,1-2.107,1.024,1.962,1.962,0,0,1-2.106-1.978c0-1.665,1.481-2.576,4.142-2.562v-.142a1.421,1.421,0,0,0-1.566-1.594,3.427,3.427,0,0,0-1.794.513l-.284-.826a4.279,4.279,0,0,1,2.263-.612c2.107,0,2.619,1.438,2.619,2.818v2.576a9.752,9.752,0,0,0,.113,1.651Zm-.185-3.516c-1.365-.028-2.917.214-2.917,1.552a1.108,1.108,0,0,0,1.181,1.2,1.712,1.712,0,0,0,1.665-1.152,1.272,1.272,0,0,0,.071-.4Z" fill="#3a3a3a"/>
        <path id="Trazado_116959" data-name="Trazado 116959" d="M2035.415,2966.43v8.325c0,.613.014,1.31.056,1.779h-1.123l-.058-1.195h-.028a2.549,2.549,0,0,1-2.349,1.352c-1.665,0-2.945-1.409-2.945-3.5-.014-2.291,1.409-3.7,3.088-3.7a2.3,2.3,0,0,1,2.077,1.053h.03v-4.113Zm-1.252,6.02a2.289,2.289,0,0,0-.057-.526,1.843,1.843,0,0,0-1.808-1.452c-1.3,0-2.064,1.138-2.064,2.661,0,1.4.683,2.547,2.036,2.547a1.884,1.884,0,0,0,1.836-1.494,2.258,2.258,0,0,0,.057-.541Z" fill="#3a3a3a"/>
        <path id="Trazado_116960" data-name="Trazado 116960" d="M2038.185,2973.318a2.207,2.207,0,0,0,2.362,2.391,4.525,4.525,0,0,0,1.907-.356l.214.9a5.585,5.585,0,0,1-2.292.426,3.2,3.2,0,0,1-3.387-3.471c0-2.079,1.224-3.715,3.23-3.715,2.249,0,2.848,1.978,2.848,3.244a4.722,4.722,0,0,1-.044.584Zm3.672-.9a1.784,1.784,0,0,0-1.737-2.035,2.076,2.076,0,0,0-1.921,2.035Z" fill="#3a3a3a"/>
        <path id="Trazado_116961" data-name="Trazado 116961" d="M2047.629,2966.43h1.252v10.1h-1.252Z" fill="#3a3a3a"/>
        <path id="Trazado_116962" data-name="Trazado 116962" d="M2054.8,2976.534l-.1-.868h-.043a2.561,2.561,0,0,1-2.106,1.025,1.963,1.963,0,0,1-2.107-1.978c0-1.665,1.48-2.576,4.141-2.562v-.142a1.419,1.419,0,0,0-1.565-1.594,3.424,3.424,0,0,0-1.792.513l-.286-.826a4.277,4.277,0,0,1,2.264-.612c2.106,0,2.618,1.438,2.618,2.818v2.575a9.622,9.622,0,0,0,.115,1.651Zm-.185-3.515c-1.367-.029-2.919.213-2.919,1.552a1.109,1.109,0,0,0,1.183,1.194,1.716,1.716,0,0,0,1.665-1.152,1.356,1.356,0,0,0,.071-.4Z" fill="#3a3a3a"/>
        <path id="Trazado_116963" data-name="Trazado 116963" d="M2061.556,2973.318a2.206,2.206,0,0,0,2.361,2.391,4.525,4.525,0,0,0,1.907-.356l.214.9a5.586,5.586,0,0,1-2.292.426,3.2,3.2,0,0,1-3.387-3.471c0-2.079,1.224-3.715,3.231-3.715,2.248,0,2.847,1.978,2.847,3.244a4.751,4.751,0,0,1-.044.584Zm3.671-.9a1.783,1.783,0,0,0-1.737-2.035,2.076,2.076,0,0,0-1.921,2.035Z" fill="#3a3a3a"/>
        <path id="Trazado_116964" data-name="Trazado 116964" d="M2067.812,2975.253a3.277,3.277,0,0,0,1.651.5c.911,0,1.338-.456,1.338-1.025,0-.6-.355-.925-1.28-1.266-1.238-.442-1.822-1.125-1.822-1.95a2.125,2.125,0,0,1,2.377-2.021,3.447,3.447,0,0,1,1.693.426l-.313.911a2.687,2.687,0,0,0-1.409-.4c-.74,0-1.153.427-1.153.939,0,.57.413.826,1.309,1.167,1.2.455,1.808,1.054,1.808,2.078,0,1.21-.938,2.063-2.575,2.063a3.929,3.929,0,0,1-1.937-.469Z" fill="#3a3a3a"/>
        <path id="Trazado_116965" data-name="Trazado 116965" d="M2073.617,2971.9c0-.882-.03-1.595-.058-2.248h1.125l.056,1.18h.03a2.707,2.707,0,0,1,2.446-1.337c1.665,0,2.919,1.409,2.919,3.5,0,2.477-1.51,3.7-3.131,3.7a2.417,2.417,0,0,1-2.121-1.081h-.028v3.742h-1.238Zm1.238,1.835a2.968,2.968,0,0,0,.055.513,1.934,1.934,0,0,0,1.88,1.466c1.323,0,2.091-1.082,2.091-2.661,0-1.381-.724-2.562-2.048-2.562a2,2,0,0,0-1.893,1.551,2.024,2.024,0,0,0-.085.513Z" fill="#3a3a3a"/>
        <path id="Trazado_116966" data-name="Trazado 116966" d="M2085.523,2976.534l-.1-.868h-.042a2.568,2.568,0,0,1-2.107,1.025,1.962,1.962,0,0,1-2.106-1.978c0-1.665,1.481-2.576,4.142-2.562v-.142a1.42,1.42,0,0,0-1.566-1.594,3.427,3.427,0,0,0-1.794.513l-.284-.826a4.276,4.276,0,0,1,2.262-.612c2.108,0,2.62,1.438,2.62,2.818v2.575a9.71,9.71,0,0,0,.113,1.651Zm-.185-3.515c-1.365-.029-2.917.213-2.917,1.552a1.107,1.107,0,0,0,1.181,1.194,1.711,1.711,0,0,0,1.665-1.152,1.267,1.267,0,0,0,.071-.4Z" fill="#3a3a3a"/>
        <path id="Trazado_116967" data-name="Trazado 116967" d="M2088.565,2966.43h1.252v10.1h-1.252Z" fill="#3a3a3a"/>
        <path id="Trazado_116968" data-name="Trazado 116968" d="M2097.872,2966.43v8.325c0,.613.014,1.31.055,1.779H2096.8l-.057-1.195h-.028a2.55,2.55,0,0,1-2.35,1.352c-1.665,0-2.945-1.409-2.945-3.5-.013-2.291,1.409-3.7,3.088-3.7a2.3,2.3,0,0,1,2.078,1.053h.03v-4.113Zm-1.252,6.02a2.238,2.238,0,0,0-.058-.526,1.841,1.841,0,0,0-1.808-1.452c-1.3,0-2.063,1.138-2.063,2.661,0,1.4.682,2.547,2.036,2.547a1.883,1.883,0,0,0,1.835-1.494,2.208,2.208,0,0,0,.058-.541Z" fill="#3a3a3a"/>
        <path id="Trazado_116969" data-name="Trazado 116969" d="M2103.759,2976.534l-.1-.868h-.043a2.563,2.563,0,0,1-2.106,1.025,1.963,1.963,0,0,1-2.107-1.978c0-1.665,1.48-2.576,4.141-2.562v-.142a1.42,1.42,0,0,0-1.566-1.594,3.421,3.421,0,0,0-1.791.513l-.286-.826a4.275,4.275,0,0,1,2.264-.612c2.1,0,2.617,1.438,2.617,2.818v2.575a9.721,9.721,0,0,0,.115,1.651Zm-.184-3.515c-1.367-.029-2.919.213-2.919,1.552a1.109,1.109,0,0,0,1.183,1.194,1.714,1.714,0,0,0,1.664-1.152,1.327,1.327,0,0,0,.072-.4Z" fill="#3a3a3a"/>
        <path id="Trazado_116970" data-name="Trazado 116970" d="M2111.326,2967.668v1.979h1.792v.953h-1.792v3.714c0,.854.24,1.338.938,1.338a2.774,2.774,0,0,0,.727-.085l.055.939a3.056,3.056,0,0,1-1.109.17,1.73,1.73,0,0,1-1.351-.526,2.546,2.546,0,0,1-.484-1.793V2970.6h-1.068v-.953h1.068V2968Z" fill="#3a3a3a"/>
        <path id="Trazado_116971" data-name="Trazado 116971" d="M2115.92,2967.711a.776.776,0,0,1-1.552,0,.763.763,0,0,1,.782-.783A.744.744,0,0,1,2115.92,2967.711Zm-1.4,8.823v-6.887h1.252v6.887Z" fill="#3a3a3a"/>
        <path id="Trazado_116972" data-name="Trazado 116972" d="M2117.853,2971.8c0-.812-.014-1.509-.058-2.149h1.095l.044,1.351h.058a2.062,2.062,0,0,1,1.907-1.508,1.372,1.372,0,0,1,.355.042v1.181a1.925,1.925,0,0,0-.427-.042,1.76,1.76,0,0,0-1.681,1.608,3.691,3.691,0,0,0-.055.583v3.672h-1.238Z" fill="#3a3a3a"/>
        <path id="Trazado_116973" data-name="Trazado 116973" d="M2126.246,2976.534l-.1-.868h-.041a2.57,2.57,0,0,1-2.108,1.025,1.961,1.961,0,0,1-2.1-1.978c0-1.665,1.48-2.576,4.141-2.562v-.142a1.42,1.42,0,0,0-1.566-1.594,3.422,3.422,0,0,0-1.793.513l-.284-.826a4.272,4.272,0,0,1,2.262-.612c2.107,0,2.619,1.438,2.619,2.818v2.575a9.735,9.735,0,0,0,.113,1.651Zm-.184-3.515c-1.365-.029-2.917.213-2.917,1.552a1.107,1.107,0,0,0,1.181,1.194,1.71,1.71,0,0,0,1.664-1.152,1.269,1.269,0,0,0,.072-.4Z" fill="#3a3a3a"/>
        <path id="Trazado_116974" data-name="Trazado 116974" d="M2128.989,2975.794a.841.841,0,0,1,.855-.9.9.9,0,1,1-.855.9Z" fill="#3a3a3a"/>
      </g>
      <g id="Grupo_61025" data-name="Grupo 61025">
        <path id="Trazado_116975" data-name="Trazado 116975" d="M2050.725,3023.65h1.238v8.554h4.1v1.039h-5.337Z" fill="#3a3a3a"/>
        <path id="Trazado_116976" data-name="Trazado 116976" d="M2061.209,3033.243l-.1-.869h-.043a2.564,2.564,0,0,1-2.106,1.025,1.963,1.963,0,0,1-2.107-1.978c0-1.665,1.481-2.576,4.142-2.562v-.142a1.42,1.42,0,0,0-1.566-1.594,3.426,3.426,0,0,0-1.793.513l-.284-.826a4.275,4.275,0,0,1,2.263-.612c2.106,0,2.618,1.438,2.618,2.818v2.576a9.743,9.743,0,0,0,.114,1.651Zm-.184-3.516c-1.367-.029-2.918.214-2.918,1.552a1.108,1.108,0,0,0,1.181,1.2,1.714,1.714,0,0,0,1.665-1.152,1.3,1.3,0,0,0,.072-.4Z" fill="#3a3a3a"/>
        <path id="Trazado_116977" data-name="Trazado 116977" d="M2064.081,3031.962a3.28,3.28,0,0,0,1.651.5c.91,0,1.337-.456,1.337-1.025,0-.6-.355-.925-1.281-1.266-1.238-.442-1.822-1.124-1.822-1.95a2.125,2.125,0,0,1,2.378-2.021,3.439,3.439,0,0,1,1.693.427l-.313.911a2.685,2.685,0,0,0-1.409-.4c-.74,0-1.153.426-1.153.938,0,.57.413.826,1.31,1.167,1.2.455,1.807,1.054,1.807,2.079,0,1.209-.939,2.062-2.576,2.062a3.927,3.927,0,0,1-1.936-.469Z" fill="#3a3a3a"/>
        <path id="Trazado_116978" data-name="Trazado 116978" d="M2076.713,3033.243l-.1-.869h-.043a2.564,2.564,0,0,1-2.106,1.025,1.963,1.963,0,0,1-2.107-1.978c0-1.665,1.481-2.576,4.142-2.562v-.142a1.42,1.42,0,0,0-1.566-1.594,3.424,3.424,0,0,0-1.793.513l-.284-.826a4.275,4.275,0,0,1,2.263-.612c2.106,0,2.618,1.438,2.618,2.818v2.576a9.743,9.743,0,0,0,.114,1.651Zm-.184-3.516c-1.367-.029-2.918.214-2.918,1.552a1.107,1.107,0,0,0,1.181,1.2,1.714,1.714,0,0,0,1.665-1.152,1.3,1.3,0,0,0,.072-.4Z" fill="#3a3a3a"/>
        <path id="Trazado_116979" data-name="Trazado 116979" d="M2079.755,3028.5c0-.812-.014-1.509-.056-2.149h1.095l.043,1.351h.057a2.066,2.066,0,0,1,1.907-1.508,1.32,1.32,0,0,1,.355.043v1.18a1.977,1.977,0,0,0-.426-.042,1.759,1.759,0,0,0-1.68,1.608,3.566,3.566,0,0,0-.057.584v3.672h-1.238Z" fill="#3a3a3a"/>
        <path id="Trazado_116980" data-name="Trazado 116980" d="M2084.463,3028.5c0-.812-.014-1.509-.056-2.149h1.095l.043,1.351h.057a2.066,2.066,0,0,1,1.907-1.508,1.327,1.327,0,0,1,.355.043v1.18a1.977,1.977,0,0,0-.426-.042,1.758,1.758,0,0,0-1.68,1.608,3.566,3.566,0,0,0-.057.584v3.672h-1.238Z" fill="#3a3a3a"/>
        <path id="Trazado_116981" data-name="Trazado 116981" d="M2094.878,3031.364c0,.712.015,1.338.058,1.879h-1.111l-.071-1.125h-.029a2.588,2.588,0,0,1-2.277,1.281c-1.081,0-2.376-.6-2.376-3.017v-4.027h1.252v3.814c0,1.308.4,2.192,1.537,2.192a1.81,1.81,0,0,0,1.651-1.139,1.833,1.833,0,0,0,.114-.64v-4.227h1.252Z" fill="#3a3a3a"/>
        <path id="Trazado_116982" data-name="Trazado 116982" d="M2102.886,3026.355c-.028.5-.056,1.053-.056,1.892v4c0,1.58-.314,2.547-.983,3.146a3.649,3.649,0,0,1-2.5.825,4.451,4.451,0,0,1-2.292-.569l.314-.954a3.878,3.878,0,0,0,2.021.541c1.281,0,2.219-.669,2.219-2.405v-.769h-.028a2.456,2.456,0,0,1-2.191,1.153,3.079,3.079,0,0,1-2.932-3.359c0-2.333,1.523-3.657,3.1-3.657a2.289,2.289,0,0,1,2.149,1.2h.029l.057-1.039Zm-1.295,2.717a1.78,1.78,0,0,0-.071-.568,1.8,1.8,0,0,0-1.75-1.324c-1.2,0-2.049,1.01-2.049,2.6,0,1.352.682,2.476,2.035,2.476a1.83,1.83,0,0,0,1.736-1.281,2.176,2.176,0,0,0,.1-.668Z" fill="#3a3a3a"/>
        <path id="Trazado_116983" data-name="Trazado 116983" d="M2108.717,3033.243l-.1-.869h-.043a2.564,2.564,0,0,1-2.106,1.025,1.962,1.962,0,0,1-2.106-1.978c0-1.665,1.48-2.576,4.141-2.562v-.142a1.42,1.42,0,0,0-1.566-1.594,3.428,3.428,0,0,0-1.793.513l-.284-.826a4.274,4.274,0,0,1,2.263-.612c2.106,0,2.618,1.438,2.618,2.818v2.576a9.743,9.743,0,0,0,.114,1.651Zm-.184-3.516c-1.367-.029-2.918.214-2.918,1.552a1.108,1.108,0,0,0,1.181,1.2,1.714,1.714,0,0,0,1.665-1.152,1.3,1.3,0,0,0,.072-.4Z" fill="#3a3a3a"/>
        <path id="Trazado_116984" data-name="Trazado 116984" d="M2111.589,3031.962a3.28,3.28,0,0,0,1.651.5c.911,0,1.337-.456,1.337-1.025,0-.6-.355-.925-1.281-1.266-1.238-.442-1.821-1.124-1.821-1.95a2.125,2.125,0,0,1,2.377-2.021,3.442,3.442,0,0,1,1.694.427l-.314.911a2.684,2.684,0,0,0-1.409-.4c-.74,0-1.153.426-1.153.938,0,.57.413.826,1.31,1.167,1.2.455,1.807,1.054,1.807,2.079,0,1.209-.939,2.062-2.576,2.062a3.929,3.929,0,0,1-1.936-.469Z" fill="#3a3a3a"/>
        <path id="Trazado_116985" data-name="Trazado 116985" d="M2120.237,3031.962a3.28,3.28,0,0,0,1.651.5c.91,0,1.337-.456,1.337-1.025,0-.6-.355-.925-1.281-1.266-1.238-.442-1.821-1.124-1.821-1.95a2.124,2.124,0,0,1,2.377-2.021,3.436,3.436,0,0,1,1.693.427l-.313.911a2.683,2.683,0,0,0-1.409-.4c-.74,0-1.153.426-1.153.938,0,.57.413.826,1.31,1.167,1.2.455,1.807,1.054,1.807,2.079,0,1.209-.939,2.062-2.576,2.062a3.927,3.927,0,0,1-1.936-.469Z" fill="#3a3a3a"/>
        <path id="Trazado_116986" data-name="Trazado 116986" d="M2126.737,3030.026a2.207,2.207,0,0,0,2.363,2.391,4.529,4.529,0,0,0,1.907-.356l.213.9a5.58,5.58,0,0,1-2.291.426,3.2,3.2,0,0,1-3.387-3.471c0-2.079,1.224-3.715,3.23-3.715,2.249,0,2.847,1.978,2.847,3.245a4.731,4.731,0,0,1-.043.583Zm3.673-.9a1.784,1.784,0,0,0-1.737-2.036,2.078,2.078,0,0,0-1.922,2.036Z" fill="#3a3a3a"/>
        <path id="Trazado_116987" data-name="Trazado 116987" d="M2051.38,3047.095a2.207,2.207,0,0,0,2.362,2.391,4.524,4.524,0,0,0,1.907-.356l.213.9a5.581,5.581,0,0,1-2.291.426,3.2,3.2,0,0,1-3.387-3.472c0-2.078,1.224-3.714,3.231-3.714,2.248,0,2.846,1.978,2.846,3.244a4.784,4.784,0,0,1-.043.584Zm3.672-.9a1.783,1.783,0,0,0-1.737-2.035,2.076,2.076,0,0,0-1.922,2.035Z" fill="#3a3a3a"/>
        <path id="Trazado_116988" data-name="Trazado 116988" d="M2058.349,3043.423l.982,1.48c.256.385.469.74.7,1.125h.043c.227-.413.456-.769.683-1.139l.968-1.466h1.352l-2.348,3.33,2.419,3.558h-1.423l-1.011-1.551c-.27-.4-.5-.782-.74-1.2h-.028c-.228.413-.47.783-.726,1.2l-1,1.551h-1.38l2.447-3.515-2.333-3.373Z" fill="#3a3a3a"/>
        <path id="Trazado_116989" data-name="Trazado 116989" d="M2066.045,3041.445v1.978h1.793v.954h-1.793v3.714c0,.854.241,1.338.939,1.338a2.784,2.784,0,0,0,.726-.085l.057.939a3.069,3.069,0,0,1-1.111.17,1.732,1.732,0,0,1-1.351-.526,2.552,2.552,0,0,1-.484-1.794v-3.756h-1.068v-.954h1.068v-1.651Z" fill="#3a3a3a"/>
        <path id="Trazado_116990" data-name="Trazado 116990" d="M2070.639,3041.488a.776.776,0,0,1-1.552,0,.763.763,0,0,1,.783-.783A.743.743,0,0,1,2070.639,3041.488Zm-1.4,8.823v-6.888h1.252v6.888Z" fill="#3a3a3a"/>
        <path id="Trazado_116991" data-name="Trazado 116991" d="M2073.27,3047.095a2.208,2.208,0,0,0,2.363,2.391,4.528,4.528,0,0,0,1.907-.356l.213.9a5.588,5.588,0,0,1-2.291.426,3.2,3.2,0,0,1-3.387-3.472c0-2.078,1.224-3.714,3.23-3.714,2.249,0,2.847,1.978,2.847,3.244a4.724,4.724,0,0,1-.043.584Zm3.672-.9a1.782,1.782,0,0,0-1.736-2.035,2.076,2.076,0,0,0-1.922,2.035Z" fill="#3a3a3a"/>
        <path id="Trazado_116992" data-name="Trazado 116992" d="M2079.7,3045.288c0-.713-.014-1.3-.057-1.865h1.11l.071,1.139h.029a2.531,2.531,0,0,1,2.277-1.295c.953,0,2.434.569,2.434,2.932v4.112h-1.254v-3.97c0-1.111-.412-2.035-1.593-2.035a1.78,1.78,0,0,0-1.68,1.28,1.837,1.837,0,0,0-.085.584v4.141H2079.7Z" fill="#3a3a3a"/>
        <path id="Trazado_116993" data-name="Trazado 116993" d="M2093.542,3040.207v8.325c0,.612.014,1.31.056,1.779h-1.124l-.056-1.2h-.029a2.548,2.548,0,0,1-2.349,1.352c-1.665,0-2.946-1.409-2.946-3.5-.013-2.291,1.409-3.7,3.089-3.7a2.306,2.306,0,0,1,2.078,1.052h.029v-4.112Zm-1.252,6.019a2.187,2.187,0,0,0-.058-.525,1.841,1.841,0,0,0-1.807-1.452c-1.3,0-2.064,1.138-2.064,2.661,0,1.4.683,2.547,2.035,2.547a1.882,1.882,0,0,0,1.836-1.494,2.163,2.163,0,0,0,.058-.541Z" fill="#3a3a3a"/>
        <path id="Trazado_116994" data-name="Trazado 116994" d="M2096.313,3047.095a2.207,2.207,0,0,0,2.362,2.391,4.524,4.524,0,0,0,1.907-.356l.214.9a5.587,5.587,0,0,1-2.291.426,3.2,3.2,0,0,1-3.388-3.472c0-2.078,1.225-3.714,3.231-3.714,2.248,0,2.846,1.978,2.846,3.244a4.826,4.826,0,0,1-.042.584Zm3.672-.9a1.782,1.782,0,0,0-1.736-2.035,2.076,2.076,0,0,0-1.922,2.035Z" fill="#3a3a3a"/>
        <path id="Trazado_116995" data-name="Trazado 116995" d="M2102.741,3045.288c0-.713-.014-1.3-.056-1.865h1.11l.07,1.139h.029a2.532,2.532,0,0,1,2.277-1.295c.954,0,2.434.569,2.434,2.932v4.112h-1.253v-3.97c0-1.111-.413-2.035-1.593-2.035a1.78,1.78,0,0,0-1.68,1.28,1.8,1.8,0,0,0-.086.584v4.141h-1.252Z" fill="#3a3a3a"/>
        <path id="Trazado_116996" data-name="Trazado 116996" d="M2113.65,3040.207h1.253v4.3h.028a2.331,2.331,0,0,1,.9-.883,2.58,2.58,0,0,1,1.281-.355c.925,0,2.405.569,2.405,2.946v4.1h-1.253v-3.957c0-1.109-.412-2.048-1.593-2.048a1.8,1.8,0,0,0-1.68,1.252,1.517,1.517,0,0,0-.085.6v4.155h-1.253Z" fill="#3a3a3a"/>
        <path id="Trazado_116997" data-name="Trazado 116997" d="M2125.359,3050.311l-.1-.868h-.043a2.566,2.566,0,0,1-2.106,1.025,1.962,1.962,0,0,1-2.106-1.978c0-1.665,1.48-2.576,4.141-2.562v-.142a1.421,1.421,0,0,0-1.566-1.595,3.436,3.436,0,0,0-1.793.513l-.284-.825a4.277,4.277,0,0,1,2.263-.612c2.106,0,2.618,1.437,2.618,2.818v2.575a9.729,9.729,0,0,0,.114,1.651Zm-.184-3.515c-1.366-.029-2.918.213-2.918,1.552a1.107,1.107,0,0,0,1.181,1.194,1.713,1.713,0,0,0,1.665-1.152,1.3,1.3,0,0,0,.072-.4Z" fill="#3a3a3a"/>
        <path id="Trazado_116998" data-name="Trazado 116998" d="M2133.312,3050.055a4.617,4.617,0,0,1-1.979.4,3.273,3.273,0,0,1-3.43-3.514,3.5,3.5,0,0,1,3.7-3.658,4.19,4.19,0,0,1,1.737.356l-.284.967a2.92,2.92,0,0,0-1.453-.327,2.6,2.6,0,0,0-.042,5.18,3.565,3.565,0,0,0,1.537-.341Z" fill="#3a3a3a"/>
        <path id="Trazado_116999" data-name="Trazado 116999" d="M2136.168,3041.488a.776.776,0,0,1-1.552,0,.763.763,0,0,1,.783-.783A.743.743,0,0,1,2136.168,3041.488Zm-1.4,8.823v-6.888h1.252v6.888Z" fill="#3a3a3a"/>
        <path id="Trazado_117000" data-name="Trazado 117000" d="M2141.916,3050.311l-.1-.868h-.043a2.565,2.565,0,0,1-2.106,1.025,1.963,1.963,0,0,1-2.107-1.978c0-1.665,1.481-2.576,4.142-2.562v-.142a1.421,1.421,0,0,0-1.566-1.595,3.434,3.434,0,0,0-1.793.513l-.285-.825a4.28,4.28,0,0,1,2.264-.612c2.106,0,2.618,1.437,2.618,2.818v2.575a9.729,9.729,0,0,0,.114,1.651Zm-.185-3.515c-1.366-.029-2.918.213-2.918,1.552a1.108,1.108,0,0,0,1.182,1.194,1.712,1.712,0,0,0,1.665-1.152,1.3,1.3,0,0,0,.071-.4Z" fill="#3a3a3a"/>
        <path id="Trazado_117001" data-name="Trazado 117001" d="M2050.682,3057.275h1.252v10.1h-1.252Z" fill="#3a3a3a"/>
        <path id="Trazado_117002" data-name="Trazado 117002" d="M2057.853,3067.38l-.1-.868h-.042a2.566,2.566,0,0,1-2.107,1.025,1.963,1.963,0,0,1-2.106-1.979c0-1.665,1.48-2.575,4.141-2.562v-.141a1.42,1.42,0,0,0-1.565-1.595,3.434,3.434,0,0,0-1.793.513l-.285-.825a4.265,4.265,0,0,1,2.263-.613c2.107,0,2.619,1.438,2.619,2.818v2.576a9.636,9.636,0,0,0,.114,1.651Zm-.185-3.515c-1.366-.029-2.918.213-2.918,1.551a1.108,1.108,0,0,0,1.182,1.2,1.715,1.715,0,0,0,1.665-1.152,1.331,1.331,0,0,0,.071-.4Z" fill="#3a3a3a"/>
        <path id="Trazado_117003" data-name="Trazado 117003" d="M2063.739,3066.1a3.282,3.282,0,0,0,1.651.5c.911,0,1.338-.455,1.338-1.025,0-.6-.355-.925-1.281-1.266-1.238-.441-1.822-1.124-1.822-1.95a2.125,2.125,0,0,1,2.377-2.021,3.451,3.451,0,0,1,1.694.427l-.313.911a2.681,2.681,0,0,0-1.409-.4c-.74,0-1.153.427-1.153.939,0,.569.413.825,1.309,1.166,1.2.456,1.807,1.054,1.807,2.079,0,1.21-.938,2.063-2.575,2.063a3.936,3.936,0,0,1-1.936-.469Z" fill="#3a3a3a"/>
        <path id="Trazado_117004" data-name="Trazado 117004" d="M2070.938,3058.556a.776.776,0,0,1-1.552,0,.762.762,0,0,1,.783-.782A.743.743,0,0,1,2070.938,3058.556Zm-1.4,8.824v-6.888h1.252v6.888Z" fill="#3a3a3a"/>
        <path id="Trazado_117005" data-name="Trazado 117005" d="M2072.7,3066.1a3.284,3.284,0,0,0,1.651.5c.911,0,1.337-.455,1.337-1.025,0-.6-.355-.925-1.281-1.266-1.238-.441-1.821-1.124-1.821-1.95a2.125,2.125,0,0,1,2.377-2.021,3.453,3.453,0,0,1,1.694.427l-.314.911a2.681,2.681,0,0,0-1.409-.4c-.74,0-1.153.427-1.153.939,0,.569.413.825,1.31,1.166,1.2.456,1.807,1.054,1.807,2.079,0,1.21-.939,2.063-2.576,2.063a3.94,3.94,0,0,1-1.936-.469Z" fill="#3a3a3a"/>
        <path id="Trazado_117006" data-name="Trazado 117006" d="M2082.318,3067.38l-.1-.868h-.043a2.566,2.566,0,0,1-2.106,1.025,1.964,1.964,0,0,1-2.107-1.979c0-1.665,1.481-2.575,4.142-2.562v-.141a1.421,1.421,0,0,0-1.566-1.595,3.433,3.433,0,0,0-1.793.513l-.285-.825a4.27,4.27,0,0,1,2.264-.613c2.106,0,2.618,1.438,2.618,2.818v2.576a9.735,9.735,0,0,0,.114,1.651Zm-.184-3.515c-1.367-.029-2.919.213-2.919,1.551a1.108,1.108,0,0,0,1.182,1.2,1.714,1.714,0,0,0,1.665-1.152,1.3,1.3,0,0,0,.072-.4Z" fill="#3a3a3a"/>
        <path id="Trazado_117007" data-name="Trazado 117007" d="M2085.061,3066.64a.842.842,0,0,1,.854-.9.9.9,0,0,1-.014,1.794A.839.839,0,0,1,2085.061,3066.64Z" fill="#3a3a3a"/>
      </g>
      <g id="Grupo_61026" data-name="Grupo 61026">
        <path id="Trazado_117008" data-name="Trazado 117008" d="M2052.283,3192.962h-3.728v3.459h4.155v1.039h-5.393v-9.593h5.18v1.039h-3.942v3.032h3.728Z" fill="#3a3a3a"/>
        <path id="Trazado_117009" data-name="Trazado 117009" d="M2054.272,3187.355h1.252v10.1h-1.252Z" fill="#3a3a3a"/>
        <path id="Trazado_117010" data-name="Trazado 117010" d="M2060.587,3197.46c.028-.47.057-1.167.057-1.779v-8.326h1.238v4.326h.029a2.565,2.565,0,0,1,2.347-1.266c1.709,0,2.918,1.423,2.9,3.515,0,2.462-1.551,3.686-3.088,3.686a2.455,2.455,0,0,1-2.306-1.294h-.043l-.056,1.138Zm1.3-2.762a2.456,2.456,0,0,0,.056.456,1.935,1.935,0,0,0,1.88,1.466c1.308,0,2.091-1.067,2.091-2.647,0-1.381-.711-2.562-2.049-2.562a2,2,0,0,0-1.907,1.537,2.52,2.52,0,0,0-.071.512Z" fill="#3a3a3a"/>
        <path id="Trazado_117011" data-name="Trazado 117011" d="M2072.551,3197.46l-.1-.869h-.043a2.564,2.564,0,0,1-2.106,1.025,1.963,1.963,0,0,1-2.107-1.978c0-1.665,1.481-2.576,4.142-2.562v-.142a1.42,1.42,0,0,0-1.566-1.594,3.425,3.425,0,0,0-1.793.513l-.285-.826a4.277,4.277,0,0,1,2.263-.612c2.107,0,2.619,1.438,2.619,2.818v2.576a9.743,9.743,0,0,0,.114,1.651Zm-.185-3.516c-1.366-.028-2.918.214-2.918,1.552a1.108,1.108,0,0,0,1.182,1.195,1.714,1.714,0,0,0,1.665-1.152,1.3,1.3,0,0,0,.071-.4Z" fill="#3a3a3a"/>
        <path id="Trazado_117012" data-name="Trazado 117012" d="M2073.914,3199.452a2.026,2.026,0,0,0,1.366-.527c.342-.4.47-.939.47-2.59v-5.763H2077v6.248a3.771,3.771,0,0,1-.826,2.831,3.174,3.174,0,0,1-2.134.783Zm3.231-10.816a.735.735,0,0,1-.783.768.747.747,0,0,1-.769-.768.767.767,0,0,1,.8-.783A.741.741,0,0,1,2077.145,3188.636Z" fill="#3a3a3a"/>
        <path id="Trazado_117013" data-name="Trazado 117013" d="M2085.284,3193.958a3.367,3.367,0,0,1-3.43,3.658,3.275,3.275,0,0,1-3.3-3.544,3.363,3.363,0,0,1,3.416-3.657A3.263,3.263,0,0,1,2085.284,3193.958Zm-5.465.072c0,1.509.868,2.647,2.091,2.647,1.2,0,2.093-1.124,2.093-2.676,0-1.167-.584-2.646-2.064-2.646S2079.819,3192.721,2079.819,3194.03Z" fill="#3a3a3a"/>
        <path id="Trazado_117014" data-name="Trazado 117014" d="M2089.7,3196.179a3.284,3.284,0,0,0,1.651.5c.911,0,1.337-.456,1.337-1.025,0-.6-.355-.925-1.281-1.266-1.238-.442-1.821-1.124-1.821-1.95a2.125,2.125,0,0,1,2.377-2.021,3.439,3.439,0,0,1,1.694.427l-.314.911a2.684,2.684,0,0,0-1.409-.4c-.74,0-1.153.426-1.153.938,0,.57.413.826,1.31,1.167,1.2.456,1.807,1.054,1.807,2.079,0,1.209-.939,2.063-2.576,2.063a3.932,3.932,0,0,1-1.936-.47Z" fill="#3a3a3a"/>
        <path id="Trazado_117015" data-name="Trazado 117015" d="M2096.2,3194.243a2.206,2.206,0,0,0,2.362,2.391,4.529,4.529,0,0,0,1.907-.356l.213.9a5.575,5.575,0,0,1-2.29.427,3.2,3.2,0,0,1-3.388-3.472c0-2.079,1.225-3.715,3.231-3.715,2.248,0,2.846,1.978,2.846,3.245a4.807,4.807,0,0,1-.042.583Zm3.672-.9a1.784,1.784,0,0,0-1.736-2.036,2.077,2.077,0,0,0-1.922,2.036Z" fill="#3a3a3a"/>
        <path id="Trazado_117016" data-name="Trazado 117016" d="M2111.882,3193.958a3.367,3.367,0,0,1-3.43,3.658,3.275,3.275,0,0,1-3.3-3.544,3.363,3.363,0,0,1,3.416-3.657A3.262,3.262,0,0,1,2111.882,3193.958Zm-5.465.072c0,1.509.869,2.647,2.092,2.647,1.2,0,2.092-1.124,2.092-2.676,0-1.167-.583-2.646-2.063-2.646S2106.417,3192.721,2106.417,3194.03Z" fill="#3a3a3a"/>
        <path id="Trazado_117017" data-name="Trazado 117017" d="M2113.457,3192.436c0-.712-.014-1.3-.057-1.864h1.111l.07,1.138h.029a2.53,2.53,0,0,1,2.277-1.295c.953,0,2.434.57,2.434,2.932v4.113h-1.253v-3.971c0-1.11-.412-2.035-1.594-2.035a1.781,1.781,0,0,0-1.68,1.281,1.83,1.83,0,0,0-.085.583v4.142h-1.252Z" fill="#3a3a3a"/>
        <path id="Trazado_117018" data-name="Trazado 117018" d="M2127.3,3187.355v8.326c0,.612.014,1.309.057,1.779h-1.125l-.056-1.2h-.029a2.547,2.547,0,0,1-2.348,1.352c-1.665,0-2.946-1.409-2.946-3.5-.014-2.291,1.409-3.7,3.088-3.7a2.3,2.3,0,0,1,2.078,1.053h.029v-4.113Zm-1.252,6.02a2.191,2.191,0,0,0-.058-.526,1.84,1.84,0,0,0-1.807-1.452c-1.3,0-2.063,1.138-2.063,2.661,0,1.395.682,2.547,2.035,2.547a1.881,1.881,0,0,0,1.835-1.494,2.161,2.161,0,0,0,.058-.541Z" fill="#3a3a3a"/>
        <path id="Trazado_117019" data-name="Trazado 117019" d="M2135.137,3195.581c0,.712.015,1.338.058,1.879h-1.11l-.072-1.125h-.029a2.588,2.588,0,0,1-2.277,1.281c-1.081,0-2.376-.6-2.376-3.017v-4.027h1.252v3.814c0,1.309.4,2.192,1.537,2.192a1.763,1.763,0,0,0,1.765-1.779v-4.227h1.252Z" fill="#3a3a3a"/>
        <path id="Trazado_117020" data-name="Trazado 117020" d="M2137.211,3187.355h1.252v10.1h-1.252Z" fill="#3a3a3a"/>
        <path id="Trazado_117021" data-name="Trazado 117021" d="M2144.382,3197.46l-.1-.869h-.042a2.565,2.565,0,0,1-2.107,1.025,1.962,1.962,0,0,1-2.106-1.978c0-1.665,1.48-2.576,4.141-2.562v-.142a1.42,1.42,0,0,0-1.565-1.594,3.424,3.424,0,0,0-1.793.513l-.285-.826a4.275,4.275,0,0,1,2.263-.612c2.107,0,2.619,1.438,2.619,2.818v2.576a9.643,9.643,0,0,0,.114,1.651Zm-.185-3.516c-1.366-.028-2.918.214-2.918,1.552a1.108,1.108,0,0,0,1.182,1.195,1.715,1.715,0,0,0,1.665-1.152,1.333,1.333,0,0,0,.071-.4Z" fill="#3a3a3a"/>
        <path id="Trazado_117022" data-name="Trazado 117022" d="M2047.274,3204.424h1.252v4.3h.029a2.321,2.321,0,0,1,.9-.883,2.578,2.578,0,0,1,1.281-.355c.924,0,2.405.569,2.405,2.946v4.1h-1.253v-3.957c0-1.109-.412-2.048-1.594-2.048a1.8,1.8,0,0,0-1.68,1.252,1.537,1.537,0,0,0-.085.6v4.155h-1.252Z" fill="#3a3a3a"/>
        <path id="Trazado_117023" data-name="Trazado 117023" d="M2058.982,3214.528l-.1-.868h-.042a2.565,2.565,0,0,1-2.107,1.025,1.962,1.962,0,0,1-2.106-1.978c0-1.665,1.48-2.576,4.141-2.562V3210a1.42,1.42,0,0,0-1.565-1.595,3.435,3.435,0,0,0-1.793.513l-.285-.825a4.279,4.279,0,0,1,2.263-.612c2.107,0,2.619,1.437,2.619,2.818v2.575a9.6,9.6,0,0,0,.114,1.651Zm-.185-3.515c-1.366-.029-2.918.213-2.918,1.552a1.108,1.108,0,0,0,1.182,1.194,1.714,1.714,0,0,0,1.665-1.152,1.331,1.331,0,0,0,.071-.4Z" fill="#3a3a3a"/>
        <path id="Trazado_117024" data-name="Trazado 117024" d="M2066.934,3214.272a4.612,4.612,0,0,1-1.978.4,3.272,3.272,0,0,1-3.43-3.514,3.5,3.5,0,0,1,3.7-3.658,4.179,4.179,0,0,1,1.736.356l-.285.967a2.909,2.909,0,0,0-1.451-.327,2.6,2.6,0,0,0-.043,5.18,3.57,3.57,0,0,0,1.538-.341Z" fill="#3a3a3a"/>
        <path id="Trazado_117025" data-name="Trazado 117025" d="M2069.792,3205.705a.776.776,0,0,1-1.552,0,.763.763,0,0,1,.783-.783A.743.743,0,0,1,2069.792,3205.705Zm-1.4,8.823v-6.888h1.252v6.888Z" fill="#3a3a3a"/>
        <path id="Trazado_117026" data-name="Trazado 117026" d="M2075.538,3214.528l-.1-.868h-.042a2.568,2.568,0,0,1-2.107,1.025,1.962,1.962,0,0,1-2.106-1.978c0-1.665,1.48-2.576,4.141-2.562V3210a1.421,1.421,0,0,0-1.566-1.595,3.43,3.43,0,0,0-1.792.513l-.285-.825a4.277,4.277,0,0,1,2.263-.612c2.106,0,2.618,1.437,2.618,2.818v2.575a9.729,9.729,0,0,0,.114,1.651Zm-.184-3.515c-1.366-.029-2.918.213-2.918,1.552a1.108,1.108,0,0,0,1.182,1.194,1.713,1.713,0,0,0,1.664-1.152,1.3,1.3,0,0,0,.072-.4Z" fill="#3a3a3a"/>
        <path id="Trazado_117027" data-name="Trazado 117027" d="M2085.41,3214.528l-.1-.868h-.043a2.565,2.565,0,0,1-2.107,1.025,1.962,1.962,0,0,1-2.106-1.978c0-1.665,1.48-2.576,4.141-2.562V3210a1.42,1.42,0,0,0-1.565-1.595,3.435,3.435,0,0,0-1.793.513l-.285-.825a4.279,4.279,0,0,1,2.263-.612c2.107,0,2.619,1.437,2.619,2.818v2.575a9.6,9.6,0,0,0,.114,1.651Zm-.185-3.515c-1.366-.029-2.918.213-2.918,1.552a1.108,1.108,0,0,0,1.182,1.194,1.714,1.714,0,0,0,1.665-1.152,1.331,1.331,0,0,0,.071-.4Z" fill="#3a3a3a"/>
        <path id="Trazado_117028" data-name="Trazado 117028" d="M2088.452,3209.79c0-.812-.014-1.51-.057-2.15h1.1l.042,1.352h.058a2.064,2.064,0,0,1,1.907-1.508,1.375,1.375,0,0,1,.355.042v1.181a1.9,1.9,0,0,0-.427-.043,1.758,1.758,0,0,0-1.679,1.609,3.559,3.559,0,0,0-.057.583v3.672h-1.238Z" fill="#3a3a3a"/>
        <path id="Trazado_117029" data-name="Trazado 117029" d="M2093.16,3209.79c0-.812-.014-1.51-.057-2.15h1.1l.042,1.352h.058a2.064,2.064,0,0,1,1.907-1.508,1.38,1.38,0,0,1,.355.042v1.181a1.9,1.9,0,0,0-.427-.043,1.757,1.757,0,0,0-1.679,1.609,3.559,3.559,0,0,0-.057.583v3.672h-1.238Z" fill="#3a3a3a"/>
        <path id="Trazado_117030" data-name="Trazado 117030" d="M2099.263,3205.705a.776.776,0,0,1-1.552,0,.763.763,0,0,1,.783-.783A.743.743,0,0,1,2099.263,3205.705Zm-1.4,8.823v-6.888h1.252v6.888Z" fill="#3a3a3a"/>
        <path id="Trazado_117031" data-name="Trazado 117031" d="M2101.14,3214.528c.028-.469.056-1.167.056-1.779v-8.325h1.239v4.326h.029a2.564,2.564,0,0,1,2.347-1.266c1.709,0,2.918,1.423,2.9,3.515,0,2.462-1.552,3.686-3.089,3.686a2.454,2.454,0,0,1-2.3-1.3h-.043l-.057,1.139Zm1.3-2.761a2.45,2.45,0,0,0,.056.455,1.934,1.934,0,0,0,1.88,1.467c1.308,0,2.091-1.068,2.091-2.647,0-1.381-.711-2.562-2.049-2.562a2,2,0,0,0-1.907,1.537,2.424,2.424,0,0,0-.071.512Z" fill="#3a3a3a"/>
        <path id="Trazado_117032" data-name="Trazado 117032" d="M2113.1,3214.528l-.1-.868h-.043a2.565,2.565,0,0,1-2.107,1.025,1.962,1.962,0,0,1-2.106-1.978c0-1.665,1.48-2.576,4.141-2.562V3210a1.42,1.42,0,0,0-1.565-1.595,3.435,3.435,0,0,0-1.793.513l-.285-.825a4.279,4.279,0,0,1,2.263-.612c2.107,0,2.619,1.437,2.619,2.818v2.575a9.629,9.629,0,0,0,.114,1.651Zm-.185-3.515c-1.366-.029-2.918.213-2.918,1.552a1.108,1.108,0,0,0,1.182,1.194,1.714,1.714,0,0,0,1.665-1.152,1.331,1.331,0,0,0,.071-.4Z" fill="#3a3a3a"/>
        <path id="Trazado_117033" data-name="Trazado 117033" d="M2119.617,3207.64l1.509,4.07c.155.456.326,1,.44,1.409h.029c.128-.412.27-.939.441-1.437l1.367-4.042h1.323l-1.879,4.91c-.9,2.362-1.508,3.572-2.362,4.312a3.4,3.4,0,0,1-1.537.812l-.314-1.053a3.335,3.335,0,0,0,1.1-.612,3.8,3.8,0,0,0,1.052-1.4.882.882,0,0,0,.1-.3,1.094,1.094,0,0,0-.086-.327l-2.548-6.348Z" fill="#3a3a3a"/>
        <path id="Trazado_117034" data-name="Trazado 117034" d="M2047.274,3221.492h1.252v4.3h.029a2.316,2.316,0,0,1,.9-.883,2.571,2.571,0,0,1,1.281-.356c.924,0,2.405.57,2.405,2.946v4.1h-1.253v-3.957c0-1.109-.412-2.049-1.594-2.049a1.8,1.8,0,0,0-1.68,1.252,1.543,1.543,0,0,0-.085.6v4.155h-1.252Z" fill="#3a3a3a"/>
        <path id="Trazado_117035" data-name="Trazado 117035" d="M2058.982,3231.6l-.1-.868h-.042a2.565,2.565,0,0,1-2.107,1.025,1.963,1.963,0,0,1-2.106-1.979c0-1.665,1.48-2.575,4.141-2.562v-.141a1.42,1.42,0,0,0-1.565-1.595,3.435,3.435,0,0,0-1.793.513l-.285-.825a4.269,4.269,0,0,1,2.263-.613c2.107,0,2.619,1.438,2.619,2.818v2.576a9.611,9.611,0,0,0,.114,1.651Zm-.185-3.515c-1.366-.029-2.918.213-2.918,1.551a1.108,1.108,0,0,0,1.182,1.195,1.715,1.715,0,0,0,1.665-1.152,1.331,1.331,0,0,0,.071-.4Z" fill="#3a3a3a"/>
        <path id="Trazado_117036" data-name="Trazado 117036" d="M2066.934,3231.341a4.616,4.616,0,0,1-1.978.4,3.272,3.272,0,0,1-3.43-3.514,3.5,3.5,0,0,1,3.7-3.659,4.19,4.19,0,0,1,1.736.356l-.285.968a2.9,2.9,0,0,0-1.451-.328,2.6,2.6,0,0,0-.043,5.181,3.551,3.551,0,0,0,1.538-.342Z" fill="#3a3a3a"/>
        <path id="Trazado_117037" data-name="Trazado 117037" d="M2069.792,3222.773a.776.776,0,0,1-1.552,0,.762.762,0,0,1,.783-.782A.743.743,0,0,1,2069.792,3222.773Zm-1.4,8.824v-6.888h1.252v6.888Z" fill="#3a3a3a"/>
        <path id="Trazado_117038" data-name="Trazado 117038" d="M2075.538,3231.6l-.1-.868h-.042a2.568,2.568,0,0,1-2.107,1.025,1.963,1.963,0,0,1-2.106-1.979c0-1.665,1.48-2.575,4.141-2.562v-.141a1.421,1.421,0,0,0-1.566-1.595,3.43,3.43,0,0,0-1.792.513l-.285-.825a4.266,4.266,0,0,1,2.263-.613c2.106,0,2.618,1.438,2.618,2.818v2.576a9.735,9.735,0,0,0,.114,1.651Zm-.184-3.515c-1.366-.029-2.918.213-2.918,1.551a1.108,1.108,0,0,0,1.182,1.195,1.714,1.714,0,0,0,1.664-1.152,1.3,1.3,0,0,0,.072-.4Z" fill="#3a3a3a"/>
        <path id="Trazado_117039" data-name="Trazado 117039" d="M2085.41,3231.6l-.1-.868h-.043a2.565,2.565,0,0,1-2.107,1.025,1.963,1.963,0,0,1-2.106-1.979c0-1.665,1.48-2.575,4.141-2.562v-.141a1.42,1.42,0,0,0-1.565-1.595,3.435,3.435,0,0,0-1.793.513l-.285-.825a4.269,4.269,0,0,1,2.263-.613c2.107,0,2.619,1.438,2.619,2.818v2.576a9.611,9.611,0,0,0,.114,1.651Zm-.185-3.515c-1.366-.029-2.918.213-2.918,1.551a1.108,1.108,0,0,0,1.182,1.195,1.715,1.715,0,0,0,1.665-1.152,1.331,1.331,0,0,0,.071-.4Z" fill="#3a3a3a"/>
        <path id="Trazado_117040" data-name="Trazado 117040" d="M2088.4,3231.6c.028-.469.057-1.167.057-1.779v-8.326h1.238v4.326h.029a2.564,2.564,0,0,1,2.347-1.266c1.709,0,2.918,1.423,2.9,3.516,0,2.461-1.551,3.686-3.088,3.686a2.455,2.455,0,0,1-2.306-1.295h-.043l-.056,1.138Zm1.295-2.761a2.375,2.375,0,0,0,.057.455,1.934,1.934,0,0,0,1.879,1.467c1.309,0,2.091-1.068,2.091-2.648,0-1.381-.711-2.561-2.049-2.561a2,2,0,0,0-1.907,1.536,2.5,2.5,0,0,0-.071.512Z" fill="#3a3a3a"/>
        <path id="Trazado_117041" data-name="Trazado 117041" d="M2100.359,3231.6l-.1-.868h-.043a2.566,2.566,0,0,1-2.106,1.025,1.964,1.964,0,0,1-2.107-1.979c0-1.665,1.481-2.575,4.142-2.562v-.141a1.421,1.421,0,0,0-1.566-1.595,3.433,3.433,0,0,0-1.793.513l-.285-.825a4.27,4.27,0,0,1,2.264-.613c2.106,0,2.618,1.438,2.618,2.818v2.576a9.735,9.735,0,0,0,.114,1.651Zm-.184-3.515c-1.367-.029-2.919.213-2.919,1.551a1.108,1.108,0,0,0,1.182,1.195,1.714,1.714,0,0,0,1.665-1.152,1.3,1.3,0,0,0,.072-.4Z" fill="#3a3a3a"/>
        <path id="Trazado_117042" data-name="Trazado 117042" d="M2101.722,3233.589a2.026,2.026,0,0,0,1.367-.527c.341-.4.469-.938.469-2.589v-5.764h1.252v6.248a3.779,3.779,0,0,1-.825,2.832,3.185,3.185,0,0,1-2.135.783Zm3.231-10.816a.735.735,0,0,1-.783.768.747.747,0,0,1-.769-.768.767.767,0,0,1,.8-.782A.74.74,0,0,1,2104.953,3222.773Z" fill="#3a3a3a"/>
        <path id="Trazado_117043" data-name="Trazado 117043" d="M2113.092,3228.1a3.367,3.367,0,0,1-3.43,3.658,3.276,3.276,0,0,1-3.3-3.544,3.364,3.364,0,0,1,3.416-3.658A3.263,3.263,0,0,1,2113.092,3228.1Zm-5.465.071c0,1.509.868,2.647,2.091,2.647,1.2,0,2.093-1.124,2.093-2.676,0-1.167-.583-2.646-2.064-2.646S2107.627,3226.858,2107.627,3228.167Z" fill="#3a3a3a"/>
        <path id="Trazado_117044" data-name="Trazado 117044" d="M2114.027,3230.857a.841.841,0,0,1,.853-.9.9.9,0,1,1-.853.9Z" fill="#3a3a3a"/>
      </g>
      <path id="Trazado_117045" data-name="Trazado 117045" d="M1917.961,3055.893c-2.121,5.319.142,11.235,1.421,16.818a96.385,96.385,0,0,1,1.819,16.932c.486,10.145.958,20.456-1.444,30.325-.908,3.733-2.218,7.354-3.394,11.012-7.114,22.121-9.323,45.465-13.528,68.319" fill="none" stroke="#c6c1c3" stroke-miterlimit="10" stroke-width="0.5"/>
      <path id="Trazado_117046" data-name="Trazado 117046" d="M2018.1,3023.65c-7.234,12.293-13.469,27.131-14.082,41.708-.2,4.86,3.3,9.529,3.487,14.28.211,5.329-2.269,9.265-2.754,14.576-.3,3.25-1.013,6.453-1.254,9.708a33.625,33.625,0,0,0,2.4,15.152c.721,1.762,1.591,3.459,2.368,5.2,2.987,6.672,4.586,13.866,6.166,21l8.821,39.835c1.18,5.325,2.366,10.773,1.729,16.19" fill="none" stroke="#c6c1c3" stroke-miterlimit="10" stroke-width="0.5"/>
      <path id="Trazado_117047" data-name="Trazado 117047" d="M1985.929,2997.74c-4.9,24.688-2.918,50.177-.357,75.216.706,6.9,1.462,13.835,3.368,20.5s5.036,13.117,9.93,18.031" fill="none" stroke="#c6c1c3" stroke-miterlimit="10" stroke-width="0.5" opacity="0.45"/>
      <path id="Trazado_117048" data-name="Trazado 117048" d="M2017.07,3077.789a11.108,11.108,0,0,0-5.581,6.16,22.034,22.034,0,0,0-.94,6.894" fill="none" stroke="#c6c1c3" stroke-miterlimit="10" stroke-width="0.5"/>
      <path id="Trazado_117049" data-name="Trazado 117049" d="M2009.945,3026.659l-4.015,6.722c-2.772,4.641-5.629,9.568-5.689,14.973-.042,3.809,1.32,7.47,2.351,11.138s1.729,7.657.4,11.226c-.788,2.113-2.235,3.918-3.165,5.973-2.551,5.637-2.595,14.9,2.063,17.787.773.479.893,1.6,1.124,2.478a9.116,9.116,0,0,1,.087,3.283c-.356,3.315-1.076,6.59-1.27,9.919a17.2,17.2,0,0,0,1.856,9.682" fill="none" stroke="#c6c1c3" stroke-miterlimit="10" stroke-width="0.5"/>
      <path id="Trazado_117050" data-name="Trazado 117050" d="M1932.921,3053.539c-2.368,12.918.251,26.165.524,39.3.2,9.538-.848,19.064-.813,28.6a126.307,126.307,0,0,0,1.243,17.214c.651,4.6,1.586,9.249,3.84,13.31" fill="none" stroke="#c6c1c3" stroke-miterlimit="10" stroke-width="0.5"/>
      <path id="Trazado_117051" data-name="Trazado 117051" d="M1967.743,2994.028c-.558-.1-.879.6-1,1.157-1.479,6.976-2.86,14.278-.988,21.16" fill="none" stroke="#c6c1c3" stroke-miterlimit="10" stroke-width="0.5"/>
      <path id="Trazado_117052" data-name="Trazado 117052" d="M1957.848,3014.452a23.384,23.384,0,0,1-5.032,10.256,69.737,69.737,0,0,1-8.163,8.14" fill="none" stroke="#c6c1c3" stroke-miterlimit="10" stroke-width="0.5"/>
      <path id="Trazado_117053" data-name="Trazado 117053" d="M1936.522,2998.7a62.858,62.858,0,0,1-.213,9.235" fill="none" stroke="#c6c1c3" stroke-miterlimit="10" stroke-width="0.5"/>
      <path id="Trazado_117054" data-name="Trazado 117054" d="M1918.15,3168.606a56.065,56.065,0,0,1-2,9.221,102.985,102.985,0,0,0-2.725,36.625" fill="none" stroke="#c6c1c3" stroke-miterlimit="10" stroke-width="0.5"/>
      <path id="Trazado_117055" data-name="Trazado 117055" d="M2011.283,3181.594q-.21,10.185.341,20.368a16.372,16.372,0,0,0,1.282,6.505" fill="none" stroke="#c6c1c3" stroke-miterlimit="10" stroke-width="0.5"/>
      <path id="Trazado_117056" data-name="Trazado 117056" d="M1924.309,3051.7a3.441,3.441,0,0,0-5.809,1.255c-.219.67-.228,1.393-.428,2.069a1.893,1.893,0,0,1-1.376,1.449c-.815.114-1.488-.571-2.137-1.076a6.043,6.043,0,0,0-6.7-.372" fill="none" stroke="#c6c1c3" stroke-miterlimit="10" stroke-width="0.5"/>
      <path id="Trazado_117057" data-name="Trazado 117057" d="M2016.7,3208.844l-3.03,10.51-3.1,10.772a6.218,6.218,0,0,0-.345,3.072c6.674-1.081,11.85-6.791,14.243-13.114,1.582-4.179,3.375-11.037,2.673-16.116C2023.432,3204.77,2020.063,3206.74,2016.7,3208.844Z" fill="#ffa780"/>
      <g id="Grupo_61027" data-name="Grupo 61027">
        <path id="Trazado_117058" data-name="Trazado 117058" d="M1912.217,3213.462c-1.123-1.21-2.043-2.639-3.241-3.785C1910.174,3210.823,1911.093,3212.253,1912.217,3213.462Z" fill="#ffa780"/>
        <path id="Trazado_117059" data-name="Trazado 117059" d="M1914.776,3215.4c.194.095.393.181.593.264C1915.169,3215.584,1914.971,3215.5,1914.776,3215.4Z" fill="#ffa780"/>
        <path id="Trazado_117060" data-name="Trazado 117060" d="M1916.085,3215.935h0c-.224-.076-.446-.158-.665-.247C1915.639,3215.777,1915.861,3215.859,1916.085,3215.935Z" fill="#ffa780"/>
        <path id="Trazado_117061" data-name="Trazado 117061" d="M1914.148,3215.064c.137.081.279.153.42.227C1914.427,3215.217,1914.285,3215.145,1914.148,3215.064Z" fill="#ffa780"/>
        <path id="Trazado_117062" data-name="Trazado 117062" d="M1911.351,3218.247q-1.306-4.252-2.379-8.574c-.046-.044-.089-.092-.136-.136-2.321-2.132-5.514-2.973-8.57-3.743a8.065,8.065,0,0,1,2.585-6.2c-1.077.705-2.106-.976-2.313-2.246-.054-.332-.109-.664-.163-1-2.025,2-2.327,6.849-1.976,9.04.514,3.2,1.869,6.192,2.964,9.243a50.62,50.62,0,0,0,2.649,6.783,18.063,18.063,0,0,0,11.568,8.885Q1913.24,3224.356,1911.351,3218.247Z" fill="#ffa780"/>
        <path id="Trazado_117063" data-name="Trazado 117063" d="M1912.875,3214.117a8.144,8.144,0,0,0,.664.545A8.144,8.144,0,0,1,1912.875,3214.117Z" fill="#ffa780"/>
        <path id="Trazado_117064" data-name="Trazado 117064" d="M1912.752,3214c-.169-.16-.336-.321-.495-.491C1912.416,3213.676,1912.583,3213.838,1912.752,3214Z" fill="#ffa780"/>
      </g>
      <path id="Trazado_117065" data-name="Trazado 117065" d="M1917.722,3235.512a17.15,17.15,0,0,1,.044,4.763h40.892q1.782-6.834,3.562-13.67c.356,3.691,1.424,9.265,2.05,13.67h43.393a24.2,24.2,0,0,1,.735-3.566c3.3-8.778,6.624-17.612,8.346-26.832a9.237,9.237,0,0,0,.149-1.151c-3.5,2.188-6.992,4.525-10.848,5.806a43.791,43.791,0,0,1-9.226,1.658c-25.826,2.756-52.114,5.5-77.6.523a13.9,13.9,0,0,1-5.675-2.051c-1.823-1.336-2.934-3.428-4.567-4.989q1.078,4.317,2.379,8.574A166.087,166.087,0,0,0,1917.722,3235.512Z" fill="#36b1bf"/>
      <path id="Trazado_117066" data-name="Trazado 117066" d="M1942.888,2978.183c2.948-.343,5.61,1.02,9.025,2.079a33.124,33.124,0,0,0,21.8-.825,18.387,18.387,0,0,1,4.187-1.381s-4.624-13.592,1.723-23.208c0,0-15.771-6.924-35.964,0,0,0,4.616,11.924,0,21.539C1943.353,2977.025,1943.1,2977.621,1942.888,2978.183Z" fill="#ffa780"/>
      <path id="Trazado_117067" data-name="Trazado 117067" d="M1996.695,3067.151c-4.148,4.545-1.5,11.821-2.738,17.848a65.3,65.3,0,0,1-2.263,6.692,23.244,23.244,0,0,0,1.3,17.254c-4.365-3.707-3.818-10.465-5.673-15.883-1.037-3.029-2.89-5.72-4.016-8.718-1.516-4.034-1.654-8.434-1.774-12.741q-.551-19.65-1.1-39.3l.479,35.542c.15,11.189.518,23.1,6.811,32.357a38.625,38.625,0,0,1-5.042-12.994l3.64,13.717.161-7.1,3.3,4.411-.007-10.284c.6,1.257,2.558-.184,2.572-1.578s-.549-3.044.45-4.016l.878,5.026.092-9.673a4.109,4.109,0,0,1,1.34,2.353,52.545,52.545,0,0,1,.85-8.137,38.028,38.028,0,0,1-4.141,10.623l.515-4.733-1.5,17.824.567-3.8.717,6.356,1.208-5.956a31.946,31.946,0,0,1-.128,10.922,12.172,12.172,0,0,1-.995-5.138l-1.643,5.742a14.872,14.872,0,0,1-4.52-7.2l-1.292,3.26a15.352,15.352,0,0,0,3.775,5.8l2.454-1.967a2.175,2.175,0,0,1,1.054,3.062,20.658,20.658,0,0,1,5.21-17.2" fill="none" stroke="#c4c2c3" stroke-miterlimit="10" stroke-width="3" opacity="0.34"/>
      <path id="Trazado_117068" data-name="Trazado 117068" d="M1917.888,3058.893l.008,7.362a15.726,15.726,0,0,1,.34-5.273,12.109,12.109,0,0,1,.694,6.273l-.712-5.635,1.559,7.15a20.515,20.515,0,0,1-5.2-6.115,5.949,5.949,0,0,1,1.327,6.307,25.712,25.712,0,0,1-5.3-9.324,4.84,4.84,0,0,0-.361,3.231,16.616,16.616,0,0,1,3.318-8.038,9.182,9.182,0,0,1-1.14,10.656,8.069,8.069,0,0,0,9.387,2.463,3.688,3.688,0,0,1-2.908,4.745l5-2.232a3.824,3.824,0,0,1-1.2,3.607c-.509-1.559,1.619-3.11,3.047-2.3a2.614,2.614,0,0,1,.126,4.152l1.126-2.6,1.422,2.671-4.324,10.8a3.11,3.11,0,0,1,.75-2.766,45.65,45.65,0,0,1-5.322,13.312,17.5,17.5,0,0,1,2.368-10.3,46.606,46.606,0,0,1-2.463,12.674,65.914,65.914,0,0,1,.125-14.443,143.534,143.534,0,0,1-.172,16.862l.1-9.485a72.651,72.651,0,0,1-4.334,25.7l.176-2.024a18.851,18.851,0,0,1-1.318,12.5,19.734,19.734,0,0,1,3.032-10.159,10.067,10.067,0,0,1-1.2,5.888l3.129-6.9a16.1,16.1,0,0,1-2.555,5.89,81,81,0,0,1,3.227-17.134c-.364.57.623,1.2,1.193.842a2.273,2.273,0,0,0,.755-1.8,146.778,146.778,0,0,0,.259-24.143,11.967,11.967,0,0,1-4.246-7.317c3.741,16.74-2.5,34.1-1.628,51.229a17.872,17.872,0,0,1,5.984-10.2,34.012,34.012,0,0,1-.214,9.114,54.4,54.4,0,0,1,.377-10.1l1.472,12.458a10.083,10.083,0,0,0-.338-3.962l.806,3.257-.191-4.288-6.256,8.148-.71-1.864-3.593,8.576a9.132,9.132,0,0,1-.566-3.775,17.624,17.624,0,0,0-1.809,4.9l1.508-6.436-.7,4" fill="none" stroke="#c4c2c3" stroke-miterlimit="10" stroke-width="3" opacity="0.34"/>
      <path id="Trazado_117069" data-name="Trazado 117069" d="M1957.853,3017.025c.176-.468.723.288.585.769a21.3,21.3,0,0,1-13.195,13.952,41.491,41.491,0,0,0,10.73-9.322,4.345,4.345,0,0,0-1.929,1.467" fill="none" stroke="#c4c2c3" stroke-miterlimit="10" stroke-width="3" opacity="0.34"/>
      <path id="Trazado_117070" data-name="Trazado 117070" d="M1969.035,2996.521a.635.635,0,0,0,.161-1.029,110.992,110.992,0,0,0-2.333,13.06,13.529,13.529,0,0,0,1.326-7.368,44.466,44.466,0,0,0-2.172,14.069,6.034,6.034,0,0,1,1.814-1.841" fill="none" stroke="#c4c2c3" stroke-miterlimit="10" stroke-width="3" opacity="0.34"/>
      <path id="Trazado_117071" data-name="Trazado 117071" d="M1988.83,2998.173a224.041,224.041,0,0,0-7.613,34.447,21.536,21.536,0,0,0,1.4-4.878l3.969-19.588c1.091,3.067.317,6.438-.265,9.641a77.435,77.435,0,0,0-1.032,19.549" fill="none" stroke="#c4c2c3" stroke-miterlimit="10" stroke-width="3" opacity="0.34"/>
      <line id="Línea_521" data-name="Línea 521" x1="52.243" y2="47.962" transform="translate(1969.379 2972.422)" fill="none" stroke="#706f6f" stroke-miterlimit="10" stroke-width="1"/>
      <line id="Línea_521-2" data-name="Línea 521" x1="41.972" transform="translate(2004.022 3052.325)" fill="none" stroke="#706f6f" stroke-miterlimit="10" stroke-width="1"/>
      <line id="Línea_521-3" data-name="Línea 521" x1="30.326" transform="translate(2012.906 3208.726)" fill="none" stroke="#706f6f" stroke-miterlimit="10" stroke-width="1"/>
    </g>
  </g>
</svg>
