<svg xmlns="http://www.w3.org/2000/svg" width="796" height="238" viewBox="0 0 796 238"><g transform="translate(-284 -11594.928)"><rect width="796" height="238" transform="translate(284 11594.928)" fill="#fff"/><g transform="translate(-130 618.835)"><path d="M-7039.333-708.667v85.333l16.68,16.68h63.32l16.68-16.68v-85.333Z" transform="translate(7785.333 11699.667)" fill="#ff9696" stroke="#5b4d52" stroke-width="2"/></g><rect width="200" height="60" rx="6" transform="translate(564 11729.835)" fill="#ff9696" opacity="0.25"/><rect width="200" height="60" rx="6" transform="translate(323 11739.928)" fill="#ff9696" opacity="0.25"/><text transform="translate(342 11744.928)" fill="#12263f" font-size="16" font-family="Roboto-Regular, Roboto"><tspan x="15.906" y="17">Hilo marcado en 1 </tspan><tspan x="15.184" y="41">dirección, sin rotar</tspan></text><text transform="translate(583 11747.835)" fill="#12263f" font-size="16" font-family="Roboto-Regular, Roboto"><tspan x="4.238" y="17">Hilo en molde bolsillo</tspan></text><path d="M-7039.334-708.667v60.47l11.82,11.82h44.87l11.819-11.82v-60.47Z" transform="translate(7884.829 12352.167)" fill="#ff9696" stroke="#5b4d52" stroke-width="2"/><path d="M-7039.334-708.667v60.47l11.82,11.82h44.87l11.819-11.82v-60.47Z" transform="translate(7970.829 12352.167)" fill="#ff9696" stroke="#5b4d52" stroke-width="2"/><rect width="238" height="60" rx="6" transform="translate(804 11729.835)" fill="#ff9696" opacity="0.25"/><text transform="translate(813 11734.835)" fill="#12263f" font-size="16" font-family="Roboto-Regular, Roboto"><tspan x="11.074" y="17">Bolsillos tizados en la tela 1 </tspan><tspan x="60.098" y="41">sola dirección</tspan></text><path d="M275.155,223.3h2.118V142.514l3.98,1.44a32.018,32.018,0,0,1-5.039-9.057,32.053,32.053,0,0,1-5.039,9.057l3.98-1.44Z" transform="translate(168.036 11497.533)" fill="#5b4d52"/><path d="M275.155,208.227h2.118V141.215l3.98,1.194a25.691,25.691,0,0,1-5.039-7.513,25.719,25.719,0,0,1-5.039,7.513l3.98-1.194Z" transform="translate(356.036 11487.439)" fill="#5b4d52"/><path d="M275.155,191.245h2.118V139.751l3.98.918a20.321,20.321,0,0,1-5.039-5.773,20.343,20.343,0,0,1-5.039,5.773l3.98-.918Z" transform="translate(603.82 11516.104)" fill="#5b4d52"/><path d="M275.155,191.245h2.118V139.751l3.98.918a20.321,20.321,0,0,1-5.039-5.773,20.343,20.343,0,0,1-5.039,5.773l3.98-.918Z" transform="translate(689.82 11516.104)" fill="#5b4d52"/><path d="M275.155,223.3h2.118V142.514l3.98,1.44a32.018,32.018,0,0,1-5.039-9.057,32.053,32.053,0,0,1-5.039,9.057l3.98-1.44Z" transform="translate(677.464 11855.73) rotate(180)" fill="#5b4d52"/><path d="M7.349,15H.827v-.909l3.445-3.828A8.185,8.185,0,0,0,5.329,8.851a2.356,2.356,0,0,0,.291-1.125,1.786,1.786,0,0,0-.472-1.278,1.649,1.649,0,0,0-1.258-.5,1.953,1.953,0,0,0-1.466.537A2.05,2.05,0,0,0,1.9,7.979H.636a2.936,2.936,0,0,1,.885-2.222A3.282,3.282,0,0,1,3.89,4.91a3.153,3.153,0,0,1,2.194.728,2.483,2.483,0,0,1,.807,1.938q0,1.47-1.873,3.5L2.352,13.968h5Zm4.915-6.139,2.386-3.814h1.545L13.05,9.982,16.27,15H14.711l-2.447-3.883L9.8,15H8.251l3.227-5.018L8.326,5.047H9.864ZM24.671,6.12h-3.2V15H20.166V6.12H16.974V5.047h7.7ZM1.155,31V21.047H4.409a3.777,3.777,0,0,1,2.437.67A2.414,2.414,0,0,1,7.663,23.7a2.022,2.022,0,0,1-.4,1.234,2.57,2.57,0,0,1-1.08.831,2.308,2.308,0,0,1,1.275.858,2.462,2.462,0,0,1,.468,1.507,2.662,2.662,0,0,1-.868,2.105A3.59,3.59,0,0,1,4.607,31Zm1.313-4.655v3.582H4.635a2.087,2.087,0,0,0,1.446-.475,1.669,1.669,0,0,0,.53-1.309q0-1.8-1.955-1.8Zm0-1.053H4.45a2.078,2.078,0,0,0,1.377-.432,1.447,1.447,0,0,0,.516-1.171,1.423,1.423,0,0,0-.479-1.2,2.35,2.35,0,0,0-1.456-.373H2.468Zm6.87,1.941a4.369,4.369,0,0,1,.427-1.955,3.187,3.187,0,0,1,1.189-1.34,3.238,3.238,0,0,1,1.74-.472,3.119,3.119,0,0,1,2.444,1.046,4.024,4.024,0,0,1,.933,2.782v.089a4.407,4.407,0,0,1-.414,1.938,3.14,3.14,0,0,1-1.183,1.336,3.275,3.275,0,0,1-1.767.479,3.111,3.111,0,0,1-2.437-1.046,4,4,0,0,1-.933-2.769Zm1.271.15a3.164,3.164,0,0,0,.571,1.976,1.934,1.934,0,0,0,3.059-.01,3.46,3.46,0,0,0,.567-2.116,3.159,3.159,0,0,0-.578-1.972,1.836,1.836,0,0,0-1.535-.755,1.816,1.816,0,0,0-1.511.745A3.434,3.434,0,0,0,10.609,27.384ZM19.031,31H17.767V20.5h1.265Zm6.33-1.962a.931.931,0,0,0-.386-.8,3.718,3.718,0,0,0-1.347-.489,6.367,6.367,0,0,1-1.524-.492,2.169,2.169,0,0,1-.834-.684,1.635,1.635,0,0,1-.27-.943,1.919,1.919,0,0,1,.769-1.538,3,3,0,0,1,1.965-.629,3.091,3.091,0,0,1,2.041.649,2.063,2.063,0,0,1,.783,1.661H25.286a1.142,1.142,0,0,0-.441-.9,1.652,1.652,0,0,0-1.111-.376,1.729,1.729,0,0,0-1.08.3.947.947,0,0,0-.39.786.767.767,0,0,0,.362.69,4.458,4.458,0,0,0,1.309.444,6.821,6.821,0,0,1,1.535.506,2.239,2.239,0,0,1,.872.708,1.74,1.74,0,0,1,.284,1.008,1.893,1.893,0,0,1-.793,1.589,3.326,3.326,0,0,1-2.058.6,3.725,3.725,0,0,1-1.572-.314,2.557,2.557,0,0,1-1.07-.878,2.117,2.117,0,0,1-.386-1.22h1.265a1.309,1.309,0,0,0,.509,1.008,1.976,1.976,0,0,0,1.254.373,2.039,2.039,0,0,0,1.152-.291A.893.893,0,0,0,25.361,29.038ZM29.647,31H28.383V23.6h1.265ZM28.28,21.642a.755.755,0,0,1,.188-.52.706.706,0,0,1,.557-.212.717.717,0,0,1,.561.212.747.747,0,0,1,.191.52.722.722,0,0,1-.191.513.73.73,0,0,1-.561.205.718.718,0,0,1-.557-.205A.73.73,0,0,1,28.28,21.642ZM33.045,31H31.78V20.5h1.265Zm3.4,0H35.178V20.5h1.265Zm1.688-3.767a4.369,4.369,0,0,1,.427-1.955,3.187,3.187,0,0,1,1.189-1.34,3.238,3.238,0,0,1,1.74-.472,3.119,3.119,0,0,1,2.444,1.046,4.024,4.024,0,0,1,.933,2.782v.089a4.407,4.407,0,0,1-.414,1.938,3.14,3.14,0,0,1-1.183,1.336,3.275,3.275,0,0,1-1.767.479,3.111,3.111,0,0,1-2.437-1.046,4,4,0,0,1-.933-2.769Zm1.271.15a3.164,3.164,0,0,0,.571,1.976,1.934,1.934,0,0,0,3.059-.01,3.46,3.46,0,0,0,.567-2.116,3.159,3.159,0,0,0-.578-1.972,1.836,1.836,0,0,0-1.535-.755,1.816,1.816,0,0,0-1.511.745A3.434,3.434,0,0,0,39.4,27.384Z" transform="translate(653 11637.835)" fill="#12263f"/><g transform="translate(646 11632)" fill="none" stroke="#707070" stroke-width="1"><rect width="59" height="47" stroke="none"/><rect x="0.5" y="0.5" width="58" height="46" fill="none"/></g></g></svg>