<svg xmlns="http://www.w3.org/2000/svg" width="129.897" height="553.5" viewBox="0 0 129.897 553.5"><g transform="translate(137.861 -44.172)"><g transform="translate(-134.653 192.599)"><path d="M-126.207,119.007a5.127,5.127,0,0,0-4.681,3.037l-1.815,4.064a3.565,3.565,0,0,0,2.2,4.78l.075.028a4.152,4.152,0,0,0,5.232-2.009l2.37-5.308a3.261,3.261,0,0,0-2.979-4.592Z" transform="translate(139.431 -119.007)" fill="#ff9696"/><path d="M-120.991,125.066l-.075-.028a4.151,4.151,0,0,0-5.232,2.009l-6.4,14.344a3.567,3.567,0,0,0,2.2,4.782l.075.028a4.151,4.151,0,0,0,5.232-2.011l6.4-14.344A3.565,3.565,0,0,0-120.991,125.066Z" transform="translate(139.431 -113.344)" fill="#ff9696"/><path d="M-133.67,125.038l-.075.028a3.566,3.566,0,0,0-2.2,4.78l4.586,10.268,4.377-9.8-1.456-3.263A4.15,4.15,0,0,0-133.67,125.038Z" transform="translate(136.243 -113.344)" fill="#ff9696"/><path d="M-120.988,140.441l.073.028a4.155,4.155,0,0,0,5.234-2.009l6.4-14.346a3.566,3.566,0,0,0-2.2-4.78l-.073-.028a4.152,4.152,0,0,0-5.232,2.009l-6.406,14.346A3.567,3.567,0,0,0-120.988,140.441Z" transform="translate(148.788 -118.981)" fill="#ff9696"/><path d="M-126.43,124.114l4.584,10.27,4.379-9.806-1.458-3.263a4.15,4.15,0,0,0-5.23-2.009l-.075.028A3.564,3.564,0,0,0-126.43,124.114Z" transform="translate(145.6 -118.981)" fill="#ff9696"/><path d="M-111.551,129.868a4.152,4.152,0,0,0-5.232,2.009l-6.406,14.344a3.567,3.567,0,0,0,2.2,4.78l.073.03a4.156,4.156,0,0,0,5.234-2.011l6.4-14.344a3.566,3.566,0,0,0-2.2-4.78Z" transform="translate(148.788 -108.594)" fill="#ff9696"/><path d="M-124.155,129.868l-.075.028a3.564,3.564,0,0,0-2.2,4.78l4.584,10.268,4.379-9.806-1.458-3.261A4.15,4.15,0,0,0-124.155,129.868Z" transform="translate(145.6 -108.594)" fill="#ff9696"/><path d="M-106.929,119.007a5.127,5.127,0,0,0-4.681,3.037l-1.813,4.064a3.564,3.564,0,0,0,2.2,4.78l.077.028a4.151,4.151,0,0,0,5.23-2.009l2.37-5.308a3.262,3.262,0,0,0-2.977-4.592Z" transform="translate(158.391 -119.007)" fill="#ff9696"/><path d="M-101.713,125.066l-.075-.028a4.148,4.148,0,0,0-5.23,2.009l-6.4,14.344a3.566,3.566,0,0,0,2.2,4.782l.077.028a4.15,4.15,0,0,0,5.23-2.011l6.4-14.344A3.563,3.563,0,0,0-101.713,125.066Z" transform="translate(158.391 -113.344)" fill="#ff9696"/><path d="M-114.391,125.038l-.073.028a3.566,3.566,0,0,0-2.2,4.78l4.586,10.268,4.377-9.8-1.456-3.263A4.15,4.15,0,0,0-114.391,125.038Z" transform="translate(155.202 -113.344)" fill="#ff9696"/><path d="M-101.709,140.441l.075.028A4.153,4.153,0,0,0-96.4,138.46l6.4-14.346a3.567,3.567,0,0,0-2.2-4.78l-.075-.028a4.152,4.152,0,0,0-5.232,2.009l-6.4,14.346A3.565,3.565,0,0,0-101.709,140.441Z" transform="translate(167.747 -118.981)" fill="#ff9696"/><path d="M-107.151,124.114l4.586,10.27,4.377-9.806-1.456-3.263a4.153,4.153,0,0,0-5.232-2.009l-.075.028A3.565,3.565,0,0,0-107.151,124.114Z" transform="translate(164.559 -118.981)" fill="#ff9696"/><path d="M-92.272,129.868a4.152,4.152,0,0,0-5.232,2.009l-6.4,14.344a3.564,3.564,0,0,0,2.2,4.78l.075.03A4.154,4.154,0,0,0-96.4,149.02l6.4-14.344a3.567,3.567,0,0,0-2.2-4.78Z" transform="translate(167.747 -108.594)" fill="#ff9696"/><path d="M-104.876,129.868l-.075.028a3.565,3.565,0,0,0-2.2,4.78l4.586,10.268,4.377-9.806-1.456-3.261A4.153,4.153,0,0,0-104.876,129.868Z" transform="translate(164.559 -108.594)" fill="#ff9696"/><path d="M-87.648,119.007a5.13,5.13,0,0,0-4.683,3.037l-1.815,4.064a3.567,3.567,0,0,0,2.2,4.78l.073.028a4.156,4.156,0,0,0,5.234-2.009l2.368-5.308a3.261,3.261,0,0,0-2.977-4.592Z" transform="translate(177.35 -119.007)" fill="#ff9696"/><path d="M-82.434,125.066l-.073-.028a4.15,4.15,0,0,0-5.232,2.009l-6.406,14.344a3.569,3.569,0,0,0,2.2,4.782l.073.028a4.155,4.155,0,0,0,5.234-2.011l6.4-14.344A3.567,3.567,0,0,0-82.434,125.066Z" transform="translate(177.35 -113.344)" fill="#ff9696"/><path d="M-95.111,125.038l-.075.028a3.563,3.563,0,0,0-2.2,4.78l4.584,10.268,4.379-9.8-1.458-3.263A4.149,4.149,0,0,0-95.111,125.038Z" transform="translate(174.161 -113.344)" fill="#ff9696"/><path d="M-82.43,140.441l.075.028a4.152,4.152,0,0,0,5.232-2.009l6.4-14.346a3.567,3.567,0,0,0-2.2-4.78l-.075-.028a4.152,4.152,0,0,0-5.232,2.009l-6.4,14.346A3.565,3.565,0,0,0-82.43,140.441Z" transform="translate(186.706 -118.981)" fill="#ff9696"/><path d="M-87.872,124.114l4.584,10.27,4.379-9.806-1.456-3.263a4.152,4.152,0,0,0-5.232-2.009l-.075.028A3.567,3.567,0,0,0-87.872,124.114Z" transform="translate(183.518 -118.981)" fill="#ff9696"/><path d="M-72.918,129.9l-.075-.028a4.152,4.152,0,0,0-5.232,2.009l-6.4,14.344a3.564,3.564,0,0,0,2.2,4.78l.075.03a4.153,4.153,0,0,0,5.232-2.011l6.4-14.344A3.567,3.567,0,0,0-72.918,129.9Z" transform="translate(186.706 -108.594)" fill="#ff9696"/><path d="M-80.365,131.878a4.152,4.152,0,0,0-5.232-2.009l-.075.028a3.567,3.567,0,0,0-2.2,4.78l4.584,10.268,4.379-9.806Z" transform="translate(183.518 -108.594)" fill="#ff9696"/><path d="M-120.991,135.627l-.075-.028a4.152,4.152,0,0,0-5.232,2.011l-6.4,14.344a3.564,3.564,0,0,0,2.2,4.78l.075.028a4.152,4.152,0,0,0,5.232-2.009l6.4-14.346A3.565,3.565,0,0,0-120.991,135.627Z" transform="translate(139.431 -102.959)" fill="#ff9696"/><path d="M-135.945,140.407l4.586,10.27,4.377-9.806-1.456-3.261a4.151,4.151,0,0,0-5.232-2.011l-.075.028A3.567,3.567,0,0,0-135.945,140.407Z" transform="translate(136.243 -102.959)" fill="#ff9696"/><path d="M-130.5,167.3l.075.028a4.151,4.151,0,0,0,5.232-2.011l6.4-14.344a3.565,3.565,0,0,0-2.2-4.78l-.075-.028a4.151,4.151,0,0,0-5.232,2.009l-6.4,14.344A3.567,3.567,0,0,0-130.5,167.3Z" transform="translate(139.431 -92.572)" fill="#ff9696"/><path d="M-135.945,150.969l4.586,10.268,4.377-9.806-1.456-3.261a4.15,4.15,0,0,0-5.232-2.009l-.075.028A3.567,3.567,0,0,0-135.945,150.969Z" transform="translate(136.243 -92.572)" fill="#ff9696"/><path d="M-111.551,140.429a4.152,4.152,0,0,0-5.232,2.009l-6.406,14.346a3.567,3.567,0,0,0,2.2,4.78l.073.028a4.155,4.155,0,0,0,5.234-2.009l6.4-14.346a3.566,3.566,0,0,0-2.2-4.78Z" transform="translate(148.788 -98.209)" fill="#ff9696"/><path d="M-124.155,140.429l-.075.028a3.564,3.564,0,0,0-2.2,4.78l4.584,10.27,4.379-9.806-1.458-3.263A4.15,4.15,0,0,0-124.155,140.429Z" transform="translate(145.6 -98.209)" fill="#ff9696"/><path d="M-120.988,172.124l.073.03a4.156,4.156,0,0,0,5.234-2.011l6.4-14.344a3.566,3.566,0,0,0-2.2-4.78l-.073-.028A4.152,4.152,0,0,0-116.783,153l-6.406,14.344A3.567,3.567,0,0,0-120.988,172.124Z" transform="translate(148.788 -87.822)" fill="#ff9696"/><path d="M-121.846,166.067l4.379-9.806L-118.924,153a4.15,4.15,0,0,0-5.23-2.009l-.075.028a3.563,3.563,0,0,0-2.2,4.78Z" transform="translate(145.6 -87.822)" fill="#ff9696"/><path d="M-101.713,135.627l-.075-.028a4.149,4.149,0,0,0-5.23,2.011l-6.4,14.344a3.563,3.563,0,0,0,2.2,4.78l.077.028a4.151,4.151,0,0,0,5.23-2.009l6.4-14.346A3.564,3.564,0,0,0-101.713,135.627Z" transform="translate(158.391 -102.959)" fill="#ff9696"/><path d="M-114.391,135.6l-.073.028a3.566,3.566,0,0,0-2.2,4.78l4.586,10.27,4.377-9.806-1.456-3.261A4.151,4.151,0,0,0-114.391,135.6Z" transform="translate(155.202 -102.959)" fill="#ff9696"/><path d="M-105.917,165.313l6.4-14.344a3.564,3.564,0,0,0-2.2-4.78l-.075-.028a4.148,4.148,0,0,0-5.23,2.009l-6.4,14.344a3.566,3.566,0,0,0,2.2,4.782l.077.028A4.15,4.15,0,0,0-105.917,165.313Z" transform="translate(158.391 -92.572)" fill="#ff9696"/><path d="M-114.391,146.161l-.073.028a3.566,3.566,0,0,0-2.2,4.78l4.586,10.268,4.377-9.806-1.456-3.261A4.15,4.15,0,0,0-114.391,146.161Z" transform="translate(155.202 -92.572)" fill="#ff9696"/><path d="M-92.272,140.429a4.152,4.152,0,0,0-5.232,2.009l-6.4,14.346a3.565,3.565,0,0,0,2.2,4.78l.075.028a4.153,4.153,0,0,0,5.232-2.009l6.4-14.346a3.567,3.567,0,0,0-2.2-4.78Z" transform="translate(167.747 -98.209)" fill="#ff9696"/><path d="M-104.876,140.429l-.075.028a3.565,3.565,0,0,0-2.2,4.78l4.586,10.27,4.377-9.806-1.456-3.263A4.153,4.153,0,0,0-104.876,140.429Z" transform="translate(164.559 -98.209)" fill="#ff9696"/><path d="M-101.709,172.124l.075.03a4.154,4.154,0,0,0,5.232-2.011L-90,155.8a3.566,3.566,0,0,0-2.2-4.78l-.075-.028A4.152,4.152,0,0,0-97.5,153l-6.4,14.344A3.564,3.564,0,0,0-101.709,172.124Z" transform="translate(167.747 -87.822)" fill="#ff9696"/><path d="M-102.565,166.067l4.377-9.806L-99.644,153a4.153,4.153,0,0,0-5.232-2.009l-.075.028a3.565,3.565,0,0,0-2.2,4.78Z" transform="translate(164.559 -87.822)" fill="#ff9696"/><path d="M-86.636,154.753l6.4-14.346a3.568,3.568,0,0,0-2.2-4.78l-.073-.028a4.151,4.151,0,0,0-5.232,2.011l-6.406,14.344a3.567,3.567,0,0,0,2.2,4.78l.073.028A4.156,4.156,0,0,0-86.636,154.753Z" transform="translate(177.35 -102.959)" fill="#ff9696"/><path d="M-95.111,135.6l-.075.028a3.564,3.564,0,0,0-2.2,4.78l4.584,10.27,4.379-9.806-1.458-3.261A4.15,4.15,0,0,0-95.111,135.6Z" transform="translate(174.161 -102.959)" fill="#ff9696"/><path d="M-86.636,165.313l6.4-14.344a3.568,3.568,0,0,0-2.2-4.78l-.073-.028a4.15,4.15,0,0,0-5.232,2.009l-6.406,14.344a3.569,3.569,0,0,0,2.2,4.782l.073.028A4.154,4.154,0,0,0-86.636,165.313Z" transform="translate(177.35 -92.572)" fill="#ff9696"/><path d="M-95.111,146.161l-.075.028a3.564,3.564,0,0,0-2.2,4.78l4.584,10.268,4.379-9.806-1.458-3.261A4.149,4.149,0,0,0-95.111,146.161Z" transform="translate(174.161 -92.572)" fill="#ff9696"/><path d="M-72.918,140.457l-.075-.028a4.152,4.152,0,0,0-5.232,2.009l-6.4,14.346a3.565,3.565,0,0,0,2.2,4.78l.075.028a4.152,4.152,0,0,0,5.232-2.009l6.4-14.346A3.567,3.567,0,0,0-72.918,140.457Z" transform="translate(186.706 -98.209)" fill="#ff9696"/><path d="M-80.365,142.439a4.152,4.152,0,0,0-5.232-2.009l-.075.028a3.567,3.567,0,0,0-2.2,4.78l4.584,10.27,4.379-9.806Z" transform="translate(183.518 -98.209)" fill="#ff9696"/><path d="M-72.918,151.019l-.075-.028A4.152,4.152,0,0,0-78.226,153l-6.4,14.344a3.564,3.564,0,0,0,2.2,4.78l.075.03a4.153,4.153,0,0,0,5.232-2.011l6.4-14.344A3.566,3.566,0,0,0-72.918,151.019Z" transform="translate(186.706 -87.822)" fill="#ff9696"/><path d="M-83.289,166.067l4.379-9.806L-80.365,153a4.152,4.152,0,0,0-5.232-2.009l-.075.028a3.566,3.566,0,0,0-2.2,4.78Z" transform="translate(183.518 -87.822)" fill="#ff9696"/><path d="M-125.2,175.876l6.4-14.346a3.565,3.565,0,0,0-2.2-4.78l-.075-.028a4.153,4.153,0,0,0-5.232,2.009l-6.4,14.346a3.565,3.565,0,0,0,2.2,4.78l.075.028A4.152,4.152,0,0,0-125.2,175.876Z" transform="translate(139.431 -82.186)" fill="#ff9696"/><path d="M-135.945,161.53l4.586,10.27,4.377-9.806-1.456-3.263a4.152,4.152,0,0,0-5.232-2.009l-.075.028A3.567,3.567,0,0,0-135.945,161.53Z" transform="translate(136.243 -82.186)" fill="#ff9696"/><path d="M-125.2,186.436l6.4-14.344a3.565,3.565,0,0,0-2.2-4.78l-.075-.028a4.153,4.153,0,0,0-5.232,2.009l-6.4,14.344a3.564,3.564,0,0,0,2.2,4.78l.075.03A4.153,4.153,0,0,0-125.2,186.436Z" transform="translate(139.431 -71.8)" fill="#ff9696"/><path d="M-135.945,172.092l4.586,10.268,4.377-9.806-1.456-3.261a4.152,4.152,0,0,0-5.232-2.009l-.075.028A3.567,3.567,0,0,0-135.945,172.092Z" transform="translate(136.243 -71.8)" fill="#ff9696"/><path d="M-120.988,182.687l.073.028a4.155,4.155,0,0,0,5.234-2.009l6.4-14.344a3.568,3.568,0,0,0-2.2-4.782l-.073-.028a4.152,4.152,0,0,0-5.232,2.009l-6.406,14.346A3.568,3.568,0,0,0-120.988,182.687Z" transform="translate(148.788 -77.437)" fill="#ff9696"/><path d="M-121.846,176.63l4.379-9.806-1.458-3.263a4.15,4.15,0,0,0-5.23-2.009l-.075.028a3.565,3.565,0,0,0-2.2,4.782Z" transform="translate(145.6 -77.437)" fill="#ff9696"/><path d="M-112.376,172.14l-.073-.026a4.152,4.152,0,0,0-5.232,2.009l-4.891,10.952h8.757l3.642-8.154A3.568,3.568,0,0,0-112.376,172.14Z" transform="translate(149.687 -67.05)" fill="#ff9696"/><path d="M-118.924,174.123a4.15,4.15,0,0,0-5.23-2.009l-.075.026a3.566,3.566,0,0,0-2.2,4.782l3.64,8.154h1.888l3.435-7.692Z" transform="translate(145.6 -67.05)" fill="#ff9696"/><path d="M-105.917,175.876l6.4-14.346a3.564,3.564,0,0,0-2.2-4.78l-.075-.028a4.15,4.15,0,0,0-5.23,2.009l-6.4,14.346a3.564,3.564,0,0,0,2.2,4.78l.077.028A4.151,4.151,0,0,0-105.917,175.876Z" transform="translate(158.391 -82.186)" fill="#ff9696"/><path d="M-112.081,171.8l4.377-9.806-1.456-3.263a4.152,4.152,0,0,0-5.232-2.009l-.073.028a3.566,3.566,0,0,0-2.2,4.78Z" transform="translate(155.202 -82.186)" fill="#ff9696"/><path d="M-105.917,186.436l6.4-14.344a3.564,3.564,0,0,0-2.2-4.78l-.075-.028a4.15,4.15,0,0,0-5.23,2.009l-6.4,14.344a3.563,3.563,0,0,0,2.2,4.78l.077.03A4.152,4.152,0,0,0-105.917,186.436Z" transform="translate(158.391 -71.8)" fill="#ff9696"/><path d="M-112.081,182.36l4.377-9.806-1.456-3.261a4.152,4.152,0,0,0-5.232-2.009l-.073.028a3.566,3.566,0,0,0-2.2,4.78Z" transform="translate(155.202 -71.8)" fill="#ff9696"/><path d="M-101.709,182.687l.075.028a4.153,4.153,0,0,0,5.232-2.009l6.4-14.344a3.568,3.568,0,0,0-2.2-4.782l-.075-.028a4.152,4.152,0,0,0-5.232,2.009l-6.4,14.346A3.565,3.565,0,0,0-101.709,182.687Z" transform="translate(167.747 -77.437)" fill="#ff9696"/><path d="M-102.565,176.63l4.377-9.806-1.456-3.263a4.153,4.153,0,0,0-5.232-2.009l-.075.028a3.567,3.567,0,0,0-2.2,4.782Z" transform="translate(164.559 -77.437)" fill="#ff9696"/><path d="M-93.1,172.14l-.075-.026a4.152,4.152,0,0,0-5.232,2.009l-4.891,10.952h8.757l3.642-8.154A3.569,3.569,0,0,0-93.1,172.14Z" transform="translate(168.645 -67.05)" fill="#ff9696"/><path d="M-99.644,174.123a4.153,4.153,0,0,0-5.232-2.009l-.075.026a3.567,3.567,0,0,0-2.2,4.782l3.64,8.154h1.888l3.435-7.692Z" transform="translate(164.559 -67.05)" fill="#ff9696"/><path d="M-86.636,175.876l6.4-14.346a3.568,3.568,0,0,0-2.2-4.78l-.073-.028a4.152,4.152,0,0,0-5.232,2.009l-6.406,14.346a3.567,3.567,0,0,0,2.2,4.78l.073.028A4.156,4.156,0,0,0-86.636,175.876Z" transform="translate(177.35 -82.186)" fill="#ff9696"/><path d="M-92.8,171.8l4.379-9.806-1.458-3.263a4.151,4.151,0,0,0-5.23-2.009l-.075.028a3.564,3.564,0,0,0-2.2,4.78Z" transform="translate(174.161 -82.186)" fill="#ff9696"/><path d="M-86.636,186.436l6.4-14.344a3.568,3.568,0,0,0-2.2-4.78l-.073-.028a4.152,4.152,0,0,0-5.232,2.009l-6.406,14.344a3.567,3.567,0,0,0,2.2,4.78l.073.03A4.156,4.156,0,0,0-86.636,186.436Z" transform="translate(177.35 -71.8)" fill="#ff9696"/><path d="M-92.8,182.36l4.379-9.806-1.458-3.261a4.151,4.151,0,0,0-5.23-2.009l-.075.028a3.564,3.564,0,0,0-2.2,4.78Z" transform="translate(174.161 -71.8)" fill="#ff9696"/><path d="M-82.43,182.687l.075.028a4.152,4.152,0,0,0,5.232-2.009l6.4-14.344a3.568,3.568,0,0,0-2.2-4.782l-.075-.028a4.152,4.152,0,0,0-5.232,2.009l-6.4,14.346A3.565,3.565,0,0,0-82.43,182.687Z" transform="translate(186.706 -77.437)" fill="#ff9696"/><path d="M-83.289,176.63l4.379-9.806-1.456-3.263a4.152,4.152,0,0,0-5.232-2.009l-.075.028a3.568,3.568,0,0,0-2.2,4.782Z" transform="translate(183.518 -77.437)" fill="#ff9696"/><path d="M-73.816,172.14l-.075-.026a4.152,4.152,0,0,0-5.232,2.009l-4.891,10.952h8.757l3.642-8.154A3.569,3.569,0,0,0-73.816,172.14Z" transform="translate(187.604 -67.05)" fill="#ff9696"/><path d="M-80.365,174.123a4.152,4.152,0,0,0-5.232-2.009l-.075.026a3.569,3.569,0,0,0-2.2,4.782l3.642,8.154h1.886l3.435-7.692Z" transform="translate(183.518 -67.05)" fill="#ff9696"/></g><g transform="translate(-132.414 44.172)"><rect width="119.004" height="8.348" fill="#ffad54"/><rect width="119.004" height="8.348" transform="translate(0 14.353)" fill="#ffad54"/><rect width="119.004" height="8.348" transform="translate(0 28.705)" fill="#ffad54"/><rect width="119.004" height="8.348" transform="translate(0 43.057)" fill="#ffad54"/><rect width="119.004" height="8.348" transform="translate(0 57.41)" fill="#ffad54"/><rect width="119.004" height="8.348" transform="translate(0 71.763)" fill="#ffad54"/><rect width="119.004" height="8.348" transform="translate(0 86.115)" fill="#ffad54"/><g opacity="0.5"><rect width="8.066" height="94.563" fill="#ffad54"/><rect width="8.066" height="94.563" transform="translate(13.867)" fill="#ffad54"/><rect width="8.066" height="94.563" transform="translate(27.735)" fill="#ffad54"/><rect width="8.066" height="94.563" transform="translate(41.602)" fill="#ffad54"/><rect width="8.066" height="94.563" transform="translate(55.469)" fill="#ffad54"/><rect width="8.066" height="94.563" transform="translate(69.336)" fill="#ffad54"/><rect width="8.066" height="94.563" transform="translate(83.204)" fill="#ffad54"/><rect width="8.065" height="94.563" transform="translate(97.071)" fill="#ffad54"/><rect width="8.065" height="94.563" transform="translate(110.938)" fill="#ffad54"/></g><g transform="translate(0 94.463)"><rect width="4.034" height="18.864" fill="#ffad54"/><rect width="4.034" height="18.864" transform="translate(8.844)" fill="#ffad54"/><rect width="4.033" height="18.864" transform="translate(17.688)" fill="#ffad54"/><rect width="4.034" height="18.864" transform="translate(26.532)" fill="#ffad54"/><rect width="4.034" height="18.864" transform="translate(35.376)" fill="#ffad54"/><rect width="4.034" height="18.864" transform="translate(44.22)" fill="#ffad54"/><rect width="4.034" height="18.864" transform="translate(53.064)" fill="#ffad54"/><rect width="4.034" height="18.864" transform="translate(61.907)" fill="#ffad54"/><rect width="4.033" height="18.864" transform="translate(70.751)" fill="#ffad54"/><rect width="4.033" height="18.864" transform="translate(79.595)" fill="#ffad54"/><rect width="4.034" height="18.864" transform="translate(88.439)" fill="#ffad54"/><rect width="4.034" height="18.864" transform="translate(97.283)" fill="#ffad54"/><rect width="4.033" height="18.864" transform="translate(106.127)" fill="#ffad54"/><rect width="4.033" height="18.864" transform="translate(114.971)" fill="#ffad54"/></g></g><g transform="translate(-133.908 348.098)"><path d="M-100.4,216.356c0,.153-.026.305-.026.46a2.7,2.7,0,0,1-2.7,2.7,2.692,2.692,0,0,1-2.087-.986c0-.012,0-.026-.012-.026a14.22,14.22,0,0,1-.615-2.89,6.811,6.811,0,0,0-.089-.908c0-.065-.012-.115-.012-.181a14.048,14.048,0,0,0-2.2-5.833h-.012a12.715,12.715,0,0,0-14.739-5.194h-.026a11.193,11.193,0,0,0-6.474,5.833,10.046,10.046,0,0,0-.434,7.908v.026a9.035,9.035,0,0,0,7.547,5.974,7.983,7.983,0,0,0,7.152-3.134,6.028,6.028,0,0,0,.014-7.192,4.038,4.038,0,0,0-3.1-1.611,4.516,4.516,0,0,0-3.544,1.42,2.229,2.229,0,0,0-.244.357,2.724,2.724,0,0,1,2.1-.69,3.407,3.407,0,0,1,2.38,1.279,4.623,4.623,0,0,1,.716,3.6v.012a3.714,3.714,0,0,1-3.185,3.288l-.063.012a6.463,6.463,0,0,1-6.73-3.263,6.826,6.826,0,0,1-.793-4.272,7.316,7.316,0,0,1,1.777-3.927l.014-.014a9.836,9.836,0,0,1,7.828-3.211,9.452,9.452,0,0,1,7.2,3.812h.014a11.463,11.463,0,0,1,.026,13.549l-.026.026a12.51,12.51,0,0,1-3.084,3.009,13.9,13.9,0,0,1-8.8,2.366h-.012a12.824,12.824,0,0,1-4.4-1.1,13.462,13.462,0,0,1-3.162-1.906,14.982,14.982,0,0,1-4.707-6.5A15.343,15.343,0,0,1-134.277,207a16.587,16.587,0,0,1,9.645-8.634,17.905,17.905,0,0,1,11.682.038,18.162,18.162,0,0,1,9.3,7.253c.014.014.026.038.04.052a19.059,19.059,0,0,1,3.1,8.61c.038.282.063.549.077.833C-100.413,215.549-100.4,215.959-100.4,216.356Z" transform="translate(135.868 -197.408)" fill="#8c757e"/><path d="M-85.319,216.356c0,.153-.026.305-.038.46a2.693,2.693,0,0,1-2.7,2.7,2.71,2.71,0,0,1-2.087-.986c0-.012,0-.026-.012-.026a14.817,14.817,0,0,1-.615-2.852c-.012-.014-.012-.014,0-.026a7.374,7.374,0,0,0-.089-.932c0-.054-.012-.1-.012-.169a13.729,13.729,0,0,0-2.2-5.833,12.737,12.737,0,0,0-14.751-5.194h-.014a11.164,11.164,0,0,0-6.474,5.833,10.245,10.245,0,0,0-1.035,4.99,4.457,4.457,0,0,0,.077.833,8.5,8.5,0,0,0,.51,2.085l.014.026a9.038,9.038,0,0,0,7.549,5.974,7.961,7.961,0,0,0,7.138-3.134,6.007,6.007,0,0,0,.026-7.192,4.075,4.075,0,0,0-3.108-1.611,4.493,4.493,0,0,0-3.532,1.42,1.642,1.642,0,0,0-.242.357,2.69,2.69,0,0,1,2.085-.69,3.433,3.433,0,0,1,2.392,1.279,4.6,4.6,0,0,1,.7,3.6v.012a3.69,3.69,0,0,1-3.185,3.288l-.063.012a6.447,6.447,0,0,1-6.718-3.263,6.927,6.927,0,0,1-.805-4.272,7.335,7.335,0,0,1,1.791-3.927l.012-.014a9.8,9.8,0,0,1,7.83-3.211,9.7,9.7,0,0,1,4.056,1.1,9.292,9.292,0,0,1,3.148,2.711,11.441,11.441,0,0,1,.026,13.549l-.014.026a12.793,12.793,0,0,1-3.082,3.009,13.919,13.919,0,0,1-8.816,2.366h-.014a12.892,12.892,0,0,1-4.4-1.1,14.393,14.393,0,0,1-3.162-1.906,15.069,15.069,0,0,1-4.695-6.5c-.077-.2-.153-.411-.218-.615,0-.012,0-.026-.012-.026a14.219,14.219,0,0,1-.615-2.89,6.811,6.811,0,0,0-.089-.908c0-.065-.012-.115-.012-.181A15.824,15.824,0,0,1-119.211,207a14.181,14.181,0,0,1,.73-1.343,16.461,16.461,0,0,1,8.917-7.291,17.941,17.941,0,0,1,11.694.038,18.126,18.126,0,0,1,9.288,7.253c.014.014.026.038.04.052a19.319,19.319,0,0,1,3.1,8.457,7.017,7.017,0,0,0,.089,1.035C-85.331,215.588-85.319,215.971-85.319,216.356Z" transform="translate(150.7 -197.408)" fill="#8c757e"/><path d="M-85.319,216.356c0,.153-.026.305-.038.46a2.693,2.693,0,0,1-2.7,2.7,2.71,2.71,0,0,1-2.087-.986c0-.012,0-.026-.012-.026a14.817,14.817,0,0,1-.615-2.852c-.012-.014-.012-.014,0-.026a7.374,7.374,0,0,0-.089-.932c0-.054-.012-.1-.012-.169a13.729,13.729,0,0,0-2.2-5.833,12.737,12.737,0,0,0-14.751-5.194h-.014a11.164,11.164,0,0,0-6.474,5.833,10.245,10.245,0,0,0-1.035,4.99,4.457,4.457,0,0,0,.077.833,8.5,8.5,0,0,0,.51,2.085l.014.026a9.038,9.038,0,0,0,7.549,5.974,7.961,7.961,0,0,0,7.138-3.134,6.007,6.007,0,0,0,.026-7.192,4.075,4.075,0,0,0-3.108-1.611,4.493,4.493,0,0,0-3.532,1.42,1.642,1.642,0,0,0-.242.357,2.69,2.69,0,0,1,2.085-.69,3.433,3.433,0,0,1,2.392,1.279,4.6,4.6,0,0,1,.7,3.6v.012a3.69,3.69,0,0,1-3.185,3.288l-.063.012a6.447,6.447,0,0,1-6.718-3.263,6.927,6.927,0,0,1-.805-4.272,7.335,7.335,0,0,1,1.791-3.927l.012-.014a9.8,9.8,0,0,1,7.83-3.211,9.7,9.7,0,0,1,4.056,1.1,9.292,9.292,0,0,1,3.148,2.711,11.441,11.441,0,0,1,.026,13.549l-.014.026a12.793,12.793,0,0,1-3.082,3.009,13.919,13.919,0,0,1-8.816,2.366h-.014a12.892,12.892,0,0,1-4.4-1.1,14.393,14.393,0,0,1-3.162-1.906,15.069,15.069,0,0,1-4.695-6.5c-.077-.2-.153-.411-.218-.615,0-.012,0-.026-.012-.026a14.219,14.219,0,0,1-.615-2.89,6.811,6.811,0,0,0-.089-.908c0-.065-.012-.115-.012-.181A15.824,15.824,0,0,1-119.211,207a14.181,14.181,0,0,1,.73-1.343,16.461,16.461,0,0,1,8.917-7.291,17.941,17.941,0,0,1,11.694.038,18.126,18.126,0,0,1,9.288,7.253c.014.014.026.038.04.052a19.319,19.319,0,0,1,3.1,8.457,7.017,7.017,0,0,0,.089,1.035C-85.331,215.588-85.319,215.971-85.319,216.356Z" transform="translate(150.7 -197.408)" fill="#8c757e"/><path d="M-70.244,216.356c0,.153-.026.305-.026.46a2.7,2.7,0,0,1-2.7,2.7,2.685,2.685,0,0,1-2.085-.986c0-.012,0-.026-.014-.026a15.046,15.046,0,0,1-.615-2.852.024.024,0,0,1,0-.038,6.969,6.969,0,0,0-.087-.9.889.889,0,0,1-.014-.192,14.072,14.072,0,0,0-2.2-5.833H-78A12.715,12.715,0,0,0-92.736,203.5h-.026a11.193,11.193,0,0,0-6.474,5.833,10.342,10.342,0,0,0-1.035,4.837,7.017,7.017,0,0,0,.089,1.035,9.418,9.418,0,0,0,.512,2.035v.026a9.038,9.038,0,0,0,7.549,5.974,7.986,7.986,0,0,0,7.152-3.134,6.028,6.028,0,0,0,.012-7.192,4.035,4.035,0,0,0-3.1-1.611,4.521,4.521,0,0,0-3.544,1.42,2.366,2.366,0,0,0-.244.357,2.728,2.728,0,0,1,2.1-.69,3.407,3.407,0,0,1,2.378,1.279,4.626,4.626,0,0,1,.718,3.6v.012a3.718,3.718,0,0,1-3.187,3.288l-.063.012a6.466,6.466,0,0,1-6.73-3.263,6.839,6.839,0,0,1-.793-4.272,7.318,7.318,0,0,1,1.779-3.927l.012-.014a9.837,9.837,0,0,1,7.83-3.211,9.459,9.459,0,0,1,7.2,3.812h.012a11.463,11.463,0,0,1,.026,13.549l-.026.026a12.536,12.536,0,0,1-3.082,3.009,13.9,13.9,0,0,1-8.8,2.366h-.014a12.824,12.824,0,0,1-4.4-1.1,13.45,13.45,0,0,1-3.16-1.906,15,15,0,0,1-4.709-6.5c-.077-.2-.153-.411-.218-.615,0-.012,0-.026-.012-.026a14.815,14.815,0,0,1-.615-2.852c-.012-.014-.012-.014,0-.026a7.378,7.378,0,0,0-.089-.932c0-.054-.012-.1-.012-.169A15.732,15.732,0,0,1-104.122,207c.218-.46.46-.906.716-1.343a16.532,16.532,0,0,1,8.931-7.291,17.9,17.9,0,0,1,11.68.038,18.167,18.167,0,0,1,9.3,7.253c.012.014.026.038.038.052a18.975,18.975,0,0,1,3.084,8.56c0,.024,0,.038.012.05.038.282.063.549.077.833a.035.035,0,0,0,0,.05C-70.256,215.588-70.244,215.971-70.244,216.356Z" transform="translate(165.525 -197.408)" fill="#8c757e"/><path d="M-70.244,216.356c0,.153-.026.305-.026.46a2.7,2.7,0,0,1-2.7,2.7,2.685,2.685,0,0,1-2.085-.986c0-.012,0-.026-.014-.026a15.046,15.046,0,0,1-.615-2.852.024.024,0,0,1,0-.038,6.969,6.969,0,0,0-.087-.9.889.889,0,0,1-.014-.192,14.072,14.072,0,0,0-2.2-5.833H-78A12.715,12.715,0,0,0-92.736,203.5h-.026a11.193,11.193,0,0,0-6.474,5.833,10.342,10.342,0,0,0-1.035,4.837,7.017,7.017,0,0,0,.089,1.035,9.418,9.418,0,0,0,.512,2.035v.026a9.038,9.038,0,0,0,7.549,5.974,7.986,7.986,0,0,0,7.152-3.134,6.028,6.028,0,0,0,.012-7.192,4.035,4.035,0,0,0-3.1-1.611,4.521,4.521,0,0,0-3.544,1.42,2.366,2.366,0,0,0-.244.357,2.728,2.728,0,0,1,2.1-.69,3.407,3.407,0,0,1,2.378,1.279,4.626,4.626,0,0,1,.718,3.6v.012a3.718,3.718,0,0,1-3.187,3.288l-.063.012a6.466,6.466,0,0,1-6.73-3.263,6.839,6.839,0,0,1-.793-4.272,7.318,7.318,0,0,1,1.779-3.927l.012-.014a9.837,9.837,0,0,1,7.83-3.211,9.459,9.459,0,0,1,7.2,3.812h.012a11.463,11.463,0,0,1,.026,13.549l-.026.026a12.536,12.536,0,0,1-3.082,3.009,13.9,13.9,0,0,1-8.8,2.366h-.014a12.824,12.824,0,0,1-4.4-1.1,13.45,13.45,0,0,1-3.16-1.906,15,15,0,0,1-4.709-6.5c-.077-.2-.153-.411-.218-.615,0-.012,0-.026-.012-.026a14.815,14.815,0,0,1-.615-2.852c-.012-.014-.012-.014,0-.026a7.378,7.378,0,0,0-.089-.932c0-.054-.012-.1-.012-.169A15.732,15.732,0,0,1-104.122,207c.218-.46.46-.906.716-1.343a16.532,16.532,0,0,1,8.931-7.291,17.9,17.9,0,0,1,11.68.038,18.167,18.167,0,0,1,9.3,7.253c.012.014.026.038.038.052a18.975,18.975,0,0,1,3.084,8.56c0,.024,0,.038.012.05.038.282.063.549.077.833a.035.035,0,0,0,0,.05C-70.256,215.588-70.244,215.971-70.244,216.356Z" transform="translate(165.525 -197.408)" fill="#8c757e"/><path d="M-55.163,216.356c0,.153-.024.305-.038.46a2.692,2.692,0,0,1-2.7,2.7,2.7,2.7,0,0,1-2.7-2.7c0-.155.014-.3.014-.448a13.913,13.913,0,0,0-2.328-7.676A12.741,12.741,0,0,0-77.667,203.5h-.012a11.152,11.152,0,0,0-6.474,5.833,10.306,10.306,0,0,0-1.049,4.941c0,.024,0,.038.012.05a4.457,4.457,0,0,0,.077.833.035.035,0,0,0,0,.05,9.419,9.419,0,0,0,.512,2.035l.012.026a9.04,9.04,0,0,0,7.549,5.974A7.966,7.966,0,0,0-69.9,220.1a6.013,6.013,0,0,0,.026-7.192,4.078,4.078,0,0,0-3.11-1.611,4.489,4.489,0,0,0-3.53,1.42,1.585,1.585,0,0,0-.244.357,2.692,2.692,0,0,1,2.085-.69,3.441,3.441,0,0,1,2.394,1.279,4.617,4.617,0,0,1,.7,3.6v.012a3.692,3.692,0,0,1-3.187,3.288l-.063.012a6.449,6.449,0,0,1-6.718-3.263,6.926,6.926,0,0,1-.805-4.272,7.335,7.335,0,0,1,1.791-3.927l.014-.014a9.8,9.8,0,0,1,7.828-3.211,9.7,9.7,0,0,1,4.056,1.1,9.274,9.274,0,0,1,3.148,2.711,11.441,11.441,0,0,1,.026,13.549l-.012.026a12.8,12.8,0,0,1-3.084,3.009,13.916,13.916,0,0,1-8.816,2.366h-.012a12.9,12.9,0,0,1-4.4-1.1,14.38,14.38,0,0,1-3.16-1.906,15.052,15.052,0,0,1-4.695-6.5c-.077-.2-.155-.411-.218-.615,0-.012,0-.026-.014-.026a15.045,15.045,0,0,1-.615-2.852.024.024,0,0,1,0-.038,6.965,6.965,0,0,0-.087-.9.889.889,0,0,1-.014-.192A15.8,15.8,0,0,1-89.053,207a13.761,13.761,0,0,1,.73-1.343,16.454,16.454,0,0,1,8.917-7.291,17.941,17.941,0,0,1,11.694.038,18.134,18.134,0,0,1,9.326,7.3A19.243,19.243,0,0,1-55.163,216.356Z" transform="translate(180.355 -197.408)" fill="#8c757e"/><path d="M-100.4,230.546c0,.153-.026.307-.026.46a2.7,2.7,0,0,1-2.7,2.7,2.692,2.692,0,0,1-2.087-.986c0-.012,0-.026-.012-.026a14.19,14.19,0,0,1-.615-2.89,6.811,6.811,0,0,0-.089-.908c0-.065-.012-.115-.012-.18a14.058,14.058,0,0,0-2.2-5.833h-.012a12.718,12.718,0,0,0-14.739-5.195h-.026a11.2,11.2,0,0,0-6.474,5.833,10.046,10.046,0,0,0-.434,7.908v.026a9.035,9.035,0,0,0,7.547,5.974,7.983,7.983,0,0,0,7.152-3.134,6.025,6.025,0,0,0,.014-7.19,4.041,4.041,0,0,0-3.1-1.613,4.516,4.516,0,0,0-3.544,1.42,2.16,2.16,0,0,0-.244.359,2.725,2.725,0,0,1,2.1-.692,3.415,3.415,0,0,1,2.38,1.279,4.623,4.623,0,0,1,.716,3.6v.012a3.714,3.714,0,0,1-3.185,3.288l-.063.014a6.464,6.464,0,0,1-6.73-3.265,6.823,6.823,0,0,1-.793-4.27A7.321,7.321,0,0,1-125.8,223.3l.014-.014a9.842,9.842,0,0,1,7.828-3.211,9.453,9.453,0,0,1,7.2,3.812h.014a11.466,11.466,0,0,1,.026,13.551l-.026.024a12.511,12.511,0,0,1-3.084,3.009,13.9,13.9,0,0,1-8.8,2.366h-.012a12.824,12.824,0,0,1-4.4-1.1,13.4,13.4,0,0,1-3.162-1.906,14.971,14.971,0,0,1-4.707-6.5,15.338,15.338,0,0,1,.627-12.14,16.794,16.794,0,0,1,7.241-7.6,13.692,13.692,0,0,1,2.4-1.035,17.811,17.811,0,0,1,10.812-.23,9.049,9.049,0,0,1,.871.268,18.162,18.162,0,0,1,9.3,7.253c.014.014.026.038.04.052a19.058,19.058,0,0,1,3.1,8.61c.038.282.063.549.077.833C-100.413,229.739-100.4,230.15-100.4,230.546Z" transform="translate(135.868 -183.452)" fill="#8c757e"/><path d="M-85.319,230.546c0,.153-.026.307-.038.46a2.693,2.693,0,0,1-2.7,2.7,2.71,2.71,0,0,1-2.087-.986c0-.012,0-.026-.012-.026a14.817,14.817,0,0,1-.615-2.852c-.012-.014-.012-.014,0-.026a7.374,7.374,0,0,0-.089-.932c0-.054-.012-.1-.012-.169a13.738,13.738,0,0,0-2.2-5.833,12.74,12.74,0,0,0-14.751-5.195h-.014a11.17,11.17,0,0,0-6.474,5.833,10.249,10.249,0,0,0-1.035,4.99,4.457,4.457,0,0,0,.077.833,8.474,8.474,0,0,0,.51,2.085l.014.026a9.038,9.038,0,0,0,7.549,5.974,7.961,7.961,0,0,0,7.138-3.134,6,6,0,0,0,.026-7.19,4.078,4.078,0,0,0-3.108-1.613,4.493,4.493,0,0,0-3.532,1.42,1.607,1.607,0,0,0-.242.359,2.691,2.691,0,0,1,2.085-.692,3.441,3.441,0,0,1,2.392,1.279,4.6,4.6,0,0,1,.7,3.6v.012a3.69,3.69,0,0,1-3.185,3.288l-.063.014A6.448,6.448,0,0,1-111.7,231.5a6.923,6.923,0,0,1-.805-4.27,7.34,7.34,0,0,1,1.791-3.929l.012-.014a9.81,9.81,0,0,1,7.83-3.211,9.73,9.73,0,0,1,4.056,1.1,9.293,9.293,0,0,1,3.148,2.711,11.445,11.445,0,0,1,.026,13.551l-.014.024a12.8,12.8,0,0,1-3.082,3.009,13.919,13.919,0,0,1-8.816,2.366h-.014a12.892,12.892,0,0,1-4.4-1.1h-.014a14.305,14.305,0,0,1-3.148-1.906,15.057,15.057,0,0,1-4.695-6.5c-.077-.2-.153-.411-.218-.615,0-.012,0-.026-.012-.026a14.189,14.189,0,0,1-.615-2.89,6.811,6.811,0,0,0-.089-.908c0-.065-.012-.115-.012-.18a15.811,15.811,0,0,1,1.559-7.521,14.21,14.21,0,0,1,.73-1.345,16.452,16.452,0,0,1,6.513-6.256,13.692,13.692,0,0,1,2.4-1.035,17.853,17.853,0,0,1,10.825-.23c.294.075.575.165.869.268a18.126,18.126,0,0,1,9.288,7.253c.014.014.026.038.04.052a19.318,19.318,0,0,1,3.1,8.457,7.016,7.016,0,0,0,.089,1.035C-85.331,229.779-85.319,230.162-85.319,230.546Z" transform="translate(150.7 -183.452)" fill="#8c757e"/><path d="M-70.244,230.546c0,.153-.026.307-.026.46a2.7,2.7,0,0,1-2.7,2.7,2.685,2.685,0,0,1-2.085-.986c0-.012,0-.026-.014-.026a15.012,15.012,0,0,1-.615-2.852.024.024,0,0,1,0-.038,6.968,6.968,0,0,0-.087-.9.889.889,0,0,1-.014-.192,14.081,14.081,0,0,0-2.2-5.833H-78a12.718,12.718,0,0,0-14.739-5.195h-.026a11.2,11.2,0,0,0-6.474,5.833,10.342,10.342,0,0,0-1.035,4.837,7.016,7.016,0,0,0,.089,1.035,9.387,9.387,0,0,0,.512,2.035v.026a9.038,9.038,0,0,0,7.549,5.974,7.986,7.986,0,0,0,7.152-3.134,6.025,6.025,0,0,0,.012-7.19,4.039,4.039,0,0,0-3.1-1.613,4.521,4.521,0,0,0-3.544,1.42,2.287,2.287,0,0,0-.244.359,2.729,2.729,0,0,1,2.1-.692,3.414,3.414,0,0,1,2.378,1.279,4.626,4.626,0,0,1,.718,3.6v.012a3.718,3.718,0,0,1-3.187,3.288l-.063.014a6.467,6.467,0,0,1-6.73-3.265,6.836,6.836,0,0,1-.793-4.27,7.323,7.323,0,0,1,1.779-3.929l.012-.014a9.844,9.844,0,0,1,7.83-3.211,9.459,9.459,0,0,1,7.2,3.812h.012a11.466,11.466,0,0,1,.026,13.551l-.026.024a12.537,12.537,0,0,1-3.082,3.009,13.9,13.9,0,0,1-8.8,2.366h-.014a12.824,12.824,0,0,1-4.4-1.1h-.012a13.316,13.316,0,0,1-3.148-1.906,14.991,14.991,0,0,1-4.709-6.5c-.077-.2-.153-.411-.218-.615,0-.012,0-.026-.012-.026a14.815,14.815,0,0,1-.615-2.852c-.012-.014-.012-.014,0-.026a7.379,7.379,0,0,0-.089-.932c0-.054-.012-.1-.012-.169a15.719,15.719,0,0,1,1.573-7.521c.218-.46.46-.908.716-1.345a16.586,16.586,0,0,1,6.525-6.256,13.712,13.712,0,0,1,2.406-1.035,17.81,17.81,0,0,1,10.811-.23c.294.075.587.165.869.268a18.167,18.167,0,0,1,9.3,7.253c.012.014.026.038.038.052a18.975,18.975,0,0,1,3.084,8.56c0,.024,0,.038.012.05.038.282.063.549.077.833a.035.035,0,0,0,0,.05C-70.256,229.779-70.244,230.162-70.244,230.546Z" transform="translate(165.525 -183.452)" fill="#8c757e"/><path d="M-55.163,230.546c0,.153-.024.307-.038.46a2.692,2.692,0,0,1-2.7,2.7,2.7,2.7,0,0,1-2.7-2.7c0-.153.014-.294.014-.448a13.913,13.913,0,0,0-2.328-7.676,12.744,12.744,0,0,0-14.752-5.195h-.012a11.159,11.159,0,0,0-6.474,5.833,10.306,10.306,0,0,0-1.049,4.941c0,.024,0,.038.012.05a4.457,4.457,0,0,0,.077.833.035.035,0,0,0,0,.05,9.388,9.388,0,0,0,.512,2.035l.012.026a9.041,9.041,0,0,0,7.549,5.974,7.966,7.966,0,0,0,7.14-3.134,6.01,6.01,0,0,0,.026-7.19,4.081,4.081,0,0,0-3.11-1.613,4.489,4.489,0,0,0-3.53,1.42,1.553,1.553,0,0,0-.244.359,2.693,2.693,0,0,1,2.085-.692,3.449,3.449,0,0,1,2.394,1.279,4.617,4.617,0,0,1,.7,3.6v.012a3.692,3.692,0,0,1-3.187,3.288l-.063.014a6.45,6.45,0,0,1-6.718-3.265,6.923,6.923,0,0,1-.805-4.27,7.34,7.34,0,0,1,1.791-3.929l.014-.014a9.808,9.808,0,0,1,7.828-3.211,9.73,9.73,0,0,1,4.056,1.1,9.274,9.274,0,0,1,3.148,2.711,11.445,11.445,0,0,1,.026,13.551l-.012.024a12.8,12.8,0,0,1-3.084,3.009,13.916,13.916,0,0,1-8.816,2.366h-.012a12.9,12.9,0,0,1-4.4-1.1,14.38,14.38,0,0,1-3.16-1.906,15.041,15.041,0,0,1-4.695-6.5c-.077-.2-.155-.411-.218-.615,0-.012,0-.026-.014-.026a15.011,15.011,0,0,1-.615-2.852.024.024,0,0,1,0-.038,6.963,6.963,0,0,0-.087-.9.889.889,0,0,1-.014-.192,15.79,15.79,0,0,1,1.561-7.521,13.79,13.79,0,0,1,.73-1.345,16.46,16.46,0,0,1,6.512-6.256,13.711,13.711,0,0,1,2.406-1.035,17.847,17.847,0,0,1,10.823-.23c.294.075.575.165.871.268a18.144,18.144,0,0,1,9.326,7.3A19.248,19.248,0,0,1-55.163,230.546Z" transform="translate(180.355 -183.452)" fill="#8c757e"/><path d="M-100.4,244.737c0,.153-.026.307-.026.46a2.7,2.7,0,0,1-2.7,2.7,2.7,2.7,0,0,1-2.087-.984c0-.014,0-.028-.012-.028a14.19,14.19,0,0,1-.615-2.89c0-.089-.012-.167-.012-.256a5.005,5.005,0,0,0-.077-.615v-.038c0-.065-.012-.115-.012-.18a14.068,14.068,0,0,0-2.2-5.833h-.012a12.718,12.718,0,0,0-14.739-5.195h-.026a11.2,11.2,0,0,0-6.474,5.835,10.041,10.041,0,0,0-.434,7.906v.026a9.035,9.035,0,0,0,7.547,5.974,7.979,7.979,0,0,0,7.152-3.134,6.025,6.025,0,0,0,.014-7.19,4.041,4.041,0,0,0-3.1-1.612,4.516,4.516,0,0,0-3.544,1.42,2.159,2.159,0,0,0-.244.359,2.723,2.723,0,0,1,2.1-.69,3.4,3.4,0,0,1,2.38,1.279,4.618,4.618,0,0,1,.716,3.594v.012a3.714,3.714,0,0,1-3.185,3.288l-.063.014a6.466,6.466,0,0,1-6.73-3.263,6.826,6.826,0,0,1-.793-4.272A7.321,7.321,0,0,1-125.8,237.5l.014-.012a9.836,9.836,0,0,1,7.828-3.211,9.444,9.444,0,0,1,7.2,3.81h.014a11.466,11.466,0,0,1,.026,13.551l-.026.026a12.5,12.5,0,0,1-3.084,3.007,13.9,13.9,0,0,1-8.8,2.366h-.012a12.825,12.825,0,0,1-4.4-1.1,13.4,13.4,0,0,1-3.162-1.906,14.97,14.97,0,0,1-4.707-6.5,15.338,15.338,0,0,1,.627-12.14,16.794,16.794,0,0,1,7.241-7.6,13.688,13.688,0,0,1,2.4-1.035,17.81,17.81,0,0,1,10.812-.23,9.027,9.027,0,0,1,.871.268,18.155,18.155,0,0,1,9.3,7.255c.014.012.026.038.04.05a19.059,19.059,0,0,1,3.1,8.61v.1a3.946,3.946,0,0,1,.063.664c0,.028.014.04.014.065C-100.413,243.932-100.4,244.341-100.4,244.737Z" transform="translate(135.868 -169.496)" fill="#8c757e"/><path d="M-85.319,244.737c0,.153-.026.307-.038.46a2.692,2.692,0,0,1-2.7,2.7,2.715,2.715,0,0,1-2.087-.984c0-.014,0-.028-.012-.028a15.04,15.04,0,0,1-.615-2.878c0-.089-.012-.19-.012-.294a5.717,5.717,0,0,0-.077-.639c0-.054-.012-.1-.012-.169a13.748,13.748,0,0,0-2.2-5.833,12.74,12.74,0,0,0-14.751-5.195h-.014a11.167,11.167,0,0,0-6.474,5.835,10.237,10.237,0,0,0-1.035,4.988v.1a3.85,3.85,0,0,0,.063.664c0,.028.014.04.014.065a8.43,8.43,0,0,0,.51,2.085l.014.026a9.038,9.038,0,0,0,7.549,5.974,7.956,7.956,0,0,0,7.138-3.134,6,6,0,0,0,.026-7.19,4.078,4.078,0,0,0-3.108-1.612,4.493,4.493,0,0,0-3.532,1.42,1.607,1.607,0,0,0-.242.359,2.689,2.689,0,0,1,2.085-.69,3.426,3.426,0,0,1,2.392,1.279,4.594,4.594,0,0,1,.7,3.594v.012a3.69,3.69,0,0,1-3.185,3.288l-.063.014A6.45,6.45,0,0,1-111.7,245.7a6.926,6.926,0,0,1-.805-4.272,7.34,7.34,0,0,1,1.791-3.929l.012-.012a9.8,9.8,0,0,1,7.83-3.211,9.729,9.729,0,0,1,4.056,1.1,9.292,9.292,0,0,1,3.148,2.711,11.444,11.444,0,0,1,.026,13.551l-.014.026a12.785,12.785,0,0,1-3.082,3.007,13.919,13.919,0,0,1-8.816,2.366h-.014a12.893,12.893,0,0,1-4.4-1.1h-.014a14.228,14.228,0,0,1-3.148-1.906,15.057,15.057,0,0,1-4.695-6.5c-.077-.2-.153-.411-.218-.613,0-.014,0-.028-.012-.028a14.189,14.189,0,0,1-.615-2.89c0-.089-.012-.167-.012-.256a5.005,5.005,0,0,0-.077-.615v-.038c0-.065-.012-.115-.012-.18a15.811,15.811,0,0,1,1.559-7.521,13.928,13.928,0,0,1,.73-1.343,16.6,16.6,0,0,1,6.5-6.258h.014a13.687,13.687,0,0,1,2.4-1.035,17.853,17.853,0,0,1,10.825-.23c.294.075.575.165.869.268a18.12,18.12,0,0,1,9.288,7.255c.014.012.026.038.04.05a19.437,19.437,0,0,1,3.1,8.445v.012a7.016,7.016,0,0,0,.089,1.035v.014C-85.331,243.984-85.319,244.353-85.319,244.737Z" transform="translate(150.7 -169.496)" fill="#8c757e"/><path d="M-70.244,244.737c0,.153-.026.307-.026.46a2.7,2.7,0,0,1-2.7,2.7,2.69,2.69,0,0,1-2.085-.984c0-.014,0-.028-.014-.028a14.191,14.191,0,0,1-.615-2.89,7.19,7.19,0,0,0-.087-.908c0-.065-.014-.115-.014-.18a14.092,14.092,0,0,0-2.2-5.833H-78a12.718,12.718,0,0,0-14.739-5.195h-.026a11.2,11.2,0,0,0-6.474,5.835,10.282,10.282,0,0,0-1.035,4.824v.012a7.016,7.016,0,0,0,.089,1.035v.014a9.268,9.268,0,0,0,.512,2.021v.026a9.038,9.038,0,0,0,7.549,5.974,7.981,7.981,0,0,0,7.152-3.134,6.025,6.025,0,0,0,.012-7.19,4.038,4.038,0,0,0-3.1-1.612A4.521,4.521,0,0,0-91.6,241.1a2.286,2.286,0,0,0-.244.359,2.728,2.728,0,0,1,2.1-.69,3.4,3.4,0,0,1,2.378,1.279,4.62,4.62,0,0,1,.718,3.594v.012a3.718,3.718,0,0,1-3.187,3.288l-.063.014a6.468,6.468,0,0,1-6.73-3.263,6.839,6.839,0,0,1-.793-4.272,7.324,7.324,0,0,1,1.779-3.929l.012-.012a9.837,9.837,0,0,1,7.83-3.211,9.451,9.451,0,0,1,7.2,3.81h.012a11.466,11.466,0,0,1,.026,13.551l-.026.026a12.527,12.527,0,0,1-3.082,3.007,13.9,13.9,0,0,1-8.8,2.366h-.014a12.825,12.825,0,0,1-4.4-1.1h-.012a13.315,13.315,0,0,1-3.148-1.906,14.99,14.99,0,0,1-4.709-6.5c-.077-.2-.153-.411-.218-.613,0-.014,0-.028-.012-.028a15.038,15.038,0,0,1-.615-2.878c0-.089-.012-.19-.012-.294a5.715,5.715,0,0,0-.077-.639c0-.054-.012-.1-.012-.169a15.724,15.724,0,0,1,1.573-7.521c.218-.46.46-.908.716-1.343a16.712,16.712,0,0,1,6.513-6.258h.012a13.708,13.708,0,0,1,2.406-1.035,17.81,17.81,0,0,1,10.811-.23c.294.075.587.165.869.268a18.16,18.16,0,0,1,9.3,7.255c.012.012.026.038.038.05a19.059,19.059,0,0,1,3.1,8.61c.038.282.063.549.077.833C-70.256,243.932-70.244,244.341-70.244,244.737Z" transform="translate(165.525 -169.496)" fill="#8c757e"/><path d="M-55.163,244.737c0,.153-.024.307-.038.46a2.691,2.691,0,0,1-2.7,2.7,2.7,2.7,0,0,1-2.7-2.7c0-.153.014-.294.014-.446a13.924,13.924,0,0,0-2.328-7.678,12.743,12.743,0,0,0-14.752-5.195h-.012a11.156,11.156,0,0,0-6.474,5.835A10.217,10.217,0,0,0-85.19,242.7a4.457,4.457,0,0,0,.077.833,8.433,8.433,0,0,0,.512,2.085l.012.026a9.041,9.041,0,0,0,7.549,5.974,7.962,7.962,0,0,0,7.14-3.134,6.01,6.01,0,0,0,.026-7.19,4.081,4.081,0,0,0-3.11-1.612,4.489,4.489,0,0,0-3.53,1.42,1.552,1.552,0,0,0-.244.359,2.692,2.692,0,0,1,2.085-.69,3.434,3.434,0,0,1,2.394,1.279,4.611,4.611,0,0,1,.7,3.594v.012a3.692,3.692,0,0,1-3.187,3.288l-.063.014a6.451,6.451,0,0,1-6.718-3.263,6.926,6.926,0,0,1-.805-4.272,7.341,7.341,0,0,1,1.791-3.929l.014-.012a9.8,9.8,0,0,1,7.828-3.211,9.729,9.729,0,0,1,4.056,1.1,9.273,9.273,0,0,1,3.148,2.711,11.444,11.444,0,0,1,.026,13.551l-.012.026a12.793,12.793,0,0,1-3.084,3.007,13.915,13.915,0,0,1-8.816,2.366h-.012a12.9,12.9,0,0,1-4.4-1.1,14.3,14.3,0,0,1-3.16-1.906,15.04,15.04,0,0,1-4.695-6.5c-.077-.2-.155-.411-.218-.613,0-.014,0-.028-.014-.028a14.191,14.191,0,0,1-.615-2.89,7.186,7.186,0,0,0-.087-.908c0-.065-.014-.115-.014-.18a15.79,15.79,0,0,1,1.561-7.521,13.523,13.523,0,0,1,.73-1.343,16.464,16.464,0,0,1,6.512-6.258,13.707,13.707,0,0,1,2.406-1.035,17.846,17.846,0,0,1,10.823-.23c.294.075.575.165.871.268a18.155,18.155,0,0,1,9.326,7.3A19.253,19.253,0,0,1-55.163,244.737Z" transform="translate(180.355 -169.496)" fill="#8c757e"/><path d="M-100.4,258.928c0,.153-.026.307-.026.46a2.7,2.7,0,0,1-2.7,2.7,2.7,2.7,0,0,1-2.087-.986c0-.012,0-.026-.012-.026a14.236,14.236,0,0,1-.615-2.892,6.844,6.844,0,0,0-.089-.908c0-.063-.012-.115-.012-.178a14.058,14.058,0,0,0-2.2-5.833h-.012a12.719,12.719,0,0,0-14.739-5.2h-.026a11.2,11.2,0,0,0-6.474,5.835,10.041,10.041,0,0,0-.434,7.906v.026a9.032,9.032,0,0,0,7.547,5.974,7.979,7.979,0,0,0,7.152-3.134,6.025,6.025,0,0,0,.014-7.19,4.048,4.048,0,0,0-3.1-1.613,4.523,4.523,0,0,0-3.544,1.42,2.162,2.162,0,0,0-.244.359,2.731,2.731,0,0,1,2.1-.69,3.4,3.4,0,0,1,2.38,1.279,4.619,4.619,0,0,1,.716,3.594v.012a3.712,3.712,0,0,1-3.185,3.288l-.063.014a6.466,6.466,0,0,1-6.73-3.263,6.826,6.826,0,0,1-.793-4.272,7.321,7.321,0,0,1,1.777-3.929l.014-.012a9.836,9.836,0,0,1,7.828-3.211,9.44,9.44,0,0,1,7.2,3.812h.014a11.466,11.466,0,0,1,.026,13.551l-.026.024a13.444,13.444,0,0,1-11.886,5.373h-.012a13.609,13.609,0,0,1-7.563-3.007,14.97,14.97,0,0,1-4.707-6.5,15.339,15.339,0,0,1,.627-12.14,16.8,16.8,0,0,1,7.241-7.6,13.687,13.687,0,0,1,2.4-1.035,17.81,17.81,0,0,1,10.812-.23c.3.077.589.165.871.268a18.156,18.156,0,0,1,9.3,7.255c.014.012.026.038.04.052a19.042,19.042,0,0,1,3.1,8.61c.038.282.063.549.077.831C-100.413,258.123-100.4,258.532-100.4,258.928Z" transform="translate(135.868 -155.541)" fill="#8c757e"/><path d="M-85.319,258.928c0,.153-.026.307-.038.46a2.694,2.694,0,0,1-2.7,2.7,2.717,2.717,0,0,1-2.087-.986c0-.012,0-.026-.012-.026a14.881,14.881,0,0,1-.615-2.852c-.012-.012-.012-.012,0-.028a7.446,7.446,0,0,0-.089-.932c0-.052-.012-.1-.012-.167a13.739,13.739,0,0,0-2.2-5.833,12.741,12.741,0,0,0-14.751-5.2h-.014a11.174,11.174,0,0,0-6.474,5.835,10.24,10.24,0,0,0-1.035,4.99,4.421,4.421,0,0,0,.077.831,8.41,8.41,0,0,0,.51,2.085l.014.026a9.035,9.035,0,0,0,7.549,5.974,7.956,7.956,0,0,0,7.138-3.134,6,6,0,0,0,.026-7.19,4.085,4.085,0,0,0-3.108-1.613,4.5,4.5,0,0,0-3.532,1.42,1.608,1.608,0,0,0-.242.359,2.7,2.7,0,0,1,2.085-.69,3.426,3.426,0,0,1,2.392,1.279,4.6,4.6,0,0,1,.7,3.594v.012a3.688,3.688,0,0,1-3.185,3.288l-.063.014a6.45,6.45,0,0,1-6.718-3.263,6.926,6.926,0,0,1-.805-4.272,7.34,7.34,0,0,1,1.791-3.929l.012-.012a9.8,9.8,0,0,1,7.83-3.211,9.728,9.728,0,0,1,4.056,1.1,9.277,9.277,0,0,1,3.148,2.713,11.444,11.444,0,0,1,.026,13.551l-.014.024a13.465,13.465,0,0,1-11.9,5.373h-.014a13.642,13.642,0,0,1-7.561-3.007,15.057,15.057,0,0,1-4.695-6.5c-.077-.2-.153-.407-.218-.613,0-.012,0-.026-.012-.026a14.235,14.235,0,0,1-.615-2.892,6.844,6.844,0,0,0-.089-.908c0-.063-.012-.115-.012-.178a15.814,15.814,0,0,1,1.559-7.523,13.935,13.935,0,0,1,.73-1.343,16.6,16.6,0,0,1,6.5-6.258h.014a13.686,13.686,0,0,1,2.4-1.035,17.853,17.853,0,0,1,10.825-.23c.294.077.575.165.869.268a18.12,18.12,0,0,1,9.288,7.255c.014.012.026.038.04.052a19.3,19.3,0,0,1,3.1,8.455,7.065,7.065,0,0,0,.089,1.037C-85.331,258.161-85.319,258.546-85.319,258.928Z" transform="translate(150.7 -155.541)" fill="#8c757e"/><path d="M-70.244,258.928c0,.153-.026.307-.026.46a2.7,2.7,0,0,1-2.7,2.7,2.691,2.691,0,0,1-2.085-.986c0-.012,0-.026-.014-.026a15.077,15.077,0,0,1-.615-2.852.027.027,0,0,1,0-.04,6.936,6.936,0,0,0-.087-.894.9.9,0,0,1-.014-.192,14.082,14.082,0,0,0-2.2-5.833H-78a12.719,12.719,0,0,0-14.739-5.2h-.026a11.2,11.2,0,0,0-6.474,5.835,10.339,10.339,0,0,0-1.035,4.835,7.065,7.065,0,0,0,.089,1.037,9.4,9.4,0,0,0,.512,2.033v.026a9.035,9.035,0,0,0,7.549,5.974,7.981,7.981,0,0,0,7.152-3.134,6.025,6.025,0,0,0,.012-7.19,4.045,4.045,0,0,0-3.1-1.613,4.528,4.528,0,0,0-3.544,1.42,2.29,2.29,0,0,0-.244.359,2.735,2.735,0,0,1,2.1-.69,3.4,3.4,0,0,1,2.378,1.279,4.621,4.621,0,0,1,.718,3.594v.012a3.716,3.716,0,0,1-3.187,3.288l-.063.014a6.468,6.468,0,0,1-6.73-3.263,6.839,6.839,0,0,1-.793-4.272,7.324,7.324,0,0,1,1.779-3.929l.012-.012a9.837,9.837,0,0,1,7.83-3.211,9.447,9.447,0,0,1,7.2,3.812h.012a11.466,11.466,0,0,1,.026,13.551l-.026.024a13.442,13.442,0,0,1-11.884,5.373h-.014a13.6,13.6,0,0,1-7.561-3.007,14.99,14.99,0,0,1-4.709-6.5c-.077-.2-.153-.407-.218-.613,0-.012,0-.026-.012-.026a14.879,14.879,0,0,1-.615-2.852c-.012-.012-.012-.012,0-.028a7.45,7.45,0,0,0-.089-.932c0-.052-.012-.1-.012-.167a15.732,15.732,0,0,1,1.573-7.523c.218-.46.46-.908.716-1.343a16.712,16.712,0,0,1,6.513-6.258h.012a13.706,13.706,0,0,1,2.406-1.035,17.81,17.81,0,0,1,10.811-.23c.294.077.587.165.869.268a18.16,18.16,0,0,1,9.3,7.255c.012.012.026.038.038.052a18.975,18.975,0,0,1,3.084,8.558.07.07,0,0,0,.012.052c.038.282.063.549.077.831a.037.037,0,0,0,0,.052C-70.256,258.161-70.244,258.546-70.244,258.928Z" transform="translate(165.525 -155.541)" fill="#8c757e"/><path d="M-55.163,258.928c0,.153-.024.307-.038.46a2.693,2.693,0,0,1-2.7,2.7,2.7,2.7,0,0,1-2.7-2.7c0-.153.014-.292.014-.446a13.913,13.913,0,0,0-2.328-7.676,12.745,12.745,0,0,0-14.752-5.2h-.012a11.162,11.162,0,0,0-6.474,5.835,10.3,10.3,0,0,0-1.049,4.939.07.07,0,0,0,.012.052,4.421,4.421,0,0,0,.077.831.037.037,0,0,0,0,.052,9.4,9.4,0,0,0,.512,2.033l.012.026a9.037,9.037,0,0,0,7.549,5.974,7.962,7.962,0,0,0,7.14-3.134,6.01,6.01,0,0,0,.026-7.19,4.088,4.088,0,0,0-3.11-1.613,4.5,4.5,0,0,0-3.53,1.42,1.554,1.554,0,0,0-.244.359,2.7,2.7,0,0,1,2.085-.69,3.434,3.434,0,0,1,2.394,1.279,4.612,4.612,0,0,1,.7,3.594v.012a3.69,3.69,0,0,1-3.187,3.288l-.063.014a6.451,6.451,0,0,1-6.718-3.263,6.926,6.926,0,0,1-.805-4.272,7.34,7.34,0,0,1,1.791-3.929l.014-.012a9.8,9.8,0,0,1,7.828-3.211,9.728,9.728,0,0,1,4.056,1.1,9.258,9.258,0,0,1,3.148,2.713,11.444,11.444,0,0,1,.026,13.551l-.012.024a13.468,13.468,0,0,1-11.9,5.373h-.012a13.637,13.637,0,0,1-7.561-3.007,15.04,15.04,0,0,1-4.695-6.5c-.077-.2-.155-.407-.218-.613,0-.012,0-.026-.014-.026a15.076,15.076,0,0,1-.615-2.852.027.027,0,0,1,0-.04,6.932,6.932,0,0,0-.087-.894.9.9,0,0,1-.014-.192,15.793,15.793,0,0,1,1.561-7.523,13.53,13.53,0,0,1,.73-1.343,16.465,16.465,0,0,1,6.512-6.258,13.706,13.706,0,0,1,2.406-1.035,17.847,17.847,0,0,1,10.823-.23c.294.077.575.165.871.268a18.148,18.148,0,0,1,9.326,7.307A19.241,19.241,0,0,1-55.163,258.928Z" transform="translate(180.355 -155.541)" fill="#8c757e"/></g><g transform="translate(-137.861 512.536)"><rect width="129.881" height="85.136" transform="translate(0.008)" fill="#ede3b7"/><rect width="129.897" height="7.638" transform="translate(0 7.558)" fill="#8c757e"/><rect width="129.897" height="7.64" transform="translate(0 19.015)" fill="#ffad54"/><rect width="129.897" height="7.641" transform="translate(0 61.028)" fill="#ffad54"/><rect width="129.897" height="7.638" transform="translate(0 72.234)" fill="#ff9696"/><path d="M386.942,288.427v6.783l-14.851,7.232-16.7-8.148-16.7,8.148-16.7-8.148-16.7,8.148-16.7-8.148-16.683,8.148-14.83-7.232v-6.783l14.83,7.232,16.683-8.148,16.7,8.148,16.7-8.148,16.7,8.148,16.7-8.148,16.7,8.148Z" transform="translate(-257.053 -256.609)" fill="#ff9696"/><path d="M386.942,292.338v6.783l-14.851,7.232-16.7-8.148-16.7,8.148-16.7-8.148-16.7,8.148-16.7-8.148-16.683,8.148-14.83-7.232v-6.783l14.83,7.232,16.683-8.148,16.7,8.148,16.7-8.148,16.7,8.148,16.7-8.148,16.7,8.148Z" transform="translate(-257.053 -249.825)" fill="#8c757e"/></g></g></svg>