<svg xmlns="http://www.w3.org/2000/svg" width="604" height="287.512" viewBox="0 0 604 287.512">
  <g id="Grupo_60292" data-name="Grupo 60292" transform="translate(-156.849 -360.643)">
    <path id="Trazado_115062" data-name="Trazado 115062" d="M284.092,646.345S230.083,552.623,299.164,482.8s128.5-31.139,158.64-33.079,39.813-63.094,128.99-81.538,247.941-11.775,173.212,121.593C723.934,554.155,838,543.261,817.9,648.067Z" transform="translate(-83.059)" fill="#ffad54" opacity="0.25"/>
    <g id="Grupo_60289" data-name="Grupo 60289" transform="translate(188.989 483.648)">
      <g id="Grupo_60281" data-name="Grupo 60281" transform="translate(164.26 6.969)">
        <g id="Grupo_60278" data-name="Grupo 60278">
          <rect id="Rectángulo_7355" data-name="Rectángulo 7355" width="217.251" height="4.272" transform="translate(236.989 8.455) rotate(180)" fill="#e8b491"/>
          <path id="Trazado_115063" data-name="Trazado 115063" d="M1101.15,1086.036h4.433V940.925a2.216,2.216,0,0,0-2.217-2.217h0a2.217,2.217,0,0,0-2.217,2.217Z" transform="translate(-1085.229 -938.708)" fill="#ce8d6a"/>
          <path id="Trazado_115064" data-name="Trazado 115064" d="M2074.5,1085.949h4.433V940.925a2.217,2.217,0,0,0-2.217-2.217h0a2.217,2.217,0,0,0-2.217,2.217Z" transform="translate(-1839.724 -938.708)" fill="#ce8d6a"/>
          <path id="Trazado_115065" data-name="Trazado 115065" d="M1032.557,1591.171H1064.4a2.217,2.217,0,0,0,2.217-2.216h0a2.217,2.217,0,0,0-2.217-2.217h-31.842a2.217,2.217,0,0,0-2.217,2.217h0A2.216,2.216,0,0,0,1032.557,1591.171Z" transform="translate(-1030.34 -1441.032)" fill="#ce8d6a"/>
          <path id="Trazado_115066" data-name="Trazado 115066" d="M2005.9,1591.171h31.842a2.216,2.216,0,0,0,2.216-2.216h0a2.217,2.217,0,0,0-2.216-2.217H2005.9a2.217,2.217,0,0,0-2.217,2.217h0A2.216,2.216,0,0,0,2005.9,1591.171Z" transform="translate(-1784.836 -1441.032)" fill="#ce8d6a"/>
        </g>
        <g id="Grupo_60279" data-name="Grupo 60279" transform="translate(2.61 150.139)">
          <path id="Trazado_115067" data-name="Trazado 115067" d="M1044.809,1606.454h2.621a2.861,2.861,0,0,1,0,5.722h-2.621a2.861,2.861,0,1,1,0-5.722Z" transform="translate(-1041.948 -1606.454)" fill="#233862"/>
          <path id="Trazado_115068" data-name="Trazado 115068" d="M1043.405,1610.445a2.533,2.533,0,1,0,2.533-2.534A2.533,2.533,0,0,0,1043.405,1610.445Z" transform="translate(-1043.077 -1607.583)" fill="#e8b491"/>
          <path id="Trazado_115069" data-name="Trazado 115069" d="M1145.825,1606.454h2.621a2.861,2.861,0,0,1,0,5.722h-2.621a2.861,2.861,0,1,1,0-5.722Z" transform="translate(-1120.251 -1606.454)" fill="#233862"/>
          <path id="Trazado_115070" data-name="Trazado 115070" d="M1144.421,1610.445a2.533,2.533,0,1,0,2.533-2.534A2.533,2.533,0,0,0,1144.421,1610.445Z" transform="translate(-1121.381 -1607.583)" fill="#e8b491"/>
        </g>
        <g id="Grupo_60280" data-name="Grupo 60280" transform="translate(221.462 150.139)">
          <path id="Trazado_115071" data-name="Trazado 115071" d="M2018.156,1606.454h2.621a2.861,2.861,0,1,1,0,5.722h-2.621a2.861,2.861,0,1,1,0-5.722Z" transform="translate(-2015.295 -1606.454)" fill="#ce8d6a"/>
          <path id="Trazado_115072" data-name="Trazado 115072" d="M2016.752,1610.445a2.533,2.533,0,1,0,2.534-2.534A2.533,2.533,0,0,0,2016.752,1610.445Z" transform="translate(-2016.424 -1607.583)" fill="#e8b491"/>
          <path id="Trazado_115073" data-name="Trazado 115073" d="M2119.171,1606.454h2.621a2.861,2.861,0,1,1,0,5.722h-2.621a2.861,2.861,0,1,1,0-5.722Z" transform="translate(-2093.598 -1606.454)" fill="#ce8d6a"/>
          <path id="Trazado_115074" data-name="Trazado 115074" d="M2117.768,1610.445a2.534,2.534,0,1,0,2.533-2.534A2.533,2.533,0,0,0,2117.768,1610.445Z" transform="translate(-2094.728 -1607.583)" fill="#e8b491"/>
        </g>
        <path id="Trazado_115075" data-name="Trazado 115075" d="M1815.112,974.469c4.6-2.942,13.662-7.862,23.26-8.161v-8.217c0-.886.431-2.589,2.063-2.688a2.317,2.317,0,0,0,1.631-.837,2.64,2.64,0,0,0,.658-1.837,2.894,2.894,0,0,0-3.028-2.831,1.622,1.622,0,0,0-1.31.69h-1.465a3.005,3.005,0,0,1,2.776-1.951,4.124,4.124,0,0,1,4.283,3.976,3.9,3.9,0,0,1-.956,2.774,3.584,3.584,0,0,1-2.511,1.275c-.858.052-.878,1.376-.879,1.43v8.2c9.183.115,18.175,4.794,22.786,7.619a2.4,2.4,0,0,1-1.259,4.443h-44.909a2.11,2.11,0,0,1-1.139-3.888Zm.95,1.832a.177.177,0,0,0,.189.141h44.909a.464.464,0,0,0,.468-.356.45.45,0,0,0-.209-.539c-4.5-2.758-13.314-7.341-22.158-7.341l-.357,0c-9.309.131-18.255,4.989-22.759,7.874A.176.176,0,0,0,1816.062,976.3Z" transform="translate(-1637.905 -946.405)" fill="#ce8d6a"/>
        <path id="Trazado_115076" data-name="Trazado 115076" d="M1314.7,972.2c4.6-2.943,13.662-7.862,23.26-8.161v-8.216c0-.886.431-2.589,2.063-2.688a2.316,2.316,0,0,0,1.631-.837,2.64,2.64,0,0,0,.658-1.837,2.894,2.894,0,0,0-3.028-2.831,1.855,1.855,0,0,0-1.629,1.2h-1.365c.763-2.026,2.043-2.46,2.994-2.46a4.124,4.124,0,0,1,4.283,3.976,3.9,3.9,0,0,1-.956,2.773,3.584,3.584,0,0,1-2.511,1.275c-.858.052-.878,1.376-.879,1.43v8.2c9.183.115,18.174,4.794,22.786,7.619a2.4,2.4,0,0,1-1.259,4.443h-44.909a2.11,2.11,0,0,1-1.139-3.888Zm.95,1.832a.177.177,0,0,0,.189.141h44.909a.463.463,0,0,0,.468-.356.45.45,0,0,0-.209-.54c-4.5-2.758-13.314-7.341-22.158-7.341l-.357,0c-9.309.131-18.255,4.99-22.759,7.874A.175.175,0,0,0,1315.645,974.033Z" transform="translate(-1250.004 -944.647)" fill="#ce8d6a"/>
        <path id="Trazado_115077" data-name="Trazado 115077" d="M1250.592,972.2c4.595-2.943,13.662-7.862,23.26-8.161v-8.216c0-.886.431-2.589,2.063-2.688a2.315,2.315,0,0,0,1.631-.837,2.639,2.639,0,0,0,.658-1.837,2.894,2.894,0,0,0-3.028-2.831,1.854,1.854,0,0,0-1.628,1.2h-1.365c.763-2.026,2.043-2.46,2.994-2.46a4.124,4.124,0,0,1,4.283,3.976,3.9,3.9,0,0,1-.956,2.773,3.584,3.584,0,0,1-2.512,1.275c-.857.052-.878,1.376-.878,1.43v8.2c9.183.115,18.174,4.794,22.786,7.619a2.4,2.4,0,0,1-1.259,4.443h-44.909a2.11,2.11,0,0,1-1.139-3.888Zm.95,1.832a.177.177,0,0,0,.189.141h44.909a.464.464,0,0,0,.468-.356.45.45,0,0,0-.209-.54c-4.5-2.758-13.314-7.341-22.158-7.341l-.357,0c-9.309.131-18.255,4.99-22.759,7.874A.176.176,0,0,0,1251.542,974.033Z" transform="translate(-1200.314 -944.647)" fill="#ce8d6a"/>
        <path id="Trazado_115078" data-name="Trazado 115078" d="M1341.389,1039.714a26.277,26.277,0,0,1-17.08,5.862c-10.084-.378-14.874-5.42-14.874-5.42s-7.942,4.033-9.58,6.3-2.395,25.463-2.395,25.463a23.1,23.1,0,0,0,7.941,1.387l1.639-4.916-4.966,82.458s6.143.252,9.84-1.868c3.563-2.043,8.931.678,13.721,1.322s7.541-3,12.247-1.49a26.442,26.442,0,0,0,13.025,1.008l-7.557-81.667,2.047,4.777s7.022,0,9.291-2.4c0,0-2.689-24.664-4.2-26.177S1341.389,1039.714,1341.389,1039.714Z" transform="translate(-1237.4 -1017.003)" fill="#80bdcc"/>
        <path id="Trazado_115079" data-name="Trazado 115079" d="M1277.285,1038.938a26.276,26.276,0,0,1-17.08,5.861c-10.084-.378-14.874-5.42-14.874-5.42s-7.941,4.034-9.58,6.3-2.4,25.463-2.4,25.463a23.1,23.1,0,0,0,7.941,1.387l1.639-4.917-5.236,94.107s6.413.834,10.111-1.286c3.563-2.043,8.93.678,13.72,1.322s7.541-1.256,12.247.257a26.441,26.441,0,0,0,13.025,1.009l-7.557-95.645,2.048,4.777s7.022,0,9.291-2.4c0,0-2.689-24.664-4.2-26.177S1277.285,1038.938,1277.285,1038.938Z" transform="translate(-1187.709 -1016.402)" fill="#8c757e"/>
        <path id="Trazado_115080" data-name="Trazado 115080" d="M1841.806,1041.981a26.278,26.278,0,0,1-17.08,5.862c-10.084-.378-14.874-5.42-14.874-5.42s-7.941,4.034-9.58,6.3-2.4,25.463-2.4,25.463a23.106,23.106,0,0,0,7.941,1.387l-.365-4.617-2.962,82.159s6.143.252,9.84-1.868c3.563-2.043,8.93.678,13.72,1.322s7.54-3,12.247-1.49a26.445,26.445,0,0,0,13.025,1.009l-7.557-81.667,2.047,4.777s7.022,0,9.291-2.4c0,0-2.689-24.665-4.2-26.177S1841.806,1041.981,1841.806,1041.981Z" transform="translate(-1625.3 -1018.761)" fill="#a8d29f"/>
        <path id="Trazado_115081" data-name="Trazado 115081" d="M1664.444,974.469a61.236,61.236,0,0,1,8.393-4.5,50.209,50.209,0,0,1,5-1.886,36.612,36.612,0,0,1,9.865-1.777h0v-8.214c0-.886.431-2.589,2.063-2.688a2.316,2.316,0,0,0,1.631-.837,2.64,2.64,0,0,0,.658-1.837,2.894,2.894,0,0,0-3.028-2.831,1.622,1.622,0,0,0-1.311.69h-1.466a3.006,3.006,0,0,1,2.776-1.951,4.124,4.124,0,0,1,4.283,3.976,3.9,3.9,0,0,1-.956,2.774,3.583,3.583,0,0,1-2.511,1.275c-.858.052-.878,1.376-.879,1.43v8.2a36.342,36.342,0,0,1,10.982,2.027c1.591.535,3.111,1.137,4.533,1.768a63.035,63.035,0,0,1,7.271,3.827,2.4,2.4,0,0,1-1.258,4.442h-44.91a2.109,2.109,0,0,1-1.137-3.887Zm.948,1.833a.178.178,0,0,0,.189.141h44.91a.464.464,0,0,0,.469-.358.453.453,0,0,0-.212-.54,60.665,60.665,0,0,0-7.069-3.716c-1.409-.625-2.92-1.223-4.5-1.744a34.028,34.028,0,0,0-10.594-1.878c-.118,0-.237,0-.355,0a34.478,34.478,0,0,0-9.774,1.682,49.561,49.561,0,0,0-5.468,2.1,60.176,60.176,0,0,0-7.517,4.089A.176.176,0,0,0,1665.392,976.3Z" transform="translate(-1521.113 -946.405)" fill="#ce8d6a"/>
        <path id="Trazado_115082" data-name="Trazado 115082" d="M1551.573,974.416a63.049,63.049,0,0,1,7.271-3.827c1.422-.63,2.942-1.233,4.533-1.767a36.332,36.332,0,0,1,10.982-2.027v-8.2c0-.054-.021-1.377-.879-1.43a3.583,3.583,0,0,1-2.512-1.275,3.9,3.9,0,0,1-.956-2.773,4.124,4.124,0,0,1,4.283-3.976,2.972,2.972,0,0,1,2.722,1.838h-1.5a1.582,1.582,0,0,0-1.218-.577,2.9,2.9,0,0,0-3.028,2.831,2.641,2.641,0,0,0,.658,1.837,2.315,2.315,0,0,0,1.631.837c1.632.1,2.063,1.8,2.063,2.688v8.214h0a36.625,36.625,0,0,1,9.865,1.777,50.336,50.336,0,0,1,5,1.886,61.258,61.258,0,0,1,8.393,4.5,2.11,2.11,0,0,1-1.137,3.888h-44.91a2.4,2.4,0,0,1-1.258-4.442Zm.789,2.17a.465.465,0,0,0,.469.358h44.91a.2.2,0,0,0,.106-.361,60.177,60.177,0,0,0-7.517-4.089,49.5,49.5,0,0,0-5.468-2.1,34.466,34.466,0,0,0-9.774-1.682c-.118,0-.237,0-.355,0a34.031,34.031,0,0,0-10.594,1.878c-1.576.522-3.086,1.119-4.495,1.744a60.632,60.632,0,0,0-7.069,3.716A.453.453,0,0,0,1552.362,976.587Z" transform="translate(-1433.489 -946.794)" fill="#ce8d6a"/>
        <path id="Trazado_115083" data-name="Trazado 115083" d="M1723.748,1130.35a7.352,7.352,0,0,1-7.52,1.712,14.668,14.668,0,0,0-10.25.59c-5.373,3.346-11.247,3.692-13.7-.588-1.635-2.856-6.807,3.025-17.526.807,0,0,8.859-54.093,9.11-60.506s-5.243-13.991-1.714-26.722c0,0,.015-.089.038-.25.048-.353.134-1.054.189-1.913a16.167,16.167,0,0,0-.247-4.614,4.182,4.182,0,0,0-.8-1.742c1.422-.63,2.942-1.233,4.533-1.767.2.467.454,1.069.761,1.765.771,1.742,1.868,4.071,3.139,6.358.357.646.731,1.288,1.116,1.913,2,3.27,4.3,6.051,6.4,6.3,0,0,2.758-.37,6.242-6.3.343-.582.691-1.217,1.046-1.913a56.276,56.276,0,0,0,2.784-6.552q.31-.87.622-1.808a50.241,50.241,0,0,1,5,1.886,2.554,2.554,0,0,1,.187.318s-.171.66-.343,1.707a24.974,24.974,0,0,0-.338,4.45,17.751,17.751,0,0,0,.141,1.913c.01.083.023.167.036.25,0,0,1.646,3.19,1.141,8.988s-2.86,11.717-2.693,17.728C1711.33,1080.435,1723.5,1120.518,1723.748,1130.35Zm-40.561-84.048c-.409-.257-.708-.448-.877-.557C1682.479,1045.859,1682.778,1046.053,1683.187,1046.3Z" transform="translate(-1529.861 -1013.442)" fill="#fc7972"/>
        <path id="Trazado_115084" data-name="Trazado 115084" d="M1607.6,1122.116a7.353,7.353,0,0,1-7.52,1.711,14.665,14.665,0,0,0-10.25.59c-5.373,3.346-11.247,3.692-13.7-.588-1.635-2.856-6.807,3.025-17.527.807,0,0,10.891-45.363,11.143-51.777s-7.275-13.985-3.746-26.716c0,0,.015-.088.038-.25.048-.353.133-1.054.189-1.914a16.146,16.146,0,0,0-.247-4.614,4.177,4.177,0,0,0-.8-1.742c1.422-.63,2.942-1.233,4.533-1.767.2.467.454,1.069.761,1.765.772,1.742,1.868,4.071,3.139,6.358.358.646.731,1.288,1.117,1.914,2,3.269,4.3,6.051,6.4,6.3,0,0,2.758-.37,6.242-6.3.343-.582.691-1.218,1.046-1.914a56.125,56.125,0,0,0,2.783-6.552q.311-.87.623-1.808a50.246,50.246,0,0,1,5,1.886,2.551,2.551,0,0,1,.187.318s-.171.66-.343,1.707a24.943,24.943,0,0,0-.338,4.45,17.578,17.578,0,0,0,.141,1.914c.01.083.023.166.035.25,0,0,1.646,3.19,1.142,8.989s-2.861,11.717-2.693,17.728C1595.182,1080.937,1607.347,1112.284,1607.6,1122.116Zm-40.562-75.312c-.408-.257-.708-.448-.878-.557C1566.33,1046.361,1566.63,1046.555,1567.038,1046.8Z" transform="translate(-1439.828 -1013.831)" fill="#4d8693"/>
      </g>
      <path id="Trazado_115085" data-name="Trazado 115085" d="M988.766,1346.638a1.747,1.747,0,0,0,1.747-1.747v-79.5h38.862v79.5a1.747,1.747,0,0,0,3.494,0V1261.9H987.019v82.994A1.747,1.747,0,0,0,988.766,1346.638Z" transform="translate(-832.5 -1182.261)" fill="#ba7556"/>
      <path id="Trazado_115086" data-name="Trazado 115086" d="M637.143,1170.2h0l9.045,42.719-3.576.022-8.292-39.161A2.967,2.967,0,0,1,637.143,1170.2Z" transform="translate(-559.053 -1111.179)" fill="#41828c"/>
      <path id="Trazado_115087" data-name="Trazado 115087" d="M643.76,1441a1.748,1.748,0,0,0,1.737-1.578l5.088-52.3h24.434l5.088,52.3a1.747,1.747,0,0,0,3.478-.339l-5.395-55.452H647.414l-5.395,55.452a1.747,1.747,0,0,0,1.57,1.908C643.646,1441,643.7,1441,643.76,1441Z" transform="translate(-565.065 -1276.626)" fill="#41828c"/>
      <rect id="Rectángulo_7356" data-name="Rectángulo 7356" width="34.127" height="2.912" transform="translate(115.208 143.174) rotate(180)" fill="#41828c"/>
      <path id="Trazado_115088" data-name="Trazado 115088" d="M729.235,1441a1.747,1.747,0,0,0,1.737-1.578l5.088-52.3h24.434l5.088,52.3a1.747,1.747,0,0,0,3.478-.339l-5.4-55.452H732.889l-5.4,55.452a1.747,1.747,0,0,0,1.57,1.908C729.121,1441,729.178,1441,729.235,1441Z" transform="translate(-631.321 -1276.626)" fill="#7bb8c6"/>
      <rect id="Rectángulo_7357" data-name="Rectángulo 7357" width="34.127" height="2.912" transform="translate(133.786 143.174) rotate(180)" fill="#7bb8c6"/>
      <path id="Trazado_115089" data-name="Trazado 115089" d="M703.14,1365.464H648.92a2.635,2.635,0,0,1-2.635-2.635h0a2.635,2.635,0,0,1,2.635-2.635h54.22a2.635,2.635,0,0,1,2.635,2.635h0A2.635,2.635,0,0,1,703.14,1365.464Z" transform="translate(-568.378 -1258.455)" fill="#fc7972"/>
      <rect id="Rectángulo_7358" data-name="Rectángulo 7358" width="41.033" height="15.637" rx="7.818" transform="translate(113.232 74.131) rotate(180)" fill="#fc7972"/>
      <path id="Trazado_115090" data-name="Trazado 115090" d="M996.92,1448.715a1.707,1.707,0,0,0,1.42,1.188.016.016,0,0,0,.01,0c1.273.237,3.182-.329,5.208-1.1.26-.1.494-.183.705-.253.055-.018.111-.037.165-.053l.128-.04c2.051-.622,2.037.057,6.014-.89,4.532-1.081,5.71-2.967,5.767-3.667.046-.594-2.04-.559-4.377-.536-.113,0-.226,0-.341,0-.311,0-.625,0-.936.005-2.793,0-3.584-.89-6.506-3-2.375-1.711-11.74-12.16-11.74-12.16l-4.054,4.794s8.233,7,8.606,9.6c.2,1.389-.416,2.454-.392,3.692,0,.087,0,.174.008.26A8.126,8.126,0,0,0,996.92,1448.715Z" transform="translate(-833.557 -1311.187)" fill="#e49963"/>
      <path id="Trazado_115091" data-name="Trazado 115091" d="M1025.239,1500.9a1.707,1.707,0,0,0,1.42,1.188.015.015,0,0,0,.01,0,13.152,13.152,0,0,0,5.2-1.109c.261-.094.5-.175.713-.242.056-.018.111-.037.165-.053l.128-.04c2.051-.622,2.037.057,6.014-.89,4.532-1.081,5.711-2.967,5.767-3.667.046-.594-2.04-.559-4.377-.536a13.757,13.757,0,0,1-6.572,2.813c-3.124.419-6.529-.078-8.791.127,0,.087,0,.174.008.26A8.126,8.126,0,0,0,1025.239,1500.9Z" transform="translate(-861.876 -1363.369)" fill="#1c468a"/>
      <path id="Trazado_115092" data-name="Trazado 115092" d="M954.87,1556.516c.259,1.93,3,1.786,6.079,1.239s2.3.288,6.655.087,5.762-1.729,5.935-2.362c.154-.563-1.967-.9-4.24-1.311-.286-.051-.573-.1-.86-.159-2.564-.49-4.35-2.279-6.61-3.8-2.141-1.44-5.122-6.939-5.122-6.939l-5.954.09s2.806,4.921,3.877,7.051a7.17,7.17,0,0,1,.323,4.074A7.627,7.627,0,0,0,954.87,1556.516Z" transform="translate(-804.389 -1400.369)" fill="#e49963"/>
      <path id="Trazado_115093" data-name="Trazado 115093" d="M974.993,1594.9c3.1-.447,2.294.363,6.649.3s5.832-2.264,6.026-2.891c.172-.557-1.065-.723-3.323-1.207l-.9-.2a9.86,9.86,0,0,1-6.372,2.044c-2.93-.212-5.945-1.349-7.967-1.511a7.611,7.611,0,0,0-.15,2.026C969.154,1595.4,971.895,1595.347,974.993,1594.9Z" transform="translate(-818.483 -1437.294)" fill="#1c468a"/>
      <path id="Trazado_115094" data-name="Trazado 115094" d="M965.892,1132.779s1.414-3.465,2.97-3.607,6.506-.92,6.86-.212a4.894,4.894,0,0,1-1.061,4.172c-1.061.919-7.637,2.4-7.637,2.4Z" transform="translate(-816.123 -1078.987)" fill="#e49963"/>
      <path id="Trazado_115095" data-name="Trazado 115095" d="M887.91,1302.194l18.532,31.713s2.921,5.135,1.306,6.249a16.578,16.578,0,0,1-3.759,1.731s-23.566-23.4-25.2-32.26S887.91,1302.194,887.91,1302.194Z" transform="translate(-748.474 -1213.431)" fill="#233862"/>
      <path id="Trazado_115096" data-name="Trazado 115096" d="M678.465,1262.966s38.785-1.3,45.873,3.593,16.538,58.891,16.538,58.891a4.751,4.751,0,0,1-2.361.655,19.551,19.551,0,0,1-4.763-.917s-15.782-24.639-16.713-30.72-.419-11.451-3.1-11.706-40.468,3.335-43.5-7.009a21.847,21.847,0,0,1,2.248-17.393Z" transform="translate(-586.418 -1179.518)" fill="#8c757e"/>
      <path id="Trazado_115097" data-name="Trazado 115097" d="M687.921,938.979a20.889,20.889,0,0,0,1.564-7.2c-.049.381-.711,5.221-2.572,7.961-7.645,5.02-22.3,21.78-22.009,24.956,0,0-5.162-8.755-5.251-8.807,0,0-9.521-12.108,1.763-19.043,5.736-3.525,5.706-8.049,5.467-11.978s1.564-20.847,13.054-16.42a7.479,7.479,0,0,1,2.67-.7,2.257,2.257,0,0,0-1.017.483,8.913,8.913,0,0,1,4.825.923C690.625,911.547,694.395,933.02,687.921,938.979Z" transform="translate(-575.83 -907.712)" fill="#2c3a64"/>
      <path id="Trazado_115098" data-name="Trazado 115098" d="M754.506,1012.234c.038.017-3.691,1.954-6.5,1.187-2.639-.72-4.363-4.141-4.327-4.149,1.117-.222,1.44-1.757,1.416-8.357l.505.1,8.495,1.682s-.193,2.673-.2,5.192C753.893,1010,754.022,1012.009,754.506,1012.234Z" transform="translate(-643.876 -979.959)" fill="#e49963"/>
      <path id="Trazado_115099" data-name="Trazado 115099" d="M760.724,1003.039s-.193,2.673-.2,5.192c-4.754-.134-7.266-4.47-8.3-6.874Z" transform="translate(-650.501 -980.301)" fill="#d68d5d"/>
      <path id="Trazado_115100" data-name="Trazado 115100" d="M737.426,937.071a24.987,24.987,0,0,1-3.089-7.3c-.427-2.4.8-11.309,9.747-10.027a12.158,12.158,0,0,1,5.043,1.906c1.943,1.313,4.748,4.146,1.612,11.918l-.815,2.626Z" transform="translate(-636.576 -916.94)" fill="#2c3a64"/>
      <path id="Trazado_115101" data-name="Trazado 115101" d="M757.833,954.018s-11.246.185-11.254-6.82-1.465-11.7,5.716-12.115,8.579,2.257,9.15,4.595S760.759,953.789,757.833,954.018Z" transform="translate(-646.024 -928.896)" fill="#e49963"/>
      <path id="Trazado_115102" data-name="Trazado 115102" d="M734.747,931.039s7.681-5.252,10.112-1.62c.737-.632,2.049-1.089,3.785,1.015,2.607,3.16.287,8.747.287,8.747-1.07.125-1.322-3.548-1.883-5.332a8.921,8.921,0,0,0-2.5-3.314c-.981,2.212-3.68,7.505-7.4,8.462-4.726,1.215-6.776-.051-6.776-.051A13.384,13.384,0,0,0,734.747,931.039Z" transform="translate(-633.557 -923.546)" fill="#2c3a64"/>
      <path id="Trazado_115103" data-name="Trazado 115103" d="M659.208,1098.057c.607,1.684,2.467,2.118,4.96,1.825,4.754-.555,11.816-3.747,16.9-5.955,7.758-3.363,11.285-.2,13.753-2.343s-2.821-6.9,1.763-29c1.555-7.494-8.292-23.573-8.292-23.573s-.682,4.356-10.284-.932a88.223,88.223,0,0,0-7.617,12.07c-3.939,7.473-7.712,16.5-6.6,21.15C665.909,1080.169,657.445,1093.165,659.208,1098.057Z" transform="translate(-578.207 -1008.769)" fill="#86d1cd"/>
      <path id="Trazado_115104" data-name="Trazado 115104" d="M789.422,1042.225l5.806,23.851s.723,1.287,1.857,3.119c2.661,4.3,7.586,11.611,10.739,12.353,1.555.367,4.863-.927,8.523-2.777a173.114,173.114,0,0,0,15.1-8.977c.529-3.174-2.232-5.76-2.232-5.76s-16.575,6.23-18.222,6.348c-3.588.256-7.24-17.063-10.594-22.834C797.979,1043.374,789.422,1042.225,789.422,1042.225Z" transform="translate(-679.331 -1011.98)" fill="#86d1cd"/>
      <path id="Trazado_115105" data-name="Trazado 115105" d="M785.951,998.6s.209.89,2.423.753c0,0,1.859-.115,1.8-1.093A5.981,5.981,0,0,0,785.951,998.6Z" transform="translate(-676.641 -977.72)" fill="#fff"/>
      <path id="Trazado_115106" data-name="Trazado 115106" d="M659.208,1169.568c.607,1.684,2.467,2.118,4.96,1.825,3.29-1.434,17.5-6.94,17.345-10.671-.236-5.524-2.733-5.7-.97-12.519,1.416-5.475-11.718-15.655-13.812-17.868-3.939,7.472-4.048,7.826-2.939,12.477C665.909,1151.68,657.445,1164.675,659.208,1169.568Z" transform="translate(-578.207 -1080.279)" fill="#599dad"/>
      <path id="Trazado_115107" data-name="Trazado 115107" d="M823.5,1158.9c2.661,4.3,7.586,11.611,10.739,12.354,1.555.367,4.863-.927,8.523-2.777a22.136,22.136,0,0,1-7.788.427c-2.733-.264-3.526-3.615-7.846-8.64C824.326,1157.005,823.639,1157.826,823.5,1158.9Z" transform="translate(-705.748 -1101.686)" fill="#599dad"/>
      <path id="Trazado_115108" data-name="Trazado 115108" d="M514.768,1346.638a1.747,1.747,0,0,0,1.747-1.747v-78.16h38.862v78.16a1.747,1.747,0,0,0,3.494,0V1261.9H513.021v82.994A1.747,1.747,0,0,0,514.768,1346.638Z" transform="translate(-465.078 -1182.261)" fill="#ba7556"/>
      <rect id="Rectángulo_7359" data-name="Rectángulo 7359" width="48.884" height="4.521" transform="translate(87.917 81.209) rotate(180)" fill="#e8b491"/>
      <rect id="Rectángulo_7360" data-name="Rectángulo 7360" width="117.968" height="4.521" transform="translate(205.885 81.209) rotate(180)" fill="#ce8d6a"/>
      <path id="Trazado_115109" data-name="Trazado 115109" d="M764.41,1115.4v-9.553a2.465,2.465,0,0,1,2.465-2.465h11.7a2.465,2.465,0,0,1,2.465,2.465h18.953v8.813H783.5a2.465,2.465,0,0,0-2.465,2.466h-.128a2.016,2.016,0,0,0-2,2.3l1.484,10.592H808.96v6.061H764.673v-4.725a1.336,1.336,0,0,1,1.336-1.336h0l.416-10.794a2.014,2.014,0,0,0-.892-1.752A2.5,2.5,0,0,1,764.41,1115.4Z" transform="translate(-659.943 -1059.385)" fill="#d86713"/>
      <path id="Trazado_115110" data-name="Trazado 115110" d="M783.293,1115.4v-9.553a2.465,2.465,0,0,1,2.465-2.465h11.7a2.465,2.465,0,0,1,2.465,2.465h18.953v8.813H802.388a2.466,2.466,0,0,0-2.465,2.466h-.128a2.016,2.016,0,0,0-2,2.3l1.484,10.592h26.257a2.3,2.3,0,0,1,2.3,2.3v3.757H783.556v-4.725a1.336,1.336,0,0,1,1.336-1.336h0l.416-10.794a2.014,2.014,0,0,0-.892-1.752A2.5,2.5,0,0,1,783.293,1115.4Z" transform="translate(-674.581 -1059.385)" fill="#f1a34f"/>
      <rect id="Rectángulo_7361" data-name="Rectángulo 7361" height="0.408" transform="translate(144.269 64.087)" fill="#9ed9f0"/>
      <path id="Trazado_115111" data-name="Trazado 115111" d="M932.467,1103.38h5.973a2.837,2.837,0,0,1,2.837,2.837v8.07a2.838,2.838,0,0,1-2.837,2.837h-1.381v5.561a1.66,1.66,0,0,1-1.281,1.615v4.715h-.7v-4.7a1.66,1.66,0,0,1-1.339-1.628v-5.561h-1.273a2.837,2.837,0,0,1-2.837-2.837v-8.07A2.837,2.837,0,0,1,932.467,1103.38Z" transform="translate(-788.015 -1059.385)" fill="#f1a34f"/>
      <path id="Trazado_115112" data-name="Trazado 115112" d="M948.514,1082.4h.579v-3.669h-.546v-.633h1.545v-.59h.179v.59h1.4v.633h-.611v3.669h.579v.634H950.27v.939h-.179v-.939h-1.578Z" transform="translate(-802.652 -1039.332)" fill="#f1a34f"/>
      <path id="Trazado_115113" data-name="Trazado 115113" d="M755.529,1098.422c3.056,0,5.533,3.824,5.533,8.541s-2.477,8.542-5.533,8.542-5.533-3.824-5.533-8.542S752.473,1098.422,755.529,1098.422Zm-3.953,7.435h1.807a3.177,3.177,0,0,1,1.429-2.206v-2.79C753.168,1101.319,751.873,1103.319,751.576,1105.857Zm4.669-5v2.79a3.177,3.177,0,0,1,1.429,2.206h1.807C759.185,1103.319,757.89,1101.319,756.246,1100.862Zm3.236,7.208h-1.807a3.178,3.178,0,0,1-1.429,2.206v2.789C757.89,1112.608,759.185,1110.608,759.482,1108.07Zm-4.669,5v-2.789a3.178,3.178,0,0,1-1.429-2.206h-1.807C751.873,1110.608,753.168,1112.608,754.812,1113.066Z" transform="translate(-648.77 -1055.542)" fill="#e8b491"/>
      <path id="Trazado_115114" data-name="Trazado 115114" d="M751.688,1098.422c3.056,0,5.533,3.824,5.533,8.541s-2.477,8.542-5.533,8.542-5.533-3.824-5.533-8.542S748.632,1098.422,751.688,1098.422Zm-3.953,7.435h1.807a3.176,3.176,0,0,1,1.429-2.206v-2.79C749.327,1101.319,748.031,1103.319,747.735,1105.857Zm4.669-5v2.79a3.176,3.176,0,0,1,1.429,2.206h1.807C755.344,1103.319,754.049,1101.319,752.4,1100.862Zm3.236,7.208h-1.807a3.177,3.177,0,0,1-1.429,2.206v2.789C754.049,1112.608,755.344,1110.608,755.641,1108.07Zm-4.669,5v-2.789a3.178,3.178,0,0,1-1.429-2.206h-1.807C748.031,1110.608,749.327,1112.608,750.971,1113.066Z" transform="translate(-645.793 -1055.542)" fill="#ba7556"/>
      <path id="Trazado_115115" data-name="Trazado 115115" d="M744.748,1152.487s2.38-1.851,4.629-1.411,3.35,1.984,3.262,2.689a4.01,4.01,0,0,1-3,2.865c-1.719.176-6.612-1.058-6.612-1.058Z" transform="translate(-643.37 -1096.304)" fill="#e49963"/>
      <path id="Trazado_115116" data-name="Trazado 115116" d="M661.684,1038.083s-9.167.565-12.34,4.991c-4.467,6.23-15.188,33.943-10.11,37.484,5.719,3.988,25.523-10.426,25.523-10.426s.676-3.159-.264-4.687-12.342,2.525-13.048,1.819,7.3-9.967,7.3-12.083S661.684,1038.083,661.684,1038.083Z" transform="translate(-561.877 -1008.77)" fill="#86d1cd"/>
      <path id="Trazado_115117" data-name="Trazado 115117" d="M846.92,1217.961s9.668.958,9.2,6.061c0,0,4.776.677,4.426,4.521s-6.058,35.875-1.748,49.153-26.672,21.091-26.672,34.015h111s-22.713-.47-24.809-11.186,7.8-25.6,1.98-35.689.233-43.42-24.11-42.117c-19.1-.117-31.725-7.847-38.452-5.4A23.661,23.661,0,0,0,846.92,1217.961Z" transform="translate(-712.435 -1147.334)" fill="#fc7972"/>
      <path id="Trazado_115118" data-name="Trazado 115118" d="M958.905,1368.353s5.312,40.417-9.341,47.406,15.63,9.792,27.162,6.935c0,0-14.545,1.118-15.542-5.7S965.777,1390.018,958.905,1368.353Z" transform="translate(-800.426 -1264.78)" fill="#c4453b"/>
      <path id="Trazado_115119" data-name="Trazado 115119" d="M1124.94,1330.319a30.387,30.387,0,0,0,3.378-27.022c-5.474-15.142-1.048-30.75-6.639-31.332s-.815,24.46,2.8,31.681S1124.94,1330.319,1124.94,1330.319Z" transform="translate(-934.895 -1190.057)" fill="#c4453b"/>
      <path id="Trazado_115120" data-name="Trazado 115120" d="M1050.549,1324.838a85.491,85.491,0,0,1,4.107,41.012S1061.376,1347.394,1050.549,1324.838Z" transform="translate(-881.746 -1231.05)" fill="#c4453b"/>
      <path id="Trazado_115121" data-name="Trazado 115121" d="M947.778,1222.073a7.246,7.246,0,0,1,5.547,5.46S954.077,1223.03,947.778,1222.073Z" transform="translate(-802.082 -1151.391)" fill="#c4453b"/>
      <path id="Trazado_115122" data-name="Trazado 115122" d="M792.183,1214.294l.129-2.257,12.841,2.213Z" transform="translate(-681.472 -1143.611)" fill="#d86713"/>
      <path id="Trazado_115123" data-name="Trazado 115123" d="M854.724,1116.4s.371,7.906-.677,9.085C854.047,1125.481,856.209,1124.848,854.724,1116.4Z" transform="translate(-729.426 -1069.474)" fill="#d86713"/>
      <path id="Trazado_115124" data-name="Trazado 115124" d="M928.563,1119.989v6.683A19.471,19.471,0,0,1,928.563,1119.989Z" transform="translate(-786.947 -1072.26)" fill="#d86713"/>
      <g id="Grupo_60288" data-name="Grupo 60288" transform="translate(0 95.557)">
        <g id="Grupo_60283" data-name="Grupo 60283" transform="translate(5.597 26.706)">
          <path id="Trazado_115125" data-name="Trazado 115125" d="M350.563,1462.8s4.679-5.459.288-8.927c0,0-3.208-1.942-5.823-1.784,0,0,3.706,6.214,2.507,6.832s-3.63-7.222-3.63-7.222-7.3-.708-9.647.421c0,0,6.24,5.106,4.925,5.41s-8.054-4.708-8.054-4.708-6.793,1.156-6.431,5.3,2.7,5.424,3.732,5.314,7.047-2.407,7.178-1.564-3.492,3.6-6.028,3.727c0,0,4.789,5.282,7.973,3.758s3.455-3.941,5.439-4.847,3.678-.9,2.859.02-4.41,1.822-5.545,3.83-2.153,3.361,1.14,2.865,8.647-2.905,8.882-5.664Z" transform="translate(-324.685 -1451.481)" fill="#599dad"/>
          <g id="Grupo_60282" data-name="Grupo 60282" transform="translate(3.352 6.722)">
            <path id="Trazado_115126" data-name="Trazado 115126" d="M339.593,1481.411s18.451-.711,22.526,4.566a13.341,13.341,0,0,0,3.674,5.156l.432,1.178s-3.2-3.371-4.341-3.575C361.884,1488.737,363.673,1482.2,339.593,1481.411Z" transform="translate(-339.593 -1481.379)" fill="#599dad"/>
            <path id="Trazado_115127" data-name="Trazado 115127" d="M452.527,1523.161a11.587,11.587,0,0,1,4.236,8.162l-.719.064s-1.265-5.411-3.551-7.527S452.527,1523.161,452.527,1523.161Z" transform="translate(-426.327 -1513.407)" fill="#599dad"/>
          </g>
        </g>
        <g id="Grupo_60285" data-name="Grupo 60285" transform="translate(42.943 11.883)">
          <path id="Trazado_115128" data-name="Trazado 115128" d="M495.675,1404.833s-7.444-4.169-3.97-9.826c0,0,2.779-3.474,5.757-4.367,0,0-1.588,8.437,0,8.635s1.092-9.529,1.092-9.529,7.841-3.771,10.918-3.474c0,0-4.864,8.238-3.276,8.04s7.047-8.536,7.047-8.536,8.04-1.489,9.33,3.276-.794,7.146-1.985,7.444-8.834.2-8.635,1.191,5.36,2.581,8.238,1.688c0,0-3.176,7.841-7.345,7.444s-5.459-2.978-8.039-3.176-4.467.5-3.176,1.191,5.658.228,7.742,2,3.772,2.864-.1,3.658-10.819.3-12.208-2.68Z" transform="translate(-490.781 -1385.556)" fill="#86d1cd"/>
          <g id="Grupo_60284" data-name="Grupo 60284" transform="translate(0.962 4.985)">
            <path id="Trazado_115129" data-name="Trazado 115129" d="M528.929,1407.725s-20.843,6.749-23.226,14.292a15.835,15.835,0,0,1-1.985,7.246v1.489s2.183-5.062,3.375-5.757C507.093,1425,502.427,1418.445,528.929,1407.725Z" transform="translate(-501.771 -1407.725)" fill="#599dad"/>
            <path id="Trazado_115130" data-name="Trazado 115130" d="M497.007,1500.323a13.747,13.747,0,0,0-1.382,10.823l.827-.222s-.8-6.545.879-9.836S497.007,1500.323,497.007,1500.323Z" transform="translate(-495.061 -1478.784)" fill="#599dad"/>
          </g>
        </g>
        <g id="Grupo_60287" data-name="Grupo 60287">
          <path id="Trazado_115131" data-name="Trazado 115131" d="M335.786,1358.117s9.813-5.5,5.233-12.953c0,0-3.663-4.579-7.589-5.757,0,0,2.093,11.121,0,11.383s-1.439-12.56-1.439-12.56-10.336-4.972-14.392-4.579c0,0,6.411,10.86,4.318,10.6S312.628,1333,312.628,1333s-10.6-1.962-12.3,4.318,1.047,9.421,2.617,9.813,11.644.261,11.383,1.57-7.065,3.4-10.86,2.224c0,0,4.187,10.336,9.682,9.813s7.2-3.925,10.6-4.187,5.888.654,4.187,1.57-7.458.3-10.205,2.636-4.972,3.775.131,4.822,14.261.392,16.093-3.533Z" transform="translate(-299.792 -1332.705)" fill="#86d1cd"/>
          <g id="Grupo_60286" data-name="Grupo 60286" transform="translate(5.378 6.571)">
            <path id="Trazado_115132" data-name="Trazado 115132" d="M323.709,1361.929s27.476,8.9,30.616,18.84a20.872,20.872,0,0,0,2.617,9.551v1.963s-2.878-6.673-4.449-7.589C352.493,1384.694,358.643,1376.059,323.709,1361.929Z" transform="translate(-323.709 -1361.929)" fill="#599dad"/>
            <path id="Trazado_115133" data-name="Trazado 115133" d="M466.986,1483.99a18.12,18.12,0,0,1,1.822,14.267l-1.09-.292s1.058-8.627-1.159-12.966S466.986,1483.99,466.986,1483.99Z" transform="translate(-433.754 -1455.599)" fill="#599dad"/>
          </g>
        </g>
        <path id="Trazado_115134" data-name="Trazado 115134" d="M395.078,1560.928a19.222,19.222,0,0,1-19.222-19.222H414.3A19.222,19.222,0,0,1,395.078,1560.928Z" transform="translate(-358.754 -1494.713)" fill="#f1a34f"/>
        <path id="Trazado_115135" data-name="Trazado 115135" d="M440.309,1560.781a19.235,19.235,0,0,0,21.609-19.075h-4.775A19.225,19.225,0,0,1,440.309,1560.781Z" transform="translate(-408.715 -1494.713)" fill="#ffb973"/>
        <path id="Trazado_115136" data-name="Trazado 115136" d="M374.675,1623.37h38.974a2.372,2.372,0,0,0-2.371-2.371H377.046a2.371,2.371,0,0,0-2.371,2.371Z" transform="translate(-357.838 -1556.177)" fill="#f1a34f"/>
        <rect id="Rectángulo_7362" data-name="Rectángulo 7362" width="39.512" height="0.59" transform="translate(56.178 47.582) rotate(180)" fill="#d86713"/>
      </g>
    </g>
    <g id="Grupo_60291" data-name="Grupo 60291" transform="translate(593.703 426.907)">
      <path id="Trazado_115137" data-name="Trazado 115137" d="M2356.481,843.409a82.135,82.135,0,0,0,6.286,6.761c4.183,4.02,9.8,8.5,14.726,9.339a7.869,7.869,0,0,0,3.791-.187,22.637,22.637,0,0,0,7.358-4.48c6.77-5.775,12.392-14.508,12.392-14.508l-3.522-3.99s-7.879,5.852-12.808,8.993c-1.96,1.243-3.446,2.72-3.795,2.57-1.225-.524-22.425-15.474-22.425-15.474Z" transform="translate(-2298.761 -792.62)" fill="#ffb27d"/>
      <path id="Trazado_115138" data-name="Trazado 115138" d="M2356.481,843.409a82.135,82.135,0,0,0,6.286,6.761,159.619,159.619,0,0,0,14.726,9.339,8.758,8.758,0,0,0,2.872,1.179c2.6-.153,8.191-3.674,8.191-3.674a12.448,12.448,0,0,0,.086-2.171,16.865,16.865,0,0,0-3.938-9.5c-1.96,1.243-3.454,2.061-3.8,1.911-1.225-.523-22.417-14.814-22.417-14.814Z" transform="translate(-2298.761 -792.62)" fill="#725f67"/>
      <g id="Grupo_60290" data-name="Grupo 60290" transform="translate(89.407 19.531)">
        <path id="Trazado_115139" data-name="Trazado 115139" d="M2514.6,824.8c-.724,4.436-1.219,7.663-1.219,7.663A48.65,48.65,0,0,0,2531.125,836c2.026.066,4.039.043,6-.045,3.054-.135,5.983-.426,8.653-.786a100.784,100.784,0,0,0,13.487-2.706,48.167,48.167,0,0,0-4.69-20.376c-2.815-6.207-6.02-10.937-6.9-14.777-1.1-4.811,1.243-16.025,2.938-23.02.862-3.544,1.555-6,1.555-6,5.914-8.672,3.076-13.757,3.076-13.757s-2.756-1.148-6.2-2.2l-.052-.017c-1.184-.36-2.446-.708-3.7-.994a29.417,29.417,0,0,0-3.821-.632c-3.369-.293-3.546-7.942-3.546-7.942a11.8,11.8,0,0,0-4.666-.516,24.89,24.89,0,0,0-4.086.516s0,6.049-2.831,7.308c-1.457.649-4.226,1.832-6.939,2.981v0l-.272.114-.895.379c-.393.166-.781.331-1.16.49l-.559.237-.9.379c-2.026.855-3.5,1.47-3.5,1.47-1.261,3.267,3.156,10.606,3.156,10.606a7.488,7.488,0,0,0-.308,1.65c-.007.09-.014.182-.021.275a40.319,40.319,0,0,0,.98,9.244c1.206,6.314,3.108,13.551,3.56,18.418a11.644,11.644,0,0,1-.154,4.107,1.1,1.1,0,0,1-.038.13c-.187.563-.4,1.328-.618,2.249C2517.433,807.9,2515.733,817.836,2514.6,824.8Z" transform="translate(-2508.634 -742.219)" fill="#2a4e96"/>
        <path id="Trazado_115140" data-name="Trazado 115140" d="M2497.743,1194.645l20.936-13.61a4.973,4.973,0,0,0,2.262-4.229l-1.263-105.394c0-.916,2.094-1.855,3.009-1.855s3.64.385,3.64,1.3l-2.438,106.64a3.435,3.435,0,0,0,1.563,2.96l21.825,14.188a.736.736,0,0,1-.4,1.352h0l-22.269-9.764a5.217,5.217,0,0,0-4.192,0l-22.27,9.764A.736.736,0,0,1,2497.743,1194.645Z" transform="translate(-2497.407 -995.957)" fill="#2a4e96"/>
      </g>
      <path id="Trazado_115141" data-name="Trazado 115141" d="M2297.659,769.907s6.644,7.364,14.163,4.433a46.722,46.722,0,0,0,.9-7.155c0-.355.007-.7.013-1.026.04-3.248.15-5.07.15-5.07l-.007,0c-.343-.143-11.5-4.722-11.487-4.342C2301.584,765.53,2297.659,769.907,2297.659,769.907Z" transform="translate(-2253.164 -733.932)" fill="#ffb27d"/>
      <path id="Trazado_115142" data-name="Trazado 115142" d="M2319.222,765.856a17.445,17.445,0,0,0,10.224,7.319c.04-3.248.15-5.07.15-5.07l-.007,0C2329.28,768.02,2318.9,765.269,2319.222,765.856Z" transform="translate(-2269.874 -740.947)" fill="#ed975d"/>
      <path id="Trazado_115143" data-name="Trazado 115143" d="M2523.935,856.18a70.855,70.855,0,0,0,16.391-.083,50.506,50.506,0,0,0,6.421-1.246c6.635-1.77,13.063-5.157,17.163-11.385-2.814-6.207-6.02-10.937-6.9-14.777-1.1-4.81,1.243-16.024,2.939-23.02l-1.574-21.958v0l-.052-.015s-1.193-.362-1.584-.479c-.587-.176-2.118-.513-2.118-.513s1.255,14.052-18.651,14.878c-6.265.26-9.787,1.115-11.67,2.162-.716,7.992,6.082,26.906,4.327,32.173C2527.4,835.6,2525.273,847.962,2523.935,856.18Z" transform="translate(-2428.563 -754.068)" fill="#fc7972"/>
      <path id="Trazado_115144" data-name="Trazado 115144" d="M2320.06,703.367s-12.543,2.949-14.26-4.891-4.491-12.739,3.445-14.953,10.152.435,11.362,2.913S2323.278,702.4,2320.06,703.367Z" transform="translate(-2258.001 -676.547)" fill="#ffb27d"/>
      <path id="Trazado_115145" data-name="Trazado 115145" d="M2284.191,679.421c-.171.11-2.871.939-7.982-9.244a8.869,8.869,0,0,1,.521-8.112c1.87-3.055,8.5-5.458,14.012-6.5s6.833,2.055,8.131,5.171c1.362,3.271,5.3,5.964,5.3,5.964-4.751,2.654-10.474-1.142-12.457-.518s-2.683,3.749-2.832,4.751-.377,1.834-2.871.939-1.127,3.533-.728,4.38C2285.282,676.25,2285.621,678.505,2284.191,679.421Z" transform="translate(-2235.962 -655.356)" fill="#725f67"/>
      <path id="Trazado_115146" data-name="Trazado 115146" d="M2115.684,1567.226h-7.6c-1.592,0-3.362-1.594-3.8-4.513s-3.716-4.513-4.424-6.9,2.92-5.753,2.92-5.753l.607-.78.631-.813,6.016,1.415s.148,1.433.241,3.257a41.707,41.707,0,0,1,.024,4.177c-.177,3.186.893,6.617,3.722,7.237S2115.684,1567.226,2115.684,1567.226Z" transform="translate(-2099.768 -1347.655)" fill="#2c3a64"/>
      <path id="Trazado_115147" data-name="Trazado 115147" d="M2331.547,1594.113h-20.133a1.8,1.8,0,0,1-.428-.124c-1.344-.673-.923-5.82-.762-7.409.031-.295.053-.467.053-.467s7.079-5.662,8.053-1.326c.031.135.066.268.1.4v0c1.229,4.057,6.723,5.9,9.9,6.413C2330.757,1591.994,2331.385,1593.407,2331.547,1594.113Z" transform="translate(-2262.756 -1374.542)" fill="#2c3a64"/>
      <path id="Trazado_115148" data-name="Trazado 115148" d="M2284.1,1109.134s-1.075,13.414-2.339,29.539c-1.718,21.9-3.783,48.81-3.988,53.907-.353,8.85-1.771,23.008-1.771,23.008s-3.361,3.363-10.088,1.946a231.638,231.638,0,0,1-7.706-41.594c-.027-.35-.053-.7-.08-1.057-1.593-21.769-4.07-67.608-4.07-67.608Z" transform="translate(-2219.368 -1005.664)" fill="#ff9843"/>
      <path id="Trazado_115149" data-name="Trazado 115149" d="M2284.1,1109.134s-1.075,13.414-2.339,29.539l-23.553,37.267c-.027-.35-.053-.7-.08-1.057-1.593-21.769-4.07-67.608-4.07-67.608Z" transform="translate(-2219.368 -1005.664)" fill="#ed7d2b"/>
      <path id="Trazado_115150" data-name="Trazado 115150" d="M2169.974,1092.423s-19.38,48.581-32.123,71.412-16.725,29.2-16.725,29.2-7.3-2.92-7.964-4.911c0,0,4.873-44.076,13.406-54.82,4.822-6.071,10.486-24.291,10.752-30.662s1.725-18.981,1.725-18.981Z" transform="translate(-2110.15 -987.36)" fill="#ff9843"/>
      <path id="Trazado_115151" data-name="Trazado 115151" d="M2223.514,871.1a52.289,52.289,0,0,0,16.128,6.687c6.889,1.5,15.307.858,18.127,1.213a1.192,1.192,0,0,0,.827-.211c.2-.129,1.317-8.629,2.373-19.386.046-.413.1-.87.107-1.286l.018-.15c.113-1.121.227-2.257.331-3.408.144-1.617.279-3.255.407-4.906q.148-1.92.285-3.852c.018-.282.04-.563.058-.842.327-4.743.569-9.416.643-13.568.012-.689.018-1.363.021-2.024v-.089c.015-2.747-.058-5.212-.239-7.245-.046-.521-.1-1.008-.162-1.47a26.133,26.133,0,0,0-6.676-13.917l-2.339-2.588a12.413,12.413,0,0,1-7.992-1.9c-2.814-1.8-5.876-3.751-6.446-3.433-4.354,2.548-7.826,9.064-10.19,17.57a96.354,96.354,0,0,0-2.808,15.163q-.34,3.123-.521,6.348A208.967,208.967,0,0,1,2222,864.9c-.3,1.645-.539,2.955-.667,3.861C2221.205,869.583,2222.81,870.685,2223.514,871.1Z" transform="translate(-2193.995 -766.469)" fill="#8c757e"/>
      <path id="Trazado_115152" data-name="Trazado 115152" d="M2320.039,881.244s2.45,20.834,18.311,32.4q.147-1.92.285-3.852c.018-.282.039-.563.058-.842.327-4.743.569-9.416.643-13.568.012-.689.018-1.363.022-2.024v-.089c-.016-2.453-.092-4.673-.239-6.565A39.846,39.846,0,0,0,2320.039,881.244Z" transform="translate(-2270.512 -830.455)" fill="#725f67"/>
      <path id="Trazado_115153" data-name="Trazado 115153" d="M2478.544,790.321s.446,28.37,17.121,38.711,4.832,71.4,9.682,93.922-43.53,4.146-45.98-21.269,21.128-64.584,20.924-69.445-6.16-35.923-5.529-40.321Z" transform="translate(-2378.375 -759.975)" fill="#c4453b"/>
      <path id="Trazado_115154" data-name="Trazado 115154" d="M2413.45,949.071a34.685,34.685,0,0,0,4.9,2.67c2.668.972,6.961,1.5,11.6,1.768,10.173.591,22.007-.068,22.007-.068,1.787,1.283,4.93,1.062,7.585-.434s2.076-.849,3.983-1.871a1.188,1.188,0,0,0,.531-1.826,2.7,2.7,0,0,0-1.692-1.274c-3.546-.921-5.088-.651-6.619-.188a1.671,1.671,0,0,0,.414-1.191c-.1-.384-2.685,1.15-3.826,1.85-3.83.543-12.852-2.125-19.582-4.4-4.054-1.367-7.472-2.1-8.23-2.4-.617-.239-2.568-2.128-4.986-4.752A40.8,40.8,0,0,1,2413.45,949.071Z" transform="translate(-2342.921 -873.641)" fill="#ffb27d"/>
      <path id="Trazado_115155" data-name="Trazado 115155" d="M2296.542,854.891c7.95,5.606,22.736,16.1,26.593,18.24,2.484,1.377,5.7,4.061,10.411,5.116,6.737-4.58,5.1-12.928,5.1-12.928-4.055-1.367-7.278-2.593-8.035-2.887-2.021-.78-18.469-20.244-18.469-20.244s-6.268-8.051-11.907-6.725c-4.9,1.156-7.02,4.785-7.891,8.316A10.545,10.545,0,0,0,2296.542,854.891Z" transform="translate(-2248.814 -794.853)" fill="#8c757e"/>
    </g>
    <rect id="Rectángulo_7363" data-name="Rectángulo 7363" width="604" height="2.155" rx="1.078" transform="translate(760.849 648.154) rotate(180)" fill="#2e3552"/>
  </g>
</svg>
