<svg xmlns="http://www.w3.org/2000/svg" width="488.707" height="501.836" viewBox="0 0 488.707 501.836">
  <g id="Grupo_60322" data-name="Grupo 60322" transform="translate(-18.31 -19.556)">
    <g id="BACKGROUND" transform="translate(18.31 19.556)">
      <path id="Trazado_115156" data-name="Trazado 115156" d="M57.629,519.7C17.336,465.392,6.993,387.071,31.334,323.439c5.841-15.27,13.587-30.072,15.718-46.343,5.337-40.755-25.432-79.057-22.461-120.069,2.488-34.341,31.925-64.4,65.2-66.579,16.866-1.1,34.436,4.041,50.37-1.778,15.882-5.8,26.3-21.032,38.053-33.5C195.065,37.3,216.961,23.814,240.888,20.42c37.659-5.343,74.951,14.767,102.523,41.794s47.9,60.8,71.8,91.336c10.085,12.888,21.125,25.47,35.2,33.426,27.6,15.6,50.507,43.307,55.391,75.4s-5.245,65.631-24.352,91.444c-8.077,10.912-17.828,20.828-23.059,33.457-8.974,21.663-2.96,46.367.609,69.639s3.122,47.487-14.235,62.779Z" transform="translate(-18.31 -19.556)" fill="#ede3b7" opacity="0.2"/>
    </g>
    <g id="OBJECTS" transform="translate(37.988 26.146)">
      <g id="Grupo_60294" data-name="Grupo 60294" transform="translate(3.213 240.762)">
        <g id="Grupo_60293" data-name="Grupo 60293">
          <path id="Trazado_115157" data-name="Trazado 115157" d="M151.372,443.937C146,438.8,139.12,435.563,132.224,432.8c-18.529-7.435-38.489-12.31-54.625-24.066-20.436-14.888-32.186-40.651-30.9-65.811-.281-1.133-.527-2.278-.729-3.438-5.481,17.764-7.818,36.957-3.228,54.97s16.889,34.643,34.224,41.355c14.117,5.466,30.049,4.072,44.478,8.652A55.877,55.877,0,0,1,140.417,454.9c3.6,3.02,6.836,6.514,10.849,8.951,4.665,2.832,10.074,4.053,15.537,4.65-1.585-3.321-3.244-6.607-5-9.839C158.912,453.356,155.737,448.109,151.372,443.937Z" transform="translate(-40.299 -253.79)" fill="#d2c485"/>
          <path id="Trazado_115158" data-name="Trazado 115158" d="M157.154,399.267c-11.764-23.377-38.483-34.543-57.175-52.859-22.328-21.879-32.307-55.37-26.479-85.985-10.4,20.323-20.32,42.518-15.609,64.668a70.218,70.218,0,0,0,9.678,22.53A106.935,106.935,0,0,0,101.724,381.5c12.634,7.806,26.961,13.018,38.286,22.624,17.4,14.762,25.45,38.482,25.174,61.3-3.035-19.51-17.638-35.359-33.913-46.538s-34.7-18.926-51.039-30.006c-15.368-10.418-29.346-24.859-33.783-42.719-1.285,25.16,10.465,50.923,30.9,65.811,16.137,11.756,36.1,16.631,54.625,24.066,6.9,2.767,13.778,6,19.148,11.141,4.365,4.172,7.54,9.419,10.428,14.722,1.76,3.231,3.419,6.518,5,9.839,1.389.152,2.781.265,4.164.353,1.912.12,3.854.188,5.79.154a297.014,297.014,0,0,1-10.2-38.8C164.077,421.821,162.476,409.841,157.154,399.267Z" transform="translate(-40.05 -257.031)" fill="#ede3b7"/>
          <path id="Trazado_115159" data-name="Trazado 115159" d="M220.026,305.981c2.711,18.355-1.628,37.4-8.319,54.85-7.467,19.481-17.784,37.786-24.993,57.363-6.018,16.343-9.776,34.129-7.532,51.232a22.707,22.707,0,0,0,6.038-2.386c3.9-2.27,6.907-5.783,9.736-9.3,18.416-22.887,33.085-49.508,37.9-78.486C237.011,354.272,233.165,327.413,220.026,305.981Z" transform="translate(-34.631 -255.163)" fill="#ede3b7"/>
          <path id="Trazado_115160" data-name="Trazado 115160" d="M191.128,420.2c7.209-19.577,17.526-37.882,24.993-57.363,6.691-17.454,11.029-36.5,8.319-54.85a85.381,85.381,0,0,0-7.016-9.845l7.247,11.67c-21.095,17.415-34.477,42.785-41.769,69.15s-8.958,53.924-10.028,81.257a275.084,275.084,0,0,0-3.452-52.082c-2.643-15.512-7-30.9-14.772-44.584-11.1-19.552-28.487-34.579-44.407-50.458s-31.174-33.965-36-55.925q-.873,1.686-1.747,3.392c-5.829,30.615,4.15,64.106,26.479,85.985,18.692,18.316,45.411,29.482,57.175,52.859,5.322,10.574,6.923,22.554,9.15,34.18a297.014,297.014,0,0,0,10.2,38.8,36.635,36.635,0,0,0,8.092-.951C181.352,454.325,185.11,436.539,191.128,420.2Z" transform="translate(-39.046 -257.165)" fill="#d2c485"/>
        </g>
        <path id="Trazado_115161" data-name="Trazado 115161" d="M207.073,502.607H113.056l-20.82-66.191H207.073Z" transform="translate(-38.169 -249.815)" fill="#ffad54"/>
      </g>
      <g id="Grupo_60296" data-name="Grupo 60296" transform="translate(48.666 26.397)">
        <rect id="Rectángulo_7364" data-name="Rectángulo 7364" width="12.012" height="184.089" transform="translate(69.343 283.068)" fill="#6b4c58"/>
        <g id="Grupo_60295" data-name="Grupo 60295">
          <path id="Trazado_115162" data-name="Trazado 115162" d="M123.751,136.426c2.253-11.626-.146-23.913-5.681-34.381-2.875-5.438-6.379-10.775-12.509-11.3-7.821,7.118-13.326,17.044-13.326,37.215,0,17.642,6.52,28.339,13.23,37.481C114.469,158.954,121.718,146.924,123.751,136.426Z" transform="translate(-83.622 -49.624)" fill="#cfa8b4"/>
          <path id="Trazado_115163" data-name="Trazado 115163" d="M235.5,260.992c-6.166-29.7-23.2-42.019-25.4-60.834s9.936-112.049,9.936-112.049-17.9-7.5-24.906-14.841-9.37-22.026-9.37-22.026H145.1s-1.129,12.99-18.072,25.978c-7.444,5.707-14.995,9.562-21.124,15.139,6.129.529,9.633,5.866,12.509,11.3,5.535,10.468,7.933,22.755,5.681,34.381-2.033,10.5-9.283,22.527-18.285,29.011,6.974,9.5,14.154,17.319,14.443,29.491C120.812,220.43,105,219.539,90.881,256.8s-2.259,82.418-2.259,82.418,28.8,13.09,73.888,13.09,65.527-13.09,65.527-13.09S241.669,290.7,235.5,260.992Z" transform="translate(-83.961 -51.243)" fill="#e5c3d1"/>
        </g>
        <path id="Trazado_115164" data-name="Trazado 115164" d="M118.572,196.786a134.157,134.157,0,0,0,51.372,9.13c28.956-.643,38.736-11.623,38.736-11.623" transform="translate(-82.542 -45.378)" fill="none" stroke="#613f75" stroke-miterlimit="10" stroke-width="1" stroke-dasharray="2.983"/>
        <path id="Trazado_115165" data-name="Trazado 115165" d="M183.352,51.243H142.689a24.621,24.621,0,0,0,40.663,0Z" transform="translate(-81.553 -51.243)" fill="#cfa8b4"/>
      </g>
      <g id="Grupo_60298" data-name="Grupo 60298" transform="translate(329.765 329.079)">
        <path id="Trazado_115166" data-name="Trazado 115166" d="M491.556,342l-21,23.776H353.989V342Z" transform="translate(-353.989 -342.004)" fill="#649ea4"/>
        <path id="Trazado_115167" data-name="Trazado 115167" d="M353.989,345.1H488.823L491.556,342H353.989Z" transform="translate(-353.989 -342.004)" fill="#7d82b8" opacity="0.26" style="mix-blend-mode: multiply;isolation: isolate"/>
        <g id="Grupo_60297" data-name="Grupo 60297" transform="translate(0 23.776)">
          <path id="Trazado_115168" data-name="Trazado 115168" d="M353.989,412.9a914.192,914.192,0,0,0,116.57-33.881V419q-57.735,11.891-116.57,18.69Z" transform="translate(-353.989 -364.262)" fill="#c0dee1"/>
          <path id="Trazado_115169" data-name="Trazado 115169" d="M353.989,364.843h116.57V379.6a914.192,914.192,0,0,1-116.57,33.881Z" transform="translate(-353.989 -364.843)" fill="#96bfc4"/>
          <path id="Trazado_115170" data-name="Trazado 115170" d="M470.559,417.426v67.242c-12.166-2.435-24.229-5.378-36.257-8.321L353.989,456.7V436.116Q412.733,429.328,470.559,417.426Z" transform="translate(-353.989 -362.687)" fill="#96bfc4"/>
          <path id="Trazado_115171" data-name="Trazado 115171" d="M470.559,483.122v18.717H353.989V455.152L434.3,474.8C446.33,477.744,458.393,480.687,470.559,483.122Z" transform="translate(-353.989 -361.14)" fill="#c0dee1"/>
        </g>
        <path id="Trazado_115172" data-name="Trazado 115172" d="M470.559,371.11l-116.57,33.567,116.57-10.216-116.57,27,116.57,27.486-116.57,37.62" transform="translate(-353.989 -340.81)" fill="none" stroke="#613f75" stroke-linecap="round" stroke-linejoin="round" stroke-width="0.837"/>
        <path id="Trazado_115173" data-name="Trazado 115173" d="M353.989,379.017l116.57,49.5-116.57,40.038,116.57,29.969" transform="translate(-353.989 -340.486)" fill="none" stroke="#613f75" stroke-linecap="round" stroke-linejoin="round" stroke-width="0.837"/>
      </g>
      <g id="Grupo_60300" data-name="Grupo 60300" transform="translate(197.05 18.85)">
        <rect id="Rectángulo_7365" data-name="Rectángulo 7365" width="185.857" height="243.382" transform="matrix(0.989, -0.146, 0.146, 0.989, 19.142, 46.595)" fill="#ff9696" opacity="0.51"/>
        <g id="Grupo_60299" data-name="Grupo 60299">
          <rect id="Rectángulo_7366" data-name="Rectángulo 7366" width="193.5" height="253.39" transform="translate(68.886 0) rotate(15.775)" fill="#f5e7ed"/>
          <path id="Trazado_115174" data-name="Trazado 115174" d="M385.136,177.048l-25.442-7.187-25.443-7.187s-52.823,77.368-53.7,78,54.767,15.471,54.767,15.471,55.182,16.472,54.766,15.471S385.136,177.048,385.136,177.048Z" transform="translate(-224.286 -39.127)" fill="#ff9696"/>
          <path id="Trazado_115175" data-name="Trazado 115175" d="M410.482,100.9l-14.231-4.02-28.433,39.661L364.34,87.867l-14.231-4.02-15.9,74.408,25.443,7.187L385.1,172.63Z" transform="translate(-222.085 -42.359)" fill="#ff9696"/>
          <rect id="Rectángulo_7367" data-name="Rectángulo 7367" width="165.779" height="4.056" transform="translate(25.519 209.7) rotate(15.775)" fill="#e5c3d1"/>
          <rect id="Rectángulo_7368" data-name="Rectángulo 7368" width="165.779" height="4.056" transform="translate(23.305 217.537) rotate(15.775)" fill="#e5c3d1"/>
          <rect id="Rectángulo_7369" data-name="Rectángulo 7369" width="165.779" height="4.056" transform="translate(21.091 225.374) rotate(15.775)" fill="#e5c3d1"/>
          <path id="Trazado_115176" data-name="Trazado 115176" d="M359.43,86.657l3.564,59.9,35.963-48.739-3.739-1.056-28.433,39.661-3.478-48.676Z" transform="translate(-221.051 -42.244)" fill="#de5252"/>
          <path id="Trazado_115177" data-name="Trazado 115177" d="M383.151,177.049l-50.886-14.375-3.309,4.845,54.48,15.391Z" transform="translate(-222.3 -39.127)" fill="#de5252"/>
          <path id="Trazado_115178" data-name="Trazado 115178" d="M335.277,184.021,296.072,244.76,300.9,246.1Z" transform="translate(-223.649 -38.252)" fill="#de5252" style="mix-blend-mode: multiply;isolation: isolate"/>
          <path id="Trazado_115179" data-name="Trazado 115179" d="M349.8,188.2l-32.722,62.57,3.3.91Z" transform="translate(-222.787 -38.081)" fill="#de5252" style="mix-blend-mode: multiply;isolation: isolate"/>
          <path id="Trazado_115180" data-name="Trazado 115180" d="M358.135,190.824l-4.854,70.443L350,260.318Z" transform="translate(-221.438 -37.973)" fill="#de5252" style="mix-blend-mode: multiply;isolation: isolate"/>
          <path id="Trazado_115181" data-name="Trazado 115181" d="M370.221,194.293l1.629,72.275-4.816-1.382Z" transform="translate(-220.739 -37.831)" fill="#de5252" style="mix-blend-mode: multiply;isolation: isolate"/>
          <path id="Trazado_115182" data-name="Trazado 115182" d="M348.306,81.909l-11.1,48.526-44.533,57.857s-2.854-10-2.492-11.155S348.306,81.909,348.306,81.909Z" transform="translate(-223.892 -42.439)" fill="#ef798a"/>
          <path id="Trazado_115183" data-name="Trazado 115183" d="M411.379,100.669l-15.806,47.205,7.866,72.585s7.645-7.044,7.94-8.222S411.379,100.669,411.379,100.669Z" transform="translate(-219.569 -41.67)" fill="#ef798a"/>
        </g>
      </g>
      <g id="Grupo_60302" data-name="Grupo 60302" transform="translate(225.339 286.466)">
        <path id="Trazado_115184" data-name="Trazado 115184" d="M426.885,301.069,400.449,331H253.677V301.069Z" transform="translate(-253.677 -301.069)" fill="#7d82b8"/>
        <path id="Trazado_115185" data-name="Trazado 115185" d="M253.677,304.965H423.445l3.441-3.9H253.677Z" transform="translate(-253.677 -301.069)" fill="#7d82b8" opacity="0.26" style="mix-blend-mode: multiply;isolation: isolate"/>
        <g id="Grupo_60301" data-name="Grupo 60301" transform="translate(0 29.936)">
          <path id="Trazado_115186" data-name="Trazado 115186" d="M400.449,390.332a1151.008,1151.008,0,0,1-146.772-42.66v50.344q72.693,14.972,146.772,23.531Z" transform="translate(-253.677 -329.094)" fill="#ef6381"/>
          <path id="Trazado_115187" data-name="Trazado 115187" d="M400.449,329.826H253.677V348.4a1151.008,1151.008,0,0,0,146.772,42.66Z" transform="translate(-253.677 -329.826)" fill="#ef798a"/>
          <path id="Trazado_115188" data-name="Trazado 115188" d="M253.677,396.033V480.7c15.317-3.065,30.505-6.771,45.65-10.476l101.122-24.739V419.564Q326.485,411.018,253.677,396.033Z" transform="translate(-253.677 -327.111)" fill="#ef798a"/>
          <path id="Trazado_115189" data-name="Trazado 115189" d="M253.677,478.748v23.567H400.449V443.533L299.327,468.272C284.182,471.977,268.994,475.683,253.677,478.748Z" transform="translate(-253.677 -325.164)" fill="#ef6381"/>
        </g>
        <path id="Trazado_115190" data-name="Trazado 115190" d="M253.677,337.717l146.772,42.264L253.677,367.118l146.772,33.995L253.677,435.72l146.772,47.367" transform="translate(-253.677 -299.567)" fill="none" stroke="#613f75" stroke-linecap="round" stroke-linejoin="round" stroke-width="1.053"/>
        <path id="Trazado_115191" data-name="Trazado 115191" d="M400.449,347.672,253.677,409.994l146.772,50.412L253.677,498.139" transform="translate(-253.677 -299.158)" fill="none" stroke="#613f75" stroke-linecap="round" stroke-linejoin="round" stroke-width="1.053"/>
      </g>
      <g id="Grupo_60315" data-name="Grupo 60315" transform="translate(126.746 33.322)">
        <g id="Grupo_60311" data-name="Grupo 60311" transform="translate(24.551 0)">
          <g id="Grupo_60303" data-name="Grupo 60303" transform="translate(12.443 105.83)">
            <path id="Trazado_115192" data-name="Trazado 115192" d="M214.246,174.928a3.613,3.613,0,0,1,1.043.688c.029.033.049.073.075.108a9.529,9.529,0,1,1-9.685-14.629,34.845,34.845,0,0,0,5.734,11.153A9.635,9.635,0,0,0,214.246,174.928Z" transform="translate(-194.364 -159.495)" fill="none"/>
            <path id="Trazado_115193" data-name="Trazado 115193" d="M205.373,159.558q.2.806.444,1.6a9.528,9.528,0,1,0,9.685,14.629,3.267,3.267,0,0,1,.312.556l.815,1.761a12.038,12.038,0,1,1-11.257-18.546Z" transform="translate(-194.503 -159.558)" fill="#ffad54"/>
          </g>
          <g id="Grupo_60304" data-name="Grupo 60304" transform="translate(56.254 125.444)">
            <path id="Trazado_115194" data-name="Trazado 115194" d="M271.371,200.48a41.325,41.325,0,0,1-10.406,10.064,27.82,27.82,0,0,1-13.146,4.973,18.425,18.425,0,0,1-8.209-1.233,12.466,12.466,0,0,1-3.022,5.111s7.2,14.037,19.455,15.117,24.456-9.359,19.418-16.557C273.434,215.061,272.165,207.948,271.371,200.48Z" transform="translate(-236.588 -177.494)" fill="#f7a9a8"/>
            <path id="Trazado_115195" data-name="Trazado 115195" d="M247.7,216.423a27.82,27.82,0,0,0,13.146-4.973,41.325,41.325,0,0,0,10.406-10.064c-1.179-11.1-1.31-22.986-1.31-22.986L240.4,191.867s.671,12.568,0,19.076a19.166,19.166,0,0,1-.912,4.246A18.425,18.425,0,0,0,247.7,216.423Z" transform="translate(-236.469 -178.399)" fill="#f78783"/>
          </g>
          <path id="Trazado_115196" data-name="Trazado 115196" d="M245.822,92.812c24.822.249,53.264,17.144,49.385,47.955S274,208.1,248.407,208.6s-53.523-45.966-47.834-83.236S245.822,92.812,245.822,92.812Z" transform="translate(-181.842 -56.472)" fill="#f7a9a8"/>
          <g id="Grupo_60305" data-name="Grupo 60305" transform="translate(105.023 80.362)">
            <path id="Trazado_115197" data-name="Trazado 115197" d="M288.017,138.887a19.622,19.622,0,0,0-3.434,7.076c-1.081,3.7-1.623,7.678-.608,11.4s3.84,7.107,7.6,7.957c3.588.811,7.409-.815,10-3.427s4.129-6.084,5.279-9.578a18.155,18.155,0,0,0,1.161-6.53C307.509,135.876,294.279,131.291,288.017,138.887Z" transform="translate(-283.437 -135.093)" fill="#f7a9a8"/>
            <path id="Trazado_115198" data-name="Trazado 115198" d="M288.613,157.388c2.043.611,4.24-.8,5.288-2.662a3.232,3.232,0,0,0,.507-1.877,2.7,2.7,0,0,0-2.333-2.176,5.983,5.983,0,0,0-3.32.645,26.569,26.569,0,0,1,1.276-6.1,8.915,8.915,0,0,1,3.836-4.765,5.43,5.43,0,0,1,5.884.295c1.509,1.221,2.047,3.277,2.242,5.208,0,0,.692,2.037-.961,6.231s-3.876,8.641-7.539,8.533A5.481,5.481,0,0,1,288.613,157.388Z" transform="translate(-283.224 -134.903)" fill="#f7a9a8" opacity="0.5" style="mix-blend-mode: multiply;isolation: isolate"/>
            <path id="Trazado_115199" data-name="Trazado 115199" d="M301.994,145.956c-.2-1.931-.733-3.987-2.242-5.208a5.43,5.43,0,0,0-5.884-.295,8.915,8.915,0,0,0-3.836,4.765,26.569,26.569,0,0,0-1.276,6.1,5.983,5.983,0,0,1,3.32-.645,2.7,2.7,0,0,1,2.333,2.176,3.232,3.232,0,0,1-.507,1.877c-1.048,1.857-3.245,3.273-5.288,2.662" transform="translate(-283.224 -134.903)" fill="none" stroke="#613f75" stroke-miterlimit="10" stroke-width="1.127"/>
          </g>
          <path id="Trazado_115200" data-name="Trazado 115200" d="M239.878,142.893a68.868,68.868,0,0,1-7.283,24.846,1.278,1.278,0,0,0-.208.926,1.264,1.264,0,0,0,.707.651q2.981,1.547,6.082,2.851" transform="translate(-180.508 -54.411)" fill="none" stroke="#613f75" stroke-miterlimit="10" stroke-width="1"/>
          <g id="Grupo_60306" data-name="Grupo 60306" transform="translate(46.518 121.565)">
            <path id="Trazado_115201" data-name="Trazado 115201" d="M240.905,177.581c-.462.04-.921.072-1.374.093a23.5,23.5,0,0,1-12.3-3s4.178,5.779,9.735,7.352a16.049,16.049,0,0,1,3.039-3.735C240.3,178.038,240.6,177.8,240.905,177.581Z" transform="translate(-227.236 -174.673)" fill="#613f75"/>
            <path id="Trazado_115202" data-name="Trazado 115202" d="M254.618,174.673a77.664,77.664,0,0,1-14.1,2.908c-.308.224-.61.457-.9.709a16.049,16.049,0,0,0-3.039,3.735,9.777,9.777,0,0,0,3.117.4C246.746,182.1,254.618,174.673,254.618,174.673Z" transform="translate(-226.853 -174.673)" fill="#ef555e"/>
          </g>
          <g id="Grupo_60307" data-name="Grupo 60307" transform="translate(8.537 76.824)">
            <path id="Trazado_115203" data-name="Trazado 115203" d="M214.334,131.694c-13.731,0-23.44,5.964-23.579,9.431a11.223,11.223,0,0,0,.071,1.466c3.6-3.08,8.319-4.751,13-5.759,7.388-1.592,15.36-1.746,22.243,1.374a36.274,36.274,0,0,1,10.006,7.185c.157-1.015.261-1.984.315-2.879C236.554,139.76,228.065,131.694,214.334,131.694Z" transform="translate(-190.751 -131.694)" fill="#613f75"/>
            <path id="Trazado_115204" data-name="Trazado 115204" d="M203.819,136.674c-4.677,1.008-9.4,2.678-13,5.759.594,5.964,5.032,23.708,21.775,23.708,16.585,0,22.12-12.2,23.47-20.907a36.274,36.274,0,0,0-10.006-7.185C219.179,134.928,211.207,135.082,203.819,136.674Z" transform="translate(-190.748 -131.535)" fill="#fff" opacity="0.3" style="mix-blend-mode: overlay;isolation: isolate"/>
          </g>
          <g id="Grupo_60308" data-name="Grupo 60308" transform="translate(63.544 76.824)">
            <path id="Trazado_115205" data-name="Trazado 115205" d="M265.647,131.694c13.731,0,23.44,5.964,23.579,9.431a11.228,11.228,0,0,1-.071,1.466c-3.6-3.08-8.319-4.751-13-5.759-7.388-1.592-15.36-1.746-22.243,1.374a36.275,36.275,0,0,0-10.006,7.185c-.157-1.015-.261-1.984-.315-2.879C243.426,139.76,251.916,131.694,265.647,131.694Z" transform="translate(-243.592 -131.694)" fill="#613f75"/>
            <path id="Trazado_115206" data-name="Trazado 115206" d="M276.146,136.674c4.677,1.008,9.4,2.678,13,5.759-.594,5.964-5.032,23.708-21.775,23.708-16.585,0-22.12-12.2-23.47-20.907a36.275,36.275,0,0,1,10.006-7.185C260.786,134.928,268.758,135.082,276.146,136.674Z" transform="translate(-243.579 -131.535)" fill="#fff" opacity="0.3" style="mix-blend-mode: overlay;isolation: isolate"/>
          </g>
          <path id="Trazado_115207" data-name="Trazado 115207" d="M233.644,147.554a16.588,16.588,0,0,1,11.474.606" transform="translate(-180.455 -54.25)" fill="none" stroke="#5c3a75" stroke-miterlimit="10" stroke-width="1"/>
          <path id="Trazado_115208" data-name="Trazado 115208" d="M264.14,171.157c0,2.006-2.732,3.632-6.1,3.632s-6.1-1.626-6.1-3.632,2.732-3.632,6.1-3.632S264.14,169.151,264.14,171.157Z" transform="translate(-179.705 -53.401)" fill="#f38d8b"/>
          <path id="Trazado_115209" data-name="Trazado 115209" d="M230.015,171.157c0,2.006-2.732,3.632-6.1,3.632s-6.1-1.626-6.1-3.632,2.732-3.632,6.1-3.632S230.015,169.151,230.015,171.157Z" transform="translate(-181.104 -53.401)" fill="#f38d8b"/>
          <path id="Trazado_115210" data-name="Trazado 115210" d="M267.911,140.842a20.579,20.579,0,0,0-8.67-8.4,12.891,12.891,0,0,0-11.78.169" transform="translate(-179.889 -54.894)" fill="none" stroke="#604075" stroke-miterlimit="10" stroke-width="3"/>
          <path id="Trazado_115211" data-name="Trazado 115211" d="M211.711,140.842a20.579,20.579,0,0,1,8.671-8.4,12.891,12.891,0,0,1,11.78.169" transform="translate(-181.354 -54.894)" fill="none" stroke="#604075" stroke-miterlimit="10" stroke-width="3"/>
          <g id="Grupo_60309" data-name="Grupo 60309" transform="translate(100.423 105.83)">
            <path id="Trazado_115212" data-name="Trazado 115212" d="M279.018,170.466a9.479,9.479,0,0,0,1.59,5.264c.026-.035.045-.075.074-.108a3.619,3.619,0,0,1,1.044-.688,9.647,9.647,0,0,0,2.834-2.68,34.822,34.822,0,0,0,5.733-11.153,9.5,9.5,0,0,0-11.274,9.365Z" transform="translate(-279.018 -159.502)" fill="none"/>
            <path id="Trazado_115213" data-name="Trazado 115213" d="M281.663,174.928a3.619,3.619,0,0,0-1.044.688c-.029.033-.048.073-.074.108a9.528,9.528,0,1,0,9.684-14.629,34.822,34.822,0,0,1-5.733,11.153A9.647,9.647,0,0,1,281.663,174.928Z" transform="translate(-278.955 -159.495)" fill="none"/>
            <path id="Trazado_115214" data-name="Trazado 115214" d="M290.719,159.558q-.2.806-.446,1.6a9.528,9.528,0,1,1-9.684,14.629,3.2,3.2,0,0,0-.312.556l-.815,1.761a12.037,12.037,0,1,0,11.257-18.546Z" transform="translate(-279 -159.558)" fill="#ffad54"/>
          </g>
          <g id="Grupo_60310" data-name="Grupo 60310">
            <path id="Trazado_115215" data-name="Trazado 115215" d="M253.541,74.359a5.707,5.707,0,0,0,.837.524A9.67,9.67,0,0,0,253.541,74.359Z" transform="translate(-179.639 -57.221)" fill="#613f75"/>
            <path id="Trazado_115216" data-name="Trazado 115216" d="M312.163,117.342c-.6-12.061-9.213-14.43-9.213-14.43S309.843,88.7,300.8,81.589s-29.508-3.016-38.769-9.262S252.766,57.9,252.766,57.9s-3.016,5.816-.862,10.985a14.144,14.144,0,0,0,4.548,6.153,9.668,9.668,0,0,1,.837.524,5.708,5.708,0,0,1-.837-.524c-2.228-1.271-9.008-4.346-20.917-3.138-14.862,1.507-20.893,8.831-20.893,8.831S197.627,83.1,191.165,92.143a57.641,57.641,0,0,0-8.615,18.523l7.753-6.677s-4.877,9.572-1.063,16.809a12.073,12.073,0,0,1,3.851-3.3c3.651-1.954,8.044-1.946,11.885-3.494,6.49-2.615,10.5-9.23,16.572-12.714,8-4.6,17.978-3.018,27.047-1.3,4.051.766,8.165,1.554,11.835,3.431a29.057,29.057,0,0,0-9.506-10.489,58.356,58.356,0,0,1,20.369,7.627c1.994,1.213,4.041,2.709,4.745,4.934a52.757,52.757,0,0,0-1.9-11.811,17.7,17.7,0,0,0-6.779-9.6c6.346,1.952,12.845,4.936,16.386,10.553a30.829,30.829,0,0,1,3.052,7.258,195.143,195.143,0,0,1,6.161,25.261c2.35-6.733,2.534-14.6-1.238-20.648,6.274,3.716,9.642,11.106,10.335,18.365.575,6.014-.417,14.88-1.673,21.8l5.5.291S312.76,129.4,312.163,117.342Z" transform="translate(-182.55 -57.896)" fill="#593270"/>
            <path id="Trazado_115217" data-name="Trazado 115217" d="M301.8,123.833c-.693-7.259-4.061-14.649-10.335-18.365,3.772,6.052,3.587,13.915,1.238,20.648a195.142,195.142,0,0,0-6.161-25.261,30.829,30.829,0,0,0-3.052-7.258c-3.541-5.616-10.04-8.6-16.386-10.553a17.7,17.7,0,0,1,6.779,9.6,52.758,52.758,0,0,1,1.9,11.811c-.7-2.226-2.751-3.722-4.745-4.934A58.356,58.356,0,0,0,250.661,91.9a29.057,29.057,0,0,1,9.506,10.489c-3.671-1.877-7.785-2.665-11.835-3.431-9.069-1.717-19.043-3.3-27.047,1.3-6.067,3.484-10.082,10.1-16.572,12.714-3.841,1.548-8.234,1.54-11.885,3.494a12.073,12.073,0,0,0-3.851,3.3,11.178,11.178,0,0,0,.632,1.068c4.954,7.323,10.9,20.916,10.851,20.27s.558-15.351.558-15.351,12.929,2.835,26.068-.612,26.708-12.923,26.708-12.923l-9.262,11.847s13.138-1.077,23.047-3.877a77.208,77.208,0,0,0,18.523-8.4,52.229,52.229,0,0,0-.214,18.308,110.424,110.424,0,0,0,3.632,14.971l10.6.561C301.378,138.713,302.37,129.846,301.8,123.833Z" transform="translate(-182.286 -56.865)" fill="#613f75"/>
          </g>
        </g>
        <path id="Trazado_115218" data-name="Trazado 115218" d="M206.2,396.717c1.846,1.576,4.291,3.147,6.536,2.224a6.1,6.1,0,0,0,2.7-2.76c5.077-8.674,3.947-19.577,1.628-29.356-2.934-12.371-12.215-31.651-28.333-25.023-13.566,5.58-4.015,25.415.707,34.121A73.332,73.332,0,0,0,206.2,396.717Z" transform="translate(-158.032 -46.311)" fill="#f7a9a8"/>
        <path id="Trazado_115219" data-name="Trazado 115219" d="M278.194,217.268a254.774,254.774,0,0,0,31.93,21.765c17.209,9.707,25.151,25.151,19.856,54.272s-14.562,80.3-14.562,80.3l39.63,137.983-185.114,1.693,33.092-132.949s-28.835-83.307-9.089-115.315c14.823-24.029,45.383-46.313,45.383-46.313Z" transform="translate(-158.517 -51.361)" fill="#6b4c58"/>
        <path id="Trazado_115220" data-name="Trazado 115220" d="M201.786,374.178s21.669,4.2,52.108,3.83,60.283-10.556,60.283-10.556l4.225,9.643s-32.237,8.614-63.042,8.248a377.592,377.592,0,0,1-55.187-4.689Z" transform="translate(-157.277 -45.204)" fill="#ffad54"/>
        <g id="Grupo_60312" data-name="Grupo 60312" transform="translate(75.093 146.231)">
          <path id="Trazado_115221" data-name="Trazado 115221" d="M273.518,211.932s-5.736,3.225-15.608,3.17a141.392,141.392,0,0,1-18.081-1.287l-8.593,9.819a25.513,25.513,0,0,0,24.474,9.246c16.124-2.6,21.756-13.97,21.756-13.97l-1.785-1.423Z" transform="translate(-231.096 -197.811)" fill="#ffad54"/>
          <path id="Trazado_115222" data-name="Trazado 115222" d="M284.96,201.207c1.528-1.008,3.235-1.736,4.7-2.84a9.4,9.4,0,0,1-.72,9.587,11.777,11.777,0,0,1-4.536,3.612c-1.129.539-4.112,1.988-5.381,1.447-1.534-.655-.6-2.338-.13-3.762A15.434,15.434,0,0,1,284.96,201.207Z" transform="translate(-229.172 -198.367)" fill="#ffad54"/>
          <path id="Trazado_115223" data-name="Trazado 115223" d="M290.974,214.354c1.785.4,3.493,1.133,5.3,1.422a9.4,9.4,0,0,1-7.416,6.117,11.779,11.779,0,0,1-5.747-.771c-1.17-.442-4.281-1.592-4.768-2.882-.591-1.56,1.271-2.052,2.624-2.7A15.43,15.43,0,0,1,290.974,214.354Z" transform="translate(-229.17 -197.726)" fill="#ffad54"/>
          <path id="Trazado_115224" data-name="Trazado 115224" d="M277.769,214.225a3.253,3.253,0,1,1-4.012-2.252A3.253,3.253,0,0,1,277.769,214.225Z" transform="translate(-229.45 -197.814)" fill="#613f75"/>
          <path id="Trazado_115225" data-name="Trazado 115225" d="M278.309,214.225a3.253,3.253,0,1,1-4.012-2.252A3.253,3.253,0,0,1,278.309,214.225Z" transform="translate(-229.428 -197.814)" fill="#7d82b8"/>
          <path id="Trazado_115226" data-name="Trazado 115226" d="M273.167,214.927a11.926,11.926,0,0,1-3.508,1.822,63.551,63.551,0,0,1-15.488,3.473,44.607,44.607,0,0,1-9.873.1c-3.275-.388-5.332-.668-8.158-2.367" transform="translate(-230.895 -197.688)" fill="none" stroke="#613f75" stroke-miterlimit="10" stroke-width="1"/>
          <path id="Trazado_115227" data-name="Trazado 115227" d="M274.117,216.475a32.761,32.761,0,0,1-4.087,4.517,39.6,39.6,0,0,1-19.752,8.452c-6.711.793-17.213-3.7-19.176-5.754" transform="translate(-231.102 -197.625)" fill="none" stroke="#613f75" stroke-miterlimit="10" stroke-width="1"/>
        </g>
        <g id="Grupo_60313" data-name="Grupo 60313" transform="translate(106.271 196.522)">
          <path id="Trazado_115228" data-name="Trazado 115228" d="M331.24,326.3c2.682-9.653,4.866-18.384,6.007-24.754,4.926-27.506-10.672-45.911-21.209-54.866L304.829,312.64A47.19,47.19,0,0,1,331.24,326.3Z" transform="translate(-259.257 -246.678)" fill="#6b4c58"/>
          <path id="Trazado_115229" data-name="Trazado 115229" d="M306.624,310.042l-6.936,40.817s-30.286-37.369-31-37.846-7.636,17.432-7.636,17.432,5.055,14.912,18.585,34.933c15.763,23.326,30.117,32.571,30.117,32.571s14.384-42.215,23.281-74.248A47.19,47.19,0,0,0,306.624,310.042Z" transform="translate(-261.052 -244.08)" fill="#f7a9a8"/>
          <path id="Trazado_115230" data-name="Trazado 115230" d="M298.047,349.033a68.958,68.958,0,0,1,13.308,16.7" transform="translate(-259.535 -242.481)" fill="none" stroke="#604075" stroke-miterlimit="10" stroke-width="1"/>
        </g>
        <g id="Grupo_60314" data-name="Grupo 60314" transform="translate(0.468 194.442)">
          <path id="Trazado_115231" data-name="Trazado 115231" d="M183.147,362.976h84.092L246.2,252.731H162.113Z" transform="translate(-159.305 -244.35)" fill="#e5c3d1"/>
          <path id="Trazado_115232" data-name="Trazado 115232" d="M180.45,362.976h84.092L243.507,252.731H159.416Z" transform="translate(-159.416 -244.35)" fill="#4c9097"/>
          <path id="Trazado_115233" data-name="Trazado 115233" d="M221.908,253.061h-42.46l-.879-4.608c-.4-2.084,1.142-3.773,3.438-3.773h34.143a5.033,5.033,0,0,1,4.878,3.773Z" transform="translate(-158.633 -244.68)" fill="#22585e"/>
        </g>
        <path id="Trazado_115234" data-name="Trazado 115234" d="M262.607,331.46a4.788,4.788,0,0,0-3.444-2.368,15.323,15.323,0,0,0-4.315-.009c-7.749.667-15.793.551-22.981-2.42a3.313,3.313,0,0,1-1.45-.946,1.227,1.227,0,0,1,.021-1.6,1.813,1.813,0,0,1,1.06-.341l20.008-2.029c-9.779-.113-19.854-1.263-28.4-6.016-.842-.467-1.781-1.469-1.19-2.229a1.578,1.578,0,0,1,1.1-.474,19.414,19.414,0,0,1,5.654.5,76.189,76.189,0,0,0,22.426.581c-3.926-.32-7.853-.639-11.766-1.092a50.6,50.6,0,0,1-10.841-2.186,59.2,59.2,0,0,1-11.048-5.678c-.746-.452-1.581-1.415-.973-2.042a1.445,1.445,0,0,1,1.144-.274,49.684,49.684,0,0,1,6.567.969l21.494,4.16a7.739,7.739,0,0,0,4.369,0,62.768,62.768,0,0,1-28.764-9.695c-1.588-1.019-3.308-2.458-3.181-4.34,4.609.017,9.025,1.67,13.461,2.921,8.177,2.307,13.219,3.371,21.706,2.973l-1.878-9.841s11.679-.553,14.9,6.911,4.242,16.94,4.242,16.94Z" transform="translate(-156.617 -48.38)" fill="#f7a9a8"/>
        <path id="Trazado_115235" data-name="Trazado 115235" d="M168.982,329.06c5.982.706,12.2.551,17.749-2.42a2.616,2.616,0,0,0,1.12-.946,1.512,1.512,0,0,0-.017-1.6,1.2,1.2,0,0,0-.818-.341l-15.453-2.029c7.552-.113,15.334-1.263,21.934-6.016.651-.467,1.376-1.469.919-2.229a1.109,1.109,0,0,0-.849-.474,11.709,11.709,0,0,0-4.366.5,45.649,45.649,0,0,1-17.321.581c3.032-.32,6.066-.639,9.088-1.092a31.449,31.449,0,0,0,8.373-2.186,43.075,43.075,0,0,0,8.532-5.678c.577-.453,1.221-1.415.752-2.042a.931.931,0,0,0-.883-.274,30.31,30.31,0,0,0-5.073.969l-16.6,4.16a4.678,4.678,0,0,1-3.374,0,41.644,41.644,0,0,0,22.214-9.695c1.226-1.019,2.555-2.458,2.457-4.34-3.559.017-6.971,1.67-10.4,2.921-6.315,2.307-11.649,3.673-18.2,3.274l-1.816-9.517s-4.313-1.177-6.8,6.287S158.418,327.813,168.982,329.06Z" transform="translate(-158.966 -48.358)" fill="#f7a9a8"/>
        <line id="Línea_315" data-name="Línea 315" x1="7.386" y2="43.469" transform="translate(151.843 219.016)" fill="none" stroke="#7d82b8" stroke-miterlimit="10" stroke-width="1"/>
        <ellipse id="Elipse_4927" data-name="Elipse 4927" cx="3.61" cy="5.091" rx="3.61" ry="5.091" transform="translate(63.371 89.054)" fill="#613f75"/>
        <ellipse id="Elipse_4928" data-name="Elipse 4928" cx="3.61" cy="5.091" rx="3.61" ry="5.091" transform="translate(101.26 89.054)" fill="#613f75"/>
      </g>
      <g id="Grupo_60321" data-name="Grupo 60321" transform="translate(0)" style="mix-blend-mode: multiply;isolation: isolate">
        <g id="Grupo_60316" data-name="Grupo 60316" transform="translate(21.373 151.078)">
          <line id="Línea_316" data-name="Línea 316" y2="42.36" transform="translate(21.18)" fill="none" stroke="#e5c3d1" stroke-miterlimit="10" stroke-width="2.877"/>
          <line id="Línea_317" data-name="Línea 317" x2="42.36" transform="translate(0 21.18)" fill="none" stroke="#e5c3d1" stroke-miterlimit="10" stroke-width="2.877"/>
          <line id="Línea_318" data-name="Línea 318" x1="29.953" y2="29.953" transform="translate(6.204 6.204)" fill="none" stroke="#e5c3d1" stroke-miterlimit="10" stroke-width="2.877"/>
          <line id="Línea_319" data-name="Línea 319" x2="29.953" y2="29.953" transform="translate(6.204 6.204)" fill="none" stroke="#e5c3d1" stroke-miterlimit="10" stroke-width="2.877"/>
        </g>
        <g id="Grupo_60317" data-name="Grupo 60317" transform="translate(247.219)">
          <line id="Línea_320" data-name="Línea 320" y2="42.36" transform="translate(21.18)" fill="none" stroke="#e5c3d1" stroke-miterlimit="10" stroke-width="2.877"/>
          <line id="Línea_321" data-name="Línea 321" x2="42.36" transform="translate(0 21.18)" fill="none" stroke="#e5c3d1" stroke-miterlimit="10" stroke-width="2.877"/>
          <line id="Línea_322" data-name="Línea 322" x1="29.953" y2="29.953" transform="translate(6.204 6.204)" fill="none" stroke="#e5c3d1" stroke-miterlimit="10" stroke-width="2.877"/>
          <line id="Línea_323" data-name="Línea 323" x2="29.953" y2="29.953" transform="translate(6.204 6.204)" fill="none" stroke="#e5c3d1" stroke-miterlimit="10" stroke-width="2.877"/>
        </g>
        <g id="Grupo_60318" data-name="Grupo 60318" transform="translate(418.456 220.963)">
          <line id="Línea_324" data-name="Línea 324" y2="42.36" transform="translate(21.18)" fill="none" stroke="#e5c3d1" stroke-miterlimit="10" stroke-width="2.877"/>
          <line id="Línea_325" data-name="Línea 325" x2="42.36" transform="translate(0 21.18)" fill="none" stroke="#e5c3d1" stroke-miterlimit="10" stroke-width="2.877"/>
          <line id="Línea_326" data-name="Línea 326" x1="29.953" y2="29.953" transform="translate(6.204 6.204)" fill="none" stroke="#e5c3d1" stroke-miterlimit="10" stroke-width="2.877"/>
          <line id="Línea_327" data-name="Línea 327" x2="29.953" y2="29.953" transform="translate(6.204 6.204)" fill="none" stroke="#e5c3d1" stroke-miterlimit="10" stroke-width="2.877"/>
        </g>
        <g id="Grupo_60319" data-name="Grupo 60319" transform="translate(0 197.602)">
          <line id="Línea_328" data-name="Línea 328" y2="27.696" transform="translate(13.848)" fill="none" stroke="#e5c3d1" stroke-miterlimit="10" stroke-width="1.881"/>
          <line id="Línea_329" data-name="Línea 329" x2="27.696" transform="translate(0 13.848)" fill="none" stroke="#e5c3d1" stroke-miterlimit="10" stroke-width="1.881"/>
          <line id="Línea_330" data-name="Línea 330" x1="19.584" y2="19.584" transform="translate(4.056 4.056)" fill="none" stroke="#e5c3d1" stroke-miterlimit="10" stroke-width="1.881"/>
          <line id="Línea_331" data-name="Línea 331" x2="19.584" y2="19.584" transform="translate(4.056 4.056)" fill="none" stroke="#e5c3d1" stroke-miterlimit="10" stroke-width="1.881"/>
        </g>
        <g id="Grupo_60320" data-name="Grupo 60320" transform="translate(439.636 148.391)">
          <line id="Línea_332" data-name="Línea 332" y2="27.696" transform="translate(13.848)" fill="none" stroke="#e5c3d1" stroke-miterlimit="10" stroke-width="1.881"/>
          <line id="Línea_333" data-name="Línea 333" x2="27.696" transform="translate(0 13.848)" fill="none" stroke="#e5c3d1" stroke-miterlimit="10" stroke-width="1.881"/>
          <line id="Línea_334" data-name="Línea 334" x1="19.584" y2="19.584" transform="translate(4.056 4.056)" fill="none" stroke="#e5c3d1" stroke-miterlimit="10" stroke-width="1.881"/>
          <line id="Línea_335" data-name="Línea 335" x2="19.584" y2="19.584" transform="translate(4.056 4.056)" fill="none" stroke="#e5c3d1" stroke-miterlimit="10" stroke-width="1.881"/>
        </g>
      </g>
    </g>
  </g>
</svg>
