<svg xmlns="http://www.w3.org/2000/svg" xmlns:xlink="http://www.w3.org/1999/xlink" width="256" height="179" viewBox="0 0 256 179">
  <defs>
    <clipPath id="clip-path">
      <rect id="Rectángulo_7434" data-name="Rectángulo 7434" width="256" height="179" rx="9" transform="translate(1128.668 757.099)" fill="none"/>
    </clipPath>
    <clipPath id="clip-path-2">
      <path id="Trazado_116399" data-name="Trazado 116399" d="M1120.874,822.631s38.757,20.442,125.231-15.005l148.313,57.016,17.487,87.411-81.459,22.231L1152.7,951.042l7.579-14.147s25.263-22.236-29.305-37.644-30.316-34.609-30.316-34.609Z" fill="none"/>
    </clipPath>
  </defs>
  <g id="Grupo_60826" data-name="Grupo 60826" transform="translate(-1128.668 -757.099)">
    <rect id="Rectángulo_7434-2" data-name="Rectángulo 7434" width="256" height="179" rx="9" transform="translate(1128.668 757.099)" fill="#fff"/>
    <g id="Grupo_60859" data-name="Grupo 60859">
      <g id="Grupo_60858" data-name="Grupo 60858" clip-path="url(#clip-path)">
        <path id="Trazado_116397" data-name="Trazado 116397" d="M1104.2,811.463l168.164-50.779,134.994,95.188L1418.24,969.1l-166.863,7.961-128.609-15.158s-21.6-18.568-21.6-19.705S1104.2,811.463,1104.2,811.463Z" fill="#4b70b1"/>
        <g id="Grupo_60857" data-name="Grupo 60857">
          <g id="Grupo_60829" data-name="Grupo 60829">
            <path id="Trazado_116398" data-name="Trazado 116398" d="M1120.874,822.631s38.757,20.442,125.231-15.005l148.313,57.016,17.487,87.411-81.459,22.231L1152.7,951.042l7.579-14.147s25.263-22.236-29.305-37.644-30.316-34.609-30.316-34.609Z" fill="#e4d8d1"/>
            <g id="Grupo_60828" data-name="Grupo 60828">
              <g id="Grupo_60827" data-name="Grupo 60827" clip-path="url(#clip-path-2)">
                <g id="Grupo_60826-2" data-name="Grupo 60826">
                  <line id="Línea_434" data-name="Línea 434" x1="70.356" y2="191.743" transform="translate(1508.748 907.816)" fill="none" stroke="#575756" stroke-miterlimit="10" stroke-width="0.5"/>
                  <line id="Línea_435" data-name="Línea 435" x1="70.356" y2="191.743" transform="translate(1498.585 904.087)" fill="none" stroke="#575756" stroke-miterlimit="10" stroke-width="0.5"/>
                  <line id="Línea_436" data-name="Línea 436" x1="70.356" y2="191.743" transform="translate(1488.422 900.358)" fill="none" stroke="#575756" stroke-miterlimit="10" stroke-width="0.5"/>
                  <line id="Línea_437" data-name="Línea 437" x1="70.356" y2="191.743" transform="translate(1478.259 896.629)" fill="none" stroke="#575756" stroke-miterlimit="10" stroke-width="0.5"/>
                  <line id="Línea_438" data-name="Línea 438" x1="70.356" y2="191.743" transform="translate(1468.096 892.9)" fill="none" stroke="#575756" stroke-miterlimit="10" stroke-width="0.5"/>
                  <line id="Línea_439" data-name="Línea 439" x1="70.356" y2="191.743" transform="translate(1457.933 889.171)" fill="none" stroke="#575756" stroke-miterlimit="10" stroke-width="0.5"/>
                  <line id="Línea_440" data-name="Línea 440" x1="70.356" y2="191.743" transform="translate(1447.77 885.441)" fill="none" stroke="#575756" stroke-miterlimit="10" stroke-width="0.5"/>
                  <line id="Línea_441" data-name="Línea 441" x1="70.356" y2="191.743" transform="translate(1437.607 881.712)" fill="none" stroke="#575756" stroke-miterlimit="10" stroke-width="0.5"/>
                  <line id="Línea_442" data-name="Línea 442" x1="70.356" y2="191.743" transform="translate(1427.444 877.983)" fill="none" stroke="#575756" stroke-miterlimit="10" stroke-width="0.5"/>
                  <line id="Línea_443" data-name="Línea 443" x1="70.356" y2="191.743" transform="translate(1417.281 874.254)" fill="none" stroke="#575756" stroke-miterlimit="10" stroke-width="0.5"/>
                  <line id="Línea_444" data-name="Línea 444" x1="70.356" y2="191.743" transform="translate(1407.118 870.525)" fill="none" stroke="#575756" stroke-miterlimit="10" stroke-width="0.5"/>
                  <line id="Línea_445" data-name="Línea 445" x1="70.356" y2="191.743" transform="translate(1396.955 866.796)" fill="none" stroke="#575756" stroke-miterlimit="10" stroke-width="0.5"/>
                  <line id="Línea_446" data-name="Línea 446" x1="70.356" y2="191.743" transform="translate(1386.792 863.067)" fill="none" stroke="#575756" stroke-miterlimit="10" stroke-width="0.5"/>
                  <line id="Línea_447" data-name="Línea 447" x1="70.356" y2="191.743" transform="translate(1376.629 859.338)" fill="none" stroke="#575756" stroke-miterlimit="10" stroke-width="0.5"/>
                  <line id="Línea_448" data-name="Línea 448" x1="70.356" y2="191.743" transform="translate(1366.466 855.609)" fill="none" stroke="#575756" stroke-miterlimit="10" stroke-width="0.5"/>
                  <line id="Línea_449" data-name="Línea 449" x1="70.356" y2="191.743" transform="translate(1356.303 851.88)" fill="none" stroke="#575756" stroke-miterlimit="10" stroke-width="0.5"/>
                  <line id="Línea_450" data-name="Línea 450" x1="70.356" y2="191.743" transform="translate(1346.14 848.151)" fill="none" stroke="#575756" stroke-miterlimit="10" stroke-width="0.5"/>
                  <line id="Línea_451" data-name="Línea 451" x1="70.356" y2="191.743" transform="translate(1335.976 844.421)" fill="none" stroke="#575756" stroke-miterlimit="10" stroke-width="0.5"/>
                  <line id="Línea_452" data-name="Línea 452" x1="70.356" y2="191.743" transform="translate(1325.813 840.692)" fill="none" stroke="#575756" stroke-miterlimit="10" stroke-width="0.5"/>
                  <line id="Línea_453" data-name="Línea 453" x1="70.356" y2="191.743" transform="translate(1315.65 836.963)" fill="none" stroke="#575756" stroke-miterlimit="10" stroke-width="0.5"/>
                  <line id="Línea_454" data-name="Línea 454" x1="70.356" y2="191.743" transform="translate(1305.487 833.234)" fill="none" stroke="#575756" stroke-miterlimit="10" stroke-width="0.5"/>
                  <line id="Línea_455" data-name="Línea 455" x1="70.356" y2="191.743" transform="translate(1295.324 829.505)" fill="none" stroke="#575756" stroke-miterlimit="10" stroke-width="0.5"/>
                  <line id="Línea_456" data-name="Línea 456" x1="70.356" y2="191.743" transform="translate(1285.161 825.776)" fill="none" stroke="#575756" stroke-miterlimit="10" stroke-width="0.5"/>
                  <line id="Línea_457" data-name="Línea 457" x1="70.356" y2="191.743" transform="translate(1274.998 822.047)" fill="none" stroke="#575756" stroke-miterlimit="10" stroke-width="0.5"/>
                  <line id="Línea_458" data-name="Línea 458" x1="70.356" y2="191.743" transform="translate(1264.835 818.318)" fill="none" stroke="#575756" stroke-miterlimit="10" stroke-width="0.5"/>
                  <line id="Línea_459" data-name="Línea 459" x1="70.356" y2="191.743" transform="translate(1254.672 814.589)" fill="none" stroke="#575756" stroke-miterlimit="10" stroke-width="0.5"/>
                  <line id="Línea_460" data-name="Línea 460" x1="70.356" y2="191.743" transform="translate(1244.509 810.859)" fill="none" stroke="#575756" stroke-miterlimit="10" stroke-width="0.5"/>
                  <line id="Línea_461" data-name="Línea 461" x1="70.356" y2="191.743" transform="translate(1234.346 807.13)" fill="none" stroke="#575756" stroke-miterlimit="10" stroke-width="0.5"/>
                  <line id="Línea_462" data-name="Línea 462" x1="70.356" y2="191.743" transform="translate(1224.183 803.401)" fill="none" stroke="#575756" stroke-miterlimit="10" stroke-width="0.5"/>
                  <line id="Línea_463" data-name="Línea 463" x1="70.356" y2="191.743" transform="translate(1214.02 799.672)" fill="none" stroke="#575756" stroke-miterlimit="10" stroke-width="0.5"/>
                  <line id="Línea_464" data-name="Línea 464" x1="70.356" y2="191.743" transform="translate(1203.857 795.943)" fill="none" stroke="#575756" stroke-miterlimit="10" stroke-width="0.5"/>
                  <line id="Línea_465" data-name="Línea 465" x1="70.356" y2="191.743" transform="translate(1193.694 792.214)" fill="none" stroke="#575756" stroke-miterlimit="10" stroke-width="0.5"/>
                  <line id="Línea_466" data-name="Línea 466" x1="70.356" y2="191.743" transform="translate(1183.531 788.485)" fill="none" stroke="#575756" stroke-miterlimit="10" stroke-width="0.5"/>
                  <line id="Línea_467" data-name="Línea 467" x1="70.356" y2="191.743" transform="translate(1173.367 784.756)" fill="none" stroke="#575756" stroke-miterlimit="10" stroke-width="0.5"/>
                  <line id="Línea_468" data-name="Línea 468" x1="70.356" y2="191.743" transform="translate(1163.204 781.027)" fill="none" stroke="#575756" stroke-miterlimit="10" stroke-width="0.5"/>
                  <line id="Línea_469" data-name="Línea 469" x1="70.356" y2="191.743" transform="translate(1153.041 777.298)" fill="none" stroke="#575756" stroke-miterlimit="10" stroke-width="0.5"/>
                  <line id="Línea_470" data-name="Línea 470" x1="70.356" y2="191.743" transform="translate(1142.878 773.569)" fill="none" stroke="#575756" stroke-miterlimit="10" stroke-width="0.5"/>
                  <line id="Línea_471" data-name="Línea 471" x1="70.356" y2="191.743" transform="translate(1132.715 769.839)" fill="none" stroke="#575756" stroke-miterlimit="10" stroke-width="0.5"/>
                  <line id="Línea_472" data-name="Línea 472" x1="70.356" y2="191.743" transform="translate(1122.552 766.11)" fill="none" stroke="#575756" stroke-miterlimit="10" stroke-width="0.5"/>
                  <line id="Línea_473" data-name="Línea 473" x1="70.356" y2="191.743" transform="translate(1112.389 762.381)" fill="none" stroke="#575756" stroke-miterlimit="10" stroke-width="0.5"/>
                  <line id="Línea_474" data-name="Línea 474" x1="70.356" y2="191.743" transform="translate(1102.226 758.652)" fill="none" stroke="#575756" stroke-miterlimit="10" stroke-width="0.5"/>
                  <line id="Línea_475" data-name="Línea 475" x1="70.356" y2="191.743" transform="translate(1092.063 754.923)" fill="none" stroke="#575756" stroke-miterlimit="10" stroke-width="0.5"/>
                  <line id="Línea_476" data-name="Línea 476" x1="70.356" y2="191.743" transform="translate(1081.9 751.194)" fill="none" stroke="#575756" stroke-miterlimit="10" stroke-width="0.5"/>
                  <line id="Línea_477" data-name="Línea 477" x1="70.356" y2="191.743" transform="translate(1071.737 747.465)" fill="none" stroke="#575756" stroke-miterlimit="10" stroke-width="0.5"/>
                  <line id="Línea_478" data-name="Línea 478" x1="70.356" y2="191.743" transform="translate(1061.574 743.736)" fill="none" stroke="#575756" stroke-miterlimit="10" stroke-width="0.5"/>
                  <line id="Línea_479" data-name="Línea 479" x1="70.356" y2="191.743" transform="translate(1051.411 740.007)" fill="none" stroke="#575756" stroke-miterlimit="10" stroke-width="0.5"/>
                  <line id="Línea_480" data-name="Línea 480" x1="70.356" y2="191.743" transform="translate(1041.248 736.278)" fill="none" stroke="#575756" stroke-miterlimit="10" stroke-width="0.5"/>
                  <line id="Línea_481" data-name="Línea 481" x1="70.356" y2="191.743" transform="translate(1031.085 732.548)" fill="none" stroke="#575756" stroke-miterlimit="10" stroke-width="0.5"/>
                  <line id="Línea_482" data-name="Línea 482" x1="70.356" y2="191.743" transform="translate(1020.922 728.819)" fill="none" stroke="#575756" stroke-miterlimit="10" stroke-width="0.5"/>
                  <line id="Línea_483" data-name="Línea 483" x1="70.356" y2="191.743" transform="translate(1010.759 725.09)" fill="none" stroke="#575756" stroke-miterlimit="10" stroke-width="0.5"/>
                  <line id="Línea_484" data-name="Línea 484" x1="70.356" y2="191.743" transform="translate(1000.595 721.361)" fill="none" stroke="#575756" stroke-miterlimit="10" stroke-width="0.5"/>
                  <line id="Línea_485" data-name="Línea 485" x1="70.356" y2="191.743" transform="translate(990.432 717.632)" fill="none" stroke="#575756" stroke-miterlimit="10" stroke-width="0.5"/>
                  <line id="Línea_486" data-name="Línea 486" x1="70.356" y2="191.743" transform="translate(980.269 713.903)" fill="none" stroke="#575756" stroke-miterlimit="10" stroke-width="0.5"/>
                  <line id="Línea_487" data-name="Línea 487" x1="70.356" y2="191.743" transform="translate(970.106 710.174)" fill="none" stroke="#575756" stroke-miterlimit="10" stroke-width="0.5"/>
                  <line id="Línea_488" data-name="Línea 488" x1="70.356" y2="191.743" transform="translate(959.943 706.445)" fill="none" stroke="#575756" stroke-miterlimit="10" stroke-width="0.5"/>
                  <line id="Línea_489" data-name="Línea 489" x2="567.098" y2="208.084" transform="translate(1019.198 707.368)" fill="none" stroke="#575756" stroke-miterlimit="10" stroke-width="0.5"/>
                  <line id="Línea_490" data-name="Línea 490" x2="567.098" y2="208.084" transform="translate(1015.469 717.531)" fill="none" stroke="#575756" stroke-miterlimit="10" stroke-width="0.5"/>
                  <line id="Línea_491" data-name="Línea 491" x2="567.098" y2="208.084" transform="translate(1011.74 727.695)" fill="none" stroke="#575756" stroke-miterlimit="10" stroke-width="0.5"/>
                  <line id="Línea_492" data-name="Línea 492" x2="567.098" y2="208.084" transform="translate(1008.01 737.858)" fill="none" stroke="#575756" stroke-miterlimit="10" stroke-width="0.5"/>
                  <line id="Línea_493" data-name="Línea 493" x2="567.098" y2="208.084" transform="translate(1004.281 748.021)" fill="none" stroke="#575756" stroke-miterlimit="10" stroke-width="0.5"/>
                  <line id="Línea_494" data-name="Línea 494" x2="567.098" y2="208.084" transform="translate(1000.552 758.184)" fill="none" stroke="#575756" stroke-miterlimit="10" stroke-width="0.5"/>
                  <line id="Línea_495" data-name="Línea 495" x2="567.098" y2="208.084" transform="translate(996.823 768.347)" fill="none" stroke="#575756" stroke-miterlimit="10" stroke-width="0.5"/>
                  <line id="Línea_496" data-name="Línea 496" x2="567.098" y2="208.084" transform="translate(993.094 778.51)" fill="none" stroke="#575756" stroke-miterlimit="10" stroke-width="0.5"/>
                  <line id="Línea_497" data-name="Línea 497" x2="567.098" y2="208.084" transform="translate(989.365 788.673)" fill="none" stroke="#575756" stroke-miterlimit="10" stroke-width="0.5"/>
                  <line id="Línea_498" data-name="Línea 498" x2="567.098" y2="208.084" transform="translate(985.636 798.836)" fill="none" stroke="#575756" stroke-miterlimit="10" stroke-width="0.5"/>
                  <line id="Línea_499" data-name="Línea 499" x2="567.098" y2="208.084" transform="translate(981.907 808.999)" fill="none" stroke="#575756" stroke-miterlimit="10" stroke-width="0.5"/>
                  <line id="Línea_500" data-name="Línea 500" x2="567.098" y2="208.084" transform="translate(978.178 819.162)" fill="none" stroke="#575756" stroke-miterlimit="10" stroke-width="0.5"/>
                  <line id="Línea_501" data-name="Línea 501" x2="567.098" y2="208.084" transform="translate(974.448 829.325)" fill="none" stroke="#575756" stroke-miterlimit="10" stroke-width="0.5"/>
                  <line id="Línea_502" data-name="Línea 502" x2="567.098" y2="208.084" transform="translate(970.719 839.488)" fill="none" stroke="#575756" stroke-miterlimit="10" stroke-width="0.5"/>
                  <line id="Línea_503" data-name="Línea 503" x2="567.098" y2="208.084" transform="translate(966.99 849.651)" fill="none" stroke="#575756" stroke-miterlimit="10" stroke-width="0.5"/>
                  <line id="Línea_504" data-name="Línea 504" x2="567.098" y2="208.084" transform="translate(963.261 859.814)" fill="none" stroke="#575756" stroke-miterlimit="10" stroke-width="0.5"/>
                  <line id="Línea_505" data-name="Línea 505" x2="567.098" y2="208.084" transform="translate(959.532 869.977)" fill="none" stroke="#575756" stroke-miterlimit="10" stroke-width="0.5"/>
                  <line id="Línea_506" data-name="Línea 506" x2="567.098" y2="208.084" transform="translate(955.803 880.14)" fill="none" stroke="#575756" stroke-miterlimit="10" stroke-width="0.5"/>
                  <line id="Línea_507" data-name="Línea 507" x2="567.098" y2="208.084" transform="translate(952.074 890.303)" fill="none" stroke="#575756" stroke-miterlimit="10" stroke-width="0.5"/>
                </g>
              </g>
            </g>
          </g>
          <g id="Grupo_60836" data-name="Grupo 60836">
            <g id="Grupo_60830" data-name="Grupo 60830">
              <path id="Trazado_116400" data-name="Trazado 116400" d="M1246.41,905.963l-1.946,1.418L1214.1,929.459l-10.992,10.317-.88,55.123-45.361-1.436,13.375-71.2s2.5-32.863,3.617-37.665c.87-3.741,2.489-21.822,3.17-29.666a3.861,3.861,0,0,1,3.971-3.54,3.879,3.879,0,0,1,3.742,3.7l.957,22.6,8.6-32.636a3.767,3.767,0,0,1,7.41,1.077L1199.553,877l12.806-32.377A3.846,3.846,0,0,1,1219.84,846c0,.114-.008.227-.023.341L1214.8,880.9l22.633-22.037a3.045,3.045,0,0,1,4.741,3.758c-4.342,6.988-18.215,30.282-18.745,32.269-2.544,9.538-1.515,12.985-1.515,12.985s20.357-9.486,23.242-8.917c.034.013.056.014.09.026a3.71,3.71,0,0,1,2.906,3.5A3.879,3.879,0,0,1,1246.41,905.963Z" fill="#ffa780"/>
            </g>
            <g id="Grupo_60831" data-name="Grupo 60831">
              <path id="Trazado_116401" data-name="Trazado 116401" d="M1183.55,856.646l-5.544-.176c.114-2.424,1.4-4.33,2.91-4.282S1183.59,854.219,1183.55,856.646Z" fill="#f2d1c2"/>
            </g>
            <g id="Grupo_60832" data-name="Grupo 60832">
              <path id="Trazado_116402" data-name="Trazado 116402" d="M1200.672,848.191l-5.5-.7c.342-2.4,1.8-4.179,3.3-3.988S1200.942,845.78,1200.672,848.191Z" fill="#f2d1c2"/>
            </g>
            <g id="Grupo_60833" data-name="Grupo 60833">
              <path id="Trazado_116403" data-name="Trazado 116403" d="M1218.693,847.959l-5.43-1.128c.529-2.369,2.121-4.025,3.6-3.717S1219.151,845.576,1218.693,847.959Z" fill="#f2d1c2"/>
            </g>
            <g id="Grupo_60834" data-name="Grupo 60834">
              <path id="Trazado_116404" data-name="Trazado 116404" d="M1240.66,863.972l-4.14-2.91c1.3-1.792,3.233-2.6,4.364-1.809S1241.906,862.141,1240.66,863.972Z" fill="#f2d1c2"/>
            </g>
            <g id="Grupo_60835" data-name="Grupo 60835">
              <path id="Trazado_116405" data-name="Trazado 116405" d="M1246.41,905.963l-1.946,1.418-2.459-3.573c2.465-1.652,5.055-2.2,6.143-1.33A3.879,3.879,0,0,1,1246.41,905.963Z" fill="#f2d1c2"/>
            </g>
          </g>
          <g id="Grupo_60856" data-name="Grupo 60856">
            <g id="Grupo_60837" data-name="Grupo 60837">
              <rect id="Rectángulo_7632" data-name="Rectángulo 7632" width="0.691" height="23.354" rx="0.194" transform="matrix(0.634, -0.773, 0.773, 0.634, 1277.753, 836.768)" fill="#622c31"/>
              <rect id="Rectángulo_7633" data-name="Rectángulo 7633" width="0.691" height="23.354" rx="0.194" transform="matrix(0.773, 0.634, -0.634, 0.773, 1294.139, 834.66)" fill="#622c31"/>
              <rect id="Rectángulo_7634" data-name="Rectángulo 7634" width="0.691" height="23.354" rx="0.194" transform="matrix(0.098, 0.995, -0.995, 0.098, 1298.586, 842.416)" fill="#622c31"/>
              <rect id="Rectángulo_7635" data-name="Rectángulo 7635" width="0.691" height="23.354" rx="0.194" transform="matrix(-0.995, 0.098, -0.098, -0.995, 1288.49, 855.493)" fill="#622c31"/>
              <rect id="Rectángulo_7636" data-name="Rectángulo 7636" width="0.691" height="23.354" rx="0.194" transform="matrix(0.833, -0.554, 0.554, 0.833, 1280.245, 834.376)" fill="#622c31"/>
              <rect id="Rectángulo_7637" data-name="Rectángulo 7637" width="0.691" height="23.354" rx="0.194" transform="matrix(0.554, 0.833, -0.833, 0.554, 1296.531, 837.152)" fill="#622c31"/>
              <rect id="Rectángulo_7638" data-name="Rectángulo 7638" width="0.691" height="23.354" rx="0.194" transform="translate(1298.516 845.87) rotate(101.369)" fill="#622c31"/>
              <rect id="Rectángulo_7639" data-name="Rectángulo 7639" width="0.691" height="23.354" rx="0.194" transform="translate(1285.037 855.422) rotate(-168.631)" fill="#622c31"/>
              <rect id="Rectángulo_7640" data-name="Rectángulo 7640" width="0.691" height="23.354" rx="0.194" transform="translate(1282.228 833.244) rotate(-22.413)" fill="#622c31"/>
              <rect id="Rectángulo_7641" data-name="Rectángulo 7641" width="0.691" height="23.354" rx="0.194" transform="translate(1297.663 839.135) rotate(67.587)" fill="#622c31"/>
              <rect id="Rectángulo_7642" data-name="Rectángulo 7642" width="0.691" height="23.354" rx="0.194" transform="translate(1297.914 848.072) rotate(112.587)" fill="#622c31"/>
              <rect id="Rectángulo_7643" data-name="Rectángulo 7643" width="0.691" height="23.354" rx="0.194" transform="translate(1282.834 854.821) rotate(-157.413)" fill="#622c31"/>
              <rect id="Rectángulo_7644" data-name="Rectángulo 7644" width="0.691" height="23.354" rx="0.194" transform="translate(1278.909 835.48) rotate(-42.137)" fill="#622c31"/>
              <rect id="Rectángulo_7645" data-name="Rectángulo 7645" width="0.691" height="23.354" rx="0.194" transform="translate(1295.427 835.816) rotate(47.863)" fill="#622c31"/>
              <rect id="Rectángulo_7646" data-name="Rectángulo 7646" width="0.691" height="23.354" rx="0.194" transform="matrix(-0.05, 0.999, -0.999, -0.05, 1298.679, 844.145)" fill="#622c31"/>
              <rect id="Rectángulo_7647" data-name="Rectángulo 7647" width="0.691" height="23.354" rx="0.194" transform="matrix(-0.999, -0.05, 0.05, -0.999, 1286.762, 855.586)" fill="#622c31"/>
              <rect id="Rectángulo_7648" data-name="Rectángulo 7648" width="0.691" height="23.354" rx="0.194" transform="translate(1283.587 832.734) rotate(-15.291)" fill="#622c31"/>
              <rect id="Rectángulo_7649" data-name="Rectángulo 7649" width="0.691" height="23.354" rx="0.194" transform="translate(1298.172 840.494) rotate(74.709)" fill="#622c31"/>
              <rect id="Rectángulo_7650" data-name="Rectángulo 7650" width="0.691" height="23.354" rx="0.194" transform="matrix(-0.496, 0.869, -0.869, -0.496, 1297.313, 849.393)" fill="#622c31"/>
              <rect id="Rectángulo_7651" data-name="Rectángulo 7651" width="0.691" height="23.354" rx="0.194" transform="matrix(-0.869, -0.496, 0.496, -0.869, 1281.513, 854.22)" fill="#622c31"/>
            </g>
            <g id="Grupo_60838" data-name="Grupo 60838">
              <path id="Trazado_116406" data-name="Trazado 116406" d="M1318.081,808.784l.416,28.068s4.145,1.918,6.593-1.417,2.762-23.205,2.762-23.205Z" fill="#dd886b"/>
            </g>
            <g id="Grupo_60839" data-name="Grupo 60839">
              <path id="Trazado_116407" data-name="Trazado 116407" d="M1327.9,806.993l.416,28.069s4.145,1.917,6.593-1.417,2.762-23.206,2.762-23.206Z" fill="#dd886b"/>
            </g>
            <g id="Grupo_60840" data-name="Grupo 60840">
              <path id="Trazado_116408" data-name="Trazado 116408" d="M1307.638,811.967l-1.676,16.083s3.551,3.144,7.337-1.678,3.987-15.6,3.987-15.6Z" fill="#dd886b"/>
            </g>
            <g id="Grupo_60841" data-name="Grupo 60841">
              <path id="Trazado_116409" data-name="Trazado 116409" d="M1388.589,812.824s-30.376-16.966-49.529-22.375c-3.956-1.125-31.009,2.694-32.542,5.068a13.137,13.137,0,0,0-1.836,5.227c-.122.086-.252.168-.361.261-2.977,2.524-11.085,22.861-11.085,22.861,8.119,8,17.27-8.974,18.766-11.109.7-1,8.617.473,15.419,1.951a11.917,11.917,0,0,1,2.32,1.8c3.99,4.338,4.262,14.881,1.966,15.8-2.281.919-15.085,3.462-15.085,3.462s-10.607-14.461-15.643-7.132c0,0,6.846,15.777,11.92,18.237s30.069,1.754,32.617,1.244,24.486-5.022,31.595-3.878c5.52.877,32.559,32.644,46.137,46.93l44.669-26.158C1447.351,850.532,1388.589,812.824,1388.589,812.824Z" fill="#ffa780"/>
            </g>
            <g id="Grupo_60842" data-name="Grupo 60842">
              <path id="Trazado_116410" data-name="Trazado 116410" d="M1328.284,800.63c-5.671-.692-21.262-2.32-23.476.109l.15-.85c2.955-3.208,21.306-.481,23.443-.22Z" fill="#dd886b"/>
            </g>
            <g id="Grupo_60843" data-name="Grupo 60843">
              <path id="Trazado_116411" data-name="Trazado 116411" d="M1328.552,790.808c1.349.4,2.695.818,4.022,1.269a3.591,3.591,0,0,1-.39-1.617C1331.045,790.551,1329.825,790.668,1328.552,790.808Z" fill="#ffa780"/>
            </g>
            <g id="Grupo_60844" data-name="Grupo 60844">
              <path id="Trazado_116412" data-name="Trazado 116412" d="M1335.291,793.529c-.093-.015-9.359-1.486-12.852-1.365l.419-.66a112.467,112.467,0,0,1,12.586,1.069Z" fill="#dd886b"/>
            </g>
            <g id="Grupo_60852" data-name="Grupo 60852">
              <g id="Grupo_60847" data-name="Grupo 60847">
                <g id="Grupo_60845" data-name="Grupo 60845">
                  <path id="Trazado_116413" data-name="Trazado 116413" d="M1341.085,783.81c-.149,1.766-40.06,52.241-49.022,63.556a6.634,6.634,0,0,1-5.082,2.555,5.733,5.733,0,0,1-4.323-9.166c11.861-16.748,54.044-61.792,54.044-61.792Z" fill="#1e9dd0"/>
                </g>
                <g id="Grupo_60846" data-name="Grupo 60846">
                  <path id="Trazado_116414" data-name="Trazado 116414" d="M1286.857,849.913a5.742,5.742,0,0,1-2.611-8.839c10.989-15.517,48-55.316,53.383-61.085l-.927-1.026s-42.183,45.044-54.044,61.792A5.733,5.733,0,0,0,1286.857,849.913Z" fill="#048db7"/>
                </g>
              </g>
              <g id="Grupo_60851" data-name="Grupo 60851">
                <g id="Grupo_60848" data-name="Grupo 60848">
                  <path id="Trazado_116415" data-name="Trazado 116415" d="M1281.853,845.264a5.216,5.216,0,1,1,6.006,4.459A5.291,5.291,0,0,1,1281.853,845.264Z" fill="#048db7"/>
                </g>
                <g id="Grupo_60849" data-name="Grupo 60849">
                  <path id="Trazado_116416" data-name="Trazado 116416" d="M1282.153,845.457a4.75,4.75,0,1,1,5.446,3.905A4.739,4.739,0,0,1,1282.153,845.457Z" fill="#de956a"/>
                </g>
                <g id="Grupo_60850" data-name="Grupo 60850">
                  <path id="Trazado_116417" data-name="Trazado 116417" d="M1285.113,845.229a1.436,1.436,0,1,1,1.646,1.181A1.432,1.432,0,0,1,1285.113,845.229Z" fill="#f95150"/>
                </g>
              </g>
            </g>
            <g id="Grupo_60855" data-name="Grupo 60855">
              <g id="Grupo_60853" data-name="Grupo 60853">
                <path id="Trazado_116418" data-name="Trazado 116418" d="M1332.206,832.51a91.82,91.82,0,0,0,3.909,16.066c-8.465.151-19.949-.118-23.216-1.706-3.2-1.551-7.122-8.421-9.558-13.271-1.147-2.254-1.967-4.07-2.251-4.713-.071-.171-.111-.254-.111-.254,5.036-7.329,15.643,7.132,15.643,7.132S1327.645,833.684,1332.206,832.51Z" fill="#ffa780"/>
              </g>
              <g id="Grupo_60854" data-name="Grupo 60854">
                <path id="Trazado_116419" data-name="Trazado 116419" d="M1306.437,831.888l-3.1,1.711c-1.147-2.254-1.967-4.07-2.251-4.713C1302.653,828.095,1305.023,829.414,1306.437,831.888Z" fill="#f2d1c2"/>
              </g>
            </g>
          </g>
        </g>
      </g>
    </g>
    <text id="Papel_carbón" data-name="Papel carbón" transform="translate(1138.583 771.681)" font-size="12" font-family="MyriadPro-Regular, Myriad Pro"><tspan x="0" y="0">Papel carbón</tspan></text>
    <text id="Ruleta_de_calco" data-name="Ruleta de calco" transform="translate(1298.958 770.892)" font-size="12" font-family="MyriadPro-Regular, Myriad Pro"><tspan x="0" y="0">Ruleta de calco</tspan></text>
    <line id="Línea_508" data-name="Línea 508" x2="2.961" y2="17.095" transform="translate(1169.884 774.057)" fill="none" stroke="#706f6f" stroke-miterlimit="10" stroke-width="1"/>
    <line id="Línea_509" data-name="Línea 509" y1="69.688" x2="12.66" transform="translate(1287.211 774.057)" fill="none" stroke="#706f6f" stroke-miterlimit="10" stroke-width="1"/>
  </g>
</svg>
