<svg xmlns="http://www.w3.org/2000/svg" width="292" height="329" viewBox="0 0 292 329">
  <g id="Grupo_61029" data-name="Grupo 61029" transform="translate(-2135.698 -3324.711)">
    <rect id="Rectángulo_7597" data-name="Rectángulo 7597" width="292" height="329" rx="9" transform="translate(2135.698 3324.711)" fill="#fff"/>
    <path id="Trazado_117072" data-name="Trazado 117072" d="M2187.053,3599.989s2.094,22.678,8.873,26.5,12.427,2.694,12.427,2.694l-1.582-24.854-5.955-16.48Z" fill="#ffa780"/>
    <path id="Trazado_117073" data-name="Trazado 117073" d="M2315.327,3590.068l11.883,6.413s-.131,25.926-4.813,27.282-15.528,0-15.528,0,2.259-14.461,3.389-18.98S2315.327,3590.068,2315.327,3590.068Z" fill="#ffa780"/>
    <path id="Trazado_117074" data-name="Trazado 117074" d="M2210,3638.051a18.009,18.009,0,0,1,.046,5h42.928q1.869-7.174,3.739-14.35c.373,3.874,1.495,9.726,2.152,14.35h45.553a25.433,25.433,0,0,1,.771-3.743c3.469-9.216,6.954-18.489,8.761-28.168a9.539,9.539,0,0,0,.157-1.209c-3.677,2.3-7.34,4.751-11.388,6.1a46.088,46.088,0,0,1-9.685,1.74c-27.111,2.894-54.708,5.77-81.468.549a14.6,14.6,0,0,1-5.957-2.153c-1.914-1.4-3.08-3.6-4.8-5.237q1.133,4.531,2.5,9A174.381,174.381,0,0,0,2210,3638.051Z" fill="#36b1bf"/>
    <path id="Trazado_117075" data-name="Trazado 117075" d="M2234.585,3369.635q-23.662,10.466-46.7,22.273a8.953,8.953,0,0,0-2.6,1.749c-1.256,1.365-1.541,3.336-1.767,5.177q-1.455,11.825-2.909,23.65c-1.6,12.983-1,26.539-1.452,39.612-.227,6.622-.454,13.249-1.067,19.847-.493,5.3-1.236,10.594-1.385,15.92-.367,13.14,2.882,26.109,3.643,39.232.421,7.267.079,14.573.774,21.819,1.324,13.8,6.394,27.222,5.934,41.075A13.429,13.429,0,0,1,2194,3598c-.125,4.774.489,9.344.364,14.119a6,6,0,0,0,2.757,6.222c7.59,6.3,15.753,12.771,25.511,14.222a55.254,55.254,0,0,0,10.178.249l37.736-1.4c8.487-.315,17.034-.638,25.307-2.556s16.35-5.553,22.268-11.643c1.3-1.334-.592-3.084-.546-4.943a31.927,31.927,0,0,0-.174-3.539l-1-11.587-.718.292c2.787-.874,5.582.512,8.115,1.965a1.841,1.841,0,0,0,1.743.294c1.12-.63.4-3.014,1.671-3.217,2.182-22.109,5.126-44.259,7.308-66.368a53.1,53.1,0,0,0,.26-12.241c-.416-3.111-1.381-6.123-1.935-9.212a70.694,70.694,0,0,1-.792-11.447l-.271-18.122A138.6,138.6,0,0,1,2332.1,3464c.468-4.962,1.469-9.861,1.951-14.822,1.169-12.033-.734-24.129-2.631-36.068l-1.777-11.184a19.173,19.173,0,0,0-9.657-13.05c-4.72-2.4-10.068-3.2-15.11-4.82a48.008,48.008,0,0,1-14.224-7.384c-5.013-3.786-9.827-5.3-13.9-8.462-.4.148-.474-.2-.559.5a2.65,2.65,0,0,1-1.8,1.906c-13.22,5.045-28.431,6.7-40.381-.876C2235,3369.11,2234.877,3368.515,2234.585,3369.635Z" fill="#e1dbdd"/>
    <g id="Grupo_60986" data-name="Grupo 60986">
      <path id="Trazado_117076" data-name="Trazado 117076" d="M2187.226,3429.85a52.6,52.6,0,0,0-8.061-8.919,25.909,25.909,0,0,0,.562-3.839c-.078-.7-2.3-1.507-2.3-1.507a3.642,3.642,0,0,0,0-2.778c-.6-1.566-13.332-4.463-15.251-3.819-1.459.488-7.751,4.893-13.911,10.957-1.783,1.755-4.5,4.709-6.826,5.608-.179.069-4.791,8.245-5.747,8.981v19.886c7.969-6.178,13.9-10.662,13.925-10.724.157-.449,10.132,1.389,18.731-.642,3.8-.9,7.533-2.578,11.386-3.447a32.112,32.112,0,0,1,4.055-.629,1.2,1.2,0,0,1,.178-.02s1.535-3.364-1.372-4.513c-4.088-1.609-5.31-.029-12.659,1.408l-.391.049a16.618,16.618,0,0,1-1.954.033c-.319-.239-.449-1.154-.493-2.169a4.088,4.088,0,0,1,2.909-4.11l7.05-2.088s6.759,4.212,7.77,4.78c1.919,1.076,2.657.756,2.956.356.035-.048.067-.1.1-.149C2188.192,3431.929,2187.887,3430.959,2187.226,3429.85Z" fill="#ffa780"/>
      <g id="Grupo_60984" data-name="Grupo 60984">
        <path id="Trazado_116787" data-name="Trazado 116787" d="M2187.892,3432.554c-.055.065-.1.1-.1.116a1.382,1.382,0,0,1-.3-.089,2.269,2.269,0,0,1-1.4-1.535l1.156-1.195C2187.893,3430.951,2188.2,3431.92,2187.892,3432.554Z" fill="#f2d1c2"/>
      </g>
      <path id="Trazado_116788" data-name="Trazado 116788" d="M2179.156,3420.747c-1.08-.637-11.218.36-11.655.4a3.96,3.96,0,0,0-.237.393s11.072-.943,11.8-.515A1.315,1.315,0,0,0,2179.156,3420.747Z" fill="#dd886b"/>
      <path id="Trazado_116789" data-name="Trazado 116789" d="M2177.471,3415.472c.005-.022-11.618-2.62-11.618-2.62v.379l11.543,2.49A1.244,1.244,0,0,0,2177.471,3415.472Z" fill="#dd886b"/>
      <g id="Grupo_60985" data-name="Grupo 60985">
        <path id="Trazado_116790" data-name="Trazado 116790" d="M2179.664,3437.2a2.262,2.262,0,0,0,.071,2.419,32.083,32.083,0,0,1,4.056-.629,2.266,2.266,0,0,0-4.126-1.789Z" fill="#f2d1c2"/>
      </g>
    </g>
    <g id="Grupo_61029-2" data-name="Grupo 61029">
      <path id="Trazado_117077" data-name="Trazado 117077" d="M2316.736,3449.778c-2.875,10.49-5.984,20.947-8.534,31.522a96.031,96.031,0,0,0-2.575,16.009,113.516,113.516,0,0,0,.119,15.736c.767,10.768,2.67,21.406,4.274,32.069q2.427,16.134,4.113,32.366,1.93,18.576,2.884,37.236c.035.687,1.344.494,1.314-.094q-1.677-32.651-6.31-65.056c-3.057-21.308-7.878-42.886-3.408-64.358,1.239-5.952,2.936-11.8,4.542-17.662l4.9-17.863c.171-.623-1.156-.481-1.314.095Z" fill="#c6c1c3"/>
    </g>
    <g id="Grupo_61030" data-name="Grupo 61030">
      <path id="Trazado_117078" data-name="Trazado 117078" d="M2322.671,3565.4l-1.021,8.121a69.461,69.461,0,0,0-.823,8.028c-.021,2.562.826,4.978.951,7.519a76.017,76.017,0,0,1-.334,7.963c-.01.174,1.274.029,1.295-.347.147-2.569.436-5.178.343-7.752-.095-2.612-.98-5.1-.959-7.73a67.415,67.415,0,0,1,.8-7.809l1.048-8.34c.018-.146-1.247-.04-1.3.347Z" fill="#c6c1c3"/>
    </g>
    <g id="Grupo_61031" data-name="Grupo 61031">
      <path id="Trazado_117079" data-name="Trazado 117079" d="M2201.791,3476.442c1.906,9.044,1.686,18.308,1.176,27.485a269.815,269.815,0,0,0-.606,27.541c.422,9.136,1.209,18.334.095,27.453s-4.191,17.94-6.223,26.885c-2.269,9.988-3.738,20.215-2.733,30.464.063.638,1.361.316,1.3-.347-.909-9.267.268-18.57,2.192-27.637,1.909-8.995,4.93-17.782,6.418-26.859s.87-18.289.4-27.414c-.239-4.647-.423-9.294-.328-13.948.093-4.546.387-9.085.655-13.623.6-10.121,1.057-20.359-1.048-30.347-.135-.643-1.433-.3-1.3.347Z" fill="#c6c1c3"/>
    </g>
    <g id="Grupo_61032" data-name="Grupo 61032">
      <path id="Trazado_117080" data-name="Trazado 117080" d="M2193.9,3597.6a70.087,70.087,0,0,0-1.326-23.956c-.063-.275-1.3.032-1.295.347a98.814,98.814,0,0,1-.785,16.849c-.22,1.351-.5,2.694-.841,4.019-.233.894-1.011,2.291-.712,3.22.407,1.267,2.881.42,2.307-.532-.19-.315-1.4.176-1.3.347.372.617.3-.928.3-.941.1-.514.318-1.026.461-1.53.3-1.054.552-2.122.765-3.2a53.71,53.71,0,0,0,.8-5.76c.375-4.263.335-8.548.291-12.823l-1.295.347a70.111,70.111,0,0,1,1.325,23.956c-.018.155,1.25.042,1.3-.347Z" fill="#c6c1c3"/>
    </g>
    <g id="Grupo_61033" data-name="Grupo 61033">
      <path id="Trazado_117081" data-name="Trazado 117081" d="M2325.693,3438.276a46.044,46.044,0,0,0-6.941,9.735c-.118.221.453.162.525.151.236-.037.631-.133.756-.368a45.36,45.36,0,0,1,6.839-9.594c.2-.215-.177-.247-.314-.241a1.366,1.366,0,0,0-.865.317Z" fill="#c6c1c3"/>
    </g>
    <g id="Grupo_61034" data-name="Grupo 61034">
      <path id="Trazado_117082" data-name="Trazado 117082" d="M2316.067,3433.93a36.315,36.315,0,0,1,.068,14.786c-.108.534,1.2.336,1.3-.145a36.894,36.894,0,0,0-.073-14.988c-.1-.489-1.4-.162-1.3.347Z" fill="#c6c1c3"/>
    </g>
    <path id="Trazado_117083" data-name="Trazado 117083" d="M2234.735,3370.168c11.838,7.074,26.71,5.39,39.669.445a3.9,3.9,0,0,0,.812-.433,8.315,8.315,0,0,1,1-1.586c.079-.529.165-.247.542-.385h0s-5.143-16.361,3.333-29.2c0,0-15.4-8.595-42.366.652,0,0,4.3,15.71-1.864,28.552C2235.753,3368.438,2235.315,3369.189,2234.735,3370.168Z" fill="#ffa780"/>
    <g id="Grupo_61035" data-name="Grupo 61035">
      <path id="Trazado_117084" data-name="Trazado 117084" d="M2195.179,3395.635a21.205,21.205,0,0,0-.753,12.61,58.534,58.534,0,0,0,4.448,12.008c1.225,2.658,2.5,5.427,2.432,8.354a46.17,46.17,0,0,1-.968,5.721c-.289,1.915-.169,4.047,1.077,5.53" fill="none" stroke="#c6c1c3" stroke-miterlimit="10" stroke-width="0.5"/>
      <path id="Trazado_117085" data-name="Trazado 117085" d="M2203.089,3437.35c-1.08-6.023,2.955-11.816,3.187-17.931.1-2.527-.46-5.1.091-7.565a13.962,13.962,0,0,1,2.763-5.292,36.39,36.39,0,0,1,6.089-6.239c1.018-.819,2.524-1.583,3.524-.743" fill="none" stroke="#c6c1c3" stroke-miterlimit="10" stroke-width="0.5"/>
      <path id="Trazado_117086" data-name="Trazado 117086" d="M2281.7,3388.937c-3.966,4.785-8.146,10.15-8.037,16.363.052,2.923,1.069,5.729,1.666,8.59s.72,6.038-.845,8.506c-.681,1.073-1.688,2.376-.993,3.44" fill="none" stroke="#c6c1c3" stroke-miterlimit="10" stroke-width="0.5"/>
      <path id="Trazado_117087" data-name="Trazado 117087" d="M2291.029,3425.812c-.741-6.68,2.255-13.159,3.162-19.818a64.285,64.285,0,0,0,.15-11.789" fill="none" stroke="#c6c1c3" stroke-miterlimit="10" stroke-width="0.5"/>
      <path id="Trazado_117088" data-name="Trazado 117088" d="M2305.94,3397.615a58.862,58.862,0,0,0,.655,10.135,14.879,14.879,0,0,0,1.887,5.908,27.344,27.344,0,0,0,2.684,3.157,22.48,22.48,0,0,1,5.58,14.239" fill="none" stroke="#c6c1c3" stroke-miterlimit="10" stroke-width="0.5"/>
      <path id="Trazado_117089" data-name="Trazado 117089" d="M2271.737,3386.773a15.565,15.565,0,0,0-5.462,6.34,40.688,40.688,0,0,0-4.036,11.161c-.44,2.167-.7,4.367-1.179,6.526-1.128,5.1-3.45,10.381-1.8,15.338" fill="none" stroke="#c6c1c3" stroke-miterlimit="10" stroke-width="0.5"/>
      <path id="Trazado_117090" data-name="Trazado 117090" d="M2276.587,3397.144c-.249-.145-.451.256-.456.544-.039,2.451.856,4.809,1.287,7.222a35,35,0,0,1-.25,10.883,18.294,18.294,0,0,1-1.718,6.372,6.605,6.605,0,0,1-5.192,3.654" fill="none" stroke="#c6c1c3" stroke-miterlimit="10" stroke-width="0.5"/>
    </g>
    <g id="Grupo_61036" data-name="Grupo 61036" opacity="0.05">
      <path id="Trazado_117091" data-name="Trazado 117091" d="M2234.023,3369.737c.047.03.1.057.143.087.141-.062.279-.127.419-.189C2234.877,3368.514,2235,3369.11,2234.023,3369.737Z" fill="#3a3a3a"/>
      <path id="Trazado_117092" data-name="Trazado 117092" d="M2324.938,3392.724a17.814,17.814,0,0,0-4.949-3.85c-4.72-2.4-10.068-3.2-15.11-4.819a48.031,48.031,0,0,1-14.224-7.384c-5.013-3.786-9.827-5.3-13.9-8.462-.4.148-.474-.2-.559.5a2.65,2.65,0,0,1-1.8,1.906c-13.168,5.025-28.31,6.686-40.238-.789q-23.447,10.385-46.284,22.084a8.953,8.953,0,0,0-2.6,1.749,8.528,8.528,0,0,0-1.724,4.845c.046.807.095,1.644.084,2.554-.068,5.17-1.445,9.962-.569,15.2.641,3.826,2.121,7.486,2.6,11.335.477,3.792-.03,7.628-.154,11.448a57.24,57.24,0,0,0,1.582,15.328,1.74,1.74,0,0,0,.712,1.225,1.7,1.7,0,0,0,1.5-.225,22.28,22.28,0,0,0,7.931-6.857c2.182-3.063,3.713-6.81,6.906-8.8,3.737-2.327,8.528-1.517,12.9-2.036,9.48-1.126,17.546-8.721,27.092-8.64,4.554.038,9.095,1.86,13.569,1,4.555-.874,8.544-4.456,13.168-4.093,3.559.279,7,2.906,10.4,1.818,1.73-.555,3.16-2.031,4.975-2.124,2.454-.124,4.413,2.328,6.869,2.419a15.9,15.9,0,0,0,3.015-.5,14.1,14.1,0,0,1,4.559.277c5.5.94,11.111,1.921,15.98,4.636,1.834-1.3.275-4.354,1.232-6.39a10.318,10.318,0,0,1,2.059-2.291c1.785-1.946,2.007-4.886,1.534-7.484s-1.533-5.063-1.979-7.666a16.86,16.86,0,0,1,3.648-13.486A10.587,10.587,0,0,0,2324.938,3392.724Z" fill="#3a3a3a"/>
    </g>
    <g id="Grupo_60983" data-name="Grupo 60983">
      <g id="Grupo_60977" data-name="Grupo 60977">
        <path id="Trazado_116780" data-name="Trazado 116780" d="M2203.622,3453.911c2.256,5.631.869,12.943.869,12.943l-4.54.354a30.705,30.705,0,0,1-.987,3.016l-4.505-1.5.558-8.822s-8.806,1.68-10.7-1.308a1.765,1.765,0,0,1,.937-2.816s.64-.129,1.654-.3c-.408-1.5,1.284-2.062,1.284-2.062S2202.5,3451.1,2203.622,3453.911Z" fill="#dd886b"/>
      </g>
      <path id="Trazado_117093" data-name="Trazado 117093" d="M2210.145,3445.965c-.5-.665-.987-1.33-1.461-1.943-.306-.4-.6-.777-.887-1.126a17.867,17.867,0,0,0-2.068-2.3,1.091,1.091,0,0,0-.223-.141c-1.062-.4-2.493,1.757-2.16,3.937.367,2.413,3.7,6.886,3.7,6.886l-2.968,5.507a5.364,5.364,0,0,1-5.468,3.125c-3.78-.407-7.115-2.658-5.45-4.474,5.341-5.828,8.473-7.751,9.188-12.085.51-3.086-3.157-3.5-3.157-3.5a1.083,1.083,0,0,1-.116.146,31.936,31.936,0,0,1-2.627,3.157,41.954,41.954,0,0,1-8.588,6.408c-6.991,4.572-10.364,7.374-14.787,13.511-1.7,2.354-18.456,9.8-37.376,17.624v28.157c22.929-13.617,44.358-26.933,45.446-27.171,6.705-1.5,20.9-6.254,28.078-14.347,3.046-3.437,4.819-13.717,5.129-14.6C2214.508,3452.275,2212.369,3449.015,2210.145,3445.965Z" fill="#ffa780"/>
      <g id="Grupo_60978" data-name="Grupo 60978">
        <path id="Trazado_116782" data-name="Trazado 116782" d="M2208.03,3468.454s6.843-8.339,6.569-10.985-10.69-16.1-10.69-16.1-2.058-.2-2.083,3.037c-.029,3.921,5.1,13.758,5.1,13.758l-7.69,6.7Z" fill="#ffa780"/>
      </g>
      <g id="Grupo_60979" data-name="Grupo 60979">
        <rect id="Rectángulo_7654" data-name="Rectángulo 7654" width="8.683" height="0.294" transform="translate(2209.993 3462.827) rotate(-65.609)" fill="#dd886b"/>
      </g>
      <g id="Grupo_60980" data-name="Grupo 60980">
        <path id="Trazado_116783" data-name="Trazado 116783" d="M2203.555,3443.205a8.937,8.937,0,0,1,.21-1.871l.287.063c-1.163,5.289,3.059,9.733,3.1,9.776l.068.072-.04.091a31.159,31.159,0,0,1-2.233,4.441l-.175-.236a30.041,30.041,0,0,0,2.1-4.235A13.022,13.022,0,0,1,2203.555,3443.205Z" fill="#dd886b"/>
      </g>
      <g id="Grupo_60981" data-name="Grupo 60981">
        <path id="Trazado_116784" data-name="Trazado 116784" d="M2205.74,3444.185a2.266,2.266,0,0,1-.422-3.177,2.2,2.2,0,0,1,.411-.413,17.731,17.731,0,0,1,2.068,2.3C2206.943,3443.446,2206.152,3443.934,2205.74,3444.185Z" fill="#f2d1c2"/>
      </g>
      <g id="Grupo_60982" data-name="Grupo 60982">
        <path id="Trazado_116785" data-name="Trazado 116785" d="M2198.483,3444.456a2.261,2.261,0,0,1-2.037-1.306,31.8,31.8,0,0,0,2.627-3.157,2.266,2.266,0,0,1-.59,4.459Z" fill="#f2d1c2"/>
      </g>
    </g>
    <path id="Trazado_117094" data-name="Trazado 117094" d="M2179.752,3432.641l-.284,8.591,3.912.442,1.769-6.252-5.053-2.781Z" fill="#e1dbdd"/>
    <g id="Grupo_61037" data-name="Grupo 61037">
      <path id="Trazado_117095" data-name="Trazado 117095" d="M2318.448,3357.553a5.614,5.614,0,0,1-2.314.416,4.1,4.1,0,0,1-4.329-4.433,4.36,4.36,0,0,1,4.576-4.6,4.715,4.715,0,0,1,2.08.389l-.273.923a4.135,4.135,0,0,0-1.768-.363c-2.054,0-3.419,1.312-3.419,3.614a3.185,3.185,0,0,0,3.367,3.523,4.529,4.529,0,0,0,1.846-.364Z" fill="#3a3a3a"/>
      <path id="Trazado_117096" data-name="Trazado 117096" d="M2325.378,3354.641a3.074,3.074,0,0,1-3.134,3.34,2.99,2.99,0,0,1-3.015-3.236,3.073,3.073,0,0,1,3.12-3.342A2.981,2.981,0,0,1,2325.378,3354.641Zm-4.992.065c0,1.378.793,2.418,1.911,2.418,1.092,0,1.911-1.027,1.911-2.444,0-1.067-.533-2.418-1.886-2.418S2320.386,3353.51,2320.386,3354.706Z" fill="#3a3a3a"/>
      <path id="Trazado_117097" data-name="Trazado 117097" d="M2326.82,3353.51c0-.741-.013-1.378-.051-1.963h1l.039,1.234h.051a1.889,1.889,0,0,1,1.743-1.378,1.3,1.3,0,0,1,.325.039v1.079a1.791,1.791,0,0,0-.391-.039,1.606,1.606,0,0,0-1.534,1.47,3.331,3.331,0,0,0-.052.532v3.355h-1.131Z" fill="#3a3a3a"/>
      <path id="Trazado_117098" data-name="Trazado 117098" d="M2332.761,3349.739v1.808h1.637v.871h-1.637v3.393c0,.78.22,1.222.858,1.222a2.54,2.54,0,0,0,.662-.078l.053.858a2.8,2.8,0,0,1-1.015.156,1.583,1.583,0,0,1-1.234-.481,2.333,2.333,0,0,1-.442-1.638v-3.432h-.975v-.871h.975v-1.508Z" fill="#3a3a3a"/>
      <path id="Trazado_117099" data-name="Trazado 117099" d="M2336.244,3354.9a2.017,2.017,0,0,0,2.158,2.185,4.156,4.156,0,0,0,1.743-.325l.2.819a5.1,5.1,0,0,1-2.094.39,2.922,2.922,0,0,1-3.094-3.172c0-1.9,1.119-3.394,2.952-3.394,2.053,0,2.6,1.808,2.6,2.965a4.11,4.11,0,0,1-.039.532Zm3.355-.818a1.63,1.63,0,0,0-1.586-1.859,1.9,1.9,0,0,0-1.756,1.859Z" fill="#3a3a3a"/>
      <path id="Trazado_117100" data-name="Trazado 117100" d="M2344.877,3348.608h1.144v3.927h.026a2.122,2.122,0,0,1,.819-.806,2.342,2.342,0,0,1,1.17-.326c.845,0,2.2.521,2.2,2.692v3.744h-1.144v-3.614c0-1.014-.377-1.872-1.456-1.872a1.643,1.643,0,0,0-1.534,1.144,1.376,1.376,0,0,0-.078.546v3.8h-1.144Z" fill="#3a3a3a"/>
      <path id="Trazado_117101" data-name="Trazado 117101" d="M2357.786,3354.641a3.074,3.074,0,0,1-3.134,3.34,2.99,2.99,0,0,1-3.015-3.236,3.073,3.073,0,0,1,3.12-3.342A2.981,2.981,0,0,1,2357.786,3354.641Zm-4.992.065c0,1.378.793,2.418,1.911,2.418,1.092,0,1.911-1.027,1.911-2.444,0-1.067-.533-2.418-1.886-2.418S2352.794,3353.51,2352.794,3354.706Z" fill="#3a3a3a"/>
      <path id="Trazado_117102" data-name="Trazado 117102" d="M2359.229,3353.51c0-.741-.014-1.378-.052-1.963h1l.039,1.234h.052a1.888,1.888,0,0,1,1.742-1.378,1.29,1.29,0,0,1,.325.039v1.079a1.785,1.785,0,0,0-.391-.039,1.607,1.607,0,0,0-1.534,1.47,3.331,3.331,0,0,0-.052.532v3.355h-1.13Z" fill="#3a3a3a"/>
      <path id="Trazado_117103" data-name="Trazado 117103" d="M2364.8,3349.778a.709.709,0,0,1-1.417,0,.7.7,0,0,1,.716-.715A.679.679,0,0,1,2364.8,3349.778Zm-1.274,8.061v-6.292h1.144v6.292Z" fill="#3a3a3a"/>
      <path id="Trazado_117104" data-name="Trazado 117104" d="M2365.858,3357.176l2.847-3.705c.274-.338.533-.637.819-.975v-.026h-3.406v-.923h4.8l-.013.715-2.808,3.653c-.26.351-.52.663-.806.987v.027h3.679v.91h-5.109Z" fill="#3a3a3a"/>
      <path id="Trazado_117105" data-name="Trazado 117105" d="M2377.74,3354.641a3.074,3.074,0,0,1-3.134,3.34,2.99,2.99,0,0,1-3.015-3.236,3.073,3.073,0,0,1,3.12-3.342A2.98,2.98,0,0,1,2377.74,3354.641Zm-4.992.065c0,1.378.793,2.418,1.911,2.418,1.092,0,1.911-1.027,1.911-2.444,0-1.067-.533-2.418-1.885-2.418S2372.748,3353.51,2372.748,3354.706Z" fill="#3a3a3a"/>
      <path id="Trazado_117106" data-name="Trazado 117106" d="M2379.184,3353.25c0-.65-.014-1.184-.052-1.7h1.014l.065,1.04h.025a2.314,2.314,0,0,1,2.08-1.184c.872,0,2.224.521,2.224,2.679v3.757H2383.4v-3.627c0-1.015-.377-1.859-1.457-1.859a1.628,1.628,0,0,0-1.534,1.169,1.679,1.679,0,0,0-.078.534v3.783h-1.143Z" fill="#3a3a3a"/>
      <path id="Trazado_117107" data-name="Trazado 117107" d="M2387.725,3349.739v1.808h1.637v.871h-1.637v3.393c0,.78.22,1.222.858,1.222a2.555,2.555,0,0,0,.663-.078l.052.858a2.806,2.806,0,0,1-1.015.156,1.583,1.583,0,0,1-1.234-.481,2.333,2.333,0,0,1-.443-1.638v-3.432h-.974v-.871h.974v-1.508Z" fill="#3a3a3a"/>
      <path id="Trazado_117108" data-name="Trazado 117108" d="M2394.134,3357.839l-.092-.793H2394a2.341,2.341,0,0,1-1.924.935,1.792,1.792,0,0,1-1.924-1.806c0-1.522,1.352-2.354,3.783-2.34v-.13a1.3,1.3,0,0,0-1.43-1.456,3.136,3.136,0,0,0-1.638.468l-.26-.754a3.909,3.909,0,0,1,2.068-.56c1.924,0,2.391,1.314,2.391,2.575v2.353a8.843,8.843,0,0,0,.1,1.508Zm-.169-3.211c-1.248-.026-2.666.194-2.666,1.417a1.012,1.012,0,0,0,1.079,1.092,1.564,1.564,0,0,0,1.521-1.053,1.194,1.194,0,0,0,.066-.364Z" fill="#3a3a3a"/>
      <path id="Trazado_117109" data-name="Trazado 117109" d="M2396.915,3348.608h1.144v9.231h-1.144Z" fill="#3a3a3a"/>
      <path id="Trazado_117110" data-name="Trazado 117110" d="M2317.72,3364.208v7.6c0,.559.013,1.2.052,1.625h-1.027l-.052-1.091h-.026a2.327,2.327,0,0,1-2.145,1.234c-1.521,0-2.691-1.286-2.691-3.2-.013-2.094,1.287-3.381,2.821-3.381a2.1,2.1,0,0,1,1.9.962h.026v-3.757Zm-1.144,5.5a2,2,0,0,0-.052-.48,1.682,1.682,0,0,0-1.651-1.327c-1.183,0-1.885,1.04-1.885,2.431,0,1.274.624,2.327,1.859,2.327a1.72,1.72,0,0,0,1.677-1.365,1.976,1.976,0,0,0,.052-.493Z" fill="#3a3a3a"/>
      <path id="Trazado_117111" data-name="Trazado 117111" d="M2320.255,3370.5a2.017,2.017,0,0,0,2.158,2.185,4.129,4.129,0,0,0,1.742-.326l.2.82a5.123,5.123,0,0,1-2.094.389,2.921,2.921,0,0,1-3.094-3.172c0-1.9,1.118-3.393,2.951-3.393,2.054,0,2.6,1.808,2.6,2.965a4.305,4.305,0,0,1-.039.532Zm3.354-.818a1.628,1.628,0,0,0-1.586-1.86,1.9,1.9,0,0,0-1.755,1.86Z" fill="#3a3a3a"/>
      <path id="Trazado_117112" data-name="Trazado 117112" d="M2334.151,3371.723c0,.649.014,1.221.053,1.715h-1.015l-.064-1.027h-.026a2.368,2.368,0,0,1-2.08,1.17c-.989,0-2.171-.546-2.171-2.756v-3.679h1.143v3.485c0,1.195.364,2,1.405,2a1.612,1.612,0,0,0,1.612-1.625v-3.862h1.143Z" fill="#3a3a3a"/>
      <path id="Trazado_117113" data-name="Trazado 117113" d="M2336.05,3368.85c0-.651-.013-1.184-.052-1.7h1.014l.064,1.041h.027a2.312,2.312,0,0,1,2.08-1.184c.871,0,2.223.52,2.223,2.679v3.756h-1.144v-3.626c0-1.015-.377-1.86-1.456-1.86a1.628,1.628,0,0,0-1.535,1.17,1.676,1.676,0,0,0-.078.533v3.783h-1.143Z" fill="#3a3a3a"/>
      <path id="Trazado_117114" data-name="Trazado 117114" d="M2346.749,3373.438l-.092-.792h-.039a2.34,2.34,0,0,1-1.924.935,1.792,1.792,0,0,1-1.923-1.807c0-1.521,1.351-2.353,3.783-2.339v-.13a1.3,1.3,0,0,0-1.431-1.456,3.137,3.137,0,0,0-1.638.467l-.259-.753a3.9,3.9,0,0,1,2.067-.56c1.924,0,2.392,1.313,2.392,2.574v2.354a8.826,8.826,0,0,0,.1,1.507Zm-.169-3.21c-1.248-.027-2.666.194-2.666,1.417a1.012,1.012,0,0,0,1.079,1.091,1.565,1.565,0,0,0,1.522-1.052,1.2,1.2,0,0,0,.065-.365Z" fill="#3a3a3a"/>
      <path id="Trazado_117115" data-name="Trazado 117115" d="M2352.13,3372.269a3.009,3.009,0,0,0,1.508.455c.832,0,1.222-.416,1.222-.937,0-.546-.325-.845-1.17-1.156-1.131-.4-1.664-1.027-1.664-1.781A1.941,1.941,0,0,1,2354.2,3367a3.139,3.139,0,0,1,1.547.391l-.286.832a2.439,2.439,0,0,0-1.287-.365c-.676,0-1.053.39-1.053.859,0,.519.377.754,1.2,1.065,1.092.416,1.651.962,1.651,1.9,0,1.1-.858,1.884-2.353,1.884a3.6,3.6,0,0,1-1.768-.428Z" fill="#3a3a3a"/>
      <path id="Trazado_117116" data-name="Trazado 117116" d="M2358.708,3365.378a.709.709,0,0,1-1.417,0,.7.7,0,0,1,.716-.715A.679.679,0,0,1,2358.708,3365.378Zm-1.273,8.06v-6.292h1.143v6.292Z" fill="#3a3a3a"/>
      <path id="Trazado_117117" data-name="Trazado 117117" d="M2360.32,3372.269a3.011,3.011,0,0,0,1.508.455c.832,0,1.223-.416,1.223-.937,0-.546-.325-.845-1.17-1.156-1.132-.4-1.664-1.027-1.664-1.781a1.94,1.94,0,0,1,2.171-1.847,3.144,3.144,0,0,1,1.547.391l-.287.832a2.439,2.439,0,0,0-1.287-.365c-.675,0-1.052.39-1.052.859,0,.519.377.754,1.2,1.065,1.092.416,1.65.962,1.65,1.9,0,1.1-.857,1.884-2.352,1.884a3.6,3.6,0,0,1-1.769-.428Z" fill="#3a3a3a"/>
      <path id="Trazado_117118" data-name="Trazado 117118" d="M2369.108,3373.438l-.091-.792h-.039a2.344,2.344,0,0,1-1.924.935,1.792,1.792,0,0,1-1.924-1.807c0-1.521,1.351-2.353,3.783-2.339v-.13a1.3,1.3,0,0,0-1.431-1.456,3.132,3.132,0,0,0-1.637.467l-.26-.753a3.9,3.9,0,0,1,2.067-.56c1.924,0,2.392,1.313,2.392,2.574v2.354a8.851,8.851,0,0,0,.1,1.507Zm-.169-3.21c-1.248-.027-2.666.194-2.666,1.417a1.012,1.012,0,0,0,1.08,1.091,1.565,1.565,0,0,0,1.521-1.052,1.2,1.2,0,0,0,.065-.365Z" fill="#3a3a3a"/>
      <path id="Trazado_117119" data-name="Trazado 117119" d="M2378.131,3373.438l-.092-.792H2378a2.342,2.342,0,0,1-1.924.935,1.793,1.793,0,0,1-1.924-1.807c0-1.521,1.352-2.353,3.784-2.339v-.13a1.3,1.3,0,0,0-1.43-1.456,3.139,3.139,0,0,0-1.639.467l-.26-.753a3.908,3.908,0,0,1,2.068-.56c1.924,0,2.391,1.313,2.391,2.574v2.354a8.845,8.845,0,0,0,.1,1.507Zm-.17-3.21c-1.248-.027-2.665.194-2.665,1.417a1.012,1.012,0,0,0,1.079,1.091,1.564,1.564,0,0,0,1.521-1.052,1.171,1.171,0,0,0,.065-.365Z" fill="#3a3a3a"/>
      <path id="Trazado_117120" data-name="Trazado 117120" d="M2389.362,3370.24a3.075,3.075,0,0,1-3.133,3.341,2.991,2.991,0,0,1-3.016-3.236,3.073,3.073,0,0,1,3.12-3.342A2.98,2.98,0,0,1,2389.362,3370.24Zm-4.992.066c0,1.378.793,2.418,1.911,2.418,1.092,0,1.911-1.028,1.911-2.445,0-1.066-.533-2.418-1.885-2.418S2384.37,3369.109,2384.37,3370.306Z" fill="#3a3a3a"/>
      <path id="Trazado_117121" data-name="Trazado 117121" d="M2392.183,3365.339v1.807h1.637v.872h-1.637v3.392c0,.78.22,1.223.858,1.223a2.523,2.523,0,0,0,.662-.078l.053.857a2.79,2.79,0,0,1-1.015.156,1.586,1.586,0,0,1-1.234-.48,2.334,2.334,0,0,1-.443-1.639v-3.431h-.974v-.872h.974v-1.507Z" fill="#3a3a3a"/>
      <path id="Trazado_117122" data-name="Trazado 117122" d="M2395.107,3369.109c0-.741-.013-1.378-.051-1.963h1l.039,1.235h.051a1.889,1.889,0,0,1,1.743-1.378,1.292,1.292,0,0,1,.325.039v1.079a1.78,1.78,0,0,0-.391-.039,1.606,1.606,0,0,0-1.534,1.47,3.3,3.3,0,0,0-.052.532v3.354h-1.131Z" fill="#3a3a3a"/>
      <path id="Trazado_117123" data-name="Trazado 117123" d="M2402.778,3373.438l-.091-.792h-.04a2.339,2.339,0,0,1-1.923.935,1.792,1.792,0,0,1-1.924-1.807c0-1.521,1.351-2.353,3.783-2.339v-.13a1.3,1.3,0,0,0-1.431-1.456,3.132,3.132,0,0,0-1.637.467l-.26-.753a3.9,3.9,0,0,1,2.067-.56c1.924,0,2.392,1.313,2.392,2.574v2.354a8.826,8.826,0,0,0,.1,1.507Zm-.169-3.21c-1.248-.027-2.666.194-2.666,1.417a1.012,1.012,0,0,0,1.079,1.091,1.565,1.565,0,0,0,1.522-1.052,1.2,1.2,0,0,0,.065-.365Z" fill="#3a3a3a"/>
    </g>
    <g id="Grupo_61038" data-name="Grupo 61038">
      <path id="Trazado_117124" data-name="Trazado 117124" d="M2352.061,3622.383h-3.407v3.16h3.795v.949h-4.926v-8.763h4.731v.949h-3.6v2.769h3.407Z" fill="#3a3a3a"/>
      <path id="Trazado_117125" data-name="Trazado 117125" d="M2353.879,3617.262h1.144v9.23h-1.144Z" fill="#3a3a3a"/>
      <path id="Trazado_117126" data-name="Trazado 117126" d="M2359.652,3626.492c.026-.429.051-1.066.051-1.625v-7.6h1.131v3.951h.027a2.345,2.345,0,0,1,2.145-1.156c1.56,0,2.664,1.3,2.652,3.211,0,2.25-1.418,3.367-2.822,3.367a2.243,2.243,0,0,1-2.106-1.184h-.039l-.052,1.041Zm1.182-2.523a2.13,2.13,0,0,0,.053.416,1.764,1.764,0,0,0,1.715,1.34c1.2,0,1.912-.975,1.912-2.418,0-1.262-.651-2.34-1.873-2.34a1.822,1.822,0,0,0-1.741,1.4,2.172,2.172,0,0,0-.066.467Z" fill="#3a3a3a"/>
      <path id="Trazado_117127" data-name="Trazado 117127" d="M2370.584,3626.492l-.092-.793h-.039a2.337,2.337,0,0,1-1.924.936,1.793,1.793,0,0,1-1.924-1.807c0-1.521,1.352-2.353,3.784-2.34v-.131a1.3,1.3,0,0,0-1.43-1.455,3.15,3.15,0,0,0-1.639.467l-.259-.754a3.9,3.9,0,0,1,2.068-.558c1.924,0,2.391,1.312,2.391,2.574v2.353a8.872,8.872,0,0,0,.1,1.508Zm-.17-3.211c-1.248-.027-2.664.194-2.664,1.416a1.012,1.012,0,0,0,1.078,1.092,1.565,1.565,0,0,0,1.522-1.053,1.193,1.193,0,0,0,.064-.363Z" fill="#3a3a3a"/>
      <path id="Trazado_117128" data-name="Trazado 117128" d="M2371.832,3628.313a1.859,1.859,0,0,0,1.248-.483c.313-.363.43-.857.43-2.365V3620.2h1.144v5.707a3.451,3.451,0,0,1-.754,2.588,2.908,2.908,0,0,1-1.951.715Zm2.951-9.881a.67.67,0,0,1-.715.7.681.681,0,0,1-.7-.7.7.7,0,0,1,.727-.715A.676.676,0,0,1,2374.783,3618.432Z" fill="#3a3a3a"/>
      <path id="Trazado_117129" data-name="Trazado 117129" d="M2382.219,3623.293a3.075,3.075,0,0,1-3.133,3.342,2.991,2.991,0,0,1-3.016-3.237,3.071,3.071,0,0,1,3.119-3.341A2.979,2.979,0,0,1,2382.219,3623.293Zm-4.992.066c0,1.377.793,2.418,1.912,2.418,1.091,0,1.91-1.027,1.91-2.445,0-1.066-.533-2.418-1.885-2.418S2377.227,3622.162,2377.227,3623.359Z" fill="#3a3a3a"/>
      <path id="Trazado_117130" data-name="Trazado 117130" d="M2390.9,3626.258a4.227,4.227,0,0,1-1.808.363,2.99,2.99,0,0,1-3.133-3.211,3.2,3.2,0,0,1,3.381-3.34,3.812,3.812,0,0,1,1.586.325l-.26.884a2.656,2.656,0,0,0-1.326-.3,2.372,2.372,0,0,0-.039,4.732,3.254,3.254,0,0,0,1.4-.311Z" fill="#3a3a3a"/>
      <path id="Trazado_117131" data-name="Trazado 117131" d="M2395.727,3626.492l-.092-.793h-.039a2.346,2.346,0,0,1-1.924.936,1.793,1.793,0,0,1-1.924-1.807c0-1.521,1.352-2.353,3.783-2.34v-.131a1.3,1.3,0,0,0-1.431-1.455,3.142,3.142,0,0,0-1.637.467l-.26-.754a3.906,3.906,0,0,1,2.067-.558c1.923,0,2.392,1.312,2.392,2.574v2.353a8.853,8.853,0,0,0,.1,1.508Zm-.17-3.211c-1.248-.027-2.666.194-2.666,1.416a1.012,1.012,0,0,0,1.08,1.092,1.564,1.564,0,0,0,1.521-1.053,1.187,1.187,0,0,0,.065-.363Z" fill="#3a3a3a"/>
      <path id="Trazado_117132" data-name="Trazado 117132" d="M2399.145,3623.553a2.015,2.015,0,0,0,2.158,2.185,4.129,4.129,0,0,0,1.742-.326l.2.82a5.1,5.1,0,0,1-2.094.389,2.922,2.922,0,0,1-3.093-3.172c0-1.9,1.119-3.392,2.951-3.392,2.055,0,2.6,1.806,2.6,2.964a4.067,4.067,0,0,1-.04.532Zm3.355-.819a1.629,1.629,0,0,0-1.586-1.859,1.9,1.9,0,0,0-1.756,1.859Z" fill="#3a3a3a"/>
      <path id="Trazado_117133" data-name="Trazado 117133" d="M2347.484,3637.762c0-.741-.013-1.377-.052-1.963h1l.039,1.234h.05a1.89,1.89,0,0,1,1.743-1.377,1.267,1.267,0,0,1,.324.039v1.078a1.762,1.762,0,0,0-.389-.039,1.607,1.607,0,0,0-1.535,1.471,3.319,3.319,0,0,0-.051.531v3.356h-1.131Z" fill="#3a3a3a"/>
      <path id="Trazado_117134" data-name="Trazado 117134" d="M2352.242,3639.152a2.016,2.016,0,0,0,2.158,2.186,4.158,4.158,0,0,0,1.743-.326l.195.82a5.115,5.115,0,0,1-2.094.389,2.922,2.922,0,0,1-3.094-3.172c0-1.9,1.118-3.393,2.952-3.393,2.052,0,2.6,1.807,2.6,2.965a4.1,4.1,0,0,1-.039.531Zm3.354-.818a1.628,1.628,0,0,0-1.586-1.859,1.9,1.9,0,0,0-1.756,1.859Z" fill="#3a3a3a"/>
      <path id="Trazado_117135" data-name="Trazado 117135" d="M2362.6,3641.857a4.213,4.213,0,0,1-1.809.364,2.99,2.99,0,0,1-3.133-3.211,3.2,3.2,0,0,1,3.381-3.34,3.83,3.83,0,0,1,1.586.324l-.26.885a2.652,2.652,0,0,0-1.326-.3,2.373,2.373,0,0,0-.039,4.733,3.254,3.254,0,0,0,1.4-.311Z" fill="#3a3a3a"/>
      <path id="Trazado_117136" data-name="Trazado 117136" d="M2365.488,3633.992v1.807h1.639v.871h-1.639v3.393c0,.781.221,1.222.86,1.222a2.541,2.541,0,0,0,.662-.078l.053.857a2.79,2.79,0,0,1-1.016.157,1.583,1.583,0,0,1-1.234-.481,2.329,2.329,0,0,1-.442-1.638v-3.432h-.975v-.871h.975v-1.508Z" fill="#3a3a3a"/>
      <path id="Trazado_117137" data-name="Trazado 117137" d="M2374.029,3638.893a3.074,3.074,0,0,1-3.133,3.341,2.99,2.99,0,0,1-3.015-3.236,3.072,3.072,0,0,1,3.119-3.342A2.98,2.98,0,0,1,2374.029,3638.893Zm-4.992.066c0,1.377.793,2.418,1.912,2.418,1.092,0,1.91-1.027,1.91-2.445,0-1.067-.533-2.418-1.884-2.418S2369.037,3637.762,2369.037,3638.959Z" fill="#3a3a3a"/>
    </g>
    <line id="Línea_521" data-name="Línea 521" x1="55.849" transform="translate(2278.944 3632.929)" fill="none" stroke="#706f6f" stroke-miterlimit="10" stroke-width="1"/>
    <line id="Línea_521-2" data-name="Línea 521" x1="10.864" y2="58.991" transform="translate(2294.537 3367.146)" fill="none" stroke="#706f6f" stroke-miterlimit="10" stroke-width="1"/>
  </g>
</svg>
