<svg xmlns="http://www.w3.org/2000/svg" xmlns:xlink="http://www.w3.org/1999/xlink" width="256" height="179" viewBox="0 0 256 179">
  <defs>
    <clipPath id="clip-path">
      <rect id="Rectángulo_7440" data-name="Rectángulo 7440" width="256" height="179" rx="9" transform="translate(981.354 1304.784)" fill="none"/>
    </clipPath>
  </defs>
  <g id="Grupo_60861" data-name="Grupo 60861" transform="translate(-981.354 -1304.784)">
    <rect id="Rectángulo_7440-2" data-name="Rectángulo 7440" width="256" height="179" rx="9" transform="translate(981.354 1304.784)" fill="#fff"/>
    <text id="Hilvanar_la_manga_en_la_sisa." data-name="Hilvanar la manga en la sisa." transform="translate(1082.631 1324.811)" font-size="12" font-family="MyriadPro-Regular, Myriad Pro"><tspan x="0" y="0">Hilvanar la manga en la sisa.</tspan></text>
    <g id="Grupo_60891" data-name="Grupo 60891">
      <g id="Grupo_60890" data-name="Grupo 60890" clip-path="url(#clip-path)">
        <g id="Grupo_60889" data-name="Grupo 60889">
          <g id="Grupo_60877" data-name="Grupo 60877">
            <g id="Grupo_60862" data-name="Grupo 60862">
              <g id="Grupo_60861-2" data-name="Grupo 60861">
                <path id="Trazado_116420" data-name="Trazado 116420" d="M1068.958,1341.277s29.685,17.842,31.067,21.711-2.056,47.127-2.056,47.127-5.855,2.156-9.649-2.282-6.054-33.257-6.054-33.257l-25.6-20.664Z" fill="#dd886b"/>
              </g>
            </g>
            <g id="Grupo_60864" data-name="Grupo 60864">
              <g id="Grupo_60863" data-name="Grupo 60863">
                <path id="Trazado_116421" data-name="Trazado 116421" d="M1063.336,1339.426s26.553,21.58,27.371,25.64-8.5,47.159-8.5,47.159-6.018,1.454-9.115-3.475-.8-33-.8-33l-23.78-24.063Z" fill="#dd886b"/>
              </g>
            </g>
            <g id="Grupo_60866" data-name="Grupo 60866">
              <g id="Grupo_60865" data-name="Grupo 60865">
                <path id="Trazado_116422" data-name="Trazado 116422" d="M1066.256,1346.355s13.463,15.007,13.9,18.91-10.41,42.882-10.41,42.882a7.808,7.808,0,0,1-7.606-4.485c-2.337-5.024,1.482-30.928,1.482-30.928l-11.247-14.758Z" fill="#dd886b"/>
              </g>
            </g>
            <g id="Grupo_60868" data-name="Grupo 60868">
              <g id="Grupo_60867" data-name="Grupo 60867">
                <path id="Trazado_116423" data-name="Trazado 116423" d="M1103.534,1388.466a3.431,3.431,0,0,0-.361-.386c-1.746-1.074-5.218-1.766-9.516-2.184a.394.394,0,0,1-.116,0c-12.934-1.279-33.127-.413-35.889-2.134-3.733-2.328-5-8.424.514-12.949,5.885-4.832,15.576-11.321,15.576-11.321l22.619,5.06s2.384,17.869,6.291,22.869c.03.051.067.076.1.127.144.169.6.683.849.951.2.068.372.128.535.172,5.969,1.994,6.927-.189,8.294-1.348a30.059,30.059,0,0,0,.57-8.306c-.02-.194-.024-.4-.028-.6-.554-11.115-2.983-24.122-5.271-26.921-3.516-4.287-34.5-17.883-39.279-19.328-4.763-1.456-56.466,26.135-56.466,26.135l-94.392,7.166-15.075,57.821s110.852-17.847,116.662-15.692c10.659,4,25.846,4.656,33.27,1.728,10.328-4.085,29.594-7.3,41.6-9.794,2.869-.586,5.322-1.137,7.139-1.641a20.848,20.848,0,0,0,2.16-.7,5.854,5.854,0,0,0,.846-.4C1105.832,1395.751,1105.847,1391.388,1103.534,1388.466Z" fill="#ffa780"/>
              </g>
            </g>
            <g id="Grupo_60870" data-name="Grupo 60870">
              <g id="Grupo_60869" data-name="Grupo 60869">
                <path id="Trazado_116424" data-name="Trazado 116424" d="M1104.132,1388.967a3.922,3.922,0,0,0-.812-.77A10.3,10.3,0,0,0,1104.132,1388.967Z" fill="#ffa780"/>
              </g>
            </g>
            <g id="Grupo_60872" data-name="Grupo 60872">
              <g id="Grupo_60871" data-name="Grupo 60871">
                <path id="Trazado_116425" data-name="Trazado 116425" d="M1112.427,1387.321a5.725,5.725,0,0,1-2.537-7.421l3.107-.885A30.059,30.059,0,0,1,1112.427,1387.321Z" fill="#f2d1c2"/>
              </g>
            </g>
            <path id="Trazado_116426" data-name="Trazado 116426" d="M1232.284,1444.558s-89.664-51.608-99.6-61.39-32.459,13.485-29.64,2.825c0,0-16.76,3.42-27.373,18.53,0,0-110.652,4.5-110.429,9.143,0,0,2.943,89.165,6.33,93.8s45.629-5.551,55.074,1.011c3.933,2.732,18.006-10.462,20.716-7.579,2.024,2.153,10.789-8.215,10.62-5.621-.083,1.278,19.118-1.5,22.189,3.289,1.085,1.693,32.02,4.735,35.149,7.384s100.508,8.749,105.6,6.821C1240.254,1505.447,1228.031,1451.187,1232.284,1444.558Z" fill="#dcd0c9" style="isolation: isolate"/>
            <g id="Grupo_60874" data-name="Grupo 60874">
              <g id="Grupo_60873" data-name="Grupo 60873">
                <path id="Trazado_116427" data-name="Trazado 116427" d="M1104.116,1397.021c-.051.029-.356.137-.859.337-.061.013-.13.053-.208.075-.341.083-.963.237-1.795.422-1.822.414-4.391.964-7.339,1.573-7.088,1.451-16.25,3.278-20.428,4.1,5.826-5.921,12.207-11.2,17.488-17.747.881.017,1.737.071,2.566.117a.394.394,0,0,0,.116,0c4.022.258,7.283.7,8.995,1.523.128.063.23.119.331.175a1.616,1.616,0,0,0,.175.1,4.834,4.834,0,0,0,.772.7,1.784,1.784,0,0,1,.2.272C1106.147,1391.352,1105.736,1396.059,1104.116,1397.021Z" fill="#ffa780"/>
              </g>
            </g>
            <g id="Grupo_60876" data-name="Grupo 60876">
              <g id="Grupo_60875" data-name="Grupo 60875">
                <path id="Trazado_116428" data-name="Trazado 116428" d="M1103.257,1397.358c-.061.013-.13.053-.208.075-.341.083-.963.237-1.795.422-1.913.536-4.366,1.087-7.235,1.673a.528.528,0,0,1-.1-.1,4.171,4.171,0,0,1-.946-1.514c-.884-2.513.716-5.366,3.595-6.37,2.869-1.021,5.918.167,6.8,2.68a4.245,4.245,0,0,1-.048,2.961A.865.865,0,0,1,1103.257,1397.358Z" fill="#f2d1c2"/>
              </g>
            </g>
            <path id="Trazado_116429" data-name="Trazado 116429" d="M1079.993,1497.785s39.274-19.713,47.354-8.365c3.823,5.369,3.95,9.549,3.412,12.371C1130.346,1503.952,1128.988,1511.965,1079.993,1497.785Z" fill="#c1b2aa" style="isolation: isolate"/>
          </g>
          <g id="Grupo_60888" data-name="Grupo 60888">
            <g id="Grupo_60878" data-name="Grupo 60878">
              <path id="Trazado_116430" data-name="Trazado 116430" d="M1184.739,1370.921s-29.132-3.775-32.088-1.931-23.456,32.412-23.456,32.412,2.756,4.517,7.617,3.565,21.541-18.919,21.541-18.919l27.9-.252Z" fill="#dd886b"/>
            </g>
            <g id="Grupo_60879" data-name="Grupo 60879">
              <path id="Trazado_116431" data-name="Trazado 116431" d="M1189.451,1372.652s-29.017.359-31.7,2.628-19.188,35.828-19.188,35.828,3.236,4.137,7.89,2.491,17.918-21.517,17.918-21.517l28.483-3.471Z" fill="#dd886b"/>
            </g>
            <g id="Grupo_60880" data-name="Grupo 60880">
              <path id="Trazado_116432" data-name="Trazado 116432" d="M1183.86,1375.72s-16.853,2.885-19.2,5.25-15.666,33.99-15.666,33.99a6.622,6.622,0,0,0,7.418,1.025c4.2-2.109,15.306-21.341,15.306-21.341l15.25-3.886Z" fill="#dd886b"/>
            </g>
            <g id="Grupo_60881" data-name="Grupo 60881">
              <path id="Trazado_116433" data-name="Trazado 116433" d="M1219.922,1414.661s-20.56-45.237-24.493-46.785c-3.951-1.552-36.033-13.851-40.626-12.856-3,.651-12.662,10.319-18.885,17.411-3.152,3.595-5.425,6.527-5.491,7.288a5.5,5.5,0,0,0,5.785,4.371c-3.066.724-5.715,5.428-5.155,6.982,1.465,4.041,25.22,24.593,28.113,35.677,1.721,6.538,19.821,17.676,29.015,20.643,5,1.615,62.987,71.415,62.987,71.415l42.162-38.2Zm-43.4-17.483c1.276,5.906-.761,10.386-4.462,9.972-3.682-.409-27.8-22.381-34.707-23.134a.525.525,0,0,0-.117-.007c.223-.028.45-.074.677-.121,5.172-1.118,18.775-11.852,18.775-11.852l17.516,8.832S1175.15,1390.868,1176.519,1397.178Z" fill="#ffa780"/>
            </g>
            <g id="Grupo_60882" data-name="Grupo 60882">
              <path id="Trazado_116434" data-name="Trazado 116434" d="M1136.237,1384.1a3.319,3.319,0,0,1,.946-.084A8.751,8.751,0,0,1,1136.237,1384.1Z" fill="#ffa780"/>
            </g>
            <g id="Grupo_60884" data-name="Grupo 60884">
              <g id="Grupo_60883" data-name="Grupo 60883">
                <path id="Trazado_116435" data-name="Trazado 116435" d="M1218.836,1507.892c-.312.2-1.051.277-2.73-.846-2.438-1.633-5.968-5.169-10.488-10.509-5.147-6.078-6.226-9.971-7.269-13.735-1.2-4.343-2.341-8.447-9.3-15.848-7.417-7.888-12.911-17.283-17.758-25.573-3.861-6.6-7.193-12.3-10.719-15.96-7.134-7.406-8.238-13.594-9.768-22.159-.215-1.209-.439-2.465-.691-3.779-2.086-10.91-3.606-14.371-7.071-16.107-1.245-.626-2.329,1.491-2.34,1.511l-.787-.4c.511-1.011,1.9-2.712,3.52-1.9,4.137,2.071,5.612,6.628,7.543,16.73.252,1.317.478,2.577.693,3.789,1.5,8.412,2.588,14.49,9.536,21.7,3.6,3.737,6.956,9.478,10.843,16.127,4.824,8.248,10.292,17.6,17.64,25.414,7.108,7.56,8.328,11.961,9.507,16.216,1.065,3.842,2.071,7.471,7.092,13.4,9.839,11.62,12.038,11.176,12.128,11.151l.488.722A.529.529,0,0,1,1218.836,1507.892Z" fill="#45b7fe"/>
              </g>
            </g>
            <g id="Grupo_60885" data-name="Grupo 60885">
              <path id="Trazado_116436" data-name="Trazado 116436" d="M1135.918,1372.431a5.19,5.19,0,0,1-1.788,6.66,4.943,4.943,0,0,1-3.7.628C1130.493,1378.958,1132.766,1376.026,1135.918,1372.431Z" fill="#f2d1c2"/>
            </g>
            <path id="Trazado_116437" data-name="Trazado 116437" d="M1141.16,1383.686a1.041,1.041,0,0,0-1.464.258l-16.071,23.541.843.358,16.921-22.688A1.042,1.042,0,0,0,1141.16,1383.686Zm-.438,1.487-1.357,1.588a.331.331,0,0,1-.536-.384l1.066-1.8a.511.511,0,1,1,.827.593Z" fill="#ffe8c2"/>
            <g id="Grupo_60886" data-name="Grupo 60886">
              <path id="Trazado_116438" data-name="Trazado 116438" d="M1146.663,1388.907c-.226,7.313,1.068,14.294,1.587,21.443-4.008-4.574-8.372-9.052-11.7-12.6a49.405,49.405,0,0,1-5.211-6.107,3.857,3.857,0,0,1-.281-.575c-.578-1.558,2.1-6.265,5.174-6.978a6.274,6.274,0,0,0,.954-.087,1.174,1.174,0,0,0,.165.009C1139.326,1384.231,1142.739,1386.2,1146.663,1388.907Z" fill="#ffa780"/>
            </g>
            <g id="Grupo_60887" data-name="Grupo 60887">
              <path id="Trazado_116439" data-name="Trazado 116439" d="M1140.846,1389.711a5.273,5.273,0,0,1-1.464,7.3,4.871,4.871,0,0,1-2.833.738,49.405,49.405,0,0,1-5.211-6.107,5.041,5.041,0,0,1,2.3-3.78A5.269,5.269,0,0,1,1140.846,1389.711Z" fill="#f2d1c2"/>
            </g>
          </g>
          <path id="Trazado_116440" data-name="Trazado 116440" d="M1140.711,1403.728a12.5,12.5,0,0,0-2.374,3.64,85.605,85.605,0,0,1-16.372,22.333" fill="none" stroke="#c1b2aa" stroke-miterlimit="10" stroke-width="0.5" style="isolation: isolate"/>
          <path id="Trazado_116441" data-name="Trazado 116441" d="M995.176,1487.316a95,95,0,0,1,36.64-.057c4.947.967,9.856,2.335,14.894,2.489,9.281.285,18.116-3.534,26.9-6.553s18.543-5.266,27.2-1.916" fill="none" stroke="#c1b2aa" stroke-miterlimit="10" stroke-width="0.5" style="isolation: isolate"/>
          <path id="Trazado_116442" data-name="Trazado 116442" d="M1212.286,1495.861a24.553,24.553,0,0,1-7.556,4.72,32.061,32.061,0,0,1-9.3,1.368c-10.158.485-20.723.9-30.074-3.095-3.257-1.392-6.458-3.335-10-3.318-3.882.018-7.309,2.385-10.457,4.656" fill="none" stroke="#c1b2aa" stroke-miterlimit="10" stroke-width="0.5" style="isolation: isolate"/>
          <path id="Trazado_116443" data-name="Trazado 116443" d="M1039.344,1407.971c-3.445-1.519-7.075,1.391-10.648,2.578-3.679,1.223-7.773.586-11.462,1.779-3.423,1.107-6.2,3.692-9.583,4.915a26.076,26.076,0,0,1-7.651,1.135l-12.888.616" fill="none" stroke="#c1b2aa" stroke-miterlimit="10" stroke-width="0.5" style="isolation: isolate"/>
          <path id="Trazado_116444" data-name="Trazado 116444" d="M1053.533,1413.564a82.949,82.949,0,0,0,15.612-7.669,5.875,5.875,0,0,1,2.047-.956,6.793,6.793,0,0,1,2.656.317,17.851,17.851,0,0,0,15.77-4.145c1.527-1.4,2.991-3.16,5.044-3.424" fill="none" stroke="#c1b2aa" stroke-miterlimit="10" stroke-width="0.5" style="isolation: isolate"/>
          <path id="Trazado_116445" data-name="Trazado 116445" d="M1152.746,1425.91a14.792,14.792,0,0,0-2.766,7.636,3.857,3.857,0,0,0,.327,2.161,5.279,5.279,0,0,0,2.142,1.706c4.938,2.893,7.737,8.582,12.68,11.467a18.108,18.108,0,0,1,4.1,2.569c1.514,1.554,1.96,3.818,2.536,5.91a35.175,35.175,0,0,0,5.617,11.542" fill="none" stroke="#c1b2aa" stroke-miterlimit="10" stroke-width="0.5" style="isolation: isolate"/>
          <path id="Trazado_116446" data-name="Trazado 116446" d="M1074.1,1410.639c26.314-4.607,29.346-11.138,37.114-7.115s17.318,4.24,18.738,9.744,1.843,6.785,14.952,24.974,30.92,26.654,39.257,41.369" fill="none" stroke="#10afff" stroke-miterlimit="10" stroke-width="1" stroke-dasharray="20"/>
        </g>
      </g>
    </g>
    <line id="Línea_510" data-name="Línea 510" x1="29.179" y2="61.389" transform="translate(1114.078 1336.735)" fill="none" stroke="#706f6f" stroke-miterlimit="10" stroke-width="1"/>
  </g>
</svg>
