<svg xmlns="http://www.w3.org/2000/svg" width="292" height="329.818" viewBox="0 0 292 329.818">
  <g id="Grupo_69783" data-name="Grupo 69783" transform="translate(3387 -5263)">
    <g id="Grupo_61181" data-name="Grupo 61181" transform="translate(-6559.498 1938.289)">
      <rect id="Rectángulo_7597" data-name="Rectángulo 7597" width="292" height="329" rx="9" transform="translate(3172.498 3324.711)" fill="#fff"/>
      <g id="Grupo_61039" data-name="Grupo 61039">
        <path id="Trazado_117138" data-name="Trazado 117138" d="M3211.785,3571.75c46.573-5.99,147.09-4.081,188.424-11.626,7.174-59.022-14.392-122.5-22.247-163.911-67.17-.246-86.36-4.1-180.507,10.676C3206.721,3450.642,3204.208,3530.424,3211.785,3571.75Z" fill="#ffded7" fill-rule="evenodd"/>
        <path id="Trazado_117139" data-name="Trazado 117139" d="M3217.782,3564.973c12.207-1.46,24.687-2.151,36.94-2.748,16-.78,32.012-1.277,48.018-1.809,17.4-.578,34.832-1.15,52.217-2.169,7.476-.439,14.958-.961,22.413-1.691,5.354-.523,10.753-1.144,16.068-2.043a207.859,207.859,0,0,0,.885-32.3c-1.015-22.17-4.917-44.187-9.673-65.829-2.187-9.95-4.571-19.852-6.918-29.766-1.885-7.968-3.769-15.968-5.35-24.007-19.668-.109-39.362-.708-59.017-.577-15.238.1-30.3.837-45.478,2.226-21.011,1.924-42,4.872-62.85,8.118a309.689,309.689,0,0,1,4.243,32.964c1.178,13.786,1.9,27.625,2.575,41.445.718,14.7,1.344,29.411,2.341,44.092C3214.962,3542.153,3215.887,3553.786,3217.782,3564.973Z" fill="#dfcac5" fill-rule="evenodd"/>
        <path id="Trazado_117140" data-name="Trazado 117140" d="M3222.6,3564.436l.774-.079-.086-4.859,6.355-.112.078,4.386.773-.063-.076-4.337,6.355-.111.07,3.972.774-.052-.069-3.934,6.356-.111.064,3.651.774-.044-.064-3.621,6.355-.112.06,3.394.774-.039-.059-3.368,6.356-.112.055,3.174.774-.036-.055-3.151,6.355-.112.053,2.985.774-.032-.052-2.967,6.355-.111.05,2.825.774-.03-.049-2.809,6.355-.111.047,2.687.775-.028-.047-2.673,6.355-.112.045,2.564.774-.026-.044-2.551,6.355-.112.043,2.451.774-.025-.042-2.439,6.338-.112.041,2.341.791-.026-.04-2.329,6.338-.111.039,2.229.774-.026-.039-2.216,6.356-.112.037,2.112.774-.026-.036-2.1,6.355-.111.034,1.985.775-.029-.035-1.97,6.355-.111.033,1.839.774-.031-.032-1.822,6.355-.112.03,1.668.774-.034-.029-1.647,6.355-.112.026,1.464.774-.038-.025-1.439,6.355-.112.022,1.221.774-.043-.021-1.192,6.355-.111.017.931.774-.048-.016-.9,6.355-.111.01.58.774-.056-.009-.538,6.355-.112,0,.145.773-.067v-.091l1.286-.023q1.542-.14,3.082-.29.988-.1,1.98-.2h.015l.095-.01.1-.01.094-.01.1-.01.095-.01.095-.01.095-.01.093-.009q1.665-.172,3.334-.368l-3.34.059-.111-6.355,6.355-.112.106,6.04.773-.1-.1-5.952,6.355-.112.07,3.981q.205-1.993.369-3.989v-.014l.009-.122v-.009l.038-.476.01-.122,0-.033q.116-1.5.208-3.005l-.059-3.355.235,0,.033-.775-.282,0-.111-6.356.55-.009.006-.775-.57.01-.111-6.356.628-.011-.018-.774-.624.011-.112-6.356.491-.008-.041-.774-.463.008-.112-6.355.156,0-.061-.774-.108,0-.029-1.64q-.2-2.355-.445-4.709l0-.032-.015-.144-.015-.143-.015-.144-.014-.143-.016-.144,0-.024q-.195-1.854-.411-3.706l.065,3.712-6.355.112-.112-6.355,6.083-.107-.1-.773-6,.106-.112-6.356,5.243-.092-.114-.773-5.143.09-.111-6.355,4.264-.075-.128-.772-4.15.072-.111-6.34,3.162-.056-.141-.772-3.035.053-.111-6.356,1.946-.034-.152-.772-1.808.032-.111-6.356.633-.011-.162-.772-.485.009-.044-2.508q-.409-1.918-.83-3.834v0l-.013-.061-.083-.379-.073-.33-6.211.109-.112-6.355,4.9-.086-.176-.772-4.74.083-.112-6.355,3.387-.059-.18-.772-3.221.057-.111-6.356,1.839-.032-.183-.772-1.67.03-.111-6.356.279,0-.183-.771-.11,0-.009-.5-.124-.523-.713-3.019.071,4.058-6.355.112-.112-6.356,5.858-.1-.181-.772-5.69.1-.112-6.356,4.347-.076-.174-.772-4.186.074-.112-6.355,2.922-.052-.161-.772-2.775.049-.066-3.781-.775-.006.067,3.8-6.356.111-.069-3.975-.775-.009.07,4-6.356.111-.073-4.195-.775-.012.074,4.221-6.355.112-.078-4.43-.775-.012.078,4.455-6.356.112-.081-4.664-.775-.011.082,4.688-6.355.112-.086-4.885-.775-.009.086,4.908-6.355.111-.089-5.081-.776-.006.09,5.1-6.355.111-.092-5.239h-.775l.092,5.253-6.355.112-.094-5.346-.775.006.094,5.353-6.355.112-.094-5.375-.775.017.094,5.371-6.338.112-.093-5.311-.792.028.093,5.3-6.338.111-.09-5.151-.775.036.09,5.128-6.355.112-.086-4.9-.774.047.085,4.864-6.355.111-.079-4.547-.775.057.079,4.5-6.354.111-.073-4.1-.774.067.071,4.049-6.355.112-.062-3.567-.774.076.062,3.5-6.355.112-.052-2.955-.774.084.051,2.884-6.355.112-.04-2.275-.774.092.039,2.2-6.355.111-.027-1.532-.773.1.025,1.448-6.355.111-.013-.733-.773.1.011.644-5.412.095-.941.132-.032,0-.1.013-.1.014-.1.014-.1.014-.1.013-.1.014-.1.014-.06.008q-2.256.318-4.512.644l4.522-.079.111,6.355-6.355.112-.107-6.122-.774.113.106,6.022-6.355.112-.091-5.191-.773.117.089,5.087-6.355.112-.074-4.228-.773.12.068,3.86.046.261.012.071.015.083.014.083.014.084.015.083.014.082.015.084.014.083.014.083.006.036q.366,2.146.69,4.3l-.076-4.313,6.355-.112.111,6.355-6.092.107.109.773,6-.105.112,6.355-5.3.093.089.774,5.222-.092.112,6.355-4.658.082.076.774,4.595-.081.112,6.355-4.129.073.04.473.026.3,4.077-.072.111,6.355-3.68.065.058.774,3.636-.064.111,6.355-3.3.058.051.774,3.263-.057.112,6.355-2.978.052.046.774,2.945-.052.112,6.356-2.7.047.042.774,2.671-.047.112,6.356-2.452.043.039.774,2.427-.042.111,6.34-2.226.04.038.774,2.2-.039.111,6.355-2.009.036.037.774,1.986-.035.111,6.356-1.793.031.037.774,1.77-.031.112,6.355-1.568.028.039.774,1.542-.027.112,6.355-1.32.023.042.775,1.291-.023.112,6.355-1.038.018.047.774,1.005-.017.111,6.355-.71.012.035.526.017.248.672-.011.111,6.355-.33.006.059.774.285,0,.079,4.515q.078.918.161,1.838l.01.119.014.15.014.151.013.151.014.15.005.052q.291,3.175.639,6.347l.007.072.068.6v0l.011.1,6.345-.112.112,6.356-5.661.1.108.773,5.566-.1.087,4.925Zm.675-5.713-.112-6.355,6.355-.112.112,6.355-6.355.112Zm-.125-7.13-.112-6.355,6.355-.112.112,6.356-6.355.111Zm-.126-7.13-.111-6.355,6.355-.112.111,6.356-6.355.111Zm-.125-7.13-.111-6.355,6.355-.112.111,6.356-6.355.111Zm-.125-7.13-.111-6.355,6.355-.112.111,6.356-6.355.111Zm-.125-7.13-.112-6.355,6.355-.111.112,6.355-6.355.111Zm-.125-7.13-.112-6.355,6.355-.111.112,6.355-6.355.111Zm-.125-7.13-.112-6.355,6.355-.111.112,6.355-6.355.111Zm-.126-7.129-.111-6.356,6.355-.111.111,6.355-6.355.112Zm-.125-7.13-.111-6.356,6.355-.111.111,6.355-6.355.112Zm-.125-7.13-.111-6.341,6.355-.112.111,6.341-6.355.112Zm-.125-7.116-.112-6.355,6.355-.112.112,6.355-6.355.112Zm-.125-7.13-.112-6.355,6.355-.112.112,6.356-6.355.111Zm-.125-7.13-.112-6.355,6.355-.111.112,6.354-6.355.112Zm-.126-7.13-.111-6.355,6.355-.111.111,6.354-6.355.112Zm-.125-7.13-.111-6.355,6.355-.111.111,6.355-6.355.111Zm-.125-7.129-.112-6.356,6.355-.111.112,6.355-6.355.112Zm-.125-7.13-.112-6.356,6.355-.111.112,6.355-6.355.112Zm-.125-7.13-.112-6.356,6.355-.111.112,6.355-6.355.112Zm-.126-7.13-.111-6.356,6.355-.111.111,6.355-6.355.112Zm-.886-6.342.111,6.355-6.354.112-.112-6.356,6.355-.111Zm.125,7.13.112,6.355-6.355.112-.112-6.356,6.355-.111Zm.125,7.13.112,6.355-6.355.112-.112-6.356,6.355-.111Zm.125,7.13.112,6.355-6.355.112-.111-6.356,6.354-.111Zm.126,7.13.111,6.355-6.355.111-.111-6.355,6.355-.111Zm.125,7.13.111,6.355-6.354.111-.112-6.355,6.355-.111Zm.125,7.13.112,6.355-6.355.111-.112-6.355,6.355-.111Zm.125,7.129.112,6.356-6.355.111-.112-6.355,6.355-.112Zm.125,7.13.112,6.356-6.355.111-.111-6.355,6.354-.112Zm.126,7.13.111,6.341-6.355.112-.111-6.341,6.355-.112Zm.124,7.116.112,6.355-6.355.112-.111-6.356,6.354-.111Zm.126,7.13.111,6.355-6.354.112-.112-6.355,6.355-.112Zm.125,7.13.111,6.355-6.354.111-.112-6.355,6.355-.111Zm.125,7.13.112,6.355-6.355.111-.112-6.354,6.355-.112Zm.125,7.13.112,6.355-6.355.111-.111-6.355,6.354-.111Zm.125,7.129.112,6.356-6.355.111-.111-6.355,6.354-.112Zm.126,7.13.111,6.356-6.355.111-.111-6.355,6.355-.112Zm.125,7.13.111,6.356-6.354.111-.112-6.355,6.355-.112Zm.125,7.13.112,6.356-6.355.111-.112-6.355,6.355-.112Zm162.845-67.034.111,6.341-6.355.112-.111-6.341,6.355-.112Zm-7.13.125.111,6.341-6.355.112-.111-6.341,6.355-.112Zm-7.13.126.112,6.34-6.356.112-.111-6.341,6.355-.111Zm-7.13.125.112,6.341-6.356.111-.111-6.341,6.355-.111Zm-7.13.125.112,6.341-6.356.111-.111-6.34,6.355-.112Zm-7.13.125.112,6.341-6.356.112-.111-6.341,6.355-.112Zm-7.13.125.112,6.341-6.356.112-.111-6.341,6.355-.112Zm-7.13.126.112,6.34-6.355.112-.112-6.341,6.355-.111Zm-7.13.125.112,6.341-6.355.111-.111-6.341,6.354-.111Zm-7.129.125.111,6.341-6.355.111-.111-6.341,6.355-.111Zm-7.13.125.111,6.341-6.355.112-.111-6.341,6.355-.112Zm-7.13.125.111,6.341-6.338.112-.111-6.341,6.338-.112Zm-7.13.125.111,6.341-6.338.112-.111-6.341,6.338-.112Zm-7.113.125.111,6.341-6.355.112-.111-6.341,6.355-.112Zm-7.13.126.111,6.341-6.355.111-.111-6.341,6.355-.111Zm-7.13.125.111,6.341-6.355.111-.111-6.341,6.355-.111Zm-7.13.125.111,6.341-6.355.112-.111-6.341,6.355-.112Zm-7.13.125.112,6.341-6.355.112-.112-6.341,6.355-.112Zm-7.129.125.111,6.341-6.355.112-.112-6.341,6.356-.112Zm-7.13.126.111,6.341-6.355.111-.112-6.341,6.356-.111Zm-7.13.125.111,6.341-6.356.111-.111-6.341,6.356-.111Zm-7.13.125.111,6.341-6.355.112-.112-6.341,6.356-.112Zm-6.369-.663-.112-6.356,6.355-.111.112,6.355-6.355.112Zm7.13-.125-.112-6.356,6.355-.111.112,6.355-6.355.112Zm7.13-.126-.112-6.355,6.355-.111.112,6.355-6.355.111Zm7.13-.125-.112-6.355,6.355-.112.112,6.356-6.355.111Zm7.13-.125-.112-6.355,6.355-.112.112,6.356-6.355.111Zm7.129-.125-.111-6.355,6.355-.112.111,6.355-6.355.112Zm7.13-.125-.111-6.356,6.355-.111.111,6.355-6.355.112Zm7.13-.125-.111-6.356,6.355-.111.111,6.355-6.355.112Zm7.13-.126-.112-6.355,6.356-.112.111,6.356-6.355.111Zm7.13-.125-.112-6.355,6.339-.112.111,6.356-6.338.111Zm7.13-.125-.112-6.355,6.339-.112.111,6.356-6.338.111Zm7.113-.125-.112-6.355,6.356-.112.111,6.355-6.355.112Zm7.13-.125-.112-6.356,6.355-.111.112,6.355-6.355.112Zm7.13-.125-.112-6.356,6.355-.111.112,6.355-6.355.112Zm7.13-.126-.112-6.355,6.355-.112.112,6.356-6.355.111Zm7.129-.125-.111-6.355,6.355-.112.112,6.356-6.356.111Zm7.13-.125-.111-6.355,6.355-.112.112,6.355-6.356.112Zm7.13-.125-.111-6.356,6.355-.111.112,6.355-6.356.112Zm7.13-.125-.111-6.356,6.355-.111.112,6.355-6.356.112Zm7.13-.126-.111-6.355,6.355-.112.112,6.356-6.356.111Zm7.13-.125-.111-6.355,6.355-.112.111,6.356-6.355.111Zm7.13-.125-.111-6.355,6.355-.112.111,6.355-6.355.112Zm.6,78.429-6.355.111-.111-6.355,6.355-.112.111,6.356Zm-7.129.125-6.356.111-.111-6.355,6.355-.111.112,6.355Zm-7.13.125-6.356.112-.111-6.356,6.355-.111.112,6.355Zm-7.13.125-6.356.112-.111-6.355,6.355-.112.112,6.355Zm-7.13.125-6.356.112-.111-6.355,6.355-.112.112,6.355Zm-7.13.126-6.356.111-.111-6.355,6.355-.112.112,6.356Zm-7.13.125-6.355.111-.112-6.355,6.355-.111.112,6.355Zm-7.13.125-6.355.112-.112-6.356,6.355-.111.112,6.355Zm-7.13.125-6.355.112-.112-6.355,6.355-.112.112,6.355Zm-7.13.125-6.355.112-.112-6.355,6.356-.112.111,6.355Zm-7.13.126-6.338.111-.112-6.355,6.339-.112.111,6.356Zm-7.13.125-6.338.111-.112-6.355,6.339-.111.111,6.355Zm-7.113.125-6.355.111-.112-6.355,6.356-.112.111,6.356Zm-7.13.125-6.355.111-.111-6.355,6.355-.111.111,6.355Zm-7.13.125-6.355.112-.111-6.356,6.355-.111.111,6.355Zm-7.13.125-6.355.112-.111-6.355,6.355-.112.111,6.355Zm-7.129.125-6.355.112-.112-6.355,6.355-.112.112,6.355Zm-7.13.126-6.355.111-.112-6.355,6.355-.112.112,6.356Zm-7.13.125-6.356.111-.111-6.355,6.355-.111.112,6.355Zm-7.13.125-6.356.112-.111-6.356,6.355-.111.112,6.355Zm-7.13.125-6.356.112-.111-6.355,6.355-.112.112,6.355Zm156.716-9.884-6.355.112-.112-6.355,6.355-.112.112,6.355Zm-7.13.126-6.355.111-.112-6.355,6.355-.112.112,6.356Zm-7.13.125-6.355.111-.112-6.355,6.355-.112.112,6.356Zm-7.13.125-6.355.112-.112-6.356,6.356-.111.111,6.355Zm-7.13.125-6.355.112-.111-6.356,6.355-.111.111,6.355Zm-7.129.125-6.356.112-.111-6.355,6.355-.112.112,6.355Zm-7.13.126-6.356.111-.111-6.355,6.355-.112.112,6.356Zm-7.13.125-6.356.111-.111-6.355,6.355-.112.112,6.356Zm-7.13.125-6.355.112-.112-6.356,6.355-.111.112,6.355Zm-7.13.125-6.355.112-.112-6.356,6.355-.111.112,6.355Zm-7.13.125-6.355.112-.112-6.355,6.355-.112.112,6.355Zm-7.13.126-6.355.111-.112-6.355,6.356-.112.111,6.356Zm-7.13.125-6.338.111-.112-6.355,6.339-.112.111,6.356Zm-7.13.125-6.338.111-.112-6.355,6.339-.111.111,6.355Zm-7.113.125-6.355.111-.112-6.355,6.356-.112.111,6.356Zm-7.13.125-6.355.112-.111-6.356,6.355-.111.111,6.355Zm-7.13.125-6.355.112-.111-6.356,6.355-.111.111,6.355Zm-7.13.125-6.355.112-.111-6.355,6.355-.112.111,6.355Zm-7.129.126-6.356.111-.111-6.355,6.355-.112.112,6.356Zm-7.13.125-6.356.111-.111-6.355,6.355-.112.112,6.356Zm-7.13.125-6.356.112-.111-6.356,6.355-.111.112,6.355Zm-7.13.125-6.356.112-.111-6.356,6.355-.111.112,6.355Zm-7.13.125-6.356.112-.111-6.355,6.355-.112.112,6.355Zm156.716-9.884-6.355.112-.112-6.355,6.355-.112.112,6.355Zm-7.13.126-6.355.111-.112-6.355,6.355-.112.112,6.356Zm-7.13.125-6.355.111-.112-6.355,6.355-.112.112,6.356Zm-7.13.125-6.355.112-.112-6.356,6.356-.111.111,6.355Zm-7.13.125-6.355.112-.112-6.356,6.356-.111.111,6.355Zm-7.13.125-6.355.112-.112-6.355,6.356-.112.111,6.355Zm-7.13.126-6.355.111-.112-6.355,6.356-.112.111,6.356Zm-7.13.125-6.355.111-.112-6.355,6.356-.112.111,6.356Zm-7.13.125-6.355.112-.111-6.356,6.355-.111.111,6.355Zm-7.13.125-6.355.112-.111-6.356,6.355-.111.111,6.355Zm-7.129.125-6.355.112-.112-6.355,6.355-.112.112,6.355Zm-7.13.126-6.356.111-.111-6.355,6.355-.112.112,6.356Zm-7.13.125-6.338.111-.112-6.355,6.338-.112.112,6.356Zm-7.13.125-6.338.111-.112-6.355,6.338-.111.112,6.355Zm-7.113.125-6.355.111-.112-6.355,6.355-.112.112,6.356Zm-7.13.125-6.355.112-.112-6.356,6.355-.111.112,6.355Zm-7.13.125-6.355.112-.112-6.356,6.355-.111.112,6.355Zm-7.13.125-6.355.112-.112-6.355,6.355-.112.112,6.355Zm-7.13.126-6.355.111-.111-6.355,6.355-.112.111,6.356Zm-7.129.125-6.356.111-.111-6.355,6.355-.112.112,6.356Zm-7.131.125-6.355.112-.111-6.356,6.355-.111.111,6.355Zm-7.129.125-6.356.112-.112-6.356,6.356-.111.112,6.355Zm-7.131.125-6.355.112-.112-6.355,6.356-.112.111,6.355Zm156.717-9.884-6.355.112-.112-6.356,6.355-.111.112,6.355Zm-7.13.126-6.355.111-.112-6.355,6.355-.112.112,6.356Zm-7.13.125-6.355.111-.112-6.355,6.355-.112.112,6.356Zm-7.13.125-6.355.112-.112-6.356,6.355-.112.112,6.356Zm-7.13.125-6.355.112-.112-6.356,6.355-.111.112,6.355Zm-7.13.125-6.355.112-.112-6.356,6.356-.111.111,6.355Zm-7.13.126-6.355.111-.112-6.355,6.356-.112.111,6.356Zm-7.13.125-6.355.111-.112-6.355,6.356-.112.111,6.356Zm-7.13.125-6.355.112-.111-6.356,6.355-.112.111,6.356Zm-7.13.125-6.355.112-.111-6.356,6.355-.111.111,6.355Zm-7.13.125-6.355.112-.111-6.356,6.355-.111.111,6.355Zm-7.129.126-6.356.111-.111-6.355,6.355-.112.112,6.356Zm-7.13.125-6.339.111-.111-6.355,6.338-.112.112,6.356Zm-7.13.125-6.339.111-.111-6.355,6.338-.112.112,6.356Zm-7.113.125-6.356.111-.111-6.355,6.355-.112.112,6.356Zm-7.13.125-6.355.112-.112-6.356,6.355-.111.112,6.355Zm-7.13.125-6.355.112-.112-6.356,6.355-.111.112,6.355Zm-7.13.125-6.355.112-.112-6.355,6.355-.112.112,6.355Zm-7.13.126-6.355.111-.112-6.355,6.356-.112.111,6.356Zm-7.13.125-6.355.111-.112-6.355,6.356-.112.111,6.356Zm-7.13.125-6.355.112-.112-6.356,6.356-.111.111,6.355Zm-7.13.125-6.355.112-.112-6.356,6.356-.111.111,6.355Zm-7.13.125-6.355.112-.112-6.355,6.356-.112.111,6.355Zm156.716-9.884-6.355.112-.111-6.355,6.355-.112.111,6.355Zm-7.13.126-6.355.111-.111-6.355,6.355-.112.111,6.356Zm-7.13.125-6.355.111-.111-6.355,6.355-.112.111,6.356Zm-7.129.125-6.356.112-.111-6.356,6.355-.111.112,6.355Zm-7.13.125-6.355.112-.112-6.356,6.355-.111.112,6.355Zm-7.13.125-6.355.112-.112-6.355,6.355-.112.112,6.355Zm-7.13.126-6.355.111-.112-6.355,6.355-.112.112,6.356Zm-7.13.125-6.355.111-.112-6.355,6.355-.112.112,6.356Zm-7.13.125-6.355.111-.112-6.355,6.355-.111.112,6.355Zm-7.13.125-6.355.112-.112-6.356,6.355-.111.112,6.355Zm-7.13.125-6.355.112-.111-6.356,6.355-.111.111,6.355Zm-7.129.125-6.356.112-.111-6.355,6.355-.112.112,6.355Zm-7.13.126-6.339.111-.111-6.355,6.338-.112.112,6.356Zm-7.13.125-6.339.111-.111-6.355,6.338-.112.112,6.356Zm-7.113.125-6.356.111-.111-6.355,6.355-.112.112,6.356Zm-7.13.125-6.355.112-.112-6.356,6.355-.111.112,6.355Zm-7.13.125-6.355.112-.112-6.356,6.355-.111.112,6.355Zm-7.13.125-6.355.112-.112-6.355,6.355-.112.112,6.355Zm-7.13.126-6.355.111-.112-6.355,6.355-.112.112,6.356Zm-7.13.125-6.355.111-.112-6.355,6.356-.112.111,6.356Zm-7.13.125-6.355.112-.112-6.356,6.355-.111.112,6.355Zm-7.13.125-6.355.112-.112-6.356,6.356-.111.111,6.355Zm-7.13.125-6.355.112-.112-6.355,6.355-.112.112,6.355Zm156.716-9.884-6.355.112-.111-6.355,6.355-.112.111,6.355Zm-7.13.126-6.355.111-.111-6.355,6.355-.111.111,6.355Zm-7.13.125-6.355.111-.111-6.355,6.355-.111.111,6.355Zm-7.129.125-6.356.112-.111-6.355,6.355-.112.112,6.355Zm-7.13.125-6.356.112-.111-6.355,6.355-.112.112,6.355Zm-7.13.125-6.356.112-.111-6.355,6.355-.112.112,6.355Zm-7.13.126-6.356.111-.111-6.355,6.355-.111.112,6.355Zm-7.13.125-6.356.111-.111-6.355,6.355-.111.112,6.355Zm-7.13.125-6.355.112-.112-6.355,6.355-.112.112,6.355Zm-7.13.125-6.355.112-.112-6.355,6.355-.112.112,6.355Zm-7.13.125-6.355.112-.112-6.355,6.355-.112.112,6.355Zm-7.13.126-6.355.111-.112-6.355,6.356-.111.111,6.355Zm-7.13.125-6.338.111-.112-6.355,6.339-.111.111,6.355Zm-7.13.125-6.338.111-.112-6.355,6.339-.111.111,6.355Zm-7.113.125-6.355.111-.112-6.355,6.356-.111.111,6.355Zm-7.13.125-6.355.112-.111-6.355,6.355-.112.111,6.355Zm-7.13.125-6.355.112-.111-6.355,6.355-.112.111,6.355Zm-7.13.125-6.355.112-.111-6.355,6.355-.112.111,6.355Zm-7.129.126-6.355.111-.112-6.355,6.355-.111.112,6.355Zm-7.13.125-6.355.111-.112-6.355,6.355-.111.112,6.355Zm-7.13.125-6.355.112-.112-6.355,6.355-.112.112,6.355Zm-7.13.125-6.356.112-.111-6.355,6.355-.112.112,6.355Zm-7.13.125-6.356.112-.111-6.355,6.355-.112.112,6.355Zm156.716-9.884-6.355.112-.112-6.355,6.355-.111.112,6.354Zm-7.13.126-6.355.111-.111-6.355,6.355-.111.111,6.355Zm-7.13.125-6.355.111-.112-6.354,6.355-.112.112,6.355Zm-7.13.125-6.355.112-.112-6.355,6.356-.112.111,6.355Zm-7.13.125-6.355.112-.111-6.355,6.355-.112.111,6.355Zm-7.129.125-6.356.112-.111-6.355,6.355-.111.112,6.354Zm-7.13.126-6.356.111-.111-6.355,6.355-.111.112,6.355Zm-7.13.125-6.356.111-.111-6.354,6.355-.112.112,6.355Zm-7.13.125-6.355.112-.112-6.355,6.355-.112.112,6.355Zm-7.13.125-6.355.112-.112-6.355,6.355-.112.112,6.355Zm-7.13.125-6.355.112-.112-6.355,6.355-.111.112,6.354Zm-7.13.126-6.355.111-.112-6.355,6.356-.111.111,6.355Zm-7.13.125-6.338.111-.112-6.355,6.339-.111.111,6.355Zm-7.13.125-6.338.111-.112-6.355,6.339-.111.111,6.355Zm-7.113.125-6.355.112-.112-6.355,6.356-.112.111,6.355Zm-7.13.125-6.355.112-.111-6.355,6.355-.112.111,6.355Zm-7.13.125-6.355.112-.111-6.355,6.355-.112.111,6.355Zm-7.13.126-6.355.111-.111-6.355,6.355-.111.111,6.355Zm-7.129.125-6.356.111-.111-6.355,6.355-.111.112,6.355Zm-7.13.125-6.356.111-.111-6.354,6.355-.112.112,6.355Zm-7.13.125-6.356.112-.111-6.355,6.355-.112.112,6.355Zm-7.13.125-6.356.112-.111-6.355,6.355-.112.112,6.355Zm-7.13.125-6.356.112-.111-6.355,6.355-.111.112,6.354Zm149.586-9.758-6.355.111-.112-6.355,6.355-.111.112,6.355Zm-7.13.125-6.355.111-.112-6.355,6.355-.111.112,6.355Zm-7.13.125-6.355.112-.112-6.355,6.356-.112.111,6.355Zm-7.13.125-6.355.112-.112-6.355,6.356-.112.111,6.355Zm-7.13.125-6.355.112-.112-6.355,6.356-.112.111,6.355Zm-7.13.126-6.355.111-.112-6.355,6.356-.111.111,6.355Zm-7.13.125-6.355.111-.112-6.355,6.356-.111.111,6.355Zm-7.13.125-6.355.112-.111-6.355,6.355-.112.111,6.355Zm-7.13.125-6.355.112-.111-6.355,6.355-.112.111,6.355Zm-7.129.125-6.355.112-.112-6.355,6.355-.112.112,6.355Zm-7.13.126-6.355.111-.112-6.355,6.355-.111.112,6.355Zm-7.13.125-6.338.111-.112-6.355,6.338-.111.112,6.355Zm-7.13.125-6.338.111-.112-6.355,6.338-.111.112,6.355Zm-7.113.125-6.355.111-.112-6.354,6.355-.112.112,6.355Zm-7.13.125-6.355.112-.112-6.355,6.355-.112.112,6.355Zm-7.13.125-6.355.112-.112-6.355,6.355-.112.112,6.355Zm-7.13.125-6.355.112-.112-6.355,6.355-.111.112,6.354Zm-7.13.126-6.355.111-.111-6.355,6.355-.111.111,6.355Zm-7.129.125-6.356.111-.111-6.354,6.355-.112.112,6.355Zm-7.13.125-6.356.112-.111-6.355,6.355-.112.112,6.355Zm-7.13.125-6.356.112-.112-6.355,6.356-.112.112,6.355Zm-7.131.125-6.355.112-.111-6.355,6.355-.111.111,6.354Zm149.587-9.758-6.355.112-.112-6.356,6.355-.111.112,6.355Zm-7.13.125-6.355.112-.112-6.355,6.355-.112.112,6.355Zm-7.13.126-6.355.111-.112-6.355,6.355-.112.112,6.356Zm-7.13.125-6.355.111-.112-6.355,6.356-.112.111,6.356Zm-7.13.125-6.355.111-.112-6.355,6.356-.111.111,6.355Zm-7.13.125-6.355.112-.112-6.356,6.356-.111.111,6.355Zm-7.13.125-6.355.112-.112-6.356,6.356-.111.111,6.355Zm-7.13.125-6.355.112-.111-6.355,6.355-.112.111,6.355Zm-7.13.126-6.355.111-.111-6.355,6.355-.112.111,6.356Zm-7.13.125-6.355.111-.111-6.355,6.355-.112.111,6.356Zm-7.129.125-6.356.112-.111-6.356,6.355-.111.112,6.355Zm-7.13.125-6.339.112-.111-6.356,6.338-.111.112,6.355Zm-7.13.125-6.339.112-.111-6.356,6.338-.111.112,6.355Zm-7.113.125-6.356.112-.111-6.355,6.355-.112.112,6.355Zm-7.13.126-6.355.111-.112-6.355,6.355-.112.112,6.356Zm-7.13.125-6.355.111-.112-6.355,6.355-.112.112,6.356Zm-7.13.125-6.355.112-.112-6.356,6.355-.111.112,6.355Zm-7.13.125-6.355.112-.112-6.356,6.356-.111.111,6.355Zm-7.13.125-6.355.112-.112-6.355,6.356-.112.111,6.355Zm-7.13.126-6.355.111-.112-6.355,6.356-.112.111,6.356Zm-7.13.125-6.355.111-.112-6.355,6.356-.112.111,6.356Zm-7.13.125-6.355.112-.112-6.356,6.356-.111.111,6.355Zm149.587-9.759-6.355.112-.112-6.356,6.355-.111.112,6.355Zm-7.131.125-6.355.112-.111-6.356,6.355-.111.111,6.355Zm-7.129.125-6.356.112-.111-6.355,6.355-.112.112,6.355Zm-7.13.126-6.355.111-.112-6.355,6.355-.112.112,6.356Zm-7.13.125-6.355.111-.112-6.355,6.355-.112.112,6.356Zm-7.13.125-6.355.112-.112-6.356,6.355-.111.112,6.355Zm-7.13.125-6.355.112-.112-6.356,6.355-.111.112,6.355Zm-7.13.125-6.355.112-.112-6.355,6.355-.112.112,6.355Zm-7.13.126-6.355.111-.112-6.355,6.355-.112.112,6.356Zm-7.13.125-6.355.111-.111-6.355,6.355-.112.111,6.356Zm-7.129.125-6.356.112-.111-6.356,6.355-.111.112,6.355Zm-7.13.125-6.339.112-.111-6.356,6.338-.111.112,6.355Zm-7.13.125-6.339.112-.111-6.356,6.338-.111.112,6.355Zm-7.113.125-6.356.112-.111-6.355,6.355-.112.112,6.355Zm-7.13.126-6.355.111-.112-6.355,6.355-.112.112,6.356Zm-7.13.125-6.355.111-.112-6.355,6.355-.112.112,6.356Zm-7.13.125-6.355.111-.112-6.355,6.355-.111.112,6.355Zm-7.13.125-6.355.112-.112-6.356,6.355-.111.112,6.355Zm-7.13.125-6.355.112-.112-6.356,6.356-.111.111,6.355Zm-7.13.125-6.355.112-.112-6.355,6.356-.112.111,6.355Zm-7.13.126-6.355.111-.112-6.355,6.356-.112.111,6.356Zm-7.13.125-6.355.111-.112-6.355,6.356-.112.111,6.356Zm149.336-24-6.355.111-.111-6.355,6.355-.112.111,6.356Zm-7.13.125-6.355.111-.111-6.355,6.355-.112.111,6.356Zm-7.129.125-6.356.111-.111-6.355,6.355-.112.112,6.356Zm-7.13.125-6.356.112-.111-6.356,6.355-.111.112,6.355Zm-7.13.125-6.356.112-.111-6.356,6.355-.111.112,6.355Zm-7.13.125-6.356.112-.111-6.355,6.355-.112.112,6.355Zm-7.13.126-6.356.111-.111-6.355,6.355-.112.112,6.356Zm-7.13.125-6.355.111-.112-6.355,6.355-.112.112,6.356Zm-7.13.125-6.355.112-.112-6.356,6.355-.111.112,6.355Zm-7.13.125-6.355.112-.112-6.356,6.355-.111.112,6.355Zm-7.13.125-6.355.112-.112-6.355,6.356-.112.111,6.355Zm-7.13.126-6.338.111-.112-6.356,6.339-.111.111,6.356Zm-7.13.125-6.338.111-.112-6.355,6.339-.112.111,6.356Zm-7.113.125-6.355.111-.112-6.355,6.356-.112.111,6.356Zm-7.13.125-6.355.112-.111-6.356,6.355-.112.111,6.356Zm-7.13.125-6.355.112-.111-6.356,6.355-.111.111,6.355Zm-7.13.125-6.355.112-.111-6.356,6.355-.111.111,6.355Zm-7.129.126-6.356.111-.111-6.355,6.355-.112.112,6.356Zm-7.13.125-6.356.111-.111-6.355,6.355-.112.112,6.356Zm-7.13.125-6.356.112-.111-6.356,6.355-.112.112,6.356Zm-7.13.125-6.356.112-.111-6.356,6.355-.111.112,6.355Zm-7.13.125-6.356.112-.111-6.356,6.355-.111.112,6.355Zm149.586-9.759-6.355.112-.112-6.355,6.355-.111.112,6.354Zm-7.13.126-6.355.111-.112-6.355,6.355-.111.112,6.355Zm-7.13.125-6.355.111-.112-6.354,6.356-.112.111,6.355Zm-7.13.125-6.355.112-.112-6.355,6.356-.112.111,6.355Zm-7.13.125-6.355.112-.112-6.355,6.356-.112.111,6.355Zm-7.13.125-6.355.112-.112-6.355,6.356-.111.111,6.354Zm-7.13.126-6.355.111-.112-6.355,6.356-.111.111,6.355Zm-7.13.125-6.355.111-.111-6.354,6.355-.112.111,6.355Zm-7.13.125-6.354.112-.112-6.355,6.355-.112.111,6.355Zm-7.129.125-6.355.112-.112-6.355,6.355-.112.112,6.355Zm-7.13.125-6.355.112-.112-6.355,6.355-.112.112,6.355Zm-7.13.126-6.338.111-.112-6.355,6.338-.111.112,6.355Zm-7.13.125-6.338.111-.112-6.355,6.338-.111.112,6.355Zm-7.113.125-6.355.111-.112-6.355,6.355-.111.112,6.355Zm-7.13.125-6.355.111-.112-6.354,6.355-.112.112,6.355Zm-7.13.125-6.355.112-.111-6.355,6.354-.112.112,6.355Zm-7.13.125-6.355.112-.112-6.355,6.355-.112.112,6.355Zm-7.13.125-6.355.112-.111-6.355,6.355-.111.111,6.354Zm-7.129.126-6.356.111-.111-6.355,6.355-.111.112,6.355Zm-7.13.125-6.356.111-.111-6.354,6.355-.112.112,6.355Zm-7.13.125-6.356.112-.111-6.355,6.355-.112.112,6.355Zm-7.13.125-6.356.112-.111-6.355,6.355-.112.112,6.355Zm142.456-9.633-6.355.111-.112-6.355,6.355-.111.112,6.355Zm-7.13.125-6.355.111-.112-6.354,6.356-.112.111,6.355Zm-7.13.125-6.355.112-.112-6.355,6.356-.112.111,6.355Zm-7.13.125-6.355.112-.112-6.355,6.356-.112.111,6.355Zm-7.13.125-6.355.112-.112-6.355,6.356-.111.111,6.354Zm-7.13.126-6.355.111-.112-6.355,6.356-.111.111,6.355Zm-7.13.125-6.355.111-.111-6.354,6.355-.112.111,6.355Zm-7.13.125-6.355.112-.111-6.355,6.355-.112.111,6.355Zm-7.13.125-6.355.112-.111-6.355,6.355-.112.111,6.355Zm-7.129.125-6.356.112-.111-6.355,6.355-.111.112,6.354Zm-7.13.126-6.339.111-.111-6.355,6.338-.111.112,6.355Zm-7.13.125-6.339.111-.111-6.355,6.338-.111.112,6.355Zm-7.113.125-6.356.111-.111-6.355,6.355-.111.112,6.355Zm-7.13.125-6.355.112-.112-6.355,6.355-.112.112,6.355Zm-7.13.125-6.355.112-.112-6.355,6.355-.112.112,6.355Zm-7.13.125-6.355.112-.112-6.355,6.355-.112.112,6.355Zm-7.13.126-6.355.111-.112-6.355,6.356-.111.111,6.355Zm-7.13.125-6.355.111-.112-6.355,6.356-.111.111,6.355Zm-7.13.125-6.355.112-.112-6.355,6.356-.112.111,6.355Zm-7.13.125-6.355.112-.112-6.355,6.356-.112.111,6.355Zm-7.13.125-6.355.112-.112-6.355,6.356-.112.111,6.355Zm142.457-9.633-6.355.111L3371,3442.8l6.355-.111.112,6.355Zm-7.13.125-6.355.112-.112-6.355,6.355-.112.112,6.355Zm-7.13.125-6.355.112-.112-6.355,6.355-.112.112,6.355Zm-7.13.125-6.355.112-.112-6.355,6.356-.112.111,6.355Zm-7.13.126-6.355.111-.112-6.355,6.355-.111.112,6.355Zm-7.13.125-6.355.111-.112-6.355,6.355-.111.112,6.355Zm-7.13.125-6.355.112-.111-6.355,6.354-.112.112,6.355Zm-7.13.125-6.355.112-.111-6.355,6.354-.112.112,6.355Zm-7.13.125-6.355.112-.111-6.355,6.355-.112.111,6.355Zm-7.129.126-6.356.111-.111-6.355,6.355-.111.112,6.355Zm-7.13.125-6.339.111-.111-6.355,6.338-.111.112,6.355Zm-7.13.125-6.339.111-.111-6.355,6.338-.111.112,6.355Zm-7.113.125-6.356.111-.111-6.354,6.355-.112.112,6.355Zm-7.13.125-6.355.112-.112-6.355,6.355-.112.112,6.355Zm-7.13.125-6.355.112-.112-6.355,6.355-.112.112,6.355Zm-7.13.125-6.355.112-.112-6.355,6.355-.111.112,6.354Zm-7.13.126-6.355.111-.112-6.355,6.355-.111.112,6.355Zm-7.13.125-6.355.111-.112-6.355,6.356-.111.111,6.355Zm-7.13.125-6.355.112-.112-6.355,6.356-.112.111,6.355Zm-7.13.125-6.355.112-.112-6.355,6.356-.112.111,6.355Zm-7.13.125-6.355.112-.112-6.355,6.356-.112.111,6.355Zm142.456-9.633-6.355.112-.111-6.356,6.355-.111.111,6.355Zm-7.129.125-6.356.112-.111-6.355,6.355-.112.112,6.355Zm-7.13.126-6.356.111-.111-6.355,6.355-.112.112,6.356Zm-7.13.125-6.355.111-.112-6.355,6.355-.112.112,6.356Zm-7.13.125-6.356.112-.111-6.356,6.355-.111.112,6.355Zm-7.13.125-6.356.112-.111-6.356,6.355-.111.112,6.355Zm-7.13.125-6.355.112-.112-6.355,6.355-.112.112,6.355Zm-7.13.126-6.355.111-.112-6.355,6.355-.112.112,6.356Zm-7.13.125-6.355.111-.112-6.355,6.355-.112.112,6.356Zm-7.13.125-6.355.112-.112-6.356,6.356-.111.111,6.355Zm-7.13.125-6.338.111-.112-6.355,6.339-.111.111,6.355Zm-7.13.125-6.338.112-.112-6.356,6.339-.111.111,6.355Zm-7.113.125-6.355.112-.112-6.356,6.356-.111.111,6.355Zm-7.13.125-6.355.112-.111-6.355,6.355-.112.111,6.355Zm-7.13.126-6.354.111-.112-6.355,6.355-.112.111,6.356Zm-7.13.125-6.355.111-.111-6.355,6.355-.112.111,6.356Zm-7.129.125-6.355.112-.112-6.356,6.355-.111.112,6.355Zm-7.13.125-6.355.112-.112-6.356,6.355-.111.112,6.355Zm-7.13.125-6.355.112-.112-6.355,6.355-.112.112,6.355Zm-7.13.126-6.355.111-.112-6.355,6.355-.112.112,6.356Zm-7.13.125-6.355.111-.112-6.355,6.355-.112.112,6.356Zm142.456-9.634-6.355.112-.111-6.356,6.355-.111.111,6.355Zm-7.129.125-6.356.112-.111-6.355,6.355-.112.112,6.355Zm-7.13.126-6.356.111-.111-6.355,6.355-.112.112,6.356Zm-7.13.125-6.356.111-.111-6.355,6.355-.112.112,6.356Zm-7.13.125-6.356.112-.111-6.356,6.355-.111.112,6.355Zm-7.13.125-6.356.112-.111-6.356,6.355-.111.112,6.355Zm-7.13.125-6.355.112-.112-6.355,6.355-.112.112,6.355Zm-7.13.126-6.355.111-.112-6.355,6.355-.112.112,6.356Zm-7.13.125-6.355.111-.112-6.355,6.355-.112.112,6.356Zm-7.13.125-6.355.112-.112-6.356,6.356-.111.111,6.355Zm-7.13.125-6.338.111-.112-6.355,6.339-.111.111,6.355Zm-7.13.125-6.338.112-.112-6.356,6.339-.111.111,6.355Zm-7.113.125-6.355.112-.112-6.356,6.356-.111.111,6.355Zm-7.13.125-6.355.112-.111-6.355,6.355-.112.111,6.355Zm-7.13.126-6.355.111-.111-6.355,6.355-.112.111,6.356Zm-7.13.125-6.355.111-.111-6.355,6.355-.112.111,6.356Zm-7.129.125-6.356.112-.111-6.356,6.355-.111.112,6.355Zm-7.13.125-6.356.112-.111-6.356,6.355-.111.112,6.355Zm-7.13.125-6.356.112-.111-6.355,6.355-.112.112,6.355Zm-7.13.126-6.356.111-.111-6.355,6.355-.112.112,6.356Zm-7.13.125-6.356.111-.111-6.355,6.355-.112.112,6.356Zm135.326-9.509-6.355.112-.112-6.355,6.356-.112.111,6.355Zm-7.13.126-6.355.111-.112-6.355,6.356-.112.111,6.356Zm-7.129.125-6.356.111-.111-6.355,6.355-.112.112,6.356Zm-7.131.125-6.355.112-.112-6.356,6.356-.111.111,6.355Zm-7.13.125-6.355.112-.112-6.356,6.356-.111.111,6.355Zm-7.13.125-6.354.112-.112-6.355,6.355-.112.111,6.355Zm-7.13.126-6.354.111-.112-6.355,6.355-.112.111,6.356Zm-7.129.125-6.355.111-.112-6.355,6.355-.112.112,6.356Zm-7.13.125-6.355.112-.112-6.356,6.355-.111.112,6.355Zm-7.13.125-6.338.111-.112-6.355,6.338-.111.112,6.355Zm-7.13.125-6.338.112-.112-6.356,6.338-.111.112,6.355Zm-7.113.125-6.355.112-.112-6.356,6.355-.111.112,6.355Zm-7.13.125-6.355.112-.112-6.355,6.355-.112.112,6.355Zm-7.13.126-6.355.111-.111-6.355,6.354-.112.112,6.356Zm-7.13.125-6.355.111-.112-6.355,6.355-.112.112,6.356Zm-7.13.125-6.355.112-.111-6.356,6.355-.111.111,6.355Zm-7.129.125-6.356.112-.111-6.356,6.355-.111.112,6.355Zm-7.13.125-6.356.112-.111-6.355,6.355-.112.112,6.355Zm-7.13.126-6.356.111-.111-6.355,6.355-.112.112,6.356Zm-7.13.125-6.356.111-.111-6.355,6.355-.112.112,6.356Zm135.326-9.509-6.355.112-.112-6.355,6.356-.112.111,6.355Zm-7.13.126-6.355.111-.112-6.355,6.356-.112.111,6.356Zm-7.13.125-6.355.111-.112-6.355,6.356-.112.111,6.356Zm-7.13.125-6.355.112-.112-6.356,6.356-.111.111,6.355Zm-7.13.125-6.355.112-.112-6.356,6.356-.111.111,6.355Zm-7.13.125-6.355.112-.111-6.355,6.355-.112.111,6.355Zm-7.13.126-6.355.111-.111-6.355,6.355-.112.111,6.356Zm-7.13.125-6.355.111-.111-6.355,6.355-.112.111,6.356Zm-7.129.125-6.356.112-.111-6.356,6.355-.111.112,6.355Zm-7.13.125-6.339.111-.111-6.355,6.338-.111.112,6.355Zm-7.13.125-6.338.112-.112-6.356,6.338-.111.112,6.355Zm-7.113.125-6.356.112-.111-6.356,6.355-.111.112,6.355Zm-7.13.125-6.355.112-.112-6.355,6.355-.112.112,6.355Zm-7.13.126-6.355.111-.112-6.355,6.355-.112.112,6.356Zm-7.13.125-6.355.111-.112-6.355,6.355-.112.112,6.356Zm-7.13.125-6.355.112-.112-6.356,6.356-.111.111,6.355Zm-7.13.125-6.355.112-.112-6.356,6.356-.111.111,6.355Zm-7.13.125-6.355.112-.112-6.355,6.356-.112.111,6.355Zm-7.13.126-6.355.111-.112-6.355,6.356-.112.111,6.356Zm-7.13.125-6.355.111-.112-6.355,6.356-.112.111,6.356Zm135.327-9.509-6.355.112-.112-6.355,6.355-.112.112,6.355Zm-7.13.126-6.355.111-.112-6.355,6.355-.112.112,6.356Zm-7.13.125-6.355.111-.112-6.355,6.356-.111.111,6.355Zm-7.13.125-6.355.112-.112-6.356,6.355-.111.112,6.355Zm-7.13.125-6.355.112-.112-6.355,6.355-.112.112,6.355Zm-7.13.125-6.355.112-.111-6.355,6.354-.112.112,6.355Zm-7.13.126-6.355.111-.111-6.355,6.354-.112.112,6.356Zm-7.13.125-6.355.111-.111-6.355,6.355-.111.111,6.355Zm-7.129.125-6.356.112-.111-6.356,6.355-.111.112,6.355Zm-7.13.125-6.339.111-.111-6.355,6.338-.111.112,6.355Zm-7.13.125-6.339.112-.111-6.356,6.338-.111.112,6.355Zm-7.113.125-6.356.112-.111-6.355,6.355-.112.112,6.355Zm-7.13.125-6.355.112-.112-6.355,6.355-.112.112,6.355Zm-7.13.126-6.355.111-.112-6.355,6.355-.112.112,6.356Zm-7.13.125-6.355.111-.112-6.355,6.355-.111.112,6.355Zm-7.13.125-6.355.112-.112-6.356,6.355-.111.112,6.355Zm-7.13.125-6.355.112-.112-6.355,6.356-.112.111,6.355Zm-7.13.125-6.355.112-.112-6.355,6.356-.112.111,6.355Zm-7.13.126-6.355.111-.112-6.355,6.356-.112.111,6.356Zm-7.13.125-6.355.111-.112-6.355,6.356-.111Z" fill="#fff" fill-rule="evenodd"/>
        <path id="Trazado_117141" data-name="Trazado 117141" d="M3279.384,3463.894l-4.179-29.252a.794.794,0,0,1,.545-.876,162.161,162.161,0,0,1,35.758-8.594,253.925,253.925,0,0,1,41.073-1.74.806.806,0,0,1,.776.75c1.357,20,3.014,40.2,6.313,59.982,2.764,16.576,6.928,34.584,14.558,49.648a.8.8,0,0,1-.354,1.079.772.772,0,0,1-.364.086l-9.784.262c-18.639.5-37.262,1.026-55.881,2.056-21.4,1.183-42.734,3.015-64,5.72a.81.81,0,0,1-.9-.727l0-.075a156.206,156.206,0,0,0-5.593-37.082c-3.118-11.688-7.232-23.052-11.376-34.4a.809.809,0,0,1,.515-1.04l.115-.029.022,0c7.074-.907,13.655-3.281,18.425-8.794,3.78-4.369,5.74-9.861,7.474-15.281a.8.8,0,0,1,1.009-.52.747.747,0,0,1,.241.124q12.786,9.381,25.611,18.71Zm-51.563,7.217c4.044,11.087,8.036,22.194,11.08,33.607a158.52,158.52,0,0,1,5.623,36.592c21.076-2.657,42.213-4.461,63.422-5.63,18.573-1.024,37.147-1.549,55.738-2.046l8.547-.228c-7.347-14.981-11.419-32.616-14.147-48.98-3.267-19.6-4.928-39.6-6.28-59.411a251.194,251.194,0,0,0-40.09,1.751,161.175,161.175,0,0,0-34.826,8.291l4.358,30.5a.8.8,0,0,1-1.27.763q-13.148-9.571-26.265-19.184c-1.73,5.3-3.748,10.5-7.448,14.779C3241.451,3467.473,3234.942,3470.052,3227.821,3471.111Z" fill="#7f7877" fill-rule="evenodd"/>
        <path id="Trazado_117142" data-name="Trazado 117142" d="M3233.918,3474.159a.436.436,0,0,0-.82.3l.589,1.639a.436.436,0,0,0,.82-.294l-.589-1.64Zm.7-.612c.55-.16,1.1-.336,1.64-.522a.436.436,0,0,1,.283.824c-.555.189-1.114.37-1.677.534a.436.436,0,0,1-.246-.836Zm4.047-1.454a.436.436,0,0,0,.347.8c.528-.224,1.095-.48,1.6-.745a.436.436,0,0,0-.392-.779c-.494.258-1.044.507-1.558.725Zm3.809-1.975a.436.436,0,0,0,.46.741c.5-.308,1-.633,1.477-.972a.436.436,0,0,0-.5-.712c-.466.329-.947.645-1.434.943Zm3.468-2.519a.436.436,0,0,0,.567.662c.448-.385.885-.779,1.309-1.19.4-.329-.12-1.028-.606-.625q-.619.6-1.27,1.153Zm3.04-3.025a.436.436,0,0,0,.658.571c.384-.427.77-.913,1.119-1.369a.436.436,0,0,0-.689-.533c-.342.444-.714.915-1.088,1.331Zm2.581-3.432a.436.436,0,0,0,.673.546l.057-.07c.324-.494.628-.992.932-1.5a.436.436,0,0,0-.752-.441c-.295.494-.594.981-.91,1.462Zm2.153-3.732a.436.436,0,0,0,.777.4c.267-.52.522-1.052.767-1.583a.436.436,0,0,0-.791-.365c-.24.521-.491,1.043-.753,1.553Zm2.575-3.653a.435.435,0,0,0-.514.7c.472.331.941.688,1.407,1.029a.436.436,0,0,0,.532-.689c-.451-.349-.957-.715-1.425-1.043Zm3.518,2.572a.436.436,0,0,0-.533.69c.463.357.958.689,1.426,1.042a.436.436,0,0,0,.514-.7l-1.407-1.028Zm3.518,2.57a.439.439,0,0,0-.594.075.434.434,0,0,0,.08.629l1.408,1.028a.436.436,0,0,0,.514-.7l-1.408-1.028Zm3.519,2.569a.439.439,0,0,0-.593.075.434.434,0,0,0,.079.629l1.409,1.028a.436.436,0,0,0,.513-.7c-.472-.338-.937-.687-1.408-1.027Zm3.521,2.568a.439.439,0,0,0-.594.075.434.434,0,0,0,.08.629l1.408,1.027a.439.439,0,0,0,.593-.075.434.434,0,0,0-.079-.629l-1.408-1.027Zm3.52,2.567a.435.435,0,1,0-.513.7l1.408,1.027a.436.436,0,0,0,.514-.705l-1.409-1.026Zm3.522,2.566a.44.44,0,0,0-.594.075.434.434,0,0,0,.08.629l1.409,1.027a.435.435,0,1,0,.513-.7l-1.408-1.027Zm3.521,2.567a.435.435,0,1,0-.513.7l1.408,1.027a.44.44,0,0,0,.322.078.435.435,0,0,0,.191-.783l-1.408-1.026Zm3.521,2.566a.44.44,0,0,0-.322-.079.436.436,0,0,0-.191.783l1.408,1.027a.436.436,0,0,0,.513-.705l-1.408-1.026Zm2.175,1.887a.436.436,0,0,0,.863-.123l-.247-1.726a.436.436,0,0,0-.863.124l.247,1.725Zm-.617-4.314a.436.436,0,0,0,.863-.123l-.247-1.725a.435.435,0,0,0-.862.123l.246,1.725Zm-.616-4.314a.435.435,0,0,0,.862-.123l-.246-1.725a.436.436,0,0,0-.863.123l.247,1.725Zm-.616-4.313a.435.435,0,0,0,.862-.123l-.246-1.726a.436.436,0,0,0-.863.124l.247,1.725Zm-.616-4.314a.435.435,0,0,0,.862-.123l-.246-1.725a.436.436,0,0,0-.863.123l.247,1.725Zm-.617-4.313a.436.436,0,0,0,.863-.123l-.247-1.725a.435.435,0,0,0-.862.123l.246,1.725Zm-.616-4.313a.436.436,0,0,0,.863-.123l-.247-1.725a.435.435,0,0,0-.862.123l.246,1.725Zm-.616-4.313a.436.436,0,0,0,.863-.123l-.247-1.725a.435.435,0,0,0-.862.123l.246,1.725Zm-.616-4.313a.436.436,0,0,0,.863-.123l-.247-1.726a.435.435,0,0,0-.862.124l.246,1.725Zm.339-4.381a.436.436,0,0,0,.275.827c.545-.182,1.113-.35,1.651-.54a.435.435,0,0,0-.263-.83c-.55.16-1.117.361-1.663.543Zm4.168-1.318a.436.436,0,0,0,.248.835l1.668-.488a.436.436,0,0,0-.239-.838l-1.677.491Zm4.205-1.19a.436.436,0,0,0,.224.843l1.682-.439a.436.436,0,0,0-.215-.844l-1.691.44Zm4.238-1.065a.435.435,0,0,0,.2.848c.562-.132,1.129-.269,1.693-.39a.436.436,0,0,0-.189-.851l-1.7.393Zm4.265-.947a.435.435,0,0,0,.175.853l1.705-.345a.436.436,0,0,0-.168-.855l-1.712.347Zm4.288-.834a.435.435,0,0,0,.154.857l1.712-.3a.436.436,0,0,0-.146-.859l-1.72.3Zm4.306-.728a.436.436,0,0,0,.134.862l1.72-.26a.436.436,0,0,0-.127-.863l-1.727.261Zm4.322-.623a.435.435,0,0,0,.115.863l1.724-.221a.435.435,0,0,0-.106-.864l-1.733.222Zm4.335-.527a.436.436,0,0,0,.1.866l1.729-.184a.436.436,0,0,0-.088-.867l-1.737.185Zm4.344-.434a.435.435,0,0,0,.078.867l1.734-.148a.436.436,0,0,0-.072-.869l-1.74.15Zm4.353-.347a.436.436,0,0,0,.06.869l1.736-.114a.436.436,0,0,0-.054-.87l-1.742.115Zm4.356-.263a.435.435,0,0,0,.045.869c.578-.021,1.16-.055,1.738-.081a.436.436,0,0,0-.038-.872c-.581.027-1.165.062-1.745.084Zm4.362-.185a.436.436,0,0,0,.028.871l1.74-.052a.436.436,0,0,0-.023-.871l-1.745.052Zm4.363-.109a.436.436,0,0,0,.014.872l1.741-.023a.436.436,0,0,0-.009-.872l-1.746.023Zm4.364-.038a.436.436,0,0,0,0,.872l1.741,0a.436.436,0,0,0,.005-.872l-1.746,0Zm4.363.03a.436.436,0,0,0-.012.871l.767.011.012.175a.436.436,0,0,0,.87-.057l-.04-.557c0-.009-.016-.03-.042-.059l.041.039-.028-.4-1.568-.026Zm1.825,3.6a.436.436,0,0,0-.869.063l.129,1.739a.435.435,0,0,0,.868-.065l-.128-1.737Zm.325,4.343a.435.435,0,0,0-.868.067c.042.565.068,1.18.134,1.738a.436.436,0,0,0,.869-.068l-.135-1.737Zm.342,4.342a.436.436,0,0,0-.869.07c.043.579.093,1.16.143,1.738a.436.436,0,0,0,.868-.072c-.049-.578-.1-1.158-.142-1.736Zm.361,4.34a.436.436,0,0,0-.868.075l.15,1.736a.436.436,0,0,0,.869-.075l-.151-1.736Zm.385,4.338a.436.436,0,0,0-.868.079l.16,1.737a.436.436,0,1,0,.868-.081l-.16-1.735Zm.409,4.335a.436.436,0,1,0-.867.085l.172,1.735a.436.436,0,0,0,.867-.086l-.172-1.734Zm.439,4.332a.435.435,0,0,0-.866.091l.185,1.735a.436.436,0,0,0,.867-.094l-.186-1.732Zm.473,4.329a.436.436,0,0,0-.867.1l.2,1.733a.436.436,0,0,0,.866-.1l-.2-1.729Zm.507,4.323a.436.436,0,0,0-.866.1l.215,1.732a.435.435,0,0,0,.864-.109l-.213-1.728Zm.546,4.319a.436.436,0,0,0-.865.113l.231,1.73a.436.436,0,0,0,.864-.117l-.23-1.726Zm.587,4.312a.435.435,0,0,0-.862.124l.248,1.726a.436.436,0,0,0,.863-.127l-.249-1.723Zm.634,4.306a.436.436,0,0,0-.861.133l.268,1.724a.435.435,0,0,0,.86-.136l-.267-1.721Zm.682,4.3a.435.435,0,0,0-.859.142l.288,1.721a.436.436,0,0,0,.859-.146l-.288-1.717Zm.736,4.29a.436.436,0,0,0-.859.152c.1.571.2,1.149.31,1.717a.436.436,0,0,0,.858-.157c-.11-.567-.212-1.143-.309-1.712Zm.789,4.278a.436.436,0,0,0-.856.165l.334,1.713a.436.436,0,0,0,.855-.169l-.333-1.709Zm.852,4.266a.436.436,0,0,0-.853.178l.361,1.709a.436.436,0,0,0,.852-.184c-.126-.565-.244-1.136-.36-1.7Zm.922,4.251a.436.436,0,0,0-.85.193c.127.567.256,1.136.391,1.7a.435.435,0,0,0,.848-.2c-.135-.563-.262-1.131-.389-1.7Zm1,4.234a.435.435,0,0,0-.846.207l.425,1.694a.435.435,0,1,0,.844-.215l-.423-1.686Zm1.085,4.209a.436.436,0,0,0-.841.227c.138.557.3,1.132.462,1.685a.435.435,0,0,0,.838-.235c-.155-.554-.32-1.119-.459-1.677Zm1.179,4.185a.436.436,0,0,0-.836.245l.5,1.674a.436.436,0,0,0,.833-.255l-.5-1.664Zm1.283,4.151a.436.436,0,0,0-.829.269c.159.544.363,1.121.548,1.66a.436.436,0,0,0,.825-.279c-.182-.539-.386-1.107-.544-1.65Zm1.4,4.114a.436.436,0,0,0-.822.292l.6,1.644a.436.436,0,0,0,.818-.3q-.3-.813-.592-1.633Zm1.519,4.068a.436.436,0,0,0-.811.32q.318.813.649,1.622a.436.436,0,0,0,.807-.328q-.328-.8-.645-1.614Zm-.482,3.5a.436.436,0,0,0-.024-.872l-1.742.047a.436.436,0,0,0,.024.871l1.742-.046Zm-4.355.117a.436.436,0,0,0-.024-.871l-1.743.047a.436.436,0,0,0,.024.871l1.743-.047Zm-4.356.118a.436.436,0,0,0-.025-.871l-1.739.048a.436.436,0,0,0,.022.872l1.742-.049Zm-4.355.121a.436.436,0,0,0-.025-.871c-.58.015-1.163.029-1.743.05a.436.436,0,0,0,.026.871c.579-.021,1.162-.035,1.742-.05Zm-4.355.126a.436.436,0,0,0-.026-.871c-.579.01-1.164.033-1.743.052a.436.436,0,0,0,.027.871c.579-.018,1.163-.042,1.742-.052Zm-4.355.132a.436.436,0,0,0-.027-.871l-1.742.054a.436.436,0,0,0,.027.871l1.742-.054Zm-4.354.139a.436.436,0,0,0-.029-.871l-1.742.058a.436.436,0,0,0,.029.871l1.742-.058Zm-4.354.148a.436.436,0,0,0-.031-.871c-.579.019-1.163.036-1.742.062a.436.436,0,0,0,.031.871c.579-.026,1.163-.043,1.742-.062Zm-4.353.159a.436.436,0,0,0-.033-.871c-.58.016-1.162.043-1.742.066a.436.436,0,0,0,.034.871c.579-.023,1.161-.05,1.741-.066Zm-4.353.17a.436.436,0,0,0-.034-.871l-1.743.072a.436.436,0,0,0,.036.871l1.741-.072Zm-4.351.183a.436.436,0,0,0-.039-.87l-1.742.077a.436.436,0,0,0,.04.871l1.741-.078Zm-4.352.2a.436.436,0,0,0-.042-.871l-1.741.085a.435.435,0,0,0,.043.87l1.74-.084Zm-4.35.215a.436.436,0,0,0-.045-.87l-1.741.09a.436.436,0,0,0,.046.87l1.74-.09Zm-4.35.231a.436.436,0,0,0-.047-.87l-1.742.1a.436.436,0,0,0,.05.87l1.739-.1Zm-4.348.25a.436.436,0,0,0-.052-.87l-1.74.1a.435.435,0,0,0,.053.869l1.739-.1Zm-4.347.267a.436.436,0,0,0-.056-.87l-1.74.112a.436.436,0,0,0,.058.87l1.738-.112Zm-4.346.286a.436.436,0,0,0-.059-.87l-1.74.12a.436.436,0,0,0,.061.869l1.738-.119Zm-4.345.3a.436.436,0,0,0-.062-.87l-1.739.128a.435.435,0,0,0,.064.868l1.737-.126Zm-4.343.323a.435.435,0,0,0-.067-.868l-1.738.135a.436.436,0,0,0,.068.869l1.737-.136Zm-4.341.344a.435.435,0,0,0-.072-.868c-.577.045-1.161.088-1.738.143a.436.436,0,0,0,.073.868c.576-.056,1.159-.1,1.737-.143Zm-4.34.364a.436.436,0,0,0-.076-.869l-1.737.152a.436.436,0,0,0,.077.868l1.736-.151Zm-4.339.384a.436.436,0,0,0-.079-.868l-1.736.16a.435.435,0,1,0,.08.867l1.735-.159Zm-4.336.405a.435.435,0,1,0-.083-.867c-.578.051-1.158.11-1.736.168a.436.436,0,1,0,.085.867c.577-.057,1.157-.117,1.734-.168Zm-4.334.427a.436.436,0,0,0-.088-.867l-1.735.177a.435.435,0,0,0,.09.866l1.733-.176Zm-4.332.448a.435.435,0,0,0-.092-.866l-1.734.185a.436.436,0,0,0,.094.867l1.732-.186Zm-4.329.471a.436.436,0,0,0-.1-.866l-1.732.2a.435.435,0,0,0,.1.865l1.732-.194Zm-4.327.493a.436.436,0,0,0-.1-.865l-1.732.2a.436.436,0,0,0,.1.866l1.73-.2Zm-3.421-1.564a.436.436,0,0,0,.87-.062c-.041-.581-.088-1.163-.136-1.743a.436.436,0,0,0-.869.072c.048.577.095,1.155.135,1.733Zm-.376-4.328a.435.435,0,0,0,.866-.088c-.057-.58-.121-1.16-.187-1.738a.436.436,0,0,0-.866.1c.064.576.129,1.152.187,1.728Zm-.505-4.315a.436.436,0,0,0,.864-.114c-.075-.571-.143-1.166-.238-1.732a.436.436,0,0,0-.863.125c.107.521.166,1.182.237,1.721Zm-.628-4.3a.435.435,0,0,0,.86-.138c-.09-.575-.185-1.152-.285-1.725a.436.436,0,0,0-.859.148l.284,1.715Zm-.745-4.282a.436.436,0,0,0,.857-.16c-.1-.571-.219-1.146-.331-1.716a.436.436,0,0,0-.855.17c.112.566.23,1.138.329,1.706Zm-.854-4.26a.435.435,0,0,0,.851-.183c-.122-.569-.243-1.14-.373-1.707a.436.436,0,0,0-.85.191l.372,1.7Zm-.959-4.241a.436.436,0,0,0,.848-.2c-.123-.563-.273-1.136-.411-1.7a.436.436,0,0,0-.846.209c.138.559.287,1.129.409,1.69Zm-1.051-4.219a.435.435,0,1,0,.843-.219l-.447-1.689a.435.435,0,0,0-.841.227l.445,1.681Zm-1.137-4.2a.436.436,0,0,0,.839-.236l-.478-1.68a.436.436,0,0,0-.837.243c.165.555.319,1.115.476,1.673Zm-1.213-4.178a.436.436,0,0,0,.835-.25l-.506-1.67a.436.436,0,0,0-.834.255l.505,1.665Zm-1.28-4.158a.435.435,0,0,0,.83-.262l-.529-1.663a.436.436,0,0,0-.829.267c.189.536.357,1.113.528,1.658Zm-1.337-4.141a.436.436,0,0,0,.827-.273l-.55-1.656a.436.436,0,0,0-.826.277l.549,1.652Zm-1.386-4.126a.436.436,0,0,0,.825-.282l-.567-1.65a.436.436,0,0,0-.824.285l.566,1.647Zm-1.425-4.114a.436.436,0,0,0,.822-.289l-.579-1.644a.435.435,0,0,0-.821.29Z" fill="#7f7877" fill-rule="evenodd"/>
        <path id="Trazado_117143" data-name="Trazado 117143" d="M3299.683,3415.461a1.09,1.09,0,0,0-2.178-.011l.076,4.406a1.09,1.09,0,0,0,2.178.011l-.076-4.406Zm.193,135.092a1.09,1.09,0,0,0,2.178.011l-.076-4.406a1.09,1.09,0,0,0-2.178-.011l.076,4.406Zm-.191-10.892a1.09,1.09,0,0,0,2.178.011l-.076-4.406a1.09,1.09,0,0,0-2.179-.011l.077,4.406Zm-.191-10.891a1.09,1.09,0,0,0,2.178.011l-.077-4.406a1.09,1.09,0,0,0-2.178-.011l.077,4.406Zm-.192-10.892a1.09,1.09,0,0,0,2.179.011l-.077-4.406a1.09,1.09,0,0,0-2.178-.01l.076,4.405Zm-.191-10.891a1.09,1.09,0,0,0,2.178.011l-.076-4.406a1.09,1.09,0,0,0-2.178-.011l.076,4.406Zm-.191-10.891a1.09,1.09,0,0,0,2.178.01l-.076-4.405a1.09,1.09,0,0,0-2.179-.011l.077,4.406Zm-.191-10.892a1.09,1.09,0,0,0,2.178.011l-.077-4.406a1.09,1.09,0,0,0-2.178-.011l.077,4.406Zm-.192-10.892a1.09,1.09,0,0,0,2.179.012l-.077-4.406a1.09,1.09,0,0,0-2.178-.011l.076,4.405Zm-.191-10.891a1.09,1.09,0,0,0,2.178.011l-.076-4.406a1.09,1.09,0,0,0-2.178-.011l.076,4.406Zm-.191-10.891a1.09,1.09,0,0,0,2.178.011l-.076-4.406a1.09,1.09,0,0,0-2.179-.011l.077,4.406Zm-.191-10.891a1.09,1.09,0,0,0,2.178.011l-.076-4.406a1.09,1.09,0,0,0-2.179-.011l.077,4.406Zm-.192-10.892a1.09,1.09,0,0,0,2.179.011l-.077-4.406a1.09,1.09,0,0,0-2.178-.011Z" fill="#7f7877" fill-rule="evenodd"/>
        <path id="Trazado_117144" data-name="Trazado 117144" d="M3378.217,3482.719a1.09,1.09,0,0,0,.011-2.178l-4.406.076a1.09,1.09,0,0,0-.011,2.179l4.406-.077Zm-156.875.576a1.09,1.09,0,0,0-.011,2.178l4.406-.076a1.09,1.09,0,0,0,.011-2.179l-4.406.077Zm10.892-.192a1.09,1.09,0,0,0-.011,2.179l4.406-.077a1.09,1.09,0,0,0,.011-2.178l-4.406.076Zm10.891-.191a1.09,1.09,0,0,0-.011,2.179l4.406-.077a1.09,1.09,0,0,0,.011-2.178l-4.406.076Zm10.892-.191a1.09,1.09,0,0,0-.011,2.178l4.406-.076a1.09,1.09,0,0,0,.011-2.178l-4.406.076Zm10.891-.191a1.09,1.09,0,0,0-.011,2.178l4.406-.076a1.09,1.09,0,0,0,.011-2.179l-4.406.077Zm10.892-.192a1.09,1.09,0,0,0-.011,2.179l4.405-.077a1.09,1.09,0,0,0,.011-2.178l-4.405.076Zm10.891-.191a1.09,1.09,0,0,0-.011,2.179l4.406-.077a1.09,1.09,0,0,0,.011-2.178l-4.406.076Zm10.892-.191a1.09,1.09,0,0,0-.011,2.178l4.405-.076a1.09,1.09,0,0,0,.011-2.178l-4.405.076Zm10.891-.191a1.09,1.09,0,0,0-.011,2.178l4.406-.076a1.09,1.09,0,0,0,.011-2.179l-4.406.077Zm10.891-.191a1.09,1.09,0,0,0-.011,2.178l4.406-.077a1.09,1.09,0,0,0,.011-2.178l-4.406.077Zm10.892-.192a1.09,1.09,0,0,0-.011,2.179l4.406-.077a1.09,1.09,0,0,0,.011-2.178l-4.406.076Zm10.891-.191a1.09,1.09,0,0,0-.011,2.178l4.406-.076a1.09,1.09,0,0,0,.011-2.178l-4.406.076Zm10.892-.191a1.09,1.09,0,0,0-.011,2.178l4.406-.076a1.09,1.09,0,0,0,.011-2.179l-4.406.077Zm10.891-.191a1.09,1.09,0,0,0-.011,2.178l4.406-.077a1.09,1.09,0,0,0,.011-2.178Z" fill="#7f7877" fill-rule="evenodd"/>
      </g>
      <g id="Grupo_61059" data-name="Grupo 61059">
        <g id="Grupo_61040" data-name="Grupo 61040">
          <path id="Trazado_117145" data-name="Trazado 117145" d="M3348.653,3458.511l-17.951,26.482s2.618,4.5,7.082,2.984,17.742-19.864,17.742-19.864Z" fill="#dd886b"/>
        </g>
        <g id="Grupo_61041" data-name="Grupo 61041">
          <path id="Trazado_117146" data-name="Trazado 117146" d="M3358.992,3463.255l-17.952,26.481s2.618,4.5,7.082,2.984,17.742-19.863,17.742-19.863Z" fill="#dd886b"/>
        </g>
        <g id="Grupo_61042" data-name="Grupo 61042">
          <path id="Trazado_117147" data-name="Trazado 117147" d="M3336.822,3454.66l-12.073,13.923s1.261,5.256,7.947,3.227,13.916-11.963,13.916-11.963Z" fill="#dd886b"/>
        </g>
        <path id="Trazado_117148" data-name="Trazado 117148" d="M3456.1,3653.65c-10.123-28.431-44.245-145.3-44.245-145.3s-17.278-35.69-31.628-53.255c-2.959-3.635-30.715-17.746-33.7-16.53a14.948,14.948,0,0,0-5.13,3.68c-.17,0-.345-.008-.508.008-4.429.411-25.288,14.1-25.288,14.1,2.357,12.771,21.99,2.9,24.782,1.889,1.3-.475,7.737,6.071,13.123,11.9a13.588,13.588,0,0,1,.992,3.194c.892,6.657-5.743,16.68-8.486,16.035s-16.347-6.623-16.347-6.623-.456-20.433-9.948-16.881c0,0-3.916,19.206-.785,24.818s26.931,21.285,29.644,22.473,26.145,11.31,32.035,17.023c4.529,4.374,18.05,99.8,21.594,123.466Z" fill="#ffa780"/>
        <g id="Grupo_61043" data-name="Grupo 61043">
          <path id="Trazado_117149" data-name="Trazado 117149" d="M3363.508,3457.564c-4.843-4.351-18.337-16.058-21.992-15.237l.7-.7c4.855-1.065,20.208,13.472,22.034,15.112Z" fill="#dd886b"/>
        </g>
        <g id="Grupo_61044" data-name="Grupo 61044">
          <path id="Trazado_117150" data-name="Trazado 117150" d="M3370.176,3448.567c1,1.259,1.982,2.525,2.927,3.814a4.1,4.1,0,0,1,.692-1.765C3372.672,3449.957,3371.457,3449.269,3370.176,3448.567Z" fill="#ffa780"/>
        </g>
        <g id="Grupo_61045" data-name="Grupo 61045">
          <path id="Trazado_117151" data-name="Trazado 117151" d="M3374.69,3455.512c-.077-.075-7.767-7.5-11.108-9.672l.822-.343c3.431,2.229,10.735,8.913,11.054,9.222Z" fill="#dd886b"/>
        </g>
        <g id="Grupo_61055" data-name="Grupo 61055">
          <g id="Grupo_61050" data-name="Grupo 61050">
            <g id="Grupo_61046" data-name="Grupo 61046">
              <path id="Trazado_117152" data-name="Trazado 117152" d="M3309.584,3472c.552-1.942,56.2-49.7,68.7-60.4a7.562,7.562,0,0,1,6.241-1.751,6.536,6.536,0,0,1,2.838,11.2c-16.921,16.148-73.929,57.335-73.929,57.335Z" fill="#1e9dd0"/>
            </g>
            <g id="Grupo_61047" data-name="Grupo 61047">
              <path id="Trazado_117153" data-name="Trazado 117153" d="M3384.659,3409.878a6.543,6.543,0,0,1,.993,10.457c-15.676,14.961-65.755,51.409-73.035,56.689l.814,1.35s57.008-41.188,73.929-57.336A6.535,6.535,0,0,0,3384.659,3409.878Z" fill="#048db7"/>
            </g>
            <g id="Grupo_61048" data-name="Grupo 61048">
              <path id="Trazado_117154" data-name="Trazado 117154" d="M3313.434,3478.374l-7.392,2.99-6.823,2.765,5.205-6.084,5.16-6.053Z" fill="#de956a"/>
            </g>
            <g id="Grupo_61049" data-name="Grupo 61049">
              <path id="Trazado_117155" data-name="Trazado 117155" d="M3306.042,3481.363l-6.823,2.765,5.206-6.084A26.872,26.872,0,0,1,3306.042,3481.363Z" fill="#f95150"/>
            </g>
          </g>
          <g id="Grupo_61054" data-name="Grupo 61054">
            <g id="Grupo_61051" data-name="Grupo 61051">
              <path id="Trazado_117156" data-name="Trazado 117156" d="M3389.244,3416.17a5.945,5.945,0,1,1-5.747-6.3A6.03,6.03,0,0,1,3389.244,3416.17Z" fill="#048db7"/>
            </g>
            <g id="Grupo_61052" data-name="Grupo 61052">
              <path id="Trazado_117157" data-name="Trazado 117157" d="M3388.95,3415.888a5.413,5.413,0,1,1-5.24-5.556A5.4,5.4,0,0,1,3388.95,3415.888Z" fill="#de956a"/>
            </g>
            <g id="Grupo_61053" data-name="Grupo 61053">
              <path id="Trazado_117158" data-name="Trazado 117158" d="M3385.589,3415.5a1.637,1.637,0,1,1-1.584-1.68A1.634,1.634,0,0,1,3385.589,3415.5Z" fill="#f95150"/>
            </g>
          </g>
        </g>
        <g id="Grupo_61058" data-name="Grupo 61058">
          <g id="Grupo_61056" data-name="Grupo 61056">
            <path id="Trazado_117159" data-name="Trazado 117159" d="M3346.34,3489.9a104.758,104.758,0,0,0-6.848,17.556c-8-5.39-18.55-13.145-20.563-16.763-1.976-3.539-1.147-12.516-.253-18.637.4-2.854.823-5.085.977-5.871.046-.206.062-.31.062-.31,9.492-3.552,9.948,16.881,9.948,16.881S3341.314,3488.011,3346.34,3489.9Z" fill="#ffa780"/>
          </g>
          <g id="Grupo_61057" data-name="Grupo 61057">
            <path id="Trazado_117160" data-name="Trazado 117160" d="M3322.684,3472.477l-4.008-.426c.4-2.854.823-5.085.977-5.871C3321.629,3466.463,3322.981,3469.243,3322.684,3472.477Z" fill="#f2d1c2"/>
          </g>
        </g>
      </g>
      <rect id="Rectángulo_7658" data-name="Rectángulo 7658" width="16.631" height="221.811" transform="translate(3280.195 3374.79)" fill="#938a91"/>
      <g id="Grupo_61066" data-name="Grupo 61066">
        <g id="Grupo_61060" data-name="Grupo 61060">
          <path id="Trazado_117161" data-name="Trazado 117161" d="M3297.574,3504.269l-2.218,1.616-34.6,25.162-12.527,11.758-8.721,111.724-51.7-1.636,22.961-130.045s2.846-37.453,4.122-42.925c.991-4.263,2.837-24.87,3.613-33.81a4.4,4.4,0,0,1,4.525-4.034,4.421,4.421,0,0,1,4.264,4.222l1.092,25.759,9.8-37.194a4.293,4.293,0,0,1,8.445,1.228l-2.462,35.169,14.595-36.9a4.382,4.382,0,0,1,8.525,1.568c0,.129-.008.259-.025.388l-5.723,39.385,25.794-25.115a3.47,3.47,0,0,1,5.4,4.283c-4.948,7.964-20.759,34.512-21.362,36.776-2.9,10.87-1.727,14.8-1.727,14.8s23.2-10.812,26.487-10.163c.039.015.065.016.1.03a4.226,4.226,0,0,1,3.312,3.983A4.422,4.422,0,0,1,3297.574,3504.269Z" fill="#ffa780"/>
        </g>
        <g id="Grupo_61061" data-name="Grupo 61061">
          <path id="Trazado_117162" data-name="Trazado 117162" d="M3225.935,3448.064l-6.318-.2c.129-2.762,1.59-4.934,3.316-4.88S3225.98,3445.3,3225.935,3448.064Z" fill="#f2d1c2"/>
        </g>
        <g id="Grupo_61062" data-name="Grupo 61062">
          <path id="Trazado_117163" data-name="Trazado 117163" d="M3245.449,3438.429l-6.271-.8c.39-2.738,2.05-4.762,3.763-4.544S3245.756,3435.681,3245.449,3438.429Z" fill="#f2d1c2"/>
        </g>
        <g id="Grupo_61063" data-name="Grupo 61063">
          <path id="Trazado_117164" data-name="Trazado 117164" d="M3265.986,3438.164l-6.188-1.285c.6-2.7,2.417-4.587,4.107-4.236S3266.508,3435.448,3265.986,3438.164Z" fill="#f2d1c2"/>
        </g>
        <g id="Grupo_61064" data-name="Grupo 61064">
          <path id="Trazado_117165" data-name="Trazado 117165" d="M3291.022,3456.414l-4.719-3.316c1.482-2.043,3.684-2.968,4.973-2.062S3292.441,3454.328,3291.022,3456.414Z" fill="#f2d1c2"/>
        </g>
        <g id="Grupo_61065" data-name="Grupo 61065">
          <path id="Trazado_117166" data-name="Trazado 117166" d="M3297.574,3504.269l-2.218,1.616-2.8-4.071c2.809-1.883,5.761-2.5,7-1.517A4.422,4.422,0,0,1,3297.574,3504.269Z" fill="#f2d1c2"/>
        </g>
      </g>
    </g>
    <text id="Lorza_del_patrón_igual_a_la_de_la_prenda" data-name="Lorza del patrón igual 
a la de la prenda" transform="translate(-3360.081 5282.878)" fill="#3a3a3a" font-size="14" font-family="MyriadPro-Regular, Myriad Pro"><tspan x="0" y="0">Lorza del patrón igual </tspan><tspan x="0" y="16.8">a la de la prenda</tspan></text>
  </g>
</svg>
