<svg xmlns="http://www.w3.org/2000/svg" width="403" height="463" viewBox="0 0 403 463">
  <g id="Grupo_60997" data-name="Grupo 60997" transform="translate(-1800.75 -2231.161)">
    <rect id="Rectángulo_7593" data-name="Rectángulo 7593" width="403" height="463" rx="9" transform="translate(1800.75 2231.161)" fill="#fff"/>
    <path id="Trazado_116760" data-name="Trazado 116760" d="M1962.924,2274.82c-8.873,3.124-12.67,13.533-19.948,19.5a46.662,46.662,0,0,1-15.622,7.315l-36.01,11.68c-4.236,1.374-13.864,1.651-16.865,4.939-1.842,2.017-2.34,2.19-3.059,4.83s-3.031,15.354-3.318,18.068c-1.288,12.16,3.99,17.979,3.015,30.193-1.948,24.385-2.651,48.814.368,73.039,1.968,15.766-2.555,31.76-2.914,47.645-.224,10.292-.356,20.589-.076,30.879.5,18.565,2.335,37.079,2.634,55.647a303.231,303.231,0,0,1-1.023,30.872l3.791.11c10.35.3,21.438,1.824,31.762,2.62a2.046,2.046,0,0,1,2.273,2.705l-.722,11.124a19.167,19.167,0,0,0,.805,8.82c2.846,6.659,11.615,7.845,18.854,8.051l45.22,1.283a44.587,44.587,0,0,0,8.981-.35,22.544,22.544,0,0,0,14.954-10.032c3.172,4.769,9.425,7.3,14.995,8.629a60.6,60.6,0,0,0,17.1.912,332.771,332.771,0,0,0,47.654-5.844c-.567-7.582-1.569-16.687-1.453-24.287a94.948,94.948,0,0,0,42.568-1.2c.673-.177,1.547-.692,1.28-1.345a22.175,22.175,0,0,1-.8-10c.789-6.468,1.008-13.865,1.488-20.362,1.937-26.334.184-52.838-1.2-79.206-.966-18.442-4.348-36.021-4.622-54.485-.316-21.482,2.183-42.9,2.869-64.375s-.522-43.392-7.941-63.556a8.138,8.138,0,0,0-2.667-4.173c-16.187-10.887-37.348-13.9-56.207-18.884a41.554,41.554,0,0,1-10.205-3.633c-7.347-4.212-11.361-12.668-18.44-17.319a4.8,4.8,0,0,0-2.913-.424l-53.063.032c-.47,0-1.087-.121-1.14-.59S1963.368,2274.665,1962.924,2274.82Z" fill="#e1dbdd"/>
    <path id="Trazado_116761" data-name="Trazado 116761" d="M1901.428,2657.868a3.032,3.032,0,0,1-1.385-1.231c-.4-.9.2-1.912.694-2.772a15.407,15.407,0,0,0,2.031-6.994,38.77,38.77,0,0,1,.173-5.91,18.635,18.635,0,0,1,4.606-7.71,23.542,23.542,0,0,1-.329-7.262q.36-5.561.721-11.122a2.049,2.049,0,0,0-2.273-2.71c-10.323-.793-21.411-2.322-31.762-2.618l-.406-.011c-2.288,6.5-1.685,17.232-1.405,21.905a31.542,31.542,0,0,0,1.419,8.329,109.024,109.024,0,0,0,5.054,10.2,52.769,52.769,0,0,0,4.66,9.773c3.947,5.291,10.9,7.172,17.314,8.716l7.041,1.7a3.755,3.755,0,0,0,3.227-.224c1.45-1.168.424-3.506-.791-4.918A33.844,33.844,0,0,0,1901.428,2657.868Z" fill="#f9cdbb"/>
    <g id="Grupo_60971" data-name="Grupo 60971">
      <g id="Grupo_60970" data-name="Grupo 60970">
        <g id="Grupo_60968" data-name="Grupo 60968">
          <path id="Trazado_116762" data-name="Trazado 116762" d="M2075.273,2631.364v-.059h0Z" fill="#36b1bf"/>
        </g>
        <g id="Grupo_60969" data-name="Grupo 60969">
          <path id="Trazado_116763" data-name="Trazado 116763" d="M1919.038,2673.438h69.18a22.111,22.111,0,0,0,1.793-6.607q1.692-10.924,3.387-21.851c.074-.48.26-1.074.742-1.121.56-.063.845.648.939,1.2,1.222,7.208,4.642,19.114,6.825,28.382h73.8c.224-9.638.278-21.692.786-27.719a24.069,24.069,0,0,1-1.075-2.3c-.745-1.826-1.48-3.66-2.139-5.52a332.494,332.494,0,0,1-45.161,5.4,60.6,60.6,0,0,1-17.1-.912c-5.569-1.332-11.823-3.86-14.994-8.63a22.544,22.544,0,0,1-14.957,10.033,44.5,44.5,0,0,1-8.979.349l-45.219-1.282a31.81,31.81,0,0,1-13.975-2.875c.179,2.819.363,5.632.726,8.447a123.721,123.721,0,0,0,5.027,22.365A25.2,25.2,0,0,1,1919.038,2673.438Z" fill="#36b1bf"/>
        </g>
      </g>
    </g>
    <path id="Trazado_116764" data-name="Trazado 116764" d="M2111.7,2613.161a95.026,95.026,0,0,1-37.382,0c-.123,7.6.9,16.705,1.453,24.288-.825.161-1.657.284-2.484.448.659,1.86,1.394,3.694,2.138,5.52a15,15,0,0,0,1.865,3.6,7.422,7.422,0,0,1,1.065,1.5c.76,1.742-.48,4.207.952,5.458,1.034.9,2.748.4,3.894,1.161,1.854,1.224.58,4.2-1.17,5.561s-4.086,2.689-4.138,4.9a4.048,4.048,0,0,0,4.14,3.624,11.434,11.434,0,0,0,5.707-1.975,55.482,55.482,0,0,0,15.114-11.31c8.461-9.819,9.9-23.81,9.483-36.758A33.416,33.416,0,0,0,2111.7,2613.161Z" fill="#f9cdbb"/>
    <g id="Trazado_116767" data-name="Trazado 116767">
      <path id="Trazado_116895" data-name="Trazado 116895" d="M1911.721,2407.205a95.944,95.944,0,0,1,6.466,28.864c.647,10.054-.538,20.127-2.073,30.052-3.129,20.234-9.6,39.668-14.056,59.608-2.336,10.455-3.676,21.5-.273,31.881.078.237.8.033.725-.194-3.12-9.518-2.245-19.627-.266-29.284,2.015-9.841,4.849-19.527,7.335-29.255,2.545-9.959,5.108-19.865,6.8-30.014,1.62-9.714,2.963-19.645,2.69-29.513a95.9,95.9,0,0,0-6.625-32.339c-.094-.238-.809-.021-.725.194Z" fill="#83787c"/>
    </g>
    <g id="Trazado_116768" data-name="Trazado 116768">
      <path id="Trazado_116896" data-name="Trazado 116896" d="M1895.991,2348.575a86.78,86.78,0,0,1,7.586,45.672c-.036.343.7.23.731-.068a87.044,87.044,0,0,0-7.592-45.8c-.137-.294-.851-.078-.725.194Z" fill="#83787c"/>
    </g>
    <g id="Trazado_116769" data-name="Trazado 116769">
      <path id="Trazado_116897" data-name="Trazado 116897" d="M1882.776,2329.42a35.56,35.56,0,0,0-2.671,10.289,64.82,64.82,0,0,0,.159,11.144,169.081,169.081,0,0,0,3.537,23c3.176,14.935,7.329,29.744,8.386,45.04a81.37,81.37,0,0,1-1.956,25.617c-.044.174.667.073.716-.121,7.692-30.383-6.569-60.2-9.645-90.147a87.786,87.786,0,0,1-.62-12.7,35.34,35.34,0,0,1,2.81-12.246c.059-.139-.634-.073-.716.122Z" fill="#83787c"/>
    </g>
    <g id="Trazado_116770" data-name="Trazado 116770">
      <path id="Trazado_116898" data-name="Trazado 116898" d="M2096.5,2334.631c-2.2,12.627-4.486,25.246-7.326,37.747a349.344,349.344,0,0,1-10.363,36.314c-3.97,11.541-8.175,23.173-9.632,35.358a66.821,66.821,0,0,0,.2,17.7c.92,6.258,2.431,12.408,3.277,18.68,1.521,11.291,2.081,22.774,2.95,34.136l2.7,35.332a114.6,114.6,0,0,1,.712,14.3,38.012,38.012,0,0,1-1.5,9.379c-.906,2.96-2.071,5.835-2.925,8.812a54.58,54.58,0,0,0-2.035,17.741,55.974,55.974,0,0,0,1.235,9.123c.059.272.786.088.725-.194a54.929,54.929,0,0,1-.854-18.739,54.225,54.225,0,0,1,1.949-9c.91-2.959,2.083-5.833,2.924-8.815,1.878-6.659,1.2-13.543.684-20.329l-2.526-33.011c-.736-9.619-1.4-19.249-2.235-28.86a182.124,182.124,0,0,0-2.567-18.943c-1.217-6.272-2.485-12.517-2.5-18.934-.034-12.143,3.42-23.954,7.25-35.367,3.977-11.855,8.038-23.609,11.1-35.747,3.113-12.343,5.566-24.841,7.822-37.366q.846-4.7,1.662-9.4c.052-.3-.68-.186-.727.081Z" fill="#83787c"/>
    </g>
    <path id="Trazado_116772" data-name="Trazado 116772" d="M1904.216,2565.812a293.7,293.7,0,0,1,3.86,30.817c.367,5.088.52,10.534-2.085,14.912" fill="none" stroke="#8c757e" stroke-miterlimit="10" stroke-width="0.5"/>
    <path id="Trazado_116773" data-name="Trazado 116773" d="M2025.416,2329.359c2.553-8.432,7.1-31.742,1.244-49.173a33.7,33.7,0,0,0-6.218-5.564,4.565,4.565,0,0,0-2.674-1.071c-17.686,0-36.534-.011-54.216,0-.341,0,.164.612-.063.4a94.535,94.535,0,0,0-1.546,22.445c1,13.581,18.657,122.682,21.374,131.735,2.656,8.858,14.546,38.878,14.781,41.266.209-2.379,4.176-30.544,8.37-39.9C2010.93,2419.532,2022.7,2338.329,2025.416,2329.359Z" fill="#f9cdbb"/>
    <path id="Trazado_116774" data-name="Trazado 116774" d="M1970.767,2356.392c5.218,32.545,11.077,66.833,12.551,71.74,2.657,8.858,14.547,38.878,14.782,41.266.209-2.379,4.176-30.544,8.37-39.9,2.938-6.558,9.048-44.02,13.652-71.4Z" fill="#36b1bf"/>
    <g id="Grupo_60972" data-name="Grupo 60972">
      <path id="Trazado_116775" data-name="Trazado 116775" d="M1892.005,2619.141a31.881,31.881,0,0,1,1.686,12.357c-.307,4.575-2.273,8.7-2.762,13.224a45.437,45.437,0,0,0-.15,5.949,7.527,7.527,0,0,0,1.154,4.689c1.793,2.264,5.191,2.3,7.809,2.286.511,0,1.878-.769.731-.762-3.362.02-7.188-.54-7.82-4.494a28.86,28.86,0,0,1,.869-12.182,34.407,34.407,0,0,0,.213-21.517c-.152-.448-1.869.056-1.73.464Z" fill="#dda692"/>
    </g>
    <g id="Grupo_60973" data-name="Grupo 60973">
      <path id="Trazado_116776" data-name="Trazado 116776" d="M1880.278,2645.3a118.314,118.314,0,0,1,7.977,13.3,11.97,11.97,0,0,0,3.73,4.947c1.793,1.17,3.933,1.641,5.805,2.662.432.225,2.033-.423,1.4-.771a54.2,54.2,0,0,1-5.854-2.716,14.679,14.679,0,0,1-3.885-5.626,118.643,118.643,0,0,0-7.553-12.437c-.285-.413-1.963.141-1.616.643Z" fill="#dda692"/>
    </g>
    <g id="Grupo_60974" data-name="Grupo 60974">
      <path id="Trazado_116777" data-name="Trazado 116777" d="M2084.149,2626.047a38.806,38.806,0,0,0,4.657,16.873c1.292,2.414,2.347,4.96.778,7.522-1.858,3.035-5.419,3.521-8.689,3.31-.449-.026-2,.765-1.092.823a14.666,14.666,0,0,0,8.871-1.717,6.766,6.766,0,0,0,3.428-6.451,14.548,14.548,0,0,0-1.9-4.584,37.446,37.446,0,0,1-4.32-16.24c-.018-.422-1.754-.113-1.73.464Z" fill="#dda692"/>
    </g>
    <g id="Grupo_60975" data-name="Grupo 60975">
      <path id="Trazado_116778" data-name="Trazado 116778" d="M2103.877,2630.832a188.879,188.879,0,0,1-4.442,19.906c-1.863,5.765-5.66,12.179-12.086,13.493-.692.143-1.524.919-.314.672a18.375,18.375,0,0,0,12.832-11.1,53.188,53.188,0,0,0,3.174-10.96q1.284-6.153,2.546-12.3c.085-.413-1.618-.146-1.71.295Z" fill="#dda692"/>
    </g>
    <g id="Grupo_60976" data-name="Grupo 60976">
      <path id="Trazado_116779" data-name="Trazado 116779" d="M2106.7,2642.819c-2,7.589-7.155,13.672-12.164,19.5-.269.312.224.41.448.419a1.57,1.57,0,0,0,1.148-.448c5.058-5.881,10.276-12.059,12.291-19.724.139-.527-1.582-.276-1.721.251Z" fill="#dda692"/>
    </g>
    <path id="Trazado_116878" data-name="Trazado 116878" d="M2028.283,2643.189a60.6,60.6,0,0,1-17.1-.912c-5.57-1.332-11.823-3.86-14.994-8.63a22.545,22.545,0,0,1-14.957,10.033,44.481,44.481,0,0,1-8.979.349l-45.22-1.282c-7.239-.206-16.007-1.392-18.854-8.051a12,12,0,0,1-.829-3.615,18.429,18.429,0,0,0,.829,8.423c2.847,6.686,11.615,7.876,18.854,8.082l45.22,1.289a44.338,44.338,0,0,0,8.979-.354,22.54,22.54,0,0,0,14.957-10.068c3.171,4.787,9.413,7.324,14.994,8.66a60.335,60.335,0,0,0,17.1.917,331.757,331.757,0,0,0,47.644-5.868c-.114-1.526-.246-3.138-.383-4.751A332.427,332.427,0,0,1,2028.283,2643.189Z" fill="#aa988f" opacity="0.35" style="isolation: isolate"/>
    <g id="Grupo_60986" data-name="Grupo 60986">
      <path id="Trazado_116899" data-name="Trazado 116899" d="M1878.989,2339.25a70.92,70.92,0,0,0-10.875-12.033,34.957,34.957,0,0,0,.759-5.178c-.106-.938-3.1-2.033-3.1-2.033a4.913,4.913,0,0,0,.006-3.747c-.8-2.113-17.986-6.022-20.574-5.153-1.968.659-10.456,6.6-18.767,14.781-2.405,2.367-6.063,6.353-9.208,7.566-.246.1-7.6,12.105-7.839,12.191-.512.178-3.731,2.845-8.64,7.081v33.937c15.2-15.774,27.43-28.511,27.511-28.734.212-.6,13.668,1.875,25.269-.866,5.121-1.212,10.163-3.478,15.36-4.649a42.975,42.975,0,0,1,5.471-.849,1.519,1.519,0,0,1,.24-.028s2.071-4.537-1.852-6.088c-5.514-2.17-7.162-.038-17.077,1.9l-.527.067a22.085,22.085,0,0,1-2.636.044c-.43-.322-.6-1.556-.665-2.926a5.512,5.512,0,0,1,3.924-5.543l9.511-2.818s9.117,5.683,10.482,6.449c2.589,1.451,3.584,1.02,3.987.48a2.064,2.064,0,0,0,.131-.2C1880.293,2342.054,1879.88,2340.745,1878.989,2339.25Z" fill="#ffa780"/>
      <g id="Grupo_60984" data-name="Grupo 60984">
        <path id="Trazado_116787" data-name="Trazado 116787" d="M1879.887,2342.9c-.074.089-.129.138-.139.157a1.876,1.876,0,0,1-.408-.121,3.057,3.057,0,0,1-1.889-2.07l1.56-1.612C1879.889,2340.735,1880.3,2342.042,1879.887,2342.9Z" fill="#f2d1c2"/>
      </g>
      <path id="Trazado_116788" data-name="Trazado 116788" d="M1868.1,2326.969c-1.456-.859-15.133.486-15.723.541a5.249,5.249,0,0,0-.319.531s14.935-1.272,15.912-.7A1.805,1.805,0,0,0,1868.1,2326.969Z" fill="#dd886b"/>
      <path id="Trazado_116789" data-name="Trazado 116789" d="M1865.829,2319.853c.007-.03-15.673-3.534-15.673-3.534v.511l15.571,3.359A1.583,1.583,0,0,0,1865.829,2319.853Z" fill="#dd886b"/>
      <g id="Grupo_60985" data-name="Grupo 60985">
        <path id="Trazado_116790" data-name="Trazado 116790" d="M1868.787,2349.158a3.052,3.052,0,0,0,.1,3.263,43.218,43.218,0,0,1,5.471-.848,3.057,3.057,0,0,0-5.566-2.413Z" fill="#f2d1c2"/>
      </g>
    </g>
    <path id="Trazado_116900" data-name="Trazado 116900" d="M1867.9,2343.054s-.487,8.1,1.213,11.5l6.5-1.529,3.139-4.862-2.255-3.426Z" fill="#e1dbdd"/>
    <g id="Grupo_60998" data-name="Grupo 60998">
      <g id="Grupo_60997-2" data-name="Grupo 60997">
        <path id="Trazado_116901" data-name="Trazado 116901" d="M1932.7,2299.841a91.541,91.541,0,0,1-3.179,24.594,123.654,123.654,0,0,1-9.014,22.9c-.079.158.167.257.272.269a43.381,43.381,0,0,0,16.431-1.179l-.758-.327q-5.273,7.373-9.882,15.186c-1.309,2.225-2.743,4.4-1.43,6.965a67.73,67.73,0,0,0,4.64,6.995q10.188,14.936,21.037,29.407t22.329,28.441c3.728,4.536,7.709,8.918,11.144,13.684a54.845,54.845,0,0,1,4.532,7.686c1.212,2.425,2.67,4.6,4.061,6.909,1.443,2.4,2.575,4.971,4.1,7.318a27.88,27.88,0,0,1,3.8,7.731c1.589,5.673.966,11.647.2,17.4-.069.52,1.384.255,1.444-.2.656-4.939,1.215-10.014.384-14.969a23.784,23.784,0,0,0-2.3-7c-1.147-2.222-2.664-4.225-3.851-6.431a66.238,66.238,0,0,0-3.6-6.168,84.827,84.827,0,0,1-4.211-7.765c-2.669-4.925-6.372-9.157-9.947-13.431q-23.119-27.65-43.721-57.281-2.852-4.1-5.652-8.239c-.954-1.409-2.022-2.8-2.838-4.294a4.55,4.55,0,0,1-.072-4.472,84.526,84.526,0,0,1,5.287-8.791q2.83-4.417,5.889-8.683c.311-.434-.57-.376-.758-.326a40.509,40.509,0,0,1-15.355,1.1l.272.269a123.037,123.037,0,0,0,9.124-23.309,92.167,92.167,0,0,0,3.074-24.373c0-.4-1.452-.138-1.449.389Z" fill="#9e9e9e"/>
      </g>
    </g>
    <g id="Grupo_61000" data-name="Grupo 61000">
      <g id="Grupo_60999" data-name="Grupo 60999">
        <path id="Trazado_116902" data-name="Trazado 116902" d="M2061.358,2305.528a107.679,107.679,0,0,0,7.575,46.791l.792-.71a43.922,43.922,0,0,1-19.988-2.339c-.32-.116-1.386.147-1.145.672a50.581,50.581,0,0,0,7.542,11.855c1.519,1.772,3.245,3.312,4.844,5,1.75,1.852,2.755,3.837,1.447,6.268-2.583,4.8-5.559,9.444-8.358,14.125a108.032,108.032,0,0,1-8.9,13.142c-6.235,7.619-14,13.84-20.04,21.631a80.236,80.236,0,0,0-7.663,12.421c-2.211,4.277-4.448,8.562-6.572,12.882-1.92,3.905-3.45,7.988-5.4,11.879-1.894,3.775-4.2,7.64-7.87,9.931-.829.518.372,1,.954.635,6.505-4.064,9.246-12.374,12.19-19.029,1.8-4.071,3.964-7.967,5.955-11.947a112,112,0,0,1,7.8-13.9c5.759-8.3,13.705-14.7,20.311-22.277,7.052-8.086,12.12-17.751,17.561-26.938,1.207-2.04,2.823-4.15,1.869-6.616-.874-2.264-3.019-3.819-4.66-5.5a49.707,49.707,0,0,1-9.562-13.954l-1.146.672a45.557,45.557,0,0,0,20.694,2.415c.266-.031.96-.3.793-.71a107.037,107.037,0,0,1-7.558-46.521c.045-.734-1.426-.519-1.466.118Z" fill="#9e9e9e"/>
      </g>
    </g>
    <g id="Grupo_61001" data-name="Grupo 61001">
      <path id="Trazado_116903" data-name="Trazado 116903" d="M2001.728,2488.972c-1.2,4.142-.145,8.633.074,12.85.238,4.614.186,9.239.007,13.855-.362,9.339-1.247,18.656-1.326,28.006-.079,9.294,1.386,18.507,1.3,27.793a124.151,124.151,0,0,1-3.678,27.2c-1.171,4.968-2.533,9.889-3.965,14.787a148.823,148.823,0,0,1-4.7,14.846c-.089.214,1.277.1,1.426-.263a134.321,134.321,0,0,0,4.158-13.01c1.29-4.36,2.536-8.734,3.653-13.142a139.417,139.417,0,0,0,4.412-26.536c.509-9.273-.925-18.427-1.129-27.68-.2-9.269.588-18.516,1.083-27.763.276-5.183.461-10.376.322-15.567q-.1-3.871-.473-7.727a20.992,20.992,0,0,1,.264-7.912c.075-.261-1.324-.094-1.427.264Z" fill="#9e9e9e"/>
    </g>
    <g id="Grupo_60983" data-name="Grupo 60983">
      <g id="Grupo_60977" data-name="Grupo 60977">
        <path id="Trazado_116780" data-name="Trazado 116780" d="M1971.646,2363.7c3.044,7.6,1.172,17.46,1.172,17.46l-6.123.478a42.2,42.2,0,0,1-1.332,4.068l-6.078-2.018.753-11.9s-11.88,2.266-14.437-1.763a2.38,2.38,0,0,1,1.264-3.8s.863-.175,2.23-.413c-.549-2.017,1.733-2.781,1.733-2.781S1970.126,2359.912,1971.646,2363.7Z" fill="#dd886b"/>
      </g>
      <path id="Trazado_116781" data-name="Trazado 116781" d="M1980.446,2352.981c-.673-.9-1.332-1.793-1.971-2.62-.412-.533-.815-1.049-1.2-1.519a23.956,23.956,0,0,0-2.79-3.1,1.483,1.483,0,0,0-.3-.19c-1.433-.54-3.363,2.371-2.914,5.312.495,3.255,4.993,9.288,4.993,9.288l-4.005,7.43a7.232,7.232,0,0,1-7.376,4.216c-5.1-.549-9.6-3.586-7.352-6.036,7.206-7.862,11.431-10.456,12.395-16.3.688-4.163-4.259-4.721-4.259-4.721a1.474,1.474,0,0,1-.157.2,42.9,42.9,0,0,1-3.543,4.258,56.58,56.58,0,0,1-11.586,8.645c-9.432,6.169-13.982,9.948-19.948,18.227-3.893,5.393-93.813,39.219-129.686,53.128v49.074c38.827-20.345,138.232-76.583,140.572-77.1,9.046-2.018,28.2-8.437,37.879-19.355,4.109-4.637,6.5-18.5,6.92-19.69C1986.331,2361.494,1983.447,2357.1,1980.446,2352.981Z" fill="#ffa780"/>
      <g id="Grupo_60978" data-name="Grupo 60978">
        <path id="Trazado_116782" data-name="Trazado 116782" d="M1977.592,2383.321s9.233-11.25,8.863-14.82-14.421-21.724-14.421-21.724-2.777-.262-2.811,4.1c-.038,5.29,6.886,18.561,6.886,18.561l-10.374,9.04Z" fill="#ffa780"/>
      </g>
      <g id="Grupo_60979" data-name="Grupo 60979">
        <rect id="Rectángulo_7654" data-name="Rectángulo 7654" width="11.713" height="0.397" transform="translate(1980.242 2375.729) rotate(-65.609)" fill="#dd886b"/>
      </g>
      <g id="Grupo_60980" data-name="Grupo 60980">
        <path id="Trazado_116783" data-name="Trazado 116783" d="M1971.556,2349.258a12.035,12.035,0,0,1,.283-2.523l.387.085c-1.569,7.134,4.127,13.13,4.187,13.188l.092.1-.054.124a42.073,42.073,0,0,1-3.012,5.991l-.235-.318a40.672,40.672,0,0,0,2.833-5.713A17.576,17.576,0,0,1,1971.556,2349.258Z" fill="#dd886b"/>
      </g>
      <g id="Grupo_60981" data-name="Grupo 60981">
        <path id="Trazado_116784" data-name="Trazado 116784" d="M1974.5,2350.581a3.058,3.058,0,0,1-.016-4.844,23.9,23.9,0,0,1,2.791,3.1C1976.127,2349.584,1975.06,2350.242,1974.5,2350.581Z" fill="#f2d1c2"/>
      </g>
      <g id="Grupo_60982" data-name="Grupo 60982">
        <path id="Trazado_116785" data-name="Trazado 116785" d="M1964.713,2350.946a3.05,3.05,0,0,1-2.747-1.762,42.929,42.929,0,0,0,3.543-4.258,3.057,3.057,0,0,1-.8,6.015Z" fill="#f2d1c2"/>
      </g>
    </g>
    <g id="Grupo_61002" data-name="Grupo 61002">
      <path id="Trazado_116904" data-name="Trazado 116904" d="M1821.924,2260.186h1.219v8.418h4.034v1.023h-5.253Z" fill="#3a3a3a"/>
      <path id="Trazado_116905" data-name="Trazado 116905" d="M1832.243,2269.627l-.1-.856h-.042a2.523,2.523,0,0,1-2.074,1.01,1.932,1.932,0,0,1-2.073-1.947c0-1.639,1.457-2.535,4.076-2.521v-.141a1.4,1.4,0,0,0-1.541-1.568,3.377,3.377,0,0,0-1.764.5l-.281-.812a4.221,4.221,0,0,1,2.228-.6c2.073,0,2.577,1.414,2.577,2.774V2268a9.56,9.56,0,0,0,.112,1.625Zm-.181-3.461c-1.345-.027-2.873.211-2.873,1.527a1.091,1.091,0,0,0,1.164,1.176,1.685,1.685,0,0,0,1.638-1.133,1.3,1.3,0,0,0,.071-.392Z" fill="#3a3a3a"/>
      <path id="Trazado_116906" data-name="Trazado 116906" d="M1843.038,2269.375a4.547,4.547,0,0,1-1.947.391,3.221,3.221,0,0,1-3.376-3.459,3.444,3.444,0,0,1,3.641-3.6,4.12,4.12,0,0,1,1.709.35l-.279.953a2.866,2.866,0,0,0-1.43-.322,2.555,2.555,0,0,0-.042,5.1,3.488,3.488,0,0,0,1.514-.336Z" fill="#3a3a3a"/>
      <path id="Trazado_116907" data-name="Trazado 116907" d="M1850.529,2266.18a3.314,3.314,0,0,1-3.376,3.6,3.224,3.224,0,0,1-3.25-3.488,3.31,3.31,0,0,1,3.363-3.6A3.21,3.21,0,0,1,1850.529,2266.18Zm-5.379.07c0,1.486.855,2.6,2.059,2.6,1.177,0,2.06-1.1,2.06-2.632,0-1.149-.575-2.606-2.032-2.606S1845.15,2264.963,1845.15,2266.25Z" fill="#3a3a3a"/>
      <path id="Trazado_116908" data-name="Trazado 116908" d="M1851.911,2268.365a3.223,3.223,0,0,0,1.625.49c.9,0,1.317-.447,1.317-1.007,0-.588-.35-.91-1.261-1.246-1.219-.436-1.793-1.108-1.793-1.92a2.092,2.092,0,0,1,2.34-1.989,3.391,3.391,0,0,1,1.667.42l-.309.9a2.643,2.643,0,0,0-1.387-.393c-.728,0-1.134.42-1.134.924,0,.561.406.813,1.289,1.148,1.176.45,1.778,1.038,1.778,2.047,0,1.19-.924,2.03-2.535,2.03a3.878,3.878,0,0,1-1.905-.461Z" fill="#3a3a3a"/>
      <path id="Trazado_116909" data-name="Trazado 116909" d="M1859.108,2260.9v1.948h1.765v.937h-1.765v3.656c0,.84.238,1.317.924,1.317a2.707,2.707,0,0,0,.715-.084l.056.924a3,3,0,0,1-1.093.168,1.707,1.707,0,0,1-1.33-.518,2.508,2.508,0,0,1-.477-1.766v-3.7h-1.05v-.937h1.05v-1.625Z" fill="#3a3a3a"/>
      <path id="Trazado_116910" data-name="Trazado 116910" d="M1867.93,2267.777c0,.7.014,1.317.056,1.85h-1.092l-.071-1.107h-.028a2.549,2.549,0,0,1-2.241,1.261c-1.065,0-2.339-.59-2.339-2.97v-3.963h1.232v3.754c0,1.287.393,2.156,1.513,2.156a1.781,1.781,0,0,0,1.625-1.121,1.8,1.8,0,0,0,.112-.629v-4.16h1.233Z" fill="#3a3a3a"/>
      <path id="Trazado_116911" data-name="Trazado 116911" d="M1869.971,2264.963c0-.8-.014-1.486-.056-2.115h1.078l.042,1.33h.057a2.033,2.033,0,0,1,1.877-1.485,1.382,1.382,0,0,1,.349.041v1.162a1.908,1.908,0,0,0-.42-.041,1.73,1.73,0,0,0-1.653,1.583,3.581,3.581,0,0,0-.056.574v3.615h-1.218Z" fill="#3a3a3a"/>
      <path id="Trazado_116912" data-name="Trazado 116912" d="M1878.233,2269.627l-.1-.856h-.042a2.522,2.522,0,0,1-2.073,1.01,1.932,1.932,0,0,1-2.074-1.947c0-1.639,1.457-2.535,4.076-2.521v-.141a1.4,1.4,0,0,0-1.541-1.568,3.379,3.379,0,0,0-1.764.5l-.28-.812a4.218,4.218,0,0,1,2.227-.6c2.073,0,2.577,1.414,2.577,2.774V2268a9.661,9.661,0,0,0,.112,1.625Zm-.181-3.461c-1.345-.027-2.872.211-2.872,1.527a1.09,1.09,0,0,0,1.163,1.176,1.684,1.684,0,0,0,1.638-1.133,1.3,1.3,0,0,0,.071-.392Z" fill="#3a3a3a"/>
      <path id="Trazado_116913" data-name="Trazado 116913" d="M1888.818,2268.576h-.028a2.414,2.414,0,0,1-2.213,1.205c-1.583,0-2.872-1.373-2.872-3.431,0-2.537,1.639-3.657,3.067-3.657a2.23,2.23,0,0,1,2.088,1.176h.028l.042-1.021h1.163c-.029.574-.042,1.162-.042,1.861v7.691h-1.233Zm0-2.984a2.106,2.106,0,0,0-.056-.518,1.8,1.8,0,0,0-1.765-1.4c-1.274,0-2.045,1.078-2.045,2.6,0,1.344.644,2.522,2,2.522a1.837,1.837,0,0,0,1.765-1.346,2.068,2.068,0,0,0,.1-.588Z" fill="#3a3a3a"/>
      <path id="Trazado_116914" data-name="Trazado 116914" d="M1897.75,2267.777c0,.7.015,1.317.057,1.85h-1.093l-.07-1.107h-.029a2.549,2.549,0,0,1-2.241,1.261c-1.064,0-2.339-.59-2.339-2.97v-3.963h1.233v3.754c0,1.287.392,2.156,1.512,2.156a1.737,1.737,0,0,0,1.738-1.75v-4.16h1.232Z" fill="#3a3a3a"/>
      <path id="Trazado_116915" data-name="Trazado 116915" d="M1900.478,2266.461a2.172,2.172,0,0,0,2.325,2.353,4.439,4.439,0,0,0,1.877-.351l.21.883a5.476,5.476,0,0,1-2.255.42,3.147,3.147,0,0,1-3.334-3.416c0-2.047,1.2-3.657,3.179-3.657,2.213,0,2.8,1.948,2.8,3.194a4.656,4.656,0,0,1-.042.574Zm3.614-.883a1.756,1.756,0,0,0-1.709-2,2.046,2.046,0,0,0-1.892,2Z" fill="#3a3a3a"/>
      <path id="Trazado_116916" data-name="Trazado 116916" d="M1912.66,2259.682v8.193c0,.6.014,1.289.056,1.752h-1.107l-.055-1.178h-.029a2.506,2.506,0,0,1-2.311,1.332c-1.639,0-2.9-1.386-2.9-3.447-.013-2.254,1.387-3.641,3.04-3.641a2.269,2.269,0,0,1,2.045,1.036h.029v-4.047Zm-1.232,5.923a2.18,2.18,0,0,0-.057-.517,1.811,1.811,0,0,0-1.778-1.428c-1.276,0-2.031,1.119-2.031,2.619,0,1.373.671,2.506,2,2.506a1.851,1.851,0,0,0,1.807-1.471,2.131,2.131,0,0,0,.057-.531Z" fill="#3a3a3a"/>
      <path id="Trazado_116917" data-name="Trazado 116917" d="M1918.454,2269.627l-.1-.856h-.042a2.519,2.519,0,0,1-2.073,1.01,1.932,1.932,0,0,1-2.073-1.947c0-1.639,1.457-2.535,4.076-2.521v-.141a1.4,1.4,0,0,0-1.541-1.568,3.383,3.383,0,0,0-1.765.5l-.28-.812a4.222,4.222,0,0,1,2.228-.6c2.073,0,2.577,1.414,2.577,2.774V2268a9.561,9.561,0,0,0,.112,1.625Zm-.182-3.461c-1.344-.027-2.872.211-2.872,1.527a1.09,1.09,0,0,0,1.163,1.176,1.685,1.685,0,0,0,1.639-1.133,1.3,1.3,0,0,0,.07-.392Z" fill="#3a3a3a"/>
      <path id="Trazado_116918" data-name="Trazado 116918" d="M1826.715,2286.174a4.544,4.544,0,0,1-1.947.392,3.221,3.221,0,0,1-3.376-3.459,3.445,3.445,0,0,1,3.641-3.6,4.118,4.118,0,0,1,1.709.351l-.28.952a2.857,2.857,0,0,0-1.429-.323,2.557,2.557,0,0,0-.042,5.1,3.509,3.509,0,0,0,1.514-.336Z" fill="#3a3a3a"/>
      <path id="Trazado_116919" data-name="Trazado 116919" d="M1828.757,2283.26a2.171,2.171,0,0,0,2.325,2.353,4.474,4.474,0,0,0,1.877-.349l.21.882a5.493,5.493,0,0,1-2.255.42,3.149,3.149,0,0,1-3.334-3.418c0-2.044,1.205-3.656,3.18-3.656,2.213,0,2.8,1.947,2.8,3.194a4.851,4.851,0,0,1-.042.574Zm3.614-.881a1.755,1.755,0,0,0-1.709-2,2.042,2.042,0,0,0-1.891,2Z" fill="#3a3a3a"/>
      <path id="Trazado_116920" data-name="Trazado 116920" d="M1835.084,2281.482c0-.7-.014-1.275-.056-1.836h1.093l.069,1.122h.029a2.492,2.492,0,0,1,2.241-1.276c.938,0,2.4.561,2.4,2.887v4.047h-1.233v-3.908c0-1.092-.406-2-1.568-2a1.753,1.753,0,0,0-1.654,1.259,1.814,1.814,0,0,0-.084.575v4.076h-1.232Z" fill="#3a3a3a"/>
      <path id="Trazado_116921" data-name="Trazado 116921" d="M1844.283,2277.7v1.947h1.765v.94h-1.765v3.654c0,.842.238,1.319.924,1.319a2.794,2.794,0,0,0,.715-.084l.056.923a3.023,3.023,0,0,1-1.093.168,1.707,1.707,0,0,1-1.33-.517,2.511,2.511,0,0,1-.477-1.766v-3.7h-1.051v-.94h1.051v-1.625Z" fill="#3a3a3a"/>
      <path id="Trazado_116922" data-name="Trazado 116922" d="M1847.432,2281.762c0-.8-.014-1.485-.056-2.116h1.078l.042,1.331h.057a2.032,2.032,0,0,1,1.877-1.485,1.3,1.3,0,0,1,.349.043v1.162a1.9,1.9,0,0,0-.42-.043,1.731,1.731,0,0,0-1.653,1.584,3.568,3.568,0,0,0-.056.575v3.613h-1.218Z" fill="#3a3a3a"/>
      <path id="Trazado_116923" data-name="Trazado 116923" d="M1855.693,2286.426l-.1-.854h-.042a2.528,2.528,0,0,1-2.074,1.008,1.932,1.932,0,0,1-2.073-1.947c0-1.639,1.457-2.535,4.076-2.522v-.138a1.4,1.4,0,0,0-1.541-1.571,3.382,3.382,0,0,0-1.764.506l-.281-.812a4.2,4.2,0,0,1,2.228-.6c2.073,0,2.577,1.416,2.577,2.774v2.535a9.531,9.531,0,0,0,.112,1.625Zm-.181-3.459c-1.345-.029-2.872.209-2.872,1.527a1.091,1.091,0,0,0,1.163,1.176,1.687,1.687,0,0,0,1.638-1.135,1.287,1.287,0,0,0,.071-.392Z" fill="#3a3a3a"/>
      <path id="Trazado_116924" data-name="Trazado 116924" d="M1864.543,2276.48v8.2c0,.6.014,1.289.056,1.75h-1.107l-.055-1.176h-.029a2.508,2.508,0,0,1-2.311,1.33c-1.639,0-2.9-1.387-2.9-3.445-.013-2.256,1.387-3.643,3.04-3.643a2.266,2.266,0,0,1,2.045,1.037h.029v-4.049Zm-1.232,5.926a2.158,2.158,0,0,0-.057-.517,1.813,1.813,0,0,0-1.778-1.43c-1.276,0-2.032,1.121-2.032,2.619,0,1.373.672,2.508,2,2.508a1.854,1.854,0,0,0,1.807-1.471,2.141,2.141,0,0,0,.057-.533Z" fill="#3a3a3a"/>
      <path id="Trazado_116925" data-name="Trazado 116925" d="M1870.338,2286.426l-.1-.854h-.042a2.526,2.526,0,0,1-2.073,1.008,1.932,1.932,0,0,1-2.073-1.947c0-1.639,1.457-2.535,4.076-2.522v-.138a1.4,1.4,0,0,0-1.541-1.571,3.385,3.385,0,0,0-1.765.506l-.28-.812a4.2,4.2,0,0,1,2.228-.6c2.073,0,2.577,1.416,2.577,2.774v2.535a9.531,9.531,0,0,0,.112,1.625Zm-.182-3.459c-1.344-.029-2.872.209-2.872,1.527a1.091,1.091,0,0,0,1.163,1.176,1.688,1.688,0,0,0,1.639-1.135,1.285,1.285,0,0,0,.07-.392Z" fill="#3a3a3a"/>
    </g>
    <line id="Línea_521" data-name="Línea 521" x1="31.479" y1="31.559" transform="translate(1881.15 2279.423)" fill="none" stroke="#706f6f" stroke-miterlimit="10" stroke-width="1"/>
  </g>
</svg>
