<svg xmlns="http://www.w3.org/2000/svg" width="708" height="238" viewBox="0 0 708 238">
  <g id="Grupo_60725" data-name="Grupo 60725" transform="translate(-284 -12211.835)">
    <rect id="Rectángulo_6722" data-name="Rectángulo 6722" width="708" height="238" transform="translate(284 12211.835)" fill="#fff"/>
    <rect id="Rectángulo_6723" data-name="Rectángulo 6723" width="200" height="60" rx="6" transform="translate(544.5 12356.835)" fill="#ff9696" opacity="0.25"/>
    <rect id="Rectángulo_6726" data-name="Rectángulo 6726" width="200" height="87" rx="6" transform="translate(768 12356.835)" fill="#ff9696" opacity="0.25"/>
    <rect id="Rectángulo_6724" data-name="Rectángulo 6724" width="200" height="87" rx="6" transform="translate(310 12356.835)" fill="#ff9696" opacity="0.25"/>
    <text id="Hilo_marcado_en_1_o_2_direcciones_pero_girando_en_diagonal_el_molde" data-name="Hilo marcado en 1 o 2 direcciones, pero girando en diagonal el molde" transform="translate(319.886 12361.835)" fill="#12263f" font-size="16" font-family="Roboto-Regular, Roboto"><tspan x="12.255" y="17">Hilo marcado en 1 o 2 </tspan><tspan x="0.79" y="41">direcciones, pero girando </tspan><tspan x="16.513" y="65">en diagonal el molde</tspan></text>
    <text id="Hilo_en_molde_bolsillo" data-name="Hilo en molde bolsillo" transform="translate(563.5 12374.835)" fill="#12263f" font-size="16" font-family="Roboto-Regular, Roboto"><tspan x="4.238" y="17">Hilo en molde bolsillo</tspan></text>
    <text id="Bolsillo_tizado_en_la_tela_inclinado_en_diagonal" data-name="Bolsillo tizado en la tela inclinado en diagonal" transform="translate(787 12366.835)" fill="#12263f" font-size="16" font-family="Roboto-Regular, Roboto"><tspan x="11.922" y="17">Bolsillo tizado en la </tspan><tspan x="22.727" y="41">tela inclinado en </tspan><tspan x="50.188" y="65">diagonal</tspan></text>
    <path id="Trazado_109477" data-name="Trazado 109477" d="M-7039.334-708.667v60.47l11.82,11.82h44.87l11.819-11.82v-60.47Z" transform="translate(6296.884 7814.35) rotate(-45)" fill="#ff9696" stroke="#5b4d52" stroke-width="2"/>
    <g id="Grupo_59529" data-name="Grupo 59529" transform="translate(-111.207 -439.666)">
      <path id="Trazado_109471" data-name="Trazado 109471" d="M275.155,223.3h2.118V142.514l3.98,1.44a32.018,32.018,0,0,1-5.039-9.057,32.053,32.053,0,0,1-5.039,9.057l3.98-1.44Z" transform="matrix(-0.819, 0.574, -0.574, -0.819, 830.449, 12719.379)" fill="#5b4d52"/>
      <path id="Trazado_109472" data-name="Trazado 109472" d="M275.155,223.3h2.118V142.514l3.98,1.44a32.018,32.018,0,0,1-5.039-9.057,32.053,32.053,0,0,1-5.039,9.057l3.98-1.44Z" transform="matrix(0.829, -0.559, 0.559, 0.829, 196.317, 12737.441)" fill="#5b4d52"/>
      <path id="Unión_4" data-name="Unión 4" d="M7869,11788.407l3.982,1.438v-1.438h2.117v1.438l3.979-1.438a5.93,5.93,0,1,1-10.079,0Zm3.982,0v-80.791l-3.982,1.441a5.93,5.93,0,1,1,10.079,0l-3.979-1.441v80.791Z" transform="matrix(-0.819, 0.574, -0.574, -0.819, 13743.188, 17839.445)" fill="#5b4d52" stroke="rgba(0,0,0,0)" stroke-miterlimit="10" stroke-width="1"/>
    </g>
    <path id="Unión_6" data-name="Unión 6" d="M7869,11745.773l3.982.746v-.746h2.117v.746l3.979-.746a5.052,5.052,0,0,1-10.079,0Zm3.982,0v-41.831l-3.982.748a5.052,5.052,0,0,1,10.079,0l-3.979-.748v41.831Z" transform="translate(-7006.038 562.61)" fill="#5b4d52" stroke="rgba(0,0,0,0)" stroke-miterlimit="10" stroke-width="1"/>
    <g id="Grupo_59530" data-name="Grupo 59530" transform="translate(25.896 31)">
      <g id="Grupo_59528" data-name="Grupo 59528" transform="translate(-184.576 1214.835)">
        <path id="Trazado_109450" data-name="Trazado 109450" d="M-7039.333-708.667v85.333l16.68,16.68h63.32l16.68-16.68v-85.333Z" transform="translate(7785.333 11699.667)" fill="#ff9696" stroke="#5b4d52" stroke-width="2"/>
      </g>
      <path id="Unión_5" data-name="Unión 5" d="M7869,11788.407l3.982,1.438v-1.438h2.117v1.438l3.979-1.438a5.93,5.93,0,1,1-10.079,0Zm3.982,0v-80.791l-3.982,1.441a5.93,5.93,0,1,1,10.079,0l-3.979-1.441v80.791Z" transform="translate(14567.984 14520.941) rotate(133)" fill="#5b4d52" stroke="rgba(0,0,0,0)" stroke-miterlimit="10" stroke-width="1"/>
      <path id="Trazado_109480" data-name="Trazado 109480" d="M7.349,15H.827v-.909l3.445-3.828A8.185,8.185,0,0,0,5.329,8.851a2.356,2.356,0,0,0,.291-1.125,1.786,1.786,0,0,0-.472-1.278,1.649,1.649,0,0,0-1.258-.5,1.953,1.953,0,0,0-1.466.537A2.05,2.05,0,0,0,1.9,7.979H.636a2.936,2.936,0,0,1,.885-2.222A3.282,3.282,0,0,1,3.89,4.91a3.153,3.153,0,0,1,2.194.728,2.483,2.483,0,0,1,.807,1.938q0,1.47-1.873,3.5L2.352,13.968h5Zm4.915-6.139,2.386-3.814h1.545L13.05,9.982,16.27,15H14.711l-2.447-3.883L9.8,15H8.251l3.227-5.018L8.326,5.047H9.864ZM24.671,6.12h-3.2V15H20.166V6.12H16.974V5.047h7.7ZM1.155,31V21.047H4.409a3.777,3.777,0,0,1,2.437.67A2.414,2.414,0,0,1,7.663,23.7a2.022,2.022,0,0,1-.4,1.234,2.57,2.57,0,0,1-1.08.831,2.308,2.308,0,0,1,1.275.858,2.462,2.462,0,0,1,.468,1.507,2.662,2.662,0,0,1-.868,2.105A3.59,3.59,0,0,1,4.607,31Zm1.313-4.655v3.582H4.635a2.087,2.087,0,0,0,1.446-.475,1.669,1.669,0,0,0,.53-1.309q0-1.8-1.955-1.8Zm0-1.053H4.45a2.078,2.078,0,0,0,1.377-.432,1.447,1.447,0,0,0,.516-1.171,1.423,1.423,0,0,0-.479-1.2,2.35,2.35,0,0,0-1.456-.373H2.468Zm6.87,1.941a4.369,4.369,0,0,1,.427-1.955,3.187,3.187,0,0,1,1.189-1.34,3.238,3.238,0,0,1,1.74-.472,3.119,3.119,0,0,1,2.444,1.046,4.024,4.024,0,0,1,.933,2.782v.089a4.407,4.407,0,0,1-.414,1.938,3.14,3.14,0,0,1-1.183,1.336,3.275,3.275,0,0,1-1.767.479,3.111,3.111,0,0,1-2.437-1.046,4,4,0,0,1-.933-2.769Zm1.271.15a3.164,3.164,0,0,0,.571,1.976,1.934,1.934,0,0,0,3.059-.01,3.46,3.46,0,0,0,.567-2.116,3.159,3.159,0,0,0-.578-1.972,1.836,1.836,0,0,0-1.535-.755,1.816,1.816,0,0,0-1.511.745A3.434,3.434,0,0,0,10.609,27.384ZM19.031,31H17.767V20.5h1.265Zm6.33-1.962a.931.931,0,0,0-.386-.8,3.718,3.718,0,0,0-1.347-.489,6.367,6.367,0,0,1-1.524-.492,2.169,2.169,0,0,1-.834-.684,1.635,1.635,0,0,1-.27-.943,1.919,1.919,0,0,1,.769-1.538,3,3,0,0,1,1.965-.629,3.091,3.091,0,0,1,2.041.649,2.063,2.063,0,0,1,.783,1.661H25.286a1.142,1.142,0,0,0-.441-.9,1.652,1.652,0,0,0-1.111-.376,1.729,1.729,0,0,0-1.08.3.947.947,0,0,0-.39.786.767.767,0,0,0,.362.69,4.458,4.458,0,0,0,1.309.444,6.821,6.821,0,0,1,1.535.506,2.239,2.239,0,0,1,.872.708,1.74,1.74,0,0,1,.284,1.008,1.893,1.893,0,0,1-.793,1.589,3.326,3.326,0,0,1-2.058.6,3.725,3.725,0,0,1-1.572-.314,2.557,2.557,0,0,1-1.07-.878,2.117,2.117,0,0,1-.386-1.22h1.265a1.309,1.309,0,0,0,.509,1.008,1.976,1.976,0,0,0,1.254.373,2.039,2.039,0,0,0,1.152-.291A.893.893,0,0,0,25.361,29.038ZM29.647,31H28.383V23.6h1.265ZM28.28,21.642a.755.755,0,0,1,.188-.52.706.706,0,0,1,.557-.212.717.717,0,0,1,.561.212.747.747,0,0,1,.191.52.722.722,0,0,1-.191.513.73.73,0,0,1-.561.205.718.718,0,0,1-.557-.205A.73.73,0,0,1,28.28,21.642ZM33.045,31H31.78V20.5h1.265Zm3.4,0H35.178V20.5h1.265Zm1.688-3.767a4.369,4.369,0,0,1,.427-1.955,3.187,3.187,0,0,1,1.189-1.34,3.238,3.238,0,0,1,1.74-.472,3.119,3.119,0,0,1,2.444,1.046,4.024,4.024,0,0,1,.933,2.782v.089a4.407,4.407,0,0,1-.414,1.938,3.14,3.14,0,0,1-1.183,1.336,3.275,3.275,0,0,1-1.767.479,3.111,3.111,0,0,1-2.437-1.046,4,4,0,0,1-.933-2.769Zm1.271.15a3.164,3.164,0,0,0,.571,1.976,1.934,1.934,0,0,0,3.059-.01,3.46,3.46,0,0,0,.567-2.116,3.159,3.159,0,0,0-.578-1.972,1.836,1.836,0,0,0-1.535-.755,1.816,1.816,0,0,0-1.511.745A3.434,3.434,0,0,0,39.4,27.384Z" transform="translate(604.674 12218.477)" fill="#5b4d52"/>
      <g id="Rectángulo_6725" data-name="Rectángulo 6725" transform="translate(599.424 12216)" fill="none" stroke="#5b4d52" stroke-width="1">
        <rect width="55" height="41" stroke="none"/>
        <rect x="0.5" y="0.5" width="54" height="40" fill="none"/>
      </g>
    </g>
  </g>
</svg>
