<svg xmlns="http://www.w3.org/2000/svg" width="604" height="200.921" viewBox="0 0 604 200.921">
  <g id="Grupo_61080" data-name="Grupo 61080" transform="translate(-3716.615 -4241.706)">
    <rect id="Rectángulo_7605" data-name="Rectángulo 7605" width="604" height="200.393" rx="9" transform="translate(3716.615 4241.706)" fill="#fff"/>
    <g id="Grupo_61120" data-name="Grupo 61120">
      <g id="Grupo_61080-2" data-name="Grupo 61080">
        <path id="Trazado_117308" data-name="Trazado 117308" d="M4151.067,4280.428c2.754.638,5.576-.407,8.305-1.143,9.208-2.483,18.951-1.481,28.434-.461a102.555,102.555,0,0,1,13.9,2.145q.437-1.77.872-3.539a3.4,3.4,0,0,0,.073-2.048,3.357,3.357,0,0,0-2.49-1.6,96.338,96.338,0,0,0-28.354-2.519c-9.16.39-18.612,2.938-27.71,2.735a12.044,12.044,0,0,0-.031,4.446C4146.3,4278.138,4148.7,4279.88,4151.067,4280.428Z" fill="#e3d0c5"/>
      </g>
      <g id="Grupo_61081" data-name="Grupo 61081">
        <path id="Trazado_117309" data-name="Trazado 117309" d="M4061.132,4408.312q-.8,16.469-1.595,32.936h44.6c.873-3.188.733-6.606.7-9.936a134.2,134.2,0,0,1,.6-14.1c.181-1.894,1.087-4.366,2.974-4.123a174.2,174.2,0,0,1,.524,28.159h179.506c-.729-1.437-1.512-2.893-1.057-4.33,2.032-6.425-.294-13.3-.713-20.026l-2.388-38.309a86.746,86.746,0,0,0-1.424-12.728c-.652-3.056-1.634-6.048-2.036-9.147-.282-2.18-.274-4.387-.461-6.577a57.168,57.168,0,0,0-1.908-9.916c-1.455-5.416-3.288-10.923-2.7-16.5.339-3.2,1.466-6.476.531-9.555a7.642,7.642,0,0,0-7.077-5.273c-3.741-2.77-8.721-4.549-13.247-5.633a12.853,12.853,0,0,1-3.52-1.141,19.915,19.915,0,0,1-2.152-1.644c-3.3-2.556-7.651-3.171-11.761-3.9-10.712-1.9-21.429-5.306-30-12.012a22.536,22.536,0,0,0-3.338-2.376,15.307,15.307,0,0,0-3.4-1.188,101.893,101.893,0,0,0-14-2.168c-9.483-1.02-19.226-2.022-28.434.461-2.729.736-5.551,1.781-8.305,1.143-2.786-.645-5.619-2.95-8.154-1.626-.281.147-.575.456-.429.737s.256.36-.059.324q-6.745,3.114-13.506,6.193l-16,7.314a21.366,21.366,0,0,1-2.837,1.134c-1.065.31-2.172.45-3.254.693-3.645.819-6.917,2.778-10.39,4.153-9.26,3.665-20.346,3.378-27.956,9.8-2.137,7.268-4.728,15.518-5.664,23.035-.932,7.49-1.257,15.042-1.5,22.586q-.6,18.528-.547,37.07C4060.783,4397.371,4061.4,4402.789,4061.132,4408.312Z" fill="#e1dbdd"/>
      </g>
      <g id="Grupo_61119" data-name="Grupo 61119">
        <g id="Grupo_61082" data-name="Grupo 61082">
          <path id="Trazado_117310" data-name="Trazado 117310" d="M4173.086,4437.547h-.052l.041-1h.006c.173,0,.38-.343.494-.819,1.884-7.814.071-15.949-1.682-23.816a110.766,110.766,0,0,1-2.288-12.507,105.616,105.616,0,0,1-.37-11.06c.005-3,.011-6.107-.206-9.14-.233-3.273-.733-6.585-1.217-9.786-.195-1.293-.391-2.586-.569-3.881-2.064-14.9-1.964-29.6-1.594-42.025.421-14.1,1.36-28.382,2.794-42.435.148-1.457.795-2.324,1.73-2.324h.018l-.012,1h0c-.467,0-.683.9-.738,1.426-1.431,14.029-2.369,28.282-2.788,42.362-.369,12.381-.469,27.036,1.584,41.859.179,1.29.373,2.579.568,3.869.487,3.22.989,6.55,1.226,9.865.219,3.069.213,6.191.208,9.211a105.26,105.26,0,0,0,.364,10.956,110,110,0,0,0,2.27,12.392c1.778,7.979,3.616,16.229,1.678,24.268C4174.3,4436.973,4173.773,4437.547,4173.086,4437.547Z" fill="#b2aaa6"/>
        </g>
        <g id="Grupo_61083" data-name="Grupo 61083">
          <path id="Trazado_117311" data-name="Trazado 117311" d="M4173.547,4440.008l-.744-.67c3.323-3.69,4.963-9.187,4.876-16.337-.029-2.419-.229-4.885-.422-7.269a55.781,55.781,0,0,1,.844-19.107l.222-1.236a73.826,73.826,0,0,0,1.469-16.728c-.09-1.636-.276-3.311-.455-4.932-.437-3.93-.888-8-.026-11.935.151-.689.34-1.368.53-2.048a24.523,24.523,0,0,0,.687-2.9c.427-2.832-.186-5.758-.776-8.587-.167-.8-.333-1.59-.478-2.383a90.691,90.691,0,0,1-1.1-12.51,66.578,66.578,0,0,0-.912-7.562c-.9-5.731-1.84-11.656.449-16.678a7.321,7.321,0,0,0,.112-4.187,13.017,13.017,0,0,1-.233-3.252c.041-.4.117-.819.194-1.233a3.931,3.931,0,0,0-.1-2.81,3.793,3.793,0,0,0-.273-.363,3.107,3.107,0,0,1-.513-.784,3.177,3.177,0,0,1,0-1.92c.033-.16.068-.319.092-.477a8.546,8.546,0,0,0-.978-4.383c-.492-1.17-1.109-2.445-2.211-2.761l-.444-.127,1.535-7.638.981.2-1.361,6.77c1.361.646,2.041,2.263,2.421,3.171a9.291,9.291,0,0,1,1.045,4.924c-.027.175-.064.351-.1.528a1.595,1.595,0,0,0,.313,1.867,4.84,4.84,0,0,1,.343.458,4.693,4.693,0,0,1,.239,3.53c-.072.385-.144.771-.18,1.147a12.192,12.192,0,0,0,.224,3,8.153,8.153,0,0,1-.19,4.755c-2.165,4.749-1.253,10.523-.371,16.108a68.97,68.97,0,0,1,.924,7.677,89.8,89.8,0,0,0,1.086,12.371c.143.785.308,1.571.472,2.358.609,2.916,1.24,5.931.786,8.94a24.988,24.988,0,0,1-.712,3.022c-.184.661-.37,1.322-.516,1.991-.827,3.781-.385,7.762.042,11.612.181,1.634.369,3.324.46,4.987a74.588,74.588,0,0,1-1.483,16.957l-.221,1.239a54.812,54.812,0,0,0-.832,18.849c.2,2.4.4,4.884.425,7.338C4178.769,4430.4,4177.043,4436.125,4173.547,4440.008Z" fill="#b2aaa6"/>
        </g>
        <g id="Grupo_61084" data-name="Grupo 61084">
          <path id="Trazado_117312" data-name="Trazado 117312" d="M4107.536,4412.156c-1.509,0-3.639-1.4-4.633-2.113a5.228,5.228,0,0,1-1.212-1.391l-.212-.308a19.865,19.865,0,0,0-1.66-1.97,16.808,16.808,0,0,1-3.607-5.464l-3.624-7.571.9-.432,3.623,7.572a15.85,15.85,0,0,0,3.442,5.219,21.012,21.012,0,0,1,1.74,2.07l.222.323a4.385,4.385,0,0,0,.971,1.141c2.221,1.6,4,2.183,4.437,1.828.1-.081.528-.609-.626-3.159-.057-.129-.12-.257-.182-.385a4.3,4.3,0,0,1-.352-3.639l.041-.188a23.789,23.789,0,0,0,.178-9.093l-.069-.38a10.7,10.7,0,0,1-.229-1.871,9.785,9.785,0,0,1,.462-2.671c.285-1.017.6-2.039.917-3.066,1.408-4.561,2.863-9.278,1.632-13.758a24.509,24.509,0,0,0-2.009-4.651,29.453,29.453,0,0,1-1.882-4.168,30.077,30.077,0,0,1-.956-4.18,16.77,16.77,0,0,0-1.985-6.3,8.221,8.221,0,0,0-4.219-3.308c-.217-.074-.44-.142-.665-.211a5.028,5.028,0,0,1-2.721-1.512,5.4,5.4,0,0,1-.643-1.232c-.245-.589-.457-1.1-.892-1.3a2.3,2.3,0,0,0-1.037-.089,3.559,3.559,0,0,1-1.314-.1c-1.487-.478-1.871-2.366-1.484-3.984.059-.245.127-.494.2-.743a4.307,4.307,0,0,0,.186-2.792l.916-.4a5.142,5.142,0,0,1-.139,3.458c-.065.238-.131.475-.187.71-.218.911-.19,2.475.816,2.8a2.8,2.8,0,0,0,.954.051,3.115,3.115,0,0,1,1.508.177,3.062,3.062,0,0,1,1.4,1.823,4.588,4.588,0,0,0,.514,1.01,4.165,4.165,0,0,0,2.217,1.161c.236.072.472.144.7.223a9.219,9.219,0,0,1,4.734,3.712,17.77,17.77,0,0,1,2.129,6.663,29.538,29.538,0,0,0,.92,4.043,28.513,28.513,0,0,0,1.822,4.023,25.429,25.429,0,0,1,2.085,4.844c1.308,4.763-.191,9.62-1.641,14.319-.314,1.019-.628,2.033-.91,3.04a8.932,8.932,0,0,0-.425,2.4,9.715,9.715,0,0,0,.213,1.7l.069.388a24.768,24.768,0,0,1-.185,9.479l-.041.191a4.7,4.7,0,0,0-.172,1.827,4.649,4.649,0,0,0,.446,1.158q.1.205.195.411c1.043,2.306,1.153,3.686.347,4.344A1.565,1.565,0,0,1,4107.536,4412.156Z" fill="#b2aaa6"/>
        </g>
        <g id="Grupo_61085" data-name="Grupo 61085">
          <path id="Trazado_117313" data-name="Trazado 117313" d="M4104.97,4407.931a1.9,1.9,0,0,1-1.168-.423,2.941,2.941,0,0,1-1.072-2.281,7.042,7.042,0,0,1,.581-2.338c.138-.366.277-.733.378-1.107a5.716,5.716,0,0,0-.484-4.16,11.893,11.893,0,0,0-1.608-2.132,10.9,10.9,0,0,1-1.955-2.777A5.89,5.89,0,0,1,4102,4385.5l.507.861a4.929,4.929,0,0,0-1.945,5.959,9.981,9.981,0,0,0,1.79,2.516,12.953,12.953,0,0,1,1.736,2.315,6.732,6.732,0,0,1,.568,4.9c-.109.405-.258.8-.407,1.2a6.176,6.176,0,0,0-.517,2,1.929,1.929,0,0,0,.686,1.473.827.827,0,0,0,.754.184l.265.965A1.762,1.762,0,0,1,4104.97,4407.931Z" fill="#b2aaa6"/>
        </g>
        <g id="Grupo_61086" data-name="Grupo 61086">
          <path id="Trazado_117314" data-name="Trazado 117314" d="M4233.791,4441.123l-.987-.16.018-.109.986.165Zm-1.153-4.061c-.191-.952-.464-1.928-.728-2.873l-.268-.968.965-.262.267.962c.268.961.546,1.955.745,2.943Zm-1.757-7.863c-.015-.241-.023-.483-.023-.725,0-.154,0-.309.011-.464.019-.445.069-.889.119-1.333.059-.52.115-1.01.122-1.5l1,.014c-.008.543-.069,1.082-.128,1.6-.048.422-.1.844-.114,1.267-.007.14-.01.28-.01.418,0,.22.008.441.022.663Zm-.159-7.932a14.559,14.559,0,0,1-.129-1.784,8.915,8.915,0,0,1,.317-2.379l.965.264a7.774,7.774,0,0,0-.282,2.115,13.572,13.572,0,0,0,.121,1.659Zm2.129-7.845-.994-.113a34.226,34.226,0,0,0,.147-3.49l0-.452,1,.01,0,.452A34.581,34.581,0,0,1,4232.851,4413.422Zm.27-8.018-1-.058a36.328,36.328,0,0,1,.436-4.03l.987.168A35.158,35.158,0,0,0,4233.121,4405.4Zm1.391-7.716-.947-.321c.45-1.333,1-2.649,1.471-3.761l.92.393C4235.488,4395.093,4234.952,4396.387,4234.512,4397.688Zm3.029-7.359-.918-.4,1.588-3.671.918.4Zm3.176-7.343-.918-.4,1.588-3.671.918.4Zm3.175-7.341-.918-.4,1.588-3.671.918.4Zm3.177-7.343-.918-.4,1.588-3.672.918.4Zm3.156-7.36-.924-.382c.508-1.228,1-2.46,1.473-3.7l.936.354C4251.236,4358.463,4250.737,4359.705,4250.225,4360.942Zm2.821-7.528-.953-.305q.233-.721.449-1.449c.233-.785.45-1.576.661-2.367l.967.258c-.215.8-.434,1.6-.669,2.393C4253.355,4352.436,4253.2,4352.925,4253.046,4353.414Zm2.161-7.721-.963-.271c.426-1.507.82-2.729,1.241-3.846l.936.354C4256.009,4343.019,4255.624,4344.215,4255.207,4345.693Zm2.8-7.384-.9-.438c.6-1.23,1.238-2.439,1.842-3.571l.883.471C4259.229,4335.9,4258.594,4337.093,4258,4338.309Zm3.705-7.114-.459-.2-.424-.265c.581-1.152,1.152-2.35,1.688-3.549l.912.408C4262.883,4328.8,4262.305,4330.015,4261.708,4331.195Zm3.268-7.321-.931-.363c.477-1.226.931-2.484,1.349-3.738l.949.317C4265.92,4321.359,4265.46,4322.633,4264.976,4323.874Zm2.547-7.633-.963-.269c.357-1.272.685-2.568.978-3.853l.974.223C4268.216,4313.643,4267.883,4314.954,4267.523,4316.241Z" fill="#b2aaa6"/>
        </g>
        <g id="Grupo_61087" data-name="Grupo 61087">
          <path id="Trazado_117315" data-name="Trazado 117315" d="M4238.3,4439.577a83.409,83.409,0,0,0-4.694-23.409l.942-.334a84.438,84.438,0,0,1,4.751,23.688Z" fill="#b2aaa6"/>
        </g>
        <g id="Grupo_61088" data-name="Grupo 61088">
          <path id="Trazado_117316" data-name="Trazado 117316" d="M4236.473,4390.039l-1-.006a64.346,64.346,0,0,1,13.178-38.516l.795.607A63.346,63.346,0,0,0,4236.473,4390.039Z" fill="#b2aaa6"/>
        </g>
        <g id="Grupo_61089" data-name="Grupo 61089">
          <path id="Trazado_117317" data-name="Trazado 117317" d="M4239.888,4396.323l-.6-.8,6.158-4.622a47.213,47.213,0,0,0,11.88-11.609c1.723-2.21,3.369-4.577,2.928-7.075l.984-.174c.513,2.9-1.343,5.581-3.123,7.864a48.169,48.169,0,0,1-12.07,11.794Z" fill="#b2aaa6"/>
        </g>
        <g id="Grupo_61090" data-name="Grupo 61090">
          <path id="Trazado_117318" data-name="Trazado 117318" d="M4204.5,4442.627c-1.573-6.467-.83-13.7,2.334-22.773.98-2.812,2.115-5.618,3.212-8.331a116.172,116.172,0,0,0,4.707-13.137,118.414,118.414,0,0,0,2.911-18.562c.916-8.9,1.864-18.1,5.721-26.327,1.7-3.629,3.825-5.6,6.307-5.845l.1.994c-2.108.212-3.959,1.987-5.5,5.275-3.787,8.073-4.726,17.189-5.633,26.006a119,119,0,0,1-2.942,18.719,116.391,116.391,0,0,1-4.745,13.252c-1.092,2.7-2.221,5.5-3.2,8.286-3.1,8.879-3.83,15.935-2.3,22.207Z" fill="#b2aaa6"/>
        </g>
        <g id="Grupo_61091" data-name="Grupo 61091">
          <path id="Trazado_117319" data-name="Trazado 117319" d="M4273.836,4413.522c-3.344-4.45-4.7-10.587-4.143-18.764.144-2.116.39-4.261.626-6.334a66.776,66.776,0,0,0,.638-12.8c-.162-2.015-.517-4.052-.86-6.022-.267-1.541-.544-3.135-.73-4.721-1.133-9.617.93-19.154,2.928-28.378l.976.211c-1.978,9.144-4.024,18.6-2.912,28.05.184,1.558.458,3.138.724,4.667.346,1.992.705,4.053.87,6.113a67.488,67.488,0,0,1-.64,13c-.236,2.063-.48,4.194-.622,6.289-.54,7.927.75,13.846,3.943,18.095Z" fill="#b2aaa6"/>
        </g>
        <g id="Grupo_61092" data-name="Grupo 61092">
          <path id="Trazado_117320" data-name="Trazado 117320" d="M4118.665,4440.17a10.026,10.026,0,0,0-1.961-5.852c-.2-.273-.422-.539-.641-.8a6.13,6.13,0,0,1-1.881-5.042v-.353a46.974,46.974,0,0,0-1.628-10.328c-.267-1.138-.632-2.389-1.583-2.828l.42-.908c1.474.681,1.9,2.52,2.136,3.508a47.63,47.63,0,0,1,1.655,10.55v.359a5.193,5.193,0,0,0,1.654,4.407c.229.279.458.558.67.844a11.028,11.028,0,0,1,2.159,6.44Z" fill="#b2aaa6"/>
        </g>
        <g id="Grupo_61093" data-name="Grupo 61093">
          <rect id="Rectángulo_7659" data-name="Rectángulo 7659" width="5.033" height="1" transform="matrix(0.949, -0.314, 0.314, 0.949, 4175.369, 4291.911)" fill="#b2aaa6"/>
        </g>
        <g id="Grupo_61094" data-name="Grupo 61094">
          <rect id="Rectángulo_7660" data-name="Rectángulo 7660" width="3.546" height="0.999" transform="translate(4175.167 4296.752) rotate(-4.373)" fill="#b2aaa6"/>
        </g>
        <g id="Grupo_61095" data-name="Grupo 61095">
          <rect id="Rectángulo_7661" data-name="Rectángulo 7661" width="1" height="3.032" transform="matrix(0.001, -1, 1, 0.001, 4176.965, 4303.559)" fill="#b2aaa6"/>
        </g>
        <g id="Grupo_61096" data-name="Grupo 61096">
          <rect id="Rectángulo_7662" data-name="Rectángulo 7662" width="4.05" height="1" transform="matrix(0.998, -0.064, 0.064, 0.998, 4176.169, 4309.409)" fill="#b2aaa6"/>
        </g>
        <g id="Grupo_61097" data-name="Grupo 61097">
          <rect id="Rectángulo_7663" data-name="Rectángulo 7663" width="3.822" height="1" transform="translate(4175.878 4314.483) rotate(-7.972)" fill="#b2aaa6"/>
        </g>
        <g id="Grupo_61098" data-name="Grupo 61098">
          <rect id="Rectángulo_7664" data-name="Rectángulo 7664" width="5.054" height="1.001" transform="translate(4175.387 4320.056) rotate(-5.488)" fill="#b2aaa6"/>
        </g>
        <g id="Grupo_61099" data-name="Grupo 61099">
          <path id="Trazado_117321" data-name="Trazado 117321" d="M4175.567,4328.277l-.3-.953a6.409,6.409,0,0,1,2.745-.247l-.129.992A5.45,5.45,0,0,0,4175.567,4328.277Z" fill="#b2aaa6"/>
        </g>
        <g id="Grupo_61100" data-name="Grupo 61100">
          <path id="Trazado_117322" data-name="Trazado 117322" d="M4179.713,4336.7a5.71,5.71,0,0,1-2.514-.581l.441-.9a4.71,4.71,0,0,0,2.747.428l.147.989A5.5,5.5,0,0,1,4179.713,4336.7Z" fill="#b2aaa6"/>
        </g>
        <g id="Grupo_61101" data-name="Grupo 61101">
          <path id="Trazado_117323" data-name="Trazado 117323" d="M4177.5,4342.534l-.139-.99a8.8,8.8,0,0,0,3.539-1.318l.543.839A9.81,9.81,0,0,1,4177.5,4342.534Z" fill="#b2aaa6"/>
        </g>
        <g id="Grupo_61102" data-name="Grupo 61102">
          <path id="Trazado_117324" data-name="Trazado 117324" d="M4179.043,4347.591l-.188-.983a15.728,15.728,0,0,0,3.614-1.152l.416.91A16.774,16.774,0,0,1,4179.043,4347.591Z" fill="#b2aaa6"/>
        </g>
        <g id="Grupo_61103" data-name="Grupo 61103">
          <path id="Trazado_117325" data-name="Trazado 117325" d="M4179.268,4352.889l-.517-.856a5.037,5.037,0,0,1,3.872-.56l-.254.966A4.1,4.1,0,0,0,4179.268,4352.889Z" fill="#b2aaa6"/>
        </g>
        <g id="Grupo_61104" data-name="Grupo 61104">
          <path id="Trazado_117326" data-name="Trazado 117326" d="M4182.822,4358.381a2.818,2.818,0,0,0-2.409-.178l-.371-.928a3.786,3.786,0,0,1,3.282.241Z" fill="#b2aaa6"/>
        </g>
        <g id="Grupo_61105" data-name="Grupo 61105">
          <rect id="Rectángulo_7665" data-name="Rectángulo 7665" width="3.322" height="1.001" transform="translate(4177.828 4363.263) rotate(-9.775)" fill="#b2aaa6"/>
        </g>
        <g id="Grupo_61106" data-name="Grupo 61106">
          <rect id="Rectángulo_7666" data-name="Rectángulo 7666" width="2.328" height="1" transform="translate(4178.539 4368.277) rotate(-13.901)" fill="#b2aaa6"/>
        </g>
        <g id="Grupo_61107" data-name="Grupo 61107">
          <rect id="Rectángulo_7667" data-name="Rectángulo 7667" width="2.575" height="1" transform="matrix(0.975, -0.223, 0.223, 0.975, 4178.557, 4374.668)" fill="#b2aaa6"/>
        </g>
        <g id="Grupo_61108" data-name="Grupo 61108">
          <path id="Trazado_117327" data-name="Trazado 117327" d="M4179.664,4381.6c-.079,0-.159,0-.241-.012a2.275,2.275,0,0,1-1.545-.805l.777-.629a1.345,1.345,0,0,0,1.805.178l.638.77A2.247,2.247,0,0,1,4179.664,4381.6Z" fill="#b2aaa6"/>
        </g>
        <g id="Grupo_61109" data-name="Grupo 61109">
          <path id="Trazado_117328" data-name="Trazado 117328" d="M4178.633,4387.134a4.542,4.542,0,0,1-2.014-.466l.445-.9a3.627,3.627,0,0,0,3.311-.086l.492.871A4.564,4.564,0,0,1,4178.633,4387.134Z" fill="#b2aaa6"/>
        </g>
        <g id="Grupo_61110" data-name="Grupo 61110">
          <path id="Trazado_117329" data-name="Trazado 117329" d="M4181.486,4391.7a8.494,8.494,0,0,0-4.552-.348l-.2-.981a9.358,9.358,0,0,1,5.1.39Z" fill="#b2aaa6"/>
        </g>
        <g id="Grupo_61111" data-name="Grupo 61111">
          <path id="Trazado_117330" data-name="Trazado 117330" d="M4176.755,4397.507l-.315-.949a11.212,11.212,0,0,1,4.5-.515l-.092,1A10.149,10.149,0,0,0,4176.755,4397.507Z" fill="#b2aaa6"/>
        </g>
        <g id="Grupo_61112" data-name="Grupo 61112">
          <path id="Trazado_117331" data-name="Trazado 117331" d="M4176.446,4402.178l-.725-.69a4.652,4.652,0,0,1,3.123-1.424l.045,1A3.638,3.638,0,0,0,4176.446,4402.178Z" fill="#b2aaa6"/>
        </g>
        <g id="Grupo_61113" data-name="Grupo 61113">
          <rect id="Rectángulo_7668" data-name="Rectángulo 7668" width="2.881" height="1.001" transform="translate(4175.711 4405.98) rotate(-16.207)" fill="#b2aaa6"/>
        </g>
        <g id="Grupo_61114" data-name="Grupo 61114">
          <path id="Trazado_117332" data-name="Trazado 117332" d="M4176.5,4411.472l-.293-.955a8.308,8.308,0,0,0,3.07-1.735l.666.746A9.28,9.28,0,0,1,4176.5,4411.472Z" fill="#b2aaa6"/>
        </g>
        <g id="Grupo_61115" data-name="Grupo 61115">
          <path id="Trazado_117333" data-name="Trazado 117333" d="M4176.77,4418.579l-.523-.852,1.846-1.138.523.852Z" fill="#b2aaa6"/>
        </g>
        <g id="Grupo_61116" data-name="Grupo 61116">
          <path id="Trazado_117334" data-name="Trazado 117334" d="M4178.083,4423.56l-1.767,0v-1l1.768,0Z" fill="#b2aaa6"/>
        </g>
        <g id="Grupo_61117" data-name="Grupo 61117">
          <rect id="Rectángulo_7669" data-name="Rectángulo 7669" width="1" height="1.924" transform="translate(4176.86 4427.876) rotate(-68.436)" fill="#b2aaa6"/>
        </g>
        <g id="Grupo_61118" data-name="Grupo 61118">
          <path id="Trazado_117335" data-name="Trazado 117335" d="M4177.916,4433.41a1.378,1.378,0,0,1-.805-.268,1.344,1.344,0,0,1-.557-.935l.994-.1a.388.388,0,0,0,.416.3l.206.979A1.273,1.273,0,0,1,4177.916,4433.41Z" fill="#b2aaa6"/>
        </g>
      </g>
    </g>
    <g id="Grupo_60986" data-name="Grupo 60986">
      <g id="Grupo_61121" data-name="Grupo 61121">
        <path id="Trazado_117336" data-name="Trazado 117336" d="M4095.88,4326.357a52.552,52.552,0,0,0-8.061-8.919,25.913,25.913,0,0,0,.562-3.839c-.078-.7-2.3-1.507-2.3-1.507a3.638,3.638,0,0,0,0-2.778c-.6-1.566-13.332-4.463-15.25-3.819-1.46.488-7.751,4.893-13.912,10.957-1.783,1.755-4.5,4.709-6.826,5.608-.179.069-29.97,15.293-30.926,16.028v26.667c7.969-6.178,39.081-24.49,39.1-24.553.157-.448,10.132,1.39,18.731-.641,3.8-.9,7.534-2.578,11.386-3.447a32.127,32.127,0,0,1,4.056-.629,1.352,1.352,0,0,1,.177-.021s1.535-3.363-1.372-4.512c-4.088-1.609-5.31-.029-12.659,1.408l-.391.049a16.513,16.513,0,0,1-1.954.033c-.319-.239-.448-1.154-.493-2.169a4.088,4.088,0,0,1,2.909-4.11l7.05-2.088s6.759,4.212,7.77,4.78c1.919,1.076,2.657.756,2.956.356a1.525,1.525,0,0,0,.1-.149C4096.847,4328.436,4096.541,4327.466,4095.88,4326.357Z" fill="#ffa780"/>
      </g>
      <g id="Grupo_60984" data-name="Grupo 60984">
        <g id="Trazado_116787" data-name="Trazado 116787">
          <path id="Trazado_117337" data-name="Trazado 117337" d="M4096.546,4329.061c-.055.065-.1.1-.1.116a1.348,1.348,0,0,1-.3-.089,2.266,2.266,0,0,1-1.4-1.535l1.157-1.2C4096.547,4327.458,4096.852,4328.427,4096.546,4329.061Z" fill="#f2d1c2"/>
        </g>
      </g>
      <g id="Trazado_116788" data-name="Trazado 116788">
        <path id="Trazado_117338" data-name="Trazado 117338" d="M4087.81,4317.254c-1.08-.637-11.218.36-11.655.4a4.271,4.271,0,0,0-.237.393s11.072-.943,11.795-.515A1.311,1.311,0,0,0,4087.81,4317.254Z" fill="#dd886b"/>
      </g>
      <g id="Trazado_116789" data-name="Trazado 116789">
        <path id="Trazado_117339" data-name="Trazado 117339" d="M4086.125,4311.979c0-.022-11.618-2.62-11.618-2.62v.379l11.542,2.49A1.188,1.188,0,0,0,4086.125,4311.979Z" fill="#dd886b"/>
      </g>
      <g id="Grupo_60985" data-name="Grupo 60985">
        <g id="Trazado_116790" data-name="Trazado 116790">
          <path id="Trazado_117340" data-name="Trazado 117340" d="M4088.318,4333.7a2.262,2.262,0,0,0,.071,2.419,31.9,31.9,0,0,1,4.056-.629,2.266,2.266,0,0,0-4.126-1.789Z" fill="#f2d1c2"/>
        </g>
      </g>
    </g>
    <g id="Grupo_60983" data-name="Grupo 60983">
      <g id="Grupo_60977" data-name="Grupo 60977">
        <g id="Trazado_116780" data-name="Trazado 116780">
          <path id="Trazado_117341" data-name="Trazado 117341" d="M4095.869,4360.654c2.256,5.63.869,12.942.869,12.942l-4.539.354a31.2,31.2,0,0,1-.987,3.016l-4.506-1.5.558-8.822s-8.806,1.68-10.7-1.308a1.764,1.764,0,0,1,.937-2.816s.639-.129,1.653-.3c-.407-1.5,1.284-2.062,1.284-2.062S4094.743,4357.844,4095.869,4360.654Z" fill="#dd886b"/>
        </g>
      </g>
      <g id="Grupo_61122" data-name="Grupo 61122">
        <path id="Trazado_117342" data-name="Trazado 117342" d="M4102.392,4352.707c-.5-.665-.987-1.329-1.461-1.942-.305-.4-.6-.778-.887-1.127a17.844,17.844,0,0,0-2.068-2.3,1.031,1.031,0,0,0-.223-.141c-1.062-.4-2.492,1.758-2.16,3.938.367,2.412,3.7,6.885,3.7,6.885l-2.969,5.507a5.365,5.365,0,0,1-5.468,3.126c-3.78-.407-7.115-2.659-5.45-4.475,5.342-5.828,8.474-7.75,9.188-12.085.51-3.086-3.157-3.5-3.157-3.5a1,1,0,0,1-.116.146,31.67,31.67,0,0,1-2.627,3.157,41.963,41.963,0,0,1-8.588,6.408c-6.991,4.572-10.364,7.374-14.787,13.511-1.7,2.354-27.228,11.934-46.148,19.761v27.439c22.929-13.617,53.13-28.351,54.218-28.59,6.7-1.495,20.9-6.254,28.078-14.347,3.046-3.437,4.819-13.717,5.13-14.6C4106.755,4359.017,4104.617,4355.757,4102.392,4352.707Z" fill="#ffa780"/>
      </g>
      <g id="Grupo_60978" data-name="Grupo 60978">
        <g id="Trazado_116782" data-name="Trazado 116782">
          <path id="Trazado_117343" data-name="Trazado 117343" d="M4100.277,4375.2s6.843-8.339,6.569-10.985-10.69-16.1-10.69-16.1-2.058-.194-2.083,3.037c-.028,3.921,5.1,13.759,5.1,13.759l-7.689,6.7Z" fill="#ffa780"/>
        </g>
      </g>
      <g id="Grupo_60979" data-name="Grupo 60979">
        <g id="Rectángulo_7654" data-name="Rectángulo 7654">
          <rect id="Rectángulo_7670" data-name="Rectángulo 7670" width="8.683" height="0.294" transform="translate(4102.241 4369.569) rotate(-65.609)" fill="#dd886b"/>
        </g>
      </g>
      <g id="Grupo_60980" data-name="Grupo 60980">
        <g id="Trazado_116783" data-name="Trazado 116783">
          <path id="Trazado_117344" data-name="Trazado 117344" d="M4095.8,4349.947a8.9,8.9,0,0,1,.209-1.871l.287.063c-1.163,5.289,3.059,9.733,3.1,9.777l.068.071-.04.091a31.168,31.168,0,0,1-2.233,4.441l-.174-.235a30.13,30.13,0,0,0,2.1-4.235A13.02,13.02,0,0,1,4095.8,4349.947Z" fill="#dd886b"/>
        </g>
      </g>
      <g id="Grupo_60981" data-name="Grupo 60981">
        <g id="Trazado_116784" data-name="Trazado 116784">
          <path id="Trazado_117345" data-name="Trazado 117345" d="M4097.987,4350.927a2.266,2.266,0,0,1-.422-3.177,2.3,2.3,0,0,1,.411-.413,17.715,17.715,0,0,1,2.068,2.3C4099.19,4350.188,4098.4,4350.676,4097.987,4350.927Z" fill="#f2d1c2"/>
        </g>
      </g>
      <g id="Grupo_60982" data-name="Grupo 60982">
        <g id="Trazado_116785" data-name="Trazado 116785">
          <path id="Trazado_117346" data-name="Trazado 117346" d="M4090.73,4351.2a2.262,2.262,0,0,1-2.037-1.306,31.647,31.647,0,0,0,2.627-3.157,2.267,2.267,0,0,1-.59,4.46Z" fill="#f2d1c2"/>
        </g>
      </g>
    </g>
    <g id="Grupo_61124" data-name="Grupo 61124" opacity="0.33">
      <g id="Grupo_61123" data-name="Grupo 61123">
        <path id="Trazado_117347" data-name="Trazado 117347" d="M4166.473,4285.13l1.784,74.412c.565,23.555,3.657,47.019,2.383,70.59-.391,7.235,10.861,7.213,11.25,0,1.274-23.571-1.818-47.035-2.383-70.59l-1.784-74.412c-.173-7.227-11.424-7.254-11.25,0Z" fill="#b2aaa6"/>
      </g>
    </g>
    <g id="Grupo_61126" data-name="Grupo 61126" opacity="0.33">
      <g id="Grupo_61125" data-name="Grupo 61125">
        <path id="Trazado_117348" data-name="Trazado 117348" d="M4108.61,4404.7c-1.026-6.766-.3-13.171,1.232-19.774,1.485-6.411,1.214-11.461-2.153-17.214-1.418-2.423-2.891-4.6-3.647-7.337-.746-2.694-.962-5.509-1.721-8.2a21.116,21.116,0,0,0-3.541-7.231c-1.019-1.334-4.33-3.739-4.524-5.4-.825-7.106-12.085-7.19-11.25,0a14.33,14.33,0,0,0,2.623,7.295c1.555,2.153,3.86,3.847,5.1,6.2,2.672,5.091,2.14,11.314,4.961,16.531,1.219,2.255,3.324,4.544,3.859,7.087.709,3.375-1.131,7.122-1.72,10.435a62.5,62.5,0,0,0-.063,20.6c1.081,7.135,11.923,4.1,10.848-2.991Z" fill="#b2aaa6"/>
      </g>
    </g>
    <g id="Grupo_61128" data-name="Grupo 61128" opacity="0.33">
      <g id="Grupo_61127" data-name="Grupo 61127">
        <path id="Trazado_117349" data-name="Trazado 117349" d="M4103.925,4406.979a159.031,159.031,0,0,1,12.213,29.065c2.126,6.9,12.989,3.956,10.848-2.991a174.166,174.166,0,0,0-13.347-31.752c-3.452-6.367-13.169-.694-9.714,5.678Z" fill="#b2aaa6"/>
      </g>
    </g>
    <g id="Grupo_61130" data-name="Grupo 61130" opacity="0.33">
      <g id="Grupo_61129" data-name="Grupo 61129">
        <path id="Trazado_117350" data-name="Trazado 117350" d="M4241.406,4350.832c-12.058,26.7-11.568,55.95-10.413,84.628.29,7.215,11.542,7.252,11.25,0-1.063-26.4-2.257-54.3,8.877-78.95,2.956-6.546-6.736-12.273-9.714-5.678Z" fill="#b2aaa6"/>
      </g>
    </g>
    <g id="Grupo_61171" data-name="Grupo 61171">
      <g id="Grupo_61131" data-name="Grupo 61131">
        <path id="Trazado_117351" data-name="Trazado 117351" d="M3825.3,4280.428c2.754.638,5.576-.407,8.305-1.143,9.208-2.483,18.951-1.481,28.433-.461a102.541,102.541,0,0,1,13.905,2.145l.873-3.539a3.406,3.406,0,0,0,.073-2.048,3.358,3.358,0,0,0-2.491-1.6,96.327,96.327,0,0,0-28.353-2.519c-9.161.39-18.612,2.938-27.71,2.735a12.039,12.039,0,0,0-.031,4.446C3820.524,4278.138,3822.927,4279.88,3825.3,4280.428Z" fill="#e3d0c5"/>
      </g>
      <g id="Grupo_61132" data-name="Grupo 61132">
        <path id="Trazado_117352" data-name="Trazado 117352" d="M3735.361,4408.312q-.8,16.469-1.6,32.936h44.6c.873-3.188.733-6.606.7-9.936a134.4,134.4,0,0,1,.6-14.1c.181-1.894,1.088-4.366,2.975-4.123a174.2,174.2,0,0,1,.524,28.159h179.506c-.73-1.437-1.512-2.893-1.058-4.33,2.033-6.425-.294-13.3-.713-20.026q-1.192-19.154-2.387-38.309a86.848,86.848,0,0,0-1.425-12.728c-.651-3.056-1.634-6.048-2.035-9.147-.283-2.18-.274-4.387-.461-6.577a57.145,57.145,0,0,0-1.908-9.916c-1.455-5.416-3.288-10.923-2.7-16.5.339-3.2,1.466-6.476.531-9.555a7.643,7.643,0,0,0-7.077-5.273c-3.742-2.77-8.721-4.549-13.248-5.633a12.867,12.867,0,0,1-3.52-1.141,19.971,19.971,0,0,1-2.151-1.644c-3.3-2.556-7.651-3.171-11.761-3.9-10.713-1.9-21.429-5.306-30-12.012a22.526,22.526,0,0,0-3.338-2.376,15.318,15.318,0,0,0-3.394-1.188,101.911,101.911,0,0,0-14-2.168c-9.482-1.02-19.225-2.022-28.433.461-2.729.736-5.551,1.781-8.305,1.143-2.786-.645-5.62-2.95-8.154-1.626-.281.147-.576.456-.43.737s.257.36-.058.324q-6.746,3.114-13.506,6.193l-16,7.314a21.368,21.368,0,0,1-2.838,1.134c-1.065.31-2.171.45-3.253.693-3.646.819-6.917,2.778-10.391,4.153-9.259,3.665-20.346,3.378-27.956,9.8-2.136,7.268-4.728,15.518-5.663,23.035-.932,7.49-1.257,15.042-1.5,22.586q-.6,18.528-.546,37.07C3735.011,4397.371,3735.629,4402.789,3735.361,4408.312Z" fill="#e1dbdd"/>
      </g>
      <g id="Grupo_61170" data-name="Grupo 61170">
        <g id="Grupo_61133" data-name="Grupo 61133">
          <path id="Trazado_117353" data-name="Trazado 117353" d="M3847.313,4437.547h-.051l.041-1h.006c.172,0,.38-.343.495-.819,1.883-7.815.07-15.951-1.683-23.818a111.17,111.17,0,0,1-2.288-12.505,105.673,105.673,0,0,1-.369-11.056c0-3,.011-6.11-.206-9.144-.234-3.273-.734-6.585-1.217-9.786-.2-1.293-.391-2.586-.569-3.881-2.064-14.9-1.964-29.6-1.594-42.025.421-14.114,1.36-28.391,2.793-42.435.148-1.457.8-2.324,1.731-2.324h.018l-.012,1h0c-.468,0-.684.9-.739,1.426-1.43,14.02-2.367,28.273-2.787,42.362-.369,12.381-.469,27.036,1.584,41.859.179,1.29.373,2.579.568,3.869.487,3.22.989,6.55,1.226,9.865.219,3.07.213,6.194.208,9.215a105.115,105.115,0,0,0,.363,10.952,110.315,110.315,0,0,0,2.27,12.39c1.778,7.98,3.616,16.23,1.679,24.27C3848.533,4436.973,3848,4437.547,3847.313,4437.547Z" fill="#b2aaa6"/>
        </g>
        <g id="Grupo_61134" data-name="Grupo 61134">
          <path id="Trazado_117354" data-name="Trazado 117354" d="M3847.776,4440.008l-.744-.67c3.322-3.69,4.963-9.187,4.876-16.337-.029-2.419-.229-4.884-.422-7.267a55.779,55.779,0,0,1,.842-19.1l.224-1.248a73.958,73.958,0,0,0,1.469-16.728c-.09-1.637-.276-3.312-.457-4.933-.436-3.93-.887-7.994-.025-11.934.15-.688.34-1.366.53-2.045a24.686,24.686,0,0,0,.688-2.9c.427-2.831-.186-5.757-.777-8.586-.167-.8-.333-1.59-.477-2.383a90.775,90.775,0,0,1-1.1-12.51,66.756,66.756,0,0,0-.912-7.564c-.9-5.73-1.84-11.655.45-16.676a7.326,7.326,0,0,0,.112-4.188,12.964,12.964,0,0,1-.234-3.251c.04-.4.118-.818.2-1.232a2.794,2.794,0,0,0-.374-3.175,3.128,3.128,0,0,1-.513-.782,3.187,3.187,0,0,1-.005-1.918c.033-.161.068-.321.092-.479a8.545,8.545,0,0,0-.978-4.384c-.491-1.17-1.108-2.445-2.211-2.761l-.443-.127,1.534-7.638.981.2-1.361,6.77c1.362.646,2.041,2.263,2.422,3.171a9.283,9.283,0,0,1,1.044,4.924c-.027.175-.064.353-.1.531a2.388,2.388,0,0,0-.05,1.331,2.361,2.361,0,0,0,.364.532,4.852,4.852,0,0,1,.343.459,4.693,4.693,0,0,1,.238,3.532c-.071.385-.144.77-.18,1.145a12.186,12.186,0,0,0,.225,3,8.155,8.155,0,0,1-.19,4.756c-2.164,4.748-1.253,10.523-.371,16.106a68.968,68.968,0,0,1,.923,7.679,89.967,89.967,0,0,0,1.087,12.371c.143.785.308,1.571.472,2.358.609,2.916,1.24,5.931.786,8.94a25.176,25.176,0,0,1-.713,3.025c-.184.66-.37,1.32-.516,1.989-.828,3.779-.385,7.76.043,11.609.181,1.635.369,3.325.46,4.989a74.774,74.774,0,0,1-1.483,16.957l-.223,1.25a54.847,54.847,0,0,0-.831,18.84c.2,2.4.4,4.883.426,7.336C3853,4430.4,3851.271,4436.125,3847.776,4440.008Z" fill="#b2aaa6"/>
        </g>
        <g id="Grupo_61135" data-name="Grupo 61135">
          <path id="Trazado_117355" data-name="Trazado 117355" d="M3781.764,4412.156c-1.509,0-3.638-1.4-4.632-2.113a5.183,5.183,0,0,1-1.211-1.389l-.213-.31a20.063,20.063,0,0,0-1.66-1.97,16.791,16.791,0,0,1-3.608-5.464l-3.623-7.571.9-.432,3.623,7.572a15.8,15.8,0,0,0,3.441,5.218,21,21,0,0,1,1.74,2.071l.224.325a4.4,4.4,0,0,0,.969,1.139c2.221,1.6,4,2.183,4.438,1.828.1-.081.528-.609-.626-3.159-.059-.13-.122-.26-.185-.389a4.293,4.293,0,0,1-.349-3.635l.041-.188a23.8,23.8,0,0,0,.178-9.093l-.068-.368a10.627,10.627,0,0,1-.23-1.884,9.782,9.782,0,0,1,.461-2.67c.285-1.015.6-2.036.916-3.062,1.409-4.562,2.865-9.281,1.634-13.762a24.594,24.594,0,0,0-2.01-4.653,29.317,29.317,0,0,1-1.882-4.166,30.2,30.2,0,0,1-.955-4.179,16.775,16.775,0,0,0-1.985-6.3,8.224,8.224,0,0,0-4.219-3.308c-.217-.074-.44-.142-.665-.211a5.028,5.028,0,0,1-2.721-1.512,5.375,5.375,0,0,1-.644-1.233c-.245-.589-.457-1.1-.891-1.3a2.3,2.3,0,0,0-1.038-.089,3.564,3.564,0,0,1-1.313-.1c-1.487-.478-1.872-2.366-1.484-3.984.059-.245.127-.494.2-.743a4.3,4.3,0,0,0,.187-2.792l.916-.4a5.142,5.142,0,0,1-.139,3.458c-.065.238-.132.475-.187.71-.218.911-.19,2.475.816,2.8a2.805,2.805,0,0,0,.954.051,3.131,3.131,0,0,1,1.508.177,3.064,3.064,0,0,1,1.4,1.822,4.588,4.588,0,0,0,.515,1.011,4.167,4.167,0,0,0,2.217,1.161c.236.072.472.144.7.223a9.229,9.229,0,0,1,4.734,3.712,17.762,17.762,0,0,1,2.128,6.665,29.583,29.583,0,0,0,.92,4.041,28.608,28.608,0,0,0,1.822,4.022,25.417,25.417,0,0,1,2.086,4.845c1.308,4.764-.193,9.624-1.643,14.323-.314,1.018-.627,2.031-.909,3.036a8.888,8.888,0,0,0-.424,2.4,9.662,9.662,0,0,0,.214,1.706l.068.376a24.763,24.763,0,0,1-.185,9.48l-.041.191a3.374,3.374,0,0,0,.271,2.982q.1.207.2.414c1.043,2.305,1.154,3.686.348,4.344A1.569,1.569,0,0,1,3781.764,4412.156Z" fill="#b2aaa6"/>
        </g>
        <g id="Grupo_61136" data-name="Grupo 61136">
          <path id="Trazado_117356" data-name="Trazado 117356" d="M3779.2,4407.931a1.9,1.9,0,0,1-1.167-.422,2.944,2.944,0,0,1-1.072-2.282,7.024,7.024,0,0,1,.58-2.336c.138-.367.276-.733.378-1.108a5.715,5.715,0,0,0-.483-4.161,11.929,11.929,0,0,0-1.608-2.132,10.911,10.911,0,0,1-1.955-2.777,5.888,5.888,0,0,1,2.355-7.217l.507.861a4.928,4.928,0,0,0-1.944,5.959,9.963,9.963,0,0,0,1.79,2.516,12.925,12.925,0,0,1,1.735,2.315,6.725,6.725,0,0,1,.568,4.9c-.11.406-.258.8-.407,1.2a6.163,6.163,0,0,0-.516,2,1.925,1.925,0,0,0,.686,1.473.819.819,0,0,0,.752.184l.266.965A1.761,1.761,0,0,1,3779.2,4407.931Z" fill="#b2aaa6"/>
        </g>
        <g id="Grupo_61137" data-name="Grupo 61137">
          <path id="Trazado_117357" data-name="Trazado 117357" d="M3908.019,4441.126l-.987-.166c.375-2.234-.24-4.436-.891-6.765a19.842,19.842,0,0,1-1.043-6.184c.019-.445.069-.887.119-1.329a12.843,12.843,0,0,0,.121-1.768,23.556,23.556,0,0,0-.275-2.823,10.791,10.791,0,0,1,.324-5.764,17.91,17.91,0,0,0,.844-6.508l.005-.474a42.087,42.087,0,0,1,.961-9.97,45.829,45.829,0,0,1,2.551-6.893l11.747-27.155a123.194,123.194,0,0,0,5.276-13.668c.345-1.167.657-2.345.967-3.523a50.132,50.132,0,0,1,5.7-14.325c.543-1.02,1.086-2.04,1.608-3.068a81.057,81.057,0,0,0,6.723-18.624l.974.223a82.008,82.008,0,0,1-6.8,18.852c-.525,1.036-1.073,2.062-1.62,3.087a49.2,49.2,0,0,0-5.612,14.111c-.313,1.187-.627,2.375-.976,3.551a124.039,124.039,0,0,1-5.316,13.781l-11.747,27.155a45.016,45.016,0,0,0-2.5,6.741,41.233,41.233,0,0,0-.93,9.735l-.005.474a18.885,18.885,0,0,1-.905,6.839,9.863,9.863,0,0,0-.273,5.284,24.26,24.26,0,0,1,.285,2.939,13.8,13.8,0,0,1-.127,1.9c-.048.42-.1.84-.115,1.262a19.121,19.121,0,0,0,1.008,5.87C3907.756,4436.259,3908.431,4438.671,3908.019,4441.126Z" fill="#b2aaa6"/>
        </g>
        <g id="Grupo_61138" data-name="Grupo 61138">
          <path id="Trazado_117358" data-name="Trazado 117358" d="M3912.525,4439.577a83.417,83.417,0,0,0-4.695-23.409l.941-.334a84.411,84.411,0,0,1,4.752,23.688Z" fill="#b2aaa6"/>
        </g>
        <g id="Grupo_61139" data-name="Grupo 61139">
          <path id="Trazado_117359" data-name="Trazado 117359" d="M3910.7,4390.039l-1-.006a64.346,64.346,0,0,1,13.178-38.516l.8.607A63.343,63.343,0,0,0,3910.7,4390.039Z" fill="#b2aaa6"/>
        </g>
        <g id="Grupo_61140" data-name="Grupo 61140">
          <path id="Trazado_117360" data-name="Trazado 117360" d="M3914.116,4396.324l-.6-.8,6.159-4.621a47.254,47.254,0,0,0,11.88-11.609c1.722-2.21,3.368-4.576,2.927-7.075l.985-.174c.512,2.9-1.344,5.582-3.123,7.864a48.206,48.206,0,0,1-12.07,11.794Z" fill="#b2aaa6"/>
        </g>
        <g id="Grupo_61141" data-name="Grupo 61141">
          <path id="Trazado_117361" data-name="Trazado 117361" d="M3878.729,4442.627c-1.573-6.467-.831-13.7,2.334-22.773.98-2.811,2.114-5.616,3.209-8.327a116.042,116.042,0,0,0,4.708-13.141,118.194,118.194,0,0,0,2.913-18.565c.916-8.9,1.864-18.1,5.72-26.324,1.7-3.629,3.825-5.6,6.308-5.845l.1.994c-2.108.212-3.958,1.987-5.5,5.276-3.786,8.071-4.724,17.186-5.631,26a118.93,118.93,0,0,1-2.943,18.722,116.346,116.346,0,0,1-4.745,13.255c-1.092,2.7-2.221,5.5-3.194,8.283-3.1,8.879-3.83,15.935-2.305,22.207Z" fill="#b2aaa6"/>
        </g>
        <g id="Grupo_61142" data-name="Grupo 61142">
          <path id="Trazado_117362" data-name="Trazado 117362" d="M3948.064,4413.522c-3.343-4.45-4.7-10.587-4.142-18.764.143-2.116.389-4.259.626-6.332a66.717,66.717,0,0,0,.637-12.807c-.163-2.017-.517-4.058-.861-6.032-.266-1.538-.543-3.129-.729-4.711-1.132-9.617.931-19.154,2.928-28.378l.977.211c-1.979,9.144-4.024,18.6-2.913,28.05.184,1.555.458,3.132.723,4.657.347,2,.706,4.06.871,6.123a67.524,67.524,0,0,1-.639,13c-.236,2.062-.48,4.193-.622,6.287-.54,7.927.75,13.846,3.943,18.095Z" fill="#b2aaa6"/>
        </g>
        <g id="Grupo_61143" data-name="Grupo 61143">
          <path id="Trazado_117363" data-name="Trazado 117363" d="M3792.893,4440.17a10.013,10.013,0,0,0-1.961-5.852c-.2-.274-.423-.541-.642-.807a6.127,6.127,0,0,1-1.879-5.036v-.357a46.946,46.946,0,0,0-1.628-10.328c-.267-1.138-.631-2.388-1.584-2.828l.42-.908c1.475.682,1.905,2.52,2.137,3.508a47.63,47.63,0,0,1,1.655,10.55v.364a5.2,5.2,0,0,0,1.652,4.4c.229.28.458.56.671.847a11.018,11.018,0,0,1,2.159,6.439Z" fill="#b2aaa6"/>
        </g>
        <g id="Grupo_61144" data-name="Grupo 61144">
          <rect id="Rectángulo_7671" data-name="Rectángulo 7671" width="5.033" height="1" transform="matrix(0.949, -0.314, 0.314, 0.949, 3849.598, 4291.911)" fill="#b2aaa6"/>
        </g>
        <g id="Grupo_61145" data-name="Grupo 61145">
          <rect id="Rectángulo_7672" data-name="Rectángulo 7672" width="3.546" height="0.999" transform="translate(3849.396 4296.752) rotate(-4.373)" fill="#b2aaa6"/>
        </g>
        <g id="Grupo_61146" data-name="Grupo 61146">
          <rect id="Rectángulo_7673" data-name="Rectángulo 7673" width="1" height="3.032" transform="matrix(0.001, -1, 1, 0.001, 3851.194, 4303.559)" fill="#b2aaa6"/>
        </g>
        <g id="Grupo_61147" data-name="Grupo 61147">
          <rect id="Rectángulo_7674" data-name="Rectángulo 7674" width="4.05" height="1" transform="matrix(0.998, -0.064, 0.064, 0.998, 3850.398, 4309.409)" fill="#b2aaa6"/>
        </g>
        <g id="Grupo_61148" data-name="Grupo 61148">
          <rect id="Rectángulo_7675" data-name="Rectángulo 7675" width="3.823" height="1" transform="translate(3850.106 4314.483) rotate(-7.972)" fill="#b2aaa6"/>
        </g>
        <g id="Grupo_61149" data-name="Grupo 61149">
          <rect id="Rectángulo_7676" data-name="Rectángulo 7676" width="5.053" height="1.001" transform="translate(3849.616 4320.056) rotate(-5.488)" fill="#b2aaa6"/>
        </g>
        <g id="Grupo_61150" data-name="Grupo 61150">
          <path id="Trazado_117364" data-name="Trazado 117364" d="M3849.8,4328.277l-.3-.953a6.437,6.437,0,0,1,2.745-.247l-.129.992A5.449,5.449,0,0,0,3849.8,4328.277Z" fill="#b2aaa6"/>
        </g>
        <g id="Grupo_61151" data-name="Grupo 61151">
          <path id="Trazado_117365" data-name="Trazado 117365" d="M3853.941,4336.7a5.71,5.71,0,0,1-2.513-.581l.441-.9a4.709,4.709,0,0,0,2.747.428l.147.989A5.5,5.5,0,0,1,3853.941,4336.7Z" fill="#b2aaa6"/>
        </g>
        <g id="Grupo_61152" data-name="Grupo 61152">
          <path id="Trazado_117366" data-name="Trazado 117366" d="M3851.732,4342.534l-.138-.99a8.8,8.8,0,0,0,3.539-1.318l.543.839A9.812,9.812,0,0,1,3851.732,4342.534Z" fill="#b2aaa6"/>
        </g>
        <g id="Grupo_61153" data-name="Grupo 61153">
          <path id="Trazado_117367" data-name="Trazado 117367" d="M3853.271,4347.591l-.187-.983a15.757,15.757,0,0,0,3.614-1.152l.416.91A16.722,16.722,0,0,1,3853.271,4347.591Z" fill="#b2aaa6"/>
        </g>
        <g id="Grupo_61154" data-name="Grupo 61154">
          <path id="Trazado_117368" data-name="Trazado 117368" d="M3853.5,4352.889l-.518-.856a5.039,5.039,0,0,1,3.872-.56l-.254.966A4.1,4.1,0,0,0,3853.5,4352.889Z" fill="#b2aaa6"/>
        </g>
        <g id="Grupo_61155" data-name="Grupo 61155">
          <path id="Trazado_117369" data-name="Trazado 117369" d="M3857.051,4358.381a2.813,2.813,0,0,0-2.41-.177l-.371-.93a3.8,3.8,0,0,1,3.283.242Z" fill="#b2aaa6"/>
        </g>
        <g id="Grupo_61156" data-name="Grupo 61156">
          <rect id="Rectángulo_7677" data-name="Rectángulo 7677" width="3.322" height="1.001" transform="translate(3852.057 4363.263) rotate(-9.775)" fill="#b2aaa6"/>
        </g>
        <g id="Grupo_61157" data-name="Grupo 61157">
          <rect id="Rectángulo_7678" data-name="Rectángulo 7678" width="2.329" height="1" transform="translate(3852.767 4368.277) rotate(-13.901)" fill="#b2aaa6"/>
        </g>
        <g id="Grupo_61158" data-name="Grupo 61158">
          <rect id="Rectángulo_7679" data-name="Rectángulo 7679" width="2.576" height="1" transform="matrix(0.975, -0.223, 0.223, 0.975, 3852.785, 4374.668)" fill="#b2aaa6"/>
        </g>
        <g id="Grupo_61159" data-name="Grupo 61159">
          <path id="Trazado_117370" data-name="Trazado 117370" d="M3853.893,4381.6c-.08,0-.159,0-.239-.012a2.281,2.281,0,0,1-1.549-.805l.778-.629a1.346,1.346,0,0,0,1.8.178l.638.77A2.243,2.243,0,0,1,3853.893,4381.6Z" fill="#b2aaa6"/>
        </g>
        <g id="Grupo_61160" data-name="Grupo 61160">
          <path id="Trazado_117371" data-name="Trazado 117371" d="M3852.862,4387.134a4.544,4.544,0,0,1-2.014-.466l.445-.9a3.626,3.626,0,0,0,3.311-.086l.492.871A4.563,4.563,0,0,1,3852.862,4387.134Z" fill="#b2aaa6"/>
        </g>
        <g id="Grupo_61161" data-name="Grupo 61161">
          <path id="Trazado_117372" data-name="Trazado 117372" d="M3855.715,4391.7a8.485,8.485,0,0,0-4.552-.348l-.2-.981a9.4,9.4,0,0,1,5.095.39Z" fill="#b2aaa6"/>
        </g>
        <g id="Grupo_61162" data-name="Grupo 61162">
          <path id="Trazado_117373" data-name="Trazado 117373" d="M3850.982,4397.507l-.314-.949a11.211,11.211,0,0,1,4.5-.515l-.092,1A10.13,10.13,0,0,0,3850.982,4397.507Z" fill="#b2aaa6"/>
        </g>
        <g id="Grupo_61163" data-name="Grupo 61163">
          <path id="Trazado_117374" data-name="Trazado 117374" d="M3850.675,4402.178l-.725-.69a4.651,4.651,0,0,1,3.123-1.424l.045,1A3.637,3.637,0,0,0,3850.675,4402.178Z" fill="#b2aaa6"/>
        </g>
        <g id="Grupo_61164" data-name="Grupo 61164">
          <rect id="Rectángulo_7680" data-name="Rectángulo 7680" width="2.88" height="1.001" transform="translate(3849.94 4405.98) rotate(-16.207)" fill="#b2aaa6"/>
        </g>
        <g id="Grupo_61165" data-name="Grupo 61165">
          <path id="Trazado_117375" data-name="Trazado 117375" d="M3850.725,4411.472l-.3-.955a8.309,8.309,0,0,0,3.071-1.735l.666.746A9.3,9.3,0,0,1,3850.725,4411.472Z" fill="#b2aaa6"/>
        </g>
        <g id="Grupo_61166" data-name="Grupo 61166">
          <path id="Trazado_117376" data-name="Trazado 117376" d="M3851,4418.579l-.523-.852,1.846-1.138.523.852Z" fill="#b2aaa6"/>
        </g>
        <g id="Grupo_61167" data-name="Grupo 61167">
          <rect id="Rectángulo_7681" data-name="Rectángulo 7681" width="1" height="1.769" transform="translate(3850.542 4423.558) rotate(-89.937)" fill="#b2aaa6"/>
        </g>
        <g id="Grupo_61168" data-name="Grupo 61168">
          <rect id="Rectángulo_7682" data-name="Rectángulo 7682" width="1" height="1.924" transform="translate(3851.089 4427.876) rotate(-68.436)" fill="#b2aaa6"/>
        </g>
        <g id="Grupo_61169" data-name="Grupo 61169">
          <path id="Trazado_117377" data-name="Trazado 117377" d="M3852.144,4433.41a1.38,1.38,0,0,1-.806-.269,1.343,1.343,0,0,1-.555-.935l.994-.1a.349.349,0,0,0,.15.23.353.353,0,0,0,.265.072l.205.979A1.264,1.264,0,0,1,3852.144,4433.41Z" fill="#b2aaa6"/>
        </g>
      </g>
    </g>
    <g id="Grupo_61172" data-name="Grupo 61172" opacity="0.33">
      <path id="Trazado_117378" data-name="Trazado 117378" d="M3840.7,4285.13l1.784,74.412c.564,23.555,3.657,47.019,2.383,70.59-.391,7.235,10.86,7.213,11.25,0,1.274-23.571-1.819-47.035-2.383-70.59l-1.784-74.412c-.173-7.227-11.424-7.254-11.25,0Z" fill="#b2aaa6"/>
    </g>
    <g id="Grupo_61173" data-name="Grupo 61173" opacity="0.33">
      <path id="Trazado_117379" data-name="Trazado 117379" d="M3782.839,4404.7c-1.026-6.766-.3-13.171,1.232-19.774,1.485-6.411,1.214-11.461-2.154-17.214-1.418-2.423-2.891-4.6-3.647-7.337-.745-2.694-.961-5.509-1.72-8.2a21.118,21.118,0,0,0-3.542-7.231c-1.018-1.334-4.33-3.739-4.523-5.4-.826-7.106-12.085-7.19-11.25,0a14.33,14.33,0,0,0,2.623,7.295c1.555,2.153,3.859,3.847,5.1,6.2,2.672,5.091,2.14,11.314,4.961,16.531,1.219,2.255,3.324,4.544,3.858,7.087.71,3.375-1.13,7.122-1.719,10.435a62.533,62.533,0,0,0-.064,20.6c1.082,7.135,11.924,4.1,10.849-2.991Z" fill="#b2aaa6"/>
    </g>
    <g id="Grupo_61174" data-name="Grupo 61174" opacity="0.33">
      <path id="Trazado_117380" data-name="Trazado 117380" d="M3778.154,4406.979a159.012,159.012,0,0,1,12.213,29.065c2.125,6.9,12.988,3.956,10.848-2.991a174.185,174.185,0,0,0-13.347-31.752c-3.452-6.367-13.169-.694-9.714,5.678Z" fill="#b2aaa6"/>
    </g>
    <g id="Grupo_61175" data-name="Grupo 61175" opacity="0.33">
      <path id="Trazado_117381" data-name="Trazado 117381" d="M3915.634,4350.832c-12.057,26.7-11.567,55.95-10.413,84.628.291,7.215,11.542,7.252,11.25,0-1.063-26.4-2.257-54.3,8.877-78.95,2.957-6.546-6.735-12.273-9.714-5.678Z" fill="#b2aaa6"/>
    </g>
    <g id="Grupo_60986-2" data-name="Grupo 60986">
      <path id="Trazado_117382" data-name="Trazado 117382" d="M3859.686,4383.085a52.512,52.512,0,0,0-1.51-11.927,25.923,25.923,0,0,0,2.657-2.827c.333-.615-1.023-2.551-1.023-2.551a3.637,3.637,0,0,0,1.592-2.276c.407-1.626-8.382-11.288-10.324-11.856-1.476-.435-9.157-.42-17.678,1.029-2.467.42-6.381,1.292-8.807.7-.187-.046-106.773-25.27-107.978-25.213v31.322c10.07-.509,104.253,13.488,104.308,13.45.385-.278,7.515,6.935,15.731,10.188,3.628,1.435,7.654,2.195,11.31,3.686a31.957,31.957,0,0,1,3.687,1.8,1.151,1.151,0,0,1,.158.084s3.183-1.88,1.455-4.486c-2.432-3.658-4.338-3.061-11.188-6.086l-.349-.183a16.719,16.719,0,0,1-1.622-1.091c-.125-.379.292-1.2.836-2.062a4.087,4.087,0,0,1,4.737-1.706l6.978,2.32s3.134,7.321,3.639,8.365c.958,1.98,1.746,2.14,2.221,1.982a1.4,1.4,0,0,0,.164-.066C3859.29,4385.343,3859.594,4384.372,3859.686,4383.085Z" fill="#ffa780"/>
      <g id="Grupo_60984-2" data-name="Grupo 60984">
        <path id="Trazado_116787-2" data-name="Trazado 116787" d="M3858.686,4385.683c-.083.023-.137.03-.151.037a1.4,1.4,0,0,1-.2-.247,2.269,2.269,0,0,1-.271-2.06l1.632-.318C3859.6,4384.37,3859.3,4385.339,3858.686,4385.683Z" fill="#f2d1c2"/>
      </g>
      <path id="Trazado_116788-2" data-name="Trazado 116788" d="M3858.274,4371c-.521-1.14-9.408-6.121-9.79-6.337a3.913,3.913,0,0,0-.419.187s9.621,5.56,9.97,6.324A1.262,1.262,0,0,0,3858.274,4371Z" fill="#dd886b"/>
      <path id="Trazado_116789-2" data-name="Trazado 116789" d="M3859.91,4365.711c.016-.015-8.032-8.794-8.032-8.794l-.217.31,8.043,8.645C3859.718,4365.885,3859.91,4365.711,3859.91,4365.711Z" fill="#dd886b"/>
      <g id="Grupo_60985-2" data-name="Grupo 60985">
        <path id="Trazado_116790-2" data-name="Trazado 116790" d="M3849.282,4384.783a2.263,2.263,0,0,0-1.325,2.026,32.192,32.192,0,0,1,3.687,1.8,2.266,2.266,0,0,0-2.362-3.827Z" fill="#f2d1c2"/>
      </g>
    </g>
    <g id="Grupo_60983-2" data-name="Grupo 60983">
      <g id="Grupo_60977-2" data-name="Grupo 60977">
        <path id="Trazado_116780-2" data-name="Trazado 116780" d="M3850.965,4421.358c2.257,5.631.869,12.943.869,12.943l-4.539.354a31.033,31.033,0,0,1-.987,3.016l-4.506-1.5.559-8.822s-8.806,1.679-10.7-1.308a1.765,1.765,0,0,1,.937-2.816s.64-.13,1.653-.306c-.407-1.495,1.284-2.061,1.284-2.061S3849.839,4418.549,3850.965,4421.358Z" fill="#dd886b"/>
      </g>
      <path id="Trazado_117383" data-name="Trazado 117383" d="M3857.488,4413.412c-.5-.665-.987-1.329-1.46-1.943-.306-.4-.6-.777-.887-1.126a17.889,17.889,0,0,0-2.069-2.3,1.042,1.042,0,0,0-.223-.141c-1.062-.4-2.492,1.757-2.16,3.937.368,2.413,3.7,6.886,3.7,6.886l-2.969,5.507a5.363,5.363,0,0,1-5.468,3.125c-3.78-.407-7.114-2.658-5.449-4.474,5.341-5.828,8.473-7.751,9.188-12.086.51-3.085-3.157-3.5-3.157-3.5a1.084,1.084,0,0,1-.117.147,31.929,31.929,0,0,1-2.626,3.157,41.941,41.941,0,0,1-8.589,6.408c-6.991,4.572-10.364,7.373-14.786,13.511-1.126,1.559-12.707,6.289-25.9,11.579h52.459a36.64,36.64,0,0,0,9.586-7.316c3.045-3.437,4.818-13.717,5.129-14.6C3861.851,4419.722,3859.713,4416.462,3857.488,4413.412Z" fill="#ffa780"/>
      <g id="Grupo_60978-2" data-name="Grupo 60978">
        <path id="Trazado_116782-2" data-name="Trazado 116782" d="M3855.373,4435.9s6.844-8.339,6.57-10.986-10.69-16.1-10.69-16.1-2.059-.195-2.084,3.037c-.028,3.921,5.1,13.758,5.1,13.758l-7.689,6.7Z" fill="#ffa780"/>
      </g>
      <g id="Grupo_60979-2" data-name="Grupo 60979">
        <rect id="Rectángulo_7654-2" data-name="Rectángulo 7654" width="8.683" height="0.294" transform="translate(3857.337 4430.273) rotate(-65.609)" fill="#dd886b"/>
      </g>
      <g id="Grupo_60980-2" data-name="Grupo 60980">
        <path id="Trazado_116783-2" data-name="Trazado 116783" d="M3850.9,4410.652a9.005,9.005,0,0,1,.209-1.871l.288.063c-1.163,5.289,3.058,9.733,3.1,9.776l.068.072-.04.091a31.17,31.17,0,0,1-2.233,4.441l-.174-.236a30.07,30.07,0,0,0,2.1-4.235A13.022,13.022,0,0,1,3850.9,4410.652Z" fill="#dd886b"/>
      </g>
      <g id="Grupo_60981-2" data-name="Grupo 60981">
        <path id="Trazado_116784-2" data-name="Trazado 116784" d="M3853.084,4411.632a2.264,2.264,0,0,1-.012-3.59,17.681,17.681,0,0,1,2.069,2.3C3854.287,4410.893,3853.5,4411.381,3853.084,4411.632Z" fill="#f2d1c2"/>
      </g>
      <g id="Grupo_60982-2" data-name="Grupo 60982">
        <path id="Trazado_116785-2" data-name="Trazado 116785" d="M3845.826,4411.9a2.26,2.26,0,0,1-2.036-1.306,31.85,31.85,0,0,0,2.626-3.157,2.266,2.266,0,0,1-.589,4.459Z" fill="#f2d1c2"/>
      </g>
    </g>
    <line id="Línea_521" data-name="Línea 521" x2="49.775" y2="5.076" transform="translate(3793.393 4276.053)" fill="none" stroke="#706f6f" stroke-miterlimit="10" stroke-width="1"/>
    <line id="Línea_521-2" data-name="Línea 521" y1="45.19" x2="63.964" transform="translate(3840.7 4284.862)" fill="none" stroke="#706f6f" stroke-miterlimit="10" stroke-width="1"/>
    <line id="Línea_521-3" data-name="Línea 521" x1="185.191" y1="51.348" transform="translate(4071.274 4286.721)" fill="none" stroke="#706f6f" stroke-miterlimit="10" stroke-width="1"/>
    <g id="Grupo_61176" data-name="Grupo 61176">
      <path id="Trazado_117384" data-name="Trazado 117384" d="M3739.448,4265.881c-1.182-.313-2.34-.664-3.353-1.014a1.651,1.651,0,0,0-.533-.131c-2.081-.078-3.862-1.611-3.862-4.433s1.717-4.615,4.082-4.615c2.38,0,3.927,1.845,3.927,4.433,0,2.25-1.04,3.692-2.5,4.2v.053c.871.221,1.819.428,2.56.559Zm-.935-5.707c0-1.756-.91-3.563-2.77-3.563-1.91,0-2.847,1.768-2.834,3.666-.013,1.86,1.015,3.536,2.782,3.536C3737.5,4263.813,3738.513,4262.176,3738.513,4260.174Z" fill="#3a3a3a"/>
      <path id="Trazado_117385" data-name="Trazado 117385" d="M3746.442,4262.877c0,.65.014,1.223.053,1.717h-1.015l-.064-1.028h-.026a2.369,2.369,0,0,1-2.08,1.17c-.989,0-2.171-.547-2.171-2.756V4258.3h1.143v3.484c0,1.195.364,2,1.405,2a1.611,1.611,0,0,0,1.612-1.625V4258.3h1.143Z" fill="#3a3a3a"/>
      <path id="Trazado_117386" data-name="Trazado 117386" d="M3749.614,4256.533a.709.709,0,0,1-1.417,0,.7.7,0,0,1,.716-.715A.679.679,0,0,1,3749.614,4256.533Zm-1.273,8.061V4258.3h1.143v6.293Z" fill="#3a3a3a"/>
      <path id="Trazado_117387" data-name="Trazado 117387" d="M3752.76,4256.494v1.807h1.637v.871h-1.637v3.392c0,.782.22,1.223.858,1.223a2.527,2.527,0,0,0,.662-.078l.053.857a2.774,2.774,0,0,1-1.015.157,1.58,1.58,0,0,1-1.234-.481,2.33,2.33,0,0,1-.442-1.638v-3.432h-.975v-.871h.975v-1.508Z" fill="#3a3a3a"/>
      <path id="Trazado_117388" data-name="Trazado 117388" d="M3759.17,4264.594l-.092-.793h-.039a2.341,2.341,0,0,1-1.924.935,1.792,1.792,0,0,1-1.924-1.806c0-1.522,1.352-2.354,3.784-2.34v-.131a1.3,1.3,0,0,0-1.431-1.455,3.145,3.145,0,0,0-1.638.467l-.26-.754a3.909,3.909,0,0,1,2.068-.559c1.924,0,2.391,1.313,2.391,2.574v2.354a8.886,8.886,0,0,0,.1,1.508Zm-.169-3.211c-1.248-.028-2.666.193-2.666,1.416a1.012,1.012,0,0,0,1.079,1.092,1.567,1.567,0,0,0,1.522-1.053,1.185,1.185,0,0,0,.065-.363Z" fill="#3a3a3a"/>
      <path id="Trazado_117389" data-name="Trazado 117389" d="M3761.951,4260.264c0-.741-.013-1.377-.052-1.963h1l.039,1.234h.052a1.888,1.888,0,0,1,1.742-1.377,1.287,1.287,0,0,1,.325.039v1.078a1.786,1.786,0,0,0-.39-.039,1.606,1.606,0,0,0-1.534,1.471,3.178,3.178,0,0,0-.052.531v3.356h-1.131Z" fill="#3a3a3a"/>
      <path id="Trazado_117390" data-name="Trazado 117390" d="M3769.595,4261.654a2.016,2.016,0,0,0,2.158,2.186,4.158,4.158,0,0,0,1.742-.326l.195.82a5.1,5.1,0,0,1-2.093.389,2.922,2.922,0,0,1-3.094-3.172c0-1.9,1.118-3.393,2.951-3.393,2.054,0,2.6,1.807,2.6,2.965a4.229,4.229,0,0,1-.039.531Zm3.354-.818a1.628,1.628,0,0,0-1.586-1.859,1.9,1.9,0,0,0-1.756,1.859Z" fill="#3a3a3a"/>
      <path id="Trazado_117391" data-name="Trazado 117391" d="M3775.471,4255.363h1.143v9.231h-1.143Z" fill="#3a3a3a"/>
      <path id="Trazado_117392" data-name="Trazado 117392" d="M3785.78,4264.359a4.2,4.2,0,0,1-1.807.364,2.989,2.989,0,0,1-3.133-3.211,3.2,3.2,0,0,1,3.38-3.34,3.821,3.821,0,0,1,1.586.324l-.26.885a2.655,2.655,0,0,0-1.326-.3,2.373,2.373,0,0,0-.039,4.733,3.25,3.25,0,0,0,1.4-.311Z" fill="#3a3a3a"/>
      <path id="Trazado_117393" data-name="Trazado 117393" d="M3792.383,4262.877c0,.65.013,1.223.053,1.717h-1.015l-.065-1.028h-.026a2.37,2.37,0,0,1-2.08,1.17c-.988,0-2.171-.547-2.171-2.756V4258.3h1.144v3.484c0,1.195.364,2,1.4,2a1.654,1.654,0,0,0,1.508-1.039,1.679,1.679,0,0,0,.1-.586V4258.3h1.144Z" fill="#3a3a3a"/>
      <path id="Trazado_117394" data-name="Trazado 117394" d="M3794.918,4261.654a2.017,2.017,0,0,0,2.158,2.186,4.151,4.151,0,0,0,1.742-.326l.2.82a5.106,5.106,0,0,1-2.094.389,2.922,2.922,0,0,1-3.094-3.172c0-1.9,1.118-3.393,2.951-3.393,2.054,0,2.6,1.807,2.6,2.965a4.049,4.049,0,0,1-.039.531Zm3.354-.818a1.627,1.627,0,0,0-1.585-1.859,1.9,1.9,0,0,0-1.756,1.859Z" fill="#3a3a3a"/>
      <path id="Trazado_117395" data-name="Trazado 117395" d="M3800.795,4255.363h1.143v9.231h-1.143Z" fill="#3a3a3a"/>
      <path id="Trazado_117396" data-name="Trazado 117396" d="M3803.862,4255.363h1.144v9.231h-1.144Z" fill="#3a3a3a"/>
      <path id="Trazado_117397" data-name="Trazado 117397" d="M3812.625,4261.4a3.075,3.075,0,0,1-3.134,3.341,2.99,2.99,0,0,1-3.015-3.236,3.072,3.072,0,0,1,3.12-3.342A2.98,2.98,0,0,1,3812.625,4261.4Zm-4.992.066c0,1.377.793,2.418,1.911,2.418,1.092,0,1.911-1.027,1.911-2.445,0-1.067-.533-2.418-1.886-2.418S3807.633,4260.264,3807.633,4261.461Z" fill="#3a3a3a"/>
      <path id="Trazado_117398" data-name="Trazado 117398" d="M3813.481,4263.918a.77.77,0,0,1,.781-.82.82.82,0,0,1-.013,1.638A.766.766,0,0,1,3813.481,4263.918Z" fill="#3a3a3a"/>
    </g>
    <g id="Grupo_61177" data-name="Grupo 61177">
      <path id="Trazado_117399" data-name="Trazado 117399" d="M4020.161,4257.364a13.133,13.133,0,0,1,2.171-.169,3.6,3.6,0,0,1,2.457.728,2.354,2.354,0,0,1,.767,1.833,2.579,2.579,0,0,1-.676,1.872,3.625,3.625,0,0,1-2.678.962,3.954,3.954,0,0,1-.91-.077v3.509h-1.131Zm1.131,4.225a3.79,3.79,0,0,0,.936.092c1.365,0,2.2-.663,2.2-1.872,0-1.158-.819-1.717-2.067-1.717a4.654,4.654,0,0,0-1.066.092Z" fill="#3a3a3a"/>
      <path id="Trazado_117400" data-name="Trazado 117400" d="M4026.83,4261.693c0-.741-.014-1.378-.052-1.963h1l.039,1.235h.052a1.888,1.888,0,0,1,1.742-1.378,1.3,1.3,0,0,1,.326.039v1.079a1.8,1.8,0,0,0-.391-.039,1.6,1.6,0,0,0-1.534,1.47,3.216,3.216,0,0,0-.052.532v3.354h-1.131Z" fill="#3a3a3a"/>
      <path id="Trazado_117401" data-name="Trazado 117401" d="M4031.588,4263.084a2.016,2.016,0,0,0,2.158,2.185,4.129,4.129,0,0,0,1.742-.326l.2.82a5.133,5.133,0,0,1-2.094.389,2.921,2.921,0,0,1-3.094-3.172c0-1.9,1.118-3.393,2.951-3.393,2.054,0,2.6,1.808,2.6,2.965a4.306,4.306,0,0,1-.039.532Zm3.354-.818a1.629,1.629,0,0,0-1.586-1.86,1.9,1.9,0,0,0-1.755,1.86Z" fill="#3a3a3a"/>
      <path id="Trazado_117402" data-name="Trazado 117402" d="M4037.464,4261.434c0-.651-.013-1.184-.052-1.7h1.014l.064,1.041h.027a2.312,2.312,0,0,1,2.08-1.184c.871,0,2.223.52,2.223,2.679v3.756h-1.144V4262.4c0-1.015-.377-1.86-1.456-1.86a1.625,1.625,0,0,0-1.534,1.17,1.647,1.647,0,0,0-.079.533v3.783h-1.143Z" fill="#3a3a3a"/>
      <path id="Trazado_117403" data-name="Trazado 117403" d="M4050.112,4256.792v7.6c0,.559.014,1.2.053,1.625h-1.027l-.052-1.091h-.026a2.329,2.329,0,0,1-2.145,1.234c-1.521,0-2.691-1.286-2.691-3.2-.013-2.094,1.287-3.381,2.821-3.381a2.1,2.1,0,0,1,1.9.962h.027v-3.757Zm-1.143,5.5a2,2,0,0,0-.052-.48,1.682,1.682,0,0,0-1.651-1.327c-1.183,0-1.885,1.04-1.885,2.431,0,1.274.624,2.327,1.858,2.327a1.72,1.72,0,0,0,1.678-1.365,1.976,1.976,0,0,0,.052-.493Z" fill="#3a3a3a"/>
      <path id="Trazado_117404" data-name="Trazado 117404" d="M4052.647,4263.084a2.017,2.017,0,0,0,2.159,2.185,4.134,4.134,0,0,0,1.742-.326l.195.82a5.129,5.129,0,0,1-2.094.389,2.921,2.921,0,0,1-3.093-3.172c0-1.9,1.118-3.393,2.951-3.393,2.054,0,2.6,1.808,2.6,2.965a4.076,4.076,0,0,1-.039.532Zm3.355-.818a1.63,1.63,0,0,0-1.586-1.86,1.9,1.9,0,0,0-1.756,1.86Z" fill="#3a3a3a"/>
      <path id="Trazado_117405" data-name="Trazado 117405" d="M4058.523,4261.693c0-.741-.013-1.378-.051-1.963h1l.039,1.235h.051a1.889,1.889,0,0,1,1.743-1.378,1.293,1.293,0,0,1,.325.039v1.079a1.8,1.8,0,0,0-.391-.039,1.606,1.606,0,0,0-1.534,1.47,3.3,3.3,0,0,0-.052.532v3.354h-1.131Z" fill="#3a3a3a"/>
      <path id="Trazado_117406" data-name="Trazado 117406" d="M4065.53,4256.792h1.144v9.23h-1.144Z" fill="#3a3a3a"/>
      <path id="Trazado_117407" data-name="Trazado 117407" d="M4072.083,4266.022l-.092-.793h-.039a2.337,2.337,0,0,1-1.924.936,1.793,1.793,0,0,1-1.924-1.807c0-1.521,1.352-2.353,3.784-2.339v-.13a1.3,1.3,0,0,0-1.431-1.456,3.135,3.135,0,0,0-1.638.467l-.259-.754a3.912,3.912,0,0,1,2.067-.559c1.924,0,2.392,1.313,2.392,2.574v2.354a8.823,8.823,0,0,0,.1,1.507Zm-.169-3.21c-1.248-.027-2.666.194-2.666,1.417a1.011,1.011,0,0,0,1.079,1.091,1.567,1.567,0,0,0,1.522-1.052,1.207,1.207,0,0,0,.065-.365Z" fill="#3a3a3a"/>
      <path id="Trazado_117408" data-name="Trazado 117408" d="M4077.62,4261.434c0-.651-.013-1.184-.052-1.7h1.014l.064,1.041h.027a2.312,2.312,0,0,1,2.08-1.184c.871,0,2.224.52,2.224,2.679v3.756h-1.145V4262.4c0-1.015-.377-1.86-1.456-1.86a1.625,1.625,0,0,0-1.534,1.17,1.648,1.648,0,0,0-.078.533v3.783h-1.144Z" fill="#3a3a3a"/>
      <path id="Trazado_117409" data-name="Trazado 117409" d="M4090.1,4264.307c0,.649.013,1.221.052,1.715h-1.014l-.065-1.027h-.026a2.368,2.368,0,0,1-2.08,1.17c-.988,0-2.171-.546-2.171-2.756v-3.679h1.143v3.485c0,1.2.365,2,1.405,2a1.653,1.653,0,0,0,1.508-1.04,1.674,1.674,0,0,0,.1-.585v-3.862h1.144Z" fill="#3a3a3a"/>
      <path id="Trazado_117410" data-name="Trazado 117410" d="M4092.635,4263.084a2.016,2.016,0,0,0,2.158,2.185,4.134,4.134,0,0,0,1.742-.326l.195.82a5.123,5.123,0,0,1-2.093.389,2.921,2.921,0,0,1-3.094-3.172c0-1.9,1.118-3.393,2.951-3.393,2.054,0,2.6,1.808,2.6,2.965a4.355,4.355,0,0,1-.039.532Zm3.354-.818a1.63,1.63,0,0,0-1.586-1.86,1.9,1.9,0,0,0-1.756,1.86Z" fill="#3a3a3a"/>
      <path id="Trazado_117411" data-name="Trazado 117411" d="M4098.952,4259.73l1.236,3.537a15.949,15.949,0,0,1,.506,1.612h.039c.144-.521.326-1.041.534-1.612l1.221-3.537h1.2l-2.47,6.292h-1.092l-2.393-6.292Z" fill="#3a3a3a"/>
      <path id="Trazado_117412" data-name="Trazado 117412" d="M4108.2,4266.022l-.092-.793h-.039a2.337,2.337,0,0,1-1.923.936,1.792,1.792,0,0,1-1.924-1.807c0-1.521,1.351-2.353,3.783-2.339v-.13a1.3,1.3,0,0,0-1.431-1.456,3.128,3.128,0,0,0-1.637.467l-.26-.754a3.913,3.913,0,0,1,2.067-.559c1.924,0,2.392,1.313,2.392,2.574v2.354a8.873,8.873,0,0,0,.1,1.507Zm-.169-3.21c-1.248-.027-2.666.194-2.666,1.417a1.011,1.011,0,0,0,1.079,1.091,1.566,1.566,0,0,0,1.522-1.052,1.2,1.2,0,0,0,.065-.365Z" fill="#3a3a3a"/>
      <path id="Trazado_117413" data-name="Trazado 117413" d="M4113.733,4256.792h1.144v9.23h-1.144Z" fill="#3a3a3a"/>
      <path id="Trazado_117414" data-name="Trazado 117414" d="M4119.129,4257.013l-1.586,1.859h-.819l1.143-1.859Zm-2.327,9.009v-6.292h1.143v6.292Z" fill="#3a3a3a"/>
      <path id="Trazado_117415" data-name="Trazado 117415" d="M4119.844,4261.434c0-.651-.014-1.184-.052-1.7h1.014l.065,1.041h.025a2.315,2.315,0,0,1,2.081-1.184c.871,0,2.223.52,2.223,2.679v3.756h-1.144V4262.4c0-1.015-.377-1.86-1.456-1.86a1.628,1.628,0,0,0-1.535,1.17,1.682,1.682,0,0,0-.078.533v3.783h-1.143Z" fill="#3a3a3a"/>
      <path id="Trazado_117416" data-name="Trazado 117416" d="M4127.695,4263.084a2.017,2.017,0,0,0,2.159,2.185,4.134,4.134,0,0,0,1.742-.326l.195.82a5.128,5.128,0,0,1-2.094.389,2.921,2.921,0,0,1-3.093-3.172c0-1.9,1.118-3.393,2.951-3.393,2.053,0,2.6,1.808,2.6,2.965a4.184,4.184,0,0,1-.039.532Zm3.355-.818a1.629,1.629,0,0,0-1.586-1.86,1.9,1.9,0,0,0-1.756,1.86Z" fill="#3a3a3a"/>
      <path id="Trazado_117417" data-name="Trazado 117417" d="M4137.056,4266.022l-.092-.793h-.039a2.34,2.34,0,0,1-1.924.936,1.793,1.793,0,0,1-1.924-1.807c0-1.521,1.352-2.353,3.783-2.339v-.13a1.3,1.3,0,0,0-1.43-1.456,3.133,3.133,0,0,0-1.638.467l-.26-.754a3.917,3.917,0,0,1,2.068-.559c1.923,0,2.391,1.313,2.391,2.574v2.354a8.817,8.817,0,0,0,.1,1.507Zm-.169-3.21c-1.248-.027-2.666.194-2.666,1.417a1.011,1.011,0,0,0,1.079,1.091,1.563,1.563,0,0,0,1.521-1.052,1.2,1.2,0,0,0,.066-.365Z" fill="#3a3a3a"/>
      <path id="Trazado_117418" data-name="Trazado 117418" d="M4025.556,4272.392v7.6c0,.559.013,1.2.052,1.625h-1.027l-.052-1.092h-.026a2.327,2.327,0,0,1-2.145,1.235c-1.521,0-2.691-1.286-2.691-3.2-.013-2.093,1.287-3.38,2.821-3.38a2.105,2.105,0,0,1,1.9.961h.026v-3.756Zm-1.144,5.5a2.028,2.028,0,0,0-.052-.481,1.683,1.683,0,0,0-1.651-1.326c-1.183,0-1.885,1.04-1.885,2.431,0,1.274.624,2.327,1.859,2.327a1.72,1.72,0,0,0,1.677-1.365,2,2,0,0,0,.052-.494Z" fill="#3a3a3a"/>
      <path id="Trazado_117419" data-name="Trazado 117419" d="M4028.091,4278.684a2.016,2.016,0,0,0,2.158,2.184,4.13,4.13,0,0,0,1.742-.325l.2.819a5.1,5.1,0,0,1-2.094.39,2.921,2.921,0,0,1-3.094-3.172c0-1.9,1.118-3.393,2.951-3.393,2.054,0,2.6,1.807,2.6,2.964a4.333,4.333,0,0,1-.039.533Zm3.354-.819a1.629,1.629,0,0,0-1.586-1.859,1.9,1.9,0,0,0-1.755,1.859Z" fill="#3a3a3a"/>
      <path id="Trazado_117420" data-name="Trazado 117420" d="M4041.208,4281.388a4.224,4.224,0,0,1-1.808.364,2.989,2.989,0,0,1-3.132-3.211,3.2,3.2,0,0,1,3.379-3.341,3.841,3.841,0,0,1,1.586.324l-.259.885a2.657,2.657,0,0,0-1.327-.3,2.373,2.373,0,0,0-.039,4.733,3.25,3.25,0,0,0,1.405-.312Z" fill="#3a3a3a"/>
      <path id="Trazado_117421" data-name="Trazado 117421" d="M4048.163,4278.424a3.076,3.076,0,0,1-3.134,3.341,2.991,2.991,0,0,1-3.015-3.237,3.072,3.072,0,0,1,3.12-3.341A2.98,2.98,0,0,1,4048.163,4278.424Zm-4.992.065c0,1.378.793,2.418,1.911,2.418,1.092,0,1.911-1.027,1.911-2.444,0-1.067-.533-2.418-1.886-2.418S4043.171,4277.293,4043.171,4278.489Z" fill="#3a3a3a"/>
      <path id="Trazado_117422" data-name="Trazado 117422" d="M4049.449,4280.452a3,3,0,0,0,1.508.455c.832,0,1.223-.416,1.223-.936,0-.546-.326-.845-1.17-1.157-1.132-.4-1.664-1.027-1.664-1.781a1.94,1.94,0,0,1,2.171-1.846,3.136,3.136,0,0,1,1.546.39l-.286.832a2.447,2.447,0,0,0-1.287-.364c-.676,0-1.052.39-1.052.858,0,.52.376.754,1.2,1.066,1.092.416,1.65.962,1.65,1.9,0,1.1-.857,1.885-2.352,1.885a3.591,3.591,0,0,1-1.769-.429Z" fill="#3a3a3a"/>
      <path id="Trazado_117423" data-name="Trazado 117423" d="M4056.132,4273.522v1.808h1.638v.871h-1.638v3.393c0,.78.221,1.222.858,1.222a2.527,2.527,0,0,0,.662-.078l.053.858a2.791,2.791,0,0,1-1.015.156,1.584,1.584,0,0,1-1.234-.481,2.331,2.331,0,0,1-.442-1.638V4276.2h-.975v-.871h.975v-1.508Z" fill="#3a3a3a"/>
      <path id="Trazado_117424" data-name="Trazado 117424" d="M4064.321,4279.906c0,.65.014,1.222.053,1.716h-1.015l-.064-1.027h-.026a2.368,2.368,0,0,1-2.081,1.17c-.988,0-2.17-.546-2.17-2.756v-3.679h1.143v3.484c0,1.2.364,2,1.4,2a1.612,1.612,0,0,0,1.613-1.625v-3.861h1.143Z" fill="#3a3a3a"/>
      <path id="Trazado_117425" data-name="Trazado 117425" d="M4066.22,4277.293c0-.741-.013-1.378-.052-1.963h1l.039,1.234h.052a1.887,1.887,0,0,1,1.742-1.377,1.228,1.228,0,0,1,.324.039v1.079a1.681,1.681,0,0,0-.389-.039,1.606,1.606,0,0,0-1.535,1.469,3.328,3.328,0,0,0-.051.533v3.354h-1.131Z" fill="#3a3a3a"/>
      <path id="Trazado_117426" data-name="Trazado 117426" d="M4073.89,4281.622l-.092-.793h-.039a2.343,2.343,0,0,1-1.924.936,1.793,1.793,0,0,1-1.924-1.807c0-1.521,1.352-2.354,3.783-2.34v-.13a1.3,1.3,0,0,0-1.43-1.456,3.134,3.134,0,0,0-1.638.468l-.26-.754a3.91,3.91,0,0,1,2.068-.559c1.923,0,2.391,1.313,2.391,2.574v2.353a8.867,8.867,0,0,0,.1,1.508Zm-.169-3.211c-1.248-.026-2.666.194-2.666,1.417a1.012,1.012,0,0,0,1.079,1.092,1.565,1.565,0,0,0,1.521-1.053,1.2,1.2,0,0,0,.066-.364Z" fill="#3a3a3a"/>
      <path id="Trazado_117427" data-name="Trazado 117427" d="M4084.861,4272.392v7.6c0,.559.014,1.2.053,1.625h-1.027l-.052-1.092h-.026a2.329,2.329,0,0,1-2.145,1.235c-1.521,0-2.691-1.286-2.691-3.2-.013-2.093,1.287-3.38,2.821-3.38a2.1,2.1,0,0,1,1.9.961h.027v-3.756Zm-1.143,5.5a2.016,2.016,0,0,0-.052-.481,1.683,1.683,0,0,0-1.651-1.326c-1.183,0-1.885,1.04-1.885,2.431,0,1.274.624,2.327,1.858,2.327a1.72,1.72,0,0,0,1.678-1.365,1.986,1.986,0,0,0,.052-.494Z" fill="#3a3a3a"/>
      <path id="Trazado_117428" data-name="Trazado 117428" d="M4087.4,4278.684a2.017,2.017,0,0,0,2.159,2.184,4.136,4.136,0,0,0,1.742-.325l.195.819a5.1,5.1,0,0,1-2.094.39,2.921,2.921,0,0,1-3.093-3.172c0-1.9,1.118-3.393,2.951-3.393,2.054,0,2.6,1.807,2.6,2.964a4.1,4.1,0,0,1-.039.533Zm3.355-.819a1.629,1.629,0,0,0-1.586-1.859,1.9,1.9,0,0,0-1.756,1.859Z" fill="#3a3a3a"/>
      <path id="Trazado_117429" data-name="Trazado 117429" d="M4096.028,4272.392h1.144v9.23h-1.144Z" fill="#3a3a3a"/>
      <path id="Trazado_117430" data-name="Trazado 117430" d="M4102.58,4281.622l-.092-.793h-.039a2.341,2.341,0,0,1-1.924.936,1.792,1.792,0,0,1-1.923-1.807c0-1.521,1.351-2.354,3.783-2.34v-.13a1.3,1.3,0,0,0-1.43-1.456,3.138,3.138,0,0,0-1.639.468l-.259-.754a3.9,3.9,0,0,1,2.067-.559c1.924,0,2.392,1.313,2.392,2.574v2.353a8.849,8.849,0,0,0,.1,1.508Zm-.17-3.211c-1.248-.026-2.665.194-2.665,1.417a1.012,1.012,0,0,0,1.079,1.092,1.566,1.566,0,0,0,1.522-1.053,1.207,1.207,0,0,0,.064-.364Z" fill="#3a3a3a"/>
      <path id="Trazado_117431" data-name="Trazado 117431" d="M4107.962,4280.452a3,3,0,0,0,1.508.455c.832,0,1.222-.416,1.222-.936,0-.546-.325-.845-1.17-1.157-1.131-.4-1.664-1.027-1.664-1.781a1.94,1.94,0,0,1,2.171-1.846,3.141,3.141,0,0,1,1.547.39l-.286.832a2.447,2.447,0,0,0-1.287-.364c-.676,0-1.053.39-1.053.858,0,.52.377.754,1.2,1.066,1.092.416,1.651.962,1.651,1.9,0,1.1-.858,1.885-2.353,1.885a3.592,3.592,0,0,1-1.768-.429Z" fill="#3a3a3a"/>
      <path id="Trazado_117432" data-name="Trazado 117432" d="M4114.539,4273.562a.709.709,0,0,1-1.417,0,.7.7,0,0,1,.716-.715A.678.678,0,0,1,4114.539,4273.562Zm-1.273,8.06v-6.292h1.143v6.292Z" fill="#3a3a3a"/>
      <path id="Trazado_117433" data-name="Trazado 117433" d="M4116.151,4280.452a3,3,0,0,0,1.508.455c.832,0,1.223-.416,1.223-.936,0-.546-.325-.845-1.17-1.157-1.132-.4-1.664-1.027-1.664-1.781a1.94,1.94,0,0,1,2.171-1.846,3.147,3.147,0,0,1,1.547.39l-.287.832a2.447,2.447,0,0,0-1.287-.364c-.675,0-1.052.39-1.052.858,0,.52.377.754,1.2,1.066,1.092.416,1.65.962,1.65,1.9,0,1.1-.857,1.885-2.352,1.885a3.593,3.593,0,0,1-1.769-.429Z" fill="#3a3a3a"/>
      <path id="Trazado_117434" data-name="Trazado 117434" d="M4124.94,4281.622l-.091-.793h-.039a2.343,2.343,0,0,1-1.924.936,1.793,1.793,0,0,1-1.924-1.807c0-1.521,1.351-2.354,3.783-2.34v-.13a1.3,1.3,0,0,0-1.431-1.456,3.132,3.132,0,0,0-1.637.468l-.26-.754a3.906,3.906,0,0,1,2.067-.559c1.924,0,2.392,1.313,2.392,2.574v2.353a8.849,8.849,0,0,0,.1,1.508Zm-.169-3.211c-1.248-.026-2.666.194-2.666,1.417a1.013,1.013,0,0,0,1.08,1.092,1.566,1.566,0,0,0,1.521-1.053,1.194,1.194,0,0,0,.065-.364Z" fill="#3a3a3a"/>
      <path id="Trazado_117435" data-name="Trazado 117435" d="M4127.448,4280.946a.769.769,0,0,1,.781-.819.821.821,0,0,1-.013,1.638A.767.767,0,0,1,4127.448,4280.946Z" fill="#3a3a3a"/>
    </g>
    <g id="Grupo_61178" data-name="Grupo 61178">
      <path id="Trazado_117436" data-name="Trazado 117436" d="M3898.115,4257.117h1.131v7.814h3.744v.949h-4.875Z" fill="#3a3a3a"/>
      <path id="Trazado_117437" data-name="Trazado 117437" d="M3906.539,4256.87l-1.586,1.859h-.818l1.142-1.859Zm-2.326,9.01v-6.292h1.142v6.292Z" fill="#3a3a3a"/>
      <path id="Trazado_117438" data-name="Trazado 117438" d="M3907.254,4261.291c0-.65-.012-1.184-.051-1.7h1.014l.064,1.04h.026a2.314,2.314,0,0,1,2.08-1.184c.871,0,2.224.521,2.224,2.679v3.757h-1.144v-3.627c0-1.015-.377-1.859-1.457-1.859a1.68,1.68,0,0,0-1.612,1.7v3.783h-1.144Z" fill="#3a3a3a"/>
      <path id="Trazado_117439" data-name="Trazado 117439" d="M3915.1,4262.941a2.018,2.018,0,0,0,2.159,2.185,4.144,4.144,0,0,0,1.742-.325l.195.819a5.1,5.1,0,0,1-2.094.39,2.922,2.922,0,0,1-3.093-3.172c0-1.9,1.119-3.394,2.951-3.394,2.055,0,2.6,1.808,2.6,2.965a4.052,4.052,0,0,1-.039.532Zm3.356-.818a1.629,1.629,0,0,0-1.586-1.859,1.9,1.9,0,0,0-1.756,1.859Z" fill="#3a3a3a"/>
      <path id="Trazado_117440" data-name="Trazado 117440" d="M3924.467,4265.88l-.092-.793h-.039a2.344,2.344,0,0,1-1.924.935,1.792,1.792,0,0,1-1.924-1.806c0-1.522,1.352-2.354,3.783-2.34v-.13a1.3,1.3,0,0,0-1.429-1.456,3.14,3.14,0,0,0-1.639.468l-.26-.754a3.905,3.905,0,0,1,2.067-.56c1.924,0,2.392,1.314,2.392,2.575v2.353a8.843,8.843,0,0,0,.1,1.508Zm-.17-3.211c-1.248-.026-2.666.194-2.666,1.417a1.013,1.013,0,0,0,1.08,1.092,1.565,1.565,0,0,0,1.521-1.053,1.194,1.194,0,0,0,.065-.364Z" fill="#3a3a3a"/>
      <path id="Trazado_117441" data-name="Trazado 117441" d="M3935.438,4256.649v7.606c0,.558.013,1.2.052,1.625h-1.027l-.051-1.092h-.027a2.324,2.324,0,0,1-2.145,1.234c-1.521,0-2.691-1.286-2.691-3.2-.012-2.094,1.287-3.381,2.822-3.381a2.1,2.1,0,0,1,1.9.962h.027v-3.757Zm-1.143,5.5a2.015,2.015,0,0,0-.053-.48,1.68,1.68,0,0,0-1.65-1.326c-1.184,0-1.885,1.04-1.885,2.43,0,1.275.623,2.328,1.857,2.328a1.719,1.719,0,0,0,1.678-1.366,1.968,1.968,0,0,0,.053-.493Z" fill="#3a3a3a"/>
      <path id="Trazado_117442" data-name="Trazado 117442" d="M3937.973,4262.941a2.015,2.015,0,0,0,2.158,2.185,4.157,4.157,0,0,0,1.742-.325l.2.819a5.112,5.112,0,0,1-2.093.39,2.921,2.921,0,0,1-3.094-3.172c0-1.9,1.117-3.394,2.951-3.394,2.053,0,2.6,1.808,2.6,2.965a4.29,4.29,0,0,1-.039.532Zm3.353-.818a1.628,1.628,0,0,0-1.586-1.859,1.9,1.9,0,0,0-1.756,1.859Z" fill="#3a3a3a"/>
      <path id="Trazado_117443" data-name="Trazado 117443" d="M3902.563,4281.245a4.233,4.233,0,0,1-1.809.364,2.99,2.99,0,0,1-3.133-3.211,3.2,3.2,0,0,1,3.381-3.34,3.85,3.85,0,0,1,1.586.324l-.26.885a2.64,2.64,0,0,0-1.326-.3,2.372,2.372,0,0,0-.039,4.732,3.276,3.276,0,0,0,1.4-.311Z" fill="#3a3a3a"/>
      <path id="Trazado_117444" data-name="Trazado 117444" d="M3909.518,4278.281a3.077,3.077,0,0,1-3.135,3.341,2.991,2.991,0,0,1-3.016-3.236,3.073,3.073,0,0,1,3.121-3.342A2.98,2.98,0,0,1,3909.518,4278.281Zm-4.993.066c0,1.378.793,2.418,1.911,2.418,1.091,0,1.912-1.028,1.912-2.445,0-1.066-.534-2.418-1.887-2.418S3904.525,4277.15,3904.525,4278.347Z" fill="#3a3a3a"/>
      <path id="Trazado_117445" data-name="Trazado 117445" d="M3910.8,4280.31a3.014,3.014,0,0,0,1.508.455c.832,0,1.222-.416,1.222-.937,0-.546-.324-.845-1.17-1.156-1.131-.4-1.664-1.027-1.664-1.781a1.941,1.941,0,0,1,2.172-1.847,3.143,3.143,0,0,1,1.547.391l-.287.832a2.431,2.431,0,0,0-1.287-.365c-.676,0-1.053.39-1.053.859,0,.519.377.754,1.2,1.065,1.092.416,1.651.962,1.651,1.9,0,1.1-.858,1.884-2.354,1.884a3.594,3.594,0,0,1-1.767-.428Z" fill="#3a3a3a"/>
      <path id="Trazado_117446" data-name="Trazado 117446" d="M3917.486,4273.38v1.808h1.637v.871h-1.637v3.392c0,.78.221,1.223.858,1.223a2.589,2.589,0,0,0,.664-.078l.051.857a2.789,2.789,0,0,1-1.014.156,1.583,1.583,0,0,1-1.234-.48,2.324,2.324,0,0,1-.444-1.639v-3.431h-.974v-.871h.974v-1.508Z" fill="#3a3a3a"/>
      <path id="Trazado_117447" data-name="Trazado 117447" d="M3925.676,4279.764c0,.649.013,1.221.053,1.715h-1.016l-.065-1.027h-.025a2.369,2.369,0,0,1-2.08,1.17c-.988,0-2.172-.546-2.172-2.756v-3.678h1.145v3.484c0,1.2.363,2,1.4,2a1.653,1.653,0,0,0,1.508-1.04,1.7,1.7,0,0,0,.1-.585v-3.861h1.145Z" fill="#3a3a3a"/>
      <path id="Trazado_117448" data-name="Trazado 117448" d="M3927.574,4277.15c0-.741-.013-1.378-.053-1.962h1l.04,1.234h.05a1.889,1.889,0,0,1,1.742-1.378,1.306,1.306,0,0,1,.327.039v1.079a1.8,1.8,0,0,0-.391-.039,1.6,1.6,0,0,0-1.535,1.47,3.207,3.207,0,0,0-.051.532v3.354h-1.131Z" fill="#3a3a3a"/>
      <path id="Trazado_117449" data-name="Trazado 117449" d="M3935.244,4281.479l-.092-.792h-.039a2.343,2.343,0,0,1-1.924.935,1.792,1.792,0,0,1-1.923-1.807c0-1.521,1.351-2.353,3.783-2.339v-.13a1.3,1.3,0,0,0-1.43-1.456,3.134,3.134,0,0,0-1.639.467l-.259-.753a3.9,3.9,0,0,1,2.066-.56c1.924,0,2.393,1.313,2.393,2.574v2.354a8.859,8.859,0,0,0,.1,1.507Zm-.17-3.21c-1.248-.027-2.666.194-2.666,1.417a1.012,1.012,0,0,0,1.08,1.091,1.566,1.566,0,0,0,1.522-1.052,1.2,1.2,0,0,0,.064-.365Z" fill="#3a3a3a"/>
      <path id="Trazado_117450" data-name="Trazado 117450" d="M3946.477,4278.281a3.077,3.077,0,0,1-3.135,3.341,2.991,2.991,0,0,1-3.016-3.236,3.073,3.073,0,0,1,3.121-3.342A2.98,2.98,0,0,1,3946.477,4278.281Zm-4.993.066c0,1.378.793,2.418,1.911,2.418,1.091,0,1.912-1.028,1.912-2.445,0-1.066-.534-2.418-1.887-2.418S3941.484,4277.15,3941.484,4278.347Z" fill="#3a3a3a"/>
      <path id="Trazado_117451" data-name="Trazado 117451" d="M3947.918,4277.15c0-.741-.012-1.378-.051-1.962h1l.039,1.234h.053a1.887,1.887,0,0,1,1.742-1.378,1.275,1.275,0,0,1,.324.039v1.079a1.782,1.782,0,0,0-.39-.039,1.6,1.6,0,0,0-1.533,1.47,3.2,3.2,0,0,0-.053.532v3.354h-1.131Z" fill="#3a3a3a"/>
      <path id="Trazado_117452" data-name="Trazado 117452" d="M3953.494,4273.419a.708.708,0,0,1-1.416,0,.7.7,0,0,1,.715-.715A.678.678,0,0,1,3953.494,4273.419Zm-1.273,8.06v-6.291h1.144v6.291Z" fill="#3a3a3a"/>
      <path id="Trazado_117453" data-name="Trazado 117453" d="M3960.684,4275.188c-.026.455-.051.961-.051,1.728v3.653a3.612,3.612,0,0,1-.9,2.873,3.323,3.323,0,0,1-2.287.754,4.058,4.058,0,0,1-2.093-.519l.287-.871a3.558,3.558,0,0,0,1.845.494c1.17,0,2.028-.612,2.028-2.2v-.7h-.026a2.247,2.247,0,0,1-2,1.053,2.812,2.812,0,0,1-2.677-3.067c0-2.133,1.39-3.342,2.834-3.342a2.091,2.091,0,0,1,1.962,1.093h.026l.053-.949Zm-1.182,2.482a1.677,1.677,0,0,0-1.664-1.729c-1.094,0-1.873.923-1.873,2.379,0,1.236.625,2.262,1.859,2.262a1.671,1.671,0,0,0,1.586-1.17,1.982,1.982,0,0,0,.092-.61Z" fill="#3a3a3a"/>
      <path id="Trazado_117454" data-name="Trazado 117454" d="M3963.725,4273.419a.708.708,0,0,1-1.416,0,.7.7,0,0,1,.714-.715A.679.679,0,0,1,3963.725,4273.419Zm-1.274,8.06v-6.291h1.145v6.291Z" fill="#3a3a3a"/>
      <path id="Trazado_117455" data-name="Trazado 117455" d="M3965.494,4276.891c0-.651-.014-1.184-.053-1.7h1.014l.066,1.04h.026a2.311,2.311,0,0,1,2.08-1.184c.871,0,2.223.52,2.223,2.679v3.756h-1.145v-3.626c0-1.015-.377-1.86-1.455-1.86a1.626,1.626,0,0,0-1.535,1.17,1.675,1.675,0,0,0-.078.533v3.783h-1.143Z" fill="#3a3a3a"/>
      <path id="Trazado_117456" data-name="Trazado 117456" d="M3976.193,4281.479l-.091-.792h-.039a2.346,2.346,0,0,1-1.924.935,1.792,1.792,0,0,1-1.924-1.807c0-1.521,1.351-2.353,3.783-2.339v-.13a1.3,1.3,0,0,0-1.43-1.456,3.128,3.128,0,0,0-1.638.467l-.26-.753a3.9,3.9,0,0,1,2.066-.56c1.924,0,2.393,1.313,2.393,2.574v2.354a8.859,8.859,0,0,0,.1,1.507Zm-.17-3.21c-1.248-.027-2.666.194-2.666,1.417a1.013,1.013,0,0,0,1.081,1.091,1.566,1.566,0,0,0,1.521-1.052,1.2,1.2,0,0,0,.064-.365Z" fill="#3a3a3a"/>
      <path id="Trazado_117457" data-name="Trazado 117457" d="M3978.975,4272.249h1.144v9.23h-1.144Z" fill="#3a3a3a"/>
      <path id="Trazado_117458" data-name="Trazado 117458" d="M3981.639,4280.8a.77.77,0,0,1,.781-.82.82.82,0,1,1-.781.82Z" fill="#3a3a3a"/>
    </g>
  </g>
</svg>
