<svg xmlns="http://www.w3.org/2000/svg" width="351.948" height="312.855" viewBox="0 0 351.948 312.855"><g transform="translate(-48.52 -96.863)"><path d="M304.476,214.679l-28.017,41.568-83.333-18.719,28.014-41.569Z" opacity="0.3"/><path d="M304.476,213.989l-28.017,41.57-83.333-18.72,28.014-41.571Z" fill="#fff"/><path d="M237.046,222.626,228.8,234.853l-2.794-.627L234.244,222ZM228.539,234.5l7.893-11.721-1.916-.432-7.9,11.722Z" fill="#535359"/><path d="M279.869,239.288c-5.02,7.456-9.221,12-11.524,12.474a1.628,1.628,0,0,1-.856-.028l-.046-.013-.033-.025c-2.914-2.387-12.769-5.736-20.683-8.425a118.417,118.417,0,0,1-11.168-4.112,36.743,36.743,0,0,1-7.088-4.408l.394-.147a36.411,36.411,0,0,0,7,4.352c1.859.942,6.143,2.4,11.1,4.08,7.927,2.694,17.78,6.042,20.8,8.478a.917.917,0,0,0,.421-.01c1.655-.338,5.479-3.75,11.252-12.316s6.949-12.572,6.124-13.467a.529.529,0,0,0-.3-.172c-5.074.619-16.263-.759-25.255-1.867-5.623-.693-10.482-1.292-12.954-1.324a71.531,71.531,0,0,0-10.256.477l-.116-.261a71.869,71.869,0,0,1,10.381-.485c2.519.032,7.393.631,13.04,1.325,8.987,1.108,20.17,2.489,25.114,1.865l.053-.007.05.007a1.043,1.043,0,0,1,.658.314C287.122,226.84,284.9,231.832,279.869,239.288Z" fill="#535359"/><path d="M234.477,222.051l-.193.246a18.51,18.51,0,0,1-3.737-1.868,28.329,28.329,0,0,0-5.837-2.837,26.875,26.875,0,0,0-3.812-.859c-.972-.161-2.179-.36-4.453-.865-2.381,2.428.021,8.486.507,9.186l.082.116-.195.055c-1.135.315-10.055,3.9-11.13,6.572,2.271.514,3.39.837,4.3,1.1a25.962,25.962,0,0,0,3.812.858,45.91,45.91,0,0,0,7.624.186,30.32,30.32,0,0,1,4.94.08l-.146.257a31.319,31.319,0,0,0-4.776-.065,46.579,46.579,0,0,1-7.772-.2,27.736,27.736,0,0,1-3.894-.872c-.923-.266-2.064-.6-4.442-1.129l-.18-.043.035-.112c.876-2.709,9.465-6.238,11.237-6.816-.626-1.119-2.825-7.07-.3-9.412l.1-.1.18.042c2.377.532,3.609.737,4.6.9a28.545,28.545,0,0,1,3.9.877,28.961,28.961,0,0,1,5.961,2.889A18.717,18.717,0,0,0,234.477,222.051Z" fill="#535359"/><path d="M224.737,226.9a.306.306,0,0,1-.3.076l-7.788-1.747c-.12-.03-.181-.108-.131-.175a.307.307,0,0,1,.3-.079l7.784,1.749C224.724,226.754,224.783,226.832,224.737,226.9Z" fill="#535359"/><path d="M296.284,214.936a.314.314,0,0,1-.3.076l-68.847-15.466c-.12-.027-.18-.106-.136-.175a.331.331,0,0,1,.31-.079l68.845,15.468C296.271,214.785,296.332,214.864,296.284,214.936Z" fill="#535359"/><path d="M227.328,199.444l-11.385,16.894a.156.156,0,0,1-.151.04c-.061-.013-.092-.053-.07-.088L227.11,199.4a.158.158,0,0,1,.155-.04C227.322,199.369,227.352,199.408,227.328,199.444Z" fill="#535359"/><path d="M246.863,203.832l-12.5,18.556a.146.146,0,0,1-.147.036c-.066-.012-.1-.053-.07-.087l12.5-18.553a.151.151,0,0,1,.152-.038C246.861,203.759,246.892,203.8,246.863,203.832Z" fill="#535359"/><path d="M249.225,204.362l-12.506,18.556a.149.149,0,0,1-.15.037c-.061-.013-.088-.052-.067-.087l12.507-18.553a.143.143,0,0,1,.15-.04C249.217,204.289,249.248,204.328,249.225,204.362Z" fill="#535359"/><path d="M296.178,214.91l-15.959,23.677a.154.154,0,0,1-.152.039c-.062-.012-.09-.051-.068-.086l15.958-23.679a.149.149,0,0,1,.153-.039C296.17,214.836,296.2,214.876,296.178,214.91Z" fill="#535359"/><path d="M292.622,216.633a.315.315,0,0,1-.305.076l-41.7-9.368c-.119-.025-.181-.107-.135-.174a.325.325,0,0,1,.307-.077l41.7,9.367C292.61,216.482,292.67,216.562,292.622,216.633Z" fill="#535359"/><path d="M252.08,208.227a.191.191,0,0,1-.086.061.345.345,0,0,1-.322-.032l-1.161-.963c-.074-.062-.046-.145.057-.188a.351.351,0,0,1,.326.033l1.161.964A.093.093,0,0,1,252.08,208.227Z" fill="#535359"/><path d="M252.9,207.006a.232.232,0,0,1-.166.084l-1.98.258a.271.271,0,0,1-.279-.1c-.03-.074.047-.145.177-.162l1.977-.258a.271.271,0,0,1,.281.1A.072.072,0,0,1,252.9,207.006Z" fill="#535359"/><path d="M292.622,216.633a.25.25,0,0,1-.165.082l-1.979.258a.274.274,0,0,1-.283-.1c-.027-.071.05-.143.178-.16l1.979-.258a.278.278,0,0,1,.281.1A.1.1,0,0,1,292.622,216.633Z" fill="#535359"/><path d="M292.622,216.633a.187.187,0,0,1-.085.061.358.358,0,0,1-.325-.032l-1.161-.964c-.07-.061-.042-.147.06-.188a.355.355,0,0,1,.331.033l1.155.961A.094.094,0,0,1,292.622,216.633Z" fill="#535359"/><path d="M244.018,205.739a.3.3,0,0,1-.3.075l-16.609-3.73c-.117-.027-.18-.1-.129-.173a.306.306,0,0,1,.3-.079l16.6,3.73C244.008,205.59,244.065,205.668,244.018,205.739Z" fill="#535359"/><path d="M228.574,202.969a.205.205,0,0,1-.085.065.357.357,0,0,1-.327-.036L227,202.036c-.073-.061-.046-.147.064-.188a.341.341,0,0,1,.321.034l1.159.962A.091.091,0,0,1,228.574,202.969Z" fill="#535359"/><path d="M229.394,201.749a.23.23,0,0,1-.167.083l-1.977.258a.277.277,0,0,1-.283-.1c-.026-.075.052-.146.176-.164l1.982-.258a.28.28,0,0,1,.281.1A.1.1,0,0,1,229.394,201.749Z" fill="#535359"/><path d="M244.018,205.739a.229.229,0,0,1-.164.082l-1.982.258a.271.271,0,0,1-.281-.1c-.025-.072.053-.146.181-.162l1.974-.258c.13-.017.256.03.281.1A.075.075,0,0,1,244.018,205.739Z" fill="#535359"/><path d="M244.018,205.739a.148.148,0,0,1-.084.06.342.342,0,0,1-.323-.033l-1.159-.962c-.073-.06-.05-.147.062-.189a.348.348,0,0,1,.323.033l1.157.964A.086.086,0,0,1,244.018,205.739Z" fill="#535359"/><path d="M274.643,213.926l-.425.632-6.836-1.537.427-.633Z" fill="#535359"/><path d="M238.137,205.749l-.427.63-6.832-1.534.425-.631Z" fill="#535359"/><path d="M323.836,196.678l-54.627,31.541-63.227-36.506,54.629-31.54Z" opacity="0.3"/><path d="M323.836,195.99l-54.627,31.539-63.227-36.507,54.629-31.54Z" fill="#fff"/><path d="M315.944,194.8a.358.358,0,0,1-.331,0L262.67,164.232c-.092-.055-.092-.14,0-.192a.36.36,0,0,1,.329,0l52.945,30.569C316.038,194.661,316.038,194.747,315.944,194.8Z" fill="#535359"/><path d="M262.915,164.183l-28.893,16.683a.191.191,0,0,1-.165,0c-.044-.027-.044-.071,0-.1l28.89-16.684a.191.191,0,0,1,.168,0C262.963,164.114,262.963,164.157,262.915,164.183Z" fill="#535359"/><path d="M278.454,173.152l-22.208,12.819a.18.18,0,0,1-.163,0,.051.051,0,0,1,0-.095l22.2-12.82a.2.2,0,0,1,.17,0A.052.052,0,0,1,278.454,173.152Z" fill="#535359"/><path d="M280.242,174.185,258.037,187a.191.191,0,0,1-.168,0c-.048-.026-.044-.069,0-.1l22.206-12.82a.182.182,0,0,1,.167,0C280.286,174.117,280.286,174.159,280.242,174.185Z" fill="#535359"/><path d="M315.861,194.752l-31.116,17.967a.184.184,0,0,1-.165,0c-.046-.029-.046-.071,0-.1L315.7,194.656a.178.178,0,0,1,.162,0C315.911,194.683,315.911,194.725,315.861,194.752Z" fill="#535359"/><path d="M311.41,195.5a.375.375,0,0,1-.333,0l-31.641-18.268a.1.1,0,0,1,0-.19.363.363,0,0,1,.333,0l31.641,18.266C311.5,195.364,311.5,195.45,311.41,195.5Z" fill="#535359"/><path d="M280.156,178.385a.342.342,0,0,1-.117.039c-.128.013-.251-.035-.277-.109l-.387-1.148c-.026-.076.056-.145.185-.158s.25.032.276.1l.387,1.149C280.24,178.311,280.211,178.355,280.156,178.385Z" fill="#535359"/><path d="M281.76,177.461a.339.339,0,0,1-.209.034l-1.991-.222c-.129-.015-.211-.085-.185-.159s.147-.123.273-.1l1.993.221c.127.015.214.086.185.16A.124.124,0,0,1,281.76,177.461Z" fill="#535359"/><path d="M311.41,195.5a.367.367,0,0,1-.212.036l-1.992-.222c-.125-.015-.209-.086-.184-.159s.147-.121.274-.108l1.992.223c.124.017.21.088.186.16A.137.137,0,0,1,311.41,195.5Z" fill="#535359"/><path d="M311.41,195.5a.313.313,0,0,1-.122.036c-.127.016-.251-.033-.273-.106l-.391-1.15c-.023-.074.06-.146.187-.16s.254.034.274.108l.389,1.151C311.491,195.427,311.464,195.474,311.41,195.5Z" fill="#535359"/><path d="M274.034,173.925a.379.379,0,0,1-.335,0l-12.6-7.274a.1.1,0,0,1,0-.191.353.353,0,0,1,.331,0l12.6,7.272C274.124,173.785,274.124,173.869,274.034,173.925Z" fill="#535359"/><path d="M261.824,167.8a.309.309,0,0,1-.12.034c-.13.016-.253-.032-.277-.106l-.387-1.148c-.023-.075.06-.147.184-.16a.268.268,0,0,1,.279.106l.385,1.151A.109.109,0,0,1,261.824,167.8Z" fill="#535359"/><path d="M263.43,166.874a.38.38,0,0,1-.212.038l-1.994-.226c-.124-.014-.207-.084-.184-.158s.149-.121.277-.106l1.989.224c.128.012.211.085.187.157A.131.131,0,0,1,263.43,166.874Z" fill="#535359"/><path d="M274.034,173.923a.337.337,0,0,1-.209.037l-1.994-.221c-.128-.017-.208-.086-.184-.16s.146-.121.278-.107l1.99.223c.125.015.207.085.186.16A.138.138,0,0,1,274.034,173.923Z" fill="#535359"/><path d="M274.034,173.925a.3.3,0,0,1-.119.035c-.13.016-.254-.034-.279-.105l-.385-1.149c-.023-.076.056-.146.184-.161s.252.035.274.107l.392,1.15A.114.114,0,0,1,274.034,173.925Z" fill="#535359"/><path d="M296.836,188.845l-.827.479-5.191-2.992.834-.48Z" fill="#535359"/><path d="M268.638,172.566l-.823.479-5.19-2.993.833-.48Z" fill="#535359"/><path d="M258.548,186.8l-16.068,9.278-2.12-1.225,16.068-9.276ZM242.48,195.7l15.406-8.893-1.458-.84-15.406,8.893Z" fill="#535359"/><path d="M250.429,191.392a3.521,3.521,0,0,1-2.9.55c-.556-.322-.147-1.04.951-1.673a3.533,3.533,0,0,1,2.9-.552C251.938,190.037,251.526,190.758,250.429,191.392Zm-1.618-.934c-.913.527-1.255,1.118-.951,1.294a3.226,3.226,0,0,0,2.238-.55c.912-.529,1.258-1.118.954-1.293A3.233,3.233,0,0,0,248.811,190.458Z" fill="#535359"/><path d="M286.14,212.009c-9.8,5.656-16.818,8.843-19.257,8.74a1.338,1.338,0,0,1-.764-.223l-.031-.023-.011-.03c-1-2.865-7.687-8.218-13.058-12.52-3.379-2.705-6.292-5.042-7.354-6.36a18.207,18.207,0,0,1-3.41-5.682l.457-.043a18.359,18.359,0,0,0,3.376,5.611c1.045,1.3,3.944,3.621,7.308,6.313,5.378,4.306,12.072,9.666,13.132,12.594a.788.788,0,0,0,.391.092c1.753.073,7.634-2.162,18.888-8.661s15.128-9.894,15-10.9a.272.272,0,0,0-.158-.226c-5.069-.612-14.35-4.474-21.812-7.58-4.663-1.942-8.689-3.615-10.935-4.219a65.208,65.208,0,0,0-9.717-1.948l.075-.268a66.108,66.108,0,0,1,9.84,1.97,117.011,117.011,0,0,1,11.011,4.246c7.457,3.1,16.73,6.963,21.692,7.541l.052.006.04.018a.556.556,0,0,1,.382.441C301.453,202.3,295.933,206.354,286.14,212.009Z" fill="#535359"/><path d="M256.6,185.68l-.351.181a9.583,9.583,0,0,1-2.115-2.581,14.565,14.565,0,0,0-3.371-3.952,16.7,16.7,0,0,0-2.887-1.671c-.78-.373-1.745-.835-3.473-1.828-3.737,1.494-9.285,4.526-10.179,5.016a2.6,2.6,0,0,1,.662,1.444l-.009.127-.217,0a10.356,10.356,0,0,1-2.5-.381,92.012,92.012,0,0,0-8.692,5.876c1.724,1,2.52,1.555,3.164,2a16.588,16.588,0,0,0,2.9,1.672,37.1,37.1,0,0,0,6.846,1.944,24.748,24.748,0,0,1,4.467,1.22l-.313.2a25.512,25.512,0,0,0-4.324-1.172,37.37,37.37,0,0,1-6.98-1.989,17.622,17.622,0,0,1-2.957-1.7c-.654-.457-1.473-1.026-3.272-2.067l-.14-.079.108-.093a94.422,94.422,0,0,1,8.975-6.075l.118-.072.156.047a10.88,10.88,0,0,0,2.2.391,3.071,3.071,0,0,0-.683-1.268l-.082-.087.128-.071c.064-.035,6.446-3.57,10.52-5.178l.163-.062.136.078c1.8,1.038,2.79,1.511,3.582,1.891a17.288,17.288,0,0,1,2.949,1.709,14.685,14.685,0,0,1,3.444,4.026A9.7,9.7,0,0,0,256.6,185.68Z" fill="#535359"/><path d="M318.918,206.376h0l-1.97-1.14a.523.523,0,0,0-.239-.365l-1.751-1.011-.061-.036h0l-.337-.194h0l-.047-.027-.519-.3a.508.508,0,0,0-.434-.025l-24.165-13.971a.209.209,0,0,0-.069-.024l0-.008-3.434-1.06-1.084-.337.833.775,2.636,2.44v0c.02.015.04.033.06.047L312.5,205.111a.529.529,0,0,0,.237.366l.279.16,0,0,.286.164h0l.338.2h0l.28.166h0l1.531.882v0a.536.536,0,0,0,.437.023l1.97,1.14h0a.532.532,0,0,0,.529-.053,1.653,1.653,0,0,0,.748-1.294A.516.516,0,0,0,318.918,206.376Z" opacity="0.3"/><path d="M285.643,188.078l-.833-.772,1.084.333Z" fill="#303033"/><path d="M289.328,188.7l-1.049,1.819-2.636-2.442v0a.126.126,0,0,1-.039-.1.4.4,0,0,1,.18-.311.136.136,0,0,1,.11-.023h0Z" fill="#d1c699"/><path d="M313.978,202.944l-1.06,1.832-24.579-14.209a.541.541,0,0,1-.22-.488,1.653,1.653,0,0,1,.748-1.294.526.526,0,0,1,.528-.053Z" fill="#ff8400"/><path d="M291.492,192.195v-.343l16.868,9.762v.34Z" fill="#535359"/><path d="M308.722,202.165v-.345l2.026,1.172v.342Z" fill="#535359"/><path d="M313.446,203a1.658,1.658,0,0,0-.744,1.295c0,.476.335.668.744.432a1.658,1.658,0,0,0,.748-1.3C314.194,202.951,313.858,202.756,313.446,203Z" fill="#ff9d26"/><path d="M313.446,203.59a.522.522,0,0,0-.229.4c0,.148.1.207.229.134a.5.5,0,0,0,.234-.4C313.68,203.576,313.58,203.518,313.446,203.59Z" fill="#303033"/><path d="M316.711,204.295l-1.255,2.174L312.74,204.9a.612.612,0,0,1-.258-.572,1.956,1.956,0,0,1,.888-1.538.633.633,0,0,1,.624-.063Z" fill="#a7a9ac"/><path d="M316.082,204.356a1.952,1.952,0,0,0-.885,1.536c0,.566.393.8.885.511a1.957,1.957,0,0,0,.89-1.536C316.972,204.3,316.573,204.073,316.082,204.356Z" fill="#bcbec0"/><path d="M315.8,204.2a1.953,1.953,0,0,0-.881,1.532.616.616,0,0,0,.259.576l-.287-.162a.624.624,0,0,1-.255-.576,1.951,1.951,0,0,1,.883-1.536.624.624,0,0,1,.626-.062l.286.164A.636.636,0,0,0,315.8,204.2Z" fill="#939598"/><path d="M315.181,203.835a1.959,1.959,0,0,0-.889,1.537.621.621,0,0,0,.261.573l-.285-.164a.628.628,0,0,1-.263-.576,1.967,1.967,0,0,1,.889-1.535.626.626,0,0,1,.628-.064l.284.167A.617.617,0,0,0,315.181,203.835Z" fill="#939598"/><path d="M314.557,203.475a1.967,1.967,0,0,0-.888,1.537.623.623,0,0,0,.256.572l-.28-.165a.622.622,0,0,1-.261-.574,1.968,1.968,0,0,1,.887-1.535.617.617,0,0,1,.626-.062l.286.165A.621.621,0,0,0,314.557,203.475Z" fill="#939598"/><path d="M313.931,203.116a1.95,1.95,0,0,0-.882,1.534.622.622,0,0,0,.258.576l-.286-.166a.614.614,0,0,1-.257-.573,1.968,1.968,0,0,1,.881-1.536.621.621,0,0,1,.628-.062l.287.162A.629.629,0,0,0,313.931,203.116Z" fill="#939598"/><path d="M318.918,205.8l-1.055,1.831-2.287-1.319a.528.528,0,0,1-.22-.485,1.662,1.662,0,0,1,.748-1.295.529.529,0,0,1,.529-.052Z" fill="#ff2456"/><path d="M318.392,205.85a1.655,1.655,0,0,0-.747,1.295c0,.475.335.671.747.431a1.652,1.652,0,0,0,.748-1.295C319.14,205.8,318.8,205.612,318.392,205.85Z" fill="#ff4d75"/><path d="M319.714,215.94v0l-1.975-1.139a.524.524,0,0,0-.235-.366l-1.753-1.01-.058-.035h0l-.339-.2h0l-.049-.028-.519-.3a.52.52,0,0,0-.433-.022l-24.162-13.971a.348.348,0,0,0-.073-.025l0-.007-3.433-1.06-1.083-.334.831.77,2.638,2.443,0-.005a.265.265,0,0,0,.06.051L313.3,214.673a.526.526,0,0,0,.235.367l.278.157s0,0,0,0l.284.164h0l.338.2h0l.284.164h0l1.531.883v0a.517.517,0,0,0,.434.025l1.975,1.139h0a.519.519,0,0,0,.524-.051,1.651,1.651,0,0,0,.749-1.295A.517.517,0,0,0,319.714,215.94Z" opacity="0.3"/><path d="M286.435,197.639l-.83-.772,1.083.336Z" fill="#303033"/><path d="M290.12,198.263l-1.047,1.818-2.638-2.442v0a.143.143,0,0,1-.037-.1.414.414,0,0,1,.18-.312.141.141,0,0,1,.109-.019h0Z" fill="#d1c699"/><path d="M314.77,212.506l-1.057,1.833-24.578-14.213a.529.529,0,0,1-.224-.485,1.661,1.661,0,0,1,.75-1.294.531.531,0,0,1,.53-.053Z" fill="#ff8400"/><path d="M292.283,201.759v-.346l16.873,9.762v.344Z" fill="#535359"/><path d="M309.518,211.727v-.342l2.026,1.167v.344Z" fill="#535359"/><path d="M314.244,212.557a1.654,1.654,0,0,0-.748,1.3c0,.475.335.667.748.428a1.66,1.66,0,0,0,.741-1.294C314.985,212.513,314.65,212.32,314.244,212.557Z" fill="#ff9d26"/><path d="M314.244,213.154a.517.517,0,0,0-.235.4c0,.148.107.207.235.133a.511.511,0,0,0,.229-.4C314.473,213.14,314.371,213.08,314.244,213.154Z" fill="#303033"/><path d="M317.5,213.857l-1.252,2.173-2.718-1.57a.623.623,0,0,1-.26-.574,1.954,1.954,0,0,1,.888-1.534.619.619,0,0,1,.624-.064Z" fill="#a7a9ac"/><path d="M316.876,213.917a1.973,1.973,0,0,0-.886,1.538c0,.566.4.794.886.511a1.962,1.962,0,0,0,.89-1.538C317.766,213.864,317.366,213.636,316.876,213.917Z" fill="#bcbec0"/><path d="M316.6,213.758a1.951,1.951,0,0,0-.886,1.535.619.619,0,0,0,.262.572l-.287-.164a.617.617,0,0,1-.257-.573,1.957,1.957,0,0,1,.884-1.537.625.625,0,0,1,.624-.062l.286.163A.628.628,0,0,0,316.6,213.758Z" fill="#939598"/><path d="M315.975,213.4a1.962,1.962,0,0,0-.886,1.536.623.623,0,0,0,.256.575l-.285-.165a.629.629,0,0,1-.262-.575,1.963,1.963,0,0,1,.891-1.535.62.62,0,0,1,.624-.061l.286.164A.619.619,0,0,0,315.975,213.4Z" fill="#939598"/><path d="M315.349,213.037a1.969,1.969,0,0,0-.888,1.536.627.627,0,0,0,.262.575l-.284-.163a.621.621,0,0,1-.257-.575,1.969,1.969,0,0,1,.881-1.538.626.626,0,0,1,.63-.062l.284.166A.62.62,0,0,0,315.349,213.037Z" fill="#939598"/><path d="M314.727,212.677a1.954,1.954,0,0,0-.884,1.538.62.62,0,0,0,.258.573l-.284-.164a.617.617,0,0,1-.261-.575,1.957,1.957,0,0,1,.885-1.536.614.614,0,0,1,.624-.062l.289.163A.626.626,0,0,0,314.727,212.677Z" fill="#939598"/><path d="M319.714,215.361l-1.053,1.832-2.294-1.323a.532.532,0,0,1-.215-.483,1.646,1.646,0,0,1,.748-1.295.518.518,0,0,1,.527-.053Z" fill="#ff2456"/><path d="M319.185,215.413a1.664,1.664,0,0,0-.748,1.295c0,.477.339.669.748.431a1.648,1.648,0,0,0,.749-1.3C319.934,215.367,319.6,215.173,319.185,215.413Z" fill="#ff4d75"/><path d="M327.814,216.463h0l-1.972-1.14a.518.518,0,0,0-.238-.365l-1.751-1.011-.059-.036h0l-.339-.195h0l-.046-.027-.518-.3a.534.534,0,0,0-.437-.023L298.292,199.4a.4.4,0,0,0-.071-.028l0,0-3.431-1.062-1.085-.335.834.773,2.637,2.44,0,0a.321.321,0,0,0,.053.051L321.4,215.2a.528.528,0,0,0,.24.366l.277.162,0,0,.287.162h0l.34.2h0l.281.164h0l1.534.883h0a.522.522,0,0,0,.435.022l1.975,1.141h0a.517.517,0,0,0,.526-.053,1.651,1.651,0,0,0,.745-1.292A.517.517,0,0,0,327.814,216.463Z" opacity="0.3"/><path d="M294.541,198.165l-.834-.772,1.085.334Z" fill="#303033"/><path d="M298.223,198.787l-1.045,1.819-2.637-2.441v0a.113.113,0,0,1-.04-.1.41.41,0,0,1,.178-.312.155.155,0,0,1,.113-.022h0Z" fill="#d1c699"/><path d="M322.875,213.03l-1.064,1.832-24.578-14.214a.524.524,0,0,1-.219-.483,1.645,1.645,0,0,1,.75-1.293.518.518,0,0,1,.528-.053Z" fill="#ff8400"/><path d="M300.386,202.282v-.343l16.869,9.761v.342Z" fill="#535359"/><path d="M317.616,212.252v-.346l2.025,1.172v.343Z" fill="#535359"/><path d="M322.346,213.083a1.645,1.645,0,0,0-.747,1.294c0,.475.333.668.747.43a1.655,1.655,0,0,0,.744-1.293C323.09,213.037,322.755,212.841,322.346,213.083Z" fill="#ff9d26"/><path d="M322.346,213.678a.5.5,0,0,0-.233.4c0,.146.1.205.233.132a.51.51,0,0,0,.227-.4C322.573,213.664,322.474,213.6,322.346,213.678Z" fill="#303033"/><path d="M325.6,214.378l-1.252,2.176-2.716-1.569a.62.62,0,0,1-.257-.575,1.948,1.948,0,0,1,.886-1.536.622.622,0,0,1,.626-.064Z" fill="#a7a9ac"/><path d="M324.978,214.442a1.955,1.955,0,0,0-.887,1.535c0,.566.395.8.887.513a1.954,1.954,0,0,0,.888-1.537C325.866,214.389,325.471,214.158,324.978,214.442Z" fill="#bcbec0"/><path d="M324.693,214.282a1.963,1.963,0,0,0-.882,1.533.613.613,0,0,0,.26.574l-.287-.163a.628.628,0,0,1-.256-.574,1.959,1.959,0,0,1,.884-1.538.618.618,0,0,1,.628-.059l.285.163A.631.631,0,0,0,324.693,214.282Z" fill="#939598"/><path d="M324.075,213.92a1.958,1.958,0,0,0-.884,1.537.626.626,0,0,0,.258.576l-.285-.167a.62.62,0,0,1-.262-.573,1.961,1.961,0,0,1,.886-1.536.63.63,0,0,1,.628-.067l.287.167A.623.623,0,0,0,324.075,213.92Z" fill="#939598"/><path d="M323.451,213.562a1.966,1.966,0,0,0-.888,1.537.628.628,0,0,0,.258.572l-.281-.166a.62.62,0,0,1-.262-.573,1.967,1.967,0,0,1,.89-1.536.622.622,0,0,1,.626-.063l.285.163A.627.627,0,0,0,323.451,213.562Z" fill="#939598"/><path d="M322.827,213.2a1.945,1.945,0,0,0-.884,1.534.621.621,0,0,0,.259.574l-.287-.162a.624.624,0,0,1-.257-.577,1.964,1.964,0,0,1,.884-1.534.62.62,0,0,1,.628-.061l.285.16A.625.625,0,0,0,322.827,213.2Z" fill="#939598"/><path d="M327.814,215.883l-1.052,1.831-2.29-1.319a.535.535,0,0,1-.217-.485,1.653,1.653,0,0,1,.745-1.295.533.533,0,0,1,.531-.053Z" fill="#ff2456"/><path d="M327.288,215.936a1.648,1.648,0,0,0-.746,1.3c0,.475.333.67.746.43a1.657,1.657,0,0,0,.745-1.295C328.033,215.893,327.7,215.7,327.288,215.936Z" fill="#ff4d75"/><path d="M240.163,259.672l-7.65-4.419,48.92-28.243,7.654,4.417Zm-6.56-4.419,6.56,3.789,47.827-27.615-6.557-3.784Z" opacity="0.3"/><path d="M288.54,231.427l-48.377,27.931-7.106-4.1v-.662l1.095.03,52.282-23.769,2.105-.088Z" fill="#ba6000"/><path d="M288.54,230.765,240.163,258.7l-7.106-4.1,48.375-27.929Z" fill="#ff8400"/><path d="M237.734,254.684l-.443.256-2.415-1.4.443-.258Z" fill="#303033"/><path d="M240.7,252.974l-.444.256-2.415-1.4.44-.254Z" fill="#303033"/><path d="M243.657,251.264l-.445.258-2.415-1.4.442-.256Z" fill="#303033"/><path d="M246.618,249.555l-.444.257-2.415-1.4.44-.259Z" fill="#303033"/><path d="M249.579,247.844l-.444.257-2.415-1.4.438-.256Z" fill="#303033"/><path d="M252.541,246.137l-.446.254L249.682,245l.441-.258Z" fill="#303033"/><path d="M255.5,244.426l-.444.257-2.419-1.4.444-.257Z" fill="#303033"/><path d="M258.464,242.717l-.445.256-2.419-1.4.445-.256Z" fill="#303033"/><path d="M261.425,241.006l-.442.258-2.421-1.4.442-.255Z" fill="#303033"/><path d="M264.385,239.3l-.445.257-2.417-1.4.441-.256Z" fill="#303033"/><path d="M267.342,237.587l-.442.258-2.417-1.4.444-.256Z" fill="#303033"/><path d="M270.3,235.878l-.441.258-2.419-1.4.443-.256Z" fill="#303033"/><path d="M273.267,234.168l-.444.257-2.419-1.394.444-.257Z" fill="#303033"/><path d="M276.228,232.459l-.447.257-2.417-1.4.445-.257Z" fill="#303033"/><path d="M279.189,230.751l-.446.258-2.419-1.4.444-.256Z" fill="#303033"/><path d="M282.146,229.041l-.442.256-2.419-1.4.444-.259Z" fill="#303033"/><path d="M48.52,252.281l37.936-38.3,76.773,25.35-37.937,38.3Z" opacity="0.3"/><path d="M48.52,251.68l37.936-38.3,76.773,25.35-37.937,38.3Z" fill="#fff"/><path d="M93.588,233.563l2.245,1.058.248,1.609,1.671,1.212,1.534.441,2.848-.56,3.405-3.842-1.091-1.707-3.513-.442L98,232.024l-2.568-.746Z" fill="#f0c6b4"/><path d="M146.143,242.793l1.709.563L149.3,242.2l1.438-.535,1.061-1.36-.393-.129-2.167.7Z" fill="#121214"/><path d="M128.248,240.663s3.276.2,4.412.357,2.594.65,3.713.769a79.1,79.1,0,0,1,9.864,1.02c.542.1,1.94-.867,1.94-.867s1.527-.839,1.524-1.061-1.624.344-2.81.347c-4.926.018-7.775-1.154-9.844-1.535a40.19,40.19,0,0,0-4.762-.421,24.834,24.834,0,0,1-2.973-.546Z" fill="#f0c6b4"/><path d="M141.232,248.205l1.013,1.018.673-.07,1.318-1.215-1.189-.451-.212-.316-1.562-.27Z" fill="#121214"/><path d="M124.617,244.328s1.591.266,2.878.588,2.56.863,3.644,1.133c2.637.652,6.051.752,9.913,2.07.432.149.95.863,1.289.5s-.373-1.547-1.141-1.736c-3.759-.938-6.687-2.135-7.987-2.522s-1.717-.193-3.391-.627-4.1-1.384-4.1-1.384Z" fill="#f0c6b4"/><path d="M107.337,239.477l1.521,1.35,14.071,5.813L131,238.185l-16.531-2.707-3.1-.075-1.372.22-2.939,2.969Z" fill="#364685"/><path d="M101.512,234.384l.728.706-1.425,0-1.529,2.8,6.721,1.155,1.1-.217,1.586-1.6h0l1.586-1.6-.231-.654-5.133-2.76Z" fill="#364685"/><path d="M92.561,233.644s3.005,0,3.63-.627-.769-2.108-.769-2.108l-2.794-1.053-3.043-.018-1.591,1.718,2.6,1.815Z" fill="#f0c6b4"/><path d="M89.974,230.964c.368-.7,1.9-.807,1.9-.807l-1.149-.476-1.343.474-.055.436A3.309,3.309,0,0,0,89.974,230.964Z" fill="#3c2415"/><path d="M89.974,230.964a.9.9,0,0,0-.243,1.353l-1.291-.328.025-.91.622-.246A5.912,5.912,0,0,1,89.974,230.964Z" fill="#3c2415"/><path d="M100.934,231.332a11.724,11.724,0,0,1-3.243-.519c-.988-.274-1.918-1.065-3.753-1.374a10.331,10.331,0,0,0-4.846.239c-.724.331-.428.641-.489.833-.258.127-.87.138-1,.666-.149.628.7,1.776,2.1,2.533s3.047.818,3.959,1.169a7.127,7.127,0,0,1,2.416,1.35.762.762,0,0,0-.01-.8,1.464,1.464,0,0,1,.461.5,1.582,1.582,0,0,0-1.083-1.885c-1.045-.454-2.063-.4-3.462-.884-.452-.157-1.117-.368-1.617-.6-.683-.31-1.035-.449-1.252-.826-.282-.5.542-.572.856-.775.145-.26-.223-.692.65-.836a4.852,4.852,0,0,1,1.939.223,19.5,19.5,0,0,1,1.918.494,22.846,22.846,0,0,0,2.932,1.271,4.468,4.468,0,0,0,3.3-.4,4.2,4.2,0,0,1-.977.022A2.936,2.936,0,0,0,100.934,231.332Z" fill="#603913"/><path d="M88.737,230.556a2.617,2.617,0,0,1,1.014.336S88.641,230.615,88.737,230.556Z" fill="#3c2415"/><path d="M111.375,235.4l-4.038,4.074-1.331-.438,4.038-4.076Z" fill="#0f1734"/><path d="M109.294,236.608c.336.112.336.473,0,.811a1.347,1.347,0,0,1-1.209.41c-.336-.107-.336-.473,0-.809A1.359,1.359,0,0,1,109.294,236.608Z" fill="#ff9d26"/><path d="M96.081,236.229s-.8.568-.6,1.21a33.011,33.011,0,0,0,3.847,5.6,6.456,6.456,0,0,0,2.784.008c1.618-.348,2.4-.934,5.454-1.979.341-.116,1.029.024,1.761-.144s1.709-1.119,1.172-1.45-2.418.048-2.418.048a2.061,2.061,0,0,0-.741-.049c-.207.171-.256.695-.679.839-1.411.415-5.541,1-5.541,1s-.8-1.62-1.832-3.43c.386.208-2.211-1.794-2.211-1.794Z" fill="#f0c6b4"/><path d="M104.328,232.452s6.451.416,7.55.315a44.072,44.072,0,0,1,6.129,2.927,1.543,1.543,0,0,0,.123.635l1.061.222s1.653,1.138,2.34.9.132-1.5-.114-1.668a20.115,20.115,0,0,0-2.128-.7s-3.4-2.664-4.206-3.081a6.33,6.33,0,0,0-2.785-.758c-1.259-.085-5.759-.344-6.613-.391s-4.143-.906-4.751.479c-.243.261.749.979.749.979Z" fill="#f0c6b4"/><path d="M76.215,251.1l2.243,1.059.249,1.607,1.671,1.213,1.532.441,2.848-.561,3.406-3.842-1.094-1.707-3.511-.441-2.928.689-2.566-.742Z" fill="#f0c6b4"/><path d="M128.77,260.332l1.709.565,1.447-1.158,1.438-.539,1.061-1.357-.393-.131-2.167.7Z" fill="#121214"/><path d="M110.873,258.2s3.278.2,4.413.358,2.592.652,3.711.769a79.958,79.958,0,0,1,9.866,1.02c.542.1,1.941-.866,1.941-.866s1.526-.837,1.522-1.06-1.621.342-2.809.346c-4.927.019-7.774-1.159-9.844-1.536a39.882,39.882,0,0,0-4.764-.419,25.33,25.33,0,0,1-2.972-.547Z" fill="#f0c6b4"/><path d="M123.857,265.748l1.013,1.014.675-.07,1.317-1.217-1.19-.449-.212-.316-1.561-.268Z" fill="#121214"/><path d="M107.241,261.869s1.594.262,2.878.588,2.56.861,3.645,1.131c2.639.654,6.052.752,9.914,2.072.429.147.95.863,1.287.5s-.372-1.545-1.138-1.734c-3.761-.938-6.69-2.139-7.989-2.524s-1.716-.191-3.391-.628-4.1-1.381-4.1-1.381Z" fill="#f0c6b4"/><path d="M89.962,257.02l1.521,1.346,14.069,5.814,8.075-8.459-16.528-2.7-3.1-.074-1.371.219-2.939,2.969Z" fill="#303033"/><path d="M84.137,251.922l.727.707-1.426,0-1.527,2.8,6.719,1.154,1.1-.217,1.584-1.6v0l1.589-1.6-.234-.656-5.13-2.76Z" fill="#e6e7e8"/><path d="M75.188,251.182s3,.008,3.629-.625-.771-2.106-.771-2.106L75.253,247.4l-3.041-.02L70.618,249.1l2.608,1.814Z" fill="#f0c6b4"/><path d="M72.6,248.5c.369-.7,1.894-.807,1.894-.807l-1.143-.476-1.345.472-.054.436A3.251,3.251,0,0,0,72.6,248.5Z" fill="#3c2415"/><path d="M72.6,248.5a.9.9,0,0,0-.244,1.353l-1.293-.328.024-.912.622-.248A6.127,6.127,0,0,1,72.6,248.5Z" fill="#3c2415"/><path d="M83.56,248.873a12.025,12.025,0,0,1-3.244-.52c-.989-.271-1.916-1.064-3.754-1.375a10.3,10.3,0,0,0-4.846.241c-.723.33-.426.638-.486.832-.257.129-.87.137-1,.664-.152.629.7,1.779,2.1,2.535s3.047.816,3.957,1.17a7.156,7.156,0,0,1,2.419,1.35.765.765,0,0,0-.012-.8,1.469,1.469,0,0,1,.461.5,1.581,1.581,0,0,0-1.083-1.883c-1.044-.453-2.061-.406-3.462-.887-.451-.156-1.117-.367-1.617-.594-.681-.31-1.037-.451-1.251-.828-.283-.5.54-.57.857-.773.144-.26-.223-.689.65-.834a4.912,4.912,0,0,1,1.938.217c.595.136,1.472.338,1.916.5a24.067,24.067,0,0,0,2.933,1.271,4.46,4.46,0,0,0,3.3-.408,4.237,4.237,0,0,1-.974.025A2.9,2.9,0,0,0,83.56,248.873Z" fill="#603913"/><path d="M71.365,248.1a2.611,2.611,0,0,1,1.013.334S71.267,248.156,71.365,248.1Z" fill="#3c2415"/><path d="M94,252.943l-4.037,4.076-1.333-.441,4.038-4.076Z"/><path d="M91.919,254.15c.333.11.333.471,0,.809a1.355,1.355,0,0,1-1.208.412c-.335-.111-.334-.473,0-.811A1.346,1.346,0,0,1,91.919,254.15Z" fill="#bcbec0"/><path d="M78.708,253.77s-.8.57-.606,1.207a32.956,32.956,0,0,0,3.851,5.609,6.422,6.422,0,0,0,2.781,0c1.621-.348,2.407-.932,5.455-1.977.339-.117,1.026.024,1.761-.146s1.712-1.121,1.172-1.447-2.419.046-2.419.046a1.993,1.993,0,0,0-.741-.046c-.208.17-.258.693-.682.835-1.407.417-5.537,1-5.537,1s-.8-1.62-1.832-3.428c.382.205-2.212-1.795-2.212-1.795Z" fill="#f0c6b4"/><path d="M86.95,249.992s6.453.418,7.552.315a43.367,43.367,0,0,1,6.13,2.929c-.06.161.124.635.124.635l1.063.217s1.652,1.14,2.341.9.128-1.5-.119-1.666a19.694,19.694,0,0,0-2.126-.7s-3.4-2.666-4.207-3.086a6.354,6.354,0,0,0-2.783-.752c-1.261-.09-5.762-.344-6.614-.394s-4.145-.907-4.751.48c-.245.26.748.977.748.977Z" fill="#f0c6b4"/><path d="M90.966,216.594l-3.632,3.665-2.924-.966,3.63-3.665Z" fill="#e6e7e8"/><path d="M95.394,218.057l-3.631,3.664-2.925-.963,3.631-3.667Z"/><path d="M99.821,219.521l-3.63,3.662-2.923-.967,3.63-3.663Z" fill="#bcbec0"/><path d="M86.576,221.025l-3.631,3.663-2.924-.964,3.63-3.665Z" fill="#364685"/><path d="M91,222.486l-3.629,3.667-2.923-.969,3.63-3.664Z" fill="#0f1734"/><path d="M95.434,223.949l-3.63,3.664-2.925-.966,3.631-3.665Z" fill="#ff9d26"/><path d="M108.129,243.107l-54.03-31.2L116.636,175.8,170.669,207Z" opacity="0.3"/><path d="M108.129,242.506,54.1,211.31,116.636,175.2l54.034,31.2Z" fill="#fff"/><path d="M77.713,208.715l1.686,1.362-.5,1.594,1.066,1.423,1.277.659,3.007-.107,5.04-3.194-.28-1.816-3.187-.96-3.146.221-2.141-1.108Z" fill="#f0c6b4"/><path d="M124.271,225.612l1.393.8,1.926-.9,1.632-.3,1.646-1.152-.321-.183-2.412.347Z" fill="#ff4d75"/><path d="M101.212,219.089c5.038,1.362,9.816,2.436,10.843,2.76s2.208,1.025,3.237,1.309a67.947,67.947,0,0,1,9.062,2.485c.481.174,2.269-.543,2.269-.543a9.072,9.072,0,0,0,1.953-.8c.1-.215-1.721.085-2.87-.09-4.765-.731-6.982-2.3-8.809-2.98a35.263,35.263,0,0,0-4.409-1.131,74.358,74.358,0,0,1-6.955-3.351,12.165,12.165,0,0,0-2.678.565S101.394,218.983,101.212,219.089Z" fill="#f0c6b4"/><path d="M117.06,230.095l.517,1.138.683.032,1.825-.975-.944-.615-.059-.339-1.387-.5Z" fill="#ff4d75"/><path d="M96.331,221.852c4.786,1.75,7.862,2.47,8.958,2.978s2.079,1.223,3,1.647c2.251,1.033,5.5,1.645,8.631,3.507.35.206.525.978,1.019.675s.342-1.551-.309-1.852a74.036,74.036,0,0,1-6.566-3.647c-1.08-.569-1.572-.448-2.99-1.121a92.323,92.323,0,0,0-8.473-4.609C98.852,219.116,96.541,221.734,96.331,221.852Z" fill="#f0c6b4"/><path d="M88.3,216.515l.854,1.534,7.022,4.321,9.358-5.617-8.52-3.019-2.959-.543-1.425,0-4.192,2.42Z" fill="#ff4d75"/><path d="M84.992,210.71l.382.793L84,211.284l-2.752,2.469,5.964,2.137,1.161-.042,2.264-1.309h0l2.259-1.305.073-.669-3.7-3.444Z" fill="#ff4d75"/><path d="M76.684,208.636s2.9.462,3.792-.053.214-2.154.214-2.154l-2.219-1.441-2.926-.481-2.324,1.419,1.694,2.151Z" fill="#f0c6b4"/><path d="M75.4,205.655a3.532,3.532,0,0,1,2.2-.49l-.889-.634-1.515.252-.248.413A2.112,2.112,0,0,0,75.4,205.655Z" fill="#3c2415"/><path d="M75.4,205.655a1.1,1.1,0,0,0-.852,1.271l-1.1-.514.441-.875.712-.144A4.752,4.752,0,0,1,75.4,205.655Z" fill="#3c2415"/><path d="M85.826,207.676a9.625,9.625,0,0,1-2.9-.994c-.831-.412-1.366-1.318-3-1.9a10.256,10.256,0,0,0-4.791-.505c-.847.21-.706.558-.849.731-.307.084-.9,0-1.269.493-.432.582-.129,1.822.876,2.766s2.571,1.249,3.291,1.73a4.606,4.606,0,0,1,1.715,1.673.857.857,0,0,0,.357-.773,1.011,1.011,0,0,1,.217.549c.441-.671.615-1.386-.188-1.985s-1.808-.7-2.939-1.38a13.358,13.358,0,0,1-1.29-.82c-.517-.4-.8-.593-.832-.987-.047-.524.781-.471,1.178-.62.257-.227.1-.7,1.01-.707a4.135,4.135,0,0,1,1.773.506,15.564,15.564,0,0,1,1.625.771c.843.526,1.216,1.211,2.251,1.672a4.636,4.636,0,0,0,3.372.109,4.049,4.049,0,0,1-.953-.127A3.553,3.553,0,0,0,85.826,207.676Z" fill="#603913"/><path d="M94.054,213.192,88.3,216.515l-1.088-.626,5.756-3.325Z" fill="#ab183a"/><path d="M91.5,214.043c.273.157.106.507-.373.781a1.631,1.631,0,0,1-1.353.217c-.272-.16-.107-.51.369-.786A1.626,1.626,0,0,1,91.5,214.043Z" fill="#ff9d26"/><path d="M78.9,211.671s-1.031.426-1.132,1.071.809,5.763,1.165,6a6.045,6.045,0,0,0,2.686.428c1.722-.091,2.744-.536,6.169-1.084.379-.061.98.181,1.765.129s2.162-.824,1.794-1.222-2.358-.319-2.358-.319a1.757,1.757,0,0,0-.693-.163c-.278.133-.566.634-1.04.709-1.55.185-5.8.119-5.8.119s-.04-1.685-.209-3.59a20.826,20.826,0,0,0-1.317-2.07Z" fill="#f0c6b4"/><path d="M88.591,209.273s6.04,1.383,7.15,1.45a29.246,29.246,0,0,1,4.587,3.76,1.548,1.548,0,0,0-.17.633l.923.372s1.08,1.354,1.85,1.225.807-1.425.648-1.626a14.352,14.352,0,0,0-1.733-1,40.122,40.122,0,0,0-2.661-3.615,4.71,4.71,0,0,0-2.345-1.153c-1.178-.275-5.406-1.2-6.206-1.383s-3.593-1.505-4.808-.258c-.357.214.276,1.057.276,1.057Z" fill="#f0c6b4"/><path d="M103.746,193.742l1.683,1.361-.495,1.593L106,198.119l1.275.656,3-.106,5.03-3.189-.276-1.814-3.185-.96-3.139.219-2.142-1.105Z" fill="#f0c6b4"/><path d="M150.253,210.619l1.393.8,1.923-.9,1.632-.3,1.644-1.146-.323-.186-2.409.346Z" fill="#ff4d75"/><path d="M133.956,205.849s3.07.69,4.1,1.014,2.205,1.025,3.234,1.307a68.228,68.228,0,0,1,9.051,2.479c.478.176,2.266-.538,2.266-.538a9.059,9.059,0,0,0,1.952-.794c.1-.216-1.72.085-2.867-.092-4.761-.729-6.976-2.294-8.8-2.977a34.617,34.617,0,0,0-4.4-1.126,19.754,19.754,0,0,1-2.62-.979Z" fill="#f0c6b4"/><path d="M143.05,215.1l.517,1.134.681.035,1.825-.974-.943-.617-.062-.338-1.384-.494Z" fill="#ff4d75"/><path d="M128.782,208.837s1.418.5,2.511,1,2.076,1.219,3,1.647c2.25,1.03,5.5,1.642,8.622,3.5.349.209.524.979,1.015.678s.344-1.549-.307-1.849a74.526,74.526,0,0,1-6.557-3.646c-1.078-.569-1.569-.445-2.987-1.12a33.169,33.169,0,0,1-3.327-1.954Z" fill="#f0c6b4"/><path d="M114.319,201.536l.852,1.533,10.933,7.743,11.642-6.936-14.72-5.118-2.957-.542-1.423,0-4.187,2.418Z" fill="#ff4d75"/><path d="M111.015,195.735l.381.795-1.371-.221-2.75,2.465,5.959,2.134,1.16-.042,2.259-1.3h0l2.258-1.3.073-.669-3.694-3.44Z" fill="#ff4d75"/><path d="M102.719,193.665s2.893.463,3.786-.054.214-2.15.214-2.15L104.5,190.02l-2.923-.48-2.32,1.417,1.689,2.148Z" fill="#f0c6b4"/><path d="M101.441,190.687a3.538,3.538,0,0,1,2.2-.492l-.888-.631-1.512.251-.251.412A2.161,2.161,0,0,0,101.441,190.687Z" fill="#3c2415"/><path d="M101.441,190.687a1.1,1.1,0,0,0-.852,1.269l-1.1-.514.441-.872.712-.146A4.747,4.747,0,0,1,101.441,190.687Z" fill="#3c2415"/><path d="M111.849,192.705a9.707,9.707,0,0,1-2.9-.992c-.829-.414-1.361-1.32-3-1.9a10.2,10.2,0,0,0-4.782-.5c-.85.209-.705.554-.852.732-.3.084-.9,0-1.263.49-.432.582-.13,1.821.874,2.763s2.565,1.248,3.286,1.73a4.623,4.623,0,0,1,1.715,1.67.853.853,0,0,0,.354-.774,1.008,1.008,0,0,1,.218.549c.441-.67.613-1.381-.187-1.98s-1.805-.7-2.936-1.38a14.251,14.251,0,0,1-1.291-.819c-.517-.4-.793-.592-.829-.987-.049-.521.782-.47,1.177-.618.255-.229.1-.7,1.009-.706a4.131,4.131,0,0,1,1.77.506,15.313,15.313,0,0,1,1.622.769c.844.527,1.215,1.208,2.25,1.668a4.607,4.607,0,0,0,3.369.109,3.963,3.963,0,0,1-.953-.124A3.53,3.53,0,0,0,111.849,192.705Z" fill="#603913"/><path d="M100.435,190.106a1.79,1.79,0,0,1,.824.477S100.313,190.148,100.435,190.106Z" fill="#3c2415"/><path d="M120.069,198.215l-5.749,3.32-1.086-.627,5.749-3.319Z" fill="#ab183a"/><path d="M117.511,199.064c.273.157.11.508-.369.784a1.634,1.634,0,0,1-1.354.212c-.271-.156-.107-.507.372-.782A1.626,1.626,0,0,1,117.511,199.064Z" fill="#ff9d26"/><path d="M104.935,196.7s-1.029.427-1.131,1.069.808,5.759,1.161,6a6.061,6.061,0,0,0,2.685.429c1.719-.093,2.742-.536,6.16-1.083.383-.062.982.181,1.766.125s2.16-.819,1.79-1.216-2.356-.323-2.356-.323a1.763,1.763,0,0,0-.691-.159c-.278.132-.568.631-1.039.708-1.546.184-5.8.118-5.8.118s-.038-1.683-.208-3.588a20.807,20.807,0,0,0-1.318-2.066Z" fill="#f0c6b4"/><path d="M114.61,194.3s6.037,1.384,7.145,1.448a29.221,29.221,0,0,1,4.58,3.756,1.556,1.556,0,0,0-.169.631l.922.372s1.078,1.351,1.848,1.229.81-1.425.648-1.627a14.549,14.549,0,0,0-1.735-1,40.192,40.192,0,0,0-2.654-3.611,4.694,4.694,0,0,0-2.343-1.153c-1.177-.275-5.4-1.2-6.2-1.383s-3.589-1.5-4.8-.256c-.356.213.277,1.057.277,1.057Z" fill="#f0c6b4"/><path d="M119.194,179.978l-5.17,2.985-2.383-1.375,5.172-2.985Z" fill="#ff4d75"/><path d="M122.8,182.059l-5.17,2.986-2.383-1.375,5.171-2.986Z" fill="#ab183a"/><path d="M126.408,184.143l-5.17,2.985-2.382-1.376,5.171-2.985Z" fill="#ff9d26"/><path d="M110.738,261.815h0l-1.972-1.139a.538.538,0,0,0-.241-.366l-1.75-1.013-.06-.033h0l-.339-.2h0l-.048-.029-.518-.3a.526.526,0,0,0-.435-.021L81.213,244.75a.242.242,0,0,0-.072-.029v0l-3.431-1.059-1.084-.336.834.772,2.636,2.441,0,0a.436.436,0,0,0,.057.049l24.164,13.969a.525.525,0,0,0,.236.365l.279.16,0,0,.285.164h0l.341.2h0l.282.162h0l1.527.882v0a.514.514,0,0,0,.437.024l1.973,1.141h0a.521.521,0,0,0,.528-.053,1.656,1.656,0,0,0,.747-1.3A.523.523,0,0,0,110.738,261.815Z" opacity="0.3"/><path d="M77.461,243.514l-.834-.771,1.084.336Z" fill="#303033"/><path d="M81.142,244.141,80.1,245.957l-2.636-2.443h0a.132.132,0,0,1-.039-.106.387.387,0,0,1,.178-.306.137.137,0,0,1,.111-.024h0Z" fill="#d1c699"/><path d="M105.794,258.379l-1.058,1.832L80.156,246a.528.528,0,0,1-.218-.484,1.65,1.65,0,0,1,.745-1.293.528.528,0,0,1,.53-.055Z" fill="#16a89f"/><path d="M83.306,247.635v-.344l16.873,9.76v.344Z" fill="#535359"/><path d="M100.54,257.6v-.344l2.022,1.17v.344Z" fill="#535359"/><path d="M105.264,258.435a1.646,1.646,0,0,0-.746,1.293c0,.477.334.67.746.432a1.655,1.655,0,0,0,.75-1.3C106.014,258.387,105.678,258.2,105.264,258.435Z" fill="#ff9d26"/><path d="M105.264,259.027a.515.515,0,0,0-.232.4c0,.146.1.2.232.134a.515.515,0,0,0,.233-.4C105.5,259.014,105.394,258.953,105.264,259.027Z" fill="#303033"/><path d="M108.527,259.732l-1.256,2.172-2.715-1.566a.631.631,0,0,1-.259-.576,1.958,1.958,0,0,1,.886-1.535.626.626,0,0,1,.627-.063Z" fill="#a7a9ac"/><path d="M107.9,259.8a1.959,1.959,0,0,0-.888,1.535c0,.565.4.8.888.512a1.959,1.959,0,0,0,.886-1.535C108.786,259.738,108.389,259.512,107.9,259.8Z" fill="#bcbec0"/><path d="M107.618,259.633a1.957,1.957,0,0,0-.887,1.533.626.626,0,0,0,.261.576l-.287-.164a.632.632,0,0,1-.259-.574,1.958,1.958,0,0,1,.887-1.537.628.628,0,0,1,.627-.063l.286.166A.621.621,0,0,0,107.618,259.633Z" fill="#939598"/><path d="M107,259.27a1.962,1.962,0,0,0-.886,1.537.621.621,0,0,0,.261.576l-.289-.164a.634.634,0,0,1-.259-.574,1.969,1.969,0,0,1,.887-1.538.636.636,0,0,1,.628-.064l.285.166A.63.63,0,0,0,107,259.27Z" fill="#939598"/><path d="M106.373,258.912a1.961,1.961,0,0,0-.887,1.537.62.62,0,0,0,.258.573l-.282-.165a.615.615,0,0,1-.263-.574,1.961,1.961,0,0,1,.89-1.535.617.617,0,0,1,.626-.063l.284.165A.626.626,0,0,0,106.373,258.912Z" fill="#939598"/><path d="M105.749,258.553a1.959,1.959,0,0,0-.886,1.535.613.613,0,0,0,.26.572l-.285-.162a.619.619,0,0,1-.26-.574,1.963,1.963,0,0,1,.887-1.537.612.612,0,0,1,.625-.061l.286.164A.626.626,0,0,0,105.749,258.553Z" fill="#939598"/><path d="M110.738,261.236l-1.057,1.83-2.288-1.322a.512.512,0,0,1-.222-.48,1.649,1.649,0,0,1,.749-1.3.517.517,0,0,1,.526-.053Z" fill="#ff2456"/><path d="M110.209,261.289a1.648,1.648,0,0,0-.747,1.293c0,.478.333.67.747.434a1.659,1.659,0,0,0,.747-1.295C110.956,261.242,110.62,261.049,110.209,261.289Z" fill="#ff4d75"/><path d="M136.6,213.126v0l1.976-1.137a.527.527,0,0,1,.236-.368l1.753-1.01.058-.035h0l.337-.2h0l.049-.029.516-.3a.53.53,0,0,1,.435-.023l24.164-13.97a.225.225,0,0,1,.074-.026l0-.007,3.43-1.059,1.082-.337-.828.772-2.636,2.443v0c-.023.015-.04.034-.061.048l-24.163,13.967a.527.527,0,0,1-.235.366l-.284.16v0l-.282.162h0l-.34.2h0l-.284.165h0l-1.527.883v0a.53.53,0,0,1-.436.026l-1.973,1.138h0a.529.529,0,0,1-.529-.052,1.655,1.655,0,0,1-.747-1.3A.521.521,0,0,1,136.6,213.126Z" opacity="0.3"/><path d="M169.883,194.827l.828-.772-1.082.334Z" fill="#303033"/><path d="M166.2,195.447l1.048,1.821,2.636-2.441v0a.152.152,0,0,0,.035-.1.4.4,0,0,0-.178-.311.152.152,0,0,0-.111-.02h0Z" fill="#d1c699"/><path d="M141.548,209.692l1.055,1.831,24.582-14.211a.526.526,0,0,0,.219-.484,1.648,1.648,0,0,0-.749-1.295.518.518,0,0,0-.526-.051Z" fill="#ff8400"/><path d="M164.037,198.945V198.6l-16.874,9.761v.343Z" fill="#535359"/><path d="M146.8,208.913v-.343l-2.023,1.169v.345Z" fill="#535359"/><path d="M142.076,209.743a1.657,1.657,0,0,1,.75,1.3c0,.475-.337.669-.75.43a1.653,1.653,0,0,1-.747-1.295C141.329,209.7,141.664,209.508,142.076,209.743Z" fill="#ff9d26"/><path d="M142.076,210.34a.509.509,0,0,1,.232.4c0,.149-.1.209-.232.132a.5.5,0,0,1-.233-.4C141.843,210.326,141.945,210.266,142.076,210.34Z" fill="#303033"/><path d="M138.814,211.042l1.256,2.174,2.717-1.571a.618.618,0,0,0,.26-.572,1.955,1.955,0,0,0-.887-1.535.626.626,0,0,0-.63-.062Z" fill="#a7a9ac"/><path d="M139.443,211.1a1.96,1.96,0,0,1,.885,1.537c0,.565-.4.8-.885.512a1.964,1.964,0,0,1-.888-1.535C138.555,211.051,138.954,210.823,139.443,211.1Z" fill="#bcbec0"/><path d="M139.723,210.944a1.956,1.956,0,0,1,.889,1.533.626.626,0,0,1-.26.576l.284-.165a.63.63,0,0,0,.259-.574,1.956,1.956,0,0,0-.887-1.535.619.619,0,0,0-.626-.063l-.286.163A.623.623,0,0,1,139.723,210.944Z" fill="#939598"/><path d="M140.348,210.584a1.954,1.954,0,0,1,.884,1.535.628.628,0,0,1-.257.575l.284-.164a.629.629,0,0,0,.26-.577,1.966,1.966,0,0,0-.887-1.536.625.625,0,0,0-.627-.061l-.286.165A.625.625,0,0,1,140.348,210.584Z" fill="#939598"/><path d="M140.968,210.222a1.959,1.959,0,0,1,.887,1.539.628.628,0,0,1-.258.573l.284-.165a.622.622,0,0,0,.261-.575,1.964,1.964,0,0,0-.887-1.536.629.629,0,0,0-.629-.062l-.285.167A.624.624,0,0,1,140.968,210.222Z" fill="#939598"/><path d="M141.593,209.862a1.966,1.966,0,0,1,.886,1.538.63.63,0,0,1-.258.575l.281-.165a.617.617,0,0,0,.261-.574,1.957,1.957,0,0,0-.887-1.537.614.614,0,0,0-.626-.062l-.285.162A.63.63,0,0,1,141.593,209.862Z" fill="#939598"/><path d="M136.6,212.547l1.058,1.83,2.287-1.321a.522.522,0,0,0,.22-.484,1.65,1.65,0,0,0-.748-1.294.521.521,0,0,0-.527-.052Z" fill="#ff2456"/><path d="M137.132,212.6a1.647,1.647,0,0,1,.749,1.294c0,.476-.334.669-.749.432a1.658,1.658,0,0,1-.747-1.295C136.385,212.556,136.72,212.36,137.132,212.6Z" fill="#ff4d75"/><path d="M125.873,273.918v0l.533-2.215a.518.518,0,0,1-.1-.426l.468-1.966.018-.067h0l.09-.379h0l.012-.056.141-.578a.539.539,0,0,1,.283-.332l6.487-27.147a.4.4,0,0,1,.03-.073h0l1.589-3.22.5-1.015-.012,1.135-.04,3.591h-.005a.6.6,0,0,1-.005.074l-6.489,27.145a.533.533,0,0,1,.1.425l-.074.313v0l-.077.32v0l-.092.383h0l-.078.319h0l-.41,1.716,0,0a.519.519,0,0,1-.282.332l-.531,2.217h0a.521.521,0,0,1-.4.346,1.65,1.65,0,0,1-1.455-.348A.526.526,0,0,1,125.873,273.918Z" opacity="0.3"/><path d="M135.861,237.175l.014-1.133-.5,1.014Z" fill="#303033"/><path d="M133.781,240.277l2.04.492.04-3.594h0a.136.136,0,0,0-.049-.1.392.392,0,0,0-.348-.084.138.138,0,0,0-.091.063h0Z" fill="#d1c699"/><path d="M127.153,267.965l2.057.494,6.6-27.615a.539.539,0,0,0-.2-.495,1.655,1.655,0,0,0-1.456-.347.531.531,0,0,0-.4.349Z" fill="#e31b25"/><path d="M134.829,244.252l-.249-.236-4.525,18.959.248.236Z" fill="#535359"/><path d="M130.206,263.619l-.25-.238-.545,2.273.251.238Z" fill="#535359"/><path d="M127.556,267.617a1.651,1.651,0,0,1,1.455.35.455.455,0,0,1-.2.838,1.666,1.666,0,0,1-1.456-.348A.457.457,0,0,1,127.556,267.617Z" fill="#ff9d26"/><path d="M127.99,268.029a.5.5,0,0,1,.449.1c.109.105.081.22-.061.262a.514.514,0,0,1-.453-.108C127.818,268.185,127.847,268.07,127.99,268.029Z" fill="#303033"/><path d="M126.254,270.879l2.441.582.73-3.049a.629.629,0,0,0-.239-.584,1.957,1.957,0,0,0-1.725-.412.632.632,0,0,0-.478.412Z" fill="#a7a9ac"/><path d="M126.73,270.465a1.954,1.954,0,0,1,1.726.414.54.54,0,0,1-.239,1,1.962,1.962,0,0,1-1.726-.416A.54.54,0,0,1,126.73,270.465Z" fill="#bcbec0"/><path d="M126.809,270.152a1.946,1.946,0,0,1,1.722.411.626.626,0,0,1,.238.584l.076-.321a.626.626,0,0,0-.235-.584,1.98,1.98,0,0,0-1.728-.414.637.637,0,0,0-.476.414l-.075.321A.62.62,0,0,1,126.809,270.152Z" fill="#939598"/><path d="M126.975,269.447a1.96,1.96,0,0,1,1.723.42.616.616,0,0,1,.24.58l.077-.318a.627.627,0,0,0-.237-.586,1.972,1.972,0,0,0-1.726-.412.621.621,0,0,0-.477.41l-.078.324A.643.643,0,0,1,126.975,269.447Z" fill="#939598"/><path d="M127.144,268.75a1.959,1.959,0,0,1,1.723.414.614.614,0,0,1,.236.582l.078-.318a.624.624,0,0,0-.237-.584,1.958,1.958,0,0,0-1.726-.412.615.615,0,0,0-.476.41l-.076.32A.627.627,0,0,1,127.144,268.75Z" fill="#939598"/><path d="M127.31,268.051a1.959,1.959,0,0,1,1.725.416.62.62,0,0,1,.237.58l.079-.317a.627.627,0,0,0-.24-.587,1.962,1.962,0,0,0-1.726-.411.617.617,0,0,0-.475.411l-.078.32A.625.625,0,0,1,127.31,268.051Z" fill="#939598"/><path d="M125.824,273.52l2.055.492.617-2.571a.532.532,0,0,0-.2-.494,1.645,1.645,0,0,0-1.455-.347.527.527,0,0,0-.4.345Z" fill="#ff2456"/><path d="M126.226,273.168a1.647,1.647,0,0,1,1.453.352.454.454,0,0,1-.2.837,1.66,1.66,0,0,1-1.452-.345A.458.458,0,0,1,126.226,273.168Z" fill="#ff4d75"/><path d="M125.625,283.185h0l1.117-1.986a.527.527,0,0,1,.019-.439l.992-1.76.033-.059v0l.192-.338h0l.027-.051.293-.522a.533.533,0,0,1,.365-.24l13.663-24.338a.515.515,0,0,1,.049-.06h-.006l2.412-2.661.763-.841-.323,1.088-1.023,3.443,0,0a.325.325,0,0,1-.026.07L130.5,278.824a.532.532,0,0,1-.017.434l-.159.281,0,0-.16.285h0l-.192.344h0l-.162.283h0l-.865,1.537h0a.507.507,0,0,1-.362.242l-1.116,1.989h0a.533.533,0,0,1-.481.224,1.657,1.657,0,0,1-1.3-.732A.529.529,0,0,1,125.625,283.185Z" opacity="0.3"/><path d="M145.283,250.578l.321-1.088-.761.84Z" fill="#303033"/><path d="M142.432,252.992l1.827,1.028,1.024-3.442h0a.134.134,0,0,0-.021-.109.39.39,0,0,0-.314-.174.143.143,0,0,0-.1.035h0Z" fill="#d1c699"/><path d="M128.485,277.81l1.843,1.038,13.9-24.756a.529.529,0,0,0-.058-.529,1.662,1.662,0,0,0-1.3-.733.511.511,0,0,0-.479.225Z" fill="#202b57"/><path d="M142.352,257.1l-.172-.295-9.542,17,.175.295Z" fill="#535359"/><path d="M132.61,274.465l-.178-.3-1.144,2.039.174.3Z" fill="#535359"/><path d="M128.965,277.588a1.652,1.652,0,0,1,1.305.732c.242.41.054.746-.422.752a1.659,1.659,0,0,1-1.306-.734C128.3,277.93,128.491,277.592,128.965,277.588Z" fill="#ff9d26"/><path d="M129.269,278.1a.51.51,0,0,1,.406.226c.074.131.017.233-.129.234a.51.51,0,0,1-.4-.226C129.063,278.2,129.123,278.1,129.269,278.1Z" fill="#303033"/><path d="M126.824,280.367l2.186,1.229,1.535-2.735a.613.613,0,0,0-.067-.625,1.964,1.964,0,0,0-1.547-.869.621.621,0,0,0-.573.266Z" fill="#a7a9ac"/><path d="M127.394,280.1a1.945,1.945,0,0,1,1.545.869c.289.488.067.884-.5.894a1.961,1.961,0,0,1-1.545-.871C126.6,280.506,126.828,280.107,127.394,280.1Z" fill="#bcbec0"/><path d="M127.553,279.816a1.963,1.963,0,0,1,1.546.872.618.618,0,0,1,.069.625l.16-.286a.625.625,0,0,0-.067-.629,1.952,1.952,0,0,0-1.548-.867.621.621,0,0,0-.569.266l-.163.287A.634.634,0,0,1,127.553,279.816Z" fill="#939598"/><path d="M127.906,279.19a1.966,1.966,0,0,1,1.547.87.63.63,0,0,1,.068.625l.164-.287a.635.635,0,0,0-.072-.625,1.959,1.959,0,0,0-1.546-.869.616.616,0,0,0-.57.266l-.163.287A.62.62,0,0,1,127.906,279.19Z" fill="#939598"/><path d="M128.258,278.565a1.959,1.959,0,0,1,1.547.867.626.626,0,0,1,.068.627l.161-.286a.621.621,0,0,0-.068-.628,1.961,1.961,0,0,0-1.548-.868.618.618,0,0,0-.571.266l-.161.287A.627.627,0,0,1,128.258,278.565Z" fill="#939598"/><path d="M128.613,277.938a1.946,1.946,0,0,1,1.542.869.611.611,0,0,1,.069.625l.163-.287a.624.624,0,0,0-.067-.625,1.965,1.965,0,0,0-1.549-.87.618.618,0,0,0-.568.266l-.163.287A.619.619,0,0,1,128.613,277.938Z" fill="#939598"/><path d="M125.687,282.787l1.844,1.037,1.294-2.3a.524.524,0,0,0-.056-.528,1.656,1.656,0,0,0-1.3-.732.527.527,0,0,0-.482.224Z" fill="#ff2456"/><path d="M126.171,282.563a1.666,1.666,0,0,1,1.3.734c.239.41.05.748-.424.754a1.665,1.665,0,0,1-1.305-.736C125.5,282.906,125.692,282.568,126.171,282.563Z" fill="#ff4d75"/><path d="M150.271,220.631a4.807,4.807,0,0,1-2.355-.537,1.755,1.755,0,0,1-1-1.493,2.477,2.477,0,0,1,1.459-1.979l1.743-1.009a6.628,6.628,0,0,1,3.207-.805,4.819,4.819,0,0,1,2.356.541,1.742,1.742,0,0,1,1,1.491,2.476,2.476,0,0,1-1.459,1.978l-1.742,1.008A6.6,6.6,0,0,1,150.271,220.631Z" opacity="0.3"/><path d="M156.458,216.827V215.4l-.85.162a.191.191,0,0,1-.032-.023,6,6,0,0,0-5.345.266l-1.742,1.006c-.082.049-.161.1-.236.152l-1.111.21v1.466h0a1.533,1.533,0,0,0,.881,1.256,5.984,5.984,0,0,0,5.344-.267l1.741-1a2.269,2.269,0,0,0,1.348-1.79h0Z" fill="#bdaf83"/><path d="M155.576,214.09c1.339.775,1.13,2.162-.466,3.084l-1.741,1.005a5.977,5.977,0,0,1-5.344.267c-1.339-.773-1.131-2.16.464-3.083l1.742-1.006A5.976,5.976,0,0,1,155.576,214.09Z" fill="#e6dab0"/><path d="M400.468,294.066l-100,57.74-69.135-39.916,100-57.74Z" opacity="0.3"/><path d="M400.468,293.244l-100,57.74L231.329,311.07l100-57.738Z" fill="#fff"/><path d="M291.995,307.713l-16.509,9.531-2.179-1.259,16.514-9.529Zm-16.509,9.138,15.826-9.138-1.493-.864-15.826,9.136Z" fill="#535359"/><path d="M283.655,312.428c-1.131.65-2.409.894-2.983.564s-.146-1.066.981-1.72,2.408-.895,2.979-.565S284.784,311.776,283.655,312.428Zm-1.661-.957c-.939.539-1.288,1.144-.979,1.326a3.312,3.312,0,0,0,2.3-.566c.937-.54,1.29-1.149.973-1.327A3.3,3.3,0,0,0,281.994,311.471Z" fill="#535359"/><path d="M320.339,333.607c-10.068,5.811-17.273,9.083-19.779,8.978a1.377,1.377,0,0,1-.786-.228l-.032-.024-.01-.032c-1.033-2.942-7.9-8.443-13.421-12.863-3.465-2.778-6.463-5.176-7.554-6.532a18.923,18.923,0,0,1-3.5-5.838l.475-.043a18.733,18.733,0,0,0,3.467,5.762c1.073,1.334,4.058,3.722,7.51,6.486,5.526,4.426,12.4,9.931,13.487,12.942a.872.872,0,0,0,.4.093c1.8.077,7.841-2.22,19.408-8.9s15.532-10.163,15.4-11.2a.3.3,0,0,0-.161-.233c-5.213-.63-14.745-4.6-22.411-7.786a118.761,118.761,0,0,0-11.233-4.334,67.451,67.451,0,0,0-9.987-2l.081-.276A68.293,68.293,0,0,1,301.8,309.6a119.136,119.136,0,0,1,11.308,4.361c7.66,3.185,17.187,7.152,22.283,7.748l.052,0,.044.019a.588.588,0,0,1,.4.454C336.068,323.635,330.4,327.8,320.339,333.607Z" fill="#535359"/><path d="M290,306.559l-.359.186a9.7,9.7,0,0,1-2.174-2.649,15.021,15.021,0,0,0-3.46-4.063,17.553,17.553,0,0,0-2.965-1.718c-.8-.382-1.8-.854-3.574-1.875-3.835,1.535-9.536,4.648-10.455,5.152a2.687,2.687,0,0,1,.679,1.482l-.009.133-.222,0a10.367,10.367,0,0,1-2.568-.39,95.791,95.791,0,0,0-8.93,6.036c1.768,1.028,2.588,1.6,3.25,2.059a17.111,17.111,0,0,0,2.975,1.715,38.326,38.326,0,0,0,7.036,2,25.529,25.529,0,0,1,4.592,1.257l-.323.208a26.54,26.54,0,0,0-4.442-1.2,38.657,38.657,0,0,1-7.17-2.044,17.238,17.238,0,0,1-3.039-1.75c-.674-.468-1.51-1.053-3.364-2.123l-.14-.078.108-.1a96.429,96.429,0,0,1,9.219-6.242l.124-.075.159.047a11.467,11.467,0,0,0,2.26.4,3.12,3.12,0,0,0-.7-1.3l-.084-.094.13-.071a119.253,119.253,0,0,1,10.808-5.318l.165-.067.14.08c1.853,1.07,2.868,1.555,3.68,1.944a18.1,18.1,0,0,1,3.035,1.755,15.229,15.229,0,0,1,3.534,4.137A9.878,9.878,0,0,0,290,306.559Z" fill="#535359"/><path d="M322.726,334.986a.2.2,0,0,1-.174,0l-63.2-36.488a.052.052,0,0,1,0-.1.179.179,0,0,1,.168,0l63.2,36.488A.054.054,0,0,1,322.726,334.986Z" fill="#535359"/><path d="M296.093,319.512l-15.033,8.676-7.147-10.312,9.676-5.585ZM281.15,327.94l14.6-8.428-12.163-7.025L274.2,317.91Z" fill="#535359"/><path d="M308.425,326.631,289.094,337.8l-7.148-10.317,13.976-8.068Zm-19.244,10.917,18.909-10.917-12.168-7.022-13.693,7.908Z" fill="#535359"/><path d="M320.766,333.754,298.516,346.6l-7.145-10.312,16.889-9.751Zm-22.164,12.6,21.818-12.6-12.16-7.022-16.609,9.585Z" fill="#535359"/><path d="M321.717,290.353l-38.148,22.025a.172.172,0,0,1-.17,0c-.051-.026-.051-.071,0-.1l38.148-22.025a.182.182,0,0,1,.17,0A.052.052,0,0,1,321.717,290.353Z" fill="#535359"/><path d="M321.717,334.4a.188.188,0,0,1-.17,0c-.05-.028-.05-.073,0-.1,20.989-12.117,20.989-31.833,0-43.952-.05-.025-.05-.074,0-.1a.182.182,0,0,1,.17,0c10.214,5.895,15.836,13.734,15.836,22.073S331.931,328.506,321.717,334.4Z" fill="#535359"/><path d="M318.033,332.275a.162.162,0,0,1-.143.013c-.058-.018-.08-.061-.042-.1l13.329-13.474-42.351-9.436c-.059-.016-.092-.055-.063-.09a.15.15,0,0,1,.151-.041l42.612,9.495-13.473,13.615A.03.03,0,0,1,318.033,332.275Z" fill="#535359"/><path d="M306.438,325.586a.194.194,0,0,1-.134.012c-.063-.018-.082-.059-.057-.094l11.5-13.694-23.975-5.382c-.065-.014-.1-.053-.071-.09a.166.166,0,0,1,.159-.039l24.22,5.437-11.614,13.83A.176.176,0,0,1,306.438,325.586Z" fill="#535359"/><path d="M297.317,320.318a.175.175,0,0,1-.135.012c-.06-.017-.08-.058-.054-.094l11.9-14.312-10.222-2.4c-.062-.014-.09-.054-.068-.09a.163.163,0,0,1,.158-.038l10.463,2.455-.059.066L297.344,320.3A.267.267,0,0,1,297.317,320.318Z" fill="#535359"/><path d="M280.063,310.33c-4.495,2.6-9.763,5.074-10.667,4.553s3.386-3.565,7.883-6.162,9.77-5.074,10.671-4.553S284.56,307.733,280.063,310.33Zm-2.614-1.51c-5.364,3.1-8.462,5.629-7.885,5.963s4.961-1.451,10.33-4.551,8.467-5.628,7.889-5.964S282.817,305.721,277.449,308.82Z" fill="#535359"/><path d="M283.889,312.563c-3.961,2.287-8.6,4.465-9.406,4s2.974-3.142,6.935-5.428,8.6-4.467,9.4-4S287.847,310.277,283.889,312.563Zm-2.3-1.327c-4.712,2.719-7.437,4.941-6.934,5.233s4.346-1.284,9.06-4,7.44-4.942,6.933-5.233S286.3,308.514,281.589,311.236Z" fill="#535359"/><path d="M274.727,307.273c-5.413,3.124-11.746,6.108-12.825,5.485s4.092-4.28,9.5-7.4,11.746-6.107,12.823-5.487S280.138,304.148,274.727,307.273Zm-3.153-1.82c-6.473,3.742-10.206,6.8-9.5,7.208s6-1.747,12.48-5.488,10.206-6.8,9.5-7.205S278.052,301.714,271.574,305.453Z" fill="#535359"/><path d="M277.579,296.308a.191.191,0,0,1-.168,0l-4.233-2.443c-.046-.027-.046-.071,0-.1a.193.193,0,0,1,.169,0l4.23,2.441C277.629,296.236,277.629,296.281,277.579,296.308Z" fill="#535359"/><path d="M288.152,312.938a.2.2,0,0,1-.168,0l-3.605-2.085a.052.052,0,0,1,0-.1.178.178,0,0,1,.168,0l3.605,2.082C288.2,312.865,288.2,312.91,288.152,312.938Z" fill="#535359"/><path d="M284.534,315.025a.18.18,0,0,1-.169,0l-3.6-2.081c-.048-.029-.048-.071,0-.1a.188.188,0,0,1,.167,0l3.605,2.084C284.582,314.953,284.582,315,284.534,315.025Z" fill="#535359"/><path d="M255.732,308.921a.186.186,0,0,1-.172,0l-4.229-2.443c-.05-.025-.05-.072,0-.1a.171.171,0,0,1,.167,0l4.234,2.441C255.782,308.85,255.782,308.895,255.732,308.921Z" fill="#535359"/><path d="M273.349,293.865,251.5,306.478a.182.182,0,0,1-.167,0c-.05-.025-.05-.072,0-.1l21.849-12.615a.193.193,0,0,1,.169,0A.053.053,0,0,1,273.349,293.865Z" fill="#535359"/><path d="M272.392,296.518l-4.868,2.81-.771-.442,4.872-2.81Z" fill="#535359"/><path d="M260.965,303.111l-4.868,2.813-.766-.441,4.866-2.81Z" fill="#535359"/><path d="M291.086,291.948c-2.627,1.517-5.67,2.137-6.922,1.409s-.184-2.48,2.44-4,5.666-2.134,6.922-1.41S293.708,290.434,291.086,291.948Zm-4.141-2.389c-2.35,1.359-3.471,3.008-2.44,3.6s3.889-.051,6.241-1.409,3.469-3.009,2.439-3.6S289.3,288.2,286.945,289.559Z" fill="#535359"/><path d="M288.152,312.938l-3.618,2.087a.18.18,0,0,1-.169,0c-.048-.028-.048-.072,0-.1l3.619-2.09a.178.178,0,0,1,.168,0C288.2,312.865,288.2,312.91,288.152,312.938Z" fill="#535359"/><path d="M307.707,290.858l-13.766,7.949a.375.375,0,0,1-.339,0c-.093-.051-.093-.141,0-.2l13.667-7.889.881-2.567-4.3.586-13.675,7.892a.369.369,0,0,1-.339,0c-.1-.053-.1-.143,0-.2l13.768-7.947,5.163-.705Z" fill="#535359"/><path d="M296.573,295.559a1.235,1.235,0,0,1-1.108,0,.338.338,0,0,1,0-.641,1.229,1.229,0,0,1,1.108,0A.34.34,0,0,1,296.573,295.559Zm-.769-.444c-.118.068-.118.178,0,.244a.457.457,0,0,0,.428,0,.129.129,0,0,0,0-.244A.487.487,0,0,0,295.8,295.115Z" fill="#535359"/><path d="M293.161,297.527a1.221,1.221,0,0,1-1.11,0,.339.339,0,0,1,0-.64,1.246,1.246,0,0,1,1.11,0C293.471,297.065,293.471,297.352,293.161,297.527Zm-.769-.443a.129.129,0,0,0,0,.244.462.462,0,0,0,.428,0c.12-.066.12-.176,0-.244A.487.487,0,0,0,292.392,297.084Z" fill="#535359"/><path d="M333.61,258.121l-29.9,17.26-1.31-.754,29.9-17.26Z" fill="#bcbec0"/><path d="M337.018,260.091l-29.893,17.261-1.307-.756,29.893-17.259Z" fill="#bcbec0"/><path d="M332.868,266.426,310.535,279.32l-1.3-.756,22.333-12.9Z" fill="#bcbec0"/><path d="M330.311,271.838l-16.368,9.448-1.3-.756L329,271.084Z" fill="#bcbec0"/><path d="M347.25,266l-29.9,17.258-1.3-.756,29.89-17.258Z" fill="#bcbec0"/><path d="M329.632,280.1l-8.866,5.119-1.309-.753,8.866-5.12Z" fill="#bcbec0"/><path d="M354.064,269.935l-29.889,17.258-1.307-.756,29.892-17.258Z" fill="#bcbec0"/><path d="M349.751,276.173l-22.335,12.893-.976-.564,22.333-12.9Z" fill="#bcbec0"/><path d="M360.885,273.869l-29.894,17.262-1.306-.756,29.893-17.258Z" fill="#bcbec0"/><path d="M352.928,283.586l-16.364,9.45-1.309-.756,16.367-9.45Z" fill="#bcbec0"/><path d="M359.85,284.166l-19.321,11.157-1.309-.755,19.324-11.156Z" fill="#bcbec0"/><path d="M367.8,282.725,343.252,296.9l-1.307-.752L366.5,281.967Z" fill="#bcbec0"/><path d="M374.164,283.7l-26.88,15.522-1.311-.756,26.885-15.521Z" fill="#bcbec0"/><path d="M374.559,286.623,350.013,300.8l-1.307-.754,24.549-14.176Z" fill="#bcbec0"/><path d="M380.873,287.576,353.988,303.1l-1.308-.757,26.884-15.519Z" fill="#bcbec0"/><path d="M372.573,295.516l-15.854,9.153-1.309-.753,15.856-9.155Z" fill="#bcbec0"/><path d="M378.653,297.188l-17.447,10.073-1.307-.754,17.447-10.073Z" fill="#bcbec0"/><path d="M372.8,303.719l-8.864,5.118-1.309-.756,8.868-5.118Z" fill="#bcbec0"/><path d="M394.987,293.361l-30.233,17.456-32.1-18.53,30.24-17.455Zm-30.233,17.063L394.3,293.361l-31.408-18.135-29.557,17.061Z" fill="#535359"/><path d="M373.448,281.123l-29.893,17.26-.341-.2,29.892-17.262Z" fill="#535359"/><path d="M366.628,277.185l-29.893,17.258-.342-.193,29.893-17.262Z" fill="#535359"/><path d="M380.267,285.06l-29.894,17.26-.341-.2,29.894-17.256Z" fill="#535359"/><path d="M387.087,289,357.2,306.256l-.345-.2,29.893-17.26Z" fill="#535359"/><path d="M348.036,294.207a2.688,2.688,0,0,0,.528.792,1.134,1.134,0,0,1,.82-.075l1.328.77h.006l.164.1a1.466,1.466,0,0,1,.511.057l15.786,9.111.1.057.058.034a1.837,1.837,0,0,1,.562.067l14.554,8.417a1.409,1.409,0,0,1,.647,1.877l-.009.02a1.407,1.407,0,0,1-1.948.372l-2.353-1.358a.727.727,0,0,1-.983.266L367.23,308.6a18.331,18.331,0,0,1-2.417-1.941l13.068,7.554s.189-.039.233-.155l-11.532-6.663a1.876,1.876,0,0,1-.337-.452l-.159-.088v0L350.3,297.735a1.532,1.532,0,0,1-.3-.414l-1.493-.865a1.139,1.139,0,0,1-.352-.741l-3.422-2.03Z" opacity="0.3"/><path d="M348.036,293.826l-3.309-.521,5.393,3.2s.337-.762-.694-1.249A2.847,2.847,0,0,1,348.036,293.826Z" fill="#b8b8b8"/><path d="M349.384,294.545a.891.891,0,0,0-.883,1.533l16.183,9.34a.951.951,0,0,0,1.316-.25l.008-.016a.951.951,0,0,0-.437-1.265Z" fill="#ff8400"/><path d="M350.008,295.933a1.035,1.035,0,0,0-.016,1.009l-.159-.092a.988.988,0,0,1,.885-1.535l.164.1A1.037,1.037,0,0,0,350.008,295.933Z" fill="#ba6000"/><path d="M369.185,305.736a1.176,1.176,0,0,1,.54,1.561l-.01.02a1.176,1.176,0,0,1-1.625.31L350.3,297.356a1.553,1.553,0,0,1-.3-.414,1.04,1.04,0,0,1,.89-1.53,1.481,1.481,0,0,1,.511.056Z" fill="#1d374e"/><path d="M366.243,305.3a1.234,1.234,0,0,0,0,1.263l-.159-.09a1.185,1.185,0,0,1,1.093-1.892l.159.093A1.229,1.229,0,0,0,366.243,305.3Z" fill="#0f2034"/><path d="M382.454,313.154a1.409,1.409,0,0,1,.647,1.877l-.009.024a1.412,1.412,0,0,1-1.948.37l-14.562-8.413a1.876,1.876,0,0,1-.337-.452,1.256,1.256,0,0,1,1.093-1.889,1.874,1.874,0,0,1,.562.067Z" fill="#1d374e"/><path d="M378.843,313.99s-.408.705-1.035.339l-10.578-6.112a18.353,18.353,0,0,1-2.417-1.94l13.068,7.557s.391-.08.191-.332l-.017-.285.794.462.013.28Z" fill="#ff8400"/><path d="M380.079,325.287h0l-1.972-1.14a.517.517,0,0,0-.239-.365l-1.749-1.012-.061-.035h0l-.338-.195h0l-.046-.027-.516-.3a.53.53,0,0,0-.437-.025l-24.163-13.97a.464.464,0,0,0-.073-.029l0,0-3.429-1.061-1.083-.334.829.771,2.634,2.441h0a.59.59,0,0,1,.056.048l24.166,13.968a.532.532,0,0,0,.235.365l.282.162,0,0,.285.161h0l.343.2h0l.285.162h0l1.527.885v0a.524.524,0,0,0,.434.022l1.971,1.141h0a.53.53,0,0,0,.531-.053,1.65,1.65,0,0,0,.75-1.293A.516.516,0,0,0,380.079,325.287Z" opacity="0.3"/><path d="M346.8,306.988l-.829-.772,1.083.333Z" fill="#303033"/><path d="M350.487,307.612l-1.049,1.819-2.634-2.443v0a.143.143,0,0,1-.039-.1.411.411,0,0,1,.178-.311.155.155,0,0,1,.115-.023h0Z" fill="#d1c699"/><path d="M375.14,321.853l-1.057,1.833L349.5,309.474a.539.539,0,0,1-.217-.485,1.65,1.65,0,0,1,.749-1.294.521.521,0,0,1,.53-.052Z" fill="#ff8400"/><path d="M352.649,311.105v-.343l16.871,9.762v.342Z" fill="#535359"/><path d="M369.883,321.075v-.346l2.023,1.173v.342Z" fill="#535359"/><path d="M374.611,321.907a1.648,1.648,0,0,0-.748,1.294c0,.475.335.669.748.431a1.658,1.658,0,0,0,.744-1.294C375.355,321.861,375.02,321.668,374.611,321.907Z" fill="#ff9d26"/><path d="M374.611,322.5a.512.512,0,0,0-.233.4c0,.148.1.206.233.132a.514.514,0,0,0,.23-.4C374.841,322.486,374.737,322.427,374.611,322.5Z" fill="#303033"/><path d="M377.87,323.2l-1.253,2.174-2.72-1.57a.623.623,0,0,1-.258-.575,1.969,1.969,0,0,1,.888-1.535.639.639,0,0,1,.631-.065Z" fill="#a7a9ac"/><path d="M377.246,323.267a1.953,1.953,0,0,0-.888,1.534c0,.565.4.8.888.514a1.964,1.964,0,0,0,.883-1.537C378.129,323.212,377.734,322.985,377.246,323.267Z" fill="#bcbec0"/><path d="M376.965,323.106a1.954,1.954,0,0,0-.888,1.534.618.618,0,0,0,.259.574l-.289-.163a.641.641,0,0,1-.255-.576,1.957,1.957,0,0,1,.888-1.536.618.618,0,0,1,.626-.061l.283.164A.617.617,0,0,0,376.965,323.106Z" fill="#939598"/><path d="M376.338,322.743a1.973,1.973,0,0,0-.885,1.538.627.627,0,0,0,.259.574l-.283-.163a.628.628,0,0,1-.263-.574,1.961,1.961,0,0,1,.887-1.537.625.625,0,0,1,.629-.064l.289.165A.636.636,0,0,0,376.338,322.743Z" fill="#939598"/><path d="M375.716,322.385a1.963,1.963,0,0,0-.885,1.538.616.616,0,0,0,.261.57l-.285-.165a.612.612,0,0,1-.261-.571,1.964,1.964,0,0,1,.887-1.537.626.626,0,0,1,.625-.064l.285.163A.628.628,0,0,0,375.716,322.385Z" fill="#939598"/><path d="M375.1,322.026a1.956,1.956,0,0,0-.887,1.535.619.619,0,0,0,.257.573l-.285-.164a.626.626,0,0,1-.257-.574,1.958,1.958,0,0,1,.886-1.535.613.613,0,0,1,.623-.061l.287.16A.625.625,0,0,0,375.1,322.026Z" fill="#939598"/><path d="M380.079,324.707l-1.057,1.831-2.285-1.32a.525.525,0,0,1-.219-.485,1.662,1.662,0,0,1,.746-1.3.523.523,0,0,1,.53-.05Z" fill="#ff2456"/><path d="M379.553,324.759a1.65,1.65,0,0,0-.745,1.3c0,.476.331.67.745.429a1.651,1.651,0,0,0,.75-1.294C380.3,324.716,379.966,324.523,379.553,324.759Z" fill="#ff4d75"/><path d="M283.858,346.68v0l1.969-1.137a.531.531,0,0,1,.241-.367l1.749-1.01.062-.035h0l.335-.2h0l.05-.027.518-.3a.521.521,0,0,1,.435-.023l24.162-13.971a.3.3,0,0,1,.071-.024l0-.006,3.435-1.061,1.085-.334-.838.771-2.63,2.44-.007,0a.367.367,0,0,1-.056.047l-24.164,13.968a.513.513,0,0,1-.239.367l-.281.161h0l-.282.167h0l-.338.2h0l-.285.161h0l-1.528.884v0a.507.507,0,0,1-.434.023l-1.973,1.141h0a.522.522,0,0,1-.528-.051,1.657,1.657,0,0,1-.746-1.3A.517.517,0,0,1,283.858,346.68Z" opacity="0.3"/><path d="M317.132,328.381l.838-.772-1.085.336Z" fill="#303033"/><path d="M313.45,329l1.052,1.818,2.63-2.441v0a.117.117,0,0,0,.042-.1.41.41,0,0,0-.182-.312.133.133,0,0,0-.107-.019h0Z" fill="#d1c699"/><path d="M288.8,343.246l1.055,1.834,24.582-14.211a.538.538,0,0,0,.216-.486,1.65,1.65,0,0,0-.746-1.295.528.528,0,0,0-.528-.054Z" fill="#ff8400"/><path d="M311.287,332.5v-.347l-16.871,9.762v.344Z" fill="#535359"/><path d="M294.055,342.469v-.344l-2.024,1.17v.344Z" fill="#535359"/><path d="M289.33,343.3a1.657,1.657,0,0,1,.746,1.295c0,.474-.335.668-.746.429a1.647,1.647,0,0,1-.747-1.3C288.583,343.254,288.918,343.06,289.33,343.3Z" fill="#ff9d26"/><path d="M289.33,343.893a.515.515,0,0,1,.228.4c0,.148-.1.209-.228.135a.512.512,0,0,1-.232-.4C289.1,343.883,289.2,343.821,289.33,343.893Z" fill="#303033"/><path d="M286.066,344.6l1.256,2.174,2.714-1.571a.619.619,0,0,0,.262-.574,1.959,1.959,0,0,0-.886-1.534.621.621,0,0,0-.628-.064Z" fill="#a7a9ac"/><path d="M286.7,344.66a1.96,1.96,0,0,1,.884,1.537c0,.564-.4.794-.884.508a1.962,1.962,0,0,1-.889-1.535C285.809,344.6,286.21,344.377,286.7,344.66Z" fill="#bcbec0"/><path d="M286.977,344.5a1.967,1.967,0,0,1,.884,1.537.614.614,0,0,1-.258.573l.284-.163a.631.631,0,0,0,.263-.576,1.965,1.965,0,0,0-.887-1.536.634.634,0,0,0-.632-.061l-.285.165A.632.632,0,0,1,286.977,344.5Z" fill="#939598"/><path d="M287.6,344.137a1.966,1.966,0,0,1,.885,1.536.618.618,0,0,1-.257.575l.287-.165a.624.624,0,0,0,.257-.573,1.97,1.97,0,0,0-.885-1.537.617.617,0,0,0-.626-.062l-.285.163A.616.616,0,0,1,287.6,344.137Z" fill="#939598"/><path d="M288.218,343.779a1.952,1.952,0,0,1,.887,1.536.618.618,0,0,1-.255.572l.285-.162a.627.627,0,0,0,.258-.577,1.969,1.969,0,0,0-.888-1.535.606.606,0,0,0-.626-.06l-.285.164A.61.61,0,0,1,288.218,343.779Z" fill="#939598"/><path d="M288.848,343.418a1.965,1.965,0,0,1,.883,1.538.622.622,0,0,1-.258.571l.282-.162a.629.629,0,0,0,.26-.574,1.953,1.953,0,0,0-.886-1.537.624.624,0,0,0-.626-.063l-.287.164A.638.638,0,0,1,288.848,343.418Z" fill="#939598"/><path d="M283.858,346.1l1.057,1.834,2.286-1.323a.517.517,0,0,0,.221-.484,1.656,1.656,0,0,0-.748-1.293.524.524,0,0,0-.53-.053Z" fill="#ff2456"/><path d="M284.387,346.154a1.658,1.658,0,0,1,.746,1.293c0,.479-.335.671-.746.433a1.657,1.657,0,0,1-.746-1.3C283.641,346.109,283.975,345.914,284.387,346.154Z" fill="#ff4d75"/><path d="M335.69,272c-5.115-2.963-7.934-6.973-7.934-11.3,0-4.343,2.815-8.356,7.934-11.32a39.967,39.967,0,0,1,36.273,0c5.117,2.964,7.931,6.977,7.931,11.32,0,4.326-2.82,8.336-7.931,11.293A39.885,39.885,0,0,1,335.69,272Z" opacity="0.3"/><path d="M377.238,257.8a15.691,15.691,0,0,0-6-5.656c-9.61-5.544-25.206-5.544-34.825,0a15.7,15.7,0,0,0-6,5.656H329.2v2.886c-.008,3.64,2.4,7.287,7.212,10.06,9.619,5.565,25.215,5.565,34.825,0,4.812-2.773,7.212-6.42,7.212-10.049v-2.9Z" fill="#939598"/><path d="M371.239,267.845c-9.61,5.558-25.206,5.558-34.825,0s-9.62-14.546,0-20.112c9.619-5.55,25.215-5.55,34.825,0C380.857,253.3,380.857,262.294,371.239,267.845Z" fill="#bcbec0"/><path d="M367.279,265.556c-7.425,4.287-19.473,4.287-26.9,0s-7.43-11.241,0-15.534,19.48-4.289,26.9,0S374.706,261.269,367.279,265.556Z" opacity="0.3"/><path d="M337.632,118.889c-4.964,1.074-3.928,11.6-3.928,11.6a86.9,86.9,0,0,0,.482,16.422c-3.485,7.166-4.261,16.8-6.939,23.079,0,0-3.139,7.564-3.089,9.023s1.244,7.309,2.533,7.116c4.975-.754,2.929-8.138,3.851-8.909a9.767,9.767,0,0,0,1.416-7.554c.188-3.427,6.972-10.248,8.715-21.5.988-4.362,2.194-23.754,2.194-23.754Z" fill="#d1c699"/><path d="M328.984,168.89a4.8,4.8,0,0,0,.883.309c1.2.3,2.13.127,2.271-.425l.033-.139c-.1.373-1.092.64-2.247.349-.93-.232-1.773-.872-1.854-1.276l-.084.29A2.008,2.008,0,0,0,328.984,168.89Z" fill="#303033"/><path d="M337.061,132.873l.154-.353a3.655,3.655,0,0,1-1.935-3.027,10.057,10.057,0,0,1,3.971-8.979,3.672,3.672,0,0,1,3.536-.608l.158-.348a4.032,4.032,0,0,0-3.914.636,10.441,10.441,0,0,0-4.134,9.355A4.021,4.021,0,0,0,337.061,132.873Z" fill="#303033"/><path d="M354.488,174.251c-1.26,23.581.458,25.15-1.052,38.589,8.023,9.828,1.621,22.091,2.943,29.854,4.456,12.525-2.975,10.13-4.861,11.411-5.267,3.575-10.823,8.693-13.553,6.587-1.932-1.669.631-6.055,3.2-7.7,4.511-2.893,6.609-4.479,6.68-5.788,1.287-25.827-3.553-24.919-4.652-33.249s-6.967-16.105-8.13-39.731C336.635,171.9,354.488,174.251,354.488,174.251Z" fill="#e6dab0"/><path d="M348.612,213.943c3.427,0,6.109-1.209,6.109-2.749h-.389c0,1.28-2.62,2.366-5.72,2.366-2.946,0-5.667-1.039-5.917-2.257l.1.456C343.091,213.172,345.436,213.943,348.612,213.943Z" fill="#303033"/><path d="M336.24,177.084s2.174,3.662,10.764,9.852c-.233,22.389,6.65,34.353,7.226,35.6A22.289,22.289,0,0,0,357.166,231l2.293-3.815-3.774-50.1-13.656-4.992Z" fill="#bdaf83"/><path d="M359.854,166.377c1.628,3.458,7.979,3.921,6.579,23.072-.2,13.726-3.384,20.594-2.037,27.377,6.3,15.589-.355,14.845,1.894,35.617,1.681,3.752.238,5.983-2.184,7.859-3.431,2.656-7.068,9.777-14.134,7.068-6.659-2.549,9.164-10.218,9.164-16.427,1.051-17.856-3.066-19.688-4.228-28.6-8.424-17.235-6.745-36.144-6.745-36.144s-13.1-7.141-13.1-11.98V161.338C340.741,154.292,355.964,165.534,359.854,166.377Z" fill="#e6dab0"/><path d="M355.65,113.765s-.674,5.138.659,7.739a90.39,90.39,0,0,1,8.627,9.1s.431,12.5,0,16.692c-3.337,8.724-7.879,12.877-5.082,19.076-3.645,12.768-24.791-2.128-24.8-5.039s-.343-10.817-.518-13.1c-9.875-6.231-2.084-11.871-.609-16.923,1.147-3.936,2.437-11.251,9.545-12.61C344.965,118.7,355.65,113.765,355.65,113.765Z" fill="#e6dab0"/><path d="M349.5,124.881c4.049,0,7.287-1.651,6.812-3.377h0c0,1.54-3.109,2.992-6.812,2.992s-6.837-1.3-6.837-2.846c0-.726.725-1.452,1.979-1.985l-.149-.357c-1.427.605-2.213,1.438-2.213,2.342C342.277,123.464,345.447,124.881,349.5,124.881Z" fill="#303033"/><path d="M348.98,156.392c8.025,0,14.553-2.874,14.553-6.412h-.386c0,3.324-6.357,6.022-14.167,6.022s-14.045-2.684-14.331-6.022h0C334.649,153.518,340.958,156.392,348.98,156.392Z" fill="#303033"/><path d="M347.343,171.522c6.9,0,12.45-2.248,12.45-5.295l-.12-.276c0,2.824-5.647,5.183-12.33,5.183s-11.948-2.1-12.285-5.135h0C334.925,169.145,340.449,171.522,347.343,171.522Z" fill="#303033"/><path d="M357.3,191.086c5.27,0,9.4-1.837,9.4-4.178h-.386c0,2.089-4.044,3.794-9.013,3.794s-9.186-1.705-9.186-3.794l-.015.325C348.1,189.569,352.028,191.086,357.3,191.086Z" fill="#303033"/><path d="M358.547,219.566c3.41,0,5.944-.968,5.944-2.5l-.1-.235c0,1.273-2.763,2.348-5.849,2.348-2.819,0-5.535-.89-5.883-2.05l.131.342C353.206,218.83,355.468,219.566,358.547,219.566Z" fill="#303033"/><path d="M345.222,184.46l.347.221c-.045-.036-4.6-3.819-5.478-8.558a26.93,26.93,0,0,1,.073-7.063,72.314,72.314,0,0,0,.1-14.675l-.005-.056-.033-.037a10.811,10.811,0,0,1-2.366-6.311c0-1.548,1.372-4.5,2.959-7.91,2.3-4.936,5.151-11.084,5.151-15.845h-.386c0,4.675-2.836,10.777-5.119,15.685-1.6,3.451-2.991,6.436-2.991,8.07a11.161,11.161,0,0,0,2.407,6.5,71.323,71.323,0,0,1-.107,14.547,26.967,26.967,0,0,0-.069,7.167C340.613,181.084,345.175,184.424,345.222,184.46Z" fill="#303033"/><path d="M355.574,114.491a4.169,4.169,0,0,1-2.827,2.533s-.641,2.818-1.614,3.679a15.143,15.143,0,0,1-9.094,3.512c-2.177.143-3.787-1.156-3.811-2.65-.387-1.424,1.61-1.986,1.61-1.986S354.742,113.352,355.574,114.491Z" fill="#bdaf83"/><path d="M347.806,96.863c-9.551,0-10.72,9.333-10.769,10.468a3.516,3.516,0,0,0,.455,2.335c-1.232,2.476.322,11.151.848,12.175a4.421,4.421,0,0,0,3.775,1.919c10.208-1.434,10.208-7.433,10.208-7.433s7.546-2.018,6.41-11.32C358.684,104.21,357.581,96.863,347.806,96.863Z" fill="#e6dab0"/><path d="M358.848,143.138l2.837,1.744,1.225,7.049-1.262,2.546-.929,1.9a29.645,29.645,0,0,1-1.036-9.081A30.1,30.1,0,0,1,358.848,143.138Z" fill="#bdaf83"/><path d="M362.464,169.495c-.586,4.966.965,13.314-.774,19.64-.156.569-1.747.833-2.909,1.805s-2.41,4.96-2.068,5.875a2.133,2.133,0,0,0,1.295,1.191s-2.3,5.184-1.164,6.622c2.38,3,8.6-2.953,8.6-2.953l.172-1.259.622-26.78-2.615-2.683S363,169.657,362.464,169.495Z" fill="#bdaf83"/><path d="M361.266,131.133c8.85-3.783,7.371,10.386,8.262,12.912,1.746,6.063.914,14.92,2.8,20.4,2.453,7.146-5.257,23.947-4.731,27.685.227,1.169-.875,7.3-2.063,8.365s-4.446,4.471-7.782,3.9c-2.353-.4,2.089-6.935.47-7.212-.951-.172-.558-1.7.071-3.783.822-2.712,4.168-2.968,3.874-3.487,2.247-5.366.049-17.962,2.662-25.563-3.309-6.355-4.407-17.52-4.407-17.52S353.716,134.359,361.266,131.133Z" fill="#e6dab0"/><path d="M363.479,191.129a6.326,6.326,0,0,0,1.158.406c1.576.4,2.788.165,2.97-.558l.044-.182c-.124.489-1.43.838-2.942.458-1.217-.3-2.321-1.142-2.426-1.671l-.109.379A2.616,2.616,0,0,0,363.479,191.129Z" fill="#303033"/><path d="M366.987,165.21a8.4,8.4,0,0,0,1.615-.171c2.112-.42,3.43-1.388,3.237-2.356l-.052-.242c.13.655-1.234,1.815-3.26,2.22-1.628.328-3.424-.048-3.849-.621l.156.3-.073.214A3.46,3.46,0,0,0,366.987,165.21Z" fill="#303033"/><path d="M359.071,143.753h0a5.44,5.44,0,0,1-1.725-3.38,9.273,9.273,0,0,1,.814-5.006c1.534-3.476,4.619-5.711,6.776-4.758h0c-2.21-1.356-5.507.933-7.131,4.6a9.71,9.71,0,0,0-.843,5.224A4,4,0,0,0,359.071,143.753Z" fill="#303033"/><path d="M193.744,266.51c-8.83-5.1-23.149-5.1-31.982,0s-8.835,13.369,0,18.463,23.152,5.1,31.982,0S202.574,271.615,193.744,266.51Z" opacity="0.3"/><path d="M202.5,140.242c-1.525-2.087-6.714,1.965-6.714,1.965l4.843,18.054,5.081-.927-.924-10.578A21.027,21.027,0,0,0,202.5,140.242Z" fill="#202b57"/><path d="M192.077,268.852l-5.843-.963-3.33.963s-1.754,5.824-.415,6.89c1.336,1.086,6.975,1.074,6.975,1.074a21.39,21.39,0,0,0,6.6,2.264c.631-.225,2.351-4.978,1.646-5.086C195.57,272.818,192.077,268.852,192.077,268.852Z" fill="#fff"/><path d="M180.74,200.6s-2.99,8.141-2.99,8.471,2.511.964,3.834,2.6c2.145,11.016,5.853,25.028,5.957,28.123-6.083,9.482-3.609,18.133-4.637,29.053,2.374,3.189,8.037,1.027,9.173,0,.307-13.289,7.422-31.322,7.422-31.322l-.721-39.047Z" fill="#121214"/><path d="M165.151,268.645a12.143,12.143,0,0,0-4.257-1.1l-2.888,1.1a12.9,12.9,0,0,0,.069,3.232,41.343,41.343,0,0,0,2.819,6.8c2.433,4.652,10.369,1.66,10.369,1.66a4.1,4.1,0,0,0,.274-2.779C171.09,276.209,166.937,272.711,165.151,268.645Z" fill="#fff"/><path d="M162.505,199.1c-1.419,11.234-1.169,28.922-2.026,32.59s-2.574,4.989-3.33,8.417,1.339,17.309.857,28.538c1.613,1.65,3.708,2.47,7.145,0-.482-20.61,5.9-32.558,5.9-32.558s7.105-9.993,12.4-31.247c.378-2.135,6.009-11.617,6.009-11.617L169,190.14S164.36,195.389,162.505,199.1Z" fill="#303033"/><path d="M190.272,134.434s-5.411.58-6.58,1.1a10.679,10.679,0,0,1-1.919,4.174l-1.1,5.238,1.512,5.628,7.555,5.037,4.916-2.354,3.741-3.434-4.227-9.061Z" fill="#c7a496"/><path d="M198.052,142.207c-1.444-.495-3.887,2.4-3.887,2.4s.79,6.772-1.73,8.018-5.82-1.629-7.673-4.211-2.989-8.705-2.989-8.705c-6.08,6.026-11.633,10.9-12.235,11.745-1.164,13.752,2.369,22.739.8,26.908s-8.654,18.885-7.829,20.742,5.622,2.679,5.622,2.679,2.412-4.946,3.961-5.665a68.382,68.382,0,0,0,1.233,7.517s12.543,4.419,28.616-3.561c.076-.532,4.982-34.213,4.982-34.213l-4.058-12.337S201.655,145.215,198.052,142.207Z" fill="#364685"/><path d="M185.688,177.863c.514,1.251,17.2-7.71,17.2-7.71S185.172,176.611,185.688,177.863Z" fill="#202b57"/><path d="M184.107,182.655,179.23,158.68s-.953-9-6.969-8.487-3.7,9.765-3.7,9.765,5.585,27.983,7.438,30.182c3.163,3.5,22.777,2.263,22.777,2.263s-.572-6.938,0-8.242A138.7,138.7,0,0,1,184.107,182.655Z" fill="#202b57"/><path d="M178.16,114.511c-8.854,5.617-5.2,15.924-4.887,17.777a7.571,7.571,0,0,0,7.464-3.2l6.8-8.7.394-5.607S184.914,110.236,178.16,114.511Z" fill="#121214"/><path d="M186.512,114.511a3.587,3.587,0,1,0,3.76,3.583A3.676,3.676,0,0,0,186.512,114.511Z" fill="#ab183a"/><path d="M201.243,126.927h-7.417l-8.244,1.65-2.627,3.818a19.161,19.161,0,0,1,.737,3.136c.857,3.95,3.077,3.71,3.077,3.71a4.418,4.418,0,0,0,0,2.678c.5,1.135,4.068,6.56,8.242,7.263a3.953,3.953,0,0,0,3.141-.724c.551-.533,5.048-9.626,5.048-9.626s2.781-4.361,2.055-8.53C205.141,129.536,201.243,126.927,201.243,126.927Z" fill="#f0c6b4"/><path d="M196.193,117.535c-12.727-4.957-16.467,8.466-16.587,11.3-.258,6.032,4.086,6.7,4.086,6.7s.69-1.859,1.515-1.859c1.027,2.205,3.828,3.408,4.808,4.883.793-1.241,2.43-.836,3.811-2.125.9-.851.69-2.39,1.34-2.3,9.344.783,10.206-3.019,10.1-4.3S205.361,121.113,196.193,117.535Z" fill="#303033"/><path d="M238.137,290.313c-5.812-3.354-17.7-1.981-26.418,3.05l-13.795,7.965c-8.722,5.031-11.1,11.9-5.282,15.254,5.681,3.281,17.149,2.018,25.806-2.742.027.017,15.014-8.645,15.014-8.645C241.667,300.2,243.8,293.588,238.137,290.313Z" opacity="0.3"/><path d="M238.44,212.794l-2.268,2.481v6.464l2.42,3.977a6.487,6.487,0,0,0,2.784-6.059A14.86,14.86,0,0,0,238.44,212.794Z" fill="#f0c6b4"/><path d="M229.988,155.608l-3.777,2.385,2.542,7.049,5.782,4.132s1.118-6.032,0-9.53A6.024,6.024,0,0,0,229.988,155.608Z" fill="#f0c6b4"/><path d="M224.976,156.342l-3.817-1.442-5.026.809-5.79,5.1,4.536,11.127,5.426,4.877,9.069-1.853,2.606-6.155-2.574-6.554Z" fill="#c7a496"/><path d="M234.535,201.14c-1.352-1.214-10.731,0-10.731,0l-15.866,5.068s-7.429,5.91-7.608,14.493c-.631,31.252-9.31,82.811-9.31,82.811S188.01,315.9,201,315.9c19.374,0,38.895-15.1,38.323-20.47C234.535,250.238,243.311,204.765,234.535,201.14Z" fill="#ff4d75"/><path d="M206.919,196.071a17.326,17.326,0,0,1,1.019,10.137s6.081,9.067,26.6-5.068v-11l-11.862,1.342S207.406,195.336,206.919,196.071Z" fill="#ff2456"/><path d="M228.639,158.818l-4.835-.825s9.158,12.283,1.613,15.658c-6.9,3.094-12.429-13.289-12.429-13.289l-6.386,1.959-1.731,4.1L202.5,168.95v15.823l3.043,7.79s1.075,2.741,1.379,3.508c7.86,5.936,27.616-5.931,27.616-5.931s5.2-5.016,5.55-9.477-4.259-8.385-6.335-14.428C231.913,160.123,228.639,158.818,228.639,158.818Z" fill="#ff4d75"/><path d="M205.707,169.312c-3.431,0-6.208,4.052-6.208,9.046s2.777,9.051,6.208,9.051,6.214-4.052,6.214-9.051S209.142,169.312,205.707,169.312Z" fill="#c7a496"/><path d="M230.792,144.645l-2.949,6.73.976,9.12a6.865,6.865,0,0,0,4.737,3.126c-1.954-4.329-1.327-7.065-1.327-7.065a2.173,2.173,0,0,0,1.521,1.214c-1.289-4.947.628-9.866.785-14.354C233.27,143.746,230.792,144.645,230.792,144.645Z" fill="#603913"/><path d="M223.5,141.148s-6.856,5.462-6.956,5.617-1.188,7.618-1.188,7.618l2.766,4.749a28.226,28.226,0,0,0,5.556,3.53c2.473,1.219,5.588.107,6.146-.846,1.023-1.731,3.256-13.507,3.256-13.507l.669-2.679v-3.141l-5.048-2.784Z" fill="#f0c6b4"/><path d="M227.312,133.672c-6.663-4.994-11.125-.841-12.058-.82-5.418.155-8.742,12.294-12.046,19.705-2.261,5.085,1.663,13.859,1.663,13.859l2.359-2.865s2.561,5.154,7.765,5.623c-1.749-2.732.357-11.037,1.356-11.644a5.617,5.617,0,0,0,1.482,3.21c1.015-6.272,2.337-6.825,4.294-13,.841-2.917,5.46-4.014,6.6-3.386,5.244-2.609,4.354,3.951,4.354,3.951s1.608-3.339,1.44-5.271S231.844,137.085,227.312,133.672Z" fill="#603913"/><path d="M216.132,134.13c4.762,2.285,9.285,8.077,9.285,8.077S222.457,135.4,216.132,134.13Z" fill="#3c2415"/><path d="M201.757,229.5l-2.729-1.135L196.3,229.5s-1.27,4.638-.927,7.347,4.188,7.294,6.177,6.96c2.172-.369.759-7.855,1.344-8.185s1.2,2.055,1.855,2.067.722-2.317.466-3.606S201.757,229.5,201.757,229.5Z" fill="#f0c6b4"/><path d="M206.085,169.174c-10.023-3.008-8.7,13.342-8.7,13.342s-2.362,10.983-1.811,18.336c-2.2,5.085.139,22.394.719,28.644,1.411,1.646,4.635.542,5.46,0-.344-7.624,2.813-19.917,1.547-27.925,1.266-3.6,4.123-18.134,4.123-18.134S214.809,171.628,206.085,169.174Z" fill="#f0c6b4"/><path d="M277.078,227.246l.01,5.865.121.02c-.01,2.992,1.952,5.969,5.943,8.273,7.9,4.541,20.747,4.563,28.661,0,3.964-2.291,5.954-5.281,5.944-8.293l-.008-5.865Z" fill="#bdaf83"/><path d="M311.8,235.522c-7.9,4.593-20.749,4.593-28.662,0-7.921-4.561-7.921-11.993-.008-16.551s20.757-4.573,28.657.02C319.734,223.56,319.725,230.941,311.8,235.522Z" fill="#e6dab0"/><path d="M301.3,229.5a8.578,8.578,0,0,1-7.769,0c-2.158-1.256-2.158-3.25,0-4.506a8.535,8.535,0,0,1,7.769.018C303.459,226.248,303.449,228.242,301.3,229.5Z" fill="#3c2415"/><path d="M282.566,190.086l.008,36.955.079.016c-.009,2.168,1.435,4.334,4.334,6.039,5.764,3.3,15.106,3.32,20.875-.018,2.892-1.668,4.339-3.853,4.339-6.037l-.01-36.955Z" fill="#ff4d75"/><path d="M307.856,196.108c-5.754,3.338-15.1,3.338-20.885.018-5.764-3.336-5.764-8.757,0-12.079s15.122-3.319,20.876.018C313.636,187.387,313.627,192.79,307.856,196.108Z" fill="#ff3f4a"/><path d="M277.078,187.161l.01,5.851.121.016c-.01,2.976,1.952,5.97,5.943,8.273,7.9,4.563,20.747,4.563,28.661,0,3.964-2.287,5.954-5.277,5.944-8.289l-.008-5.87Z" fill="#bdaf83"/><path d="M311.8,195.419c-7.9,4.593-20.749,4.593-28.662.016s-7.921-11.99-.008-16.585c7.913-4.556,20.757-4.54,28.657.037C319.734,183.463,319.725,190.861,311.8,195.419Z" fill="#e6dab0"/><path d="M301.3,189.379a8.523,8.523,0,0,1-7.769.02c-2.158-1.255-2.158-3.27,0-4.494a8.6,8.6,0,0,1,7.769,0C303.459,186.148,303.449,188.144,301.3,189.379Z" fill="#3c2415"/><path d="M251.586,260.016l.01,5.865.121.017c-.01,2.995,1.952,5.969,5.943,8.274,7.9,4.562,20.737,4.562,28.658-.02,3.967-2.267,5.956-5.259,5.945-8.271l-.008-5.887Z" fill="#bdaf83"/><path d="M286.318,268.287c-7.911,4.6-20.753,4.6-28.668,0-7.928-4.574-7.928-11.988-.006-16.564s20.743-4.543,28.663.035C294.252,256.332,294.248,263.713,286.318,268.287Z" fill="#e6dab0"/><path d="M275.818,262.25a8.492,8.492,0,0,1-7.775,0c-2.157-1.24-2.157-3.25,0-4.49a8.609,8.609,0,0,1,7.775,0C277.96,259,277.96,261.01,275.818,262.25Z" fill="#3c2415"/><path d="M257.068,222.854l.008,36.955.087.015c-.011,2.186,1.435,4.334,4.327,6.026,5.77,3.318,15.111,3.318,20.884,0,2.89-1.676,4.325-3.84,4.325-6.041V222.854Z" fill="#ab183a"/><path d="M282.374,228.875c-5.765,3.355-15.114,3.338-20.895,0-5.754-3.338-5.761-8.719,0-12.057,5.781-3.322,15.122-3.322,20.878.015C288.144,220.156,288.133,225.537,282.374,228.875Z" fill="#ff3f4a"/><path d="M251.586,219.929l.01,5.85.121.036c-.01,2.974,1.952,5.951,5.943,8.253,7.9,4.563,20.737,4.563,28.658,0,3.967-2.3,5.956-5.279,5.945-8.289l-.008-5.865Z" fill="#bdaf83"/><path d="M286.318,228.188c-7.911,4.591-20.753,4.591-28.668,0-7.928-4.561-7.928-11.975-.006-16.552s20.743-4.558,28.663.019C294.252,216.232,294.248,223.627,286.318,228.188Z" fill="#e6dab0"/><path d="M275.818,222.146a8.469,8.469,0,0,1-7.775,0c-2.157-1.216-2.157-3.249,0-4.485a8.627,8.627,0,0,1,7.775.018C277.96,218.917,277.96,220.93,275.818,222.146Z" fill="#3c2415"/><path d="M128.463,389.752a10.981,10.981,0,0,0-3.112-2.593c-6.092-3.517-15.966-3.517-22.057,0a10.958,10.958,0,0,0-3.113,2.593H98.727v3.992h.016c.1,2.229,1.6,4.446,4.551,6.149,6.091,3.517,15.965,3.517,22.057,0,2.948-1.7,4.456-3.92,4.551-6.149h.014v-3.992Z" fill="#bdaf83"/><path d="M125.351,396.114c-6.092,3.516-15.966,3.516-22.057,0s-6.091-9.216,0-12.733,15.965-3.512,22.057,0S131.441,392.6,125.351,396.114Z" fill="#e6dab0"/><path d="M104.416,395.47c-5.462-3.156-5.463-8.284,0-11.44s14.352-3.15,19.811,0,5.465,8.284,0,11.44S109.876,398.624,104.416,395.47Zm19.065-11.01c-5.052-2.911-13.267-2.911-18.316,0s-5.051,7.664,0,10.578,13.267,2.916,18.316,0S128.53,387.379,123.481,384.46Z" fill="#d1c699"/><path d="M115.629,386.512a5.156,5.156,0,0,1-4.672,0c-1.289-.748-1.29-1.953,0-2.7a5.191,5.191,0,0,1,4.675,0C116.92,384.559,116.92,385.764,115.629,386.512Z" fill="#3c2415"/><path d="M124.6,391.69a5.14,5.14,0,0,1-4.673,0c-1.291-.743-1.291-1.949,0-2.7a5.176,5.176,0,0,1,4.674,0C125.891,389.741,125.891,390.947,124.6,391.69Z" fill="#3c2415"/><path d="M108.341,390.722a5.163,5.163,0,0,1-4.675,0c-1.287-.745-1.287-1.95,0-2.7a5.163,5.163,0,0,1,4.675,0C109.63,388.772,109.63,389.977,108.341,390.722Z" fill="#3c2415"/><path d="M117.312,395.9a5.175,5.175,0,0,1-4.672,0c-1.29-.748-1.289-1.958,0-2.7a5.163,5.163,0,0,1,4.672,0C118.6,393.946,118.6,395.156,117.312,395.9Z" fill="#3c2415"/><path d="M123.822,361.86a11.121,11.121,0,0,0-3.113-2.588c-6.093-3.517-15.965-3.517-22.055,0a11.109,11.109,0,0,0-3.116,2.588H94.085v4h.02c.09,2.23,1.6,4.446,4.549,6.149,6.09,3.517,15.962,3.517,22.055,0,2.949-1.7,4.456-3.919,4.55-6.149h.018v-4Z" fill="#ab183a"/><path d="M120.709,368.23c-6.093,3.518-15.965,3.518-22.055,0s-6.093-9.223,0-12.735,15.962-3.516,22.055,0S126.8,364.713,120.709,368.23Z" fill="#ff4d75"/><path d="M99.774,367.584c-5.463-3.154-5.466-8.286,0-11.439s14.352-3.157,19.816,0,5.463,8.285,0,11.439S105.234,370.737,99.774,367.584Zm19.065-11.011c-5.049-2.91-13.269-2.91-18.316,0s-5.048,7.662,0,10.578,13.27,2.916,18.316,0S123.888,359.492,118.839,356.573Z" fill="#ff2456"/><path d="M110.986,358.626a5.174,5.174,0,0,1-4.673,0c-1.286-.746-1.286-1.954,0-2.7a5.146,5.146,0,0,1,4.673,0C112.279,356.672,112.279,357.88,110.986,358.626Z" fill="#ab183a"/><path d="M119.959,363.8a5.14,5.14,0,0,1-4.67,0c-1.289-.746-1.289-1.954,0-2.7a5.173,5.173,0,0,1,4.674,0C121.252,361.85,121.252,363.058,119.959,363.8Z" fill="#ab183a"/><path d="M103.7,362.83a5.152,5.152,0,0,1-4.676,0c-1.282-.742-1.282-1.948,0-2.7a5.2,5.2,0,0,1,4.676,0C104.991,360.882,104.991,362.088,103.7,362.83Z" fill="#ab183a"/><path d="M112.67,368.014a5.185,5.185,0,0,1-4.674,0c-1.289-.743-1.286-1.949,0-2.7a5.161,5.161,0,0,1,4.674,0C113.962,366.065,113.962,367.271,112.67,368.014Z" fill="#ab183a"/><path d="M169.2,396.939a10.89,10.89,0,0,0-3.113-2.593c-6.09-3.518-15.963-3.518-22.054,0a10.863,10.863,0,0,0-3.113,2.593h-1.457v3.99h.017c.094,2.233,1.6,4.449,4.553,6.152,6.091,3.516,15.964,3.516,22.054,0,2.95-1.7,4.458-3.919,4.551-6.152h.018v-3.99Z" fill="#121214"/><path d="M166.088,403.3c-6.09,3.517-15.963,3.517-22.054,0s-6.091-9.216,0-12.731,15.964-3.517,22.054,0S172.181,399.786,166.088,403.3Z" fill="#535359"/><path d="M145.153,402.654c-5.459-3.151-5.462-8.281,0-11.434s14.353-3.154,19.813,0,5.464,8.283,0,11.434S150.617,405.81,145.153,402.654Zm19.065-11.005c-5.049-2.916-13.267-2.916-18.316,0s-5.05,7.661,0,10.573,13.27,2.919,18.316,0S169.269,394.565,164.218,391.649Z" fill="#303033"/><path d="M165.528,398.772a5.167,5.167,0,0,1-4.671,0c-1.291-.748-1.291-1.953,0-2.7a5.169,5.169,0,0,1,4.672,0C166.818,396.819,166.818,398.024,165.528,398.772Z" fill="#121214"/><path d="M149.269,397.8a5.181,5.181,0,0,1-4.675,0c-1.289-.745-1.289-1.951,0-2.7a5.181,5.181,0,0,1,4.675,0C150.558,395.849,150.558,397.055,149.269,397.8Z" fill="#121214"/><path d="M68.017,135.434a38.606,38.606,0,0,1-.275,3.9c-.2,1.124-2.958,3.158-6.581,7.339l-2.381.731s1.088,6.59.711,8.643a15.952,15.952,0,0,0-.243,3.74l4.153,6.046,11.441,1.428L87,163.46l5.985-5.57.915-9.469-2-3.849s-.275-5.762-3.4-8.29a6.929,6.929,0,0,0-4.01-1.649H77.895Z" fill="#d1d3d4"/><path d="M64.541,157.342s3.694-1.258,6.909,3.6A15.726,15.726,0,0,0,64.541,157.342Z" fill="#535359" opacity="0.3"/><path d="M76.544,290.6a23.685,23.685,0,0,1-11.695-2.818c-3.3-1.9-5.122-4.494-5.122-7.285s1.819-5.393,5.122-7.3a23.77,23.77,0,0,1,11.695-2.81,23.774,23.774,0,0,1,11.7,2.81c3.311,1.91,5.128,4.505,5.122,7.3s-1.817,5.385-5.122,7.293A23.774,23.774,0,0,1,76.544,290.6Z" opacity="0.3"/><path d="M61.436,278.623a10.243,10.243,0,0,1,3.873-3.648c6.2-3.585,16.268-3.585,22.475,0a10.239,10.239,0,0,1,3.874,3.648h.781v1.864c0,2.35-1.556,4.7-4.655,6.495-6.207,3.578-16.271,3.578-22.475,0-3.1-1.791-4.654-4.145-4.654-6.491v-1.868Z" fill="#939598"/><path d="M65.309,285.106c6.2,3.585,16.268,3.585,22.475,0s6.2-9.388,0-12.974-16.271-3.58-22.475,0S59.106,281.527,65.309,285.106Z" fill="#bcbec0"/><path d="M74.713,279.682a4.1,4.1,0,0,0,3.669,0,1.117,1.117,0,0,0,0-2.116,4.036,4.036,0,0,0-3.669,0A1.12,1.12,0,0,0,74.713,279.682Z" fill="#535359"/><path d="M75.123,228.126a.971.971,0,0,1,.366-.343,2.364,2.364,0,0,1,2.118,0,1.1,1.1,0,0,1,.372.343h.063v50.3a.738.738,0,0,1-.435.611,2.308,2.308,0,0,1-2.118,0,.735.735,0,0,1-.436-.611v-50.3Z" fill="#bdaf83"/><path d="M75.489,228.739a2.357,2.357,0,0,0,2.118,0,.645.645,0,0,0,0-1.225,2.357,2.357,0,0,0-2.118,0A.648.648,0,0,0,75.489,228.739Z" fill="#e6dab0"/><path d="M65.283,184.047a33.409,33.409,0,0,0-6.035,9.377c-2.957,6.386-1.184,24.183-4.046,46.474-.4,3.124-1.542,10.02,9.244,11.28C77.254,252.67,94.98,245,94.571,235.489c-.724-16.776,2.624-50.354-2.1-53.991C89.809,179.447,65.283,184.047,65.283,184.047Z" fill="#ff4d75"/><path d="M81.8,134.633l.424,5.182-1.377-4.129Z" fill="#535359" opacity="0.3"/><path d="M79.764,137.475a10.866,10.866,0,0,1-9.845,0c-2.721-1.568-2.721-4.112,0-5.687a10.915,10.915,0,0,1,9.845,0C82.485,133.363,82.485,135.907,79.764,137.475Z" fill="#f5f5f5"/><path d="M65.283,155.048c0,2.627-1.843,3.693-4.122,2.378a9.146,9.146,0,0,1-4.121-7.148c0-2.63,1.849-3.692,4.121-2.379A9.116,9.116,0,0,1,65.283,155.048Z" fill="#f5f5f5"/><path d="M66.808,179.879c-.262-3.716-4.058-8.674-7.56-20.091,0,0,3.7,2.244,10.5,1.735s14.166-4.689,14.166-4.689l2.444,2.954V155.61s5.961-4.633,7.542-7.189c0,0,4.692,7.141,4.378,11.063s-5.2,5.807-5.2,5.807a106.853,106.853,0,0,0-.916,11.755c-.645,1.719-1.317,3.537-1.317,3.537l-5.1,4.072L79.425,186.7H72.786l-6.306-3.365A6.855,6.855,0,0,0,66.808,179.879Z" fill="#ff4d75"/><path d="M66.808,179.879s.556,5.019,9.462,4.846a20.513,20.513,0,0,0,15.892-7.679l.309,4.452s-7.374,7.781-16.888,7.171-10.3-4.622-10.3-4.622Z" fill="#ab183a"/><path d="M90.652,181.505c0,.979-1.375,2.564-3.084,3.553s-3.081.985-3.081.006,1.384-2.562,3.081-3.545S90.652,180.532,90.652,181.505Z" fill="#ff9d26"/><path d="M71.987,167.262c3.327,6.184,10.53,3.808,10.53,3.808S73.35,175.756,71.987,167.262Z" fill="#ff2456"/><path d="M110.216,342.12a5.56,5.56,0,0,1-5.016,0L62.5,317.47c-1.381-.8-1.381-2.1,0-2.9l47.039-27.2a5.574,5.574,0,0,1,5.018,0l42.7,24.651c1.383.8,1.383,2.1,0,2.9Z" opacity="0.3"/><path d="M159.765,309.856c0-2.222-2.137-5.279-4.768-6.789L114.489,279.6c-1.5-.869-2.864-1.044-3.736-.62h0l-50.278,29.1L108.908,340.6l50.085-29h0A2.011,2.011,0,0,0,159.765,309.856Z" fill="#ff2456"/><path d="M109.748,338.8c0,2.2-2.136,2.806-4.778,1.277L64.453,316.608c-2.622-1.488-4.751-4.564-4.751-6.787s2.129-2.787,4.751-1.3l40.517,23.465C107.612,333.536,109.748,336.554,109.748,338.8Z" fill="#ff4d75"/><path d="M61.667,310.96s36.444,20.408,45.751,26.5C94.833,331.466,61.667,310.96,61.667,310.96Z" fill="#ab183a"/><path d="M150.344,299.954l-13.415,3.364-20.117,12.691s-11.668,13.676-11.842,14.334c3.916,2.033,5.978,1.045,5.978,1.045l46.127-26.717c-.473-.424-1.159-1.005-1.159-1.005Z" fill="#ab183a"/><path d="M159.765,300.146c0-2.243-2.137-5.261-4.768-6.792l-40.508-23.463a4.272,4.272,0,0,0-3.736-.64h0L60.475,298.366l48.433,32.5,50.085-28.981h0A2,2,0,0,0,159.765,300.146Z" fill="#ff2456"/><path d="M109.748,329.087c0,2.2-2.136,2.807-4.778,1.256L64.453,306.9c-2.622-1.509-4.751-4.566-4.751-6.789s2.129-2.808,4.751-1.3l40.517,23.465C107.612,323.806,109.748,326.862,109.748,329.087Z" fill="#ff4d75"/><path d="M61.667,301.228s36.444,20.429,45.751,26.5C94.833,321.735,61.667,301.228,61.667,301.228Z" fill="#ab183a"/><path d="M150.344,290.279l-13.415,3.386-20.117,12.67s-11.668,13.68-11.842,14.357c3.916,1.991,5.978,1.026,5.978,1.026L157.075,295c-.473-.426-1.159-1.006-1.159-1.006Z" fill="#ab183a"/><path d="M159.765,290.454c0-2.205-2.137-5.244-4.768-6.769l-40.508-23.467c-1.5-.869-2.864-1.044-3.736-.619h0L60.475,288.673l48.433,32.521,50.085-28.979h0A2.016,2.016,0,0,0,159.765,290.454Z" fill="#ff2456"/><path d="M109.748,319.415c0,2.2-2.136,2.785-4.778,1.277L64.453,297.225c-2.622-1.507-4.751-4.566-4.751-6.789s2.129-2.806,4.751-1.277l40.517,23.447C107.612,314.114,109.748,317.192,109.748,319.415Z" fill="#ff4d75"/><path d="M61.667,291.575s36.444,20.412,45.751,26.485C94.833,312.061,61.667,291.575,61.667,291.575Z" fill="#ab183a"/><path d="M353.819,356.341a29.343,29.343,0,0,1-14.443-3.474c-4.073-2.349-6.317-5.545-6.32-9s2.243-6.655,6.32-9.01a31.8,31.8,0,0,1,28.886,0c4.077,2.355,6.322,5.559,6.32,9.01s-2.247,6.647-6.32,9A29.354,29.354,0,0,1,353.819,356.341Z" opacity="0.3"/><path d="M335.172,341.557a12.508,12.508,0,0,1,4.78-4.5c7.654-4.423,20.077-4.423,27.733,0a12.533,12.533,0,0,1,4.783,4.5h.963v2.3c0,2.9-1.914,5.8-5.746,8.014-7.656,4.421-20.079,4.421-27.733,0-3.831-2.212-5.745-5.114-5.745-8.014v-2.3Z" fill="#939598"/><path d="M339.952,349.56c7.654,4.426,20.077,4.426,27.733,0s7.663-11.584,0-16.015-20.079-4.418-27.733,0S332.292,345.143,339.952,349.56Z" fill="#bcbec0"/><path d="M351.56,342.865a5,5,0,0,0,4.519,0,1.382,1.382,0,0,0,0-2.616,5,5,0,0,0-4.519,0A1.382,1.382,0,0,0,351.56,342.865Z" fill="#535359"/><path d="M352.062,279.234a1.2,1.2,0,0,1,.45-.421,2.885,2.885,0,0,1,2.616,0,1.226,1.226,0,0,1,.453.421h.086v62.089a.916.916,0,0,1-.539.755,2.885,2.885,0,0,1-2.616,0,.918.918,0,0,1-.539-.755V279.234Z" fill="#bdaf83"/><path d="M352.512,279.99a2.916,2.916,0,0,0,2.616,0,.8.8,0,0,0,0-1.51,2.891,2.891,0,0,0-2.616,0A.8.8,0,0,0,352.512,279.99Z" fill="#e6dab0"/><path d="M348.329,212.369a19.78,19.78,0,0,1-.818,6.319l1,1.923,4.845,2.647,5.847-.643,3.932-2.418v-5.118l-2.921-1.1v-1.613S348.923,211.713,348.329,212.369Z" fill="#121214"/><path d="M358.478,214.792a9.275,9.275,0,0,1-8.407,0c-2.32-1.335-2.32-3.51,0-4.853a9.324,9.324,0,0,1,8.407,0C360.8,211.282,360.8,213.457,358.478,214.792Z" fill="#535359"/><path d="M362.5,215.8s.962-2.157,2.425-2.157c0,0,3.882-.557,5.251,4.026a8.108,8.108,0,0,1-1.582,7.662Z" fill="#121214"/><path d="M347.511,218.688s3.594,6.623,12.061,1.95c3.7-2.041.646-6.656.646-6.656s4.154-1.289,6.32.342,2.907,4.628,2.907,9.616c0,6.445-4.755,10.012-4.755,21.251,0,6.026,4.2,12.335,4.2,22.292s-3.108,28.971-3.568,30.706c-1,3.19-11.063,9.662-16.29,8.884-3.345-.5-7.266-1.466-8.434-3.667-.436-1.879-8.81-27.514-2.227-52.112.941-3.515-.836-12.556-.836-12.556s-4.557-5.154-4.1-9.082,9.549-6.947,11.152-8.043A9.585,9.585,0,0,0,347.511,218.688Z" fill="#e31b25"/><path d="M347.647,230.008a6.338,6.338,0,0,0-6.7-4.05,7.417,7.417,0,0,1-2.308,1.694c-.073.5,2.14,6.085,4.258,9.487l-.455,1.383s1.338,1.726,4.259.831C347.431,239.12,350.559,236.935,347.647,230.008Z" fill="#121214"/><path d="M346.085,235.786c0,2.849-2,4-4.466,2.579a9.884,9.884,0,0,1-4.467-7.738c0-2.849,2-4,4.467-2.574A9.857,9.857,0,0,1,346.085,235.786Z" fill="#535359"/><path d="M316.189,376.108a29.29,29.29,0,0,1-14.443-3.478c-4.073-2.35-6.317-5.545-6.32-8.991s2.243-6.656,6.32-9.015a31.8,31.8,0,0,1,28.886,0c4.077,2.359,6.322,5.56,6.32,9.015s-2.247,6.641-6.32,9A29.364,29.364,0,0,1,316.189,376.108Z" opacity="0.3"/><path d="M297.543,361.324a12.566,12.566,0,0,1,4.779-4.507c7.655-4.417,20.077-4.417,27.735,0a12.6,12.6,0,0,1,4.781,4.507h.963v2.3c0,2.9-1.913,5.8-5.744,8.013-7.658,4.426-20.08,4.426-27.735,0-3.831-2.212-5.745-5.115-5.745-8.008v-2.306Z" fill="#939598"/><path d="M302.322,369.328c7.655,4.426,20.077,4.426,27.735,0s7.661-11.585,0-16.015-20.08-4.422-27.735,0S294.662,364.9,302.322,369.328Z" fill="#bcbec0"/><path d="M313.931,362.632a5.026,5.026,0,0,0,4.518,0,1.38,1.38,0,0,0,0-2.614,5,5,0,0,0-4.518,0A1.38,1.38,0,0,0,313.931,362.632Z" fill="#535359"/><path d="M314.433,299a1.22,1.22,0,0,1,.449-.422,2.887,2.887,0,0,1,2.617,0,1.24,1.24,0,0,1,.452.422h.088v62.089a.919.919,0,0,1-.54.756,2.894,2.894,0,0,1-2.617,0,.92.92,0,0,1-.539-.756V299Z" fill="#bdaf83"/><path d="M314.882,299.753a2.919,2.919,0,0,0,2.617,0,.8.8,0,0,0,0-1.51,2.887,2.887,0,0,0-2.617,0A.8.8,0,0,0,314.882,299.753Z" fill="#e6dab0"/><path d="M310.7,232.128a19.685,19.685,0,0,1-.82,6.317l1,1.924,4.846,2.648,5.846-.639,3.932-2.422v-5.113l-2.92-1.1v-1.613S311.293,231.477,310.7,232.128Z" fill="#121214"/><ellipse cx="5.943" cy="3.433" rx="5.943" ry="3.433" transform="translate(310.702 228.695)" fill="#535359"/><path d="M324.868,235.561s.962-2.162,2.425-2.162c0,0,3.882-.556,5.251,4.031a8.107,8.107,0,0,1-1.582,7.662Z" fill="#121214"/><path d="M309.881,238.445s3.6,6.629,12.062,1.956c3.7-2.046.646-6.66.646-6.66s4.153-1.285,6.319.342,2.907,4.628,2.907,9.616c0,6.445-4.753,10.012-4.753,21.25,0,6.031,4.2,12.34,4.2,22.3s-3.107,28.972-3.568,30.706c-1,3.2-11.063,9.665-16.289,8.884-3.346-.5-7.266-1.465-8.435-3.663-.436-1.878-8.809-27.519-2.227-52.121.941-3.514-.835-12.555-.835-12.555s-4.557-5.149-4.1-9.082,9.548-6.947,11.151-8.039A9.628,9.628,0,0,0,309.881,238.445Z" fill="#ff8400"/><path d="M310.018,249.771a6.339,6.339,0,0,0-6.7-4.054,7.388,7.388,0,0,1-2.308,1.7c-.073.5,2.14,6.08,4.26,9.481l-.457,1.383s1.34,1.731,4.26.836C309.8,258.884,312.929,256.7,310.018,249.771Z" fill="#121214"/><path d="M308.456,255.545c0,2.849-2,4-4.467,2.579a9.88,9.88,0,0,1-4.467-7.738c0-2.845,2-4,4.467-2.576A9.875,9.875,0,0,1,308.456,255.545Z" fill="#535359"/><path d="M275.948,398.981a29.3,29.3,0,0,1-14.442-3.478c-4.073-2.351-6.318-5.545-6.321-8.991s2.244-6.656,6.321-9.016a31.809,31.809,0,0,1,28.886,0c4.077,2.36,6.322,5.56,6.32,9.016s-2.247,6.64-6.32,8.995A29.355,29.355,0,0,1,275.948,398.981Z" opacity="0.3"/><path d="M257.3,384.2a12.562,12.562,0,0,1,4.78-4.507c7.654-4.418,20.077-4.418,27.733,0A12.579,12.579,0,0,1,294.6,384.2h.962v2.3c0,2.9-1.914,5.8-5.745,8.012-7.656,4.426-20.079,4.426-27.733,0-3.831-2.211-5.745-5.114-5.745-8.008V384.2Z" fill="#939598"/><path d="M262.082,392.2c7.654,4.426,20.077,4.426,27.733,0s7.662-11.584,0-16.015-20.079-4.422-27.733,0S254.422,387.778,262.082,392.2Z" fill="#bcbec0"/><path d="M273.69,385.5a5.028,5.028,0,0,0,4.519,0,1.38,1.38,0,0,0,0-2.614,5,5,0,0,0-4.519,0A1.38,1.38,0,0,0,273.69,385.5Z" fill="#535359"/><path d="M274.192,321.87a1.209,1.209,0,0,1,.45-.422,2.888,2.888,0,0,1,2.617,0,1.24,1.24,0,0,1,.452.422h.088v62.089a.916.916,0,0,1-.54.754,2.888,2.888,0,0,1-2.617,0,.918.918,0,0,1-.54-.754V321.87Z" fill="#bdaf83"/><path d="M274.642,322.625a2.919,2.919,0,0,0,2.617,0,.8.8,0,0,0,0-1.51,2.888,2.888,0,0,0-2.617,0A.8.8,0,0,0,274.642,322.625Z" fill="#e6dab0"/><path d="M270.459,255a19.739,19.739,0,0,1-.818,6.318l1,1.924,4.846,2.647,5.847-.638,3.932-2.423v-5.113l-2.922-1.1V255S271.053,254.35,270.459,255Z" fill="#121214"/><ellipse cx="5.943" cy="3.432" rx="5.943" ry="3.432" transform="translate(270.462 251.568)" fill="#535359"/><path d="M284.628,258.435s.962-2.163,2.425-2.163c0,0,3.882-.557,5.251,4.031a8.108,8.108,0,0,1-1.582,7.662Z" fill="#121214"/><path d="M269.641,261.318s3.594,6.628,12.061,1.955c3.7-2.045.645-6.659.645-6.659s4.155-1.286,6.321.341,2.907,4.629,2.907,9.616c0,6.445-4.755,10.013-4.755,21.251,0,6.031,4.2,12.339,4.2,22.3s-3.107,28.971-3.567,30.706c-1,3.195-11.063,9.665-16.29,8.883-3.346-.5-7.266-1.465-8.435-3.662-.435-1.878-8.808-27.519-2.226-52.122.941-3.513-.836-12.555-.836-12.555s-4.557-5.149-4.1-9.082,9.548-6.946,11.151-8.039A9.629,9.629,0,0,0,269.641,261.318Z" fill="#364685"/><path d="M269.777,272.643a6.336,6.336,0,0,0-6.7-4.053,7.368,7.368,0,0,1-2.308,1.7c-.073.5,2.14,6.081,4.258,9.483l-.455,1.383s1.338,1.731,4.26.836C269.56,281.756,272.688,279.572,269.777,272.643Z" fill="#121214"/><path d="M268.215,278.416c0,2.85-2,4.005-4.466,2.58a9.879,9.879,0,0,1-4.467-7.737c0-2.845,2-4,4.467-2.575A9.869,9.869,0,0,1,268.215,278.416Z" fill="#535359"/><path d="M172.7,324.294h0a39.285,39.285,0,0,1-9.633-1.558s-22.954,13.742-34.2,22.793a12.86,12.86,0,0,1-1.341-.1v1.21c14.95,8.633,12.176,8.808,23.564,14.261s36.622,8.74,42.861,11.988l31.453-18.16v-1.209l-2.347-.149Z" fill="#939598"/><path d="M172.7,323.083h0a39.265,39.265,0,0,1-9.633-1.559s-24.9,14.912-35.54,23.9c14.95,8.631,12.176,8.809,23.564,14.261s36.622,8.74,42.861,11.988l31.453-18.159Z" fill="#d1d3d4"/><path d="M178.554,321.794h0a37.252,37.252,0,0,1-9.132-1.479s-19.872,11.932-30.515,20.43a8.17,8.17,0,0,1-1.627.124v1.209c14.173,8.185,11.541,8.352,22.339,13.522s34.713,8.283,40.629,11.361l28.27-16.32v-1.209l-1.8.169Z" fill="#939598"/><path d="M178.554,320.584h0a37.294,37.294,0,0,1-9.132-1.477s-22.06,13.243-32.142,21.762c14.173,8.183,11.541,8.35,22.339,13.518s34.713,8.287,40.629,11.365l28.27-16.32Z" fill="#e6e7e8"/><path d="M185.215,318.85h0a35.546,35.546,0,0,1-8.705-1.407l-29.372,19.7-1.262-.168v1.209c13.509,7.8,11,7.96,21.292,12.885s33.086,7.9,38.726,10.832l26.944-15.556v-1.211l-1.9.116Z" fill="#939598"/><path d="M185.215,317.641h0a35.5,35.5,0,0,1-8.705-1.409s-21.024,12.622-30.634,20.744c13.509,7.8,11,7.959,21.292,12.884s33.086,7.9,38.726,10.831l26.944-15.556Z" fill="#d1d3d4"/><path d="M236.514,340.444l-9.539,2.321L192.262,316.1a33.028,33.028,0,0,1-8.087-1.306s-17.59,10.558-27.016,18.085a14.05,14.05,0,0,1-1.451-.022v1.21c12.551,7.247,10.22,7.4,19.785,11.974s30.745,7.339,35.984,10.064l25.037-14.455Z" fill="#939598"/><path d="M192.262,314.895h0a33.02,33.02,0,0,1-8.087-1.309s-19.539,11.729-28.467,19.274c12.551,7.247,10.22,7.4,19.785,11.974s30.745,7.34,35.984,10.063l25.037-14.453Z" fill="#e6e7e8"/><path d="M189.883,390.026l-9.621-5.556,61.513-35.517,9.625,5.557Zm-8.249-5.556,8.249,4.763,60.138-34.723-8.246-4.76Z" opacity="0.3"/><path d="M250.715,354.51l-60.832,35.119-8.937-5.159v-.832l1.377.036,65.744-29.887,2.648-.111Z" fill="#ba6000"/><path d="M250.715,353.676,189.883,388.8l-8.937-5.162,60.83-35.12Z" fill="#ff8400"/><path d="M186.827,383.755l-.559.321-3.035-1.757.557-.325Z" fill="#303033"/><path d="M190.553,381.6l-.559.322-3.038-1.756.557-.32Z" fill="#303033"/><path d="M194.274,379.453l-.558.324-3.038-1.759.555-.323Z" fill="#303033"/><path d="M198,377.306l-.562.32-3.035-1.757.557-.321Z" fill="#303033"/><path d="M201.721,375.153l-.559.32-3.037-1.755.552-.321Z" fill="#303033"/><path d="M205.445,373.007l-.561.318-3.037-1.754.557-.325Z" fill="#303033"/><path d="M209.168,370.855l-.559.321-3.039-1.753.559-.324Z" fill="#303033"/><path d="M212.893,368.7l-.561.324-3.041-1.758.561-.321Z" fill="#303033"/><path d="M216.615,366.556l-.557.322-3.043-1.755.557-.322Z" fill="#303033"/><path d="M220.338,364.405l-.561.327-3.037-1.755.553-.324Z" fill="#303033"/><path d="M224.057,362.254l-.557.325-3.039-1.755.559-.323Z" fill="#303033"/><path d="M227.781,360.107l-.555.322-3.043-1.757.559-.32Z" fill="#303033"/><path d="M231.508,357.955l-.561.322-3.041-1.75.559-.324Z" fill="#303033"/><path d="M235.23,355.807l-.561.324-3.041-1.757.563-.321Z" fill="#303033"/><path d="M238.953,353.658l-.561.326-3.043-1.758.561-.323Z" fill="#303033"/><path d="M242.672,351.509l-.555.323-3.043-1.755.561-.327Z" fill="#303033"/></g></svg>