<svg xmlns="http://www.w3.org/2000/svg" width="188" height="188" viewBox="0 0 188 188"><g transform="translate(-1229.861 -165.355)"><g transform="translate(1230.891 166.576)"><g transform="translate(92.974 92.806)"><path d="M1404.608,339.374l-4.152-3.383,4.774,2.438,67.619,44.4-.749,1.138Z" transform="translate(-1400.456 -335.991)" fill="#dfe0e1"/><circle cx="4.738" cy="4.738" r="4.738" transform="translate(67.043 48.346) rotate(-43.35)" fill="#f59080"/><ellipse cx="3.955" cy="3.684" rx="3.955" ry="3.684" transform="translate(69.052 50.187) rotate(-56.631)" fill="#f7a897"/><ellipse cx="1.925" cy="1.869" rx="1.925" ry="1.869" transform="matrix(0.55, -0.835, 0.835, 0.55, 72.765, 50.201)" fill="#fac8ba"/></g><g transform="translate(13.148 38.137)"><g transform="translate(7.424 6.642)"><path d="M1336.688,294.363l4.748,2.478-4.125-3.423-67.5-44.584-.749,1.138Z" transform="translate(-1269.065 -248.834)" fill="#dfe0e1"/></g><circle cx="4.738" cy="4.738" r="4.738" transform="translate(0 8.899) rotate(-69.915)" fill="#00b2c6"/><ellipse cx="3.955" cy="3.684" rx="3.955" ry="3.684" transform="matrix(0.55, -0.835, 0.835, 0.55, 0.262, 6.983)" fill="#3cc1d1"/><ellipse cx="1.925" cy="1.869" rx="1.925" ry="1.869" transform="matrix(0.55, -0.835, 0.835, 0.55, 1.814, 5.575)" fill="#83d1dd"/></g><g transform="translate(37.707 92.784)"><g transform="translate(7.263)"><path d="M1357.93,340.1l3.383-4.152-2.438,4.774-44.4,67.619-1.138-.749Z" transform="translate(-1313.34 -335.95)" fill="#dfe0e1"/></g><circle cx="4.738" cy="4.738" r="4.738" transform="matrix(0.727, -0.686, 0.686, 0.727, 0, 73.548)" fill="#009449"/><ellipse cx="3.684" cy="3.955" rx="3.684" ry="3.955" transform="translate(0.997 75.205) rotate(-56.631)" fill="#00a551"/><ellipse cx="1.869" cy="1.925" rx="1.869" ry="1.925" transform="matrix(0.55, -0.835, 0.835, 0.55, 2.98, 75.886)" fill="#37b677"/></g><g transform="translate(92.963 12.958)"><g transform="translate(0 7.424)"><path d="M1402.914,272.182l-2.478,4.748,3.423-4.125,44.584-67.5-1.137-.749Z" transform="translate(-1400.436 -204.559)" fill="#dfe0e1"/></g><circle cx="4.738" cy="4.738" r="4.738" transform="translate(42.495 8.899) rotate(-69.915)" fill="#c80078"/><ellipse cx="3.684" cy="3.955" rx="3.684" ry="3.955" transform="matrix(0.55, -0.835, 0.835, 0.55, 43.614, 6.415)" fill="#eb008b"/><ellipse cx="1.869" cy="1.925" rx="1.869" ry="1.925" transform="matrix(0.55, -0.835, 0.835, 0.55, 47.019, 4.935)" fill="#ee589f"/></g><g transform="translate(92.954 92.801)"><path d="M1400.963,341.31l-.544-5.328,1.652,5.1,16.42,79.208-1.334.275Z" transform="translate(-1400.42 -335.983)" fill="#dfe0e1"/><circle cx="4.738" cy="4.738" r="4.738" transform="matrix(0.029, -1, 1, 0.029, 12.948, 91.064)" fill="#b1b3b5"/><ellipse cx="3.955" cy="3.684" rx="3.955" ry="3.684" transform="translate(13.34 84.315) rotate(-11.631)" fill="#cfd0d2"/><ellipse cx="1.925" cy="1.869" rx="1.925" ry="1.869" transform="matrix(0.979, -0.202, 0.202, 0.979, 15.955, 86.95)" fill="#e3e4e5"/></g><g transform="translate(68.873 0)"><g transform="translate(6.042 8.175)"><path d="M1384.109,261.887l1.605,5.109-.5-5.337-16.2-79.253-1.334.275Z" transform="translate(-1367.682 -182.407)" fill="#dfe0e1"/></g><circle cx="4.738" cy="4.738" r="4.738" transform="translate(0 3.992) rotate(-24.915)" fill="#f7da00"/><ellipse cx="3.955" cy="3.684" rx="3.955" ry="3.684" transform="translate(1.54 2.822) rotate(-11.634)" fill="#fff100"/><ellipse cx="1.925" cy="1.869" rx="1.925" ry="1.869" transform="translate(3.634 2.924) rotate(-11.636)" fill="#fff698"/></g><g transform="translate(1.417 92.763)"><g transform="translate(6.949)"><path d="M1326.167,336.457l5.328-.544-5.1,1.652-79.207,16.42-.275-1.334Z" transform="translate(-1246.913 -335.914)" fill="#dfe0e1"/></g><circle cx="4.738" cy="4.738" r="4.738" transform="matrix(0.029, -1, 1, 0.029, 0.194, 22.42)" fill="#0096cf"/><ellipse cx="3.684" cy="3.955" rx="3.684" ry="3.955" transform="translate(0 14.825) rotate(-11.631)" fill="#00adee"/><ellipse cx="1.869" cy="1.925" rx="1.869" ry="1.925" transform="matrix(0.979, -0.202, 0.202, 0.979, 0.921, 16.708)" fill="#00bef2"/></g><g transform="translate(92.984 68.682)"><g transform="translate(0 6.042)"><path d="M1405.583,319.6l-5.109,1.6,5.337-.5,79.253-16.2-.275-1.334Z" transform="translate(-1400.474 -303.176)" fill="#dfe0e1"/></g><circle cx="4.738" cy="4.738" r="4.738" transform="translate(80.18 3.992) rotate(-24.915)" fill="#adc930"/><ellipse cx="3.684" cy="3.955" rx="3.684" ry="3.955" transform="translate(82.728 3.025) rotate(-11.634)" fill="#d6de23"/><ellipse cx="1.869" cy="1.925" rx="1.869" ry="1.925" transform="translate(86.181 4.387) rotate(-11.636)" fill="#e4e883"/></g><g transform="translate(92.964 92.806)"><path d="M1402.976,340.706l-2.538-4.716,3.475,4.081,45.443,66.921-1.128.764Z" transform="translate(-1400.437 -335.991)" fill="#dfe0e1"/><circle cx="4.738" cy="4.738" r="4.738" transform="translate(43.398 70.347) rotate(-20.817)" fill="#d71440"/><ellipse cx="3.955" cy="3.684" rx="3.955" ry="3.684" transform="translate(44.548 72.817) rotate(-34.098)" fill="#ec1846"/><ellipse cx="1.925" cy="1.869" rx="1.925" ry="1.869" transform="translate(47.972 74.253) rotate(-34.096)" fill="#f06666"/></g><g transform="translate(36.771 12.967)"><g transform="translate(7.287 8.02)"><path d="M1357.135,273.337l3.436,4.108-2.5-4.743-45.258-67.046-1.128.764Z" transform="translate(-1311.685 -205.656)" fill="#dfe0e1"/></g><circle cx="4.738" cy="4.738" r="4.738" transform="translate(0 6.973) rotate(-47.382)" fill="#d31920"/><ellipse cx="3.955" cy="3.684" rx="3.955" ry="3.684" transform="matrix(0.828, -0.561, 0.561, 0.828, 0.976, 5.303)" fill="#ec1c24"/><ellipse cx="1.925" cy="1.869" rx="1.925" ry="1.869" transform="matrix(0.828, -0.561, 0.561, 0.828, 2.95, 4.597)" fill="#f05b40"/></g><g transform="translate(13.739 92.773)"><g transform="translate(7.438)"><path d="M1337.213,338.47l4.716-2.539-4.081,3.475-66.921,45.443-.764-1.128Z" transform="translate(-1270.162 -335.931)" fill="#dfe0e1"/></g><circle cx="4.738" cy="4.738" r="4.738" transform="translate(0 46.766) rotate(-20.817)" fill="#f37c20"/><ellipse cx="3.684" cy="3.955" rx="3.684" ry="3.955" transform="translate(0.286 48.678) rotate(-34.098)" fill="#f6921e"/><ellipse cx="1.869" cy="1.925" rx="1.869" ry="1.925" transform="translate(1.856 50.067) rotate(-34.096)" fill="#faaf5f"/></g><g transform="translate(92.974 36.581)"><g transform="translate(0 7.287)"><path d="M1404.564,292.629l-4.108,3.436,4.742-2.5,67.046-45.258-.764-1.128Z" transform="translate(-1400.456 -247.18)" fill="#dfe0e1"/></g><circle cx="4.738" cy="4.738" r="4.738" transform="translate(66.42 6.973) rotate(-47.382)" fill="#852083"/><ellipse cx="3.684" cy="3.955" rx="3.684" ry="3.955" transform="matrix(0.828, -0.561, 0.561, 0.828, 68.405, 5.106)" fill="#a14599"/><ellipse cx="1.869" cy="1.925" rx="1.869" ry="1.925" transform="matrix(0.828, -0.561, 0.561, 0.828, 72.117, 5.045)" fill="#ae68a9"/></g><g transform="translate(70.009 92.794)"><g transform="translate(5.984)"><path d="M1385.054,341.1l1.539-5.129-.429,5.343-15.187,79.453-1.338-.258Z" transform="translate(-1369.64 -335.968)" fill="#dfe0e1"/></g><circle cx="4.738" cy="4.738" r="4.738" transform="translate(0 89.074) rotate(-65.817)" fill="#652d90"/><ellipse cx="3.684" cy="3.955" rx="3.684" ry="3.955" transform="translate(1.555 90.224) rotate(-79.098)" fill="#7f55a2"/><ellipse cx="1.869" cy="1.925" rx="1.869" ry="1.925" transform="matrix(0.189, -0.982, 0.982, 0.189, 3.647, 90.096)" fill="#9272b2"/></g><g transform="translate(92.954 1.045)"><g transform="translate(0 6.924)"><path d="M1400.895,261.486l-.476,5.334,1.587-5.12,15.406-79.411-1.338-.258Z" transform="translate(-1400.419 -182.031)" fill="#dfe0e1"/></g><circle cx="4.738" cy="4.738" r="4.738" transform="translate(11.784 0.49) rotate(-2.382)" fill="#66bb46"/><ellipse cx="3.684" cy="3.955" rx="3.684" ry="3.955" transform="matrix(0.189, -0.982, 0.982, 0.189, 12.261, 7.234)" fill="#8bc53f"/><ellipse cx="1.869" cy="1.925" rx="1.869" ry="1.925" transform="matrix(0.189, -0.982, 0.982, 0.189, 14.843, 4.566)" fill="#aed479"/></g><g transform="translate(0 69.819)"><g transform="translate(8.159 5.984)"><path d="M1326.2,320.548l5.129,1.539-5.344-.429-79.453-15.187.258-1.338Z" transform="translate(-1246.537 -305.134)" fill="#dfe0e1"/></g><circle cx="4.738" cy="4.738" r="4.738" transform="translate(0 8.644) rotate(-65.817)" fill="#663d1a"/><ellipse cx="3.955" cy="3.684" rx="3.955" ry="3.684" transform="translate(1.236 9.323) rotate(-79.098)" fill="#754c28"/><ellipse cx="1.925" cy="1.869" rx="1.925" ry="1.869" transform="matrix(0.189, -0.982, 0.982, 0.189, 2.132, 7.428)" fill="#855f3e"/></g><g transform="translate(92.992 92.763)"><path d="M1405.822,336.389l-5.334-.476,5.12,1.587,79.411,15.406.258-1.338Z" transform="translate(-1400.488 -335.913)" fill="#dfe0e1"/><circle cx="4.738" cy="4.738" r="4.738" transform="translate(81.755 12.177) rotate(-2.382)" fill="#605446"/><ellipse cx="3.955" cy="3.684" rx="3.955" ry="3.684" transform="matrix(0.189, -0.982, 0.982, 0.189, 82.982, 20.029)" fill="#716558"/><ellipse cx="1.925" cy="1.869" rx="1.925" ry="1.869" transform="matrix(0.189, -0.982, 0.982, 0.189, 86.419, 18.623)" fill="#84796d"/></g></g><g transform="translate(1318.161 259.373)"><g transform="translate(5.019)"><path d="M1399.332,341.3l.542-5.328.589,5.328.112,80.892h-1.362Z" transform="translate(-1399.213 -335.976)" fill="#dfe0e1"/></g><circle cx="4.738" cy="4.738" r="4.738" transform="translate(0 91.804) rotate(-76.718)" fill="#f59080"/><ellipse cx="3.955" cy="3.684" rx="3.955" ry="3.684" transform="translate(1.744 85.273)" fill="#f7a897"/><ellipse cx="1.925" cy="1.869" rx="1.925" ry="1.869" transform="translate(3.775 88.381)" fill="#fac8ba"/></g><g transform="translate(1318.161 165.355)"><g transform="translate(5.019 7.762)"><path d="M1399.332,260.333l.542,5.328.589-5.328.112-80.892h-1.362Z" transform="translate(-1399.213 -179.441)" fill="#dfe0e1"/></g><circle cx="4.738" cy="4.738" r="4.738" transform="translate(0 2.177) rotate(-13.282)" fill="#00b2c6"/><ellipse cx="3.955" cy="3.684" rx="3.955" ry="3.684" transform="translate(1.744 1.342)" fill="#3cc1d1"/><ellipse cx="1.925" cy="1.869" rx="1.925" ry="1.869" transform="translate(3.775 1.863)" fill="#83d1dd"/></g><g transform="translate(1229.861 253.655)"><g transform="translate(7.762 5.019)"><path d="M1324.839,334.826l5.328.542-5.328.59-80.892.112v-1.362Z" transform="translate(-1243.947 -334.707)" fill="#dfe0e1"/></g><circle cx="4.738" cy="4.738" r="4.738" transform="translate(0 9.222) rotate(-76.718)" fill="#009449"/><ellipse cx="3.684" cy="3.955" rx="3.684" ry="3.955" transform="translate(1.342 1.744)" fill="#00a551"/><ellipse cx="1.869" cy="1.925" rx="1.869" ry="1.925" transform="translate(1.863 3.775)" fill="#37b677"/></g><g transform="translate(1323.879 253.656)"><g transform="translate(0 5.018)"><path d="M1405.81,334.826l-5.328.542,5.328.59,80.891.112v-1.362Z" transform="translate(-1400.482 -334.707)" fill="#dfe0e1"/></g><circle cx="4.738" cy="4.738" r="4.738" transform="translate(82.582 2.177) rotate(-13.282)" fill="#c80078"/><ellipse cx="3.684" cy="3.955" rx="3.684" ry="3.955" transform="translate(85.273 1.744)" fill="#eb008b"/><ellipse cx="1.869" cy="1.925" rx="1.869" ry="1.925" transform="translate(88.381 3.775)" fill="#ee589f"/></g><g transform="translate(1254.902 259.354)"><g transform="translate(7.498)"><path d="M1346.195,339.325l4.15-3.384-3.351,4.184-57.12,57.278-.963-.963Z" transform="translate(-1288.911 -335.94)" fill="#dfe0e1"/></g><circle cx="4.738" cy="4.738" r="4.738" transform="matrix(0.851, -0.526, 0.526, 0.851, 0, 60.9)" fill="#b1b3b5"/><ellipse cx="3.684" cy="3.955" rx="3.684" ry="3.955" transform="translate(0.643 62.723) rotate(-44.999)" fill="#cfd0d2"/><ellipse cx="1.869" cy="1.925" rx="1.869" ry="1.925" transform="translate(2.447 63.79) rotate(-44.997)" fill="#e3e4e5"/></g><g transform="translate(1323.86 190.396)"><g transform="translate(0 7.498)"><path d="M1403.831,281.689l-3.385,4.151,4.185-3.351,57.278-57.12-.963-.963Z" transform="translate(-1400.446 -224.406)" fill="#dfe0e1"/></g><circle cx="4.738" cy="4.738" r="4.738" transform="matrix(0.526, -0.851, 0.851, 0.526, 55.918, 8.06)" fill="#f7da00"/><ellipse cx="3.684" cy="3.955" rx="3.684" ry="3.955" transform="translate(57.514 5.852) rotate(-45.001)" fill="#fff100"/><ellipse cx="1.869" cy="1.925" rx="1.869" ry="1.925" transform="translate(61.148 5.09) rotate(-45.003)" fill="#fff698"/></g><g transform="translate(1254.902 190.396)"><g transform="translate(7.498 7.498)"><path d="M1346.989,281.689l3.385,4.151-4.184-3.351-57.278-57.12.963-.963Z" transform="translate(-1288.911 -224.406)" fill="#dfe0e1"/></g><circle cx="4.738" cy="4.738" r="4.738" transform="matrix(0.851, -0.526, 0.526, 0.851, 0, 4.982)" fill="#0096cf"/><ellipse cx="3.955" cy="3.684" rx="3.955" ry="3.684" transform="translate(0.643 6.236) rotate(-44.999)" fill="#00adee"/><ellipse cx="1.925" cy="1.869" rx="1.925" ry="1.869" transform="translate(2.447 5.17) rotate(-44.997)" fill="#00bef2"/></g><g transform="translate(1323.888 259.354)"><g transform="translate(0)"><path d="M1404.648,339.325l-4.151-3.384,3.351,4.184,57.12,57.278.963-.963Z" transform="translate(-1400.498 -335.94)" fill="#dfe0e1"/></g><circle cx="4.738" cy="4.738" r="4.738" transform="translate(55.889 63.978) rotate(-58.282)" fill="#adc930"/><ellipse cx="3.955" cy="3.684" rx="3.955" ry="3.684" transform="translate(57.486 63.108) rotate(-45.001)" fill="#d6de23"/><ellipse cx="1.925" cy="1.869" rx="1.925" ry="1.869" transform="translate(61.119 63.87) rotate(-45.003)" fill="#e4e883"/></g><g transform="translate(1283.408 259.364)"><g transform="translate(6.776)"><path d="M1370.442,340.673l2.542-4.714-1.5,5.147-30.9,74.759-1.258-.522Z" transform="translate(-1339.333 -335.959)" fill="#dfe0e1"/></g><circle cx="4.738" cy="4.738" r="4.738" transform="matrix(0.585, -0.811, 0.811, 0.585, 0, 82.619)" fill="#d71440"/><ellipse cx="3.684" cy="3.955" rx="3.684" ry="3.955" transform="translate(1.291 84.059) rotate(-67.465)" fill="#ec1846"/><ellipse cx="1.869" cy="1.925" rx="1.869" ry="1.925" transform="matrix(0.383, -0.924, 0.924, 0.383, 3.366, 84.355)" fill="#f06666"/></g><g transform="translate(1323.849 172.255)"><g transform="translate(0 7.185)"><path d="M1401.969,265.677l-1.542,5.129,2.586-4.7,31.1-74.673-1.258-.522Z" transform="translate(-1400.428 -190.915)" fill="#dfe0e1"/></g><circle cx="4.738" cy="4.738" r="4.738" transform="matrix(0.161, -0.987, 0.987, 0.161, 28.412, 9.456)" fill="#d31920"/><ellipse cx="3.684" cy="3.955" rx="3.684" ry="3.955" transform="matrix(0.383, -0.924, 0.924, 0.383, 29.043, 6.805)" fill="#ec1c24"/><ellipse cx="1.869" cy="1.925" rx="1.869" ry="1.925" transform="translate(32.11 4.712) rotate(-67.47)" fill="#f05b40"/></g><g transform="translate(1235.688 218.902)"><g transform="translate(8.258 6.776)"><path d="M1330.614,305.936l4.714,2.542-5.147-1.5-74.759-30.9.522-1.258Z" transform="translate(-1255.421 -274.827)" fill="#dfe0e1"/></g><circle cx="4.738" cy="4.738" r="4.738" transform="translate(0 7.684) rotate(-54.184)" fill="#f37c20"/><ellipse cx="3.955" cy="3.684" rx="3.955" ry="3.684" transform="translate(1.073 8.598) rotate(-67.465)" fill="#f6921e"/><ellipse cx="1.925" cy="1.869" rx="1.925" ry="1.869" transform="matrix(0.383, -0.924, 0.924, 0.383, 2.333, 6.922)" fill="#faaf5f"/></g><g transform="translate(1323.886 259.344)"><g transform="translate(0)"><path d="M1405.622,337.463l-5.129-1.542,4.7,2.586,74.673,31.1.522-1.258Z" transform="translate(-1400.493 -335.922)" fill="#dfe0e1"/></g><circle cx="4.738" cy="4.738" r="4.738" transform="translate(76.097 37.764) rotate(-80.749)" fill="#852083"/><ellipse cx="3.955" cy="3.684" rx="3.955" ry="3.684" transform="matrix(0.383, -0.924, 0.924, 0.383, 77.239, 36.35)" fill="#a14599"/><ellipse cx="1.925" cy="1.869" rx="1.925" ry="1.869" transform="translate(80.888 35.666) rotate(-67.47)" fill="#ae68a9"/></g><g transform="translate(1236.724 259.343)"><g transform="translate(7.184)"><path d="M1330.151,337.457l5.13-1.536-4.7,2.581-74.709,31.016-.521-1.259Z" transform="translate(-1255.353 -335.922)" fill="#dfe0e1"/></g><circle cx="4.738" cy="4.738" r="4.738" transform="matrix(0.987, -0.16, 0.16, 0.987, 0.105, 29.835)" fill="#652d90"/><ellipse cx="3.684" cy="3.955" rx="3.684" ry="3.955" transform="matrix(0.924, -0.382, 0.382, 0.924, 0, 31.765)" fill="#7f55a2"/><ellipse cx="1.869" cy="1.925" rx="1.869" ry="1.925" transform="translate(1.258 33.442) rotate(-22.464)" fill="#9272b2"/></g><g transform="translate(1323.87 218.998)"><g transform="translate(0 6.772)"><path d="M1405.182,306.017l-4.717,2.537,5.149-1.491,74.795-30.809-.52-1.259Z" transform="translate(-1400.465 -274.994)" fill="#dfe0e1"/></g><circle cx="4.738" cy="4.738" r="4.738" transform="translate(74.976 5.536) rotate(-35.749)" fill="#66bb46"/><ellipse cx="3.684" cy="3.955" rx="3.684" ry="3.955" transform="translate(77.297 4.108) rotate(-22.468)" fill="#8bc53f"/><ellipse cx="1.869" cy="1.925" rx="1.869" ry="1.925" transform="translate(80.945 4.796) rotate(-22.47)" fill="#aed479"/></g><g transform="translate(1284.684 172.218)"><g transform="translate(5.592 7.184)"><path d="M1371.561,265.645l1.535,5.131-2.581-4.7L1339.5,191.368l1.259-.521Z" transform="translate(-1339.5 -190.847)" fill="#dfe0e1"/></g><circle cx="4.738" cy="4.738" r="4.738" transform="translate(0 1.618) rotate(-9.184)" fill="#663d1a"/><ellipse cx="3.955" cy="3.684" rx="3.955" ry="3.684" transform="matrix(0.924, -0.382, 0.382, 0.924, 0.113, 3.023)" fill="#754c28"/><ellipse cx="1.925" cy="1.869" rx="1.925" ry="1.869" transform="translate(2.188 2.729) rotate(-22.464)" fill="#855f3e"/></g><g transform="translate(1323.887 259.364)"><g transform="translate(0)"><path d="M1403.032,340.676l-2.537-4.717,1.491,5.149L1432.8,415.9l1.259-.521Z" transform="translate(-1400.495 -335.959)" fill="#dfe0e1"/></g><circle cx="4.738" cy="4.738" r="4.738" transform="matrix(0.812, -0.584, 0.584, 0.812, 27.105, 80.512)" fill="#605446"/><ellipse cx="3.955" cy="3.684" rx="3.955" ry="3.684" transform="translate(28.913 80.32) rotate(-22.468)" fill="#716558"/><ellipse cx="1.925" cy="1.869" rx="1.925" ry="1.869" transform="translate(31.977 82.416) rotate(-22.47)" fill="#84796d"/></g><circle cx="44.527" cy="44.527" r="44.527" transform="translate(1279.334 214.834)" fill="#fdc459"/><g transform="translate(1249.29 184.791)"><path d="M1339.691,200.626a74.571,74.571,0,1,0,74.571,74.571A74.571,74.571,0,0,0,1339.691,200.626Zm0,132.981A58.411,58.411,0,1,1,1398.1,275.2,58.411,58.411,0,0,1,1339.691,333.607Z" transform="translate(-1265.12 -200.626)" fill="#ffe073"/></g><g transform="translate(1249.295 184.795)"><path d="M1476.226,395.519l11.443,11.41a74.681,74.681,0,0,0,15.44-23.062l-14.922-6.215A58.5,58.5,0,0,1,1476.226,395.519Z" transform="translate(-1359.903 -280.108)" fill="#ffd454"/><path d="M1285.489,291.362l-14.939-6.174a74.327,74.327,0,0,0-5.422,27.3l16.159.024A58.22,58.22,0,0,1,1285.489,291.362Z" transform="translate(-1265.128 -238.595)" fill="#ffd454"/><path d="M1302.776,252.526l-11.442-11.411a74.677,74.677,0,0,0-15.442,23.059l14.921,6.216A58.5,58.5,0,0,1,1302.776,252.526Z" transform="translate(-1269.961 -218.808)" fill="#ffd454"/><path d="M1503.041,312.581l16.16-.024a74.329,74.329,0,0,0-5.389-27.224l-14.946,6.157A58.208,58.208,0,0,1,1503.041,312.581Z" transform="translate(-1370.068 -238.66)" fill="#ffd454"/><path d="M1503.024,337.109a58.224,58.224,0,0,1-4.2,21.155l14.94,6.173a74.339,74.339,0,0,0,5.418-27.306Z" transform="translate(-1370.05 -261.906)" fill="#ffd454"/><path d="M1317.021,411.723l-11.411,11.442a74.676,74.676,0,0,0,23.062,15.443l6.217-14.922A58.494,58.494,0,0,1,1317.021,411.723Z" transform="translate(-1283.303 -295.405)" fill="#ffd454"/><path d="M1377.087,216.793l-.024-16.16a74.324,74.324,0,0,0-27.223,5.387L1356,220.967A58.215,58.215,0,0,1,1377.087,216.793Z" transform="translate(-1303.161 -200.633)" fill="#ffd454"/><path d="M1442.042,423.714l6.2,14.929a74.681,74.681,0,0,0,23.141-15.477l-11.411-11.442A58.509,58.509,0,0,1,1442.042,423.714Z" transform="translate(-1344.556 -295.405)" fill="#ffd454"/><path d="M1355.862,434.327l-6.174,14.939a74.331,74.331,0,0,0,27.307,5.421l.024-16.16A58.225,58.225,0,0,1,1355.862,434.327Z" transform="translate(-1303.092 -305.553)" fill="#ffd454"/><path d="M1281.288,337.109l-16.159.022a74.33,74.33,0,0,0,5.385,27.226l14.947-6.155A58.215,58.215,0,0,1,1281.288,337.109Z" transform="translate(-1265.128 -261.906)" fill="#ffd454"/><path d="M1401.615,438.548l.022,16.16a74.34,74.34,0,0,0,27.226-5.388l-6.157-14.946A58.226,58.226,0,0,1,1401.615,438.548Z" transform="translate(-1326.406 -305.574)" fill="#ffd454"/><path d="M1422.768,220.992l6.172-14.94a74.334,74.334,0,0,0-27.3-5.419l-.022,16.16A58.217,58.217,0,0,1,1422.768,220.992Z" transform="translate(-1326.406 -200.633)" fill="#ffd454"/><path d="M1290.752,377.538l-14.93,6.2a74.678,74.678,0,0,0,15.475,23.142l11.443-11.41A58.5,58.5,0,0,1,1290.752,377.538Z" transform="translate(-1269.929 -280.057)" fill="#ffd454"/><path d="M1460.016,238.274l11.41-11.443a74.68,74.68,0,0,0-23.06-15.439l-6.215,14.922A58.506,58.506,0,0,1,1460.016,238.274Z" transform="translate(-1344.605 -205.463)" fill="#ffd454"/><path d="M1334.957,226.26l-6.2-14.93A74.674,74.674,0,0,0,1305.62,226.8l11.41,11.443A58.491,58.491,0,0,1,1334.957,226.26Z" transform="translate(-1283.307 -205.436)" fill="#ffd454"/><path d="M1488.207,270.452l14.929-6.2a74.674,74.674,0,0,0-15.475-23.138l-11.442,11.411A58.507,58.507,0,0,1,1488.207,270.452Z" transform="translate(-1359.9 -218.808)" fill="#ffd454"/></g><path d="M1400.464,310.619l0,.008,4.715-2.535,36.188-15.028a44.584,44.584,0,0,0-8.994-13.448l-27.737,27.66Z" transform="translate(-76.594 -51.299)" fill="#fcba42"/><path d="M1400.455,302.576l0,.014,3.376-4.14,27.657-27.739a44.6,44.6,0,0,0-13.4-8.973l-15.065,36.169Z" transform="translate(-76.591 -43.272)" fill="#fcba42"/><path d="M1400.429,299.572l.011.037,1.53-5.09,14.962-36.212a44.384,44.384,0,0,0-15.868-3.15l-.054,39.17Z" transform="translate(-76.579 -40.317)" fill="#fcba42"/><path d="M1367.109,310.622l0-.014-4.16-3.331-27.736-27.66a44.59,44.59,0,0,0-8.974,13.4l36.171,15.07Z" transform="translate(-43.269 -51.299)" fill="#fcba42"/><path d="M1387.014,299.485l-.525-5.159-.058-39.17a44.38,44.38,0,0,0-15.824,3.131l14.92,36.23Z" transform="translate(-63.19 -40.317)" fill="#fcba42"/><path d="M1364.153,322.487v-.009l-5.135-1.494L1322.8,306.018a44.386,44.386,0,0,0-3.151,15.87l39.176.058Z" transform="translate(-40.312 -63.152)" fill="#fcba42"/><path d="M1369.332,321.03l-5.147,1.491v0h0l0-.007-.007,0h0l-.006,0,0,.007h0v0l-.008,0v.008h0v0h0l-5.326.589-39.176.054a44.363,44.363,0,0,0,3.13,15.824l36.237-14.923,5.131-1.535-4.7,2.581-36.194,15.026a44.591,44.591,0,0,0,8.994,13.452L1360,325.93l4.151-3.384-3.35,4.185-27.666,27.743a44.585,44.585,0,0,0,13.4,8.975l15.073-36.178,2.542-4.714-1.5,5.147-14.969,36.222a44.37,44.37,0,0,0,15.873,3.151l.058-39.182.542-5.328.59,5.328.054,39.182a44.379,44.379,0,0,0,15.821-3.132l-14.928-36.239-1.491-5.149,2.537,4.717,15.031,36.2a44.585,44.585,0,0,0,13.451-9l-27.667-27.743-3.35-4.185,4.151,3.384,27.746,27.664a44.606,44.606,0,0,0,8.974-13.4l-36.177-15.068-4.7-2.586,5.129,1.541,36.22,14.965a44.379,44.379,0,0,0,3.149-15.871l-39.177-.054-5.328-.59,5.328-.542,39.177-.058a44.4,44.4,0,0,0-3.133-15.822Z" transform="translate(-40.312 -63.192)" fill="#fcba42"/><path d="M1375.134,302.553l0-.039-2.541-4.626L1357.565,261.7a44.6,44.6,0,0,0-13.448,8.993l27.658,27.739Z" transform="translate(-51.297 -43.256)" fill="#fcba42"/><circle cx="16.913" cy="16.913" r="16.913" transform="translate(1306.948 242.448)" fill="#ffd454"/></g></svg>