<svg xmlns="http://www.w3.org/2000/svg" width="708" height="468" viewBox="0 0 708 468"><g transform="translate(-492 -14050)"><rect width="708" height="468" rx="10" transform="translate(492 14050)" fill="#8c757e" opacity="0.25"/><g transform="translate(1114.552 14098.347) rotate(90)"><path d="M32.406,172.409a10.308,10.308,0,0,1,1.358-2.665c1.94-1.972,2.557-4.631,3.771-6.96a82.828,82.828,0,0,0,3.068-7.715c1.745-4.375.95-8.938,1.072-13.439a9.5,9.5,0,0,0-2.488-6.592c-.464-.552-.556-1.5-1.09-1.9-1.812-1.356-3-3.506-5.334-4.2a1.855,1.855,0,0,1-1.375-1.979c.016-4.168.023-8.335.049-12.5a2.442,2.442,0,0,1,.2-1.088,10.418,10.418,0,0,0,.852-5.1c-.015-3.981-.043-7.962.031-11.942.024-1.287.391-2.564.525-3.853a55.1,55.1,0,0,0,.435-5.556c0-2.219.167-4.47-.808-6.607a5.584,5.584,0,0,1-.176-2.213c0-3.048.052-6.1.045-9.145-.006-2.546-.069-5.092-.1-7.638,0-.427.034-.854.059-1.418.527-.054,1-.139,1.476-.145,3.171-.036,6.343-.037,9.514-.087,2.851-.045,5.716.016,8.471-.955a4.055,4.055,0,0,1,1.3-.082c2.171-.007,4.343,0,6.463,0,.175.265.366.419.361.567-.094,2.783-.175,5.567-.335,8.348-.11,1.914-.386,3.819-.5,5.734-.123,2.109-.061,4.231-.238,6.335-.1,1.207-.565,2.38-.778,3.584a10.726,10.726,0,0,0,.536,5.468,19.974,19.974,0,0,1,.449,4.617c.13,1.483.269,2.967.427,4.447.151,1.417.358,2.826.494,4.244q.383,3.977.708,7.959c.129,1.549.158,3.109.349,4.649a3.342,3.342,0,0,0,.742,1.811c.739.775,1.717.375,1.9-.688a7.221,7.221,0,0,0,.011-1.116c.041-2.861.029-5.724.148-8.581.059-1.417.446-2.819.534-4.237.193-3.1.314-6.207.42-9.312.061-1.8.134-3.614.026-5.41-.141-2.349-.488-4.684-.685-7.03-.161-1.918-.2-3.846-.352-5.765-.218-2.781-.491-5.559-.733-8.339-.07-.8-.145-1.611-.16-2.417a5.518,5.518,0,0,0-.78-3.375c-.591-.828-.205-1.414.841-1.448.739-.025,1.483.155,2.226.165,1.236.018,1.942-.7,1.446-1.74-1.08-2.266-.367-4.685-.869-6.979-.34-1.556-.621-3.126-1-4.672a1.234,1.234,0,0,0-.764-.688,4.73,4.73,0,0,0-1.476-.131c-7.208.19-14.417.4-21.625.589-5.03.132-10.06.256-15.091.346-1.9.033-2.263.462-1.643,2.2a3.236,3.236,0,0,1,.248.7q.476,4.519.921,9.041c.019.185,0,.375.015.56.12,1.333.389,1.6,1.717,1.682.867.051,1.735.072,2.6.126.1.007.189.148.323.261-.189,1.932-.242,3.919-.608,5.847-.411,2.162-1.1,4.27-1.673,6.4a1.178,1.178,0,0,0-.078.364c.229,3.268-1.064,6.354-1.142,9.589a15.67,15.67,0,0,1-.7,3.982c-.5,1.747-.286,3.692-.471,5.543a117.539,117.539,0,0,0-.818,13.757c.055,3.108.07,6.219.066,9.327,0,3.482,0,6.966-.1,10.447-.053,1.869-.433,2.162-2.323,2.734-1.594.482-3.156,1.065-4.748,1.552a14.78,14.78,0,0,0-5.661,3.787,31.723,31.723,0,0,0-5.535,6.6c-.158.265-.308.615-.554.729a2.184,2.184,0,0,1-1.338.266c-.238-.063-.46-.687-.461-1.059-.006-3.73.036-7.461.065-11.191.042-5.35.053-10.7.151-16.049a26.51,26.51,0,0,1,.554-3.272A26.475,26.475,0,0,0,5.2,105.8c.04-8.151.023-16.3.024-24.453,0-.678,0-1.356,0-2.2.663-.063,1.2-.161,1.73-.159,4.29.018,8.579.056,12.868.084a2.744,2.744,0,0,0,1.1-.074A5.519,5.519,0,0,0,22,78.144c-.337-.3-.635-.758-1.021-.851a8.732,8.732,0,0,0-2.04-.1c-4.042.009-8.083.036-12.125.04-2.244,0-2.56-.285-2.618-2.595-.068-2.736-.051-5.474-.091-8.21-.03-2.051-.089-4.1-.14-6.151a1.943,1.943,0,0,0-.077-.738c-1.29-2.787-.565-5.761-.8-8.644-.113-1.361-.066-2.735-.1-4.1a2.991,2.991,0,0,0-.054-.928C1.745,42.626,2.2,39.23,1.944,35.9a3.037,3.037,0,0,0-.087-.923c-1.195-2.8-.591-5.778-.892-8.664-.385-3.7-.528-7.434-.693-11.156C.121,11.744.054,8.322,0,4.9-.018,3.7.237,3.482,1.606,3.415c3.787-.186,7.58-.276,11.363-.52a39.805,39.805,0,0,0,6.445-.81c2.733-.635,5.453-.219,8.174-.293,5.157-.141,10.317-.167,15.476-.249a4.878,4.878,0,0,0,1.3-.125c2.795-.835,5.666-.676,8.52-.68C57.234.73,61.589.859,65.939.76,69.727.673,73.508.343,77.294.135,78.535.067,79.778.027,81.021,0c1.4-.028,1.879.292,2.327,1.61,1.374,4.045,3.144,7.92,4.9,11.808a36.78,36.78,0,0,1,1.339,4.422c.522,1.706.657,3.543,1.792,5.049.231.306.145.841.242,1.262.206.893.431,1.782.661,2.669.046.178.183.334.22.512.4,1.936.761,3.88,1.183,5.811.276,1.263.71,2.495.936,3.765a67.709,67.709,0,0,1,1.005,6.808,10.965,10.965,0,0,0,1.612,5.453,3.334,3.334,0,0,1,.451,1.566c.315,4.832.594,9.666.883,14.5.011.186.035.372.042.558.212,5.592.4,11.186.637,16.776.312,7.516.666,15.03.981,22.545.143,3.415.139,6.839.389,10.245.152,2.071-.558,3.917-1.069,5.811a39.081,39.081,0,0,1-1.761,4.645c-.281.68-.733,1.287-1.035,1.959-1.307,2.909-2.639,5.809-3.853,8.757-.572,1.39-.847,2.9-1.354,4.321A20.284,20.284,0,0,1,90.3,143.46c-1,1.9-1.48,4.01-2.572,5.9a41.873,41.873,0,0,0-2.223,5.631,14.084,14.084,0,0,1-1.1,2.342,7.832,7.832,0,0,0-.985,2.743,23.68,23.68,0,0,1-1.522,4.077c-.832,2.038-1.708,4.057-2.532,6.1-.367.909-.622,1.863-.988,2.772a2.471,2.471,0,0,1-.672.862,61.626,61.626,0,0,0-5.289,4.91,35.923,35.923,0,0,0-3.319,3.729,35.207,35.207,0,0,0-1.932,3.111c-.566,1.068-.931,1.248-1.985.6-1.2-.737-2.411-1.475-3.574-2.274-1.765-1.213-3.911-1.361-5.819-2.163-1.118-.47-2.2-1.03-3.343-1.435a26.378,26.378,0,0,0-4.273-1.272c-2.966-.513-5.51-2.067-8.261-3.1a26.673,26.673,0,0,1-6.2-3.2A4.589,4.589,0,0,0,32.406,172.409Zm20.639-45.455a27.72,27.72,0,0,0-1.758,3.138c-.406,1.021.1,1.733,1.193,1.795a5.628,5.628,0,0,0,2.571-.216,13.692,13.692,0,0,1,4.9-.9c.8-.065,1.6-.219,2.393-.341,1.28-.2,2.557-.414,3.839-.6a62.087,62.087,0,0,0,7.714-1.146c1.667-.456,3.226-1.123,5.008-.982a1.432,1.432,0,0,0,1.052-.59,8.654,8.654,0,0,0,1.287-6.043c-.125-1.081-.574-1.432-1.611-1.357a11.029,11.029,0,0,0-2.758.4c-3.261,1.116-6.763.755-10.044,1.716a9.71,9.71,0,0,1-1.3.079q-3.5.508-6.986,1.052a1.1,1.1,0,0,0-.515.2,3.934,3.934,0,0,1-2.789.73c-1.554-.021-2.181.745-2.2,2.338C53.04,126.6,53.044,126.972,53.044,126.953Zm40.733-18.3a22.539,22.539,0,0,0-2.357.25c-.254.048-.543.479-.606.779a.842.842,0,0,0,.443.7c1.814.279,3.634.561,5.463.68a1.033,1.033,0,0,0,1.021-1.277,1.493,1.493,0,0,0-1-.843A24.515,24.515,0,0,0,93.777,108.655ZM93,84.061l0-.05a15.4,15.4,0,0,0,2.216-.033c.345-.05.64-.442.958-.679-.258-.288-.5-.808-.777-.825-1.593-.1-3.195-.105-4.791-.057-.231.007-.625.481-.623.737a1,1,0,0,0,.625.75A19.923,19.923,0,0,0,93,84.061Z" transform="translate(99.892 8.297)" fill="#8c757e"/><path d="M71.022,125.689c0-2.473-.018-4.578.018-6.683a3.18,3.18,0,0,1,.387-1.024,3.674,3.674,0,0,0,.422-1.023c.16-2.339,1.469-4.49,1.129-6.909-.015-.107.08-.229.125-.345,1.424-.444,19.558-.63,22.445-.2.042,1.366.038,2.779.142,4.182.087,1.169.323,2.327.451,3.495.217,1.973.434,3.948.592,5.926.385,4.827.717,9.66,1.109,14.488.205,2.533.49,5.06.743,7.59a1.791,1.791,0,0,0,.135.727c1.065,1.747.946,3.723,1.011,5.626.31,8.948.55,17.9.8,26.849.044,1.611.006,3.223.006,5a.954.954,0,0,1-.446.238c-5.977.531-11.9,1.456-17.962,1.238-7.2-.261-14.421.043-21.632.118a16.8,16.8,0,0,0-2.416.185c-5.251.818-10.538.666-15.822.655-7.835-.016-15.67,0-23.5-.006-.367,0-.734-.06-1.072-.09-1.121-2.229-2.339-4.354-3.277-6.6-.951-2.276-1.516-4.71-2.451-6.993-1.068-2.608-1.213-5.5-2.708-8-.664-1.111-.663-2.62-.954-3.951q-.517-2.363-1.016-4.729a4.541,4.541,0,0,0-.929-2.369c-.38-.422-.321-1.283-.368-1.954-.1-1.354.091-2.757-.849-3.934A.907.907,0,0,1,5,146.671a21.526,21.526,0,0,0-.943-7.682c-.106-.285-.008-.667-.158-.909-1.009-1.626-.813-3.461-1-5.238a136.137,136.137,0,0,1-1.01-14.133,22.061,22.061,0,0,0-.7-3.8,10.7,10.7,0,0,1-.244-1.829Q.854,100.67.8,88.257a7.248,7.248,0,0,0-.077-1.488C-.483,81.225.21,75.606.1,70.023a10.778,10.778,0,0,1,1.052-3.878c.929-2.395,1.978-4.743,2.995-7.1a1.5,1.5,0,0,1,.525-.712,1.236,1.236,0,0,0,.582-1.58,2.747,2.747,0,0,1,.109-1.225c.184-.693.444-1.365.666-2.048.075-.23.054-.56.207-.687,1.947-1.6,1.553-4.226,2.717-6.172a24.847,24.847,0,0,0,1.189-2.656c1.216-2.719,2.611-5.377,3.587-8.181.531-1.522,1.5-2.961,1.423-4.7-.014-.3.266-.629.445-.925a13.85,13.85,0,0,0,1.335-2.18c.513-1.372.771-2.838,1.271-4.216.539-1.483,1.232-2.911,1.862-4.362a37.193,37.193,0,0,0,2-4.713c.541-1.952,2.107-2.827,3.483-3.9,3.18-2.481,6.356-4.952,8.584-8.4.192-.3.194-.712.362-1.03.242-.459.556-.88.863-1.357.4.193.69.24.821.41,1.569,2.014,3.864,2.677,6.109,3.575,1.327.532,2.814.7,4.024,1.721.791.67,2.064.782,3.13,1.113q4.436,1.375,8.882,2.721a3.343,3.343,0,0,0,1.255.3c1.588-.2,2.91.681,4.21,1.231A29.738,29.738,0,0,1,68.55,14.2c-.007.046,0,.13-.03.16-2.174,1.952-3.069,4.731-4.631,7.065a39.168,39.168,0,0,0-3.58,7.485,32.022,32.022,0,0,0-1.877,15.881c.406,3.434,2.186,6.132,3.852,8.936a7.711,7.711,0,0,0,1.472,1.4c.533.5,1.033,1.044,1.594,1.514a7.3,7.3,0,0,0,1.485,1.009c1.492.719,3.19,1.028,4.533,2.334-.315,1.67.091,3.427-.841,5.163-.537,1-.235,2.437-.393,3.664-.124.971-.419,1.917-.561,2.887-.476,3.245-.982,6.487-1.35,9.745a34.141,34.141,0,0,1-.7,6.038,24.471,24.471,0,0,0-.566,6.663c-.029,6.457.043,12.914.105,19.371.02,2.049.113,4.1.22,6.146a4.765,4.765,0,0,0,.365,1.813c.638,1.305.427,2.648.484,4.2-.852.063-1.628.124-2.4.179-3.029.216-6.056.5-9.089.625-3.906.167-7.817.241-11.727.3-2.548.042-5.1-.029-7.646-.007-1.246.011-1.623.375-1.617,1.524.019,3.542.072,7.083.115,10.625a6.936,6.936,0,0,0,.059.745c.186,1.533.593,2,2.129,2,2.112,0,4.223-.167,6.335-.206q14.823-.277,29.647-.519c.684-.013,1.369.007,2.051-.035,1.742-.108,2.629-1.264,1.8-2.716-.914-1.6-.656-3.242-.79-4.885-.151-1.855-.232-3.721-.469-5.566-.234-1.823-.6-2.059-2.433-2.051C73.057,125.693,72.024,125.689,71.022,125.689ZM36.729,112.778l-.154.009c.1,1.668-.122,3.442.383,4.978a18.557,18.557,0,0,1,.8,4.908,3.262,3.262,0,0,0,.1.736,1.093,1.093,0,0,0,1.26.854,1.157,1.157,0,0,0,1.129-1.241,5.454,5.454,0,0,0-.291-1.06c-.111-.535-.422-1.193-.227-1.6a9.024,9.024,0,0,0,.673-4.342A1.7,1.7,0,0,1,40.79,115a4.239,4.239,0,0,0,.722-2.638,14.489,14.489,0,0,1,.427-4.236,16.427,16.427,0,0,0,.469-9.181,61.457,61.457,0,0,1-.836-7.137,5.568,5.568,0,0,0-.813-3.19,2.292,2.292,0,0,1-.287-1.253,27.74,27.74,0,0,1,.019-4.1c.613-4.866-.981-9.582-.877-14.4a.515.515,0,0,0-.091-.354c-.258-.239-.581-.654-.815-.616a1.309,1.309,0,0,0-.918.7,18.612,18.612,0,0,0-.863,3.978c-.171,3.224-.182,6.455-.205,9.685-.014,1.925.086,3.85.1,5.774a2.425,2.425,0,0,1-.25,1.263c-1,1.568-.907,3.316-.908,5.042,0,2.42.085,4.839.086,7.259,0,2.28-.343,4.593.856,6.725a2,2,0,0,1,.121.913C36.737,110.417,36.729,111.6,36.729,112.778Zm6.824-50.054a12.809,12.809,0,0,0,2.5-.18c.521-.139,1.25-.6,1.348-1.031a19.526,19.526,0,0,1,2.091-4.666c.932-1.8.03-3.236-1.96-3.212a5.921,5.921,0,0,0-1.114.082c-2.058.419-4.115.844-6.166,1.3-2.4.529-4.783,1.154-7.2,1.615-2.251.431-4.552.609-6.794,1.077A27.228,27.228,0,0,0,22.3,59.094a.965.965,0,0,0-.509.517,27.553,27.553,0,0,0-1.347,4.215,2.292,2.292,0,0,0,3.389,2.585,9.213,9.213,0,0,1,4.144-.839,10.259,10.259,0,0,0,1.657-.175c1.4-.235,2.789-.5,4.184-.742a39.194,39.194,0,0,0,6.013-1.141C41.1,63.073,42.208,62.251,43.554,62.724ZM6.228,75.944v-.112c.991,0,1.983.032,2.971-.011.68-.029,1.429-.075,1.5-1.021.055-.763-.489-1.226-1.525-1.183-1.917.079-3.831.219-5.746.35-.675.047-1.249.288-1.19,1.106.052.723.613.859,1.207.867C4.37,75.954,5.3,75.944,6.228,75.944ZM7.9,103.238v-.044a27.708,27.708,0,0,0,2.975-.04,1.2,1.2,0,0,0,.826-.808,1.12,1.12,0,0,0-.735-.833c-1.921-.087-3.849-.1-5.771-.039-.293.008-.852.635-.794.8a1.5,1.5,0,0,0,.9.92A16.988,16.988,0,0,0,7.9,103.238Z" transform="translate(165.958 359.833)" fill="#8c757e"/><path d="M111.99,10.3c0,2,.005,4.03,0,6.065,0,.87-.078,1.742-.035,2.61a3.274,3.274,0,0,1-.664,2.618,2.066,2.066,0,0,0-.381,1.027c-.305,1.837-.563,3.682-.868,5.518-.376,2.264-.705,4.54-1.207,6.776-.279,1.245-1.01,2.387-1.286,3.63-.63,2.85-1.04,5.748-1.667,8.6-.422,1.919-1.06,3.792-1.611,5.684-.069.236-.291.462-.279.683.193,3.49-1.8,6.715-1.237,10.253.057.351.081.868-.12,1.075-1.148,1.183-1.06,2.78-1.358,4.185-.668,3.153-.976,6.381-1.584,9.55-.335,1.748-.981,3.436-1.484,5.151-.154.524-.335,1.046-.437,1.581-.479,2.495-.933,4.995-1.4,7.492-.238,1.278-.464,2.558-.725,3.831a10.715,10.715,0,0,1-.426,1.392c-.081.231-.279.432-.321.665-.422,2.312-.824,4.626-1.228,6.94-.223,1.276-.482,2.547-.648,3.83a33.664,33.664,0,0,0-.279,3.524c-.07,3.045-.085,6.093-.127,9.138,0,.246.049.6-.087.719-1.184,1.055-.824,2.512-1.09,3.816a60.666,60.666,0,0,0-.885,9.83c-.112,2.9-.271,3.037-3.145,3.127-7.146.227-14.292.409-21.438.628a23.4,23.4,0,0,0-5.336.7,19.1,19.1,0,0,1-4.814.337c-8.206.009-16.411-.047-24.617-.033-2.671,0-5.342.172-8.013.225-1.592.032-1.668-.067-1.783-1.643-.1-1.354-.029-2.73-.827-3.956-.181-.277-.1-.726-.136-1.095-.134-1.221-.023-2.48-.822-3.573a2.066,2.066,0,0,1-.174-1.265c.2-2.543-.639-4.888-1.321-7.265-.562-1.96-1.158-3.91-1.662-5.885-.488-1.917-1.244-3.746-1.834-5.6a27.057,27.057,0,0,1-1.355-5.311,4.153,4.153,0,0,0-.678-2.453,2.189,2.189,0,0,1-.262-1.245,7.683,7.683,0,0,0-1.666-4.438,2.068,2.068,0,0,1-.4-.615c-.357-1.35-.635-2.723-1.035-4.06-.209-.7-.661-1.318-.923-2-.75-1.959-1.449-3.939-2.19-5.9-.218-.578-.5-1.13-.771-1.689-1.031-2.15-2.027-4.317-3.121-6.435A16.507,16.507,0,0,0,.612,74.767C-.484,73.32-.1,72.236,1.691,72.1a18.973,18.973,0,0,0,5.432-1.1c2.232-.856,4.614-1.384,6.737-2.443a54.5,54.5,0,0,0,6.012-3.942,10.9,10.9,0,0,0,1.912-1.452A21.454,21.454,0,0,0,25.789,58.1c.97-1.985,2.155-3.864,3.235-5.8a2.367,2.367,0,0,0,.438-1.005c0-2.185,1.235-3.975,1.8-5.969.633-2.235,1.628-4.428,1.314-6.873a7.73,7.73,0,0,1,.522-3.068,35.847,35.847,0,0,0,.632-4.972,13,13,0,0,1,.49-1.9,7.8,7.8,0,0,0,.338-.855c.348-2.144.724-4.283.986-6.437.338-2.775.591-5.561.857-8.344.112-1.175.163-2.356.241-3.534a3.455,3.455,0,0,1,.109-1.288c1.037-1.963.824-4.108.993-6.2.13-1.61.527-2.042,2.1-1.8,2.755.427,5.483,1.02,8.238,1.442,2.575.4,5.169.68,7.758.978,3.807.438,3.244.376,3.387,3.646.162,3.727.021,7.489.5,11.172s.291,7.322.421,10.98c.027.766-.263,1.8.837,2,1.063.2,1.154-.927,1.617-1.526a.579.579,0,0,0,.126-.346c-.123-2.75,1.574-4.993,2.1-7.56.432-2.112.79-4.244,1.311-6.334.354-1.419.958-2.775,1.4-4.174a6.3,6.3,0,0,0,.515-2.318,4.115,4.115,0,0,1,1.282-3.338c2.214.1,4.258.162,6.3.309a19.308,19.308,0,0,1,2.352.471,15.664,15.664,0,0,0,2.339.435c2.158.095,4.319.1,6.667.146.072,1.935.2,3.713.193,5.491-.021,5.226-.106,10.45-.139,15.676a6.3,6.3,0,0,0,.267,2.008,1.217,1.217,0,0,0,.949.654c.335-.012.678-.418.97-.7a.658.658,0,0,0,.121-.531c-.432-1.95.784-3.412,1.449-5.041a8.637,8.637,0,0,0,.642-2.12c.161-1.263-.237-2.641.873-3.682a.5.5,0,0,0,.084-.356c-.243-3.363,2.564-5.984,2-9.281C96.664,7.537,105.934,8.711,111.99,10.3Z" transform="translate(255.135 290.577)" fill="#8c757e"/><path d="M112.9,68.954c-2.871.434-5.326.761-7.762,1.2a16.972,16.972,0,0,0-2.42.864,7.212,7.212,0,0,1-1.42.39A11.286,11.286,0,0,0,96.2,73.433a22.485,22.485,0,0,1-2.227,1.338,23.919,23.919,0,0,0-6.92,5.764,6.388,6.388,0,0,1-.974.867c-1.712,1.331-2.325,3.249-2.821,5.235a4.742,4.742,0,0,1-.373,1.231,24.224,24.224,0,0,0-2.78,9.37c-.38,3.082-.689,6.173-1.054,9.258a3.966,3.966,0,0,1-.373,1.039,4.821,4.821,0,0,0-.474,1q-1.029,6.408-2,12.823a33.8,33.8,0,0,1-.856,5.083,37.052,37.052,0,0,0-1.15,7.458c-.227,2.4-.226,4.811-.322,7.14-.283.109-.4.2-.512.189-2.581-.349-5.2-.544-7.728-1.12a18.842,18.842,0,0,0-5.714-.609c-2.8.228-5.354-.808-8.22-1.2-.033-.708-.089-1.367-.093-2.027q-.055-10.544-.095-21.087c-.007-1.864.006-3.728.008-5.592a6.011,6.011,0,0,0-.023-.745c-.081-.653-.282-1.233-1.057-1.329a1.52,1.52,0,0,0-1.625,1.231,7.1,7.1,0,0,0-.1,1.112,12.078,12.078,0,0,1-.685,3.236,51.447,51.447,0,0,0-1.29,5.583,19.978,19.978,0,0,1-.662,2.066c-.059.168-.272.289-.311.456q-.606,2.576-1.17,5.162c-.039.177.077.417-.005.551-.92,1.49-.744,3.2-1.074,4.8a22.36,22.36,0,0,1-2.1,4.715c-2.4,0-4.753.006-7.1-.007a1.933,1.933,0,0,1-.908-.167c-1.778-.993-3.737-.767-5.645-.886-.309-.019-.622,0-.932,0-2.463-.07-2.794-.4-2.794-2.847,0-5.782.017-11.565.015-17.347,0-.712.294-1.654-.657-1.925-1.109-.315-1.382.777-1.589,1.449A27.892,27.892,0,0,0,21.292,118a14.081,14.081,0,0,1-.548,1.91c-.1.291-.318.542-.4.835a25.093,25.093,0,0,0-.916,3.562,26.588,26.588,0,0,1-1.13,5.215c-.449,1.326-.756,2.7-1.159,4.174-2.968-.264-5.736-.5-8.5-.762-1.605-.155-3.205-.365-4.808-.546-.432-.049-.87-.057-1.3-.133-2.882-.513-2.8-.583-2.193-3.4.661-3.093,1-6.253,1.512-9.379a20.6,20.6,0,0,1,.55-2.105c.032-.117.139-.217.159-.334.423-2.426.876-4.848,1.234-7.283a10.615,10.615,0,0,1,.575-2.675,12.663,12.663,0,0,0,.508-3.473,3.166,3.166,0,0,1,.668-2.245c.3-.3.311-.917.4-1.4.674-3.729,1.267-7.474,2.026-11.186.406-1.987,1.185-3.895,1.628-5.875.54-2.42.839-4.893,1.363-7.317.454-2.1,1.1-4.158,1.614-6.245.163-.657.16-1.354.29-2.021.234-1.207.51-2.407.772-3.608.026-.121.125-.238.118-.351-.188-2.768,1.027-5.323,1.222-8.036a14.039,14.039,0,0,1,.64-2.256c.312-1.253.653-2.5.858-3.777.571-3.553,1.037-7.123,1.629-10.672a39.9,39.9,0,0,1,1.141-4.848,64.7,64.7,0,0,0,1.829-11.005c.079-.666.331-1.309.45-1.972.217-1.208.378-2.427.6-3.636.14-.778.341-1.545.509-2.318a8.843,8.843,0,0,0,.282-1.443c.1-2.3.167-4.6.244-6.9.008-.249-.069-.539.034-.739A11.263,11.263,0,0,0,24.056.272c1.9,1.168,3.764.72,5.578.6C31.17.766,32.7.482,34.232.4,37.458.216,40.69,0,43.919,0,55.039.013,66.16.137,77.281.174c3.915.013,7.83-.1,11.745-.158.662-.009,1.325,0,1.635,0,.574,1.268,1.035,2.172,1.389,3.116a5.52,5.52,0,0,1,.178,1.443c.181,2.084-.223,4.254.928,6.2a.693.693,0,0,1,.084.36A21.642,21.642,0,0,0,94.3,17.893c.657,2.305,1,4.7,1.52,7.045.529,2.406,1.071,4.81,1.66,7.2.325,1.319.743,2.615,1.146,3.914.6,1.943,1.222,3.88,1.846,5.816a10.09,10.09,0,0,0,.588,1.565c1.168,2.247,1.71,4.725,2.627,7.051,1.155,2.928,2.775,5.675,4.19,8.5.776,1.548,1.517,3.115,2.326,4.645.565,1.069,1.255,2.073,1.819,3.143A22.481,22.481,0,0,1,112.9,68.954Z" transform="translate(1.762 122.727)" fill="#8c757e"/><path d="M.886,6.129c1.476-.055,2.9-.057,4.308-.18A18.733,18.733,0,0,0,7.71,5.428c.36-.082.707-.215,1.064-.31,1.549-.417,3.136-.724,4.638-1.269a53.555,53.555,0,0,0,4.906-2.177A8.319,8.319,0,0,0,20.151.447,1.621,1.621,0,0,1,22.324.39a35.969,35.969,0,0,0,3.662,1.729c1.356.582,2.739,1.1,4.11,1.643q2.754,1.1,5.508,2.192a4.593,4.593,0,0,1,1.037.392c2.137,1.559,4.671,2.107,7.09,3a14.461,14.461,0,0,1,4.038,1.706c1.094.82,2.6,1.065,3.892,1.649,1.521.69,2.991,1.494,4.5,2.207a14.053,14.053,0,0,0,1.744.551,11.968,11.968,0,0,1-.248,1.955c-.483,1.654-1.165,3.256-1.554,4.929A41.7,41.7,0,0,0,55,28.744c-.3,4.15-.451,8.315-.508,12.475a62.367,62.367,0,0,0,.456,6.32,2.5,2.5,0,0,0,.381,1.231c1.142,1.532.786,3.227.512,4.861-.408,2.437-1.012,4.841-1.465,7.272-.25,1.342-.283,2.727-.558,4.061-.481,2.338-1.116,4.645-1.6,6.983a24.261,24.261,0,0,0-.34,3.32c-.118,1.834.108,3.65-.716,5.468-.5,1.11-.188,2.575-.344,3.869a12.34,12.34,0,0,1-.592,2.089,8.32,8.32,0,0,0-.454,1.4c-.662,5.737-1.323,11.474-1.923,17.217-.264,2.534-.368,5.083-.581,7.622-.164,1.944-.189,1.959-2.109,1.966q-7.648.027-15.3.025c-.373,0-.747-.028-1.119-.01-.607.03-1.131.244-1.2.929a1.265,1.265,0,0,0,.97,1.411,3.824,3.824,0,0,0,1.1.1c5.284-.023,10.568-.061,15.852-.08,1.22,0,1.356.1,1.482,1.367.44,4.45.85,8.9,1.268,13.355.314,3.339.64,6.677.93,10.019.225,2.6.366,5.2.62,7.792a20.891,20.891,0,0,0,.611,2.677,9,9,0,0,1,.4,1.787c.1,5.036.138,10.076.262,15.112a34.932,34.932,0,0,0,.482,3.657,15.449,15.449,0,0,1,.2,1.849q.075,7.742.108,15.487a4.884,4.884,0,0,1-.145.81,5.211,5.211,0,0,1-1.039.238c-8.882.229-17.764.472-26.648.651-5.781.116-11.564.139-17.345.2-.423,0-.846,0-1.5,0-.045-1.026-.143-1.933-.117-2.836.207-7.209.524-14.417.637-21.628.136-8.706.116-17.414.137-26.122.008-3.358-.054-6.716-.1-10.074-.006-.5-.07-.99-.109-1.486-.194-2.475-.475-4.947-.565-7.427-.231-6.336-.335-12.678-.573-19.014-.163-4.345-.446-8.687-.708-13.028-.225-3.717-.494-7.432-.746-11.147a1.35,1.35,0,0,0-.072-.55c-1.311-2.3-.9-4.827-.991-7.284C1.883,69.7,1.9,67.7,1.85,65.714A5.57,5.57,0,0,0,1.6,63.691a11.839,11.839,0,0,1-.616-4.939C.981,52.966.937,47.18.814,41.4.76,38.856.4,36.322.322,33.781.161,28.375.065,22.964.005,17.556c-.026-2.3.04-4.6.189-6.9C.286,9.244.614,7.847.886,6.129Z" transform="translate(82.774 354.497)" fill="#8c757e"/><path d="M50.208.15c.051.618.111,1.16.139,1.7.163,3.224.354,6.447.461,9.674.047,1.416-.073,2.838-.126,4.258-.176,4.65.605,9.259.6,13.9-.006,4.665.022,9.331.058,14,.055,7.089.134,14.179.2,21.267.011,1.243-.073,2.49,0,3.729.059.983.3,1.954.448,2.931a21.5,21.5,0,0,1,.4,2.759c.085,3.606.056,7.215.166,10.82.041,1.354.391,2.7.519,4.049.193,2.04.279,4.089.481,6.128.122,1.225.434,2.432.563,3.657.195,1.851.295,3.711.453,5.566.248,2.906.518,5.812.764,8.719.058.68.052,1.366.08,2.049.186,4.469.383,8.938.557,13.407.225,5.777.391,11.556.663,17.33.166,3.534.6,7.056.7,10.59.137,4.847.075,9.7.09,14.551q.02,6.529.02,13.056c0,.245-.04.489-.067.8a7.019,7.019,0,0,1-3.525.89c-2.6-.09-4.949.917-7.357,1.69a42.4,42.4,0,0,1-4.825,1.289,8.051,8.051,0,0,0-3.329,1.549c-1.228.919-2.391,1.173-3.534.264-1.733-1.377-3.908-1.522-5.8-2.427-1.491-.715-3.035-1.324-4.572-1.938-1.078-.432-2.194-.767-3.274-1.192-2.173-.855-4.316-1.787-6.5-2.6-1.6-.6-3.248-1.062-4.877-1.58-.234-.074-.533-.043-.711-.179C7,179.27,4.434,178.882,2.085,177.963A13.96,13.96,0,0,1,0,176.732c.3-3.016,1.673-5.7,1.444-8.678a1.378,1.378,0,0,1,.082-.733c1.324-2.371.894-4.968.94-7.49a9.811,9.811,0,0,1,.7-4.368,3.8,3.8,0,0,0,.333-1.446c.147-2.607.307-5.214.359-7.824.027-1.392-.2-2.768-1.712-3.443a1.212,1.212,0,0,1-.633-1.724c1.022-2.353.962-4.836,1.035-7.309a.859.859,0,0,1,.048-.367c1.752-3.23,1.187-6.887,1.874-10.314.426-2.125.618-4.3.893-6.45a95.455,95.455,0,0,1,1.329-9.938c.532-2.247.46-4.575,1.082-6.712a29.82,29.82,0,0,0,.821-7.725,1.52,1.52,0,0,1,.083-.73c1.3-1.978.753-4.221.913-6.352a13.309,13.309,0,0,1,.561-3.832,20.445,20.445,0,0,0,.672-3.868,3.6,3.6,0,0,1,.72-.161c4.164-.046,8.328-.1,12.492-.107,1.361,0,1.361.052,2.248-.846-.495-1-1.438-.8-2.273-.811-3.73-.042-7.46-.062-11.19-.087-.613,0-1.226,0-2.041,0-.1-1.984-.131-3.826-.3-5.658-.116-1.281-.463-2.539-.614-3.819-.174-1.475-.282-2.959-.352-4.443s.1-2.967-.8-4.323a3.334,3.334,0,0,1-.173-1.635c-.058-3.356-.021-6.717-.184-10.067-.074-1.532-.6-3.035-.8-4.568-.383-2.938-.733-5.883-.994-8.834-.235-2.657-.1-5.365-.542-7.98-.763-4.514-.417-9.05-.65-13.571-.14-2.73-.256-5.461-.392-8.192C4.918,1.018,5.072.776,6.365.744,8.789.685,11.215.712,13.639.667,15.377.635,17.114.513,18.852.484Q34.127.227,49.4,0A5.5,5.5,0,0,1,50.208.15Z" transform="translate(227.378 9.082)" fill="#8c757e"/><path d="M0,146.446c.281-1.57.557-3.02.8-4.478.141-.856.194-1.726.346-2.58.237-1.33.524-2.651.794-3.975.037-.182.131-.354.151-.537.418-3.987,1.541-7.894,1.291-11.963a10.824,10.824,0,0,1,.482-2.5A15.364,15.364,0,0,0,4.17,118.4c.085-1.614.053-3.236.176-4.847.084-1.1.359-2.192.531-3.291a14.606,14.606,0,0,0,.28-2.208q.019-16.046-.025-32.09a20.173,20.173,0,0,0-.452-2.927,20.025,20.025,0,0,1-.329-2.391C4.27,68.1,4.258,65.551,4.2,63a3.74,3.74,0,0,0-.195-1.646,8.47,8.47,0,0,1-.648-4.184c-.045-1.928-.093-3.856-.158-5.782A3.686,3.686,0,0,0,3.031,50.1c-.825-1.947-.774-4.01-.888-6.054-.024-.434.08-.963-.128-1.281-.9-1.381-.225-2.291.771-3.178a18.2,18.2,0,0,1,1.6-1.543,17.975,17.975,0,0,0,4.448-5.13,22.019,22.019,0,0,0,1.541-3.351,3.442,3.442,0,0,1,.4-.822,8.765,8.765,0,0,0,1.8-3.407,17.663,17.663,0,0,1,1.588-2.915c.465-.929.8-1.923,1.243-2.862,1.118-2.346,1.323-5.074,3.2-7.116,1.543-1.681,2.89-3.541,4.36-5.291a5.6,5.6,0,0,1,1.171-.884c.355-.243.828-.377,1.082-.694,1.744-2.179,4.375-3.057,6.712-4.15A13.6,13.6,0,0,1,39.543.113c2.322.332,4.633.75,6.93,1.222.5.1.894.657,1.391.887,1.4.651,2.816,1.255,4.236,1.852a17.927,17.927,0,0,1,6.12,4.047,44.373,44.373,0,0,0,3.362,2.939,2.572,2.572,0,0,1,.942,2.113c.082,11.689.284,23.379.273,35.067-.006,7.024-.328,14.049-.51,21.073a1.982,1.982,0,0,1-.063.738c-1.1,2.407-.694,5.006-.977,7.516a4.783,4.783,0,0,1-.059.742c-1.175,4.2-1.352,8.561-2.009,12.843a38.251,38.251,0,0,1-1.3,4.405,17.923,17.923,0,0,0-.541,2.522c-.175,1.343-.06,2.724-.787,3.978a3.41,3.41,0,0,0-.247,1.456,4.834,4.834,0,0,1-.764,2.61,8.807,8.807,0,0,0-.724,2.655c-.789,3-1.576,6-2.384,8.992q-1.16,4.294-2.367,8.578c-.251.887-.615,1.741-.9,2.62-.65,2.04-1.333,4.071-1.9,6.133-.474,1.712-.735,3.485-1.231,5.19-.375,1.29-1.034,2.5-1.454,3.774-.522,1.589-.882,3.233-1.4,4.823-.286.872-.815,1.662-1.137,2.525-.52,1.393-.947,2.822-1.437,4.227-.435,1.246-.635,1.416-1.9,1.078a36.952,36.952,0,0,1-3.846-1.345c-1.147-.448-2.248-1.015-3.4-1.451a10.4,10.4,0,0,0-1.466-.184,11.04,11.04,0,0,1-1.544-.477c-.226-.084-.429-.4-.619-.383-1.754.176-3.035-1.161-4.694-1.4-1.687-.246-3.29-1.015-4.961-1.429-2.027-.5-4.09-.86-6.131-1.306-1.076-.235-2.136-.545-3.211-.784-.662-.148-1.338-.245-2.011-.335-1.968-.261-3.938-.5-5.9-.77A4.6,4.6,0,0,1,0,146.446Z" transform="translate(183.953 192.777)" fill="#8c757e"/><path d="M23.9.009C26.264-.1,28.1.9,30.047,1.46a7.5,7.5,0,0,0,1.779.465,5.859,5.859,0,0,1,3.371.863.637.637,0,0,0,.345.131c3.353-.067,6.135,2.095,9.44,2.377,1.789.153,3.49,1.341,5.278,1.49,2.309.192,4.344,1.267,6.594,1.536,2.031.243,4.057.53,6.083.814a1.159,1.159,0,0,1,.408.234c-.584,2.919-1.266,5.771-1.695,8.661-.3,2.009-.207,4.04-.811,6.056-.449,1.5-.156,3.212-.286,4.821a22.425,22.425,0,0,1-.508,2.524,18.234,18.234,0,0,0-.426,2.36c-.1,1.489-.1,2.984-.126,4.477-.027,1.357.138,2.731-.768,3.941a2.492,2.492,0,0,0-.255,1.263c-.634,10.054-1.291,20.109-1.022,30.191.167,6.277.43,12.552.678,18.825.061,1.55.224,3.1.363,4.642.038.429.015.99.267,1.251.955.991.71,2.2.758,3.35.065,1.553.1,3.107.153,4.661a2.509,2.509,0,0,0,.086.921c1.079,2.354.756,4.875.944,7.339a2.291,2.291,0,0,1-1.161,2.325,13.8,13.8,0,0,0-5.27,6.773c-.542,1.377-1.216,2.7-1.743,4.084-.439,1.148-.652,2.388-1.144,3.511-.633,1.445-.7,3.108-1.786,4.384a5.557,5.557,0,0,0-.971,1.792c-.973,2.88-2.96,5.162-4.718,7.506a22.451,22.451,0,0,1-5.2,4.425c-2.015,1.42-4.243,2.535-6.317,3.877-2.767,1.79-5.851,1.63-8.927,1.652-2.614.019-4.9-1.2-7.333-1.865-1.434-.392-2.893-.724-4.281-1.242a14.127,14.127,0,0,1-2.365-1.419c-.157-.1-.281-.273-.448-.33-2.951-1.009-4.622-3.624-6.866-5.511a4.741,4.741,0,0,1-1.705-3.594c-.082-3.481-.14-6.964-.23-10.445-.065-2.537-.24-5.075-.227-7.611.012-2.286.264-4.57.314-6.856.06-2.735-.007-5.473.023-8.211.057-5.16.143-10.321.219-15.482a3.025,3.025,0,0,1,.057-.928c1.23-3.487.745-7.126.966-10.7A3.112,3.112,0,0,1,2.2,78.518a1.568,1.568,0,0,0,.287-.863c.394-3.14.563-6.328,1.219-9.411a77.4,77.4,0,0,1,1.577-7.8c.649-2.017,1.645-4.05,1.355-6.308A1.678,1.678,0,0,1,6.71,53.4c.8-2.319,1.633-4.628,2.43-6.95.179-.522.253-1.079.38-1.62.254-1.08.52-2.156.765-3.239.136-.6.218-1.217.363-1.817.186-.767.409-1.525.623-2.285a4.327,4.327,0,0,0,.193-.521c.478-3.31,2.2-6.242,2.9-9.474a26.9,26.9,0,0,1,2.183-6.247.919.919,0,0,0,.091-.36c.1-2.67,1.642-4.839,2.507-7.243.228-.634.409-1.284.608-1.928A23.406,23.406,0,0,1,21.6,6.576a16.163,16.163,0,0,0,1.181-2.931C23.182,2.483,23.509,1.3,23.9.009Z" transform="translate(121.786 206.171)" fill="#8c757e"/><path d="M67.453.183c-.075,4.029.132,7.727-.31,11.345a35.491,35.491,0,0,0-.007,6.872c.308,4.518.091,9.073.065,13.612a3.706,3.706,0,0,1-.28,1.629,9.162,9.162,0,0,0-.732,4.175c-.119,4.909-.01,9.846-.517,14.718-.711,6.836-.226,13.677-.585,20.5-.452,8.574-.4,17.148-.546,25.724-.042,2.42.074,4.843.08,7.264,0,.912-.1,1.824-.162,2.851-1.106.05-2.024.1-2.943.133-8.322.333-16.642.752-24.967.967-7.209.187-14.425.1-21.636.213-3.472.053-6.942.274-10.591.426a10.577,10.577,0,0,1-.217-1.486c0-2.488.034-4.976.073-7.464a3.724,3.724,0,0,1,.162-1.469,11.144,11.144,0,0,0,.675-4.94C5.01,89.03,5.1,82.809,5,76.589c-.039-2.66-.436-5.315-.665-7.973-.053-.618-.12-1.239-.126-1.86-.071-6.718-.065-13.437-.222-20.154-.088-3.785-.441-7.563-.674-11.343-.05-.808-.156-1.617-.129-2.422a77.934,77.934,0,0,0-1-12.445A3.1,3.1,0,0,0,1.9,18.949c-.96-1.2-.747-2.555-.756-3.914-.01-1.553-.119-3.105-.19-4.658a1.223,1.223,0,0,0-.088-.549C-.377,7.763.234,5.458.027,3.264c-.114-1.209.095-1.37,1.355-1.416,7.825-.286,15.648-.683,23.475-.8S40.517.745,48.344.368C54.179.086,60.03.1,65.874,0A11.506,11.506,0,0,1,67.453.183Z" transform="translate(277.47 432.569)" fill="#8c757e"/><path d="M0,108.46c.416-2.563-.347-5.046.766-7.437a6.24,6.24,0,0,0,.329-2.377q.429-13.792.813-27.586c.129-4.849.129-9.7.289-14.549.168-5.092.505-10.178.683-15.27.158-4.537.17-9.078.311-13.616.048-1.542.291-3.078.446-4.616.111-1.111.3-2.221.324-3.334.106-5.659.166-11.32.25-16.979.006-.428.085-.854.152-1.482C5.033,1.137,5.686,1.009,6.34,1,11.437.91,16.534.845,21.631.771a6.911,6.911,0,0,0,.931-.038C28.931-.22,35.346.131,41.744.058,48.333-.019,54.925.008,61.515,0c.542,0,1.084.074,1.86.131,0,1.02,0,1.933,0,2.846-.059,12.129-.156,24.259-.167,36.388-.008,8.769.082,17.54.175,26.309a33.709,33.709,0,0,0,.447,3.873c.079.615.253,1.222.279,1.837.106,2.485.183,4.971.247,7.459.048,1.853-.154,3.716.625,5.509a5.32,5.32,0,0,1,.181,2.027,87.339,87.339,0,0,0,.979,13c.337,2.2.4,4.451.591,6.677a1.046,1.046,0,0,1-1.011,1.285,26.042,26.042,0,0,1-2.6.234c-8.143.143-16.285.322-24.428.383-12.061.089-24.124.085-36.185.143A20.4,20.4,0,0,0,0,108.46Z" transform="translate(25.789 13.099)" fill="#8c757e"/><path d="M44.147,119.513a10.2,10.2,0,0,1-1.869-.786,9.4,9.4,0,0,0-4.07-1.66c-.606-.092-1.18-.386-1.781-.533a8.359,8.359,0,0,0-5.481.156c-1.229.525-2.589.6-3.883,1.094a40.667,40.667,0,0,0-5.232,2.755,30.27,30.27,0,0,0-8.757,7.9c-.928,1.152-2.135,2.078-3.087,3.214-1.341,1.6-2.55,3.31-3.84,4.954-1.371,1.747-2.767,3.474-4.17,5.2-.093.115-.331.111-.655.209C.851,140.089-.008,138.341,0,136.3c.039-10.575,0-21.151.027-31.727a8.173,8.173,0,0,1,.539-2.088,7.953,7.953,0,0,0,.43-1.4c.292-3.4.517-6.813.818-10.216.191-2.161.476-4.314.719-6.47.139-1.232.348-2.461.4-3.7a31.063,31.063,0,0,1,1.708-7.54,3.531,3.531,0,0,0,.228-.9,19.248,19.248,0,0,1,1.2-6.717c.646-1.652,1.128-3.366,1.677-5.057a8.752,8.752,0,0,0,.243-.9A42.852,42.852,0,0,1,9.26,53.827c.789-2.177.824-4.611,2.23-6.572a1.734,1.734,0,0,0,.3-.681c.775-4.382,3.131-8.188,4.487-12.36.189-.58.635-1.072.86-1.646.737-1.877,1.426-3.772,2.138-5.659a9.115,9.115,0,0,1,.365-.842c.576-1.157,1.173-2.3,1.737-3.465.752-1.552,1.5-3.109,2.217-4.676.636-1.382,1.24-2.778,1.846-4.172.148-.341.211-.72.374-1.052,1.2-2.434,2.412-4.859,3.612-7.292C30.183,3.865,30.914,2.3,31.686.764A1.1,1.1,0,0,1,33.393.23a4.314,4.314,0,0,0,2.542.984.275.275,0,0,1,.175.055c2.414,2.347,5.9,2.684,8.574,4.552A14.035,14.035,0,0,0,47.34,6.982c2.526,1.055,4.795,2.7,7.532,3.278.281.059.509.339.778.486q1.526.833,3.064,1.645c.107.057.248.055.352.116,1.927,1.143,2.657.679,1.576,3.612-.7,1.895-1.108,3.9-1.635,5.852-.1.359-.033.8-.217,1.088-1.883,2.973-2.055,6.454-2.943,9.722-.467,1.718-1.088,3.395-1.614,5.1-.436,1.412-.9,2.82-1.238,4.257a105.8,105.8,0,0,1-2.764,10.578,8.009,8.009,0,0,0-.292,1.644,10.708,10.708,0,0,1-.768,3.775c-.461.919-.242,2.191-.281,3.308a2.9,2.9,0,0,1-.645,2.247,2.05,2.05,0,0,0-.455,1.178c-.35,3.207-.7,6.414-.977,9.627-.414,4.825-.507,9.693-1.207,14.474-.97,6.623-.677,13.258-.844,19.892a34.027,34.027,0,0,1-.492,3.476,3.741,3.741,0,0,0-.042,1.45C44.748,115.586,44.407,117.351,44.147,119.513Z" transform="translate(74.621 212.153)" fill="#8c757e"/><path d="M59.527.272c.212,1.776.524,3.547.618,5.328.254,4.843.5,9.689.588,14.537.069,3.975-.081,7.952-.177,11.929-.076,3.169-.141,6.343-.347,9.506-.274,4.21-.645,8.417-1.042,12.619A49.406,49.406,0,0,1,57.5,63.076a11.043,11.043,0,0,0-.274,2.213c-.1,1.409.1,2.845-.772,4.146a3.625,3.625,0,0,0-.229,1.641,7.187,7.187,0,0,1-.88,3.518,9.6,9.6,0,0,0-1.02,3.934,33.294,33.294,0,0,1-2.236,8.042c-1.049,2.85-1.913,5.767-2.886,8.644-.257.76-.659,1.47-.925,2.227-.771,2.189-1.472,4.4-2.279,6.579-.226.608-.822,1.074-1.077,1.677-.65,1.537-1.2,3.116-1.8,4.673a5.807,5.807,0,0,1-.622,1.343,23.331,23.331,0,0,0-2.414,5.007c-.756,1.819-1.7,3.557-2.552,5.339a15.865,15.865,0,0,0-.585,1.494c-.1.289-.069.681-.255.876-1.568,1.637-1.9,3.87-2.815,5.813A26.7,26.7,0,0,1,31.9,133.97a26.667,26.667,0,0,0-2,4.348c-.074.168-.071.368-.137.541-.922,2.441-1.829,2.8-4.269,1.806-1.191-.486-2.456-.8-3.631-1.314-2.584-1.138-5.128-2.366-7.7-3.537a31.534,31.534,0,0,1-4.175-1.88c-1.108-.718-2.444-.876-3.47-1.87a13.419,13.419,0,0,0-3.393-1.811c-.982-.5-1.969-.983-3.13-1.562.859-2.629,1.674-5.14,2.5-7.646a8.53,8.53,0,0,0,.568-1.564,37.355,37.355,0,0,1,2.76-9.158,4.662,4.662,0,0,0,.327-1.436c.051-1.119-.054-2.261.876-3.132a.444.444,0,0,0,.113-.346c-.411-2.245,1.221-3.945,1.585-5.988q.555-3.116,1.28-6.2c.665-2.814,1.41-5.611,2.12-8.414a1.186,1.186,0,0,0,.075-.365c-.25-3.016,1.219-5.777,1.3-8.748a5.917,5.917,0,0,1,.34-1.425,10.723,10.723,0,0,0,.4-1.232,91.362,91.362,0,0,0,1.219-16.31,10.573,10.573,0,0,1,.311-2,18.286,18.286,0,0,0,.5-2.9c.079-9.454.1-18.909.152-28.363,0-.591.081-1.182.146-2.093,2,1.883,4.26,2.473,6.487,3.18a13.9,13.9,0,0,0,7.693.007c2.324-.562,4.325-1.811,6.527-2.608a3.374,3.374,0,0,0,.952-.58c2.2-1.8,4.507-3.491,6.533-5.471a55.516,55.516,0,0,0,7.359-8.082,29.2,29.2,0,0,1,4.41-4.681A5.346,5.346,0,0,0,58.186.964c.131-.376.566-.646.863-.964Z" transform="translate(232.723 202.284)" fill="#8c757e"/><path d="M9.049,202.726a9.416,9.416,0,0,1,.267-2.961,10.694,10.694,0,0,0,.693-4.187c.091-1.737.078-3.48.159-5.218a3.2,3.2,0,0,1,.347-1.6,5.741,5.741,0,0,0,.685-3.219c.771-13.045.213-26.105.442-39.156q.175-9.972.222-19.946c.01-3.105-.15-6.212-.261-9.317q-.2-5.584-.459-11.166a7.818,7.818,0,0,0-.371-2.573,13.887,13.887,0,0,1-.646-5.508q0-6.714-.1-13.427a8.638,8.638,0,0,0-.4-2.941,11.3,11.3,0,0,1-.55-4.212C9.059,73.438,9,69.582,8.949,65.726a2.868,2.868,0,0,0-.177-1.279c-.85-1.562-.725-3.2-.692-4.9a36.8,36.8,0,0,0-.307-7.808c-.522-2.636-.414-5.329-.983-7.885a41.372,41.372,0,0,1-.909-6.785.819.819,0,0,0-.06-.365c-1.257-2.05-.787-4.341-.872-6.539a21.324,21.324,0,0,0-.774-4.546c-.472-1.83-.359-3.75-1.032-5.614-.551-1.524-.3-3.323-.53-4.982C2.126,11.581,1.557,8.15,1.006,4.717A3.376,3.376,0,0,0,.662,3.665C-.089,2.276-.157,1.873.237,0H7.995a12.6,12.6,0,0,1,.6,1.664c.47,2.129,2.134,3.565,3.1,5.407.351.668,1.165,1.083,1.732,1.649,1.611,1.609,3.088,3.377,4.832,4.823,2.307,1.914,4.451,4.082,7.455,5.05,1.617.521,3.082,1.5,4.654,2.181,1.472.639,2.981,1.2,4.5,1.725,2.005.7,2.347,1.267,2.362,3.4.029,4.1.19,8.2.241,12.3.045,3.667.021,7.335.018,11,0,1.677-.029,3.355-.04,5.032-.049,7.461-.128,14.922-.136,22.383-.006,5.6.122,11.193.11,16.789q-.016,7.554-.214,15.107c-.144,5.216-.325,10.435-.646,15.643-.214,3.465-.6,6.928-1.1,10.364-.362,2.5-1.033,4.954-1.562,7.429-.065.3-.105.612-.145.92-.415,3.2-.759,6.412-1.271,9.6-.264,1.641-.853,3.228-1.242,4.852-.272,1.138-.449,2.3-.677,3.448-.155.784-.322,1.565-.492,2.345-.026.119-.142.225-.147.34-.125,3.07-1.831,5.714-2.313,8.7a31.647,31.647,0,0,1-2.773,8.622,17.988,17.988,0,0,0-1.162,3.537,42.941,42.941,0,0,1-2.6,6.739c-.734,1.717-1.97,2.508-3.369,3.547-2.8,2.081-5.762,4.148-7.389,7.457a1.046,1.046,0,0,1-.383.39A5.392,5.392,0,0,1,9.049,202.726Z" transform="translate(191.354 0.837)" fill="#8c757e"/><path d="M32.538,133.189a18.347,18.347,0,0,1-2.056.237q-13.99.057-27.981.074c-2.477,0-2.492-.031-2.493-2.463Q0,108.36,0,85.682.013,69.35.055,53.019c0-1.175,0-2.35,0-3.468.759-.191,1.54-.156,1.819-.513A3.842,3.842,0,0,0,2.549,47c.262-4.342.429-8.689.677-13.031.085-1.487.388-2.962.462-4.448.177-3.6.275-7.2.412-10.8a4.253,4.253,0,0,1,.14-1.475c1.183-2.732.809-5.63.96-8.469a7.688,7.688,0,0,1,.6-3.439,5.369,5.369,0,0,0,.278-2.189c.041-.922.01-1.848.01-2.863A4.56,4.56,0,0,1,7.137.012c1.74-.025,3.482,0,5.222-.011.946-.009,1.328.391,1.289,1.362a27.732,27.732,0,0,0,.075,3.728c.054.571.278,1.4.683,1.61,1.159.59,1.1,1.56,1.111,2.54.037,3.36-.046,6.723.1,10.078.128,3.03.557,6.047.725,9.077.124,2.232.032,4.476.058,6.714a7.5,7.5,0,0,0,.176,1.84,1.087,1.087,0,0,0,.766.65c.28.026.63-.272.879-.5a1.289,1.289,0,0,0,.3-.673c.3-1.562.589-3.128.875-4.694a3.864,3.864,0,0,1,.143-.914c1.036-2.227.854-4.6.841-6.945a14.036,14.036,0,0,1,.633-5.094c.568-1.564.326-3.434.382-5.17a25.679,25.679,0,0,0-.109-2.8,2.46,2.46,0,0,1,.711-2.37c.307-.261.352-.89.42-1.364.266-1.842.463-3.694.744-5.532C23.386.038,23.422.012,24.9.013q7.089,0,14.177.054c.843.006,1.685.089,2.624.142a10.946,10.946,0,0,1-.03,2.574c-.787,2.936-.63,5.926-.661,8.9-.065,6.281-.094,12.563-.168,18.844a4.987,4.987,0,0,1-.357,2.184,8.738,8.738,0,0,0-.681,3.809c-.143,2.666-.391,5.327-.535,7.992-.195,3.595-.306,7.195-.5,10.789-.249,4.588-.546,9.174-.823,13.76-.071,1.179-.1,2.364-.237,3.536a11.9,11.9,0,0,1-.507,1.927,6.741,6.741,0,0,0-.355,1.039c-.206,1.786-.415,3.574-.542,5.368-.247,3.472-.42,6.949-.66,10.421-.266,3.844-.579,7.685-.858,11.528a26.961,26.961,0,0,1-.671,5.52c-.461,1.636-.078,3.495-.416,5.184-1.206,6.032-.815,12.13-.986,18.207C32.7,132.219,32.608,132.637,32.538,133.189ZM30.467,39.736c-.068-1.971.224-3.993-.823-5.827a1.524,1.524,0,0,1-.116-.544c-.373-2.81-.828-5.611-1.087-8.432-.227-2.462-1.205-4.8-1.016-7.337a12.061,12.061,0,0,0-.3-4.62,19.348,19.348,0,0,1-.694-5.869,7.186,7.186,0,0,0-.189-1.657A1.366,1.366,0,0,0,24.65,4.47c-.817.048-.982.646-1.016,1.306-.019.37.027.744.036,1.115a35.478,35.478,0,0,0,.809,5.091c.582,3.416.8,6.9,1.1,10.356.437,5.066.813,10.138,1.217,15.207a2.622,2.622,0,0,0,.122.917c.825,1.677.641,3.521.917,5.287q.455,2.914.933,5.824a1.736,1.736,0,0,0,.186.523,1.239,1.239,0,0,0,1.6.581,1.446,1.446,0,0,0,.818-1.027A11.819,11.819,0,0,0,31.2,45.4,17.712,17.712,0,0,1,30.467,39.736Z" transform="translate(326.19 0.915)" fill="#8c757e"/><path d="M16.538,134.109H.135C.083,133.394,0,132.792,0,132.191q.037-12.316.1-24.631a6.807,6.807,0,0,1,.165-1.853c.945-3.215.717-6.528.9-9.808.122-2.17.319-4.335.491-6.5.177-2.231.328-4.464.561-6.689a27.907,27.907,0,0,1,.585-2.881,3.483,3.483,0,0,0,.187-.718c-.1-5.4,1.708-10.659,1.2-16.093a4.874,4.874,0,0,1,.541-3.065,4.032,4.032,0,0,0,.306-1.813c.1-2.486.152-4.973.225-7.459a3.361,3.361,0,0,1,.062-1.111c1.77-4.361,1.288-9.03,1.853-13.553.369-2.953.5-5.935.729-8.905.12-1.55.245-3.1.324-4.652a37.3,37.3,0,0,1,.623-6.264c.555-2.515.327-5.2.506-7.8.08-1.164.347-2.314.49-3.474.15-1.221.253-2.447.383-3.74a4.383,4.383,0,0,1,.892-.212C13.985.9,16.844.889,19.7.783,23.673.636,27.644.405,31.616.239Q35.436.077,39.259,0c1.5-.03,1.73.212,1.726,1.715-.029,9.578-.092,19.154-.1,28.731-.008,9.393.033,18.784.055,28.175q.026,11.287.053,22.574c0,.486-.091.972-.15,1.558-.365.043-.65.078-.934.11-1.361.158-1.671.61-1.562,1.946a18.08,18.08,0,0,1-.09,2.549c-.16,2.6-.349,5.2-.49,7.806a16.458,16.458,0,0,1-.577,4.366,19.831,19.831,0,0,0-.449,5.36c-.048,1.485.128,2.966-.664,4.361a3.636,3.636,0,0,0-.151,1.647c-.031,3.856-.01,7.712-.1,11.566a27.331,27.331,0,0,1-.539,3.08c-.2,1.472-.407,2.949-.5,4.431-.083,1.344-.018,2.7-.018,4.129a10.54,10.54,0,0,1-1.056.121c-2.487.005-4.974.022-7.461-.011-1.656-.022-1.862-.242-1.891-1.8-.039-2.114-.084-4.229-.081-6.344.008-5.658.08-11.314.048-16.971-.019-3.289-.159-6.577-.319-9.863a4.686,4.686,0,0,0-.653-1.887,1.048,1.048,0,0,0-.914-.431,1.355,1.355,0,0,0-.837.825,21.784,21.784,0,0,0-.149,2.583,11.964,11.964,0,0,1-.142,1.631c-.163.843-.455,1.664-.59,2.51-.29,1.813-.422,3.626-.849,5.446-.5,2.122-.182,4.438-.178,6.671a5.028,5.028,0,0,1-.5,1.908,13.051,13.051,0,0,0-.706,3.589,9.115,9.115,0,0,1-.562,3.07,10.674,10.674,0,0,0-.381,2.566c-.208,1.273-.471,2.538-.68,3.813C16.735,132.373,16.651,133.222,16.538,134.109Zm-2.063-6.136c1.273.04,1.632-.491,1.249-1.716a12.5,12.5,0,0,1-.386-1.975,6.989,6.989,0,0,0-.27-2.2c-.908-1.692-.709-3.488-.821-5.269a15.252,15.252,0,0,0-.331-2.182c-.187-.89-.519-1.756-.636-2.653-.184-1.41-.113-2.861-.384-4.248-.413-2.11-1.161-4.159-1.527-6.276-.82-4.746-1.506-9.516-2.211-14.282a2.642,2.642,0,0,0-1.036-1.885,1.2,1.2,0,0,0-1.671.161c-.509.413-.865.786-.612,1.564a17.749,17.749,0,0,1,.575,2.864A14.631,14.631,0,0,0,6.7,92.457a40.624,40.624,0,0,1,1.863,7.895c.058.426.237.834.323,1.259.2.963.41,1.923.541,2.894.183,1.348.256,2.709.454,4.052.133.906.4,1.793.607,2.688q.354,1.529.71,3.055c.127.542.306,1.077.379,1.625.441,3.322.857,6.647,1.286,9.97.039.308.1.613.164.917A1.314,1.314,0,0,0,14.475,127.973Z" transform="translate(1.403 421.447)" fill="#8c757e"/><path d="M36.458,200.067H29.6a40.348,40.348,0,0,0-4.332-9.56,19.43,19.43,0,0,0-3.43-3.637c-1.442-1.36-2.979-2.62-4.461-3.937a20.591,20.591,0,0,0-7.237-4.19,1.411,1.411,0,0,1-.477-.279c-1.844-1.653-4.2-2.054-6.48-2.579-1.864-.429-2.244-.825-2.326-2.694-.046-1.043-.307-2.075-.457-3.115a18.646,18.646,0,0,1-.326-2.569c-.041-11.134-.108-22.269-.04-33.4.023-3.784.409-7.565.623-11.347.088-1.552.212-3.1.228-4.657.062-6.344.088-12.688.13-19.032a5.076,5.076,0,0,1,.063-1.486c1.216-3.754.543-7.657.955-11.471.146-1.347.443-2.678.56-4.026.161-1.854.251-3.716.309-5.577.065-2.114.055-4.229.088-6.344a2.4,2.4,0,0,1,.113-1.1c1.04-1.775.781-3.734.872-5.64.065-1.365.066-2.732.1-4.1a1.824,1.824,0,0,1,.049-.553c1.575-4.443,1.437-9.136,2.008-13.725.054-.43.165-.854.22-1.284Q6.684,41.09,7,38.41a5.976,5.976,0,0,1,.037-.744c.513-2.021,1.109-4.024,1.546-6.062.284-1.326.312-2.7.522-4.049a13.083,13.083,0,0,1,.55-1.9c.075-.233.247-.439.3-.674.38-1.608.677-3.238,1.122-4.826.536-1.913.748-3.9,1.23-5.786.4-1.557.633-3.112.98-4.659.247-1.1.453-2.609,2.207-2.791.557-.058,1.068-.589,1.592-.918a18.24,18.24,0,0,1,2.973-1.825,7.677,7.677,0,0,0,2.579-1.729A37.549,37.549,0,0,1,25.809,0c.19.207.349.31.335.376-.881,4.114-.472,8.3-.624,12.444-.164,4.474-.049,8.96-.305,13.428-.771,13.413-.418,26.832-.384,40.25.006,2.417.414,4.836-.082,7.248a1.068,1.068,0,0,0,0,.372c.732,4.792.558,9.631.694,14.451.137,4.849.075,9.7.2,14.552.043,1.66.478,3.307.585,4.97.139,2.168.1,4.347.192,6.519.122,2.977.278,5.952.444,8.928.187,3.349.426,6.7.6,10.044.123,2.422.169,4.847.253,7.271a1.835,1.835,0,0,0,.076.737c1.143,2.224.69,4.617.765,6.954.046,1.431.073,2.861.125,4.291a2.7,2.7,0,0,0,.148,1.1c.959,1.861.693,3.877.84,5.847a19.561,19.561,0,0,0,.482,2.13c.2,1.032.388,2.064.517,3.1.58,4.682,1.108,9.369,1.728,14.044a17.157,17.157,0,0,0,.844,2.4,11.322,11.322,0,0,1,.43,2.151c.138,1.518-.02,3.007.7,4.522.522,1.105.257,2.569.42,3.863.107.851.348,1.685.538,2.525.027.118.126.221.149.339C35.791,196.531,36.105,198.2,36.458,200.067Z" transform="translate(138.596 355.528)" fill="#8c757e"/><path d="M10.8,133.18c-.093-2.781-.16-5.385-.28-7.987a12.855,12.855,0,0,0-.356-1.982,11.211,11.211,0,0,1-.4-1.794,4.723,4.723,0,0,0-.778-2.814,2.757,2.757,0,0,1-.271-1.425c-.066-1.49-.094-2.983-.126-4.475a5.646,5.646,0,0,0-.71-3.223,2.961,2.961,0,0,1-.229-1.441c-.051-1.3.006-2.617-.111-3.914-.1-1.1-.388-2.173-.58-3.261-.1-.547-.149-1.1-.246-1.649-.269-1.512-.145-3.067-.894-4.534-.392-.767-.176-1.83-.3-2.751C4.931,87.5,4.314,83.078,3.7,78.652c-.034-.246.009-.564-.129-.725-1.493-1.756-.713-3.922-1.1-5.874-.13-.662-.3-1.316-.456-1.974a15,15,0,0,1-.442-1.957c-.2-2.076.053-4.153-.864-6.2-.6-1.344-.5-3.005-.718-4.6.839-.569,1.835-1.173,2.752-1.881,1.928-1.49,3.264-3.519,4.778-5.385,1.139-1.4,1.591-3.186,2.626-4.67a7.353,7.353,0,0,0,.62-2.861c.083-.487-.078-1.089.156-1.461a5.69,5.69,0,0,0,.724-3.774c-.275-2.372.827-4.482,1.016-6.751.021-.247.1-.491.106-.738.144-3.472.34-6.942.406-10.416.1-5.53.119-11.063.17-16.595,0-.248,0-.5-.02-.745C13.2.08,13.252.005,15.128,0q8.764-.011,17.528.009c.482,0,.964.08,1.435.121a18.514,18.514,0,0,1,1.167,5.847c.065,2.657.554,5.3.831,7.954.1.926.07,1.864.169,2.789a22.046,22.046,0,0,0,.783,4.562c.444,1.371.228,2.95.371,4.43.076.789.306,1.562.449,2.345a10.5,10.5,0,0,1,.28,1.816q.148,37.778.262,75.555c.025,8.706,0,17.412,0,26.118,0,1.869-.044,1.93-1.837,1.92q-12.118-.071-24.237-.159C11.908,133.309,11.485,133.242,10.8,133.18Z" transform="translate(286.136 0.893)" fill="#8c757e"/><path d="M.27.086C9.171.007,17.9-.133,26.58.3c1.361,4.8,1.139,9.588,1.466,14.325.179,2.6.488,5.185.756,7.775s.559,5.189.845,7.784c.041.369-.019.844.185,1.085,1.168,1.381.863,3.05.966,4.626a19.58,19.58,0,0,0,.7,5.31c.466,1.355.161,2.961.321,4.441.152,1.407.463,2.8.7,4.192a11.131,11.131,0,0,1,.238,1.463,11.107,11.107,0,0,0,.656,3.238A19.554,19.554,0,0,1,33.9,58.6a75.81,75.81,0,0,0,1.161,9.225,38.843,38.843,0,0,1,.863,6.021,10.3,10.3,0,0,0,.693,2.229c-2.19,1.8-4.555,3.251-6.373,5.383-2.622,3.077-4.875,6.277-4.634,10.6a2.311,2.311,0,0,1-.186,1.271c-.914,1.472-.765,3.091-.845,4.7-.07,1.42-.344,2.83-.5,4.247a8.987,8.987,0,0,0-.17,2.767,19.593,19.593,0,0,1,.027,4.965c-.122,3.854-.083,7.711-.119,11.568q-.057,6.062-.141,12.125a1.779,1.779,0,0,1-.239.551H2.653c-.165-1.883-.344-3.655-.467-5.432A4.5,4.5,0,0,0,1.43,126a2.718,2.718,0,0,1-.351-1.564c-.054-2.919-.058-5.84-.089-8.76a1.291,1.291,0,0,0-.125-.721c-1.015-1.309-.776-2.841-.777-4.312Q.065,86.1.072,61.563.053,36.554,0,11.545C0,8.684-.009,5.822.025,2.96.036,2.049.176,1.139.27.086Z" transform="translate(44.05 421.301)" fill="#8c757e"/><path d="M0,.036C10.574-.034,21.044.009,31.583.073a6.047,6.047,0,0,1,.243,1.179q-.109,6.62-.261,13.24c-.007.3,0,.72-.177.88-.987.879-.745,2.03-.809,3.128-.14,2.419-.343,4.836-.453,7.257-.205,4.533-.344,9.069-.546,13.6-.135,3.042-.366,6.08-.49,9.123-.217,5.337-.384,10.677-.573,16.015a3.273,3.273,0,0,1-.056.743c-1.257,4.572-.618,9.272-.931,13.907-.18,2.665.118,5.392-.317,8-.865,5.194-.377,10.42-.769,15.616-.111,1.477-.242,2.954-.338,4.433-.047.728-.468.955-1.113.945-5.839-.1-11.68-.125-17.516-.324-2.4-.082-4.791-.531-7.209-.815-.086-.149-.258-.308-.258-.467C0,71.167,0,35.793,0,.036Z" transform="translate(326.315 135.946)" fill="#8c757e"/><path d="M30.611,108.263.3,108.678A6.509,6.509,0,0,1,0,107.2c.117-2.793.295-5.584.428-8.377C.51,97.149.553,95.47.6,93.793c.149-4.849.252-9.7.461-14.545.074-1.725.415-3.437.612-5.159.091-.8.166-1.607.179-2.412.1-5.847.154-11.7.283-17.542a21.827,21.827,0,0,1,.5-3.094,9.961,9.961,0,0,0,.241-1.458q.133-7.931.222-15.863c.013-1.181-.1-2.364-.058-3.543A8.584,8.584,0,0,1,3.4,27.611a12.707,12.707,0,0,0,.621-4.4C4.015,18.606,4.011,14,4.067,9.4a27.586,27.586,0,0,1,.444-2.922q.269-2.209.454-4.429c.051-.6.008-1.207.008-2.048L30.611.512Z" transform="translate(11.646 311.459)" fill="#8c757e"/><path d="M26.768,107.582c-8.944.319-17.681.162-26.613.206-.062-.666-.155-1.2-.155-1.724q0-36.67.018-73.341,0-14.369,0-28.738C.024,2.7.147,1.412.221,0L24.388.915a6.384,6.384,0,0,1,.188,1.057c-.055,3.916-.139,7.833-.189,11.75q-.048,3.728-.021,7.459.121,15.766.265,31.532.1,11.1.2,22.2A6.948,6.948,0,0,0,24.9,76.4c1.227,5.284.523,10.663.8,15.992.123,2.359.046,4.727.127,7.089a8.519,8.519,0,0,0,.418,2.553C26.876,103.794,26.6,105.569,26.768,107.582Z" transform="translate(44.039 311.99)" fill="#8c757e"/><path d="M0,.314a2.7,2.7,0,0,1,.834-.3C9.584,0,18.334,0,27.2,0v106.83c-.6.049-1.019.112-1.439.113-4.6.02-9.2.067-13.8.025-2.232-.02-4.472-.123-6.691-.356-1.578-.165-1.723-.479-1.737-2.063q-.071-8.4-.139-16.8c-.061-6.9-.066-13.808-.207-20.71-.2-9.635-.468-19.267-.762-28.9-.175-5.714-.444-11.426-.7-17.138a7.658,7.658,0,0,0-.41-2.375,13.7,13.7,0,0,1-.655-5.138C.678,10.011.631,6.527.54,3.044A17.231,17.231,0,0,0,0,.314Z" transform="translate(297.177 136.056)" fill="#8c757e"/><path d="M.636,146.837Q.32,73.71,0,.059A21.648,21.648,0,0,1,8.76.99c.817.306.843.966.85,1.677.03,3.546.1,7.092.107,10.638.019,9.082-.012,18.164.024,27.245.051,12.747.176,25.492.207,38.239.016,6.4-.214,12.8-.128,19.2.069,5.156-.18,10.3.076,15.468.295,5.956.107,11.936.108,17.906,0,4.728-.055,9.455-.029,14.182a2.561,2.561,0,0,1-1.15,2.517,31.681,31.681,0,0,0-2.6,2.059,1.271,1.271,0,0,1-1.707.064c-.589-.451-1.174-.91-1.737-1.4C2.138,148.233,1.524,147.648.636,146.837Z" transform="translate(0 256.94)" fill="#8c757e"/><path d="M21.67,60.789C14.315,60.933,7.1,60.861,0,60.667c0-2.557-.013-4.836.012-7.115,0-.406.034-1,.287-1.184.976-.721.844-1.715.882-2.7A100.993,100.993,0,0,1,1.9,39.084a81.615,81.615,0,0,0,.3-9.3,58.134,58.134,0,0,1,.395-8.346c.444-2.582.095-5.3.095-8.139.81-.278,1.739-.551,2.63-.914,1.367-.557,2.714-1.164,4.057-1.775a5.108,5.108,0,0,0,1.1-.678c1.573-1.294,3.12-2.62,4.693-3.913.526-.433,1.137-.764,1.647-1.212.545-.48,1.017-1.043,1.52-1.57L21.425,0a12.106,12.106,0,0,1,.236,1.442c.128,5.465.232,10.932.361,16.4.1,4.342.248,8.683.338,13.025.021.988-.1,1.98-.17,2.968s-.24,1.978-.257,2.968q-.157,9.407-.26,18.815C21.653,57.28,21.67,58.945,21.67,60.789Z" transform="translate(239.887 406.581)" fill="#8c757e"/><path d="M0,63.126a4.294,4.294,0,0,0,2.2-3.1c.405-1.517,1.5-2.835,2.066-4.326.724-1.9,1.248-3.871,1.808-5.826.528-1.84,1.05-3.686,1.461-5.555a18.6,18.6,0,0,0,.453-3.678c.064-4.1.015-8.209.077-12.313a11.822,11.822,0,0,1,.508-2.3A11.188,11.188,0,0,0,8.9,24.4c.083-1.178.1-2.361.137-3.542a7.576,7.576,0,0,1,.688-3.806,2.3,2.3,0,0,0,.2-.9,23.523,23.523,0,0,1,1.916-6.717,24.623,24.623,0,0,1,.943-2.549,20.348,20.348,0,0,1,5.737-6.2A8.071,8.071,0,0,1,20.281,0c0,1.174.046,2.134-.008,3.088-.258,4.526-.743,9.048-.772,13.574-.046,7.333.2,14.667.326,22,.046,2.611.092,5.222.187,7.83.156,4.279.386,8.556.517,12.836.08,2.61.022,5.223.046,7.834q.037,4.009.117,8.015c.031,1.453-.114,1.679-1.506,1.718-2.049.058-4.1.038-6.15.105-.773.025-1.085-.437-1.417-.987-.7-1.16-1.483-2.271-2.122-3.46-.577-1.075-.995-2.234-1.512-3.343a2.418,2.418,0,0,0-.7-1.072c-1.8-1.069-2.957-3.012-5.079-3.67A11.333,11.333,0,0,1,0,63.126Z" transform="translate(344.623 478.021)" fill="#8c757e"/><path d="M10.124,0H21.193a6.424,6.424,0,0,1,.2,1.161q.022,23.5.016,47c0,1.3-.023,2.613-.141,3.911a16.174,16.174,0,0,1-.532,2.327c-.029.119-.146.229-.143.34.072,2.632-2.095,4.4-2.629,6.793a1.591,1.591,0,0,1-.337.66c-2.4,2.81-4.745,5.676-7.255,8.387a10.841,10.841,0,0,1-4.628,2.654A22.471,22.471,0,0,0,2.72,74.612,3.31,3.31,0,0,1,0,74.881a7.885,7.885,0,0,1,.844-.959,29.708,29.708,0,0,0,6.708-7.88A12.82,12.82,0,0,0,8.614,63.3a18.643,18.643,0,0,0,1.412-6.27c-.168-9.26-.158-18.523-.226-27.785-.015-2.04.308-4.11-.51-6.087a1.006,1.006,0,0,1-.045-.551c.9-4.485.415-9.024.532-13.541.071-2.735.111-5.469.175-8.2A5.884,5.884,0,0,1,10.124,0Z" transform="translate(346.757 405.477)" fill="#8c757e"/><path d="M43.874,17.207H0V.15A13.345,13.345,0,0,1,1.6,0C6.436.11,11.3-.023,16.106.429c6.819.64,13.644.571,20.467.79,2.35.075,4.7.218,7.314.343C43.9,6.758,43.893,11.872,43.874,17.207Z" transform="translate(312.98 258.024)" fill="#8c757e"/><path d="M2.9,9.641,0,2.6c.841-.155,1.418-.286,2-.364,7.354-1,14.759-.763,22.15-.938C33.033,1.084,41.912.7,50.795.473c5.53-.143,11.065-.121,16.6-.2C71.8.2,76.213.085,80.623,0c1.606-.029,1.733.1,1.739,1.641.01,2.543,0,5.087,0,7.438-.2.228-.24.277-.284.32s-.09.107-.142.114a8.633,8.633,0,0,1-1.1.119C54.911,9.641,28.988,9.641,2.9,9.641Z" transform="translate(184.442 546.015)" fill="#8c757e"/><path d="M.075,12.283c-.416-3.427,1.047-6.517.6-9.846.675-.1,1.143-.2,1.616-.22,1.49-.055,2.987-.008,4.472-.122,3.65-.284,7.288-.8,10.941-.923,5.211-.179,10.431-.062,15.646-.13C38.51.974,43.673.961,48.82.679,51.973.506,55.1-.115,58.283.019c.913.038,1.829.006,2.926.006V12.054c-1.22.1-2.257.251-3.294.253q-28.065.045-56.13.055C1.294,12.364.8,12.319.075,12.283Z" transform="translate(280.669 543.301)" fill="#8c757e"/><path d="M0,11.462C.26,7.648.506,4.026.758.341,1.969-.043,56.986-.162,59.77.3c0,1.8.1,3.649-.027,5.482-.119,1.77-.462,3.524-.734,5.476-.754.054-1.407.141-2.06.141-10.807-.014-21.614-.084-32.421-.046-7.329.026-14.656.206-21.985.3C1.761,11.658.978,11.537,0,11.462Z" transform="translate(30.138)" fill="#8c757e"/><path d="M38.68,16.489c-.882.22-37.228-.8-38.295-1.1C.259,10.5.131,5.566,0,.479.875.433,1.477.376,2.079.371Q17.448.261,32.817.156C34.368.143,35.919.016,37.471,0c1.1-.011,1.388.244,1.387,1.262,0,5.027-.039,10.055-.068,15.083C38.79,16.393,38.718,16.44,38.68,16.489Z" transform="translate(11.768 280.935)" fill="#8c757e"/><path d="M79.673.708c.219,2.021,2.28,3.025,2.245,5.237a12.5,12.5,0,0,1-1.393.208c-1.365.053-2.733.1-4.1.09a112.786,112.786,0,0,0-11.687.728c-2.222.21-4.465.188-6.7.272-6.389.239-12.777.512-19.167.708-5.462.168-10.927.218-16.39.38-2.543.076-5.08.336-7.622.44-4.53.185-9.063.32-13.595.457a4.226,4.226,0,0,1-.994-.247C.171,6.6,0,4.255,0,1.911,0,.318.473-.051,2.05.005,4.469.092,6.885.274,9.3.345,11.35.405,13.4.359,15.446.37q7.536.044,15.073.1Q52.975.59,75.431.707C76.786.714,78.143.708,79.673.708Z" transform="translate(99.518 0.067)" fill="#8c757e"/><path d="M0,6.141c2.149-.4,4.218-.732,6.265-1.168,1.312-.28,2.6-.682,3.884-1.074,1.594-.484,3.155-1.086,4.764-1.507A8.375,8.375,0,0,0,18.833.381c.176-.172.519-.17,1.233-.381-.883,1.9-1.61,3.427-2.305,4.971a5.088,5.088,0,0,0-.521,1.552A2.618,2.618,0,0,1,16.621,8.4c-.226.221-.2.688-.316,1.033-.207.623-.428,1.241-.655,1.857-.042.112-.174.193-.208.306-.86,2.875-2.551,5.422-3.251,8.372a20.269,20.269,0,0,1-1.311,3.2c-.558,1.295-1.113,2.592-1.705,3.872a17.4,17.4,0,0,0-1.019,1.945c-.363,1.158-1.361,2.142-1.02,3.5-1.114,1.133-.733,2.935-1.89,4.1a4.468,4.468,0,0,0-1.03,2.161,30.482,30.482,0,0,1-2.784,6.772,6.147,6.147,0,0,0-.4,1.6c-.1.563-.078.564-1.034,1.294Z" transform="translate(166.119 373.756)" fill="#8c757e"/><path d="M0,46.429a8.239,8.239,0,0,1,.622-2.12,10.846,10.846,0,0,0,1.585-3.7,28.486,28.486,0,0,1,1.575-4.47c.688-1.642,1.655-3.181,2.205-4.861a15.731,15.731,0,0,1,1.158-3.416,29.5,29.5,0,0,0,1.264-2.824A31.687,31.687,0,0,0,10.365,19.8c.177-.674.837-1.209,1.089-1.879.712-1.892,1.314-3.825,1.993-5.73a8.316,8.316,0,0,1,.6-.924,8.844,8.844,0,0,0,1.321-3.4A8.616,8.616,0,0,1,16.884,4.6c.7-1.169,1.537-2.233,1.507-3.713C18.384.57,18.827.243,19.406,0c.043.844.132,1.687.123,2.53q-.192,17.264-.406,34.528c-.011.933.053,1.868.029,2.8-.042,1.631-.493,2.112-2.081,2.275a8.166,8.166,0,0,1-1.3.033c-2.611-.154-4.959.747-7.323,1.7-1.074.43-2.279.521-3.4.86C3.521,45.187,2.021,45.741,0,46.429Z" transform="translate(181.016 133.666)" fill="#8c757e"/><path d="M36.286.021c1.613,3.075,1.4,6.179,1.4,9.257,0,.857-.5,1-1.212,1.018-5.033.164-10.065.387-15.1.515-5.532.142-11.066.194-16.6.307-.992.021-1.98.157-2.972.212C.74,11.389.093,11.04.064,10.1-.028,7.126.007,4.146.005,1.168c0-.1.133-.2.331-.483.548,0,1.223,0,1.9,0C8.2.641,14.174.65,20.142.534,23.867.46,27.588.173,31.313.033,33.038-.034,34.766.021,36.286.021Z" transform="translate(203.591 487.805)" fill="#8c757e"/><path d="M36.368.015a40.269,40.269,0,0,1,1.253,4.939,42.459,42.459,0,0,1,.046,5.1,2.661,2.661,0,0,1-.791.274q-14.529.465-29.059.89c-2.158.061-4.32.009-6.656.009-.083-1.5-.167-2.849-.228-4.2a4.729,4.729,0,0,0-.627-2.86,1.963,1.963,0,0,1-.232-.886C-.161,1.563.1,1.21,1.848.992A19.483,19.483,0,0,1,4.08.9C9.611.844,15.145.882,20.674.731,25.08.611,29.479.255,33.883.022,34.739-.023,35.6.015,36.368.015Z" transform="translate(126.337 54.939)" fill="#8c757e"/><path d="M0,6.845C.325,4.815.64,2.8.976.783A.9.9,0,0,1,2.071.009C4.4.279,6.756,0,9.077.759a15.06,15.06,0,0,0,4.427.3,3.311,3.311,0,0,1,2.607.664,1.85,1.85,0,0,0,1.2.4,14.321,14.321,0,0,1,2.6.638c2.8.505,5.249,2,8.058,2.519a30.944,30.944,0,0,1,6.585,2.277A50.775,50.775,0,0,0,39.6,9.269c1.009.316,1.255.654.924,1.591-.653,1.852-1.324,3.7-2.026,5.648a6.413,6.413,0,0,1-1.266-.012c-3.015-.627-6.139-.911-8.8-2.706a1.414,1.414,0,0,0-.859-.288c-2.043.263-3.887-.585-5.79-1.038-.932-.222-1.752-.883-2.675-1.187-1.819-.6-3.661-1.139-5.518-1.608-1.969-.5-3.962-.9-5.951-1.313C5.168,7.848,2.69,7.376,0,6.845Z" transform="translate(182.315 342.145)" fill="#8c757e"/><path d="M46.735.042V7.225H.314a30.833,30.833,0,0,1-.277-6.04C15.651.418,31.083-.165,46.735.042Z" transform="translate(87.849 548.345)" fill="#8c757e"/><path d="M39.713,9.7a16.341,16.341,0,0,1-.558,5.181c-.386,1.891-1.333,2.325-3.127,1.543a11.942,11.942,0,0,0-2.627-.8c-2.068-.374-4.154-.641-6.228-.984-.355-.059-.671-.328-1.026-.414-.893-.219-1.8-.391-2.7-.578-.058-.013-.129.028-.185.011-1.854-.523-3.717-1.016-5.555-1.589-1.177-.368-2.291-.962-3.482-1.259-1.785-.448-3.63-.655-5.418-1.094A23.566,23.566,0,0,1,4.253,8.236,5.958,5.958,0,0,0,1.042,7.58,6.078,6.078,0,0,1,0,7.469c.939-2.114.894-4.4,2.167-6.308C2.919.033,3.045-.2,4.382.15,6.535.716,8.66,1.384,10.8,2.006a3.563,3.563,0,0,0,.894.238,17.91,17.91,0,0,1,3.779.808c3.493.816,6.79,2.278,10.262,3.056,1.772.4,3.25,1.414,5.024,1.716,2.682.456,5.341,1.058,8.008,1.6C39.057,9.488,39.342,9.589,39.713,9.7Z" transform="translate(146.789 196.74)" fill="#8c757e"/><path d="M0,6.535V0H45.415V6.224c-7.481.415-15.036.2-22.582.291S7.712,6.535,0,6.535Z" transform="translate(232.099 0.958)" fill="#8c757e"/><path d="M25.23,10.979c-1.814,0-3.539.032-5.263-.007q-9.229-.208-18.458-.461C.154,10.476.057,10.348.044,8.975.019,6.424-.007,3.873,0,1.323A7.151,7.151,0,0,1,.24,0C5.815.06,11.214.05,16.609.21c2.662.08,5.315.48,7.973.724.776.072,1.3.322,1.256,1.245-.141,2.732-.248,5.467-.387,8.2A1.944,1.944,0,0,1,25.23,10.979Z" transform="translate(326.273 245.634)" fill="#8c757e"/><path d="M23.688,11.392c-.651.046-1.189.125-1.725.115q-7.351-.136-14.7-.3c-1.983-.046-3.965-.169-5.948-.217C.5,10.968,0,10.689,0,9.808,0,6.653,0,3.5,0,.21A12.288,12.288,0,0,1,1.579,0q8.933.086,17.866.216A18.348,18.348,0,0,1,22.214.5c1.354.229,1.51.413,1.528,1.833.02,1.552-.041,3.1-.052,4.657C23.68,8.407,23.688,9.822,23.688,11.392Z" transform="translate(300.698 244.571)" fill="#8c757e"/><path d="M0,10.522V.34C2.353-.4,20.649.17,24.347,1.129v9.922c-1.275.316-1.275.316-2.063-1.557-.269,2-1.509,2.11-2.951,1.992-4.259-.347-8.518-.7-12.784-.944C4.452,10.421,2.342,10.522,0,10.522Z" transform="translate(44.191 299.563)" fill="#8c757e"/><path d="M0,16.43c0-2.749-.006-5.221,0-7.692A1.417,1.417,0,0,1,1.244,7.319c1.911-.5,3.821-1,5.738-1.466a63.534,63.534,0,0,0,7.89-1.99c1.427-.553,2.886-.512,4.177-.95,2-.678,4.106-.766,6.05-1.523C26.17.973,27.213.483,28.327,0c.1.176.32.381.326.591a19.889,19.889,0,0,1-.6,6.822,8.525,8.525,0,0,0-.284.883c-.376,1.809-.387,1.723-2.288,2.08-2.368.446-4.705,1.052-7.056,1.587a7.039,7.039,0,0,0-3.442,1.247c-.222.2-.717.126-1.085.117a4.821,4.821,0,0,0-3.371.762,1.309,1.309,0,0,1-.871.261c-2.1-.209-4.021.658-6.021,1.026a16.5,16.5,0,0,0-1.559.56C1.464,16.117.834,16.236,0,16.43Z" transform="translate(229.8 390.058)" fill="#8c757e"/><path d="M0,9.886C0,7.761,0,5.964.007,4.167A2.208,2.208,0,0,1,.142,3.44C.536,2.358.951,1.283,1.435,0L25.3.625c.331,3.33.077,6.644.146,10.172C16.863,11.384,8.532,9.715,0,9.886Z" transform="translate(16.817 299.007)" fill="#8c757e"/><path d="M31.688,12.37c-.369.823-.694,1.465-.948,2.132-.523,1.379-.994,2.779-1.515,4.159a1.159,1.159,0,0,1-1.951.552c-1.24-1.108-2.918-1.329-4.2-2.437-.941-.812-2.486-.928-3.765-1.344-.287-.093-.653-.056-.874-.222-3.033-2.279-6.568-3.531-9.979-5.065A14.442,14.442,0,0,1,4.584,8.167C3.373,7.126,1.674,6.655,0,5.841c1.021-1.719,2.035-3.4,3.018-5.1C3.557-.184,4.319-.12,5.1.268q4.237,2.1,8.443,4.269c2.616,1.356,5.147,2.868,8.072,3.554a8.327,8.327,0,0,1,2.636,1.328,11.65,11.65,0,0,0,4.59,1.885A17.462,17.462,0,0,1,31.688,12.37Z" transform="translate(107.998 204.199)" fill="#8c757e"/><path d="M28.226,8.182c-4.15.473-8.163.853-12.151,1.409-3.056.427-6.174.546-9.121,1.638a5.676,5.676,0,0,1-1.839.208c-1.607.027-3.214.009-5.052.009,0-.218-.157-.72.027-.973C.971,9.26.867,7.9.865,6.534c0-1.881.474-2.313,2.419-2.5A22.308,22.308,0,0,0,6.158,3.4a12.8,12.8,0,0,1,1.256-.331c2.4-.314,4.794-.6,7.19-.9a2.562,2.562,0,0,0,1.248-.3C17.141.777,18.634,1,20.119,1.016a12.775,12.775,0,0,0,4.33-.77c1.434-.483,3.158-.106,5-.106C29.041,2.817,28.648,5.4,28.226,8.182Z" transform="translate(108.203 150.262)" fill="#8c757e"/><path d="M0,6.09,1.785,0A15.349,15.349,0,0,1,5.17,1.223c1.544.963,3.254,1.657,4.89,2.474S13.355,5.354,15,6.182c2.233,1.123,4.371,2.592,6.734,3.244C23.293,9.857,24.6,11,26.4,10.888c1.021-.065,2.1.726,3.31,1.193-.258.583-.545,1.308-.893,2-.6,1.206-1.3,2.368-1.856,3.6s-.956,1.413-2.291.912a104.851,104.851,0,0,1-10.584-5.215c-3.455-1.761-7.011-3.324-10.484-5.051C2.354,7.7,1.216,6.853,0,6.09Z" transform="translate(230.454 333.498)" fill="#8c757e"/><path d="M2.377,55.26,0,55.117c0-.971,0-1.764,0-2.556.042-6.149.078-12.3.139-18.446A9.025,9.025,0,0,1,.392,31.9a28.15,28.15,0,0,0,.624-7.035c.027-2.485.153-4.969.241-7.453a2.186,2.186,0,0,1,.091-.738c1.035-2.5.738-5.126.817-7.725a15.622,15.622,0,0,1,.543-2.49,18.6,18.6,0,0,0,.529-3.09A5.123,5.123,0,0,1,4.335,0c.036.577.107,1.054.091,1.529a107.5,107.5,0,0,0,.608,12.643,39.879,39.879,0,0,1-.273,5.008c-.153,3.413-.257,6.828-.416,10.241-.121,2.6-.307,5.2-.444,7.8-.205,3.907-.392,7.818-.588,11.727-.015.31.059.683-.087.917C2.245,51.437,2.5,53.214,2.377,55.26Z" transform="translate(126.223 81.016)" fill="#8c757e"/><path d="M5.311,0c.051.632.146,1.224.14,1.813-.059,6.028-.141,12.053-.2,18.081-.012,1.24.033,2.482.081,3.723A3.075,3.075,0,0,1,4.6,26.181c-.357.364-.351,1.156-.38,1.761-.1,2.17-.051,4.353-.247,6.513-.4,4.434-.55,8.9-1.5,13.275-.532,2.455-.937,4.937-1.424,7.535C.1,54.932.123,54.246.11,53.6.069,51.676.027,49.752.019,47.826Q-.008,41.584,0,35.342c0-1.428.063-2.856.1-4.284a1.951,1.951,0,0,1,.062-.738c1.3-2.78.76-5.728.8-8.621.018-1.227-.21-2.482.8-3.52.247-.254.215-.817.24-1.243A9.643,9.643,0,0,1,2.8,12.81c.473-.915.213-2.193.358-3.3.119-.9.434-1.783.515-2.687.155-1.719.249-3.447.279-5.173C3.969.78,3.968.036,5.311,0Z" transform="translate(234.899 420.108)" fill="#8c757e"/><path d="M.292,0a4.836,4.836,0,0,1,.777,1.6A11.53,11.53,0,0,0,2.06,4.942c.8,2.114,1.332,4.33,2.021,6.487.373,1.168.83,2.309,1.27,3.454q.987,2.569,2.007,5.125a3.859,3.859,0,0,0,.513.979,20.387,20.387,0,0,1,2.3,4.761,27.134,27.134,0,0,1,.98,3.337c.355,1.215.723,2.426,1.126,3.771a31.208,31.208,0,0,1-5.865.111c-.9-.02-1.16-.746-1.278-1.562a50.073,50.073,0,0,0-1.293-7.832c-1.014-3.218-1.051-6.557-1.781-9.8-.5-2.229-.68-4.53-1-6.8-.035-.245.012-.551-.118-.726C-.467,4.377.059,2.23.292,0Z" transform="translate(172.004 522.672)" fill="#8c757e"/><path d="M10.7,28.7c-.062-2.314-1.466-4.16-1.916-6.407a14.99,14.99,0,0,0-2.136-5.817,20.023,20.023,0,0,1-1.773-4.188c-.679-1.724-.715-3.7-2.117-5.208a9.887,9.887,0,0,1-1.5-3.153C.818,2.8.474,1.627,0,.22,1.127.143,2.2.059,3.271,0A7.722,7.722,0,0,1,4.2.07C6.9.252,6.9.28,7.227,2.909c.274,2.207.615,4.406.931,6.608a1.552,1.552,0,0,0,.174.716c1.387,1.728.868,3.778.966,5.712a3.362,3.362,0,0,0,.567,2.272,2.265,2.265,0,0,1,.319,1.214c.228,2.71-.014,5.473,1.015,8.091.124.315-.062.752-.1,1.133Z" transform="translate(182.204 0.7)" fill="#8c757e"/><path d="M.121,0H3.549c0,1.226.023,2.319,0,3.412-.05,1.985-.131,3.97-.2,5.955a4.414,4.414,0,0,1-.05,1.113c-1.174,3.81-1,7.7-.77,11.6.088,1.483.011,2.978-.018,4.466a1.475,1.475,0,0,1-.222.877,4.8,4.8,0,0,0-.813,3.361c-.035,2.476-.011,4.953-.159,7.443A24.051,24.051,0,0,1,.119,31.323C.114,21.142.043,10.961,0,.781A6.479,6.479,0,0,1,.121,0Z" transform="translate(326.097 1.051)" fill="#8c757e"/><path d="M3.24,34.273H.044a19.839,19.839,0,0,1,.018-2.761,119.011,119.011,0,0,0,.987-14.848c.025-1.28.41-2.549.545-3.833A41.783,41.783,0,0,0,2.054,6.9,22.037,22.037,0,0,1,3.24,0Z" transform="translate(38.081 521.336)" fill="#8c757e"/><path d="M5.476,0c.455,1.592.458,18.957.032,20.621L0,19.881a46.1,46.1,0,0,0,1.764-6.764c.248-1.558.722-3.1.958-4.7A11.805,11.805,0,0,1,4.044,4.8a4.386,4.386,0,0,0,.479-2.865A1.594,1.594,0,0,1,5.476,0Z" transform="translate(45.59 240.053)" fill="#8c757e"/><path d="M2.912,0V41.114a2.317,2.317,0,0,1-.617.094c-.721-.121-1.438-.272-2.3-.44a7.666,7.666,0,0,1,.1-1.682C.837,36.6.675,34.042.747,31.5a49.4,49.4,0,0,1,.266-6.876C2.087,18.344,1.563,11.994,2.071,5.7c.153-1.9.427-3.8.646-5.695Z" transform="translate(353.823 215.72)" fill="#8c757e"/><path d="M1.007,17.591c0-1.792.087-3.591-.03-5.377A27.142,27.142,0,0,0,.291,8.6,6.067,6.067,0,0,1,.016,7.527C-.009,5.115,0,2.7,0,0,1.12.282,2.025.568,2.953.729,3.91.9,4.888.942,5.925,1.046a82.289,82.289,0,0,1-2.339,8.79,34.6,34.6,0,0,0-1.318,5.147c-.063.485.121,1.011.016,1.478a5.643,5.643,0,0,1-.659,1.294Z" transform="translate(316.066 293.562)" fill="#8c757e"/><path d="M1.106,23.278a15.313,15.313,0,0,1-1.048-6.8C.118,11.319.027,6.16,0,1,0,.818.028.635.062.226a7.042,7.042,0,0,1,4.6.342c-1.5,1.2-1.424,2.675-1.41,4.157A7.337,7.337,0,0,1,3,6.57a35.376,35.376,0,0,0-.651,8.518A7.347,7.347,0,0,1,2.277,16.2C1.891,18.583,1.491,20.964,1.106,23.278Z" transform="translate(343.377 0.902)" fill="#8c757e"/><path d="M3.485,22.452H0c.682-2.488-.057-4.915,1.054-7.227a10.13,10.13,0,0,0,.4-3.117c.212-1.841.472-3.678.632-5.523.139-1.6.164-3.218.248-4.828C2.363,1.11,2.263.4,3.023,0,3.66,1.37,4.01,19.031,3.485,22.452Z" transform="translate(20.453 533.088)" fill="#8c757e"/><path d="M0,0A2.065,2.065,0,0,1,1.38,2.367c.01,3.108.005,6.216.081,9.322a10.437,10.437,0,0,0,.516,2.1,6.948,6.948,0,0,1,.293,1.432c.071,2.983.132,5.966.136,8.949a3.634,3.634,0,0,1-.842,2.948,10.638,10.638,0,0,1-1.534-6.38C.143,15.328.025,9.916,0,4.508,0,3.094,0,1.68,0,0Z" transform="translate(160.754 79.047)" fill="#8c757e"/><path d="M0,12.685V0L2.936.168a3.178,3.178,0,0,1-.368,3.363c-.755,1.011-.88,2.522-1.182,3.836-.411,1.789-.725,3.6-1.081,5.4Z" transform="translate(344.476 297.677)" fill="#8c757e"/><path d="M2.329,10.324c-.58,0-1,.028-1.422-.006A.865.865,0,0,1,.022,9.19Q.243,7.816.474,6.445c.193-1.157.449-2.307.567-3.472A5.609,5.609,0,0,1,2.329,0Z" transform="translate(21.695 246.656)" fill="#8c757e"/><path d="M0,8.5V0C.757,2.818.4,5.656.447,8.487Z" transform="translate(323.256 1.535)" fill="#8c757e"/><path d="M.269,0a2.35,2.35,0,0,1,.766,2.658C-.15,1.944-.184,1.84.269,0Z" transform="translate(171.057 517.954)" fill="#8c757e"/><path d="M.22,2.021C.131,1.442-.377.89.543,0,.5.874.486,1.379.449,1.883.446,1.928.317,1.964.22,2.021Z" transform="translate(229.254 0.962)" fill="#8c757e"/><path d="M.076,0V1.315L0,1.312V0Z" transform="translate(162.04 109.285)" fill="#8c757e"/><path d="M.05,0,.881.135.839.421,0,.318Q.025.16.05,0Z" transform="translate(12.366 258.256)" fill="#8c757e"/><path d="M.693.267.431.729A1.761,1.761,0,0,1,0,.35C-.027.3.159.03.279,0,.382-.021.531.156.693.267Z" transform="translate(182.632 260.588)" fill="#8c757e"/><path d="M.141,0V.841L.058.849C.039.569.019.287,0,.006Z" transform="translate(231.415 115.73)" fill="#8c757e"/><path d="M0,0H.678l0,.044H0Z" transform="translate(3.683 0.606)" fill="#8c757e"/><path d="M0,6.664.977,3.494a9.792,9.792,0,0,1,1.32-.13,14.691,14.691,0,0,0,7.627-1.9,3,3,0,0,1,1.257-.178c1.241-.043,2.483-.037,3.723-.09A2.273,2.273,0,0,0,16.147.941C17.179.113,18.322.257,19.515.265,21.3.277,23.081.1,24.992,0c.569,1.073-.25,2.09-.626,3.149-.069.193-.509.318-.794.361-2.453.365-4.91.7-7.365,1.05-.306.043-.715-.01-.9.166-1.355,1.313-3.022.946-4.593.835a7.687,7.687,0,0,0-3.808.627,8.029,8.029,0,0,1-1.225.429,2.921,2.921,0,0,1-.741.044C3.349,6.667,1.757,6.664,0,6.664Z" transform="translate(154.04 130.684)" fill="#8c757e"/><path d="M1.186,0a45.8,45.8,0,0,0,.5,4.582,59.215,59.215,0,0,1,.572,7.6c.073,1.087.594,2.143.678,3.231.147,1.9.551,3.948.037,5.693a24.345,24.345,0,0,0-.77,5.454c-.083,1.276-.278,2.545-.422,3.817l-.415.018a3.827,3.827,0,0,1-.277-.895c-.11-1.923-.122-3.854-.294-5.77s-.631-3.795-.714-5.7c-.119-2.728-.1-5.47.03-8.2C.2,7.791.555,5.766.785,3.735.943,2.334,1.086.931,1.186,0Z" transform="translate(203.436 444.104)" fill="#8c757e"/><path d="M.892,4.691c1.063-.274,2.194-.572,3.329-.856,1.062-.267,2.2-.215,3.1-1.1.311-.305,1.053-.262,1.589-.23a6.807,6.807,0,0,0,4.143-.71,4.1,4.1,0,0,1,1.81-.247c1.73-.085,3.49.049,5.092-.828a1.586,1.586,0,0,1,.54-.126C21.928.4,23.366.2,24.878,0L22.86,4.458q-3.964.586-7.906,1.171c-.429.064-.977.02-1.26.267-1.43,1.25-3.14.885-4.775.947a3.406,3.406,0,0,0-2.6.764A1.585,1.585,0,0,1,5.3,7.951c-1.719.034-3.44.016-5.3.016Z" transform="translate(188.574 415.864)" fill="#8c757e"/></g></g></svg>