<svg xmlns="http://www.w3.org/2000/svg" width="256" height="179.001" viewBox="0 0 256 179.001">
  <g id="Grupo_60926" data-name="Grupo 60926" transform="translate(-1847.615 -1491.72)">
    <rect id="Rectángulo_7440" data-name="Rectángulo 7440" width="256" height="179" rx="9" transform="translate(1847.615 1491.722)" fill="#fff"/>
    <path id="Trazado_116760" data-name="Trazado 116760" d="M1895.652,1492.288c-3.959,1.394-5.653,6.038-8.9,8.7a20.827,20.827,0,0,1-6.97,3.264l-16.066,5.211c-1.89.613-3.869,1.282-5.208,2.749-1.643,1.8-1.976,4.4-2.232,6.822-1.722,16.256-3.442,32.684-1.42,48.906.878,7.034-1.14,14.17-1.3,21.257-.1,4.592-.159,9.186-.034,13.777.225,8.283,1.042,16.543,1.175,24.827a135.275,135.275,0,0,1-.456,13.774l1.691.049c4.618.132,9.565.814,14.171,1.169a.913.913,0,0,1,1.014,1.207l-.322,4.963a8.553,8.553,0,0,0,.359,3.935c1.27,2.971,5.182,3.5,8.412,3.592l20.175.572a19.862,19.862,0,0,0,4.007-.156,10.058,10.058,0,0,0,6.672-4.476c1.415,2.128,4.205,3.256,6.69,3.85a27.024,27.024,0,0,0,7.629.407A148.512,148.512,0,0,0,1946,1654.08c-.253-3.383-.7-7.445-.648-10.836a42.362,42.362,0,0,0,18.992-.537c.3-.079.69-.309.571-.6a9.893,9.893,0,0,1-.358-4.462c.352-2.886.45-6.186.664-9.085.864-11.749.082-23.574-.534-35.338-.431-8.228-1.94-16.071-2.062-24.309-.141-9.584.974-19.141,1.28-28.721s-.233-19.36-3.543-28.356a3.632,3.632,0,0,0-1.19-1.862c-7.222-4.857-16.663-6.2-25.077-8.425a18.528,18.528,0,0,1-4.553-1.621c-3.278-1.879-5.069-5.652-8.227-7.727a2.143,2.143,0,0,0-1.3-.189l-23.674.014c-.21,0-.485-.054-.509-.263S1895.85,1492.219,1895.652,1492.288Z" fill="#8c757e" opacity="0.26" style="isolation: isolate"/>
    <path id="Trazado_116761" data-name="Trazado 116761" d="M1868.215,1663.187a1.353,1.353,0,0,1-.618-.549c-.178-.4.089-.853.31-1.237a6.876,6.876,0,0,0,.906-3.12,17.28,17.28,0,0,1,.077-2.637,8.32,8.32,0,0,1,2.055-3.44,10.515,10.515,0,0,1-.147-3.24q.161-2.481.322-4.962a.914.914,0,0,0-1.014-1.209c-4.606-.354-9.553-1.036-14.171-1.168l-.181-.005c-1.021,2.9-.752,7.688-.627,9.773a14.072,14.072,0,0,0,.633,3.716,48.677,48.677,0,0,0,2.255,4.55,23.537,23.537,0,0,0,2.079,4.36c1.761,2.361,4.861,3.2,7.725,3.889l3.141.756a1.674,1.674,0,0,0,1.44-.1c.647-.521.189-1.564-.353-2.194A15.09,15.09,0,0,0,1868.215,1663.187Z" fill="#ffa780"/>
    <g id="Grupo_60971" data-name="Grupo 60971">
      <g id="Grupo_60970" data-name="Grupo 60970">
        <g id="Grupo_60968" data-name="Grupo 60968">
          <path id="Trazado_116762" data-name="Trazado 116762" d="M1945.777,1651.362l0-.026h0Z" fill="#36b1bf"/>
        </g>
        <g id="Grupo_60969" data-name="Grupo 60969">
          <path id="Trazado_116763" data-name="Trazado 116763" d="M1876.072,1670.134h30.865a9.88,9.88,0,0,0,.8-2.948q.755-4.874,1.511-9.749c.033-.214.116-.479.331-.5.25-.028.377.289.419.537.545,3.216,2.071,8.528,3.045,12.663h32.927c.1-4.3.124-9.678.351-12.367a10.8,10.8,0,0,1-.48-1.027c-.332-.815-.66-1.633-.954-2.463a148.311,148.311,0,0,1-20.149,2.411,27.024,27.024,0,0,1-7.629-.407c-2.485-.594-5.275-1.722-6.69-3.85a10.058,10.058,0,0,1-6.673,4.476,19.849,19.849,0,0,1-4.006.156l-20.175-.572a14.194,14.194,0,0,1-6.235-1.283c.08,1.258.162,2.513.324,3.769a55.235,55.235,0,0,0,2.243,9.978C1875.938,1669.07,1876,1669.555,1876.072,1670.134Z" fill="#36b1bf"/>
        </g>
      </g>
    </g>
    <path id="Trazado_116764" data-name="Trazado 116764" d="M1962.029,1643.241a42.406,42.406,0,0,1-16.678,0c-.055,3.391.4,7.453.648,10.836-.368.072-.739.127-1.108.2.294.83.622,1.648.954,2.463a6.686,6.686,0,0,0,.832,1.606,3.3,3.3,0,0,1,.475.668c.339.777-.214,1.877.425,2.435.461.4,1.226.18,1.737.518.827.546.259,1.872-.522,2.481s-1.823,1.2-1.846,2.188a1.806,1.806,0,0,0,1.847,1.617,5.1,5.1,0,0,0,2.546-.881,24.749,24.749,0,0,0,6.743-5.046c3.775-4.381,4.416-10.623,4.231-16.4A14.849,14.849,0,0,0,1962.029,1643.241Z" fill="#ffa780"/>
    <path id="Trazado_116765" data-name="Trazado 116765" d="M1939.8,1505.332a144.132,144.132,0,0,1,1.616,21.434,20.136,20.136,0,0,0-10.678-2.152l3.966,3.171a11.911,11.911,0,0,1,2.254,2.15c1.973,2.681,1.355,6.544-.319,9.422s-4.222,5.128-6.265,7.756a46.422,46.422,0,0,0-3.793,5.982,195.965,195.965,0,0,0-12.279,26.528" fill="none" stroke="#8c757e" stroke-miterlimit="10" stroke-width="0.5"/>
    <path id="Trazado_116766" data-name="Trazado 116766" d="M1882.53,1506.561l-4.655,13.413a1.368,1.368,0,0,0,1.155,2.107l6.143,1.908a47.571,47.571,0,0,0-9.349,8.094c5.452,2.276,8.265,8.2,10.6,13.629l8.794,20.484" fill="none" stroke="#8c757e" stroke-miterlimit="10" stroke-width="0.5"/>
    <path id="Trazado_116767" data-name="Trazado 116767" d="M1872.969,1551.309a42.439,42.439,0,0,1,2.811,19.3,108.517,108.517,0,0,1-3.5,19.339c-.868,3.456-1.773,6.9-2.665,10.352-1.537,5.943-3.027,12.292-1.079,18.113" fill="none" stroke="#8c757e" stroke-miterlimit="10" stroke-width="0.5"/>
    <path id="Trazado_116768" data-name="Trazado 116768" d="M1865.951,1525.151a38.37,38.37,0,0,1,3.386,20.405" fill="none" stroke="#8c757e" stroke-miterlimit="10" stroke-width="0.5"/>
    <path id="Trazado_116769" data-name="Trazado 116769" d="M1860.053,1516.621a15.518,15.518,0,0,0-1.227,7.3c.174,7.436,2.243,14.675,3.8,21.948s2.606,14.893.753,22.1" fill="none" stroke="#8c757e" stroke-miterlimit="10" stroke-width="0.5"/>
    <path id="Trazado_116770" data-name="Trazado 116770" d="M1955.411,1518.955c-1.733,9.942-3.588,19.9-6.7,29.5-2.69,8.291-6.364,16.648-5.62,25.332.233,2.721.9,5.384,1.36,8.076.562,3.283.817,6.609,1.071,9.93l1.934,25.271a25.311,25.311,0,0,1-.108,6.941c-.35,1.73-1.057,3.363-1.578,5.049a24.254,24.254,0,0,0-.488,12.4" fill="none" stroke="#8c757e" stroke-miterlimit="10" stroke-width="0.5"/>
    <path id="Trazado_116771" data-name="Trazado 116771" d="M1914.277,1608.41a76.965,76.965,0,0,1,.75,12.654,112.468,112.468,0,0,1-1.964,13.155,121.2,121.2,0,0,0-1.716,18.611" fill="none" stroke="#8c757e" stroke-miterlimit="10" stroke-width="0.5"/>
    <path id="Trazado_116772" data-name="Trazado 116772" d="M1869.459,1622.116a131.059,131.059,0,0,1,1.722,13.749c.164,2.27.232,4.7-.93,6.653" fill="none" stroke="#8c757e" stroke-miterlimit="10" stroke-width="0.5"/>
    <path id="Trazado_116773" data-name="Trazado 116773" d="M1923.533,1516.621c1.139-3.762,3.169-14.162.555-21.939a15.048,15.048,0,0,0-2.774-2.482,2.035,2.035,0,0,0-1.193-.478c-7.891,0-16.3-.005-24.189,0-.152,0,.073.273-.028.179a42.193,42.193,0,0,0-.69,10.014c.447,6.059,8.324,54.735,9.536,58.774,1.185,3.952,6.49,17.346,6.595,18.411.093-1.061,1.863-13.627,3.734-17.8C1917.07,1556.852,1922.321,1520.623,1923.533,1516.621Z" fill="#ffa780"/>
    <path id="Trazado_116774" data-name="Trazado 116774" d="M1899.151,1528.682c2.328,14.52,4.942,29.818,5.6,32.007,1.185,3.952,6.49,17.346,6.595,18.411.093-1.061,1.863-13.627,3.734-17.8,1.311-2.926,4.037-19.64,6.091-31.854Z" fill="#36b1bf"/>
    <g id="Grupo_60972" data-name="Grupo 60972">
      <path id="Trazado_116775" data-name="Trazado 116775" d="M1864.011,1645.909a14.22,14.22,0,0,1,.752,5.513c-.137,2.041-1.014,3.883-1.232,5.9a20.269,20.269,0,0,0-.067,2.654,3.36,3.36,0,0,0,.515,2.092c.8,1.01,2.316,1.027,3.484,1.02.228,0,.838-.343.326-.34-1.5.009-3.207-.241-3.489-2.005a12.874,12.874,0,0,1,.388-5.435,15.352,15.352,0,0,0,.095-9.6c-.068-.2-.834.025-.772.207Z" fill="#dd886b"/>
    </g>
    <g id="Grupo_60973" data-name="Grupo 60973">
      <path id="Trazado_116776" data-name="Trazado 116776" d="M1858.779,1657.579a52.852,52.852,0,0,1,3.559,5.933,5.338,5.338,0,0,0,1.664,2.207c.8.522,1.755.732,2.59,1.188.193.1.907-.189.623-.344a24.184,24.184,0,0,1-2.612-1.212,6.55,6.55,0,0,1-1.733-2.51,52.933,52.933,0,0,0-3.37-5.549c-.127-.184-.876.063-.721.287Z" fill="#dd886b"/>
    </g>
    <g id="Grupo_60974" data-name="Grupo 60974">
      <path id="Trazado_116777" data-name="Trazado 116777" d="M1949.737,1648.99a17.311,17.311,0,0,0,2.078,7.528c.576,1.077,1.047,2.213.347,3.356-.829,1.354-2.418,1.571-3.877,1.477-.2-.012-.892.341-.487.367a6.543,6.543,0,0,0,3.958-.766,3.018,3.018,0,0,0,1.529-2.878,6.476,6.476,0,0,0-.849-2.045,16.7,16.7,0,0,1-1.927-7.246c-.008-.188-.783-.05-.772.207Z" fill="#dd886b"/>
    </g>
    <g id="Grupo_60975" data-name="Grupo 60975">
      <path id="Trazado_116778" data-name="Trazado 116778" d="M1958.539,1651.125a84.259,84.259,0,0,1-1.982,8.881c-.831,2.572-2.525,5.434-5.392,6.02-.309.064-.68.41-.14.3a8.2,8.2,0,0,0,5.725-4.952,23.714,23.714,0,0,0,1.416-4.89q.573-2.745,1.136-5.49c.038-.184-.722-.065-.763.132Z" fill="#dd886b"/>
    </g>
    <g id="Grupo_60976" data-name="Grupo 60976">
      <path id="Trazado_116779" data-name="Trazado 116779" d="M1959.8,1656.473c-.891,3.386-3.192,6.1-5.427,8.7-.12.139.1.183.2.187a.7.7,0,0,0,.512-.2c2.257-2.624,4.585-5.38,5.484-8.8.062-.235-.706-.123-.768.112Z" fill="#dd886b"/>
    </g>
    <g id="Grupo_60983" data-name="Grupo 60983">
      <g id="Grupo_60977" data-name="Grupo 60977">
        <path id="Trazado_116780" data-name="Trazado 116780" d="M1914.193,1588.526c1.358,3.389.523,7.79.523,7.79l-2.732.213a18.7,18.7,0,0,1-.594,1.815l-2.712-.9.336-5.31s-5.3,1.011-6.441-.787a1.062,1.062,0,0,1,.564-1.695s.385-.078.995-.184c-.245-.9.773-1.241.773-1.241S1913.515,1586.835,1914.193,1588.526Z" fill="#dd886b"/>
      </g>
      <path id="Trazado_116781" data-name="Trazado 116781" d="M1918.119,1583.743c-.3-.4-.594-.8-.879-1.169-.184-.238-.364-.468-.534-.678a10.712,10.712,0,0,0-1.245-1.385.63.63,0,0,0-.134-.085c-.639-.241-1.5,1.058-1.3,2.37.221,1.452,2.228,4.144,2.228,4.144l-1.787,3.315a3.228,3.228,0,0,1-3.291,1.881c-2.275-.245-4.282-1.6-3.28-2.693,3.215-3.508,5.1-4.665,5.53-7.274.307-1.857-1.9-2.106-1.9-2.106a.657.657,0,0,1-.07.088,19.126,19.126,0,0,1-1.581,1.9,25.252,25.252,0,0,1-5.169,3.857c-4.208,2.752-6.238,4.438-8.9,8.132-1.737,2.406-32.182,14.442-48.187,20.648v17.989c17.323-9.077,52-27.207,53.044-27.436,4.036-.9,12.582-3.764,16.9-8.635,1.833-2.069,2.9-8.256,3.087-8.785C1920.745,1587.541,1919.458,1585.579,1918.119,1583.743Z" fill="#ffa780"/>
      <g id="Grupo_60978" data-name="Grupo 60978">
        <path id="Trazado_116782" data-name="Trazado 116782" d="M1916.846,1597.279s4.119-5.019,3.954-6.612-6.434-9.692-6.434-9.692-1.239-.117-1.254,1.828c-.017,2.36,3.072,8.281,3.072,8.281l-4.628,4.033Z" fill="#ffa780"/>
      </g>
      <g id="Grupo_60979" data-name="Grupo 60979">
        <rect id="Rectángulo_7654" data-name="Rectángulo 7654" width="5.226" height="0.177" transform="translate(1918.028 1593.892) rotate(-65.609)" fill="#dd886b"/>
      </g>
      <g id="Grupo_60980" data-name="Grupo 60980">
        <path id="Trazado_116783" data-name="Trazado 116783" d="M1914.153,1582.082a5.393,5.393,0,0,1,.126-1.126l.173.038c-.7,3.183,1.841,5.858,1.868,5.884l.041.043-.024.055a18.787,18.787,0,0,1-1.344,2.673l-.105-.142a18.133,18.133,0,0,0,1.264-2.549A7.838,7.838,0,0,1,1914.153,1582.082Z" fill="#dd886b"/>
      </g>
      <g id="Grupo_60981" data-name="Grupo 60981">
        <path id="Trazado_116784" data-name="Trazado 116784" d="M1915.468,1582.672a1.364,1.364,0,0,1-.007-2.161,10.643,10.643,0,0,1,1.245,1.385C1916.192,1582.227,1915.716,1582.521,1915.468,1582.672Z" fill="#f2d1c2"/>
      </g>
      <g id="Grupo_60982" data-name="Grupo 60982">
        <path id="Trazado_116785" data-name="Trazado 116785" d="M1911.1,1582.835a1.361,1.361,0,0,1-1.226-.786,19.126,19.126,0,0,0,1.581-1.9,1.364,1.364,0,0,1-.355,2.684Z" fill="#f2d1c2"/>
      </g>
    </g>
    <g id="Grupo_60986" data-name="Grupo 60986">
      <path id="Trazado_116786" data-name="Trazado 116786" d="M1913.322,1568.793a15.614,15.614,0,0,0,1.4-1.869c.158-.39-.783-1.457-.783-1.457a2.192,2.192,0,0,0,.8-1.468c.134-1-5.77-6.19-6.97-6.4-.912-.161-5.505.362-10.505,1.8-1.447.416-3.73,1.2-5.221,1.006-.117-.015-5.556,3.129-5.669,3.111-.889-.146-23.692,5.211-38.755,8.907v13.744c14.994-4.724,43.384-13.68,43.539-13.817.212-.192,4.96,3.645,10.092,5.04,2.266.615,4.725.8,7.012,1.447a19.235,19.235,0,0,1,2.326.832.67.67,0,0,1,.1.04s1.778-1.338.57-2.781c-1.7-2.025-2.8-1.54-7.1-2.891l-.221-.086a9.937,9.937,0,0,1-1.043-.544c-.1-.218.094-.739.362-1.289a2.46,2.46,0,0,1,2.719-1.338l4.329.92s2.365,4.169,2.737,4.76c.706,1.12,1.188,1.163,1.461,1.037a.845.845,0,0,0,.094-.051c.342-.243.459-.844.428-1.62A31.638,31.638,0,0,0,1913.322,1568.793Z" fill="#ffa780"/>
      <g id="Grupo_60984" data-name="Grupo 60984">
        <path id="Trazado_116787" data-name="Trazado 116787" d="M1914.6,1577.447c-.048.019-.08.027-.088.032a.853.853,0,0,1-.134-.134,1.364,1.364,0,0,1-.3-1.214l.955-.3C1915.061,1576.6,1914.944,1577.2,1914.6,1577.447Z" fill="#f2d1c2"/>
      </g>
      <path id="Trazado_116788" data-name="Trazado 116788" d="M1913.37,1568.693c-.388-.647-6.037-3.031-6.28-3.135a2.448,2.448,0,0,0-.238.14s6.127,2.681,6.387,3.115A.78.78,0,0,0,1913.37,1568.693Z" fill="#dd886b"/>
      <path id="Trazado_116789" data-name="Trazado 116789" d="M1913.994,1565.419c.009-.01-5.393-4.722-5.393-4.722l-.109.2,5.39,4.632C1913.891,1565.536,1913.994,1565.419,1913.994,1565.419Z" fill="#dd886b"/>
      <g id="Grupo_60985" data-name="Grupo 60985">
        <path id="Trazado_116790" data-name="Trazado 116790" d="M1908.915,1577.539a1.362,1.362,0,0,0-.657,1.3,19.3,19.3,0,0,1,2.326.832,1.364,1.364,0,0,0-1.669-2.131Z" fill="#f2d1c2"/>
      </g>
    </g>
    <g id="Grupo_60987" data-name="Grupo 60987" opacity="0.82">
      <path id="Trazado_116791" data-name="Trazado 116791" d="M1983.322,1502.232v3.383h3.91v-3.383h1.055v8.084h-1.055v-3.79h-3.91v3.79h-1.044v-8.084Z"/>
      <path id="Trazado_116792" data-name="Trazado 116792" d="M1995.32,1507.366a2.836,2.836,0,0,1-2.89,3.082,2.759,2.759,0,0,1-2.783-2.986,2.834,2.834,0,0,1,2.878-3.082A2.749,2.749,0,0,1,1995.32,1507.366Zm-4.6.06c0,1.271.731,2.231,1.763,2.231,1.007,0,1.762-.948,1.762-2.255,0-.983-.491-2.231-1.738-2.231S1990.715,1506.322,1990.715,1507.426Z"/>
      <path id="Trazado_116793" data-name="Trazado 116793" d="M1996.655,1506.083c0-.6-.012-1.092-.049-1.571h.924l.048.935h.036a2,2,0,0,1,1.824-1.067,1.714,1.714,0,0,1,1.642,1.163h.024a2.4,2.4,0,0,1,.648-.756,1.979,1.979,0,0,1,1.283-.407c.768,0,1.907.5,1.907,2.518v3.418h-1.031v-3.286c0-1.115-.408-1.787-1.26-1.787a1.367,1.367,0,0,0-1.247.96,1.729,1.729,0,0,0-.084.527v3.586h-1.031v-3.478c0-.923-.408-1.595-1.212-1.595a1.574,1.574,0,0,0-1.39,1.571v3.5h-1.032Z"/>
      <path id="Trazado_116794" data-name="Trazado 116794" d="M2006.614,1510.316c.025-.4.049-.983.049-1.5V1501.8h1.043v3.646h.024a2.163,2.163,0,0,1,1.979-1.067c1.439,0,2.459,1.2,2.446,2.962,0,2.075-1.306,3.106-2.6,3.106a2.068,2.068,0,0,1-1.943-1.091h-.036l-.048.959Zm1.092-2.327a1.955,1.955,0,0,0,.048.384,1.627,1.627,0,0,0,1.583,1.235c1.1,0,1.764-.9,1.764-2.23,0-1.163-.6-2.159-1.728-2.159a1.682,1.682,0,0,0-1.607,1.3,2.067,2.067,0,0,0-.06.431Z"/>
      <path id="Trazado_116795" data-name="Trazado 116795" d="M2013.491,1506.322c0-.683-.012-1.27-.049-1.81h.924l.036,1.139h.048a1.742,1.742,0,0,1,1.608-1.271,1.128,1.128,0,0,1,.3.036v.995a1.578,1.578,0,0,0-.36-.036,1.481,1.481,0,0,0-1.415,1.355,3.077,3.077,0,0,0-.048.492v3.094h-1.043Z"/>
      <path id="Trazado_116796" data-name="Trazado 116796" d="M2017.882,1507.6a1.86,1.86,0,0,0,1.991,2.016,3.814,3.814,0,0,0,1.607-.3l.18.755a4.7,4.7,0,0,1-1.931.361,2.7,2.7,0,0,1-2.854-2.927c0-1.751,1.031-3.13,2.723-3.13a2.459,2.459,0,0,1,2.4,2.734,3.929,3.929,0,0,1-.036.491Zm3.1-.754a1.5,1.5,0,0,0-1.463-1.716,1.749,1.749,0,0,0-1.619,1.716Z"/>
      <path id="Trazado_116797" data-name="Trazado 116797" d="M2023.307,1506.322c0-.683-.013-1.27-.049-1.81h.924l.036,1.139h.048a1.74,1.74,0,0,1,1.607-1.271,1.145,1.145,0,0,1,.3.036v.995a1.589,1.589,0,0,0-.36-.036,1.48,1.48,0,0,0-1.416,1.355,3.1,3.1,0,0,0-.047.492v3.094h-1.043Z"/>
      <path id="Trazado_116798" data-name="Trazado 116798" d="M2030.385,1510.316l-.084-.731h-.036a2.163,2.163,0,0,1-1.776.863,1.653,1.653,0,0,1-1.774-1.667c0-1.4,1.247-2.171,3.49-2.159v-.119a1.2,1.2,0,0,0-1.319-1.344,2.894,2.894,0,0,0-1.512.432l-.239-.695a3.6,3.6,0,0,1,1.906-.516c1.775,0,2.207,1.211,2.207,2.374v2.171a8.157,8.157,0,0,0,.1,1.391Zm-.156-2.962c-1.152-.024-2.458.18-2.458,1.307a.934.934,0,0,0,.995,1.008,1.445,1.445,0,0,0,1.4-.972,1.092,1.092,0,0,0,.06-.336Z"/>
      <path id="Trazado_116799" data-name="Trazado 116799" d="M1982.83,1522.006a1.86,1.86,0,0,0,1.991,2.015,3.824,3.824,0,0,0,1.608-.3l.179.755a4.7,4.7,0,0,1-1.93.36,2.7,2.7,0,0,1-2.855-2.927c0-1.751,1.031-3.13,2.723-3.13a2.459,2.459,0,0,1,2.4,2.735,3.963,3.963,0,0,1-.036.491Zm3.1-.755a1.5,1.5,0,0,0-1.463-1.716,1.751,1.751,0,0,0-1.619,1.716Z"/>
      <path id="Trazado_116800" data-name="Trazado 116800" d="M1988.255,1520.483c0-.6-.013-1.091-.049-1.571h.936l.06.959h.024a2.135,2.135,0,0,1,1.919-1.091c.8,0,2.05.48,2.05,2.471v3.466h-1.054v-3.346c0-.935-.348-1.716-1.344-1.716a1.5,1.5,0,0,0-1.415,1.08,1.519,1.519,0,0,0-.072.492v3.49h-1.055Z"/>
      <path id="Trazado_116801" data-name="Trazado 116801" d="M1997.314,1523.638a2.778,2.778,0,0,0,1.392.42c.768,0,1.127-.384,1.127-.865,0-.5-.3-.779-1.079-1.067-1.044-.371-1.535-.947-1.535-1.643a1.791,1.791,0,0,1,2-1.7,2.887,2.887,0,0,1,1.426.36l-.263.767a2.27,2.27,0,0,0-1.188-.336c-.623,0-.97.361-.97.792,0,.48.347.7,1.1.984,1.008.383,1.524.887,1.524,1.751,0,1.019-.791,1.739-2.171,1.739a3.308,3.308,0,0,1-1.631-.4Z"/>
      <path id="Trazado_116802" data-name="Trazado 116802" d="M2007.067,1523.134c0,.6.013,1.127.049,1.583h-.935l-.061-.947h-.023a2.188,2.188,0,0,1-1.919,1.079c-.912,0-2-.5-2-2.543v-3.394h1.054v3.214c0,1.1.336,1.848,1.3,1.848a1.488,1.488,0,0,0,1.488-1.5v-3.562h1.054Z"/>
      <path id="Trazado_116803" data-name="Trazado 116803" d="M2011.222,1523.638a2.77,2.77,0,0,0,1.391.42c.768,0,1.127-.384,1.127-.865,0-.5-.3-.779-1.079-1.067-1.044-.371-1.535-.947-1.535-1.643a1.791,1.791,0,0,1,2-1.7,2.894,2.894,0,0,1,1.427.36l-.264.767a2.267,2.267,0,0,0-1.188-.336c-.623,0-.97.361-.97.792,0,.48.347.7,1.1.984,1.008.383,1.524.887,1.524,1.751,0,1.019-.791,1.739-2.171,1.739a3.308,3.308,0,0,1-1.631-.4Z"/>
      <path id="Trazado_116804" data-name="Trazado 116804" d="M2017.293,1517.281a.654.654,0,0,1-1.308,0,.644.644,0,0,1,.661-.66A.627.627,0,0,1,2017.293,1517.281Zm-1.175,7.436v-5.805h1.055v5.805Z"/>
      <path id="Trazado_116805" data-name="Trazado 116805" d="M2020.2,1517.245v1.667h1.512v.8H2020.2v3.13c0,.719.2,1.128.792,1.128a2.3,2.3,0,0,0,.612-.073l.047.791a2.572,2.572,0,0,1-.935.145,1.463,1.463,0,0,1-1.139-.444,2.151,2.151,0,0,1-.408-1.511v-3.166h-.9v-.8h.9v-1.391Z"/>
      <path id="Trazado_116806" data-name="Trazado 116806" d="M2024.073,1517.281a.654.654,0,0,1-1.307,0,.644.644,0,0,1,.66-.66A.627.627,0,0,1,2024.073,1517.281Zm-1.175,7.436v-5.805h1.055v5.805Z"/>
      <path id="Trazado_116807" data-name="Trazado 116807" d="M2030.959,1521.767a2.837,2.837,0,0,1-2.891,3.082,2.76,2.76,0,0,1-2.782-2.987,2.834,2.834,0,0,1,2.878-3.082A2.749,2.749,0,0,1,2030.959,1521.767Zm-4.6.059c0,1.272.731,2.232,1.762,2.232,1.008,0,1.763-.949,1.763-2.255,0-.984-.491-2.232-1.738-2.232S2026.354,1520.723,2026.354,1521.826Z"/>
      <path id="Trazado_116808" data-name="Trazado 116808" d="M2031.755,1524.093a.709.709,0,0,1,.72-.755.757.757,0,1,1-.72.755Z"/>
    </g>
    <g id="Grupo_60988" data-name="Grupo 60988" opacity="0.82">
      <path id="Trazado_116809" data-name="Trazado 116809" d="M1990,1569.079c-.06-1.128-.132-2.482-.12-3.49h-.036c-.276.947-.612,1.955-1.019,3.07l-1.428,3.922h-.791l-1.307-3.85c-.384-1.139-.708-2.183-.936-3.142h-.024c-.024,1.008-.084,2.362-.155,3.574l-.216,3.466h-1l.564-8.084h1.331l1.379,3.91c.336.995.611,1.883.815,2.723h.037c.2-.816.492-1.7.851-2.723l1.44-3.91h1.331l.5,8.084h-1.02Z"/>
      <path id="Trazado_116810" data-name="Trazado 116810" d="M1996.089,1572.629l-.084-.732h-.036a2.16,2.16,0,0,1-1.776.864,1.653,1.653,0,0,1-1.774-1.667c0-1.4,1.247-2.171,3.49-2.159v-.12a1.2,1.2,0,0,0-1.319-1.343,2.9,2.9,0,0,0-1.512.431l-.239-.695a3.6,3.6,0,0,1,1.906-.516c1.776,0,2.207,1.211,2.207,2.374v2.171a8.29,8.29,0,0,0,.1,1.392Zm-.156-2.962c-1.152-.024-2.458.18-2.458,1.307a.933.933,0,0,0,.995,1.007,1.443,1.443,0,0,0,1.4-.971,1.1,1.1,0,0,0,.06-.336Z"/>
      <path id="Trazado_116811" data-name="Trazado 116811" d="M1998.659,1568.635c0-.684-.013-1.271-.049-1.811h.924l.036,1.14h.048a1.742,1.742,0,0,1,1.608-1.272,1.087,1.087,0,0,1,.3.037v.995a1.524,1.524,0,0,0-.36-.036,1.481,1.481,0,0,0-1.415,1.355,3.078,3.078,0,0,0-.048.491v3.095h-1.043Z"/>
      <path id="Trazado_116812" data-name="Trazado 116812" d="M2007.488,1566.824c-.024.42-.048.888-.048,1.595v3.37a3.332,3.332,0,0,1-.828,2.65,3.07,3.07,0,0,1-2.11.7,3.749,3.749,0,0,1-1.932-.48l.265-.8a3.281,3.281,0,0,0,1.7.455c1.079,0,1.87-.564,1.87-2.027v-.647h-.023a2.072,2.072,0,0,1-1.847.97,2.594,2.594,0,0,1-2.471-2.83,2.787,2.787,0,0,1,2.615-3.082,1.929,1.929,0,0,1,1.81,1.007h.025l.047-.875Zm-1.092,2.291a1.54,1.54,0,0,0-1.535-1.595c-1.007,0-1.726.851-1.726,2.195,0,1.139.575,2.087,1.715,2.087a1.543,1.543,0,0,0,1.463-1.08,1.835,1.835,0,0,0,.083-.564Z"/>
      <path id="Trazado_116813" data-name="Trazado 116813" d="M2009.782,1569.918a1.861,1.861,0,0,0,1.991,2.016,3.822,3.822,0,0,0,1.608-.3l.18.755a4.707,4.707,0,0,1-1.931.36,2.7,2.7,0,0,1-2.855-2.927c0-1.751,1.032-3.13,2.723-3.13a2.459,2.459,0,0,1,2.4,2.735,3.953,3.953,0,0,1-.036.491Zm3.095-.755a1.5,1.5,0,0,0-1.463-1.716,1.751,1.751,0,0,0-1.619,1.716Z"/>
      <path id="Trazado_116814" data-name="Trazado 116814" d="M2015.207,1568.4c0-.6-.013-1.092-.049-1.572h.936l.06.959h.024a2.135,2.135,0,0,1,1.919-1.091c.8,0,2.05.48,2.05,2.471v3.466h-1.054v-3.346c0-.935-.349-1.716-1.344-1.716a1.5,1.5,0,0,0-1.415,1.08,1.52,1.52,0,0,0-.072.492v3.49h-1.055Z"/>
      <path id="Trazado_116815" data-name="Trazado 116815" d="M2029.423,1564.113v7.017c0,.516.012,1.1.048,1.5h-.948l-.047-1.008h-.025a2.143,2.143,0,0,1-1.978,1.14c-1.4,0-2.483-1.188-2.483-2.95-.012-1.931,1.188-3.119,2.6-3.119a1.942,1.942,0,0,1,1.751.888h.023v-3.467Zm-1.056,5.074a1.863,1.863,0,0,0-.048-.444,1.55,1.55,0,0,0-1.522-1.223c-1.092,0-1.739.959-1.739,2.243,0,1.175.575,2.146,1.714,2.146a1.586,1.586,0,0,0,1.547-1.259,1.834,1.834,0,0,0,.048-.456Z"/>
      <path id="Trazado_116816" data-name="Trazado 116816" d="M2031.766,1569.918a1.86,1.86,0,0,0,1.991,2.016,3.814,3.814,0,0,0,1.607-.3l.18.755a4.7,4.7,0,0,1-1.931.36,2.7,2.7,0,0,1-2.854-2.927c0-1.751,1.031-3.13,2.722-3.13a2.46,2.46,0,0,1,2.4,2.735,4.156,4.156,0,0,1-.036.491Zm3.094-.755a1.5,1.5,0,0,0-1.463-1.716,1.751,1.751,0,0,0-1.619,1.716Z"/>
      <path id="Trazado_116817" data-name="Trazado 116817" d="M2043.872,1572.413a3.888,3.888,0,0,1-1.668.336,2.758,2.758,0,0,1-2.89-2.963,2.949,2.949,0,0,1,3.119-3.082,3.531,3.531,0,0,1,1.463.3l-.24.815a2.46,2.46,0,0,0-1.223-.275,2.188,2.188,0,0,0-.037,4.365,2.99,2.99,0,0,0,1.3-.288Z"/>
      <path id="Trazado_116818" data-name="Trazado 116818" d="M2050.291,1569.679a2.837,2.837,0,0,1-2.891,3.082,2.76,2.76,0,0,1-2.782-2.987,2.834,2.834,0,0,1,2.878-3.082A2.749,2.749,0,0,1,2050.291,1569.679Zm-4.6.059c0,1.272.731,2.232,1.762,2.232,1.008,0,1.763-.949,1.763-2.255,0-.984-.491-2.232-1.738-2.232S2045.686,1568.635,2045.686,1569.738Z"/>
      <path id="Trazado_116819" data-name="Trazado 116819" d="M2051.481,1571.55a2.778,2.778,0,0,0,1.392.42c.768,0,1.127-.384,1.127-.865,0-.5-.3-.779-1.079-1.067-1.044-.371-1.535-.947-1.535-1.642a1.791,1.791,0,0,1,2-1.7,2.887,2.887,0,0,1,1.426.36l-.263.767a2.27,2.27,0,0,0-1.188-.336c-.623,0-.97.361-.97.792,0,.48.347.7,1.1.984,1.008.384,1.524.887,1.524,1.751,0,1.019-.791,1.739-2.171,1.739a3.319,3.319,0,0,1-1.631-.4Z"/>
      <path id="Trazado_116820" data-name="Trazado 116820" d="M2057.648,1565.157v1.667h1.512v.8h-1.512v3.13c0,.72.205,1.128.792,1.128a2.3,2.3,0,0,0,.612-.073l.048.791a2.583,2.583,0,0,1-.936.145,1.463,1.463,0,0,1-1.139-.444,2.155,2.155,0,0,1-.408-1.511v-3.166h-.9v-.8h.9v-1.391Z"/>
      <path id="Trazado_116821" data-name="Trazado 116821" d="M2065.207,1571.046c0,.6.013,1.127.049,1.583h-.936l-.06-.947h-.024a2.185,2.185,0,0,1-1.919,1.079c-.912,0-2-.5-2-2.543v-3.394h1.055v3.214c0,1.1.336,1.848,1.3,1.848a1.526,1.526,0,0,0,1.391-.96,1.543,1.543,0,0,0,.1-.54v-3.562h1.055Z"/>
      <path id="Trazado_116822" data-name="Trazado 116822" d="M2066.962,1568.635c0-.684-.013-1.271-.049-1.811h.924l.036,1.14h.048a1.742,1.742,0,0,1,1.607-1.272,1.1,1.1,0,0,1,.3.037v.995a1.528,1.528,0,0,0-.36-.036,1.48,1.48,0,0,0-1.415,1.355,2.968,2.968,0,0,0-.048.491v3.095h-1.043Z"/>
      <path id="Trazado_116823" data-name="Trazado 116823" d="M2074.04,1572.629l-.084-.732h-.036a2.158,2.158,0,0,1-1.775.864,1.654,1.654,0,0,1-1.775-1.667c0-1.4,1.247-2.171,3.49-2.159v-.12a1.2,1.2,0,0,0-1.319-1.343,2.905,2.905,0,0,0-1.512.431l-.239-.695a3.6,3.6,0,0,1,1.906-.516c1.776,0,2.207,1.211,2.207,2.374v2.171a8.277,8.277,0,0,0,.1,1.392Zm-.156-2.962c-1.152-.024-2.458.18-2.458,1.307a.933.933,0,0,0,.995,1.007,1.443,1.443,0,0,0,1.4-.971,1.1,1.1,0,0,0,.06-.336Z"/>
      <path id="Trazado_116824" data-name="Trazado 116824" d="M1983.155,1578.514h1.055v3.622h.024a1.951,1.951,0,0,1,.756-.743,2.173,2.173,0,0,1,1.079-.3c.78,0,2.027.479,2.027,2.482v3.454h-1.055v-3.334c0-.935-.348-1.727-1.344-1.727a1.517,1.517,0,0,0-1.415,1.055,1.3,1.3,0,0,0-.072.5v3.5h-1.055Z"/>
      <path id="Trazado_116825" data-name="Trazado 116825" d="M1993.029,1587.029l-.084-.731h-.036a2.159,2.159,0,0,1-1.775.863,1.654,1.654,0,0,1-1.775-1.667c0-1.4,1.247-2.171,3.491-2.159v-.119a1.2,1.2,0,0,0-1.32-1.344,2.891,2.891,0,0,0-1.511.432l-.24-.7a3.609,3.609,0,0,1,1.907-.515c1.775,0,2.207,1.211,2.207,2.374v2.171a8.264,8.264,0,0,0,.1,1.391Zm-.156-2.962c-1.151-.024-2.458.18-2.458,1.307a.934.934,0,0,0,.995,1.008,1.443,1.443,0,0,0,1.4-.972,1.064,1.064,0,0,0,.06-.336Z"/>
      <path id="Trazado_116826" data-name="Trazado 116826" d="M1999.736,1586.813a3.885,3.885,0,0,1-1.668.336,2.757,2.757,0,0,1-2.889-2.962,2.949,2.949,0,0,1,3.118-3.083,3.543,3.543,0,0,1,1.463.3l-.24.816a2.445,2.445,0,0,0-1.223-.276,2.189,2.189,0,0,0-.036,4.366,3,3,0,0,0,1.3-.289Z"/>
      <path id="Trazado_116827" data-name="Trazado 116827" d="M2002.15,1579.594a.654.654,0,0,1-1.307,0,.644.644,0,0,1,.66-.66A.627.627,0,0,1,2002.15,1579.594Zm-1.174,7.435v-5.8h1.054v5.8Z"/>
      <path id="Trazado_116828" data-name="Trazado 116828" d="M2007,1587.029l-.084-.731h-.036a2.16,2.16,0,0,1-1.775.863,1.654,1.654,0,0,1-1.775-1.667c0-1.4,1.247-2.171,3.49-2.159v-.119a1.2,1.2,0,0,0-1.319-1.344,2.9,2.9,0,0,0-1.512.432l-.239-.7a3.609,3.609,0,0,1,1.906-.515c1.776,0,2.207,1.211,2.207,2.374v2.171a8.258,8.258,0,0,0,.1,1.391Zm-.156-2.962c-1.152-.024-2.458.18-2.458,1.307a.934.934,0,0,0,.995,1.008,1.444,1.444,0,0,0,1.4-.972,1.092,1.092,0,0,0,.06-.336Z"/>
      <path id="Trazado_116829" data-name="Trazado 116829" d="M2012.218,1587.029v-5h-.816v-.8h.816v-.277a2.73,2.73,0,0,1,.672-2.026,2.017,2.017,0,0,1,1.415-.54,2.44,2.44,0,0,1,.9.168l-.143.815a1.6,1.6,0,0,0-.672-.132c-.9,0-1.127.792-1.127,1.68v.312h1.4v.8h-1.4v5Z"/>
      <path id="Trazado_116830" data-name="Trazado 116830" d="M2020.471,1585.446c0,.6.012,1.127.049,1.583h-.936l-.061-.947h-.023a2.184,2.184,0,0,1-1.919,1.079c-.912,0-2-.5-2-2.543v-3.393h1.055v3.213c0,1.1.336,1.848,1.3,1.848a1.489,1.489,0,0,0,1.487-1.5v-3.561h1.055Z"/>
      <path id="Trazado_116831" data-name="Trazado 116831" d="M2022.813,1584.318a1.861,1.861,0,0,0,1.992,2.016,3.814,3.814,0,0,0,1.607-.3l.18.755a4.7,4.7,0,0,1-1.931.36,2.7,2.7,0,0,1-2.854-2.926c0-1.751,1.031-3.13,2.722-3.13a2.459,2.459,0,0,1,2.4,2.734,4.156,4.156,0,0,1-.036.491Zm3.095-.755a1.5,1.5,0,0,0-1.463-1.715,1.75,1.75,0,0,0-1.619,1.715Z"/>
      <path id="Trazado_116832" data-name="Trazado 116832" d="M2028.238,1583.035c0-.683-.012-1.27-.049-1.81h.924l.036,1.139h.048a1.742,1.742,0,0,1,1.608-1.271,1.093,1.093,0,0,1,.3.036v.995a1.577,1.577,0,0,0-.36-.036,1.48,1.48,0,0,0-1.415,1.355,3.091,3.091,0,0,0-.048.492v3.094h-1.043Z"/>
      <path id="Trazado_116833" data-name="Trazado 116833" d="M2035.316,1587.029l-.084-.731h-.036a2.159,2.159,0,0,1-1.775.863,1.654,1.654,0,0,1-1.775-1.667c0-1.4,1.248-2.171,3.491-2.159v-.119a1.2,1.2,0,0,0-1.32-1.344,2.891,2.891,0,0,0-1.511.432l-.24-.7a3.609,3.609,0,0,1,1.907-.515c1.775,0,2.207,1.211,2.207,2.374v2.171a8.265,8.265,0,0,0,.095,1.391Zm-.156-2.962c-1.151-.024-2.458.18-2.458,1.307a.934.934,0,0,0,.995,1.008,1.445,1.445,0,0,0,1.4-.972,1.091,1.091,0,0,0,.059-.336Z"/>
      <path id="Trazado_116834" data-name="Trazado 116834" d="M2041.018,1584.318a1.86,1.86,0,0,0,1.991,2.016,3.814,3.814,0,0,0,1.607-.3l.18.755a4.7,4.7,0,0,1-1.931.36,2.7,2.7,0,0,1-2.854-2.926c0-1.751,1.031-3.13,2.722-3.13a2.459,2.459,0,0,1,2.4,2.734,4.129,4.129,0,0,1-.036.491Zm3.094-.755a1.5,1.5,0,0,0-1.463-1.715,1.75,1.75,0,0,0-1.619,1.715Z"/>
      <path id="Trazado_116835" data-name="Trazado 116835" d="M2046.442,1582.8c0-.6-.012-1.092-.048-1.571h.935l.061.959h.023a2.135,2.135,0,0,1,1.919-1.091c.8,0,2.051.479,2.051,2.47v3.466h-1.055v-3.345c0-.936-.348-1.716-1.344-1.716a1.549,1.549,0,0,0-1.487,1.571v3.49h-1.055Z"/>
      <path id="Trazado_116836" data-name="Trazado 116836" d="M2055.5,1585.95a2.771,2.771,0,0,0,1.392.42c.767,0,1.127-.384,1.127-.864,0-.5-.3-.779-1.08-1.068-1.044-.371-1.535-.947-1.535-1.642a1.79,1.79,0,0,1,2-1.7,2.9,2.9,0,0,1,1.427.359l-.264.768a2.254,2.254,0,0,0-1.187-.336c-.623,0-.971.36-.971.792,0,.479.348.695,1.1.983,1.007.384,1.523.888,1.523,1.751,0,1.02-.791,1.739-2.171,1.739a3.318,3.318,0,0,1-1.631-.4Z"/>
      <path id="Trazado_116837" data-name="Trazado 116837" d="M2065.651,1584.079a2.836,2.836,0,0,1-2.89,3.082,2.759,2.759,0,0,1-2.782-2.986,2.834,2.834,0,0,1,2.877-3.082A2.749,2.749,0,0,1,2065.651,1584.079Zm-4.6.06c0,1.271.731,2.231,1.763,2.231,1.007,0,1.762-.948,1.762-2.255,0-.983-.491-2.231-1.738-2.231S2061.046,1583.035,2061.046,1584.139Z"/>
      <path id="Trazado_116838" data-name="Trazado 116838" d="M2066.986,1578.514h1.055v8.515h-1.055Z"/>
      <path id="Trazado_116839" data-name="Trazado 116839" d="M2073.032,1587.029l-.084-.731h-.036a2.161,2.161,0,0,1-1.775.863,1.654,1.654,0,0,1-1.775-1.667c0-1.4,1.247-2.171,3.491-2.159v-.119a1.2,1.2,0,0,0-1.32-1.344,2.9,2.9,0,0,0-1.512.432l-.239-.7a3.609,3.609,0,0,1,1.906-.515c1.776,0,2.208,1.211,2.208,2.374v2.171a8.265,8.265,0,0,0,.095,1.391Zm-.156-2.962c-1.151-.024-2.458.18-2.458,1.307a.934.934,0,0,0,1,1.008,1.444,1.444,0,0,0,1.4-.972,1.06,1.06,0,0,0,.06-.336Z"/>
      <path id="Trazado_116840" data-name="Trazado 116840" d="M2075.6,1583.119c0-.743-.025-1.343-.049-1.894h.948l.048.995h.023a2.284,2.284,0,0,1,2.064-1.127c1.4,0,2.458,1.187,2.458,2.95,0,2.087-1.271,3.118-2.639,3.118a2.036,2.036,0,0,1-1.786-.911h-.024v3.154H2075.6Zm1.043,1.548a2.489,2.489,0,0,0,.047.432,1.631,1.631,0,0,0,1.583,1.235c1.116,0,1.764-.912,1.764-2.243,0-1.163-.612-2.159-1.727-2.159a1.683,1.683,0,0,0-1.595,1.307,1.706,1.706,0,0,0-.072.432Z"/>
      <path id="Trazado_116841" data-name="Trazado 116841" d="M2085.644,1587.029l-.084-.731h-.037a2.16,2.16,0,0,1-1.775.863,1.653,1.653,0,0,1-1.774-1.667c0-1.4,1.247-2.171,3.49-2.159v-.119a1.2,1.2,0,0,0-1.319-1.344,2.892,2.892,0,0,0-1.512.432l-.239-.7a3.6,3.6,0,0,1,1.906-.515c1.775,0,2.207,1.211,2.207,2.374v2.171a8.157,8.157,0,0,0,.1,1.391Zm-.157-2.962c-1.151-.024-2.458.18-2.458,1.307a.934.934,0,0,0,.995,1.008,1.445,1.445,0,0,0,1.4-.972,1.087,1.087,0,0,0,.059-.336Z"/>
      <path id="Trazado_116842" data-name="Trazado 116842" d="M1983.539,1595.624l1.271,3.43c.131.384.276.84.372,1.187h.024c.107-.347.228-.791.371-1.211l1.152-3.406h1.115l-1.583,4.138c-.755,1.991-1.271,3.009-1.99,3.634a2.86,2.86,0,0,1-1.3.683l-.264-.888a2.818,2.818,0,0,0,.924-.515,3.2,3.2,0,0,0,.887-1.175.759.759,0,0,0,.084-.252.906.906,0,0,0-.072-.276l-2.146-5.349Z"/>
      <path id="Trazado_116843" data-name="Trazado 116843" d="M1995.488,1601.213a3.9,3.9,0,0,1-1.668.336,2.757,2.757,0,0,1-2.889-2.963,2.948,2.948,0,0,1,3.118-3.082,3.53,3.53,0,0,1,1.463.3l-.241.815a2.449,2.449,0,0,0-1.222-.275,2.188,2.188,0,0,0-.036,4.365,3,3,0,0,0,1.3-.288Z"/>
      <path id="Trazado_116844" data-name="Trazado 116844" d="M2001.584,1599.846c0,.6.013,1.127.049,1.583h-.936l-.06-.948h-.024a2.184,2.184,0,0,1-1.919,1.08c-.912,0-2-.5-2-2.543v-3.394h1.055v3.214c0,1.1.336,1.848,1.3,1.848a1.528,1.528,0,0,0,1.391-.96,1.547,1.547,0,0,0,.1-.54v-3.562h1.055Z"/>
      <path id="Trazado_116845" data-name="Trazado 116845" d="M2003.926,1598.718a1.859,1.859,0,0,0,1.991,2.015,3.814,3.814,0,0,0,1.607-.3l.18.754a4.7,4.7,0,0,1-1.931.361,2.7,2.7,0,0,1-2.854-2.927c0-1.751,1.031-3.13,2.723-3.13a2.46,2.46,0,0,1,2.4,2.735,3.987,3.987,0,0,1-.036.491Zm3.095-.755a1.5,1.5,0,0,0-1.463-1.715,1.749,1.749,0,0,0-1.62,1.715Z"/>
      <path id="Trazado_116846" data-name="Trazado 116846" d="M2009.351,1592.913h1.054v8.516h-1.054Z"/>
      <path id="Trazado_116847" data-name="Trazado 116847" d="M2012.183,1592.913h1.054v8.516h-1.054Z"/>
      <path id="Trazado_116848" data-name="Trazado 116848" d="M2020.268,1598.479a2.838,2.838,0,0,1-2.891,3.082,2.76,2.76,0,0,1-2.782-2.987,2.833,2.833,0,0,1,2.878-3.082A2.749,2.749,0,0,1,2020.268,1598.479Zm-4.606.059c0,1.272.732,2.232,1.763,2.232,1.008,0,1.763-.949,1.763-2.255,0-.984-.492-2.232-1.739-2.232S2015.662,1597.435,2015.662,1598.538Z"/>
      <path id="Trazado_116849" data-name="Trazado 116849" d="M2021.063,1600.805a.708.708,0,0,1,.718-.755.757.757,0,0,1-.011,1.511A.707.707,0,0,1,2021.063,1600.805Z"/>
    </g>
    <g id="Grupo_60989" data-name="Grupo 60989" opacity="0.82">
      <path id="Trazado_116850" data-name="Trazado 116850" d="M1983.19,1613.638a10.122,10.122,0,0,1,1.908-.168,3.33,3.33,0,0,1,2.218.588,1.692,1.692,0,0,1,.672,1.426,1.919,1.919,0,0,1-1.367,1.776v.023a2.085,2.085,0,0,1,1.667,2.028,2.18,2.18,0,0,1-.684,1.619,4.062,4.062,0,0,1-2.794.756,12.016,12.016,0,0,1-1.62-.1Zm1.044,3.31h.948c1.1,0,1.751-.576,1.751-1.355,0-.947-.72-1.32-1.775-1.32a4.462,4.462,0,0,0-.924.073Zm0,3.873a5.55,5.55,0,0,0,.875.049c1.08,0,2.076-.4,2.076-1.571,0-1.1-.948-1.56-2.087-1.56h-.864Z"/>
      <path id="Trazado_116851" data-name="Trazado 116851" d="M1992.873,1621.613l-.084-.731h-.036a2.159,2.159,0,0,1-1.775.863,1.654,1.654,0,0,1-1.775-1.667c0-1.4,1.247-2.171,3.49-2.159v-.119a1.2,1.2,0,0,0-1.319-1.344,2.9,2.9,0,0,0-1.512.432l-.239-.7a3.608,3.608,0,0,1,1.906-.515c1.776,0,2.207,1.211,2.207,2.374v2.171a8.257,8.257,0,0,0,.1,1.391Zm-.156-2.962c-1.152-.024-2.458.18-2.458,1.307a.934.934,0,0,0,.995,1.008,1.444,1.444,0,0,0,1.4-.972,1.092,1.092,0,0,0,.06-.336Z"/>
      <path id="Trazado_116852" data-name="Trazado 116852" d="M1994.027,1623.292a1.706,1.706,0,0,0,1.152-.443c.288-.336.4-.792.4-2.183v-4.857h1.055v5.264a3.185,3.185,0,0,1-.695,2.387,2.68,2.68,0,0,1-1.8.66Zm2.723-9.114a.619.619,0,0,1-.659.647.63.63,0,0,1-.648-.647.646.646,0,0,1,.671-.66A.624.624,0,0,1,1996.75,1614.178Z"/>
      <path id="Trazado_116853" data-name="Trazado 116853" d="M2003.612,1618.663a2.836,2.836,0,0,1-2.89,3.082,2.759,2.759,0,0,1-2.783-2.986,2.835,2.835,0,0,1,2.878-3.082A2.749,2.749,0,0,1,2003.612,1618.663Zm-4.605.06c0,1.271.731,2.231,1.763,2.231,1.007,0,1.762-.948,1.762-2.255,0-.983-.491-2.231-1.738-2.231S1999.007,1617.619,1999.007,1618.723Z"/>
      <path id="Trazado_116854" data-name="Trazado 116854" d="M2004.8,1620.534a2.77,2.77,0,0,0,1.391.42c.768,0,1.127-.384,1.127-.864,0-.5-.3-.779-1.079-1.068-1.044-.371-1.535-.947-1.535-1.642a1.79,1.79,0,0,1,2-1.7,2.906,2.906,0,0,1,1.427.359l-.264.768a2.255,2.255,0,0,0-1.187-.336c-.623,0-.971.36-.971.792,0,.479.348.695,1.1.983,1.008.384,1.524.888,1.524,1.751,0,1.02-.791,1.739-2.171,1.739a3.32,3.32,0,0,1-1.631-.4Z"/>
      <path id="Trazado_116855" data-name="Trazado 116855" d="M2012.65,1615.809l1.14,3.261a15.351,15.351,0,0,1,.468,1.488h.036c.132-.48.3-.959.491-1.488l1.128-3.261h1.1l-2.279,5.8h-1.008l-2.206-5.8Z"/>
      <path id="Trazado_116856" data-name="Trazado 116856" d="M2022.871,1620.03c0,.6.013,1.127.049,1.583h-.936l-.06-.947h-.024a2.183,2.183,0,0,1-1.919,1.079c-.912,0-2-.5-2-2.543v-3.393h1.054v3.213c0,1.1.336,1.848,1.3,1.848a1.486,1.486,0,0,0,1.487-1.5v-3.561h1.055Z"/>
      <path id="Trazado_116857" data-name="Trazado 116857" d="M2025.214,1618.9a1.86,1.86,0,0,0,1.991,2.016,3.822,3.822,0,0,0,1.608-.3l.179.755a4.7,4.7,0,0,1-1.93.36,2.7,2.7,0,0,1-2.855-2.926c0-1.751,1.031-3.13,2.723-3.13a2.459,2.459,0,0,1,2.4,2.734,3.953,3.953,0,0,1-.036.491Zm3.095-.755a1.5,1.5,0,0,0-1.463-1.715,1.749,1.749,0,0,0-1.619,1.715Z"/>
      <path id="Trazado_116858" data-name="Trazado 116858" d="M2030.639,1613.1h1.054v8.515h-1.054Z"/>
      <path id="Trazado_116859" data-name="Trazado 116859" d="M2034.741,1614.142v1.667h1.512v.8h-1.512v3.13c0,.72.2,1.128.792,1.128a2.349,2.349,0,0,0,.612-.072l.047.791a2.575,2.575,0,0,1-.935.144,1.462,1.462,0,0,1-1.139-.444,2.147,2.147,0,0,1-.408-1.511v-3.166h-.9v-.8h.9v-1.392Z"/>
      <path id="Trazado_116860" data-name="Trazado 116860" d="M2042.623,1618.663a2.837,2.837,0,0,1-2.891,3.082,2.759,2.759,0,0,1-2.782-2.986,2.834,2.834,0,0,1,2.878-3.082A2.749,2.749,0,0,1,2042.623,1618.663Zm-4.605.06c0,1.271.731,2.231,1.762,2.231,1.008,0,1.763-.948,1.763-2.255,0-.983-.491-2.231-1.738-2.231S2038.018,1617.619,2038.018,1618.723Z"/>
      <path id="Trazado_116861" data-name="Trazado 116861" d="M2043.813,1620.534a2.777,2.777,0,0,0,1.392.42c.768,0,1.127-.384,1.127-.864,0-.5-.3-.779-1.079-1.068-1.044-.371-1.535-.947-1.535-1.642a1.79,1.79,0,0,1,2-1.7,2.9,2.9,0,0,1,1.426.359l-.263.768a2.261,2.261,0,0,0-1.188-.336c-.623,0-.97.36-.97.792,0,.479.347.695,1.1.983,1.008.384,1.524.888,1.524,1.751,0,1.02-.791,1.739-2.171,1.739a3.319,3.319,0,0,1-1.631-.4Z"/>
      <path id="Trazado_116862" data-name="Trazado 116862" d="M2051.841,1618.9a1.86,1.86,0,0,0,1.991,2.016,3.814,3.814,0,0,0,1.607-.3l.18.755a4.7,4.7,0,0,1-1.931.36,2.7,2.7,0,0,1-2.854-2.926c0-1.751,1.031-3.13,2.723-3.13a2.459,2.459,0,0,1,2.4,2.734,3.948,3.948,0,0,1-.036.491Zm3.095-.755a1.5,1.5,0,0,0-1.463-1.715,1.749,1.749,0,0,0-1.619,1.715Z"/>
      <path id="Trazado_116863" data-name="Trazado 116863" d="M2057.267,1617.38c0-.6-.013-1.092-.049-1.571h.935l.061.959h.023a2.134,2.134,0,0,1,1.919-1.091c.8,0,2.051.479,2.051,2.47v3.466h-1.055v-3.345c0-.936-.347-1.716-1.343-1.716a1.552,1.552,0,0,0-1.488,1.571v3.49h-1.054Z"/>
      <path id="Trazado_116864" data-name="Trazado 116864" d="M1983.155,1631.78c0-.6-.012-1.092-.049-1.571h.924l.048.936h.036a2,2,0,0,1,1.824-1.068,1.716,1.716,0,0,1,1.642,1.163h.024a2.4,2.4,0,0,1,.648-.756,1.984,1.984,0,0,1,1.283-.407c.768,0,1.907.5,1.907,2.519v3.418h-1.031v-3.286c0-1.116-.408-1.788-1.26-1.788a1.367,1.367,0,0,0-1.247.96,1.73,1.73,0,0,0-.084.528v3.586h-1.031v-3.479c0-.923-.408-1.6-1.212-1.6a1.574,1.574,0,0,0-1.39,1.572v3.5h-1.032Z"/>
      <path id="Trazado_116865" data-name="Trazado 116865" d="M1996.377,1636.014l-.084-.732h-.036a2.16,2.16,0,0,1-1.776.864,1.654,1.654,0,0,1-1.774-1.667c0-1.4,1.247-2.171,3.49-2.16v-.119a1.2,1.2,0,0,0-1.319-1.344,2.9,2.9,0,0,0-1.512.432l-.239-.695a3.6,3.6,0,0,1,1.906-.516c1.776,0,2.207,1.211,2.207,2.374v2.171a8.277,8.277,0,0,0,.1,1.392Zm-.156-2.962c-1.152-.025-2.458.179-2.458,1.306a.934.934,0,0,0,1,1.008,1.443,1.443,0,0,0,1.4-.971,1.1,1.1,0,0,0,.06-.336Z"/>
      <path id="Trazado_116866" data-name="Trazado 116866" d="M1998.947,1631.78c0-.6-.012-1.092-.049-1.571h.936l.061.959h.023a2.135,2.135,0,0,1,1.919-1.091c.8,0,2.051.48,2.051,2.471v3.466h-1.055v-3.346c0-.936-.349-1.716-1.344-1.716a1.5,1.5,0,0,0-1.415,1.08,1.517,1.517,0,0,0-.072.491v3.491h-1.055Z"/>
      <path id="Trazado_116867" data-name="Trazado 116867" d="M2010.608,1630.209c-.024.42-.047.888-.047,1.595v3.37a3.33,3.33,0,0,1-.829,2.65,3.068,3.068,0,0,1-2.11.7,3.742,3.742,0,0,1-1.931-.48l.264-.8a3.272,3.272,0,0,0,1.7.455c1.079,0,1.871-.563,1.871-2.026v-.647h-.024a2.072,2.072,0,0,1-1.847.97,2.594,2.594,0,0,1-2.47-2.83,2.786,2.786,0,0,1,2.614-3.082,1.927,1.927,0,0,1,1.81,1.007h.025l.048-.875Zm-1.091,2.291a1.5,1.5,0,0,0-.06-.48,1.521,1.521,0,0,0-1.476-1.116c-1.006,0-1.726.852-1.726,2.2,0,1.138.575,2.087,1.715,2.087a1.545,1.545,0,0,0,1.463-1.081,1.824,1.824,0,0,0,.084-.563Z"/>
      <path id="Trazado_116868" data-name="Trazado 116868" d="M2015.529,1636.014l-.084-.732h-.036a2.16,2.16,0,0,1-1.775.864,1.654,1.654,0,0,1-1.775-1.667c0-1.4,1.247-2.171,3.491-2.16v-.119a1.2,1.2,0,0,0-1.32-1.344,2.891,2.891,0,0,0-1.511.432l-.24-.695a3.6,3.6,0,0,1,1.907-.516c1.775,0,2.207,1.211,2.207,2.374v2.171a8.284,8.284,0,0,0,.1,1.392Zm-.156-2.962c-1.151-.025-2.458.179-2.458,1.306a.934.934,0,0,0,.995,1.008,1.442,1.442,0,0,0,1.4-.971,1.074,1.074,0,0,0,.06-.336Z"/>
      <path id="Trazado_116869" data-name="Trazado 116869" d="M2017.954,1634.935a2.775,2.775,0,0,0,1.392.419c.767,0,1.127-.383,1.127-.864,0-.5-.3-.779-1.079-1.067-1.044-.371-1.536-.947-1.536-1.643a1.791,1.791,0,0,1,2-1.7,2.892,2.892,0,0,1,1.427.36l-.264.767a2.264,2.264,0,0,0-1.187-.336c-.623,0-.971.361-.971.792,0,.48.348.695,1.1.984,1.008.383,1.523.887,1.523,1.751,0,1.019-.791,1.739-2.171,1.739a3.314,3.314,0,0,1-1.631-.4Z"/>
      <path id="Trazado_116870" data-name="Trazado 116870" d="M2025.778,1630.209l1.271,3.43c.132.383.276.84.372,1.187h.024c.108-.347.228-.791.371-1.211l1.152-3.406h1.116l-1.584,4.138c-.755,1.991-1.271,3.01-1.99,3.633a2.846,2.846,0,0,1-1.3.684l-.264-.888a2.805,2.805,0,0,0,.924-.515,3.217,3.217,0,0,0,.888-1.175.756.756,0,0,0,.084-.252.914.914,0,0,0-.073-.276l-2.146-5.349Z"/>
      <path id="Trazado_116871" data-name="Trazado 116871" d="M2033.591,1632.1c0-.744-.025-1.343-.049-1.9h.948l.048.995h.024a2.282,2.282,0,0,1,2.063-1.127c1.4,0,2.458,1.188,2.458,2.95,0,2.087-1.27,3.119-2.639,3.119a2.034,2.034,0,0,1-1.786-.912h-.024v3.155h-1.043Zm1.043,1.547a2.373,2.373,0,0,0,.048.432,1.629,1.629,0,0,0,1.583,1.235c1.115,0,1.763-.912,1.763-2.243,0-1.163-.612-2.159-1.727-2.159a1.684,1.684,0,0,0-1.595,1.308,1.7,1.7,0,0,0-.072.431Z"/>
      <path id="Trazado_116872" data-name="Trazado 116872" d="M2040.418,1632.02c0-.684-.013-1.271-.049-1.811h.924l.036,1.14h.048a1.74,1.74,0,0,1,1.607-1.272,1.141,1.141,0,0,1,.3.036v.995a1.584,1.584,0,0,0-.36-.036,1.48,1.48,0,0,0-1.415,1.356,2.945,2.945,0,0,0-.048.491v3.1h-1.043Z"/>
      <path id="Trazado_116873" data-name="Trazado 116873" d="M2044.81,1633.3a1.86,1.86,0,0,0,1.991,2.015,3.816,3.816,0,0,0,1.607-.3l.18.754a4.7,4.7,0,0,1-1.931.361,2.7,2.7,0,0,1-2.854-2.927c0-1.751,1.031-3.13,2.722-3.13a2.46,2.46,0,0,1,2.4,2.735,4.188,4.188,0,0,1-.036.491Zm3.094-.755a1.5,1.5,0,0,0-1.463-1.716,1.75,1.75,0,0,0-1.619,1.716Z"/>
      <path id="Trazado_116874" data-name="Trazado 116874" d="M2050.234,1631.78c0-.6-.012-1.092-.048-1.571h.935l.061.959h.023a2.134,2.134,0,0,1,1.919-1.091c.8,0,2.051.48,2.051,2.471v3.466h-1.055v-3.346c0-.936-.349-1.716-1.344-1.716a1.549,1.549,0,0,0-1.487,1.571v3.491h-1.055Z"/>
      <path id="Trazado_116875" data-name="Trazado 116875" d="M2061.907,1627.5v7.017c0,.515.012,1.1.048,1.5h-.947l-.048-1.008h-.024a2.148,2.148,0,0,1-1.979,1.14c-1.4,0-2.482-1.188-2.482-2.951-.013-1.93,1.187-3.118,2.6-3.118a1.94,1.94,0,0,1,1.751.888h.024V1627.5Zm-1.055,5.073a1.848,1.848,0,0,0-.048-.443,1.553,1.553,0,0,0-1.523-1.224c-1.092,0-1.739.96-1.739,2.243,0,1.175.575,2.147,1.715,2.147a1.586,1.586,0,0,0,1.547-1.259,1.829,1.829,0,0,0,.048-.456Z"/>
      <path id="Trazado_116876" data-name="Trazado 116876" d="M2066.876,1636.014l-.084-.732h-.036a2.162,2.162,0,0,1-1.776.864,1.654,1.654,0,0,1-1.774-1.667c0-1.4,1.247-2.171,3.49-2.16v-.119a1.2,1.2,0,0,0-1.319-1.344,2.894,2.894,0,0,0-1.512.432l-.239-.695a3.6,3.6,0,0,1,1.906-.516c1.776,0,2.207,1.211,2.207,2.374v2.171a8.278,8.278,0,0,0,.1,1.392Zm-.156-2.962c-1.152-.025-2.458.179-2.458,1.306a.934.934,0,0,0,1,1.008,1.443,1.443,0,0,0,1.4-.971,1.1,1.1,0,0,0,.06-.336Z"/>
      <path id="Trazado_116877" data-name="Trazado 116877" d="M2069.194,1635.39a.709.709,0,0,1,.72-.755.757.757,0,1,1-.72.755Z"/>
    </g>
    <path id="Trazado_116878" data-name="Trazado 116878" d="M1924.812,1656.638a27.024,27.024,0,0,1-7.629-.407c-2.485-.594-5.275-1.722-6.69-3.85a10.058,10.058,0,0,1-6.673,4.476,19.849,19.849,0,0,1-4.006.156l-20.175-.572c-3.23-.092-7.142-.621-8.412-3.592a5.349,5.349,0,0,1-.37-1.613,8.226,8.226,0,0,0,.37,3.758c1.27,2.983,5.182,3.514,8.412,3.606l20.175.575a19.779,19.779,0,0,0,4.006-.158,10.055,10.055,0,0,0,6.673-4.492c1.415,2.136,4.2,3.268,6.69,3.864a26.917,26.917,0,0,0,7.629.409,147.991,147.991,0,0,0,21.257-2.618c-.051-.681-.11-1.4-.171-2.12A148.292,148.292,0,0,1,1924.812,1656.638Z" fill="#aa988f" opacity="0.35" style="isolation: isolate"/>
    <line id="Línea_521" data-name="Línea 521" x1="29.68" y2="9.392" transform="translate(1950.216 1515.324)" fill="none" stroke="#706f6f" stroke-miterlimit="10" stroke-width="1"/>
    <line id="Línea_522" data-name="Línea 522" x1="45.511" y1="22.813" transform="translate(1932.162 1544.657)" fill="none" stroke="#706f6f" stroke-miterlimit="10" stroke-width="1"/>
    <line id="Línea_523" data-name="Línea 523" y1="14.78" x2="20.538" transform="translate(1955.999 1624.121)" fill="none" stroke="#706f6f" stroke-miterlimit="10" stroke-width="1"/>
  </g>
</svg>
