<svg xmlns="http://www.w3.org/2000/svg" width="257.939" height="209.061" viewBox="0 0 257.939 209.061"><g transform="translate(-8466.816 -1274.838)"><path d="M8805.962,1433.626c-4.171,6.771-14.935,11.713-20.963,11.963-9.1.377-29.711-6.549-36.049-5.163-8.37,1.832-24.51,10.1-32.895,12.874-7.545,2.494-24.433,11.2-31.048,6.794-8.277-5.509-8.5-38.855-8.5-38.855s-5.265-61.86-10.424-85.433c-1.3-5.928-19.189-24.4-15.4-32.574,6.562-14.146,45.416-11.773,60.931-13.334,15.284-1.537,46.935-21.175,60.023-13.135,4.483,2.754,3.931,15.329,4.5,20.56C8779.9,1332,8824.258,1403.928,8805.962,1433.626Z" transform="translate(-144.204)" fill="#fcecdb"/><path d="M8909.168,1469.9c-.378-1.729-.713-3.2-1.009-4.676a2.256,2.256,0,0,1,.113-.775,2.619,2.619,0,0,0,.139-.78c-.246-1.661.341-3.365-.268-5-.027-.073.021-.173.035-.26.928-.528,13.579-3.434,15.664-3.575.238.949.452,1.936.74,2.9.239.8.581,1.578.85,2.375.453,1.347.907,2.694,1.32,4.054,1.008,3.317,1.98,6.645,2.992,9.961.531,1.74,1.117,3.464,1.682,5.194a1.273,1.273,0,0,0,.206.488,7.859,7.859,0,0,1,1.568,3.779c1.585,6.21,3.124,12.432,4.666,18.654.278,1.119.5,2.253.771,3.5a.7.7,0,0,1-.276.234c-4.1,1.286-8.1,2.839-12.372,3.614-5.074.92-10.077,2.238-15.107,3.393a12.016,12.016,0,0,0-1.661.5,72.414,72.414,0,0,1-10.964,2.879c-5.481,1.188-10.958,2.4-16.437,3.593-.257.056-.522.07-.764.1-1.125-1.387-2.3-2.687-3.3-4.112-1.014-1.445-1.781-3.062-2.784-4.515-1.146-1.661-1.688-3.658-3.117-5.177a9.582,9.582,0,0,1-1.271-2.617q-.722-1.573-1.435-3.151a3.247,3.247,0,0,0-1.012-1.515c-.33-.236-.421-.848-.556-1.309a4.591,4.591,0,0,0-1.2-2.621.659.659,0,0,1-.173-.354,15.4,15.4,0,0,0-1.835-5.228c-.117-.182-.107-.465-.249-.611-.954-.982-1.1-2.295-1.5-3.509a97.432,97.432,0,0,1-2.869-9.729,15.739,15.739,0,0,0-1.073-2.549,7.6,7.6,0,0,1-.45-1.241q-1.96-8.666-3.9-17.337a5.192,5.192,0,0,0-.282-1.03c-1.692-3.691-2.067-7.727-3-11.614a7.741,7.741,0,0,1,.144-2.873c.282-1.817.657-3.619,1.006-5.426a1.073,1.073,0,0,1,.26-.578.886.886,0,0,0,.164-1.194,1.964,1.964,0,0,1-.111-.873c.022-.513.1-1.022.152-1.534.018-.172-.049-.4.039-.511,1.117-1.418.439-3.193.955-4.732a17.676,17.676,0,0,0,.426-2.039c.435-2.088,1-4.16,1.257-6.269.138-1.146.6-2.3.275-3.5a1.454,1.454,0,0,1,.17-.715,9.916,9.916,0,0,0,.6-1.729c.149-1.038.1-2.1.243-3.143.15-1.12.417-2.224.635-3.335a26.726,26.726,0,0,0,.678-3.6c.079-1.448,1.04-2.3,1.838-3.261a25.576,25.576,0,0,0,4.718-7.185c.089-.237.027-.527.1-.776.1-.358.254-.7.4-1.082.311.074.52.063.637.161,1.405,1.168,3.113,1.281,4.819,1.565a9.188,9.188,0,0,1,3.076.587,6.447,6.447,0,0,0,2.36.3q3.313.283,6.627.543a2.387,2.387,0,0,0,.923.015,5.858,5.858,0,0,1,3.133.216,21.323,21.323,0,0,1,3.812,1.459c0,.034.023.09,0,.117-1.221,1.7-1.422,3.777-2.157,5.648a28.1,28.1,0,0,0-1.358,5.783,22.921,22.921,0,0,0,1.117,11.391c.81,2.339,2.467,3.954,4.062,5.66a5.522,5.522,0,0,0,1.244.755c.449.271.882.573,1.346.815a5.259,5.259,0,0,0,1.193.479,10.575,10.575,0,0,1,3.527.939c.035,1.216.588,2.381.2,3.738-.223.782.208,1.739.286,2.622.062.7,0,1.4.049,2.1.164,2.342.306,4.687.547,7.021a24.407,24.407,0,0,1,.435,4.329,17.5,17.5,0,0,0,.624,4.746c.968,4.519,2.006,9.024,3.037,13.529.327,1.43.706,2.849,1.094,4.264a3.425,3.425,0,0,0,.533,1.212,7.128,7.128,0,0,1,.981,2.866c-.586.175-1.119.336-1.654.493-2.085.614-4.159,1.272-6.26,1.828-2.705.715-5.429,1.365-8.153,2.008-1.775.419-3.569.759-5.348,1.165-.87.2-1.078.511-.9,1.313.556,2.474,1.135,4.942,1.707,7.413a4.715,4.715,0,0,0,.155.511c.364,1.044.72,1.3,1.794,1.07,1.477-.323,2.927-.763,4.4-1.114q10.324-2.461,20.652-4.9c.477-.113.959-.2,1.43-.338,1.2-.342,1.645-1.287.842-2.175-.884-.978-.954-2.166-1.3-3.295-.39-1.275-.732-2.567-1.18-3.821-.442-1.238-.736-1.348-2.016-1.061C8910.593,1469.6,8909.868,1469.751,8909.168,1469.9Zm-25.956-3.781-.105.03a14.36,14.36,0,0,0,1.029,3.422,13.291,13.291,0,0,1,1.308,3.31,2.279,2.279,0,0,0,.184.5.781.781,0,0,0,1.012.4.828.828,0,0,0,.6-1.041,3.881,3.881,0,0,0-.365-.7c-.159-.357-.478-.77-.4-1.082a6.448,6.448,0,0,0-.193-3.14,1.219,1.219,0,0,1,.115-.774,3.023,3.023,0,0,0,.1-1.956,10.372,10.372,0,0,1-.349-3.027,11.774,11.774,0,0,0-1.077-6.492,43.819,43.819,0,0,1-1.678-4.863,3.986,3.986,0,0,0-1.057-2.106,1.637,1.637,0,0,1-.393-.832,19.944,19.944,0,0,1-.614-2.867c-.314-3.5-2.151-6.55-2.816-9.939a.363.363,0,0,0-.119-.233c-.216-.128-.5-.369-.663-.306a.935.935,0,0,0-.534.632,13.325,13.325,0,0,0,0,2.913c.374,2.28.861,4.543,1.339,6.8.285,1.348.649,2.678.952,4.022a1.731,1.731,0,0,1,.019.921,6.314,6.314,0,0,0,.137,3.665c.369,1.692.8,3.371,1.171,5.063.351,1.595.464,3.265,1.629,4.573a1.424,1.424,0,0,1,.224.619C8882.856,1464.471,8883.032,1465.3,8883.212,1466.123Zm-2.887-36.046a9.2,9.2,0,0,0,1.723-.509c.343-.177.783-.608.784-.928a14.011,14.011,0,0,1,.748-3.583c.377-1.4-.474-2.267-1.862-1.947a4.3,4.3,0,0,0-.766.229c-1.375.608-2.748,1.219-4.114,1.849-1.6.738-3.168,1.539-4.784,2.231-1.509.646-3.09,1.123-4.586,1.793a19.43,19.43,0,0,0-2.562,1.58.689.689,0,0,0-.276.439,19.608,19.608,0,0,0-.3,3.153,1.641,1.641,0,0,0,2.766,1.289,6.593,6.593,0,0,1,2.769-1.221,7.309,7.309,0,0,0,1.133-.376c.941-.377,1.874-.773,2.812-1.159a28.067,28.067,0,0,0,4.03-1.717C8878.665,1430.7,8879.312,1429.952,8880.325,1430.077Zm-24.078,14.956-.018-.079c.693-.152,1.392-.281,2.076-.462.472-.124.987-.272.891-.943-.078-.542-.529-.782-1.248-.594-1.328.348-2.646.739-3.964,1.124-.465.136-.829.392-.663.955.146.5.561.507.977.422C8854.949,1445.324,8855.6,1445.175,8856.247,1445.033Zm5.343,18.83-.007-.031a19.921,19.921,0,0,0,2.074-.482.86.86,0,0,0,.454-.692.8.8,0,0,0-.642-.47c-1.356.234-2.707.519-4.041.856-.2.051-.5.574-.434.682a1.071,1.071,0,0,0,.769.505A12.131,12.131,0,0,0,8861.59,1463.864Z" transform="translate(-302.146 -88.59)" fill="#6d5454"/><path d="M9115.466,1540.074c-5.121,1.226-10.18,2.281-15.17,3.23-.392-1.788-.749-3.38-1.08-4.977-.06-.285-.129-.7.02-.872.572-.653.327-1.329.2-2.023a72.362,72.362,0,0,1-1.117-7.511,58.335,58.335,0,0,0-1.216-6.548,41.527,41.527,0,0,1-1-5.9,35.425,35.425,0,0,0-1.18-5.707c.523-.318,1.131-.651,1.7-1.041.87-.6,1.72-1.229,2.566-1.863a3.614,3.614,0,0,0,.667-.642c.9-1.145,1.781-2.309,2.684-3.454.3-.383.678-.708.966-1.1.308-.419.553-.885.822-1.331.52-.854,1.039-1.709,1.662-2.736a8.818,8.818,0,0,1,.386.972c.925,3.8,1.835,7.609,2.762,11.411.735,3.021,1.5,6.034,2.229,9.057.165.688.236,1.4.335,2.1s.135,1.42.275,2.115q1.329,6.6,2.7,13.2C9114.917,1537.623,9115.184,1538.784,9115.466,1540.074Z" transform="translate(-494.035 -175.214)" fill="#6d5454"/><path d="M9041.946,1779.124c1.6,1.9,1.924,4.107,2.4,6.259.132.6-.2.772-.691.9-3.5.884-6.979,1.81-10.479,2.671-3.847.946-7.709,1.829-11.561,2.755-.69.166-1.36.413-2.046.6-.736.2-1.242.059-1.405-.592-.521-2.067-.952-4.156-1.409-6.238-.015-.071.063-.162.158-.389.384-.084.855-.184,1.327-.291,4.168-.943,8.344-1.85,12.5-2.845,2.593-.621,5.151-1.392,7.734-2.06C9039.667,1779.583,9040.884,1779.356,9041.946,1779.124Z" transform="translate(-432.545 -396.642)" fill="#6d5454"/><path d="M9084.471,1557.044c.133.435.289.833.375,1.246.881,4.224,1.746,8.45,2.628,12.674.182.869.4,1.731.626,2.591a2.2,2.2,0,0,1-.122,1.906,2.13,2.13,0,0,0,0,1.29c.259,1.534.632,3.052.824,4.593a77.441,77.441,0,0,1,.983,9.513c0,1.8.1,3.595.158,5.487-.713-.088-.8-.572-.911-1.019-.323-1.34-.647-2.68-.948-4.026q-.973-4.361-1.92-8.727c-.216-1-.393-2.007-.585-3.011a1.389,1.389,0,0,1-.069-.526c.487-2.144-.345-4.122-.758-6.152-.175-.86-.526-1.7.021-2.583.134-.215.024-.6-.022-.906a6.891,6.891,0,0,1-.077-3.007,7.63,7.63,0,0,0-.254-2.361c-.056-.65.03-1.314-.052-1.958-.155-1.226-.353-2.449-.6-3.66C9083.651,1557.795,9083.537,1557.274,9084.471,1557.044Z" transform="translate(-485.199 -221.967)" fill="#6d5454"/><g transform="translate(8466.816 1281.662)"><path d="M8713.1,1311.684s3.668,4.536.58,11.137c-.684,1.46-1.216,2.6-1.63,3.484l-1.457,3.117s-.192,3.695-.517,8.278c-.329,4.632-.795,10.176-1.339,13.737,0,0,7.614,15.278,3,26.246s-7.735,11.124-7.735,11.124c.3-.892-2.921-16.946-4.442-25.537-.436-2.455-.731-4.3-.767-5.012-.082-1.61.166-8.025.6-14.5.429-6.427,1.043-12.909,1.7-14.8C8702.409,1325.161,8713.1,1311.684,8713.1,1311.684Z" transform="translate(-8649.261 -1310.642)" fill="#ffb27d"/><path d="M8712.049,1380.177l-1.974,11.395-.622,3.589s-3.361,13.819-9.9,21.981c-.436-2.456-.731-4.3-.767-5.012-.082-1.61.166-8.025.6-14.5,2.11-4.256,5.362-10.589,6.479-11.473C8707.572,1384.809,8712.049,1380.177,8712.049,1380.177Z" transform="translate(-8649.261 -1364.515)" fill="#f6a56e"/><path d="M8640.111,1752.021s11.02,9.512,11.811,18.805a11.013,11.013,0,0,1-.293,3.736c-.262,1-.575,2.079-.925,3.2,0,.007,0,.011,0,.015-.093.288-.187.583-.284.88v0c0,.011-.006.018-.011.029-2.8,8.647-7.621,19.767-9.132,23.2-.3.679-.474,1.058-.474,1.058l-.846-.793-8.578-8.037-16.954-15.879,16.475-16.814,0-.008Z" transform="translate(-8582.914 -1656.986)" fill="#ffb27d"/><path d="M8722.378,1350.849s.043.165.1.455c.259,1.334.784,5.3-1.461,7.849a69.956,69.956,0,0,1-6.157,5.558c-2.992,2.483-5.88,4.741-6.062,4.887a.021.021,0,0,1-.009.005c-1,5.066-3.287,13.217-3.988,16.332a7.25,7.25,0,0,0-.211,1.169c0,2.407,6.872,4.55,10.8,15.991a45.293,45.293,0,0,1,1.869,7.656c.078.489.163.943.251,1.366a14.826,14.826,0,0,0,1.643,4.647c.056.091.081.2.154.256,17.475,13.853,11.75,17.541,6.605,23.868-1.111,1.364-2.136,2.652-3.085,3.871,0,0-.006,0-.008.008-8.205,10.5-10.681,15.563-11.411,17.461,0,.007,0,.011,0,.014a6.071,6.071,0,0,0-.284.88v0c-.006.021-.008.032-.008.032l0,0-3.469-3.071-16.041-14.2,0-.008c.217-.3,7.155-9.872,4.8-21.712-2.676-13.434-5.074-26.975-4.277-31.512.942-5.375,6.827-25.264,8.028-26.878C8706.061,1357.844,8715.171,1356.935,8722.378,1350.849Z" transform="translate(-8643.618 -1341.448)" fill="#ffb27d"/><path d="M8720.713,1790.831c-8.205,10.5-10.681,15.563-11.411,17.461,0,.007,0,.011,0,.014-.093.288-.187.583-.284.88v0c0,.021-.007.032-.007.032l0,0c-2.8,8.647-7.621,19.767-9.133,23.2l-10.948,2.2,1.051-9.975.475-4.5c.251-.143,7.571-6.836,15.087-14,1.676-1.6,3.364-3.22,4.985-4.8C8714.918,1797.07,8718.822,1793.113,8720.713,1790.831Z" transform="translate(-8641.512 -1687.512)" fill="#ed985f"/><path d="M8732.5,1490.684l8.008-8.168c-9.255-16.038-9.832-23.442-9.832-26.309,0-1.1,3.3-11.595,4.2-17.5-2.387,7.709-10.009,19.975-10.009,19.975C8723.7,1463.182,8733.069,1490.048,8732.5,1490.684Z" transform="translate(-8669.701 -1410.55)" fill="#ed985f"/><path d="M8747.521,1313.564a2.414,2.414,0,0,0,.562-.518s1.449-1.857,2.509-3.222a2.33,2.33,0,0,0-.127-3.011c-.189-.2-3.35,3.279-5.493,6.8A2.4,2.4,0,0,0,8747.521,1313.564Z" transform="translate(-8685.597 -1306.806)" fill="#ffc69f"/><path d="M8753.379,1467.562c1.438-.238,5.766,2.424,9.42,4.908,3.077,2.091,5.679,4.057,5.679,4.057a5.061,5.061,0,0,1-1,1.181,5.738,5.738,0,0,1-.605.484h0a7.093,7.093,0,0,1-5.2,1.088,78.763,78.763,0,0,1-8.472-1.927l0,0s-3.046,5.918-4.527,8.066l0,0a.046.046,0,0,0,.007.016v0c.19.535,4.567,12.921,3.5,18.467a5.666,5.666,0,0,1-.259.936,15.019,15.019,0,0,1-2.329,3.76c-3.819,4.753-10.692,9.853-12.992,7.265-.565-.641-1.8-31.028.075-34.754a15.506,15.506,0,0,1,2.794-3.389C8743.768,1473.456,8751.354,1467.9,8753.379,1467.562Z" transform="translate(-8678.28 -1433.236)" fill="#ffb27d"/><path d="M8801.074,1511.732s-3.046,5.918-4.528,8.066c.069-.164,2.324-5.445,2.025-6.935C8798.267,1511.355,8800.364,1510.766,8801.074,1511.732Z" transform="translate(-8726.162 -1467.618)" fill="#f6a56e"/><path d="M8830.171,1506.805c1.124-1.486,1.742-.354,1.891,1.234.023.241.034.492.038.747a2.259,2.259,0,0,1-.645-.263h0a7.091,7.091,0,0,1-5.2,1.088,78.732,78.732,0,0,1-8.472-1.927c.224.047,9.075,1.956,11.969-.443A2.559,2.559,0,0,0,8830.171,1506.805Z" transform="translate(-8742.863 -1463.568)" fill="#f6a56e"/><path d="M8808.182,1352.985c.258,1.334.784,5.3-1.463,7.849a69.96,69.96,0,0,1-6.155,5.557c3.083-2.966,6.1-6.854,5.671-10.444A8.9,8.9,0,0,1,8808.182,1352.985Z" transform="translate(-8729.323 -1343.128)" fill="#f6a56e"/><path d="M8810.325,1353.148a2.412,2.412,0,0,0,.678-.352s1.886-1.412,3.266-2.451a2.275,2.275,0,0,0,.9-2.246c-.1-.259-4.344,1.672-7.337,4.51A2.4,2.4,0,0,0,8810.325,1353.148Z" transform="translate(-8735.038 -1339.266)" fill="#ffc69f"/><path d="M8796.568,1551.367c.19.535,5.95,15.528,5.146,23.114-.063,3.348-.584,5.593-1.632,5.34-1.417-.34-2.219-2.575-2.6-5.291a31.055,31.055,0,0,1,.268-10.1,12.534,12.534,0,0,0,.2-3.618A70.6,70.6,0,0,0,8796.568,1551.367Z" transform="translate(-8726.181 -1499.163)" fill="#f6a56e"/><g transform="translate(0 112.265)"><path d="M8466.816,1862.6l16.728-18.585c.053-.05.1-.106.151-.158.089-.09.172-.18.253-.274a2.1,2.1,0,0,0,.155-.177c.132-.152.261-.3.385-.461.061-.076.122-.158.182-.234s.121-.158.183-.239c.167-.227.33-.46.481-.688s.308-.475.449-.715c.078-.121.147-.239.211-.353s.139-.243.2-.359c.049-.085.1-.171.141-.254.752-1.4,1.319-2.762,1.918-3.933v-.005c.831-1.628,1.723-2.9,3.248-3.376,1.221-.383,5.408,1.6,10.692,4.995a126.478,126.478,0,0,1,16.479,12.71,79.715,79.715,0,0,1,8.865,9.4l0,0c3.428,4.384,5.745,8.744,6,12.594,0,0,.642,1.5-.765,4.042l-.007,0c-.044.083-.092.174-.146.264l-.013.01a16.123,16.123,0,0,1-3.015,3.569c-.106.1-.214.2-.314.3-.029.03-.062.057-.091.088-.086.087-.177.175-.258.263-.1.1-.194.2-.287.3s-.2.213-.289.325c-.078.086-.153.174-.226.26-.235.295-.451.582-.643.864-.04.059-.077.121-.114.177-.019.026-1.5,2.276-3.833,5.82C8504.855,1880.6,8485.966,1871.613,8466.816,1862.6Z" transform="translate(-8466.816 -1832.74)" fill="#f1a34f"/></g><g transform="translate(138.519 27.8)"><path d="M9281.584,1454.8s-8.279,1.375-11.412-2.4a12.635,12.635,0,0,1-2.351-4.957,15.107,15.107,0,0,1-.466-3.786c.027-1.368.322-2.342.836-2.478C9269.635,1440.785,9281.584,1454.8,9281.584,1454.8Z" transform="translate(-9234.991 -1440.29)" fill="#ffb27d"/><path d="M9271.714,1441.6l-1.84-2.527a2.426,2.426,0,0,1-.4-2.019l0-.013s2.383,2.06,3.147,2.8c.546.528,2.1,2.274,2.1,2.274A2.054,2.054,0,0,1,9271.714,1441.6Z" transform="translate(-9236.604 -1437.042)" fill="#ffc69f"/><path d="M9267.821,1456.606a15.107,15.107,0,0,1-.466-3.786c1.17,1.124,5.409,5.331,6.428,7.759C9274.588,1462.487,9270.456,1459.261,9267.821,1456.606Z" transform="translate(-9234.991 -1449.452)" fill="#f6a56e"/><path d="M9348.153,1751.027l-1.054.678-11.041,7.123-16.486,10.629s-.1-.424-.285-1.177c-.682-2.851-2.449-10.432-3.7-17.638-.317-1.8-.594-3.582-.818-5.257a.026.026,0,0,0-.008-.011.016.016,0,0,0,0-.017c-.037-.283-.074-.562-.107-.837-.139-1.12-.252-2.183-.326-3.166a13.824,13.824,0,0,1,.915-5.559,33.84,33.84,0,0,1,3.267-6.5c1.035-1.646,2.172-3.239,3.307-4.721a85.108,85.108,0,0,1,7.262-8.262.227.227,0,0,1,0,.024c.05.417.747,6.034,1.89,8.527.679,1.476,4.758,7.822,4.758,7.822l0,0,12.118,17.9Z" transform="translate(-9271.917 -1656.7)" fill="#ffb27d"/><path d="M9176.8,1521.472s-2.21,7.961-5.413,8.778-11.674-6.663-16.9-17.159,10.586-30.566,10.586-30.566c-1.082.174-6.485-3.517-11.339-6.921-4.179-2.932-7.953-5.651-8.213-5.51-.373.2-6.437.24-11.861.064-2.8-.093-5.424-.241-7.01-.453a6.461,6.461,0,0,1-5.137-3.838,6.29,6.29,0,0,1-.442-1.24s3.659-.9,8.409-1.832c6.219-1.218,14.3-2.471,18.467-1.788,7.345,1.2,22.623,11.69,26.959,15.181S9176.8,1521.472,9176.8,1521.472Z" transform="translate(-9119.936 -1455.742)" fill="#ffb27d"/><path d="M9125.292,1470.1a2.638,2.638,0,0,1-2.144,2.412l-5.078.942a3.157,3.157,0,0,1-1.853-.086,5.594,5.594,0,0,1-.472-1.235S9119.9,1471.142,9125.292,1470.1Z" transform="translate(-9115.746 -1463.043)" fill="#ffc69f"/><path d="M9213.646,1501.74c.287.619-6.139-.669-13.523-2.328-4.18-2.932-7.952-5.651-8.213-5.51-.373.2-6.437.24-11.861.064a21.664,21.664,0,0,1,15.168-2.4C9204.5,1493.588,9212.979,1500.307,9213.646,1501.74Z" transform="translate(-9166.322 -1479.548)" fill="#f6a56e"/><path d="M9181.762,1504.639l-2.295,43.421s-20.852-2.828-23.594-14.845c-.423-1.859,6.3-1.737,7.116-3.116,3.091-5.228,1.878-14.411,1.878-14.411-2.893-1.171-12.107-10.087-18.066-7.264-4.06,1.923-6.9,4.364-10.5,2.635a9.145,9.145,0,0,1-1.729-1.679l10.214-6.517c2.784-1.757,5.068-2.595,7.731-2.23Z" transform="translate(-9130.551 -1486.993)" fill="#ffb27d"/><path d="M9136.6,1530.067l-2.473.839a1.95,1.95,0,0,1-1.7-.209l-.009-.006,5.3-3.19A2.012,2.012,0,0,1,9136.6,1530.067Z" transform="translate(-9128.865 -1508.192)" fill="#ffc69f"/><g transform="translate(14.652 30.466)"><path d="M9223.94,1625.4l-.748,1.619-4.886,10.595-4.6,9.97,0,0s-3.284-17.058-10.389-18.284-14.489-16.717-16.14-28.41c-1.05-7.423-2.671-11.5-2.365-13.612.176-1.222.988-1.795,2.919-1.983a3.152,3.152,0,0,1,1.992.5c4.046,2.46,6.493,13.062,8.829,15.154.663.594,2.539,2.374,4.983,4.724,4.864,4.662,11.987,11.559,16.4,15.838C9222.339,1623.844,9223.94,1625.4,9223.94,1625.4Z" transform="translate(-9184.688 -1584.108)" fill="#ffb27d"/><path d="M9189.5,1588.637h0a2.658,2.658,0,0,1-3.523-1.2l-1.418-4.329a2.35,2.35,0,0,1,1.514-3.122h0a2.393,2.393,0,0,1,3.258,1.3l1.914,4.065A2.658,2.658,0,0,1,9189.5,1588.637Z" transform="translate(-9184.386 -1579.769)" fill="#ffc69f"/></g><path d="M9285.731,1827.414c-.681-2.851-2.448-10.432-3.7-17.638l0,0s-3.283-17.058-10.389-18.283a17.438,17.438,0,0,1,10.049,3.433,21.306,21.306,0,0,1,3.9,3.621c.354.416.7.84,1.04,1.254,5.684,6.989,9.528,13.6,14.826,13.574C9305.94,1813.362,9291.677,1823.372,9285.731,1827.414Z" transform="translate(-9238.363 -1715.833)" fill="#ed985f"/></g><path d="M9324.029,1933.872c-3.451-11.547-6.641-23.227-9.028-32.81-.8-3.194-1.5-6.159-2.1-8.807-.038-.163-.073-.323-.111-.485-.716-2.132-4.681-6.093-7.212-9.431a14.275,14.275,0,0,1-2.054-3.569.035.035,0,0,0-.007-.014c-.034-.087-.06-.17-.088-.251l0,0c-.821-2.433-.027-3.631-.027-3.631.729-2.9,2.9-5.887,5.9-8.786a73.011,73.011,0,0,1,13.694-9.9,111.121,111.121,0,0,1,13.459-6.63c4.933-2.008,8.709-3,9.684-2.488,1.248.653,1.824,1.895,2.286,3.443a79.925,79.925,0,0,1,1.526,7.994c.414,7.447,1.521,10.643,2.368,12.2.251.378.5.761.76,1.151a2.371,2.371,0,0,1,.269.412c8.121,12.386,19.475,30.13,29.146,46.8A166.312,166.312,0,0,1,9324.029,1933.872Z" transform="translate(-9124.553 -1731.635)" fill="#f1a34f"/><path d="M8861.577,1490.571c3.546,2.11,6.342,4.015,7.161,5.117,0,0-.1.116-.306.311a2.315,2.315,0,0,1-2.143.565,2.234,2.234,0,0,1-.644-.263h0a2.547,2.547,0,0,1-.217-.147l-1.488-1.135c-.947-.721-1.759-1.343-1.759-1.343a2.436,2.436,0,0,1-.522-.557,2.4,2.4,0,0,1-.084-2.54Z" transform="translate(-8777.054 -1451.345)" fill="#ffc69f"/><g transform="translate(64.247 40.817)"><g transform="translate(3.478)"><path d="M8816.118,1499.029l2.017-1.006-2.185.561-31.858,12,.2.536Z" transform="translate(-8784.092 -1498.023)" fill="#dddedf"/></g><circle cx="1.994" cy="1.994" r="1.994" transform="translate(0 12.597) rotate(-33.999)" fill="#aa0075"/><ellipse cx="1.55" cy="1.665" rx="1.55" ry="1.665" transform="translate(0.464 12.227) rotate(-20.718)" fill="#c80086"/><ellipse cx="0.786" cy="0.81" rx="0.786" ry="0.81" transform="matrix(0.935, -0.354, 0.354, 0.935, 0.971, 12.948)" fill="#cf599a"/></g><g transform="translate(68.265 46.918)"><path d="M8805.479,1562.26s-5.572-26.88-4.616-31.864c0,0-3.775-1.149-6.25,4.41s-.875,20.236-2.966,23.913c-7.852,13.812-4.154,22.81-4.154,22.81S8810.939,1588.774,8805.479,1562.26Z" transform="translate(-8786.622 -1529.509)" fill="#ffb27d"/><path d="M8839.136,1533.507a2.418,2.418,0,0,1-.042-.763s.256-2.342.448-4.059a2.331,2.331,0,0,1,2.19-2.069c.279-.014.435-.008.435-.008a21.39,21.39,0,0,1-.01,8.771C8841.252,1535.171,8839.33,1534.39,8839.136,1533.507Z" transform="translate(-8827.884 -1526.606)" fill="#ffc69f"/></g></g><g transform="translate(8568.455 1411.094)"><g transform="translate(0 0)"><g transform="translate(1.577 1.787)"><path d="M8959.461,1936.974l.7.947-.487-1.074-9.065-15.31-.257.153Z" transform="translate(-8950.353 -1921.537)" fill="#dddedf"/></g><circle cx="1.042" cy="1.042" r="1.042" transform="translate(0 1.448) rotate(-43.991)" fill="#aa0075"/><ellipse cx="0.87" cy="0.81" rx="0.87" ry="0.81" transform="translate(0.236 1.094) rotate(-30.71)" fill="#c80086"/><ellipse cx="0.423" cy="0.411" rx="0.423" ry="0.411" transform="translate(0.679 0.964) rotate(-30.712)" fill="#cf599a"/></g><path d="M8953.521,1930.806l2.133-1.4,1.109,2.027-1.834,1.593Z" transform="translate(-8951.269 -1925.939)" fill="#6d5454"/><path d="M8968.712,1957.713l2.133-1.4,1.109,2.027-1.834,1.593Z" transform="translate(-8963.217 -1947.103)" fill="#6d5454"/><path d="M8981.117,1976.932l2.132-1.4,1.11,2.027-1.834,1.593Z" transform="translate(-8972.974 -1962.219)" fill="#6d5454"/></g><g transform="translate(8612.601 1412.655)"><g transform="translate(0 0)"><g transform="translate(0 1.382)"><path d="M9150.884,1931.554l-1.1.417,1.166-.176,17.2-4.549-.076-.289Z" transform="translate(-9149.782 -1926.956)" fill="#dddedf"/></g><circle cx="1.042" cy="1.042" r="1.042" transform="matrix(0.882, -0.472, 0.472, 0.882, 17.356, 0.984)" fill="#aa0075"/><ellipse cx="0.81" cy="0.87" rx="0.81" ry="0.87" transform="matrix(0.966, -0.257, 0.257, 0.966, 17.904, 0.74)" fill="#c80086"/><ellipse cx="0.411" cy="0.423" rx="0.411" ry="0.423" transform="matrix(0.966, -0.257, 0.257, 0.966, 18.679, 0.996)" fill="#cf599a"/></g><path d="M9212.126,1926.268l.766,2.433-2.253.516-1.032-2.2Z" transform="translate(-9196.837 -1925.032)" fill="#6d5454"/><path d="M9182.1,1933.55l.766,2.433-2.253.516-1.032-2.2Z" transform="translate(-9173.218 -1930.76)" fill="#6d5454"/><path d="M9160.226,1940.246l.766,2.433-2.253.516-1.032-2.2Z" transform="translate(-9156.015 -1936.027)" fill="#6d5454"/></g><g transform="translate(8611.161 1339.203)"><g transform="translate(0.998 0)"><path d="M9148.037,1577.5l-.322-1.133.076,1.177,3.084,17.523.295-.052Z" transform="translate(-9147.715 -1576.372)" fill="#dddedf"/><circle cx="1.042" cy="1.042" r="1.042" transform="matrix(0.918, -0.396, 0.396, 0.918, 2.018, 18.576)" fill="#aa0075"/><ellipse cx="0.87" cy="0.81" rx="0.87" ry="0.81" transform="matrix(0.985, -0.175, 0.175, 0.985, 2.415, 18.62)" fill="#c80086"/><ellipse cx="0.423" cy="0.411" rx="0.423" ry="0.411" transform="translate(2.974 19.215) rotate(-10.063)" fill="#cf599a"/></g><path d="M9155.407,1640.3l-2.489.558-.323-2.288,2.277-.844Z" transform="translate(-9150.555 -1624.628)" fill="#6d5454"/><path d="M9150.682,1609.763l-2.489.558-.324-2.288,2.278-.844Z" transform="translate(-9146.837 -1600.61)" fill="#6d5454"/><path d="M9145.852,1587.4l-2.489.558-.324-2.288,2.278-.844Z" transform="translate(-9143.038 -1583.024)" fill="#6d5454"/></g><g transform="translate(8564.628 1303.914)"><g transform="translate(0 0.029)"><g transform="translate(1.624 1.073)"><path d="M8950.382,1417.972l1.178-.021-1.157-.227-17.728-1.509-.025.3Z" transform="translate(-8932.649 -1416.215)" fill="#dddedf"/></g><circle cx="1.042" cy="1.042" r="1.042" transform="translate(0 0.308) rotate(-8.497)" fill="#aa0075"/><ellipse cx="0.87" cy="0.81" rx="0.87" ry="0.81" transform="translate(0.157 1.972) rotate(-85.216)" fill="#c80086"/><ellipse cx="0.423" cy="0.411" rx="0.423" ry="0.411" transform="matrix(0.083, -0.997, 0.997, 0.083, 0.309, 1.536)" fill="#cf599a"/></g><path d="M8945.651,1413.6l.1-2.549,2.295.273.232,2.418Z" transform="translate(-8941.252 -1411.053)" fill="#6d5454"/><path d="M8976.378,1416.856l.1-2.549,2.295.273L8979,1417Z" transform="translate(-8965.42 -1413.612)" fill="#6d5454"/><path d="M8999.229,1417.915l.1-2.549,2.295.273.232,2.418Z" transform="translate(-8983.393 -1414.446)" fill="#6d5454"/></g></g></svg>