<svg xmlns="http://www.w3.org/2000/svg" width="574.488" height="330.695" viewBox="0 0 574.488 330.695"><g transform="translate(-2316.199 -318.529)"><path d="M2999.688,371.883c-60.314-2.437-37.481,93.955,32.484,89.457S3049.164,373.883,2999.688,371.883Z" transform="translate(-284.638 -23.391)" fill="#f7f1d7"/><g transform="translate(2726.03 348.586)"><g transform="translate(0)"><g transform="translate(54.622 9.612)"><g transform="translate(32.719 19.173)"><path d="M3203.749,425.976a.378.378,0,0,0,.313-.589c-.423-.628-.867-1.254-1.319-1.862a.377.377,0,1,0-.606.451c.445.6.882,1.215,1.3,1.833A.378.378,0,0,0,3203.749,425.976Z" transform="translate(-3202.063 -423.373)" fill="#b5ac84"/></g><g transform="translate(6.229 1.213)"><path d="M3178.88,406.794c-.888-1.006-1.831-1.988-2.8-2.918a.377.377,0,0,1,.522-.545c.985.944,1.942,1.941,2.844,2.963a.377.377,0,0,1-.566.5Zm-5.836-5.591c-1.045-.846-2.138-1.656-3.248-2.41a.377.377,0,0,1,.425-.624c1.127.765,2.237,1.588,3.3,2.447a.377.377,0,1,1-.475.587Zm-6.686-4.539c-1.171-.658-2.385-1.275-3.6-1.832a.377.377,0,1,1,.313-.686c1.24.565,2.473,1.191,3.662,1.86a.378.378,0,0,1-.185.707A.373.373,0,0,1,3166.358,396.664Zm-7.353-3.352c-1.265-.452-2.565-.855-3.862-1.2a.378.378,0,0,1,.193-.73c1.317.348,2.637.757,3.923,1.216a.378.378,0,1,1-.254.711Z" transform="translate(-3154.863 -391.373)" fill="#b5ac84"/></g><path d="M3146.382,390.3a.377.377,0,0,0,.065-.749c-.745-.131-1.5-.246-2.257-.341a.377.377,0,1,0-.1.749c.741.094,1.488.207,2.222.336A.379.379,0,0,0,3146.382,390.3Z" transform="translate(-3143.764 -389.211)" fill="#b5ac84"/></g><g transform="translate(0 10.484)"><g transform="translate(35.218)"><path d="M3109.569,392.085a.387.387,0,0,0,.1-.014c.719-.2,1.451-.393,2.176-.561a.377.377,0,0,0-.171-.735c-.737.171-1.48.363-2.211.57a.378.378,0,0,0,.1.741Z" transform="translate(-3109.192 -390.764)" fill="#b5ac84"/></g><g transform="translate(0 2.031)"><path d="M3094.584,488.727c-1.544-.021-3.1-.115-4.629-.281a.377.377,0,1,1,.081-.75c1.5.163,3.038.255,4.558.276a.377.377,0,0,1,0,.755Zm4.229-.5a.376.376,0,0,1,.346-.406c1.516-.122,3.04-.317,4.53-.581a.377.377,0,1,1,.132.743c-1.514.268-3.062.466-4.6.59h-.03A.377.377,0,0,1,3098.813,488.228Zm-13.44-.5c-1.51-.311-3.022-.7-4.494-1.151a.377.377,0,0,1,.221-.721c1.449.446,2.938.827,4.425,1.133a.378.378,0,0,1-.076.748A.4.4,0,0,1,3085.373,487.73Zm22.507-1.034a.377.377,0,0,1,.263-.464c1.462-.406,2.921-.887,4.336-1.431a.377.377,0,1,1,.271.7c-1.438.552-2.92,1.041-4.405,1.453a.377.377,0,0,1-.465-.263ZM3076.516,485c-1.421-.591-2.831-1.259-4.192-1.985a.377.377,0,1,1,.355-.666c1.34.714,2.729,1.372,4.128,1.954a.378.378,0,1,1-.291.7Zm39.975-1.536a.377.377,0,0,1,.17-.506c1.357-.676,2.7-1.426,3.987-2.229a.377.377,0,0,1,.4.64c-1.309.816-2.671,1.578-4.049,2.264a.378.378,0,0,1-.506-.17Zm-48.152-2.824c-1.284-.85-2.543-1.773-3.742-2.742a.377.377,0,1,1,.474-.587c1.18.954,2.42,1.862,3.685,2.7a.377.377,0,0,1-.209.692A.374.374,0,0,1,3068.338,480.644Zm56-1.978a.378.378,0,0,1,.071-.529c1.2-.92,2.381-1.909,3.5-2.941a.378.378,0,0,1,.513.555c-1.132,1.047-2.327,2.052-3.55,2.987a.377.377,0,0,1-.529-.071Zm-63.2-3.847c-1.1-1.078-2.165-2.221-3.16-3.4a.378.378,0,0,1,.577-.488c.979,1.158,2.026,2.283,3.111,3.344a.378.378,0,1,1-.528.54Zm70-2.348a.377.377,0,0,1-.03-.533c1.012-1.132,1.981-2.325,2.88-3.545a.378.378,0,0,1,.608.448c-.913,1.24-1.9,2.451-2.925,3.6a.378.378,0,0,1-.533.03Zm-75.988-4.729c-.879-1.265-1.708-2.588-2.464-3.931a.377.377,0,0,1,.658-.37c.743,1.322,1.56,2.624,2.426,3.87a.378.378,0,0,1-.62.431Zm81.5-2.633a.378.378,0,0,1-.13-.518c.78-1.3,1.507-2.656,2.16-4.024a.377.377,0,0,1,.681.324c-.663,1.391-1.4,2.766-2.193,4.088a.379.379,0,0,1-.518.13Zm-86.043-5.445c-.625-1.41-1.188-2.866-1.674-4.328a.377.377,0,0,1,.716-.239c.479,1.439,1.033,2.872,1.648,4.26a.377.377,0,1,1-.689.306Zm90.064-2.825a.378.378,0,0,1-.226-.484c.519-1.425.975-2.893,1.355-4.361a.378.378,0,0,1,.732.189c-.387,1.492-.85,2.982-1.377,4.43a.378.378,0,0,1-.355.249A.373.373,0,0,1,3140.665,456.84Zm-92.991-5.969c-.344-1.5-.62-3.036-.82-4.565a.377.377,0,0,1,.748-.1c.2,1.506.469,3.018.807,4.495a.377.377,0,0,1-.283.452.372.372,0,0,1-.085.01A.377.377,0,0,1,3047.674,450.87Zm95.366-2.914a.378.378,0,0,1-.313-.432c.238-1.5.407-3.023.5-4.539a.377.377,0,0,1,.753.047c-.1,1.54-.269,3.091-.51,4.61a.377.377,0,0,1-.372.318A.368.368,0,0,1,3143.04,447.957Zm-96.569-6.273c-.021-.587-.032-1.183-.032-1.772,0-.953.028-1.917.083-2.866a.377.377,0,1,1,.754.044c-.054.934-.082,1.884-.082,2.822,0,.58.011,1.167.032,1.745a.379.379,0,0,1-.364.391h-.014A.377.377,0,0,1,3046.471,441.683Zm.854-8.821a.378.378,0,0,1-.316-.43c.234-1.524.545-3.054.923-4.547a.377.377,0,0,1,.731.186c-.372,1.47-.677,2.976-.909,4.476a.377.377,0,0,1-.372.32A.4.4,0,0,1,3047.325,432.862Zm2.188-8.932a.377.377,0,0,1-.228-.483c.519-1.45,1.115-2.891,1.77-4.286a.377.377,0,0,1,.683.321c-.645,1.373-1.231,2.792-1.742,4.219a.376.376,0,0,1-.483.228Zm3.845-8.349a.378.378,0,0,1-.132-.517c.784-1.325,1.643-2.628,2.551-3.874a.377.377,0,1,1,.61.444c-.894,1.227-1.739,2.51-2.511,3.814a.378.378,0,0,1-.518.133Zm5.357-7.473a.378.378,0,0,1-.032-.533c1.02-1.153,2.109-2.272,3.234-3.325a.377.377,0,1,1,.516.551c-1.108,1.037-2.18,2.138-3.185,3.274a.378.378,0,0,1-.532.033Zm6.668-6.335a.377.377,0,0,1,.068-.529c1.221-.942,2.5-1.837,3.8-2.659a.377.377,0,0,1,.4.639c-1.283.809-2.543,1.69-3.744,2.618a.377.377,0,0,1-.529-.068Zm7.743-4.966a.378.378,0,0,1,.167-.507c1.377-.695,2.8-1.331,4.239-1.891a.377.377,0,0,1,.274.7c-1.414.551-2.818,1.177-4.173,1.861a.372.372,0,0,1-.17.041A.377.377,0,0,1,3073.127,396.806Z" transform="translate(-3046.439 -394.382)" fill="#b5ac84"/></g><g transform="translate(96.738 43.346)"><path d="M3219.309,471.014h.012a.377.377,0,0,0,.365-.389c-.024-.757-.066-1.523-.125-2.279a.377.377,0,1,0-.752.059c.058.744.1,1.5.124,2.244A.377.377,0,0,0,3219.309,471.014Z" transform="translate(-3218.807 -467.998)" fill="#b5ac84"/></g></g><g transform="translate(54.622 9.612)"><g transform="translate(32.719 19.173)"><path d="M3203.749,425.976a.378.378,0,0,0,.313-.589c-.423-.628-.867-1.254-1.319-1.862a.377.377,0,1,0-.606.451c.445.6.882,1.215,1.3,1.833A.378.378,0,0,0,3203.749,425.976Z" transform="translate(-3202.063 -423.373)" fill="#b5ac84"/></g><g transform="translate(6.229 1.213)"><path d="M3178.88,406.794c-.888-1.006-1.831-1.988-2.8-2.918a.377.377,0,0,1,.522-.545c.985.944,1.942,1.941,2.844,2.963a.377.377,0,0,1-.566.5Zm-5.836-5.591c-1.045-.846-2.138-1.656-3.248-2.41a.377.377,0,0,1,.425-.624c1.127.765,2.237,1.588,3.3,2.447a.377.377,0,1,1-.475.587Zm-6.686-4.539c-1.171-.658-2.385-1.275-3.6-1.832a.377.377,0,1,1,.313-.686c1.24.565,2.473,1.191,3.662,1.86a.378.378,0,0,1-.185.707A.373.373,0,0,1,3166.358,396.664Zm-7.353-3.352c-1.265-.452-2.565-.855-3.862-1.2a.378.378,0,0,1,.193-.73c1.317.348,2.637.757,3.923,1.216a.378.378,0,1,1-.254.711Z" transform="translate(-3154.863 -391.373)" fill="#b5ac84"/></g><path d="M3146.382,390.3a.377.377,0,0,0,.065-.749c-.745-.131-1.5-.246-2.257-.341a.377.377,0,1,0-.1.749c.741.094,1.488.207,2.222.336A.379.379,0,0,0,3146.382,390.3Z" transform="translate(-3143.764 -389.211)" fill="#b5ac84"/></g><g transform="translate(37.947)"><path d="M3120.044,383.478l-5.99-4.352h7.4l2.288-7.041,2.287,7.041h7.4l-5.99,4.352,2.288,7.041-5.99-4.352-5.99,4.352Zm8.256,5.065-1.739-5.354,4.554-3.309h-5.629l-1.739-5.354-1.74,5.354h-5.629l4.554,3.309-1.74,5.354,4.554-3.308Z" transform="translate(-3114.054 -372.084)" fill="#b5ac84"/></g><g transform="translate(83.908 31.655)"><path d="M3195.947,439.072a10.584,10.584,0,1,1,10.585,10.584A10.6,10.6,0,0,1,3195.947,439.072Zm1.114,0a9.47,9.47,0,1,0,9.471-9.471A9.481,9.481,0,0,0,3197.061,439.072Z" transform="translate(-3195.947 -428.487)" fill="#b5ac84"/><g transform="translate(12.757 9.123)"><path d="M3218.677,446.2a1.461,1.461,0,1,1,1.461,1.461A1.463,1.463,0,0,1,3218.677,446.2Zm.743,0a.719.719,0,1,0,.718-.719A.719.719,0,0,0,3219.42,446.2Z" transform="translate(-3218.677 -444.743)" fill="#b5ac84"/></g><g transform="translate(5.7 9.123)"><path d="M3206.1,446.2a1.461,1.461,0,1,1,1.461,1.461A1.463,1.463,0,0,1,3206.1,446.2Zm.743,0a.718.718,0,1,0,.718-.719A.719.719,0,0,0,3206.846,446.2Z" transform="translate(-3206.103 -444.743)" fill="#b5ac84"/></g></g></g></g><path d="M2420.921,646.062c-63.969-30.11-115.445-202.528-7.5-273.993s229.389-25.488,255.377,13.993,40.839,74.232,86.958,68.467c51.975-6.5,129.187,121.691,3.623,191.533Z" transform="translate(-15.222 -7.084)" fill="#f7f1d7"/><g transform="translate(2364.756 336.993)"><g transform="translate(0 0)"><path d="M2439.523,442.094a.491.491,0,0,1,.1-.977,45.476,45.476,0,0,0,5.821.233.5.5,0,0,1,.5.479.491.491,0,0,1-.479.5q-.561.013-1.127.013A46.1,46.1,0,0,1,2439.523,442.094Zm11.313-.7a.492.492,0,0,1,.41-.561,44.253,44.253,0,0,0,5.682-1.273.491.491,0,1,1,.277.942,45.308,45.308,0,0,1-5.808,1.3.5.5,0,0,1-.076.006A.492.492,0,0,1,2450.836,441.393Zm-17.179-.309a45.356,45.356,0,0,1-5.68-1.772.491.491,0,1,1,.354-.916,44.228,44.228,0,0,0,5.557,1.734.491.491,0,0,1-.115.969A.513.513,0,0,1,2433.657,441.084Zm28.489-2.887a.491.491,0,0,1,.249-.648,44.6,44.6,0,0,0,5.156-2.711.491.491,0,1,1,.513.837,45.512,45.512,0,0,1-5.27,2.771.483.483,0,0,1-.2.043A.491.491,0,0,1,2462.146,438.2Zm-39.568-1.39a45.571,45.571,0,0,1-5.025-3.189.491.491,0,0,1,.579-.794,44.557,44.557,0,0,0,4.917,3.121.491.491,0,0,1-.471.862Zm49.657-4.641a.492.492,0,0,1,.073-.691,44.926,44.926,0,0,0,4.279-3.952.491.491,0,0,1,.712.677,45.818,45.818,0,0,1-4.372,4.038.492.492,0,0,1-.691-.072Zm-59.249-2.365a45.926,45.926,0,0,1-4.033-4.379.491.491,0,0,1,.764-.617,44.952,44.952,0,0,0,3.946,4.284.491.491,0,0,1-.677.711Zm67.436-6.064a.491.491,0,0,1-.107-.686,44.793,44.793,0,0,0,3.113-4.919.491.491,0,1,1,.863.47,45.7,45.7,0,0,1-3.182,5.027.491.491,0,0,1-.687.108Zm-74.9-3.181a45.532,45.532,0,0,1-2.764-5.273.491.491,0,1,1,.9-.4,44.517,44.517,0,0,0,2.7,5.159.491.491,0,0,1-.838.512Zm80.628-7.07a.491.491,0,0,1-.282-.635,44.133,44.133,0,0,0,1.728-5.561.491.491,0,1,1,.955.229,45.235,45.235,0,0,1-1.766,5.684.491.491,0,0,1-.458.315A.484.484,0,0,1,2486.152,413.486Zm2.865-11.395a.491.491,0,0,1-.438-.539,45.171,45.171,0,0,0,.241-4.664q0-.579-.014-1.155a.491.491,0,0,1,.479-.5.486.486,0,0,1,.5.478q.015.588.015,1.18a46.233,46.233,0,0,1-.247,4.766.492.492,0,0,1-.488.44Zm-.737-12.158a44.23,44.23,0,0,0-1.28-5.68.491.491,0,0,1,.942-.279,45.347,45.347,0,0,1,1.307,5.806.491.491,0,0,1-.409.562.51.51,0,0,1-.077.006A.491.491,0,0,1,2488.28,389.933Zm-3.3-11.146a44.654,44.654,0,0,0-2.718-5.153.491.491,0,0,1,.837-.514,45.448,45.448,0,0,1,2.778,5.267.491.491,0,0,1-.248.649.5.5,0,0,1-.2.043A.491.491,0,0,1,2484.983,378.787Zm-80.443-2.85a.491.491,0,0,1-.2-.666,45.731,45.731,0,0,1,3.171-5.038.491.491,0,0,1,.8.576,44.634,44.634,0,0,0-3.1,4.929.491.491,0,0,1-.666.2Zm74.358-7.055a44.9,44.9,0,0,0-3.957-4.274.491.491,0,1,1,.676-.713,45.964,45.964,0,0,1,4.044,4.367.491.491,0,0,1-.763.619Zm-67.565-2.535a.491.491,0,0,1-.019-.694,45.84,45.84,0,0,1,4.364-4.049.491.491,0,0,1,.62.762,45.045,45.045,0,0,0-4.27,3.962.491.491,0,0,1-.694.02Zm59.131-5.462a44.611,44.611,0,0,0-4.923-3.108.491.491,0,1,1,.469-.863,45.659,45.659,0,0,1,5.031,3.176.491.491,0,0,1-.29.888A.486.486,0,0,1,2470.465,360.885Zm-50.094-2.052a.49.49,0,0,1,.16-.676,45.512,45.512,0,0,1,5.262-2.784.491.491,0,0,1,.4.9,44.508,44.508,0,0,0-5.148,2.724.491.491,0,0,1-.676-.161Zm39.887-3.49a44.192,44.192,0,0,0-5.562-1.721.491.491,0,0,1,.228-.955,45.22,45.22,0,0,1,5.687,1.759.491.491,0,0,1-.353.917Zm-29.213-1.427a.491.491,0,0,1,.331-.611,45.34,45.34,0,0,1,5.807-1.316.491.491,0,0,1,.153.97,44.32,44.32,0,0,0-5.681,1.287.482.482,0,0,1-.14.021A.492.492,0,0,1,2431.045,353.915Zm17.91-1.268a45.562,45.562,0,0,0-5.82-.22.491.491,0,0,1-.026-.982,46.112,46.112,0,0,1,5.946.225.491.491,0,0,1-.05.98Z" transform="translate(-2402.718 -351.428)" fill="#b5ac84"/></g></g><g transform="translate(2345.843 364.817)"><g transform="translate(0)"><path d="M2369.019,414.777a13.772,13.772,0,1,1,13.772,13.772A13.788,13.788,0,0,1,2369.019,414.777Zm1.45,0a12.323,12.323,0,1,0,12.323-12.322A12.336,12.336,0,0,0,2370.469,414.777Z" transform="translate(-2369.019 -401.005)" fill="#b5ac84"/><g transform="translate(17.565 11.871)"><path d="M2400.316,424.057a1.9,1.9,0,1,1,1.9,1.9A1.9,1.9,0,0,1,2400.316,424.057Zm.967,0a.935.935,0,1,0,.935-.935A.936.936,0,0,0,2401.282,424.057Z" transform="translate(-2400.316 -422.156)" fill="#b5ac84"/></g><g transform="translate(6.45 11.871)"><path d="M2380.512,424.057a1.9,1.9,0,1,1,1.9,1.9A1.9,1.9,0,0,1,2380.512,424.057Zm.967,0a.935.935,0,1,0,.935-.935A.936.936,0,0,0,2381.479,424.057Z" transform="translate(-2380.512 -422.156)" fill="#b5ac84"/></g><g transform="translate(12.007 6.314)"><path d="M2392.315,416.057a1.9,1.9,0,1,1,1.9-1.9A1.9,1.9,0,0,1,2392.315,416.057Zm0-.966a.935.935,0,1,0-.935-.935A.936.936,0,0,0,2392.315,415.091Z" transform="translate(-2390.414 -412.255)" fill="#b5ac84"/></g><g transform="translate(12.007 17.428)"><path d="M2392.315,435.861a1.9,1.9,0,1,1,1.9-1.9A1.9,1.9,0,0,1,2392.315,435.861Zm0-.966a.935.935,0,1,0-.935-.935A.936.936,0,0,0,2392.315,434.895Z" transform="translate(-2390.414 -432.058)" fill="#b5ac84"/></g></g></g><g transform="translate(2319.184 587.147)"><path d="M2363.9,797.985c-21.484-4.31-42.383,9.558-42.383,9.558s13.932,20.856,35.416,25.167,42.383-9.558,42.383-9.558S2385.384,802.294,2363.9,797.985Z" transform="translate(-2321.518 -797.154)" fill="#8f8b66"/><path d="M2440.736,852.177a.959.959,0,0,0,.464-1.649c-.128-.116-13.012-11.744-34.164-21.268-19.314-8.7-43.047-14.149-65.116-14.962a.958.958,0,1,0-.07,1.914c21.51.792,45.584,6.323,64.4,14.794,20.857,9.391,33.535,20.823,33.66,20.938A.958.958,0,0,0,2440.736,852.177Z" transform="translate(-2330.034 -804.676)" fill="#b3ae7f"/><path d="M2382.579,814.606a.958.958,0,0,0,.382-1.716l-12.91-9.38a.958.958,0,1,0-1.126,1.549l12.91,9.38A.955.955,0,0,0,2382.579,814.606Z" transform="translate(-2342.146 -799.863)" fill="#b3ae7f"/><path d="M2386.195,837.4a.962.962,0,0,0,.309-.118l16.057-9.555a.958.958,0,1,0-.98-1.646l-16.056,9.555a.958.958,0,0,0,.67,1.765Z" transform="translate(-2349.397 -809.785)" fill="#b3ae7f"/><path d="M2432.93,826.872a.959.959,0,0,0,.555-1.554l-9.047-10.858a.958.958,0,1,0-1.472,1.226l9.047,10.858A.959.959,0,0,0,2432.93,826.872Z" transform="translate(-2365.933 -804.596)" fill="#b3ae7f"/></g><g transform="translate(2316.199 509.986)"><path d="M2323.778,681.419c3.17,1.362,15.389-.053,15.389-.053s-7.287-10.065-10.457-11.427-12.51,1.175-12.51,1.175S2320.608,680.057,2323.778,681.419Z" transform="translate(-2316.199 -663.999)" fill="#7d6871"/><g transform="translate(17.658 15.045)"><path d="M2432.252,775.526l.926-.246c-17.957-67.722-84.676-88.674-85.328-88.8l-.188.939C2348.309,687.545,2414.433,708.319,2432.252,775.526Z" transform="translate(-2347.662 -686.476)" fill="#54464c"/></g><g transform="translate(9.948 25.171)"><path d="M2346.546,718.711c3.22-1.239,10.977-10.785,10.977-10.785s-12.245-2.115-15.465-.876-8.133,9.578-8.133,9.578S2343.326,719.95,2346.546,718.711Z" transform="translate(-2333.925 -705.458)" fill="#7d6871"/><g transform="translate(7.244)"><path d="M2347.241,712.559c5.626-2.663,22.366-7.07,22.534-7.114l-.243-.927c-.691.182-16.994,4.474-22.7,7.175Z" transform="translate(-2346.832 -704.518)" fill="#54464c"/></g></g><g transform="translate(29.814 38.664)"><path d="M2381.943,742.754c3.219-1.239,10.977-10.785,10.977-10.785s-12.245-2.115-15.464-.875-8.134,9.578-8.134,9.578S2378.722,743.993,2381.943,742.754Z" transform="translate(-2369.321 -729.501)" fill="#7d6871"/><g transform="translate(7.244)"><path d="M2382.638,736.6c5.627-2.663,22.366-7.07,22.534-7.114l-.244-.927c-.691.182-16.993,4.474-22.7,7.175Z" transform="translate(-2382.228 -728.561)" fill="#54464c"/></g></g><g transform="translate(46.118 54.781)"><path d="M2410.994,771.472c3.22-1.239,10.978-10.785,10.978-10.785s-12.245-2.115-15.465-.875-8.133,9.577-8.133,9.577S2407.774,772.711,2410.994,771.472Z" transform="translate(-2398.373 -758.219)" fill="#7d6871"/><g transform="translate(7.244)"><path d="M2411.69,765.319c5.627-2.662,22.366-7.069,22.534-7.114l-.243-.927c-.691.181-16.995,4.474-22.7,7.175Z" transform="translate(-2411.28 -757.279)" fill="#54464c"/></g></g><g transform="translate(58.425 70.961)"><path d="M2432.922,800.3c3.22-1.239,10.977-10.785,10.977-10.785s-12.245-2.115-15.464-.876-8.134,9.578-8.134,9.578S2429.7,801.54,2432.922,800.3Z" transform="translate(-2420.301 -787.048)" fill="#7d6871"/><g transform="translate(7.244)"><path d="M2433.618,794.148c5.626-2.662,22.366-7.069,22.535-7.114l-.244-.927c-.691.182-16.994,4.474-22.7,7.175Z" transform="translate(-2433.208 -786.108)" fill="#54464c"/></g></g><g transform="translate(38.11 0)"><path d="M2384.223,671.994c.887,3.334,9.545,12.07,9.545,12.07s3.416-11.947,2.529-15.282-8.651-9.113-8.651-9.113S2383.336,668.66,2384.223,671.994Z" transform="translate(-2384.103 -659.669)" fill="#7d6871"/><g transform="translate(5.835 7.63)"><path d="M2399.156,696.746l.947-.142c-.106-.707-2.626-17.376-4.7-23.339l-.9.314C2396.543,679.459,2399.129,696.574,2399.156,696.746Z" transform="translate(-2394.499 -673.265)" fill="#54464c"/></g></g><g transform="translate(62.771 16.429)"><path d="M2428.052,700.435c.262,3.44,7.179,13.611,7.179,13.611s5.541-11.122,5.278-14.562-6.84-10.541-6.84-10.541S2427.79,696.995,2428.052,700.435Z" transform="translate(-2428.044 -688.943)" fill="#7d6871"/><g transform="translate(6.427 8.086)"><path d="M2440.8,727.155c.025-.714.593-17.563-.356-23.805l-.946.144c.935,6.154.351,23.454.345,23.628Z" transform="translate(-2439.496 -703.35)" fill="#54464c"/></g></g></g><g transform="translate(2742.08 388.621)"><path d="M3157.337,454.726c-1.649.708-8-.027-8-.027s3.788-5.233,5.436-5.941,6.5.611,6.5.611S3158.985,454.018,3157.337,454.726Z" transform="translate(-3107.637 -445.67)" fill="#8f8b66"/><g transform="translate(0 7.822)"><path d="M3075.519,503.652l-.482-.128c9.336-35.208,44.023-46.1,44.362-46.168l.1.488C3119.161,457.911,3084.784,468.712,3075.519,503.652Z" transform="translate(-3075.037 -457.356)" fill="#b3ae7f"/></g><g transform="translate(32.773 13.086)"><path d="M3145.244,474.114c-1.674-.644-5.707-5.607-5.707-5.607s6.366-1.1,8.04-.456,4.229,4.98,4.229,4.98S3146.918,474.758,3145.244,474.114Z" transform="translate(-3136.112 -467.225)" fill="#8f8b66"/><path d="M3145.148,470.916c-2.926-1.385-11.628-3.675-11.715-3.7l.126-.482c.359.094,8.835,2.326,11.8,3.73Z" transform="translate(-3133.433 -466.736)" fill="#b3ae7f"/></g><g transform="translate(22.445 20.101)"><path d="M3126.841,486.614c-1.674-.644-5.707-5.607-5.707-5.607s6.366-1.1,8.041-.455,4.228,4.979,4.228,4.979S3128.515,487.258,3126.841,486.614Z" transform="translate(-3117.708 -479.724)" fill="#8f8b66"/><path d="M3126.746,483.416c-2.925-1.385-11.628-3.675-11.715-3.7l.126-.482c.36.094,8.836,2.326,11.8,3.73Z" transform="translate(-3115.031 -479.235)" fill="#b3ae7f"/></g><g transform="translate(13.968 28.48)"><path d="M3111.737,501.544c-1.674-.644-5.707-5.607-5.707-5.607s6.366-1.1,8.04-.455,4.229,4.98,4.229,4.98S3113.412,502.188,3111.737,501.544Z" transform="translate(-3102.605 -494.654)" fill="#8f8b66"/><path d="M3111.642,498.346c-2.925-1.385-11.628-3.676-11.715-3.7l.126-.482c.359.095,8.835,2.326,11.8,3.73Z" transform="translate(-3099.926 -494.165)" fill="#b3ae7f"/></g><g transform="translate(7.57 36.892)"><path d="M3100.337,516.532c-1.674-.644-5.708-5.607-5.708-5.607s6.366-1.1,8.041-.455,4.229,4.98,4.229,4.98S3102.011,517.176,3100.337,516.532Z" transform="translate(-3091.204 -509.642)" fill="#8f8b66"/><path d="M3100.241,513.334c-2.925-1.385-11.628-3.675-11.715-3.7l.126-.482c.36.094,8.835,2.326,11.8,3.73Z" transform="translate(-3088.526 -509.154)" fill="#b3ae7f"/></g><g transform="translate(27.41)"><path d="M3130.231,449.827c-.461,1.734-4.963,6.275-4.963,6.275s-1.776-6.211-1.315-7.945,4.5-4.738,4.5-4.738S3130.692,448.093,3130.231,449.827Z" transform="translate(-3123.877 -443.419)" fill="#8f8b66"/><g transform="translate(0.47 3.967)"><path d="M3125.207,462.695l-.492-.074c.054-.367,1.365-9.034,2.443-12.134l.47.163C3126.565,453.707,3125.22,462.606,3125.207,462.695Z" transform="translate(-3124.715 -450.487)" fill="#b3ae7f"/></g></g><g transform="translate(14.52 8.541)"><path d="M3107.39,464.613c-.136,1.788-3.732,7.076-3.732,7.076s-2.881-5.782-2.744-7.57,3.556-5.48,3.556-5.48S3107.527,462.824,3107.39,464.613Z" transform="translate(-3100.909 -458.638)" fill="#8f8b66"/><g transform="translate(2.368 4.204)"><path d="M3105.227,478.5c-.013-.371-.309-9.131.185-12.376l.492.075c-.486,3.2-.183,12.193-.179,12.284Z" transform="translate(-3105.128 -466.128)" fill="#b3ae7f"/></g></g></g><g transform="translate(2754.982 484.776)"><path d="M3192.979,614.749c-39.83,8.148-59.984,43.257-57.009,68.574,0,0,23.763-5.567,29.522-10.156s9.664-26.384,10.511-30.036,5.487-16.35,5.487-16.35Z" transform="translate(-3114.548 -614.749)" fill="#8f8b66"/><path d="M3193.2,614.749c-25.539,14.543-16.381,33.445-24.107,47.5s-32.9,21.069-32.9,21.069c46.053-1.471,41.569-26.8,43.695-43.036A42.756,42.756,0,0,1,3193.2,614.749Z" transform="translate(-3114.773 -614.749)" fill="#54464c"/><path d="M3098.107,747.776q3.481-7.918,6.492-14.819c7.672-17.548,13.379-30.6,18.653-41.025l-2.288-6.891a.958.958,0,0,1,1.818-.6l1.694,5.1a133.049,133.049,0,0,1,11.13-18.212.95.95,0,0,1-.1-.4l.015-12.5a.958.958,0,0,1,1.915,0l-.013,10.521a102.567,102.567,0,0,1,10.549-11.391.958.958,0,1,1,1.308,1.4,98.7,98.7,0,0,0-18.576,23.176l18.338-5.3a.958.958,0,0,1,.76,1.741.99.99,0,0,1-.229.1l-20.167,5.824c-.024.007-.048,0-.072.006-1.333,2.357-2.673,4.869-4.045,7.573a.949.949,0,0,1-.435.985.819.819,0,0,1-.083.038c-5.113,10.187-10.747,23.069-18.422,40.623q-3.026,6.919-6.493,14.823a.958.958,0,1,1-1.754-.771Z" transform="translate(-3098.026 -633.418)" fill="#b3ae7f"/></g><g transform="translate(2769.13 530.81)"><path d="M3234.16,697.949c-2.8,2.015-7.885,13.215-7.885,13.215s12.381-1.058,15.182-3.073a6.247,6.247,0,1,0-7.3-10.142Z" transform="translate(-3168.445 -696.773)" fill="#7d6871"/><path d="M3123.808,788.259a.574.574,0,0,0,.522-.333c.185-.4,18.959-40.256,63.3-74.249a.575.575,0,1,0-.7-.912c-44.576,34.174-63.456,74.278-63.641,74.679a.574.574,0,0,0,.521.816Z" transform="translate(-3123.234 -703.737)" fill="#54464c"/><g transform="translate(41.917 24.659)"><path d="M3215.83,740.774c-3.394-.62-14.989,3.484-14.989,3.484s9.348,8.187,12.742,8.807a6.247,6.247,0,0,0,2.247-12.29Z" transform="translate(-3199.203 -740.71)" fill="#7d6871"/><path d="M3213.3,749.63a.575.575,0,0,0,.11-1.139c-10.366-2.036-14.751-2.987-14.794-3a.575.575,0,1,0-.244,1.123c.042.009,4.436.962,14.816,3A.585.585,0,0,0,3213.3,749.63Z" transform="translate(-3197.922 -742.804)" fill="#54464c"/></g><g transform="translate(21.635 20.428)"><path d="M3161.823,740.118c.386,3.429,7.664,13.344,7.664,13.344s5.137-11.314,4.751-14.743a6.247,6.247,0,0,0-12.416,1.4Z" transform="translate(-3161.783 -733.171)" fill="#7d6871"/><path d="M3174.005,759.657l.046,0a.575.575,0,0,0,.528-.618c0-.044-.361-4.525-1.406-15.052a.575.575,0,1,0-1.144.113c1.044,10.513,1.4,14.985,1.4,15.029A.574.574,0,0,0,3174.005,759.657Z" transform="translate(-3166.277 -737.689)" fill="#54464c"/></g></g><g transform="translate(2731.06 574.982)"><path d="M3191.624,776.68c30.846-6.212,60.872,13.681,60.872,13.681s-19.985,29.965-50.831,36.177-60.871-13.681-60.871-13.681S3160.779,782.892,3191.624,776.68Z" transform="translate(-3092.868 -775.478)" fill="#8f8b66"/><path d="M3055.8,854.311a.958.958,0,0,0,1.2-.073c.181-.164,18.414-16.635,48.424-30.173,27.056-12.206,61.68-20.187,92.619-21.35a.958.958,0,1,0-.073-1.914c-31.173,1.171-66.064,9.215-93.334,21.518-30.306,13.672-48.745,30.338-48.928,30.5a.957.957,0,0,0-.061,1.353A.919.919,0,0,0,3055.8,854.311Z" transform="translate(-3055.4 -786.588)" fill="#b3ae7f"/><path d="M3235.533,800.3a.959.959,0,0,0,1.12-.005l18.529-13.483a.958.958,0,0,0-1.127-1.549l-18.529,13.483a.957.957,0,0,0-.211,1.338A.971.971,0,0,0,3235.533,800.3Z" transform="translate(-3134.261 -779.689)" fill="#b3ae7f"/><path d="M3203.96,819.48c.022.016.044.03.068.045l23.068,13.7a.958.958,0,1,0,.978-1.647l-23.068-13.7a.958.958,0,0,0-1.046,1.6Z" transform="translate(-3120.408 -794.023)" fill="#b3ae7f"/><path d="M3167.582,817.966a.957.957,0,0,0,1.292-.167l12.98-15.6a.958.958,0,1,0-1.472-1.225l-12.981,15.6a.958.958,0,0,0,.124,1.349C3167.544,817.938,3167.562,817.952,3167.582,817.966Z" transform="translate(-3104.446 -786.513)" fill="#b3ae7f"/></g><path d="M10.87,0H465.794a10.87,10.87,0,0,1,10.87,10.87v0a0,0,0,0,1,0,0H0a0,0,0,0,1,0,0v0A10.87,10.87,0,0,1,10.87,0Z" transform="translate(2336.777 638.354)" fill="#d4c99b"/><path d="M2479.809,453.023a6.151,6.151,0,0,1,11.249-3.608c24.94,37.033,69.757,41.08,98.131,35.077,33.9-7.171,84.745-35.854,149.282-32.594s79.53,34.55,79.53,34.55V694.4H2475.761V677.451a16.3,16.3,0,0,1,16.3-16.3H2698.7a13.038,13.038,0,0,0,13.038-13.037V575.757a13.038,13.038,0,0,0-13.038-13.038H2555.943c-21.612,1.491-44,18.956-57.453,33.646a9.821,9.821,0,0,1-17.032-6.412Z" transform="translate(-70.011 -56.233)" fill="#8c757e"/><g transform="translate(2682.842 556.842)"><path d="M3038.259,773.186a46.012,46.012,0,0,0-46.012,46.012h92.024A46.012,46.012,0,0,0,3038.259,773.186Z" transform="translate(-2979.472 -756.333)" fill="#ff9696"/><path d="M3029.209,774.775a46.026,46.026,0,0,0-36.963,45.121H3057.8C3045.86,811.713,3027.635,795.672,3029.209,774.775Z" transform="translate(-2979.472 -757.03)" fill="#dedede" style="mix-blend-mode:multiply;isolation:isolate"/><rect width="117.572" height="18.458" transform="translate(0 62.509)" fill="#54494d"/><g transform="translate(78.79 0)"><path d="M3111.513,777.276l-.046,0a.343.343,0,0,1-.292-.385l3.077-22.605a.342.342,0,0,1,.677.093l-3.077,22.6A.343.343,0,0,1,3111.513,777.276Z" transform="translate(-3110.443 -747.909)" fill="#54494d"/><circle cx="4.28" cy="4.28" r="4.28" fill="#54494d"/><path d="M3115.647,743.288a4.27,4.27,0,0,1-4.133,6.853,4.278,4.278,0,1,0,4.133-6.853Z" transform="translate(-3110.594 -743.214)" fill="#ab8f9a"/></g><g transform="translate(80.184 29.436)"><path d="M3112.443,818.152a.378.378,0,0,1-.029-.036.342.342,0,0,1,.1-.474l19-12.62a.342.342,0,1,1,.378.57l-19,12.62A.341.341,0,0,1,3112.443,818.152Z" transform="translate(-3112.357 -799.712)" fill="#54494d"/><path d="M3149.33,803.1a4.28,4.28,0,1,1,.387-6.041A4.28,4.28,0,0,1,3149.33,803.1Z" transform="translate(-3125.461 -795.607)" fill="#d97096"/><path d="M3150.175,799.318a4.27,4.27,0,0,1-7.876,1.422,4.278,4.278,0,1,0,7.876-1.422Z" transform="translate(-3125.464 -797.235)" fill="#f27da7"/></g><g transform="translate(47.688 9.909)"><path d="M3067.586,794.514a.36.36,0,0,1-.045.012.341.341,0,0,1-.4-.265l-4.613-22.342a.342.342,0,0,1,.669-.139l4.613,22.342A.341.341,0,0,1,3067.586,794.514Z" transform="translate(-3057.993 -765.505)" fill="#54494d"/><path d="M3062.774,763.671a4.28,4.28,0,1,1-5.46-2.614A4.281,4.281,0,0,1,3062.774,763.671Z" transform="translate(-3054.455 -760.812)" fill="#d97096"/><path d="M3059.626,760.872a4.271,4.271,0,0,1-1.621,7.838,4.278,4.278,0,1,0,1.621-7.838Z" transform="translate(-3056.013 -760.815)" fill="#f27da7"/></g><g transform="translate(34.58 45.488)"><path d="M3039.418,827.066a4.28,4.28,0,1,1-5.46-2.614A4.28,4.28,0,0,1,3039.418,827.066Z" transform="translate(-3031.099 -824.207)" fill="#fff4c5"/><path d="M3036.27,824.266a4.271,4.271,0,0,1-1.621,7.838,4.278,4.278,0,1,0,1.621-7.838Z" transform="translate(-3032.657 -824.21)" fill="#fff8d9"/></g><g transform="translate(69.952 32.798)"><path d="M3102.444,804.454a4.28,4.28,0,1,1-5.46-2.614A4.281,4.281,0,0,1,3102.444,804.454Z" transform="translate(-3094.126 -801.596)" fill="#fff4c5"/><path d="M3099.3,801.656a4.276,4.276,0,0,1-.866,7.65,4.362,4.362,0,0,1-.754.188,4.278,4.278,0,1,0,1.621-7.838Z" transform="translate(-3095.684 -801.599)" fill="#fff8d9"/></g><g transform="translate(90.55 49.384)"><path d="M3139.147,834.007a4.28,4.28,0,1,1-5.459-2.614A4.28,4.28,0,0,1,3139.147,834.007Z" transform="translate(-3130.829 -831.149)" fill="#54494d"/><path d="M3136,831.208a4.273,4.273,0,0,1-1.621,7.838,4.278,4.278,0,1,0,1.621-7.838Z" transform="translate(-3132.386 -831.152)" fill="#ab8f9a"/></g><path d="M3124.97,870.823h-43.337a4.013,4.013,0,0,1-4.013-4.012h0a4.013,4.013,0,0,1,4.013-4.013h43.337a4.013,4.013,0,0,1,4.012,4.013h0A4.013,4.013,0,0,1,3124.97,870.823Z" transform="translate(-3016.932 -795.652)" fill="#212121" style="mix-blend-mode:screen;isolation:isolate"/></g><path d="M2583.6,511.515c18.243,38.866,7.2,76.26-5.646,86.415,7.419-3.7,15.172-6.239,22.829-6.767h18.829c.622-6.769,1.25-13.9,1.665-15.14.732-2.2-8.542-50.75-11.1-60.828A106.3,106.3,0,0,1,2583.6,511.515Z" transform="translate(-114.85 -84.677)" fill="#c4c4c4" style="mix-blend-mode:multiply;isolation:isolate"/><rect width="33.707" height="99.916" rx="16.853" transform="translate(2750.396 436.372)" fill="#78646c"/><rect width="33.707" height="33.707" rx="16.853" transform="translate(2750.396 469.477)" fill="#ab8f9a"/><rect width="136.031" height="49.758" rx="24.879" transform="translate(2578.251 438.378)" fill="#ab8f9a"/><rect width="13.108" height="112.088" rx="6.554" transform="translate(2417.61 416.843)" fill="#ab8f9a"/><rect width="6.019" height="77.445" transform="translate(2699.703 330.971)" fill="#78646c"/><g transform="translate(2683.386 337.793)"><g transform="translate(0 0)"><rect width="37.927" height="2.05" fill="#ffc49d"/><path d="M3007.648,356.507h-31.2l6.385,8.825h18.43Z" transform="translate(-2973.084 -354.457)" fill="#e6b18e"/></g><g transform="translate(0 45.503)"><rect width="37.927" height="2.05" transform="translate(0 8.825)" fill="#ffc49d"/><path d="M3007.648,442.756h-31.2l6.385-8.825h18.43Z" transform="translate(-2973.084 -433.931)" fill="#e6b18e"/></g><rect width="23.192" height="34.724" transform="translate(7.432 10.635)" fill="#c46588"/><path d="M2984.167,405.375a.983.983,0,0,1-.238-1.936l17.664-4.416-17.734-3.906a.982.982,0,0,1,0-1.919l17.291-3.782-17.3-4.056a.982.982,0,0,1,.027-1.918l16.8-3.45-16.94-3.418a.982.982,0,0,1,.388-1.926l21.671,4.373a.982.982,0,0,1,0,1.925l-17.148,3.522,17.175,4.026a.982.982,0,0,1-.015,1.916l-17.154,3.752L3006.1,398a.982.982,0,0,1,.027,1.913l-21.718,5.429A.978.978,0,0,1,2984.167,405.375Z" transform="translate(-2975.935 -362.408)" fill="#d97096"/></g><path d="M2670.343,648.309c.535-54.573,8.025-123.591-17.121-136.967h-65.288c25.147,13.376,17.656,82.394,17.121,136.967s-6.42,72.764,7.491,74.369h65.288C2663.922,721.073,2669.808,702.882,2670.343,648.309Z" transform="translate(-119.229 -84.601)" fill="#f5d5df"/><g transform="translate(2471.22 332.844)"><path d="M2625.9,356.975c-2.962-8.255,2.52-11.846,4.222-11.846,1.071-2.017,6.365-.882,8.318.5s3.213,1.009,3.465,1.45-.441,1.512-.252,1.638c1.072,1.89-.5,5.041-1.134,5.86s-6.553,4.726-6.805,4.852a36.94,36.94,0,0,1-4.473.756c-.253-.063-2.143-.693-2.332-1.134S2625.9,356.975,2625.9,356.975Z" transform="translate(-2606.729 -344.035)" fill="#2b1710"/><path d="M2702.47,412.368a3.085,3.085,0,0,1,3-2.835c1.375.031,5.125,2.426,5.125,2.521s-3.561,1.922-4,1.638S2702.47,412.368,2702.47,412.368Z" transform="translate(-2640.706 -372.773)" fill="#f5d5df"/><path d="M2715.484,584.95c-.134.85.838,5.536.9,6.426a24.071,24.071,0,0,0,1.3,5.935l25.121-4.743c-6.694-3.949-15.263-5.573-16.193-5.97s-2.151-2.886-2.151-2.886Z" transform="translate(-2646.41 -449.198)" fill="#ff8762"/><path d="M2727.474,588.942a3.839,3.839,0,0,0-1.474,2.626c-2.04,2.831-6.445,2.707-8.862,2.389a24.317,24.317,0,0,0,1.274,5.65l25.12-4.743C2737.086,591.06,2728.9,589.413,2727.474,588.942Z" transform="translate(-2647.142 -451.494)" fill="#2b1710"/><path d="M2647.358,472.408s38.816,5.923,41.337,10.964,2.394,52.552,2.394,52.552c-4.663,3.655-11.972,2.521-11.972,2.521-2.9-6.8-6.806-36.421-6.806-36.421s-11.091-6.932-12.6-7.814-22.811-2.772-22.937-4.032-.882-15.754-.882-15.754Z" transform="translate(-2611.492 -400.362)" fill="#6daab0"/><path d="M2675.28,590.234c-2.143,3.151-2.562,8.276-2.562,8.276l24.743,6.427c-4.369-6.427-11.427-11.552-12.1-12.308s-.714-3.529-.714-3.529Z" transform="translate(-2627.651 -451.563)" fill="#ff8762"/><path d="M2598.053,484.116s-.064,13.17,5.355,14.556,36.3,2.394,36.3,2.772c-1.387,9.452-.127,40.076.252,40.076,7.309,2.017,14.619-.5,14.619-.5s5.167-50.032,3.024-52.175-31.885-4.159-33.4-5.923-2.9-5.671-3.529-5.8S2598.872,482.666,2598.053,484.116Z" transform="translate(-2594.891 -402.429)" fill="#86bec4"/><path d="M2613.319,381.854c-1.7-.126-2.8,4.033-3.34,4.663s-11.531,3.875-14.462,7.624-3.907,14.525-2.394,22.843c-.567,15.879,2.458,25.331,2.458,25.331,2.457-.945,20.6-3.97,22.306-4.537s.189-.945,4.159-1.134,21.172-14.934,21.172-14.934c-.189-.567-2.836-5.482-2.836-5.482l7.562-1.89s3.78-2.835,2.268-3.592-18.778-18.147-21.55-18.9-4.789-2.016-5.293-3.4a4.371,4.371,0,0,0-2.647-2.9C2619.463,385.162,2613.319,381.854,2613.319,381.854Z" transform="translate(-2592.418 -360.628)" fill="#ffad54"/><path d="M2637.465,351.373c-1.449,1.513-4.663,1.261-6.175,1.261s-1.954,2.52-1.639,4.033.82,3.214.189,3.907-2.079.882-2.457.5c-1.2-2.206-3.592-1.638-3.4.756s2.079,3.718,3.024,3.34a7.322,7.322,0,0,1-.378,4.1c.567,3.214,7.436,5.734,8.948,3.907-.252-1.134-.125-1.575.946-1.513s2.016-1.071,2.142-3.276a52.163,52.163,0,0,0,1.449-9.2c.252-1.009,1.072-2.584,0-4.285A34.92,34.92,0,0,0,2637.465,351.373Z" transform="translate(-2606.262 -347.255)" fill="#ff8762"/><ellipse cx="0.772" cy="1.26" rx="0.772" ry="1.26" transform="translate(26.698 11.837)" fill="#2b1710"/><ellipse cx="0.772" cy="1.26" rx="0.772" ry="1.26" transform="translate(31.802 11.995)" fill="#2b1710"/><path d="M2646.333,370.749l-.009-.161a11.293,11.293,0,0,0,2.019-.245c.152-.069-.348-1.249-.589-1.817a13.2,13.2,0,0,1-.495-1.269,4.967,4.967,0,0,1,.156-2.39c.068-.325.144-.695.221-1.113l.158.029c-.076.42-.153.79-.221,1.117a4.781,4.781,0,0,0-.158,2.312,13.167,13.167,0,0,0,.488,1.251c.545,1.286.773,1.905.507,2.027A11.891,11.891,0,0,1,2646.333,370.749Z" transform="translate(-2616.07 -352.687)" fill="#2b1710"/><path d="M2627.04,371.167a.97.97,0,0,1,.4-1.882,2.153,2.153,0,0,0-1.147-1.149.869.869,0,0,0-.724.155l-.091-.133a1.024,1.024,0,0,1,.855-.178c.613.156,1.065.87,1.285,1.3h.01l.043.127-.069.032a.073.073,0,0,1-.054,0c-.549.019-.916.264-.984.659a.847.847,0,0,0,.531.918Z" transform="translate(-2606.924 -354.529)" fill="#e0b3a8" style="mix-blend-mode:multiply;isolation:isolate"/><path d="M2642.967,379.278a5.256,5.256,0,0,1-3.244-.833l.109-.119c1.137,1.048,4.665.9,5.12.473l.109.118A4.255,4.255,0,0,1,2642.967,379.278Z" transform="translate(-2613.174 -359.081)" fill="#2b1710"/><path d="M2645.26,381.742a3.735,3.735,0,0,1-.753-.076l.032-.158a3.723,3.723,0,0,0,1.908-.122l.059.15A3.67,3.67,0,0,1,2645.26,381.742Z" transform="translate(-2615.273 -360.424)" fill="#e0b3a8" style="mix-blend-mode:multiply;isolation:isolate"/><path d="M2632.82,370.033h-.047l0-.161a1.042,1.042,0,0,0,.889-.378,1.3,1.3,0,0,0,.266-.939c-.042.038-.1.109-.162.175a1.883,1.883,0,0,1-1.963.828l.046-.154a1.748,1.748,0,0,0,1.8-.781c.16-.182.24-.273.336-.25a.134.134,0,0,1,.1.111,1.439,1.439,0,0,1-.291,1.111A1.2,1.2,0,0,1,2632.82,370.033Z" transform="translate(-2609.701 -354.712)" fill="#2b1710"/><path d="M2634.1,371.857l-.02-.16c.969-.117,1.165-.458,1.167-.461l.143.073C2635.378,371.326,2635.166,371.728,2634.1,371.857Z" transform="translate(-2610.696 -355.97)" fill="#2b1710"/><path d="M2609.414,410.436a13.091,13.091,0,0,0-10.436-6.425l.013-.161a13.253,13.253,0,0,1,10.567,6.514Z" transform="translate(-2595.296 -370.281)" fill="#c4c4c4" style="mix-blend-mode:multiply;isolation:isolate"/><path d="M2632.909,396.294c-2.723,0-6.39-.778-8.578-3.217l.12-.107c2.915,3.247,8.5,3.5,10.842,2.916l.039.156A10.385,10.385,0,0,1,2632.909,396.294Z" transform="translate(-2606.42 -365.507)" fill="#c4c4c4" style="mix-blend-mode:multiply;isolation:isolate"/><path d="M2628.62,443.452c-.083,0-.3-.182-1.765-2.055-1.043-1.333-2.356-3.073-3.6-4.774-1.574-2.147-5.323-7.346-6.132-9.269l.148-.063c1.38,3.278,10.753,15.516,11.358,15.993.682-.2,10.872-3.06,11.315-3.184l.044.155c-.111.031-11.091,3.109-11.339,3.191A.074.074,0,0,1,2628.62,443.452Z" transform="translate(-2603.257 -380.566)" fill="#c4c4c4" style="mix-blend-mode:multiply;isolation:isolate"/><path d="M2658.465,434.114l-.161-.012a71.6,71.6,0,0,0-.922-16.781l.158-.033A71.827,71.827,0,0,1,2658.465,434.114Z" transform="translate(-2620.922 -376.177)" fill="#c4c4c4" style="mix-blend-mode:multiply;isolation:isolate"/><path d="M2637.028,458.894h-.01c-.179-.013-.268-.346-.422-.983a4.146,4.146,0,0,0-.323-1.012c-.036-.054-.056-.062-.056-.062a2.68,2.68,0,0,0-.17.7,3.047,3.047,0,0,1-.226.873c-.058.1-.123.135-.191.112-.292-.1-.144-1.814-.126-2.009s-.021-.244-.021-.244a3.2,3.2,0,0,0-1,1.784l-.155-.042c.234-.879.851-1.959,1.182-1.9.186.033.16.322.152.416a6.816,6.816,0,0,0,.01,1.813l.009-.014a3.114,3.114,0,0,0,.207-.817c.09-.521.144-.795.3-.828.112-.024.19.092.215.13a4.074,4.074,0,0,1,.345,1.064,2.9,2.9,0,0,0,.28.86.886.886,0,0,0,.073-.145,4,4,0,0,0-.086-2.13l.154-.048a4.077,4.077,0,0,1,.082,2.238C2637.208,458.763,2637.141,458.894,2637.028,458.894Z" transform="translate(-2610.808 -393.209)" fill="#c4c4c4" style="mix-blend-mode:multiply;isolation:isolate"/><path d="M2620.328,464.7c-6.166-1.917-19.809-16.094-19.946-16.237l.116-.111c.137.143,13.751,14.29,19.878,16.194Z" transform="translate(-2595.912 -389.808)" fill="#c4c4c4" style="mix-blend-mode:multiply;isolation:isolate"/><path d="M2652.515,501.42c-.117-.17-.226-.32-.324-.455-.668-.919-.788-1.085.479-2.212a.248.248,0,0,0,.088-.278c-.535-1.613-21.878-5.01-29.373-5.659a20.585,20.585,0,0,1-5.557-1.1,3.844,3.844,0,0,0,2.716-2.114,4.638,4.638,0,0,0-.457-4.39l-.138.082a4.483,4.483,0,0,1,.449,4.24,3.714,3.714,0,0,1-2.826,2.075,5.255,5.255,0,0,1-2.07-1.434,4.591,4.591,0,0,1-.7-3.651l-.16-.02a4.727,4.727,0,0,0,.731,3.772c1.182,1.456,3.8,2.34,8,2.7,9.085.786,28.781,4.182,29.234,5.549.009.027.011.061-.042.108-1.329,1.182-1.223,1.433-.5,2.427.1.134.205.283.322.452a1.964,1.964,0,0,1,.239,1.979,6.013,6.013,0,0,0-.252,1.672c0,1.827.083,38.114.083,38.48h.161c0-.367-.084-36.653-.084-38.48a5.886,5.886,0,0,1,.247-1.63A2.137,2.137,0,0,0,2652.515,501.42Z" transform="translate(-2602.132 -405.978)" fill="#c4c4c4" style="mix-blend-mode:multiply;isolation:isolate"/><path d="M2636.143,360.938a9.105,9.105,0,0,1,4.048-.819A2.248,2.248,0,0,0,2636.143,360.938Z" transform="translate(-2611.603 -350.661)" fill="#2b1710"/><path d="M2649.223,361.211a2.307,2.307,0,0,1,1.969.867C2651.16,360.171,2649.538,360.328,2649.223,361.211Z" transform="translate(-2617.342 -351.295)" fill="#2b1710"/><path d="M2637.339,383.23a10.833,10.833,0,0,1-6.438-4.827l.139-.082a10.665,10.665,0,0,0,6.332,4.751Z" transform="translate(-2609.303 -359.079)" fill="#e0b3a8" style="mix-blend-mode:multiply;isolation:isolate"/><path d="M2707.19,447.07h-28.86l12.855-33.271h28.86Z" transform="translate(-2630.114 -374.646)" fill="#8c757e"/><path d="M2710.347,447.07h-28.86l12.854-33.271h28.86Z" transform="translate(-2631.499 -374.646)" fill="#54494d"/><path d="M2677.881,439.7c.945-1.071,5.356-3.214,6.553-3.591a7.581,7.581,0,0,0,1.764-.757s-.378,1.26-.378,1.45c1.7.756,9.137,1.323,8.885,1.7s-2.205,1.009-1.89,1.071c.63.567-.63,1.26-.441,1.386.567.756-2.269,3.214-4.6,3.844a31.021,31.021,0,0,1-7.057.378C2678.134,444.178,2677.881,439.7,2677.881,439.7Z" transform="translate(-2629.917 -384.104)" fill="#ff8762"/><path d="M2693.851,443.11c-.616,0-1-.033-1.011-.034l.015-.16a15.929,15.929,0,0,0,5.43-.585l.047.154A15.553,15.553,0,0,1,2693.851,443.11Z" transform="translate(-2636.48 -387.164)" fill="#e0b3a8" style="mix-blend-mode:multiply;isolation:isolate"/><path d="M2694.651,446.845l-.029-.158a10.577,10.577,0,0,0,4.5-2.081l.108.12A10.744,10.744,0,0,1,2694.651,446.845Z" transform="translate(-2637.262 -388.163)" fill="#e0b3a8" style="mix-blend-mode:multiply;isolation:isolate"/><path d="M2685.463,595.57a3.84,3.84,0,0,0-2.454,1.746c-3.052,1.69-6.983-.3-9.033-1.62a24.3,24.3,0,0,0-1.258,5.653l24.743,6.427C2693.252,601.586,2686.553,596.605,2685.463,595.57Z" transform="translate(-2627.651 -454.402)" fill="#2b1710"/><path d="M2731.263,424.656c1.848-3.781,3.78-12.183-2.353-14.451l-21.088-.672c6.133,2.268,4.2,10.67,2.352,14.451s.169,7.394,2.689,7.73l21.088.672C2731.431,432.049,2729.414,428.437,2731.263,424.656Z" transform="translate(-2643.054 -372.774)" fill="#fff2f6"/></g><g transform="translate(2391.468 433.028)"><rect width="6.153" height="116.368" transform="translate(24.868 87.611)" fill="#3b3336"/><path d="M2506.193,547.423c-.4-7.223-3.611-13.643-11.235-14.044s-10.062,1.605-10.463-10.834H2472.02c-.4,12.44-2.838,10.433-10.463,10.834s-10.834,6.821-11.235,14.044,12.84,23.274,10.432,32.5-10.432,12.038-9.63,33.707h54.267c.8-21.669-7.223-24.477-9.631-33.707S2506.594,554.646,2506.193,547.423Z" transform="translate(-2450.313 -522.544)" fill="#54494d"/><g transform="translate(10.73 1.129)"><g transform="translate(7.486)"><g transform="translate(8.164)"><path d="M2497.731,527.29a.342.342,0,0,1-.341-.33l-.073-2.05a.342.342,0,1,1,.683-.024l.074,2.05a.342.342,0,0,1-.33.354Z" transform="translate(-2497.317 -524.557)" fill="#fff"/></g><g transform="translate(0 6.221)"><path d="M2486.948,612.067h-.012a.343.343,0,0,1-.33-.354c.045-1.3.137-2.714.274-4.186a.342.342,0,0,1,.68.063c-.135,1.459-.226,2.854-.27,4.146A.342.342,0,0,1,2486.948,612.067Zm.745-8.316a.31.31,0,0,1-.046,0,.342.342,0,0,1-.294-.384c.171-1.284.37-2.638.609-4.14a.342.342,0,1,1,.675.107c-.239,1.5-.437,2.845-.607,4.122A.342.342,0,0,1,2487.693,603.75Zm1.3-8.249a.356.356,0,0,1-.059-.005.343.343,0,0,1-.278-.4q.182-1.042.36-2.052.184-1.052.36-2.061a.342.342,0,0,1,.674.117q-.175,1.009-.362,2.063-.177,1.009-.359,2.051A.342.342,0,0,1,2488.991,595.5Zm1.4-8.234a.327.327,0,0,1-.051,0,.342.342,0,0,1-.287-.388q.044-.295.085-.582a11.953,11.953,0,0,0-.007-3.471.342.342,0,0,1,.677-.1,12.661,12.661,0,0,1,.008,3.668l-.086.586A.342.342,0,0,1,2490.388,587.267Zm-1.069-8.152a.341.341,0,0,1-.317-.214c-.466-1.157-1.025-2.329-1.617-3.571l-.1-.208a.342.342,0,0,1,.617-.294l.1.208c.6,1.251,1.16,2.432,1.634,3.609a.342.342,0,0,1-.189.445A.356.356,0,0,1,2489.319,579.115Zm-3.449-7.6a.342.342,0,0,1-.316-.211,39.233,39.233,0,0,1-1.413-3.962.342.342,0,0,1,.656-.193,38.452,38.452,0,0,0,1.388,3.893.342.342,0,0,1-.185.447A.338.338,0,0,1,2485.87,571.517Zm-2.333-7.991a.342.342,0,0,1-.336-.286,36.764,36.764,0,0,1-.426-3.853q-.005-.094-.005-.2c0-.055,0-.111,0-.167a.342.342,0,1,1,.683.029c0,.047,0,.094,0,.139s0,.1,0,.155a36.028,36.028,0,0,0,.418,3.781.341.341,0,0,1-.281.393A.317.317,0,0,1,2483.538,563.526Zm.7-8.158a.342.342,0,0,1-.317-.469c.448-1.115,1.035-2.4,1.742-3.831a.342.342,0,0,1,.613.3c-.7,1.411-1.279,2.684-1.721,3.782A.341.341,0,0,1,2484.233,555.368Zm3.668-7.513a.342.342,0,0,1-.3-.506c.642-1.176,1.336-2.4,2.063-3.651a.342.342,0,1,1,.59.344c-.723,1.242-1.414,2.464-2.053,3.635A.343.343,0,0,1,2487.9,547.855Zm3.745-7.359a.342.342,0,0,1-.341-.329l-.149-4.172a.342.342,0,0,1,.683-.024l.149,4.172a.341.341,0,0,1-.329.354Z" transform="translate(-2482.77 -535.642)" fill="#fff"/></g><g transform="translate(3.857 86.101)"><path d="M2490.145,680.7a.342.342,0,0,1-.34-.3c-.071-.658-.125-1.353-.162-2.064a.342.342,0,0,1,.683-.035c.035.7.089,1.38.158,2.025a.343.343,0,0,1-.3.377Z" transform="translate(-2489.643 -677.972)" fill="#fff"/></g></g><g transform="translate(0 10.834)"><g transform="translate(0 0.134)"><path d="M2471.617,545.68a.343.343,0,0,1-.137-.029c-.636-.281-1.265-.587-1.867-.909a.342.342,0,0,1,.323-.6c.588.314,1.2.612,1.821.887a.342.342,0,0,1-.139.654Z" transform="translate(-2469.432 -544.099)" fill="#fff"/></g><g transform="translate(6.142 2.216)"><path d="M2490.767,550.072q-.521,0-1.046-.012a.342.342,0,1,1,.016-.683c.348.008.7.017,1.041.012,1.139,0,2.311-.044,3.482-.129a.342.342,0,1,1,.049.682c-1.188.086-2.375.13-3.531.13Zm-5.581-.363a.328.328,0,0,1-.046,0,35.475,35.475,0,0,1-4.511-.9.342.342,0,0,1,.178-.66,34.911,34.911,0,0,0,4.424.882.342.342,0,0,1-.045.681Zm13.625-.3a.342.342,0,0,1-.054-.679c1.508-.244,3-.551,4.435-.913a.342.342,0,1,1,.168.663c-1.454.368-2.966.679-4.494.925A.3.3,0,0,1,2498.811,549.412Z" transform="translate(-2480.376 -547.809)" fill="#fff"/></g><g transform="translate(33.052)"><path d="M2528.666,545.4a.342.342,0,0,1-.124-.661,12.523,12.523,0,0,0,1.807-.834.342.342,0,1,1,.352.586,13.192,13.192,0,0,1-1.911.886A.343.343,0,0,1,2528.666,545.4Z" transform="translate(-2528.323 -543.861)" fill="#fff"/></g></g><g transform="translate(1.873 53.636)"><path d="M2475.162,620.81h-2.051a.342.342,0,0,1,0-.684h2.051a.342.342,0,0,1,0,.684Z" transform="translate(-2472.769 -620.126)" fill="#fff"/><g transform="translate(6.688)"><path d="M2498.938,620.81H2494.3a.342.342,0,0,1,0-.684h4.637a.342.342,0,0,1,0,.684Zm-9.274,0h-4.637a.342.342,0,0,1,0-.684h4.637a.342.342,0,1,1,0,.684Z" transform="translate(-2484.685 -620.126)" fill="#fff"/></g><g transform="translate(25.235)"><path d="M2520.126,620.81h-2.051a.342.342,0,0,1,0-.684h2.051a.342.342,0,0,1,0,.684Z" transform="translate(-2517.733 -620.126)" fill="#fff"/></g></g></g><path d="M2460.755,599.376c-2.408,9.229-10.432,12.038-9.63,33.707h18.224a20.644,20.644,0,0,1-2.7-22.025c6.242-13.376,5.707-18.9-1.248-25.325s-13.732-11.592-15.076-18.859C2449.921,574.1,2463.163,590.147,2460.755,599.376Z" transform="translate(-2450.313 -541.994)" fill="#c4c4c4" style="mix-blend-mode:multiply;isolation:isolate"/><path d="M2499,876.939h-24.344a6.286,6.286,0,0,0-6.286,6.286h36.917A6.287,6.287,0,0,0,2499,876.939Z" transform="translate(-2458.237 -678.043)" fill="#3b3336"/></g><g transform="translate(2354.194 489.384)"><path d="M2503.485,625.8h-37.452a1.367,1.367,0,1,1,0-2.735h37.452a1.367,1.367,0,0,1,0,2.735Z" transform="translate(-2419.337 -623.006)" fill="#d97096"/><path d="M2577.794,771a.684.684,0,0,1-.681-.635,424.249,424.249,0,0,0-8.478-54.794c-6.141-27.714-17.79-65.978-38.405-90.881a.684.684,0,0,1,1.053-.872c9.189,11.1,17.387,25.714,24.369,43.435a321.981,321.981,0,0,1,14.322,48.042,425.641,425.641,0,0,1,8.5,54.973.684.684,0,0,1-.634.731Z" transform="translate(-2448.036 -623.227)" fill="#d97096"/><path d="M2384.583,771a.684.684,0,0,0,.681-.635,424.175,424.175,0,0,1,8.478-54.794c6.142-27.714,17.79-65.978,38.4-90.881a.684.684,0,0,0-1.053-.872c-9.189,11.1-17.388,25.714-24.369,43.435a322.008,322.008,0,0,0-14.322,48.042,425.578,425.578,0,0,0-8.5,54.973.684.684,0,0,0,.633.731Z" transform="translate(-2383.899 -623.227)" fill="#d97096"/><path d="M2421.57,771a.6.6,0,0,0,.516-.635c.014-.244,1.375-24.725,6.425-54.794,4.654-27.715,13.48-65.978,29.1-90.881a.841.841,0,0,0-.068-.963.438.438,0,0,0-.73.09c-6.962,11.1-13.176,25.714-18.466,43.435a402.652,402.652,0,0,0-10.853,48.042c-5.063,30.163-6.429,54.729-6.442,54.973a.648.648,0,0,0,.48.731Z" transform="translate(-2400.201 -623.227)" fill="#d97096"/><path d="M2452.143,771.069c-.392-.052-.659-.507-.637-1.083.009-.245.976-24.82,4.563-55,2.107-17.732,4.693-33.906,7.687-48.072,3.75-17.744,8.155-32.381,13.093-43.5a.668.668,0,0,1,.6-.451.612.612,0,0,1,.52.313,1.467,1.467,0,0,1,.074,1.287c-11.04,24.864-17.281,63.092-20.573,90.783-3.566,30-4.536,54.523-4.546,54.767-.021.558-.318.964-.706.964C2452.2,771.073,2452.158,771.071,2452.143,771.069Z" transform="translate(-2413.563 -622.96)" fill="#d97096"/><path d="M2452.481,771c.19,0,.351-.275.365-.635.009-.244.973-24.725,4.547-54.794,3.295-27.714,9.542-65.978,20.6-90.881a1.131,1.131,0,0,0-.049-.963c-.156-.241-.387-.2-.516.09-4.929,11.1-9.326,25.714-13.071,43.435-2.991,14.156-5.576,30.32-7.682,48.042-3.584,30.163-4.551,54.729-4.561,54.973-.014.377.138.7.34.73Z" transform="translate(-2413.83 -623.227)" fill="#d97096"/><path d="M2554.45,771a.6.6,0,0,1-.516-.635c-.014-.244-1.375-24.725-6.424-54.794-4.654-27.715-13.48-65.978-29.1-90.881a.839.839,0,0,1,.069-.963.438.438,0,0,1,.729.09c6.963,11.1,13.176,25.714,18.466,43.435a402.611,402.611,0,0,1,10.852,48.042c5.064,30.163,6.43,54.729,6.443,54.973a.648.648,0,0,1-.48.731Z" transform="translate(-2442.865 -623.227)" fill="#d97096"/><path d="M2531.649,771.073c-.388,0-.685-.405-.707-.964-.009-.244-.976-24.741-4.545-54.767-3.292-27.69-9.532-65.918-20.572-90.783a1.466,1.466,0,0,1,.074-1.287.612.612,0,0,1,.52-.313.666.666,0,0,1,.595.451c4.939,11.122,9.344,25.758,13.094,43.5,2.993,14.166,5.58,30.34,7.687,48.072,3.586,30.179,4.553,54.756,4.563,55,.022.575-.246,1.031-.636,1.083Z" transform="translate(-2437.347 -622.96)" fill="#d97096"/><path d="M2531.917,771c-.19,0-.351-.275-.365-.635-.01-.244-.973-24.725-4.548-54.794-3.294-27.714-9.542-65.978-20.6-90.881a1.131,1.131,0,0,1,.049-.963c.156-.241.387-.2.517.09,4.928,11.1,9.326,25.714,13.071,43.435,2.991,14.156,5.576,30.32,7.682,48.042,3.584,30.163,4.551,54.729,4.561,54.973.014.377-.138.7-.34.73Z" transform="translate(-2437.614 -623.227)" fill="#d97096"/></g><rect width="88.101" height="1.605" transform="translate(2375.253 537.67)" fill="#d97096"/><rect width="114.117" height="1.605" transform="translate(2362.245 585.867)" fill="#d97096"/><g transform="translate(2423.422 579.415)"><g transform="translate(70.268 0.045)"><rect width="58.755" height="3.176" transform="translate(16.847 0) rotate(90)" fill="#ffbc8f"/><path d="M2646.124,841.074V792.741l-13.671,9.892v28.55Z" transform="translate(-2632.453 -787.53)" fill="#d69162"/></g><g transform="translate(0 0)"><rect width="58.755" height="3.176" transform="translate(3.176 0) rotate(90)" fill="#ffbc8f"/><path d="M2512.908,840.995V792.661l13.671,9.892V831.1Z" transform="translate(-2509.732 -787.451)" fill="#d69162"/></g><rect width="35.928" height="53.792" transform="translate(70.64 11.557) rotate(90)" fill="#ff9696"/><path d="M2543.87,804.7a1.522,1.522,0,0,1,3-.368l6.841,27.364,6.052-27.471a1.521,1.521,0,0,1,2.972,0l5.86,26.785,6.283-26.807a1.522,1.522,0,0,1,2.972.041l5.344,26.025,5.3-26.242a1.522,1.522,0,0,1,2.983.6L2584.7,838.2a1.522,1.522,0,0,1-2.983.005l-5.455-26.566-6.236,26.607a1.522,1.522,0,0,1-2.969-.022l-5.813-26.575-5.952,27.023a1.522,1.522,0,0,1-2.962.042l-8.411-33.644A1.538,1.538,0,0,1,2543.87,804.7Z" transform="translate(-2523.318 -791.901)" fill="#eb7c7c"/></g><g transform="translate(2587.837 500.441)"><g transform="translate(23.718 39.024)"><path d="M2893.334,753.707h-38.771a2.6,2.6,0,0,0-2.6,2.6h43.98A2.6,2.6,0,0,0,2893.334,753.707Z" transform="translate(-2846.632 -730.409)" fill="#54494d"/><path d="M2851.959,755.252v1.059h15.408v-2.6H2853.5A1.545,1.545,0,0,0,2851.959,755.252Z" transform="translate(-2846.632 -730.409)" fill="#6e5f65"/><rect width="1.424" height="0.66" transform="translate(10.64 22.638)" fill="#54494d"/><rect width="1.424" height="0.66" transform="translate(37.436 22.638)" fill="#54494d"/><path d="M2878.159,712.2h-35.693l5.323,22.545h35.693Z" transform="translate(-2842.467 -712.195)" fill="#6e5f65"/><path d="M2879.424,712.2h-35.693l5.324,22.545h35.693Z" transform="translate(-2843.021 -712.195)" fill="#54494d"/><path d="M2850.272,734.591l-5-21.178h34.288l5,21.178Z" transform="translate(-2843.697 -712.73)" fill="#b1dee3"/></g><path d="M2934.967,697.842c-2.546,2.5-12.962,21.249-14.49,21.527-7.917,2.222-17.083,9.027-19.444,8.888s-4.305-1.388-6.111-1.666-5.556,2.083-5.556,2.083l-2.083,3.611s3.611-1.945,6.111-1.389,7.222,1.25,8.749.972,21.666-3.611,23.61-5,11.8-9.722,11.8-9.722l2.083-16.944Z" transform="translate(-2838.414 -666.873)" fill="#ff8762"/><path d="M2991,855.7h-1.265l-7.1-41.387h4.814Z" transform="translate(-2880.253 -717.978)" fill="#54494d"/><path d="M2867.107,833.489h-1.265l-11.882-69.9h4.814Z" transform="translate(-2823.792 -695.719)" fill="#453c3f"/><path d="M2800.206,833.489h1.265l11.882-69.9h-4.815Z" transform="translate(-2800.206 -695.719)" fill="#54494d"/><path d="M2947.857,855.7h1.265l7.1-41.387h-4.814Z" transform="translate(-2864.991 -717.978)" fill="#54494d"/><path d="M3019.777,855.7h-1.265l-7.1-41.387h4.814Z" transform="translate(-2892.878 -717.978)" fill="#54494d"/><path d="M2919.2,867.7c-1.2,2.963.463,3.4,1.25,6.273a15.462,15.462,0,0,1,.6,4.953h-24.814c1.019-2.037,8.426-4.074,11.481-6.157s1.983-4.213,2.168-5.046S2919.2,867.7,2919.2,867.7Z" transform="translate(-2842.341 -741.245)" fill="#ff8762"/><path d="M2920.748,878.362a16.715,16.715,0,0,1-10.9-.03c-.231-.423.2-2-.683-3.894a13.91,13.91,0,0,1-1.447,1.441c-3.055,2.083-10.462,4.121-11.481,6.157h24.814A14.376,14.376,0,0,0,2920.748,878.362Z" transform="translate(-2842.341 -744.358)" fill="#2b1710"/><path d="M2913.185,813.368c1.389,6.2,3.241,24.628,3.426,25.091,4.444,2.314,11.3-.648,11.3-.648.093-5-1.944-41.479-1.944-41.479l-10.647,3.241Z" transform="translate(-2849.778 -710.088)" fill="#67a4ab"/><path d="M2884.931,868.154c-1.2,2.963-.37,3.009.417,5.879a15.469,15.469,0,0,1,.6,4.953h-24.813c1.019-2.037,8.425-4.074,11.481-6.157s3.935-4.213,4.12-5.046S2884.931,868.154,2884.931,868.154Z" transform="translate(-2826.94 -741.31)" fill="#ff8762"/><path d="M2930.466,770.926s-31.572.278-35.091,5.648-8.147,48.424-7.778,49.072c4.074,2.5,9.444,1.111,9.444,1.111l11.574-37.868s11.48,1.389,11.666,1.666,13.148,2.778,14.351,2.778,11.389-1.389,12.685-2.037,7.407-7.314,7.407-8.8.093-9.074-.278-9.352S2930.466,770.926,2930.466,770.926Z" transform="translate(-2838.542 -698.94)" fill="#86bec4"/><path d="M2972.191,695.034c-.972-.139-3.565,1.25-3.565,1.25.185,1.852-.926,15.092-2.314,17.315s1.852,6.2,2.685,10.277-2.407,12.777-5,13.425c14.722,9.073,25.74,8.888,26.573,7.407s5.37-26.573,5.37-26.851-2.453-21.85-4.513-22.753a8,8,0,0,0-3.4-.81s-8.1,1.62-8.472,1.62S2972.191,695.034,2972.191,695.034Z" transform="translate(-2872.073 -665.315)" fill="#3b4b5e"/><path d="M2994.286,695.727c-4.653,2.778-3.75,11.249-2.917,12.638s6.041,11.458,6.041,11.458c-3.611,1.528-9.652,6.527-11.6,6.735s-6.25-.278-7.43-.069a50.213,50.213,0,0,0-5.07,1.736s-2.8,4.189-2.8,4.328.463,2.315.694,2.315c.232,1.111.185,2.315.556,2.268a1.13,1.13,0,0,0,.972.278c.417.462,1.343.185,2.546-.6s1.2-2.87,3.426-3.055,8.009-3.1,8.241-3.379c7.2-.267,15.969-1,22.967-5.97a1.334,1.334,0,0,0,.417-1.675c-1.771-3.615-6.636-11.135-9.311-17.447C2998.059,698.3,2996.809,695.472,2994.286,695.727Z" transform="translate(-2874.932 -665.938)" fill="#ff8762"/><path d="M2978.965,643.632c-7.037-.509-8.379,5.6-6.852,8.148s-.093,3.935-.509,5.231.833,2.963,1.666,4.305-.231,2.917-.138,3.842,2.083,1.3,2.361,2.454a3.78,3.78,0,0,0,4.907,2.824c3.24-.926,8.472,1.157,10-1.25s-.185-3.935,2.269-4.861-.879-3.935.648-5.231-.139-1.62.741-4.537-2.593-5-4.121-6.342-1.157-2.454-2.684-4.074S2981.279,642.058,2978.965,643.632Z" transform="translate(-2875.374 -642.661)" fill="#2b1710"/><path d="M2980.408,649.505c.186,5.879,7.407,6.944,8.333,6.481a7.859,7.859,0,0,0,.093,2.408c1.343-1.62,2.547-1.019,2.685.555s-1.2,3.843-3.287,3.1c-1.574,4.63-1.805,11.249.833,12.037a11.4,11.4,0,0,0,4.352.556s-4.074,10-11.388,10.832c-4.213-2.546-4.444-10.092-4.444-10.092,3.148.047,4.166-1.111,4.166-2.083a22.785,22.785,0,0,0-.555-3.333,14.581,14.581,0,0,1-2.546-1.157c-.74-.556-2.361-4.12-2.361-5.972s.324-7.222.324-8.935A5.361,5.361,0,0,1,2980.408,649.505Z" transform="translate(-2877.466 -645.664)" fill="#ff8762"/><path d="M2981.907,676.648c.695-1.371,2.5-.833,4.288.017C2984.824,678.628,2982.428,678.975,2981.907,676.648Z" transform="translate(-2879.931 -657.207)" fill="#ff5757"/><path d="M2990.612,666.261c0,.575-.28,1.042-.625,1.042s-.625-.466-.625-1.042.28-1.042.625-1.042S2990.612,665.685,2990.612,666.261Z" transform="translate(-2883.203 -652.559)" fill="#2b1710"/><path d="M2981,665.972c0,.575-.28,1.042-.625,1.042s-.625-.466-.625-1.042.28-1.042.625-1.042S2981,665.4,2981,665.972Z" transform="translate(-2878.985 -652.432)" fill="#2b1710"/><path d="M2983.761,669.661a3.2,3.2,0,0,1-1.477-.321.437.437,0,0,1-.219-.286l-.009-.052.041-.032c1.659-1.3,1.072-3.524.575-4.735l.164-.067c.511,1.244,1.109,3.524-.581,4.9a.376.376,0,0,0,.125.12,3.172,3.172,0,0,0,1.809.25l.046.172A1.9,1.9,0,0,1,2983.761,669.661Z" transform="translate(-2879.997 -652.098)" fill="#2b1710"/><path d="M2983.605,677.527a8.755,8.755,0,0,1-2.664-.416l.053-.169a8.147,8.147,0,0,0,5.466-.111l.08.159A7.666,7.666,0,0,1,2983.605,677.527Z" transform="translate(-2879.508 -657.655)" fill="#2b1710"/><path d="M2986.809,683.529l-.032-.175a5.285,5.285,0,0,0,4.192-2.928l.167.06A5.455,5.455,0,0,1,2986.809,683.529Z" transform="translate(-2882.068 -659.231)" fill="#e0b3a8" style="mix-blend-mode:multiply;isolation:isolate"/><path d="M2998.753,667.622c-.053,0-.109,0-.167-.008l.017-.177c.554.053.918-.191.974-.653a.881.881,0,0,0-.576-.962l0,.007-.084-.022c-.085-.026-.063-.106-.045-.176.043-.161.452-1.563,1.6-1.294l-.041.173a.891.891,0,0,0-.728.12,1.944,1.944,0,0,0-.651,1.021,1.062,1.062,0,0,1,.706,1.154A.915.915,0,0,1,2998.753,667.622Z" transform="translate(-2887.249 -652.157)" fill="#e0b3a8" style="mix-blend-mode:multiply;isolation:isolate"/><path d="M2972.925,764.16l-.174-.034c.019-.1.466-2.419.651-2.974a29.28,29.28,0,0,1,2.609-3.363l.134.117a26.559,26.559,0,0,0-2.575,3.3C2973.389,761.752,2972.929,764.136,2972.925,764.16Z" transform="translate(-2875.914 -693.176)" fill="#e0b3a8" style="mix-blend-mode:multiply;isolation:isolate"/><rect width="5.306" height="0.177" transform="matrix(0.584, -0.811, 0.811, 0.584, 98.102, 71.147)" fill="#e0b3a8" style="mix-blend-mode:multiply;isolation:isolate"/><path d="M2972.431,761.045l-.177-.011.1-1.566,1.713-3.055.155.087-1.7,3.038Z" transform="translate(-2875.696 -692.573)" fill="#e0b3a8" style="mix-blend-mode:multiply;isolation:isolate"/><path d="M3024.893,738.6a10.577,10.577,0,0,0-5.872-.227l-.039-.173a10.766,10.766,0,0,1,5.979.236Z" transform="translate(-2896.198 -684.452)" fill="#e0b3a8" style="mix-blend-mode:multiply;isolation:isolate"/><path d="M2916.766,801.152l-.019-.176c.02,0,1.958-.209,2.99-.278a.815.815,0,0,0,.13-.017,10.908,10.908,0,0,0-1.738-.754c-.426-.163-.83-.316-1.13-.447-.281-.124-.395-.191-.366-.3.033-.123.169-.115,1-.012a13.889,13.889,0,0,0,1.556.137c.3,0,.341-.058.341-.059.029-.123-.447-.534-2.881-1.787l.082-.158c2.568,1.323,3.034,1.73,2.972,1.987-.042.172-.3.194-.513.194a14.127,14.127,0,0,1-1.578-.138c-.22-.027-.458-.057-.626-.071l.086.039c.3.13.7.282,1.123.444,1.48.564,1.906.758,1.876.958-.018.121-.172.146-.32.157C2918.72,800.943,2916.785,801.151,2916.766,801.152Z" transform="translate(-2851.289 -710.515)" fill="#c4c4c4" style="mix-blend-mode:multiply;isolation:isolate"/><path d="M2987.692,662.3a8.927,8.927,0,0,1,4.271.347C2990.087,660.525,2987.692,660.872,2987.692,662.3Z" transform="translate(-2882.469 -650.77)" fill="#2b1710"/><path d="M2977.3,662.756a4.265,4.265,0,0,1,3.021-.173C2979.381,661.368,2977.541,661.437,2977.3,662.756Z" transform="translate(-2877.909 -651.022)" fill="#2b1710"/><path d="M2969.277,790.368c3.639.566,12.263.058,17.09.058,1.078,0,2.153-.016,3.208-.048,7.2-.222,12.065-1.134,14.46-2.713,1.75-1.154,3.979-3.89,7.242-15.444,1.7-6.021,2.873-11.611,2.923-11.846a3.2,3.2,0,0,0-2.473-3.78l-16.617-.021-1.759,11.018-3.889,9.629L2983.72,785a20.408,20.408,0,0,1-4.536,2.5C2977.332,788.053,2969.277,790.368,2969.277,790.368Z" transform="translate(-2874.39 -692.643)" fill="#fa924d"/><path d="M2958.383,790.39a92.846,92.846,0,0,1-13.376-.883,3.194,3.194,0,0,1,.982-6.313,92.728,92.728,0,0,0,15.405.762c7.018-.216,10.252-1.117,11.1-1.635.208-.2,1.926-2.121,4.756-12.247,1.582-5.662,2.7-10.99,2.712-11.043a3.194,3.194,0,0,1,6.254,1.308c-.049.235-1.223,5.825-2.923,11.846-3.262,11.554-5.492,14.291-7.241,15.444-2.4,1.579-7.261,2.492-14.46,2.714C2960.535,790.373,2959.461,790.39,2958.383,790.39Z" transform="translate(-2862.554 -692.606)" fill="#ffad54"/><path d="M2885.649,878.563a16.715,16.715,0,0,1-10.9-.03c-.231-.423.272-1.742-.613-3.637a14.372,14.372,0,0,1-1.516,1.184c-3.056,2.083-10.462,4.121-11.481,6.157h24.813A14.362,14.362,0,0,0,2885.649,878.563Z" transform="translate(-2826.94 -744.559)" fill="#2b1710"/><rect width="89.023" height="3.611" transform="translate(4.429 64.995)" fill="#54494d"/><rect width="23.471" height="3.611" transform="translate(4.429 64.995)" fill="#6e5f65"/></g><g transform="translate(2370.271 482.875)"><g transform="translate(0)"><path d="M2412.546,617.464a6.1,6.1,0,1,1,6.1,6.1A6.111,6.111,0,0,1,2412.546,617.464Zm.643,0a5.461,5.461,0,1,0,5.461-5.461A5.467,5.467,0,0,0,2413.188,617.464Z" transform="translate(-2412.546 -611.361)" fill="#b5ac84"/><g transform="translate(7.784 5.261)"><path d="M2426.416,621.577a.843.843,0,1,1,.843.843A.844.844,0,0,1,2426.416,621.577Zm.428,0a.415.415,0,1,0,.415-.414A.416.416,0,0,0,2426.844,621.577Z" transform="translate(-2426.416 -620.735)" fill="#b5ac84"/></g><g transform="translate(2.858 5.261)"><path d="M2417.639,621.577a.843.843,0,1,1,.843.843A.844.844,0,0,1,2417.639,621.577Zm.429,0a.414.414,0,1,0,.414-.414A.415.415,0,0,0,2418.068,621.577Z" transform="translate(-2417.639 -620.735)" fill="#b5ac84"/></g></g></g><g transform="translate(2561.722 581.146)"><path d="M2753.674,792.565a6.1,6.1,0,1,1,6.1,6.1A6.111,6.111,0,0,1,2753.674,792.565Zm.643,0a5.461,5.461,0,1,0,5.462-5.461A5.468,5.468,0,0,0,2754.317,792.565Z" transform="translate(-2753.674 -786.461)" fill="#b5ac84"/><g transform="translate(7.785 5.261)"><path d="M2767.545,796.678a.843.843,0,1,1,.843.842A.844.844,0,0,1,2767.545,796.678Zm.429,0a.414.414,0,1,0,.414-.414A.414.414,0,0,0,2767.974,796.678Z" transform="translate(-2767.545 -795.835)" fill="#b5ac84"/></g><g transform="translate(2.859 5.261)"><path d="M2758.768,796.678a.843.843,0,1,1,.843.842A.843.843,0,0,1,2758.768,796.678Zm.428,0a.414.414,0,1,0,.414-.414A.414.414,0,0,0,2759.2,796.678Z" transform="translate(-2758.768 -795.835)" fill="#b5ac84"/></g></g><g transform="translate(2352.923 438.298)"><g transform="translate(0 2.859)"><path d="M2381.634,537.028h12.788v19.9h-12.788Zm11.814.974h-10.84v17.954h10.84Z" transform="translate(-2381.634 -537.028)" fill="#b5ac84"/></g><g transform="translate(3.556)"><path d="M2387.971,531.934h5.674V535.7h-5.674Zm4.7.974h-3.726v1.821h3.726Z" transform="translate(-2387.971 -531.934)" fill="#b5ac84"/></g><g transform="translate(3.556 21.815)"><path d="M2387.971,570.8h5.674v3.769h-5.674Zm4.7.974h-3.726V573.6h3.726Z" transform="translate(-2387.971 -570.804)" fill="#b5ac84"/></g><g transform="translate(1.46 4.425)"><path d="M2384.723,546.66a.5.5,0,0,0,.127-.017c1.765-.477,7.269-2.8,9.386-6.072a.487.487,0,1,0-.818-.529c-1.938,3-7.22,5.228-8.822,5.661a.487.487,0,0,0,.126.957Z" transform="translate(-2384.236 -539.819)" fill="#b5ac84"/></g><g transform="translate(1.46 7.537)"><path d="M2384.723,552.2a.473.473,0,0,0,.127-.017c1.765-.476,7.269-2.8,9.386-6.072a.487.487,0,0,0-.818-.529c-1.938,3-7.22,5.229-8.822,5.661a.487.487,0,0,0,.126.958Z" transform="translate(-2384.236 -545.364)" fill="#b5ac84"/></g><g transform="translate(1.46 10.649)"><path d="M2384.723,557.749a.5.5,0,0,0,.127-.017c1.765-.477,7.269-2.8,9.386-6.073a.487.487,0,1,0-.818-.529c-1.937,3-7.22,5.228-8.822,5.661a.487.487,0,0,0,.126.958Z" transform="translate(-2384.236 -550.908)" fill="#b5ac84"/></g><g transform="translate(1.46 13.761)"><path d="M2384.723,563.294a.478.478,0,0,0,.127-.017c1.765-.476,7.269-2.8,9.386-6.073a.487.487,0,1,0-.818-.529c-1.937,3-7.22,5.229-8.822,5.661a.487.487,0,0,0,.126.957Z" transform="translate(-2384.236 -556.453)" fill="#b5ac84"/></g></g><path d="M2793.627,401.46a2.888,2.888,0,0,0,1.559,2c.98.556,3.159,1.243,6.74-.394,2.678-1.225,5.078-1.372,6.584-.4a2.936,2.936,0,0,1,1,1.069,1.592,1.592,0,0,0-.8,1.376c0,.883.715,21.208,1.6,21.208s1.6-20.325,1.6-21.208a1.6,1.6,0,0,0-1.6-1.6c-.025,0-.049.007-.074.008a3.658,3.658,0,0,0-1.324-1.478c-1.723-1.107-4.382-.978-7.294.353-3.281,1.5-5.208.909-6.065.423a2.194,2.194,0,0,1-1.187-1.434.371.371,0,0,0-.738.082Zm16.211,3.224a3.676,3.676,0,0,1,.063.659.371.371,0,0,0,.743,0,4.476,4.476,0,0,0-.069-.754.869.869,0,1,1-.737.094Z" transform="translate(-209.481 -36.207)" fill="#b5ac84"/><g transform="translate(2571.167 529.25)"><g transform="translate(0 0)"><g transform="translate(0.005)"><path d="M2784.663,697.815c7.993-3.572,17.116-5.354,18.547-2.152s-5.982,8.811-13.974,12.383-17.116,5.354-18.547,2.152S2776.67,701.388,2784.663,697.815Zm.3.678c-9.321,4.166-14.556,9.259-13.6,11.4s8.244,1.639,17.565-2.527,14.557-9.259,13.6-11.4S2794.287,694.328,2784.966,698.493Z" transform="translate(-2770.51 -693.994)" fill="#b5ac84"/></g><g transform="translate(0 10.199)"><path d="M2774.375,712.933c2.819-1.26,5.615-.932,6.364.746s-.87,3.98-3.689,5.24-5.614.932-6.364-.746S2771.556,714.193,2774.375,712.933Zm.3.678c-2.358,1.053-3.875,3-3.315,4.258s3.026,1.424,5.383.371,3.875-3,3.314-4.259S2777.035,712.557,2774.678,713.611Z" transform="translate(-2770.502 -712.167)" fill="#b5ac84"/></g><g transform="translate(21.957 0.367)"><path d="M2814.372,698.632a2.227,2.227,0,0,0-2.887-1.147,10.509,10.509,0,0,0-1.859-1.8c5.42-1.464,9.587-1.414,10.407.422s-1.9,4.945-6.567,8a10.107,10.107,0,0,0-.132-2.566A2.226,2.226,0,0,0,2814.372,698.632Z" transform="translate(-2809.626 -694.648)" fill="#b5ac84"/></g></g></g><g transform="translate(2859.005 535.399)"><g transform="translate(0)"><path d="M3289.364,716.343l-5.99-4.352h7.4l2.288-7.041,2.288,7.041h7.4l-5.99,4.352,2.288,7.042-5.989-4.352-5.99,4.352Zm8.256,5.066-1.74-5.354,4.554-3.309h-5.63l-1.739-5.354-1.74,5.354H3285.7l4.553,3.309-1.739,5.354,4.554-3.309Z" transform="translate(-3283.374 -704.95)" fill="#b5ac84"/></g></g><g transform="translate(2651.757 345.914)"><path d="M2920.088,378.716l-5.99-4.352h7.4l2.288-7.042,2.288,7.042h7.4l-5.99,4.352,2.288,7.042-5.99-4.352-5.99,4.352Zm8.256,5.065-1.74-5.353,4.554-3.309h-5.629l-1.74-5.354-1.74,5.354h-5.63l4.554,3.309-1.739,5.353,4.554-3.308Z" transform="translate(-2914.098 -367.323)" fill="#b5ac84"/></g><g transform="translate(2453.79 318.529)"><g transform="translate(0)"><path d="M2567.35,329.922l-5.99-4.352h7.4l2.288-7.041,2.288,7.041h7.4l-5.99,4.352,2.288,7.042-5.99-4.352-5.989,4.352Zm8.256,5.066-1.74-5.354,4.554-3.309h-5.629l-1.74-5.354-1.739,5.354h-5.629l4.554,3.309-1.739,5.354,4.554-3.309Z" transform="translate(-2561.36 -318.529)" fill="#b5ac84"/></g></g></g></svg>