<svg xmlns="http://www.w3.org/2000/svg" xmlns:xlink="http://www.w3.org/1999/xlink" width="248.589" height="316.032" viewBox="0 0 248.589 316.032"><defs><clipPath id="a"><rect width="248.589" height="316.032" transform="translate(-1256.379 491.459)" fill="none"/></clipPath><linearGradient id="b" y1="0.5" x2="1" y2="0.5" gradientUnits="objectBoundingBox"><stop offset="0" stop-color="#f3d5c9"/><stop offset="1" stop-color="#f3ccad"/></linearGradient><linearGradient id="c" y1="0.5" x2="1" y2="0.5" gradientUnits="objectBoundingBox"><stop offset="0" stop-color="#e4dfc8"/><stop offset="0.692" stop-color="#6f6f85"/><stop offset="1" stop-color="#a89cc1"/></linearGradient><linearGradient id="f" x1="0.5" y1="1" x2="0.5" gradientUnits="objectBoundingBox"><stop offset="0" stop-color="#ca0000"/><stop offset="1" stop-color="#a80009"/></linearGradient><linearGradient id="g" x1="0.5" y1="1" x2="0.5" gradientUnits="objectBoundingBox"><stop offset="0" stop-color="#e1862a"/><stop offset="1" stop-color="#b83d18"/></linearGradient><linearGradient id="h" x1="0.5" y1="1" x2="0.5" gradientUnits="objectBoundingBox"><stop offset="0" stop-color="#496700"/><stop offset="1" stop-color="#8c8839"/></linearGradient><linearGradient id="i" x1="0.5" y1="1" x2="0.5" gradientUnits="objectBoundingBox"><stop offset="0" stop-color="#a99a00"/><stop offset="1" stop-color="#89ab39"/></linearGradient><linearGradient id="k" y1="0.5" x2="1" y2="0.5" gradientUnits="objectBoundingBox"><stop offset="0" stop-color="#a99a00"/><stop offset="1" stop-color="#b8ab39"/></linearGradient><linearGradient id="m" x1="0.5" y1="1" x2="0.5" gradientUnits="objectBoundingBox"><stop offset="0" stop-color="#668b00"/><stop offset="1" stop-color="#b8ab39"/></linearGradient></defs><g transform="translate(1256.379 -491.459)"><g clip-path="url(#a)"><path d="M-852.335,781.379v1.457l16.78,19.667h9.917v-1.216Z" fill="#42151f"/><path d="M-1153.831,643.586l11.486,155.253,115.407,2.448,6.926-154.3Z" fill="url(#b)"/><path d="M-1106.609,666.37l4.083,1.667h39.833l4.75-5.486h-5.5Z" fill="#bd6f95" opacity="0.38" style="mix-blend-mode:multiply;isolation:isolate"/><path d="M-1111.431,662.536l2.667,3.833h43.667l2.912-4.784Z" fill="url(#c)"/><path d="M-1108.765,666.37l-2.667-3.833,49.245-.95-45.589,1.325,1.167,3.458Z" fill="#fff" style="mix-blend-mode:soft-light;isolation:isolate"/><path d="M-1106.376,662.79l1.621,3.58h8l-1.372-3.819Z" fill="#fff" style="mix-blend-mode:soft-light;isolation:isolate"/><path d="M-1068.75,661.777l-1.192,3.926-38.822.667h43.667l2.912-4.784Z" fill="#703663" opacity="0.38" style="mix-blend-mode:multiply;isolation:isolate"/><path d="M-1062.186,661.586l-49.245.95,2.667,3.833.7-.083-2.5-3.375,48.138-.925Z" fill="#fff"/><path d="M-834.3,801.287l-18.833-20.795.026-132.161,25.141-2Z" fill="#f1a4a4"/><path d="M-813.138,648.545-823.8,801.287h-10.5l6.333-154.951Z" fill="#f1e4dc"/><path d="M-1026.938,801.287l8.633-23.367,7.75-129.375h-9.942Z" fill="#f1a4a4"/><path d="M-1168.164,643.586l58.379-9.9h281.913l59.067,9.9Z" fill="#f1ffe9"/><path d="M-1152.779,657.8l132.01-2.814,9.839-.189-3.595,60.008-9.781-16.222-127.4-26.239Z" fill="#bd6f95" opacity="0.54" style="mix-blend-mode:multiply;isolation:isolate"/><path d="M-853.138,651.764l.021,20.947,23.53,13.154,13.581,3.753,2.7-38.621Z" fill="#bd6f95" opacity="0.38" style="mix-blend-mode:multiply;isolation:isolate"/><path d="M-1028.68,801.25l7.543-140.664-5.8,140.7Z" fill="#fff"/><path d="M-834.3,801.287l5.987-146.487-2.994,146.487Z" fill="#fff"/><path d="M-1020.905,658.221h-87.025l-44.763.755-.056-.755,131.943-1.26Z" fill="#fff" style="mix-blend-mode:soft-light;isolation:isolate"/><path d="M-1149.3,704.771l126.435-2.177.151-1.376-45.3.964-81.349,1.731Z" fill="#fff"/><path d="M-1140.693,798.874l2.018,3.506,108.371,1.456,1.624-2.586Z" fill="#42151f"/><path d="M-1145.583,755.07h120.551l.087-1.328-120.7.428Z" fill="#42151f"/><path d="M-1022.718,701.218l-126.65,2.7-.076-1.028,126.747-2.168Z" fill="#42151f"/><path d="M-1152.748,658.221l131.943-1.26.036-1.972-132.03,2.54Z" fill="#42151f"/><path d="M-1145.583,755.07h120.551l-.049,1.2-120.437-.332Z" fill="#fff"/><path d="M-770.542,652.786l-396.4,5.017-1.224-14.217H-768.8Z" fill="#f1e4dc"/><path d="M-1168.164,643.586H-768.8l-.291,1.539-396.624.045-1.22,12.634Z" fill="#fff"/><path d="M-1106.721,710.419l4.083,1.667h39.833l4.75-5.486h-5.5Z" fill="#bd6f95" opacity="0.38" style="mix-blend-mode:multiply;isolation:isolate"/><path d="M-1111.544,706.586l2.667,3.833h43.667l2.912-4.784Z" fill="url(#c)"/><path d="M-1108.877,710.419l-2.667-3.833,49.245-.95-45.589,1.325,1.167,3.458Z" fill="#fff" style="mix-blend-mode:soft-light;isolation:isolate"/><path d="M-1106.488,706.84l1.621,3.579h8l-1.372-3.819Z" fill="#fff" style="mix-blend-mode:soft-light;isolation:isolate"/><path d="M-1068.863,705.826l-1.192,3.926-38.822.667h43.667l2.912-4.784Z" fill="#703663" opacity="0.38" style="mix-blend-mode:multiply;isolation:isolate"/><path d="M-1062.3,705.636l-49.245.95,2.667,3.833.7-.083-2.5-3.375,48.138-.925Z" fill="#fff"/><path d="M-1105.484,763.318l4.083,1.667h39.833l4.75-5.486h-5.5Z" fill="#bd6f95" opacity="0.38" style="mix-blend-mode:multiply;isolation:isolate"/><path d="M-1110.306,759.484l2.667,3.833h43.667l2.912-4.784Z" fill="url(#c)"/><path d="M-1107.64,763.318l-2.667-3.833,49.245-.95-45.589,1.325,1.167,3.458Z" fill="#fff" style="mix-blend-mode:soft-light;isolation:isolate"/><path d="M-1105.251,759.738l1.621,3.58h8L-1097,759.5Z" fill="#fff" style="mix-blend-mode:soft-light;isolation:isolate"/><path d="M-1067.625,758.725l-1.192,3.926-38.822.667h43.667l2.912-4.784Z" fill="#703663" opacity="0.38" style="mix-blend-mode:multiply;isolation:isolate"/><path d="M-1061.061,758.534l-49.245.95,2.667,3.833.7-.083-2.5-3.375,48.138-.925Z" fill="#fff"/><path d="M-1164.179,645.169l2.25,11.792,53.053-.356-1.928-11.436Z" fill="#fff" style="mix-blend-mode:soft-light;isolation:isolate"/><path d="M-1108.877,645.162l2.156,10.549h19.937l-.9-10.551Z" fill="#fff" style="mix-blend-mode:soft-light;isolation:isolate"/><path d="M-1149.444,661.586l9.806,135h10.167l-2-133.5Z" fill="#fff" opacity="0.73" style="mix-blend-mode:soft-light;isolation:isolate"/><path d="M-817.09,693.084l42.2,0-.793,8.8-42.076.729Z" fill="#f1e4dc"/><path d="M-774.888,693.086l-40.687-9.644-.673,9.641Z" fill="#cc6155"/><path d="M-775.681,701.889l.126-7.658-40.694-1.148,41.36,0Z" fill="#fff"/><path d="M-1147.51,729.026s25.061,3.688,35.966,1.457,20.648-33.564,27.194-37.4,13.434-12.335,20.782-19.684a34.778,34.778,0,0,0,8.977-16.882l-5.589.085,2.108-11.448-.375-9.4-4.34-.685-67.7,53.171-18.076,26.569Z" fill="#bd6f95" opacity="0.54" style="mix-blend-mode:multiply;isolation:isolate"/><path d="M-1037.793,634.6c0,.47-21.04.86-21.78,3.03a.189.189,0,0,0-.02.08c-.22,2.24.7,5.88-.872,7.45a33.167,33.167,0,0,0-2.28,4.74c-4.59,10.3-15.08,33.92-26.91,37.24-14.88,4.17-22.15,30.35-34.65,30.35s-26.18-3.4-26.18-1.83-1.57,31.66-6.82,31.66c-5.09,0-12.25-5.86-12.69-6.22l-.02-.02s0-32.23.36-59.63c.27-19.87.72-37.2,1.49-37.86,1.85-1.56,2.36-.68,3.99-.68s75.59-3.35,76.5-4.27-.038-1.56-.038-3.21,17.99-3.42,20.05-3.42c1.79,0,18.78.96,23.26,1.21.69.05,1.08.07,1.08.07C-1037.173,633.286-1037.793,634.116-1037.793,634.6Z" fill="url(#f)"/><path d="M-1037.793,634.6c0,.48-21.58.87-21.8,3.11s.7,5.88-.872,7.45-14.32,37.81-29.19,41.98-22.15,30.35-34.65,30.35-26.18-3.4-26.18-1.83-1.57,31.66-6.82,31.66c-5.09,0-12.25-5.86-12.69-6.22.43.26,8.26,4.99,12.19,1.06,4.04-4.05,5.01-79.61,5.01-79.61l3.43,47.35s3.77,4.61,14.53,4.61a28.7,28.7,0,0,0,19.93-7.91c2.19-2.19,2.77-43.01,2.77-43.01s1,36.27,3.26,36.27,14.69-13.405,15.65-14.365-1.43-21.725-8.43-28.715-57.23-7.9-58.59-7.9-4.45,4.62-4.45,4.62,1.03-5.63,4.09-5.63,89.8-2.09,92.97-2.09,4.27-3.91,4.72-4.36-.808-3.87-.038-4.64,18.47-3.49,18.47-3.49a.5.5,0,0,1,.08-.07c.69.05,1.08.07,1.08.07C-1037.173,633.286-1037.793,634.116-1037.793,634.6Z" fill="#bd6f95" opacity="0.82" style="mix-blend-mode:multiply;isolation:isolate"/><path d="M-1062.745,649.9c-4.59,10.3-15.08,33.92-26.91,37.24-14.88,4.17-22.15,30.35-34.65,30.35s-26.18-3.4-26.18-1.83-1.57,31.66-6.82,31.66c-5.09,0-12.25-5.86-12.69-6.22l-.02-.02s0-32.23.36-59.63c1.9-15.29,4.55-30.84,7.6-32.57C-1156.355,645.646-1075.195,649.316-1062.745,649.9Z" fill="#bd6f95" opacity="0.38" style="mix-blend-mode:multiply;isolation:isolate"/><path d="M-1037.793,634.6c0,.47-21.04.86-21.78,3.03a7.642,7.642,0,0,0-3.38-.85c-2.54-.1-24.76-1.35-24.76-1.35,0-1.66,17.99-3.42,20.05-3.42,1.79,0,18.78.96,23.26,1.21.69.05,1.08.07,1.08.07C-1037.173,633.286-1037.793,634.116-1037.793,634.6Z" fill="#bd6f95" opacity="0.38" style="mix-blend-mode:multiply;isolation:isolate"/><path d="M-1181.844,715.889s-16.757,1.334-25.506,3.188-24.914,4.925-31.364,5.428-12.754-2.5-12.754-2.5l40.559-20.576,33.736.89,2.077,10.452S-1175.731,715.334-1181.844,715.889Z" fill="#1a183b"/><path d="M-1232.857,716.259l-.462,8.246,10.324-2.759,2.3-4.3Z" fill="#33347a"/><path d="M-1157.375,600.586l-9.05,7.2s-2.84-3.54-4.68-5.72c-.57-.66-1.05-1.2-1.32-1.48-.74-.74-3.71-15.45-5.82-26.38-.1-.48-.19-.96-.28-1.43-.3-1.55-.58-3.01-.83-4.31-.47-2.49-.83-4.4-1.01-5.35-.08-.42-.12-.65-.12-.65a.174.174,0,0,1,.05.01c.14.02.52.08,1.1.22l.01.01a21.106,21.106,0,0,1,9.65,5.56,18.99,18.99,0,0,1,4.46,8.24c1.08,3.73,1.45,7.47,2.01,9.85C-1162.195,590.656-1157.375,600.586-1157.375,600.586Z" fill="#1a346d"/><path d="M-1201.045,760.67c0,3.417,1.032,27.289,1.032,27.289l-2.687.436-1.8.285s-2.589-3.835-5.819-5.392-5.223-6.112-5.223-7.447c0-.712,1.7-3.426,3.408-6.14a51.088,51.088,0,0,0,3.363-5.756c.783-2.127,1.788-46.944,1.788-46.944s18.169-9.191,22.983-7.047C-1184,709.954-1201.045,757.263-1201.045,760.67Z" fill="#992e0e"/><path d="M-1168.335,605.419s4.28-3.83,4.28-8.706-3.437-10.522-3.437-10.522l-3.619,15.88Z" fill="#1a183b"/><path d="M-1187.035,718.451s-14.544,2.749-16.948,2.749c0,0,9.386-12.578,12.426-13.468s7.306,2.929,7.306,2.929Z" fill="#3f0800"/><path d="M-1188.424,714.882l1.649-4.221s-6.08,2.039-6.339,3.151S-1188.424,714.882-1188.424,714.882Z" fill="#1a183b"/><path d="M-1200.9,779.507l-1.8,8.888-1.8.285s-2.589-3.835-5.819-5.392-5.223-6.112-5.223-7.447c0-.712,1.7-3.426,3.408-6.14a38.851,38.851,0,0,0,4.778,6.4A16.03,16.03,0,0,0-1200.9,779.507Z" fill="#00605b"/><path d="M-1169.271,793.191c-1.451,1.442-5.57,3.888-11.567,4.778-6.015.89-11.959-.053-14.13-2.224s-8.453-2-9.565-3.114c-.845-.846.107-4.067.614-6.682a12.619,12.619,0,0,0,.276-2.216c0-.765-.044-1.78-.133-2.892v-.009c-.2-2.589-.694-5.658-1.575-7.109-1.157-1.9-10.677-24.175-16.461-31.738a30.4,30.4,0,0,1-5.508-14.031,27.251,27.251,0,0,1-.275-3.319c6.637-4.485,21.612-6.184,21.612-6.184,0,6.228,5.57,45.707,9.787,52.6,4.236,6.9,15.571,15.348,17.137,16.9a3.187,3.187,0,0,0,.748.516C-1175.58,789.979-1167.981,791.892-1169.271,793.191Z" fill="url(#g)"/><path d="M-1203.776,780.832c-.2-2.589-.694-5.658-1.575-7.109-1.157-1.9-10.677-24.175-16.461-31.738a30.4,30.4,0,0,1-5.508-14.031l14.895-1.575A16.743,16.743,0,0,0-1216.6,736.8c0,6.006,12.288,33.144,13.516,36.818A10.1,10.1,0,0,1-1203.776,780.832Z" fill="#fc9365" opacity="0.68"/><path d="M-1227.008,729.806s15.9-1.363,21.349-6.813l-.106-1.093-21.774,3.953S-1227.187,728.939-1227.008,729.806Z" fill="#3f0800"/><path d="M-1169.275,793.2c-1.45,1.44-5.57,3.88-11.56,4.77-.6.09-1.19.16-1.78.21l-1.29.08-.33.02c-4.33.16-8.22-.61-10.21-2.09a4.613,4.613,0,0,1-.52-.44c-2.17-2.17-8.46-2-9.57-3.12-.84-.84.11-4.06.62-6.68,0,0,.86.34,2.2.85h.01c3.17,1.21,9,3.37,12.23,4.21,4.59,1.18,11.16-2.53,11.16-2.53C-1175.585,789.976-1167.985,791.9-1169.275,793.2Z" fill="#007975"/><path d="M-1166.275,593.066c-.06,3.01-.71,5.23-1.39,5.95a20.807,20.807,0,0,1-3.44,3.05c-3.51,2.44-6.05,2.08-7.89,2.49a10.792,10.792,0,0,0-3.07,1.89,91.452,91.452,0,0,0-7.59,6.82c-3.03,3.03-5.8,12.55-5.8,14.21s8.67,23.24,14.48,41.92,7.14,42.93,7.14,44.27c0,1.25-7.04,2.11-7.92,2.21.74-.15,6.03-1.23,6.03-2.88,0-1.78-6.71-3.19-11.61-1.33a11.123,11.123,0,0,0-3.24,1.65c-.93.8-.12,1.24,1.17,1.24,2,0,1.92,2.23-6.05,3.89-.65.14-1.29.29-1.93.47v.01c-7.26,1.97-14.29,6.27-23.39,7.19-9.89,1.01-13.34-1.22-12.45-2.11s7.89-1.78,7.89-3.56-6.11-2.67-14.9.22c-5.09,1.68-8.05,1.86-9.64,1.72h-.01a3.76,3.76,0,0,1-1.58-.38s4.67-23.25,1.55-60.39,11.01-45.71,13.57-48.27c1.94-1.94,18.57-7.03,26.48-10.51.22-.1.34-.16.34-.16,2.32-1.03,3.81-1.92,3.81-2.52,0-2.61,6.66-40.78,7.71-41.83.14-.14.58-.16,1.22-.07l1.14,2.03a9.409,9.409,0,0,1,.18-1.35,63.227,63.227,0,0,0,6.52,7.04c.03.03.07.05.1.08,1.43,1.07,3.02,2.21,4.71,3.32a4.811,4.811,0,0,0,2.71.53,2.506,2.506,0,0,0,2.07-1.44c-.47-2.49-.83-4.4-1.01-5.35q.21.075.27.09a.031.031,0,0,0,.02.01s1.09,1.52,2.65,3.82c1.56,2.32,3.59,5.44,5.43,8.57a56.866,56.866,0,0,1,4.07,8.04A25.369,25.369,0,0,1-1166.275,593.066Z" fill="#334a98"/><path d="M-1190,542.927l-2.758,10.571s-4.68,5.49-10.366,4.76-7.616-4.244-7.616-4.244c-2.287,0-3.728-2.483-3.728-2.483s-4.449.712-5.117-4.306,4.227-7.038,4.227-7.038a2.547,2.547,0,0,1-.587-1.842c0-1.29,1.557-1.806,1.557-1.806a9.693,9.693,0,0,1,.187-5.3v-.009a6.39,6.39,0,0,1,2.4-3.15c3.328-2.3,7.714-2.447,9.325-2.4h.009c.4.009.622.026.622.026l8.079,2.376Z" fill="#550e10"/><path d="M-1190,542.927l-2.758,10.571s-4.68,5.49-10.366,4.76-7.616-4.244-7.616-4.244c-2.287,0-3.728-2.483-3.728-2.483s-4.449.712-5.117-4.306,4.227-7.038,4.227-7.038a2.547,2.547,0,0,1-.587-1.842c0-1.29,1.557-1.806,1.557-1.806a9.693,9.693,0,0,1,.187-5.3c-.027.213-.445,3.479,1.388,5.3,1.886,1.9,5.783,2.046,5.783,2.046s-.507-2.633.489-3.665a4.85,4.85,0,0,0,2.572,5.267l-2.225-.659s-1.708,5.143,1.371,8.222,7.358,0,7.358,0-2.055-1.806-2.055-3.755a4.038,4.038,0,0,0,2.055,2.313s.169-4.235-2.447-6.139-3.675-3.586-3.23-5.748.668-8.746.668-8.746h.009c.4.009.622.026.622.026l8.079,2.376Z" fill="#3f0800"/><path d="M-1191.711,530.595l-2.056,2.732-1.174,1.566s-4.511-3.15-6.237-7.448a8.5,8.5,0,0,1-.668-3.229c0-2.776,1.557-6.131,3.195-8.88a47.764,47.764,0,0,1,3.71-5.357Z" fill="url(#h)"/><path d="M-1193.767,533.327l-1.174,1.566s-4.511-3.15-6.237-7.448c1.984-1.752,3.167-1.815,3.167-1.815a87.279,87.279,0,0,1-.64-10.294,47.764,47.764,0,0,1,3.71-5.357C-1195.8,511.706-1194.2,528.8-1193.767,533.327Z" fill="#3b7214" opacity="0.27" style="mix-blend-mode:multiply;isolation:isolate"/><path d="M-1162.589,503.6l-12.012,10.027-1.575,1.308-13.24,11.051-5.525,4.609s-.062-.409-.169-1.13v-.009c-.5-3.585-1.833-14.663.169-19.477a22.109,22.109,0,0,1,3.55-5.65h.009c3.248-3.843,7.91-7.073,12.581-7.474,6.211-.525,14.379,5.357,15.945,6.54C-1162.678,503.529-1162.589,503.6-1162.589,503.6Z" fill="url(#i)"/><path d="M-1157.089,547.751s1.641-1.418,1.345-2.391-3.114-3.72-3.263-5.09,3.3-7.046,3.3-7.046-.706,5.334.919,6.959,2.456,2.869,2.2,3.74S-1157.089,547.751-1157.089,547.751Z" fill="#550e10"/><path d="M-1154.831,531.974s-2.932,6.745.042,9.718-.475,4.233-2.3,6.059-1.9,3.357,1.326,4.25c0,0-1.686-2.832.019-4.537s3.6-1.406,4.041-3.465-1.9-2.83-3.086-5.41S-1154.831,531.974-1154.831,531.974Z" fill="#550e10"/><path d="M-1192.03,544.58a34.763,34.763,0,0,1-1.627,6.953,37.557,37.557,0,0,1-4.351,6.793s10.659,12.828,16.414,13.569,3.521-6.218,2.595-7.145a13.093,13.093,0,0,1-1.878-3.114l.256-1.915Z" fill="#992e0e"/><path d="M-1181.594,558.934a19.086,19.086,0,0,0,.576,7.066s-.4-3.846.761-6.279Z" fill="#831a0e"/><path d="M-1192.314,546.389s4.674,14.311,11.437,15.247l.62-1.915-11.68-14.361Z" fill="#3f0800"/><path d="M-1154.831,531.974a8.758,8.758,0,0,1-.32,1.664c-1.779,6.229-5.045,8.231-5.944,10.286s-1.325,4.689-2.268,7.607a10.643,10.643,0,0,1-6.309,6.647c-3.256,1.343-3.159,4.226-7.874,3.265a7.085,7.085,0,0,1-2.358-1.192c-4.164-2.918-10.473-10.188-11.505-13.026-1.263-3.47-1.352-12.8-1.352-12.8s.311-4.2,10.472-6.792,19.646-3.488,23.65-2.447A6.661,6.661,0,0,1-1154.831,531.974Z" fill="url(#g)"/><path d="M-1178.908,552.756s-.325,4.379,2.653,6.228,6.081-.364,6.081-.364a14.037,14.037,0,0,1-5.219-.887C-1177.784,556.732-1178.908,552.756-1178.908,552.756Z" fill="#6f0d00"/><path d="M-1154.831,531.974c-.5-.533-5.062-5-16.425-3.6-12.074,1.486-14.885,10.864-14.885,17.074s6.255,14.806,6.255,14.806h-.018c-4.164-2.918-10.473-10.188-11.505-13.026-1.263-3.47-1.223-13.794-1.223-13.794s.182-3.21,10.343-5.8,19.646-3.488,23.65-2.447A6.661,6.661,0,0,1-1154.831,531.974Z" fill="#992e0e"/><path d="M-1180.079,539.1a7.382,7.382,0,0,0,3.592,3.341c2.392.89,2.855.334,3.04.149s1.173-2.406,1.173-2.406a43.8,43.8,0,0,0-4.806-1.084A12.5,12.5,0,0,0-1180.079,539.1Z" fill="#ffe3c7"/><path d="M-1172.274,540.183s.565-2.609-.3-3.248-5.995-.353-6.659-.143a2.83,2.83,0,0,0-1.738,2.218,22,22,0,0,1,4.791-.31A14.224,14.224,0,0,1-1172.274,540.183Z" fill="#992e0e"/><path d="M-1166.245,545.444s2.269-.613,2.881-.353-.722,2.66-.722,2.66a6.522,6.522,0,0,1-.95-.139,4.213,4.213,0,0,1-1.234-.6Z" fill="#ffe3c7"/><path d="M-1173.331,549.911a22.163,22.163,0,0,1,5.473.342c2.679.584,2.947,1.28,2.947,1.28a12.377,12.377,0,0,1-3.938,1.223c-1.456,0-1.49-.586-1.948-.9a5.321,5.321,0,0,0-2.038-1.014c-.556,0-1.61.022-1.61-.809s3.445-2.277,3.445-2.277S-1173.331,548.882-1173.331,549.911Z" fill="#992e0e"/><path d="M-1178.9,552.228s-.327,4.659,3.176,6.327,6.22-.018,6.379-.78a8.8,8.8,0,0,0,.25-1.919Z" fill="#992e0e"/><path d="M-1168.218,555.745s1.05-1.232.555-1.728c-.6-.6-1.39-.242-2.531-.714a9.762,9.762,0,0,0-3.308-1.075c-1.863-.278-3.839.27-4.95-.227a3.358,3.358,0,0,0,.327.851c.141.142,3.056,1.12,3.172,1.236a16.273,16.273,0,0,0,3.4,1.894A10.478,10.478,0,0,0-1168.218,555.745Z" fill="#6f0d00"/><path d="M-1161.522,545.027s.082-1.94-.622-2.309a5.908,5.908,0,0,0-2.592,0s-1.606,2.128-1.509,2.726c0,0,2.711-.307,3.343-.307A11.226,11.226,0,0,0-1161.522,545.027Z" fill="#992e0e"/><path d="M-1162.5,540.661l3.939-2.725-.593.964s1.594.111,2,.519-1.26,1.927-1.668,1.927a5.746,5.746,0,0,0-4.088.177,5.562,5.562,0,0,0-3.086,4.272,27.608,27.608,0,0,0,.908,4.116s-1.436-2.8-1.436-4.3C-1166.523,544.359-1164.994,542.116-1162.5,540.661Z" fill="#3f0800"/><path d="M-1169.359,536.824a10.153,10.153,0,0,0,2.113-.779c.278-.278,0-.917,0-.917l-.25.417a11.947,11.947,0,0,0-4.525-2.912c-3.7-1.259-9.573-.175-9.573-.175s6.284.668,8.453,1.529A10.769,10.769,0,0,1-1169.359,536.824Z" fill="#3f0800"/><path d="M-1180.877,538.97s4.953-.788,7.271-.1a4.911,4.911,0,0,1,3.036,3.076,15.584,15.584,0,0,0-4.516-1.866C-1177.383,539.509-1180.877,538.97-1180.877,538.97Z" fill="#3f0800"/><path d="M-1171.852,540.672s.663-3.046,0-4.645l-.331.872s-2.318-1.127-7.707-.073c0,0,6.292-.4,7.1.582a3.1,3.1,0,0,1,.391,2.507Z" fill="#3f0800"/><path d="M-1172.966,541.833a1.857,1.857,0,0,1-2.468.858,1.856,1.856,0,0,1-.491-2.567,1.857,1.857,0,0,1,2.468-.858A1.856,1.856,0,0,1-1172.966,541.833Z" fill="#3f0800"/><path d="M-1162.38,546.913c-.5.874-1.353,1.328-1.9,1.014s-.575-1.276-.071-2.15,1.354-1.327,1.9-1.014S-1161.875,546.04-1162.38,546.913Z" fill="#3f0800"/><path d="M-1172.131,540.349l-1.239,2.715h0a4.7,4.7,0,0,1-2.891-.211,6.238,6.238,0,0,1-2.047-1.475,10.6,10.6,0,0,0,2.89,1.184c1.365.261,1.666-.14,1.887-.361a12.293,12.293,0,0,0,.783-2.018Z" fill="#3f0800"/><path d="M-1165.932,545.266s2.68-1.018,4.126-.574a1.418,1.418,0,0,1,1.183,1.616s-.165-.366-2.3-.643a6.441,6.441,0,0,0-3.076.13Z" fill="#3f0800"/><path d="M-1164.106,542.344s1.929-.158,2.476.39c.618.618.529,2.626.529,2.626h-.876s.327-1.939-.125-2.391-2.6-.023-2.6-.023Z" fill="#3f0800"/><path d="M-1162.589,547.48a3.6,3.6,0,0,1-1.826.127c-.834-.222-1.58-.384-1.58-.384a6.824,6.824,0,0,0,2.058,1.038A1.256,1.256,0,0,0-1162.589,547.48Z" fill="#3f0800"/><path d="M-1172.835,550.837s2.516.014,3,.5-.306.89-.306.89a8.585,8.585,0,0,1-1.117-.7c-.206-.207.241-.306.241-.306Z" fill="#3f0800"/><path d="M-1178.841,551.533c-.445,0,.149,1.473.533,1.473a7.433,7.433,0,0,1,3.527,1.5,6.707,6.707,0,0,0,3.027,1.6,6.436,6.436,0,0,0,2.478-.017,3.149,3.149,0,0,0,1.613-.5,5.072,5.072,0,0,1-1.432.264,4.914,4.914,0,0,1-2.669-.125c-1.525-.411-2.767-1.766-3.337-1.96a26.829,26.829,0,0,1-2.947-1.085C-1178.229,552.506-1178.618,551.533-1178.841,551.533Z" fill="#3f0800"/><path d="M-1169.841,549.007c0,.223-.386.4-.862.4s-.862-.18-.862-.4.386-.4.862-.4S-1169.841,548.784-1169.841,549.007Z" fill="#fc9365"/><path d="M-1166.41,549.483c-.061.308-.787.425-1.62.26s-1.461-.549-1.4-.857.787-.425,1.62-.26S-1166.349,549.174-1166.41,549.483Z" fill="#fc9365"/><path d="M-1175,540.929c-.04.2-.472.287-.964.19s-.86-.34-.82-.543.472-.287.964-.19S-1174.957,540.727-1175,540.929Z" fill="#fff"/><path d="M-1163.814,546.522c-.04.2-.472.287-.965.189s-.859-.34-.819-.542.472-.287.964-.19S-1163.774,546.319-1163.814,546.522Z" fill="#fff"/><path d="M-1192.761,532.523a42.88,42.88,0,0,0,1.008,6.066s1.752-4.477,7.766-10.492C-1183.987,528.1-1188.7,527.555-1192.761,532.523Z" fill="#550e10"/><path d="M-1177.445,573.336a3.855,3.855,0,0,1-.8.87,4.563,4.563,0,0,1-.54.34c-4.9,2.62-16.26-11.71-16.68-12.67a3.833,3.833,0,0,1-.18-1.59,9.409,9.409,0,0,1,.18-1.35,63.227,63.227,0,0,0,6.52,7.04c.03.03.07.05.1.08a19.614,19.614,0,0,0,4.71,3.32,4.811,4.811,0,0,0,2.71.53,2.506,2.506,0,0,0,2.07-1.44c.64-1.49-.09-3.75-.74-5.26-.12-.27-.24-.52-.34-.73-.22-.45-.39-.76-.43-.83l1.53,1.05.01.01a25.066,25.066,0,0,1,1.9,4.33C-1176.735,569.186-1176.365,571.676-1177.445,573.336Z" fill="#6df2bf"/><path d="M-1152.544,526.227a1.743,1.743,0,0,1-.044.347,17.822,17.822,0,0,1-2.18,4.315.1.1,0,0,1-.018.035s-1.975-3.737-3.933-4.226c-3.692-.934-15.055-1.664-22.982,1.9-.258.116-.516.232-.766.356a36.208,36.208,0,0,0-3.63,1.975.062.062,0,0,0-.035.018l-.054.027a32.481,32.481,0,0,0-6.415,5.054l-2.34-1.13a32.211,32.211,0,0,1-.178-5.321.428.428,0,0,1,.009-.107v-.009a27.364,27.364,0,0,1,6-15.837c3.5-4.2,8.5-6.683,13.3-8.142a.124.124,0,0,1,.053-.018.057.057,0,0,0,.036-.008,51.8,51.8,0,0,1,12.866-2.056c1.112-.027,1.761-.009,1.761-.009C-1152.953,506.723-1152.544,524.892-1152.544,526.227Z" fill="url(#k)"/><path d="M-1224.16,615.406s8.251,12.815,13.47,12.815,2.15-26,2.15-26l2.824-2.07,10.262,27.322s-6.966,7.623-12.017,12.674-18.354,77.059-18.354,77.059,7.425-65.5,12.543-79.249C-1213.282,637.96-1221.183,623.392-1224.16,615.406Z" fill="#33347a" opacity="0.69"/><path d="M-1166.275,593.066c-.06,3.01-.71,5.23-1.39,5.95-5.35,5.77-8.94,5.01-11.33,5.54-.65.15-9.35,7.7-10.66,8.71l-2.64-17.461C-1184.145,597.925-1167.695,593.826-1166.275,593.066Z" fill="#33347a" opacity="0.57"/><path d="M-1188.945,565.976c-3.79-2.83-6.38-5.13-6.38-5.13l-.32-.56a9.409,9.409,0,0,1,.18-1.35A63.227,63.227,0,0,0-1188.945,565.976Z" fill="#1a183b" opacity="0.37" style="mix-blend-mode:multiply;isolation:isolate"/><path d="M-1154.768,530.889a.1.1,0,0,1-.018.035s-1.975-3.737-3.933-4.226c-3.692-.934-15.055-1.664-22.982,1.9-.258.116-.516.232-.766.356,6.718-4.084,22.538-6.193,26.257-4.974C-1152.651,525.15-1154.59,530.426-1154.768,530.889Z" fill="#3b7214" opacity="0.27" style="mix-blend-mode:multiply;isolation:isolate"/><path d="M-1159.012,511.394a41.189,41.189,0,0,0-17.164,3.541c-5.321,2.492-10.259,7.59-13.24,11.051-1.7,1.976-2.767,3.417-2.9,3.55-.374.374-.178,2.1.6,2.883.712.721,4.867-1.148,5.525-1.45a32.481,32.481,0,0,0-6.415,5.054l-2.34-1.13a32.211,32.211,0,0,1-.178-5.321.428.428,0,0,1,.009-.107v-.009c-.5-3.585-1.833-14.663.169-19.477a22.109,22.109,0,0,1,3.55-5.65h.009c-4.2,5.935-2.918,16.977-2.918,16.977a21.765,21.765,0,0,1,5.926-9.205c4.32-3.764,11.664-6.384,12.563-6.624a.124.124,0,0,1,.053-.018c-.6.285-9.022,4.44-12.2,8.249-3.758,4.505-5.179,12.492-5.179,12.492s4.894-7.056,15.687-11.505c.978-.4,1.922-.756,2.847-1.068C-1165.339,510.442-1159.012,511.394-1159.012,511.394Z" fill="#3b7214" opacity="0.27" style="mix-blend-mode:multiply;isolation:isolate"/><path d="M-1215.21,540.978a10.713,10.713,0,0,0,1.168,5.411s-3.726,1.136-4.783-.683S-1215.21,540.978-1215.21,540.978Z" fill="#550e10"/><path d="M-1209.037,548.6a12.013,12.013,0,0,0,7.191,2.567s-2.909,2.558-5.968,1.585S-1209.037,548.6-1209.037,548.6Z" fill="#550e10"/><path d="M-1137.575,636.176a2.531,2.531,0,0,0-.34-1.3l-.01-.02a2.018,2.018,0,0,0-.34-.46c-.76-.75-13.03-9.19-18.15-14.31a97.547,97.547,0,0,1-9.44-11.48c-.37-.52-.57-.82-.57-.82a20.724,20.724,0,0,1,9.05-7.2,47.5,47.5,0,0,0,3.56,4.6c1.26,1.26,9.42,3.34,11.9,9.86s7.08,14.02,8.56,14.02,3.78-.45,6.68-.45,9.26,6.45,9.26,6.45Z" fill="#992e0e"/><path d="M-1189.415,601.206c-.75,0-1.52.04-2.3.1,0,0-.05,0-.14.01-.01.01-.04.01-.06.01-.12.01-.29.03-.51.04-1.24.13-2.49.32-3.7.55-.1.02-.2.03-.31.06a69.981,69.981,0,0,0-10.27,2.9c-.01,0-.01.01-.02.01s-5.82-32.47-4.33-35.44a19.244,19.244,0,0,1,4.08-5.33l.01-.01a28.481,28.481,0,0,1,7.1-4.84s8.56,6.29,9.86,16.26S-1189.415,601.206-1189.415,601.206Z" fill="#3c639d"/><path d="M-1189.415,601.206l-2.3.13v-.03a32.818,32.818,0,0,0,.15-3.48c0-2.18-.55-24.01-4.95-28.42a20.754,20.754,0,0,0-10.45-5.3,28.481,28.481,0,0,1,7.1-4.84s8.56,6.29,9.86,16.26S-1189.415,601.206-1189.415,601.206Z" fill="#33347a" opacity="0.57"/><path d="M-1191.915,601.326c-.55.06-2.16.25-4.21.59-.1.02-.2.03-.31.06a40.769,40.769,0,0,0-10.27,2.9c-.01,0-.01.01-.02.01s-5.82-32.47-4.33-35.44a19.244,19.244,0,0,1,4.08-5.33c-.11.29-1.89,4.88-1.89,7.83,0,3.06,4.64,28.71,5.48,29.55.7.71,8.54.08,10.96-.13C-1192.2,601.356-1192.035,601.336-1191.915,601.326Z" fill="#3ea2b3" opacity="0.59"/><path d="M-1155.2,646.434s9.237,2,12.026,2,10.384,2.09,14.683,3.066,49.607-1.764,51.857-4.5-21.335-7.2-27.809-7.02-43.135,1.735-43.135,1.735Z" fill="#bd6f95" style="mix-blend-mode:multiply;isolation:isolate"/><path d="M-1103.99,642.341v-7.093l-47.769.062,2.4,7.06Z" fill="#ffd164"/><rect width="0.445" height="4.381" transform="translate(-1104.916 642.341) rotate(180)" fill="#550e10"/><rect width="0.445" height="2.191" transform="translate(-1106.844 642.341) rotate(180)" fill="#550e10"/><rect width="0.445" height="2.191" transform="translate(-1108.772 642.341) rotate(180)" fill="#550e10"/><rect width="0.445" height="4.381" transform="translate(-1110.7 642.341) rotate(180)" fill="#550e10"/><rect width="0.445" height="2.191" transform="translate(-1112.628 642.341) rotate(180)" fill="#550e10"/><rect width="0.445" height="2.191" transform="translate(-1114.555 642.341) rotate(180)" fill="#550e10"/><rect width="0.445" height="4.381" transform="translate(-1116.483 642.341) rotate(180)" fill="#550e10"/><rect width="0.445" height="2.191" transform="translate(-1118.411 642.341) rotate(180)" fill="#550e10"/><rect width="0.445" height="2.191" transform="translate(-1120.339 642.341) rotate(180)" fill="#550e10"/><rect width="0.445" height="4.381" transform="translate(-1122.267 642.341) rotate(180)" fill="#550e10"/><rect width="0.445" height="2.191" transform="translate(-1124.194 642.341) rotate(180)" fill="#550e10"/><rect width="0.445" height="2.191" transform="translate(-1126.122 642.341) rotate(180)" fill="#550e10"/><rect width="0.445" height="4.381" transform="translate(-1128.05 642.341) rotate(180)" fill="#550e10"/><rect width="0.445" height="2.191" transform="translate(-1129.978 642.341) rotate(180)" fill="#550e10"/><rect width="0.445" height="2.191" transform="translate(-1131.906 642.341) rotate(180)" fill="#550e10"/><rect width="0.445" height="4.381" transform="translate(-1133.834 642.341) rotate(180)" fill="#550e10"/><rect width="0.445" height="2.191" transform="translate(-1135.761 642.341) rotate(180)" fill="#550e10"/><rect width="0.445" height="2.191" transform="translate(-1137.689 642.341) rotate(180)" fill="#550e10"/><rect width="0.445" height="4.381" transform="translate(-1139.617 642.341) rotate(180)" fill="#550e10"/><rect width="0.445" height="2.191" transform="translate(-1141.545 642.341) rotate(180)" fill="#550e10"/><rect width="0.445" height="2.191" transform="translate(-1143.473 642.341) rotate(180)" fill="#550e10"/><rect width="0.445" height="4.381" transform="translate(-1145.401 642.341) rotate(180)" fill="#550e10"/><path d="M-1175.171,622.837c0,3.31-.151,9.334-.3,14.263-.027.792-.045,1.557-.071,2.278-.1,3.221-.178,5.552-.178,5.552s-.543-2.153-1.353-5.445c-2.34-9.556-6.913-28.775-6.913-33.189,0-3.719-2.127-14.618-4.52-23.027-1.415-5.009-2.918-9.129-4.129-10.339-3.229-3.239-5.89-15.66-5.89-18.916s2.518-11.149,2.518-11.149l.018.009,2.207,1.735s-1.7,12.457-1.032,17.021v.009c.667,4.52,12.243,23.33,13.471,26.079,0,.009.008.018.008.027s.009.009.009.018C-1180.215,590.361-1175.171,616.609-1175.171,622.837Z" fill="url(#h)"/><path d="M-1171.994,655.047c-1.192,1.192-8.462,6.068-9.627,4.893-.926-.925-3.31-12.812-4.262-20.8a48.177,48.177,0,0,1-.4-5.214c0-6.229-2.971-45.565-3.719-50.984s-10.526-20.536-10.526-23.223,2-19.53,2-19.53l2.518,2.678.018.009,1.05,1.121s-2.8,11.4-1.842,14.263a20.157,20.157,0,0,0,1.967,3.372v.009c3.977,6.068,12.474,17.688,13.115,21.568.142.863.249,2.242.338,3.951.009.186.018.382.026.587.187,3.995.276,9.591.4,14.894l.044,1.7c.125,4.787.3,9.173.632,11.674.454,3.372,2.723,12.5,4.787,21.087.187.747.365,1.495.534,2.233C-1173.008,647.412-1171.434,654.495-1171.994,655.047Z" fill="url(#m)"/><path d="M-1184.94,710.85s-4.684-49.264-8.087-62.982l1.295,66.94S-1191.387,713.114-1184.94,710.85Z" fill="#3ea2b3" opacity="0.59"/><path d="M-1192.314,535.74s-3.043-6.2-6.046-6.2c-2.224,0-4.416,4.8-3.082,7.141s3.294,3.2,5.246,6.812c1.3,2.4,3.592,2.535,4.259,1.868S-1192.314,535.74-1192.314,535.74Z" fill="#992e0e"/><path d="M-1193.075,539.01s-4.173-5.3-5.841-5.745-1.613,2.872-1.613,2.872.334-1.713,1.52-1.713,5.761,5.846,6.124,5.846S-1193.075,539.01-1193.075,539.01Z" fill="#831a0e"/><path d="M-1194.338,537.936s1.126,3.371.482,4.014-2.372,0-2.372,0,1.285.027,1.285-.566-1.179-4.56-1.179-4.56Z" fill="#831a0e"/><path d="M-1194.083,541.169c-1.872,0-3.389,2.71-3.389,6.054s1.517,6.054,3.389,6.054,3.389-2.711,3.389-6.054S-1192.211,541.169-1194.083,541.169Zm0,9.413c-1.31,0-2.372-1.9-2.372-4.237s1.062-4.237,2.372-4.237,2.372,1.9,2.372,4.237S-1192.773,550.582-1194.083,550.582Z" fill="#fe6a00"/><path d="M-1194.083,542.176c-.985,0-1.783,1.425-1.783,3.184s.8,3.184,1.783,3.184,1.782-1.426,1.782-3.184S-1193.1,542.176-1194.083,542.176Zm0,4.951c-.689,0-1.248-1-1.248-2.229s.559-2.228,1.248-2.228,1.247,1,1.247,2.228S-1193.394,547.127-1194.083,547.127Z" fill="#fe6a00"/><path d="M-1191.48,544.449c-.525-1.949-1.593-3.283-2.82-3.283-1.753,0-3.168,2.713-3.168,6.059q0,.574.053,1.121c.276,2.812,1.566,4.929,3.115,4.929,1.752,0,3.176-2.705,3.176-6.05A10.5,10.5,0,0,0-1191.48,544.449Zm-2.82,6.13c-.988,0-1.816-1.219-2.1-2.9a7.177,7.177,0,0,1-.116-1.335c0-2.34.988-4.235,2.216-4.235.969,0,1.788,1.174,2.091,2.811a7.38,7.38,0,0,1,.133,1.424C-1192.076,548.684-1193.073,550.579-1194.3,550.579Z" fill="#fe9300"/><path d="M-1194.3,542.18c-.917,0-1.664,1.424-1.664,3.176a5.45,5.45,0,0,0,.3,1.833c.3.819.8,1.353,1.362,1.353.925,0,1.672-1.424,1.672-3.186v-.151C-1192.672,543.523-1193.4,542.18-1194.3,542.18Zm0,4.947a.851.851,0,0,1-.659-.391,3.146,3.146,0,0,1-.507-1.833c0-1.237.525-2.234,1.166-2.234s1.174,1,1.174,2.234a3.308,3.308,0,0,1-.062.667C-1193.331,546.469-1193.775,547.127-1194.3,547.127Z" fill="#fe9300"/><path d="M-1192.628,545.205c-.186.116-.373.24-.56.365a3.308,3.308,0,0,0,.062-.667c0-1.237-.525-2.234-1.174-2.234s-1.166,1-1.166,2.234a3.146,3.146,0,0,0,.507,1.833c-.24.151-.471.3-.7.453a5.45,5.45,0,0,1-.3-1.833c0-1.752.747-3.176,1.664-3.176C-1193.4,542.18-1192.672,543.523-1192.628,545.205Z" fill="#fff" style="mix-blend-mode:soft-light;isolation:isolate"/><path d="M-1191.48,544.449c-.24.151-.48.311-.729.471-.3-1.637-1.122-2.811-2.091-2.811-1.228,0-2.216,1.9-2.216,4.235a7.177,7.177,0,0,0,.116,1.335c-.365.24-.712.462-1.015.667q-.052-.547-.053-1.121c0-3.346,1.415-6.059,3.168-6.059C-1193.073,541.166-1192.005,542.5-1191.48,544.449Z" fill="#fff" style="mix-blend-mode:soft-light;isolation:isolate"/><path d="M-1174.939,639.333c-.2.009-.4.027-.6.045-.481.035-1,.08-1.531.107-3.123.2-6.886.266-8.808-.347a48.177,48.177,0,0,1-.4-5.214c0-6.229-2.971-45.565-3.719-50.984l1.495.329,2.224.49s-2.651-7.279-4.7-11.532c.917,1.771,5.793,11.291,6.193,12.76.445,1.61,1,16.567,1.78,17.35s2.117,2,2.117,2l-.044-1.7-.409-14.921-.018-.56c.009.186.018.382.026.587,0,.009.009.009.009.018,1.113,2.6,6.157,28.846,6.157,35.074,0,3.31-.151,9.334-.3,14.263C-1175.286,637.847-1175.108,638.595-1174.939,639.333Z" fill="#3b7214" opacity="0.27" style="mix-blend-mode:multiply;isolation:isolate"/><path d="M-1140.968,645.642a15.018,15.018,0,0,1-4.84-.712,6.989,6.989,0,0,1-2.839,1.059,15.372,15.372,0,0,1-2.722-.347,8.874,8.874,0,0,1-2.447.792h-5.837a.975.975,0,0,1-.525-.25c-1.931-1.494-6.46-9.262-7.261-9.262a65.115,65.115,0,0,1-18.48-4c-8.088-3.265-10.935-6.709-12.385-8.159-1.353-1.344-4.458-6.807-6.887-17.617-.178-.792-.356-1.62-.525-2.474,0,0,3.6-2.5,15.713-3.337,0,0,.409,9.681.819,10.081s8.3,3.782,10.9,8.088,5.41,7.483,8.9,9.263a20.638,20.638,0,0,0,7.34,2.3c.739,0,5.561-2.972,7.857-2.153s6.839,5.353,9.366,6.323l-5.485.057a56.8,56.8,0,0,0,7.054,6.637c.214.143.418.276.614.41h.018c2.491,1.575,3.853,1.566,4.235,1.948C-1137.97,644.707-1138.637,645.642-1140.968,645.642Z" fill="url(#g)"/><path d="M-1162.047,631.067s-1.708,1.113-5.783-.08-10.356-6.1-13.773-10.915-11.879-8.953-11.879-8.953l3.337-.516s-2.082-5.419-5.268-5.419-9.778,1.958-9.778,1.958c-.178-.792-.4-1.842-.572-2.7,0,0,5.234-2.621,15.76-3.114,0,0,.409,9.681.819,10.081s8.3,3.782,10.9,8.088,5.41,7.483,8.9,9.263A20.638,20.638,0,0,0-1162.047,631.067Z" fill="#992e0e"/><path d="M-1140.968,645.642a15.018,15.018,0,0,1-4.84-.712,6.989,6.989,0,0,1-2.839,1.059,15.372,15.372,0,0,1-2.722-.347,8.874,8.874,0,0,1-2.447.792h-5.837a.975.975,0,0,1-.525-.25s3.363-.542,4.36-.542,3.167-.712,4.449-.712,3.363.2,4.057-.5a6.716,6.716,0,0,0,4.671-2.091h.018c2.491,1.575,3.853,1.566,4.235,1.948C-1137.97,644.707-1138.637,645.642-1140.968,645.642Z" fill="#992e0e" opacity="0.52"/><path d="M-1150.309,635.294s-3.007-3.077-3.007-3.755.453-1.966,1.251-1.374,7.241,5.072,7.241,5.072Z" fill="#992e0e"/><path d="M-1149.224,636.459l43.622-.65,1.613,6.531v-7.093l-46.32.047Z" fill="#fff" style="mix-blend-mode:soft-light;isolation:isolate"/><path d="M-1195.455,718.446c-.65.14-1.29.29-1.93.47.13-.55,4.69-20.71,4.69-36.12,0-15.63-1.42-39.21-1.42-39.21s1.64,3.33,3.54,23-.348,47.143-.348,47.143c-.313.313.228.827,1.518.827C-1187.405,714.556-1187.485,716.786-1195.455,718.446Z" fill="#33347a"/><path d="M-1220.06,721.521s14.811-27.268,21.7-50.1C-1198.36,671.419-1201.721,700.717-1220.06,721.521Z" fill="#33347a"/><path d="M-1209.865,602.836c-2.12,1-13.64,6.48-17.82,9.38a49.121,49.121,0,0,0-5.62,4.22l.9-3.18s-4.57,4.19-10.15,16.76-1.22,52.68-2.32,60.88c0,0,2.9-7.04,6.57-16.26,0,0-3.34,22.29-7.16,35.26a100.817,100.817,0,0,1-4.41,12.49h-.01a3.76,3.76,0,0,1-1.58-.38s4.67-23.25,1.55-60.39,11.01-45.71,13.57-48.27C-1234.405,611.406-1217.775,606.316-1209.865,602.836Z" fill="#3ea2b3" opacity="0.59"/><path d="M-1218.147,547.4c-.668-5.027,4.226-7.038,4.226-7.038a2.547,2.547,0,0,1-.587-1.842c0-1.29,1.557-1.806,1.557-1.806a9.7,9.7,0,0,1,.187-5.3v-.009a6.4,6.4,0,0,1,2.4-3.15c3.136-2.171,7.209-2.423,9.017-2.407l-.5-.148s-.222-.017-.622-.026h-.009c-1.611-.045-6,.1-9.325,2.4a6.39,6.39,0,0,0-2.4,3.15v.009a9.693,9.693,0,0,0-.187,5.3s-1.557.516-1.557,1.806a2.547,2.547,0,0,0,.587,1.842s-4.894,2.011-4.227,7.038c.534,4.013,3.48,4.36,4.642,4.339C-1216.24,551.209-1217.777,550.192-1218.147,547.4Z" fill="#96401a"/><path d="M-1209.3,554.193c-2.287,0-3.728-2.483-3.728-2.483a4.929,4.929,0,0,1-1.343-.026c.353.535,1.684,2.33,3.631,2.33,0,0,1.939,3.514,7.616,4.244.193.025.381.025.571.036C-1207.559,557.34-1209.3,554.193-1209.3,554.193Z" fill="#96181a"/><path d="M-1165.215,576.506a30.626,30.626,0,0,1-3.71-.23,18.47,18.47,0,0,1-3.07-.67,34.752,34.752,0,0,1-5.45-2.27c-.36-.18-.72-.37-1.08-.56-1.91-1.03-3.81-2.2-5.61-3.4a4.811,4.811,0,0,0,2.71.53,2.506,2.506,0,0,0,2.07-1.44c-.47-2.49-.83-4.4-1.01-5.35-.08-.42-.12-.65-.12-.65a.174.174,0,0,1,.05.01c-.22-.45-.39-.76-.43-.83l1.53,1.05.01.01a21.106,21.106,0,0,1,9.65,5.56A18.99,18.99,0,0,1-1165.215,576.506Z" fill="#1a183b" opacity="0.37" style="mix-blend-mode:multiply;isolation:isolate"/><path d="M-1137.925,634.856a2.018,2.018,0,0,0-.34-.46c-.76-.75-13.03-9.19-18.15-14.31a97.547,97.547,0,0,1-9.44-11.48l-.01-.03a14.319,14.319,0,0,1,3.39,2.1c1.04,1.04,16.24,17.85,24.2,23.01Z" fill="url(#g)"/><path d="M-1169.275,793.2c-1.45,1.44-5.57,3.88-11.56,4.77-.6.09-1.19.16-1.78.21l-1.29.08-.33.02c-4.33.16-8.22-.61-10.21-2.09a11.329,11.329,0,0,0-3.36-4.06c-2.58-1.54-3.91-5.33-3.91-5.33h.01c3.17,1.21,9,3.37,12.23,4.21,4.59,1.18,11.16-2.53,11.16-2.53C-1175.585,789.976-1167.985,791.9-1169.275,793.2Z" fill="#00605b"/></g></g></svg>