<svg xmlns="http://www.w3.org/2000/svg" xmlns:xlink="http://www.w3.org/1999/xlink" width="394" height="215.393" viewBox="0 0 394 215.393">
  <defs>
    <clipPath id="clip-path">
      <rect id="Rectángulo_7597" data-name="Rectángulo 7597" width="394" height="215.393" rx="9" transform="translate(780.877 3920.645)" fill="none"/>
    </clipPath>
    <clipPath id="clip-path-2">
      <path id="Trazado_117514" data-name="Trazado 117514" d="M787.877,3986.46v69.73s140.511,1.2,171.739,14.1l119,2.216V3944.544S946.906,3943,922.1,3939.3c0,0-22.047-4.542-59.274,3.413Z" fill="none"/>
    </clipPath>
  </defs>
  <g id="Grupo_61216" data-name="Grupo 61216" transform="translate(-780.877 -3920.645)">
    <rect id="Rectángulo_7597-2" data-name="Rectángulo 7597" width="394" height="215.393" rx="9" transform="translate(780.877 3920.645)" fill="#fff"/>
    <g id="Grupo_61249" data-name="Grupo 61249">
      <g id="Grupo_61248" data-name="Grupo 61248" clip-path="url(#clip-path)">
        <g id="Grupo_61247" data-name="Grupo 61247">
          <path id="Trazado_117507" data-name="Trazado 117507" d="M787.877,3986.46v69.73s140.511,1.2,171.739,14.1l119,2.216V3944.544S946.906,3943,922.1,3939.3c0,0-22.047-4.542-59.274,3.413Z" fill="#ead4b9"/>
          <g id="Grupo_61219" data-name="Grupo 61219">
            <g id="Grupo_61218" data-name="Grupo 61218" clip-path="url(#clip-path-2)">
              <g id="Grupo_61217" data-name="Grupo 61217">
                <g id="Grupo_61216-2" data-name="Grupo 61216">
                  <line id="Línea_612" data-name="Línea 612" x1="1.696" y2="144.59" transform="translate(1148.255 3943.12)" fill="none" stroke="#575756" stroke-miterlimit="10" stroke-width="0.5"/>
                  <line id="Línea_613" data-name="Línea 613" x1="1.696" y2="144.59" transform="translate(1140.591 3943.03)" fill="none" stroke="#575756" stroke-miterlimit="10" stroke-width="0.5"/>
                  <line id="Línea_614" data-name="Línea 614" x1="1.696" y2="144.59" transform="translate(1132.928 3942.94)" fill="none" stroke="#575756" stroke-miterlimit="10" stroke-width="0.5"/>
                  <line id="Línea_615" data-name="Línea 615" x1="1.696" y2="144.59" transform="translate(1125.264 3942.85)" fill="none" stroke="#575756" stroke-miterlimit="10" stroke-width="0.5"/>
                  <line id="Línea_616" data-name="Línea 616" x1="1.696" y2="144.59" transform="translate(1117.6 3942.76)" fill="none" stroke="#575756" stroke-miterlimit="10" stroke-width="0.5"/>
                  <line id="Línea_617" data-name="Línea 617" x1="1.696" y2="144.59" transform="translate(1109.936 3942.67)" fill="none" stroke="#575756" stroke-miterlimit="10" stroke-width="0.5"/>
                  <line id="Línea_618" data-name="Línea 618" x1="1.696" y2="144.59" transform="translate(1102.273 3942.581)" fill="none" stroke="#575756" stroke-miterlimit="10" stroke-width="0.5"/>
                  <line id="Línea_619" data-name="Línea 619" x1="1.696" y2="144.59" transform="translate(1094.609 3942.49)" fill="none" stroke="#575756" stroke-miterlimit="10" stroke-width="0.5"/>
                  <line id="Línea_620" data-name="Línea 620" x1="1.696" y2="144.59" transform="translate(1086.945 3942.401)" fill="none" stroke="#575756" stroke-miterlimit="10" stroke-width="0.5"/>
                  <line id="Línea_621" data-name="Línea 621" x1="1.696" y2="144.59" transform="translate(1079.281 3942.311)" fill="none" stroke="#575756" stroke-miterlimit="10" stroke-width="0.5"/>
                  <line id="Línea_622" data-name="Línea 622" x1="1.696" y2="144.59" transform="translate(1071.617 3942.221)" fill="none" stroke="#575756" stroke-miterlimit="10" stroke-width="0.5"/>
                  <line id="Línea_623" data-name="Línea 623" x1="1.696" y2="144.59" transform="translate(1063.954 3942.131)" fill="none" stroke="#575756" stroke-miterlimit="10" stroke-width="0.5"/>
                  <line id="Línea_624" data-name="Línea 624" x1="1.696" y2="144.59" transform="translate(1056.29 3942.041)" fill="none" stroke="#575756" stroke-miterlimit="10" stroke-width="0.5"/>
                  <line id="Línea_625" data-name="Línea 625" x1="1.696" y2="144.59" transform="translate(1048.626 3941.951)" fill="none" stroke="#575756" stroke-miterlimit="10" stroke-width="0.5"/>
                  <line id="Línea_626" data-name="Línea 626" x1="1.696" y2="144.59" transform="translate(1040.962 3941.861)" fill="none" stroke="#575756" stroke-miterlimit="10" stroke-width="0.5"/>
                  <line id="Línea_627" data-name="Línea 627" x1="1.696" y2="144.59" transform="translate(1033.299 3941.771)" fill="none" stroke="#575756" stroke-miterlimit="10" stroke-width="0.5"/>
                  <line id="Línea_628" data-name="Línea 628" x1="1.696" y2="144.59" transform="translate(1025.635 3941.681)" fill="none" stroke="#575756" stroke-miterlimit="10" stroke-width="0.5"/>
                  <line id="Línea_629" data-name="Línea 629" x1="1.696" y2="144.59" transform="translate(1017.971 3941.591)" fill="none" stroke="#575756" stroke-miterlimit="10" stroke-width="0.5"/>
                  <line id="Línea_630" data-name="Línea 630" x1="1.696" y2="144.59" transform="translate(1010.307 3941.501)" fill="none" stroke="#575756" stroke-miterlimit="10" stroke-width="0.5"/>
                  <line id="Línea_631" data-name="Línea 631" x1="1.696" y2="144.59" transform="translate(1002.643 3941.412)" fill="none" stroke="#575756" stroke-miterlimit="10" stroke-width="0.5"/>
                  <line id="Línea_632" data-name="Línea 632" x1="1.696" y2="144.59" transform="translate(994.98 3941.322)" fill="none" stroke="#575756" stroke-miterlimit="10" stroke-width="0.5"/>
                  <line id="Línea_633" data-name="Línea 633" x1="1.696" y2="144.59" transform="translate(987.316 3941.232)" fill="none" stroke="#575756" stroke-miterlimit="10" stroke-width="0.5"/>
                  <line id="Línea_634" data-name="Línea 634" x1="1.696" y2="144.59" transform="translate(979.652 3941.142)" fill="none" stroke="#575756" stroke-miterlimit="10" stroke-width="0.5"/>
                  <line id="Línea_635" data-name="Línea 635" x1="1.696" y2="144.59" transform="translate(971.988 3941.052)" fill="none" stroke="#575756" stroke-miterlimit="10" stroke-width="0.5"/>
                  <line id="Línea_636" data-name="Línea 636" x1="1.696" y2="144.59" transform="translate(964.325 3940.962)" fill="none" stroke="#575756" stroke-miterlimit="10" stroke-width="0.5"/>
                  <line id="Línea_637" data-name="Línea 637" x1="1.696" y2="144.59" transform="translate(956.661 3940.872)" fill="none" stroke="#575756" stroke-miterlimit="10" stroke-width="0.5"/>
                  <line id="Línea_638" data-name="Línea 638" x1="1.696" y2="144.59" transform="translate(948.997 3940.782)" fill="none" stroke="#575756" stroke-miterlimit="10" stroke-width="0.5"/>
                  <line id="Línea_639" data-name="Línea 639" x1="1.696" y2="144.59" transform="translate(941.333 3940.692)" fill="none" stroke="#575756" stroke-miterlimit="10" stroke-width="0.5"/>
                  <line id="Línea_640" data-name="Línea 640" x1="1.696" y2="144.59" transform="translate(933.669 3940.602)" fill="none" stroke="#575756" stroke-miterlimit="10" stroke-width="0.5"/>
                  <line id="Línea_641" data-name="Línea 641" x1="1.696" y2="144.59" transform="translate(926.006 3940.512)" fill="none" stroke="#575756" stroke-miterlimit="10" stroke-width="0.5"/>
                  <line id="Línea_642" data-name="Línea 642" x1="1.696" y2="144.59" transform="translate(918.342 3940.422)" fill="none" stroke="#575756" stroke-miterlimit="10" stroke-width="0.5"/>
                  <line id="Línea_643" data-name="Línea 643" x1="1.696" y2="144.59" transform="translate(910.678 3940.333)" fill="none" stroke="#575756" stroke-miterlimit="10" stroke-width="0.5"/>
                  <line id="Línea_644" data-name="Línea 644" x1="1.696" y2="144.59" transform="translate(903.014 3940.243)" fill="none" stroke="#575756" stroke-miterlimit="10" stroke-width="0.5"/>
                  <line id="Línea_645" data-name="Línea 645" x1="1.696" y2="144.59" transform="translate(895.351 3940.153)" fill="none" stroke="#575756" stroke-miterlimit="10" stroke-width="0.5"/>
                  <line id="Línea_646" data-name="Línea 646" x1="1.696" y2="144.59" transform="translate(887.687 3940.063)" fill="none" stroke="#575756" stroke-miterlimit="10" stroke-width="0.5"/>
                  <line id="Línea_647" data-name="Línea 647" x1="1.696" y2="144.59" transform="translate(880.023 3939.973)" fill="none" stroke="#575756" stroke-miterlimit="10" stroke-width="0.5"/>
                  <line id="Línea_648" data-name="Línea 648" x1="1.696" y2="144.59" transform="translate(872.359 3939.883)" fill="none" stroke="#575756" stroke-miterlimit="10" stroke-width="0.5"/>
                  <line id="Línea_649" data-name="Línea 649" x1="1.696" y2="144.59" transform="translate(864.695 3939.793)" fill="none" stroke="#575756" stroke-miterlimit="10" stroke-width="0.5"/>
                  <line id="Línea_650" data-name="Línea 650" x1="1.696" y2="144.59" transform="translate(857.032 3939.703)" fill="none" stroke="#575756" stroke-miterlimit="10" stroke-width="0.5"/>
                  <line id="Línea_651" data-name="Línea 651" x1="1.696" y2="144.59" transform="translate(849.368 3939.613)" fill="none" stroke="#575756" stroke-miterlimit="10" stroke-width="0.5"/>
                  <line id="Línea_652" data-name="Línea 652" x1="1.696" y2="144.59" transform="translate(841.704 3939.523)" fill="none" stroke="#575756" stroke-miterlimit="10" stroke-width="0.5"/>
                  <line id="Línea_653" data-name="Línea 653" x1="1.696" y2="144.59" transform="translate(834.04 3939.433)" fill="none" stroke="#575756" stroke-miterlimit="10" stroke-width="0.5"/>
                  <line id="Línea_654" data-name="Línea 654" x1="1.696" y2="144.59" transform="translate(826.377 3939.343)" fill="none" stroke="#575756" stroke-miterlimit="10" stroke-width="0.5"/>
                  <line id="Línea_655" data-name="Línea 655" x1="1.696" y2="144.59" transform="translate(818.713 3939.253)" fill="none" stroke="#575756" stroke-miterlimit="10" stroke-width="0.5"/>
                  <line id="Línea_656" data-name="Línea 656" x1="1.696" y2="144.59" transform="translate(811.049 3939.164)" fill="none" stroke="#575756" stroke-miterlimit="10" stroke-width="0.5"/>
                  <line id="Línea_657" data-name="Línea 657" x1="1.696" y2="144.59" transform="translate(803.385 3939.074)" fill="none" stroke="#575756" stroke-miterlimit="10" stroke-width="0.5"/>
                  <line id="Línea_658" data-name="Línea 658" x1="1.696" y2="144.59" transform="translate(795.721 3938.984)" fill="none" stroke="#575756" stroke-miterlimit="10" stroke-width="0.5"/>
                  <line id="Línea_659" data-name="Línea 659" x1="1.696" y2="144.59" transform="translate(788.058 3938.894)" fill="none" stroke="#575756" stroke-miterlimit="10" stroke-width="0.5"/>
                  <line id="Línea_660" data-name="Línea 660" x1="1.696" y2="144.59" transform="translate(780.394 3938.804)" fill="none" stroke="#575756" stroke-miterlimit="10" stroke-width="0.5"/>
                  <line id="Línea_661" data-name="Línea 661" x1="1.696" y2="144.59" transform="translate(772.73 3938.714)" fill="none" stroke="#575756" stroke-miterlimit="10" stroke-width="0.5"/>
                  <line id="Línea_662" data-name="Línea 662" x1="1.696" y2="144.59" transform="translate(765.066 3938.624)" fill="none" stroke="#575756" stroke-miterlimit="10" stroke-width="0.5"/>
                  <line id="Línea_663" data-name="Línea 663" x1="1.696" y2="144.59" transform="translate(757.403 3938.534)" fill="none" stroke="#575756" stroke-miterlimit="10" stroke-width="0.5"/>
                  <line id="Línea_664" data-name="Línea 664" x1="1.696" y2="144.59" transform="translate(749.739 3938.444)" fill="none" stroke="#575756" stroke-miterlimit="10" stroke-width="0.5"/>
                  <line id="Línea_665" data-name="Línea 665" x1="1.696" y2="144.59" transform="translate(742.075 3938.354)" fill="none" stroke="#575756" stroke-miterlimit="10" stroke-width="0.5"/>
                  <line id="Línea_666" data-name="Línea 666" x1="1.696" y2="144.59" transform="translate(734.411 3938.264)" fill="none" stroke="#575756" stroke-miterlimit="10" stroke-width="0.5"/>
                  <line id="Línea_667" data-name="Línea 667" x2="427.638" y2="5.018" transform="translate(728.916 3941.501)" fill="none" stroke="#575756" stroke-miterlimit="10" stroke-width="0.5"/>
                  <line id="Línea_668" data-name="Línea 668" x2="427.638" y2="5.018" transform="translate(728.826 3949.165)" fill="none" stroke="#575756" stroke-miterlimit="10" stroke-width="0.5"/>
                  <line id="Línea_669" data-name="Línea 669" x2="427.638" y2="5.018" transform="translate(728.736 3956.829)" fill="none" stroke="#575756" stroke-miterlimit="10" stroke-width="0.5"/>
                  <line id="Línea_670" data-name="Línea 670" x2="427.638" y2="5.018" transform="translate(728.646 3964.493)" fill="none" stroke="#575756" stroke-miterlimit="10" stroke-width="0.5"/>
                  <line id="Línea_671" data-name="Línea 671" x2="427.638" y2="5.018" transform="translate(728.557 3972.156)" fill="none" stroke="#575756" stroke-miterlimit="10" stroke-width="0.5"/>
                  <line id="Línea_672" data-name="Línea 672" x2="427.638" y2="5.018" transform="translate(728.467 3979.82)" fill="none" stroke="#575756" stroke-miterlimit="10" stroke-width="0.5"/>
                  <line id="Línea_673" data-name="Línea 673" x2="427.638" y2="5.018" transform="translate(728.377 3987.484)" fill="none" stroke="#575756" stroke-miterlimit="10" stroke-width="0.5"/>
                  <line id="Línea_674" data-name="Línea 674" x2="427.638" y2="5.018" transform="translate(728.287 3995.148)" fill="none" stroke="#575756" stroke-miterlimit="10" stroke-width="0.5"/>
                  <line id="Línea_675" data-name="Línea 675" x2="427.638" y2="5.018" transform="translate(728.197 4002.812)" fill="none" stroke="#575756" stroke-miterlimit="10" stroke-width="0.5"/>
                  <line id="Línea_676" data-name="Línea 676" x2="427.638" y2="5.018" transform="translate(728.107 4010.475)" fill="none" stroke="#575756" stroke-miterlimit="10" stroke-width="0.5"/>
                  <line id="Línea_677" data-name="Línea 677" x2="427.638" y2="5.018" transform="translate(728.017 4018.139)" fill="none" stroke="#575756" stroke-miterlimit="10" stroke-width="0.5"/>
                  <line id="Línea_678" data-name="Línea 678" x2="427.638" y2="5.018" transform="translate(727.927 4025.803)" fill="none" stroke="#575756" stroke-miterlimit="10" stroke-width="0.5"/>
                  <line id="Línea_679" data-name="Línea 679" x2="427.638" y2="5.018" transform="translate(727.837 4033.467)" fill="none" stroke="#575756" stroke-miterlimit="10" stroke-width="0.5"/>
                  <line id="Línea_680" data-name="Línea 680" x2="427.638" y2="5.018" transform="translate(727.747 4041.13)" fill="none" stroke="#575756" stroke-miterlimit="10" stroke-width="0.5"/>
                  <line id="Línea_681" data-name="Línea 681" x2="427.638" y2="5.018" transform="translate(727.657 4048.794)" fill="none" stroke="#575756" stroke-miterlimit="10" stroke-width="0.5"/>
                  <line id="Línea_682" data-name="Línea 682" x2="427.638" y2="5.018" transform="translate(727.567 4056.458)" fill="none" stroke="#575756" stroke-miterlimit="10" stroke-width="0.5"/>
                  <line id="Línea_683" data-name="Línea 683" x2="427.638" y2="5.018" transform="translate(727.477 4064.122)" fill="none" stroke="#575756" stroke-miterlimit="10" stroke-width="0.5"/>
                  <line id="Línea_684" data-name="Línea 684" x2="427.638" y2="5.018" transform="translate(727.387 4071.786)" fill="none" stroke="#575756" stroke-miterlimit="10" stroke-width="0.5"/>
                  <line id="Línea_685" data-name="Línea 685" x2="427.638" y2="5.018" transform="translate(727.298 4079.449)" fill="none" stroke="#575756" stroke-miterlimit="10" stroke-width="0.5"/>
                </g>
                <line id="Línea_686" data-name="Línea 686" y1="64.814" x2="50.767" transform="translate(888.348 3963.498)" fill="none" stroke="#3a3a3a" stroke-miterlimit="10" stroke-width="1"/>
                <path id="Trazado_117508" data-name="Trazado 117508" d="M933.537,4050.544l-2.6,4.715-3.164-4.183,2.881-5.246Z" fill="#595959" stroke="#595959" stroke-miterlimit="10" stroke-width="0.5"/>
                <path id="Trazado_117509" data-name="Trazado 117509" d="M1024.581,4014.785l-2.6,4.715-3.164-4.183,2.881-5.247Z" fill="#595959" stroke="#595959" stroke-miterlimit="10" stroke-width="0.5"/>
                <path id="Trazado_117510" data-name="Trazado 117510" d="M968.054,4066.911l-2.6,4.715-3.164-4.183,2.881-5.247Z" fill="#595959" stroke="#595959" stroke-miterlimit="10" stroke-width="0.5"/>
                <path id="Trazado_117511" data-name="Trazado 117511" d="M894.3,3944.01l-2.6,4.715-3.164-4.183,2.881-5.247Z" fill="#595959" stroke="#595959" stroke-miterlimit="10" stroke-width="0.5"/>
                <path id="Trazado_117512" data-name="Trazado 117512" d="M768.529,3961.056s30.84,5.061,26.8,88.4" fill="none" stroke="#595959" stroke-miterlimit="10" stroke-width="1" stroke-dasharray="6"/>
                <path id="Trazado_117513" data-name="Trazado 117513" d="M790.883,4038.715s156.411.88,157.485,0,2.159-11.073,144.067,1.71" fill="none" stroke="#595959" stroke-miterlimit="10" stroke-width="1" stroke-dasharray="6"/>
                <line id="Línea_687" data-name="Línea 687" y2="103.443" transform="translate(820.33 3948.621)" fill="none" stroke="#3a3a3a" stroke-miterlimit="10" stroke-width="0.75"/>
                <line id="Línea_688" data-name="Línea 688" x1="5.492" y2="25.953" transform="translate(774.056 3948.621)" fill="none" stroke="#595959" stroke-miterlimit="10" stroke-width="1" stroke-dasharray="6"/>
                <line id="Línea_689" data-name="Línea 689" y2="103.443" transform="translate(850.8 3948.621)" fill="none" stroke="#3a3a3a" stroke-miterlimit="10" stroke-width="0.75"/>
                <line id="Línea_690" data-name="Línea 690" y2="103.443" transform="translate(882.188 3948.621)" fill="none" stroke="#3a3a3a" stroke-miterlimit="10" stroke-width="0.75"/>
                <line id="Línea_691" data-name="Línea 691" y2="103.443" transform="translate(912.779 3948.621)" fill="none" stroke="#3a3a3a" stroke-miterlimit="10" stroke-width="0.75"/>
                <line id="Línea_692" data-name="Línea 692" y2="97.208" transform="translate(945.242 3948.621)" fill="none" stroke="#3a3a3a" stroke-miterlimit="10" stroke-width="0.75"/>
                <line id="Línea_693" data-name="Línea 693" y2="97.208" transform="translate(976.89 3948.621)" fill="none" stroke="#3a3a3a" stroke-miterlimit="10" stroke-width="0.75"/>
                <line id="Línea_694" data-name="Línea 694" y2="97.208" transform="translate(1008.546 3948.621)" fill="none" stroke="#3a3a3a" stroke-miterlimit="10" stroke-width="0.75"/>
                <line id="Línea_695" data-name="Línea 695" y2="97.208" transform="translate(1040.466 3948.621)" fill="none" stroke="#3a3a3a" stroke-miterlimit="10" stroke-width="0.75"/>
                <line id="Línea_696" data-name="Línea 696" y2="97.208" transform="translate(1071.85 3948.621)" fill="none" stroke="#3a3a3a" stroke-miterlimit="10" stroke-width="0.75"/>
                <line id="Línea_697" data-name="Línea 697" x1="318.379" transform="translate(774.056 3976.481)" fill="none" stroke="#3a3a3a" stroke-miterlimit="10" stroke-width="0.75"/>
                <line id="Línea_698" data-name="Línea 698" x1="308.288" transform="translate(789.028 4016.512)" fill="none" stroke="#3a3a3a" stroke-miterlimit="10" stroke-width="0.75"/>
              </g>
            </g>
          </g>
          <rect id="Rectángulo_7684" data-name="Rectángulo 7684" width="29.117" height="398.542" transform="translate(790.052 4098.129) rotate(-90)" fill="#938a91"/>
          <path id="Trazado_117515" data-name="Trazado 117515" d="M1022.989,4071.233l55.625,1.275V3944.544s-27.3-.393-56.914-1.259Z" fill="#ead4b9"/>
          <path id="Trazado_117516" data-name="Trazado 117516" d="M1017.135,3993.04l12.651.334v-33.549s-6.208-.1-12.944-.33Z" fill="#eac7b2"/>
          <path id="Trazado_117517" data-name="Trazado 117517" d="M1017.135,4061.46l12.651.334v-33.548s-6.208-.1-12.944-.33Z" fill="#eac7b2"/>
          <g id="Grupo_61226" data-name="Grupo 61226">
            <g id="Grupo_61220" data-name="Grupo 61220">
              <path id="Trazado_117518" data-name="Trazado 117518" d="M1001.724,4119.712l-2.017,1.47-31.467,22.881-11.392,10.693-7.93,101.6-47.01-1.488,20.879-118.258s2.589-34.058,3.749-39.034c.9-3.877,2.58-22.616,3.285-30.745a4,4,0,0,1,4.116-3.669,4.019,4.019,0,0,1,3.877,3.839l.993,23.425,8.915-33.823a3.9,3.9,0,0,1,7.68,1.116l-2.239,31.982,13.272-33.555a3.985,3.985,0,0,1,7.753,1.425c0,.118-.008.236-.023.353l-5.2,35.816,23.455-22.84a3.156,3.156,0,0,1,4.914,3.9c-4.5,7.243-18.877,31.384-19.426,33.443-2.637,9.885-1.571,13.458-1.571,13.458s21.1-9.832,24.087-9.242c.035.013.059.014.094.027a3.844,3.844,0,0,1,3.011,3.623A4.017,4.017,0,0,1,1001.724,4119.712Z" fill="#ffa780"/>
            </g>
            <g id="Grupo_61221" data-name="Grupo 61221">
              <path id="Trazado_117519" data-name="Trazado 117519" d="M936.578,4068.6l-5.745-.182c.117-2.512,1.446-4.487,3.016-4.438S936.619,4066.087,936.578,4068.6Z" fill="#f2d1c2"/>
            </g>
            <g id="Grupo_61222" data-name="Grupo 61222">
              <path id="Trazado_117520" data-name="Trazado 117520" d="M954.323,4059.84l-5.7-.724c.355-2.49,1.864-4.33,3.422-4.132S954.6,4057.341,954.323,4059.84Z" fill="#f2d1c2"/>
            </g>
            <g id="Grupo_61223" data-name="Grupo 61223">
              <path id="Trazado_117521" data-name="Trazado 117521" d="M973,4059.6l-5.627-1.169c.548-2.454,2.2-4.171,3.735-3.851S973.474,4057.13,973,4059.6Z" fill="#f2d1c2"/>
            </g>
            <g id="Grupo_61224" data-name="Grupo 61224">
              <path id="Trazado_117522" data-name="Trazado 117522" d="M995.766,4076.2l-4.292-3.016c1.348-1.857,3.351-2.7,4.523-1.874S997.057,4074.3,995.766,4076.2Z" fill="#f2d1c2"/>
            </g>
            <g id="Grupo_61225" data-name="Grupo 61225">
              <path id="Trazado_117523" data-name="Trazado 117523" d="M1001.724,4119.712l-2.017,1.47-2.548-3.7c2.555-1.712,5.239-2.276,6.366-1.379A4.017,4.017,0,0,1,1001.724,4119.712Z" fill="#f2d1c2"/>
            </g>
          </g>
          <g id="Grupo_61246" data-name="Grupo 61246">
            <g id="Grupo_61227" data-name="Grupo 61227">
              <path id="Trazado_117524" data-name="Trazado 117524" d="M1065.165,4045.717l-16.324,24.081s2.38,4.091,6.44,2.714,16.133-18.063,16.133-18.063Z" fill="#dd886b"/>
            </g>
            <g id="Grupo_61228" data-name="Grupo 61228">
              <path id="Trazado_117525" data-name="Trazado 117525" d="M1074.566,4050.031l-16.324,24.081s2.381,4.091,6.44,2.713,16.134-18.063,16.134-18.063Z" fill="#dd886b"/>
            </g>
            <g id="Grupo_61229" data-name="Grupo 61229">
              <path id="Trazado_117526" data-name="Trazado 117526" d="M1054.406,4042.215l-10.979,12.661s1.147,4.779,7.227,2.934,12.655-10.878,12.655-10.878Z" fill="#dd886b"/>
            </g>
            <path id="Trazado_117527" data-name="Trazado 117527" d="M1162.869,4223.169c-9.205-25.854-40.234-132.127-40.234-132.127s-15.713-32.455-28.762-48.428c-2.691-3.306-27.931-16.138-30.644-15.032a13.607,13.607,0,0,0-4.664,3.347c-.155,0-.314-.007-.462.007-4.028.374-23,12.826-23,12.826,2.143,11.613,20,2.641,22.535,1.717,1.186-.431,7.036,5.521,11.934,10.817a12.352,12.352,0,0,1,.9,2.905c.811,6.053-5.222,15.168-7.717,14.582s-14.866-6.023-14.866-6.023-.414-18.581-9.045-15.351c0,0-3.561,17.465-.715,22.568s24.491,19.356,26.958,20.437,23.775,10.284,29.132,15.479c4.118,3.978,16.413,90.752,19.636,112.276Z" fill="#ffa780"/>
            <g id="Grupo_61230" data-name="Grupo 61230">
              <path id="Trazado_117528" data-name="Trazado 117528" d="M1078.673,4044.855c-4.4-3.956-16.675-14.6-20-13.855l.633-.633c4.415-.969,18.377,12.251,20.037,13.742Z" fill="#dd886b"/>
            </g>
            <g id="Grupo_61231" data-name="Grupo 61231">
              <path id="Trazado_117529" data-name="Trazado 117529" d="M1084.737,4036.674c.9,1.145,1.8,2.3,2.661,3.468a3.725,3.725,0,0,1,.629-1.6C1087.006,4037.938,1085.9,4037.313,1084.737,4036.674Z" fill="#ffa780"/>
            </g>
            <g id="Grupo_61232" data-name="Grupo 61232">
              <path id="Trazado_117530" data-name="Trazado 117530" d="M1088.842,4042.99c-.07-.068-7.063-6.823-10.1-8.8l.748-.311c3.12,2.026,9.762,8.1,10.052,8.386Z" fill="#dd886b"/>
            </g>
            <g id="Grupo_61242" data-name="Grupo 61242">
              <g id="Grupo_61237" data-name="Grupo 61237">
                <g id="Grupo_61233" data-name="Grupo 61233">
                  <path id="Trazado_117531" data-name="Trazado 117531" d="M1029.637,4057.979c.5-1.767,51.11-45.2,62.47-54.929a6.878,6.878,0,0,1,5.676-1.592,5.943,5.943,0,0,1,2.58,10.182c-15.387,14.684-67.228,52.139-67.228,52.139Z" fill="#1e9dd0"/>
                </g>
                <g id="Grupo_61234" data-name="Grupo 61234">
                  <path id="Trazado_117532" data-name="Trazado 117532" d="M1097.907,4001.492a5.95,5.95,0,0,1,.9,9.509c-14.256,13.6-59.8,46.75-66.417,51.55l.741,1.228s51.841-37.455,67.228-52.139A5.942,5.942,0,0,0,1097.907,4001.492Z" fill="#048db7"/>
                </g>
                <g id="Grupo_61235" data-name="Grupo 61235">
                  <path id="Trazado_117533" data-name="Trazado 117533" d="M1033.138,4063.779l-6.722,2.719-6.2,2.514,4.733-5.533,4.692-5.5Z" fill="#de956a"/>
                </g>
                <g id="Grupo_61236" data-name="Grupo 61236">
                  <path id="Trazado_117534" data-name="Trazado 117534" d="M1026.416,4066.5l-6.2,2.514,4.733-5.533A24.359,24.359,0,0,1,1026.416,4066.5Z" fill="#f95150"/>
                </g>
              </g>
              <g id="Grupo_61241" data-name="Grupo 61241">
                <g id="Grupo_61238" data-name="Grupo 61238">
                  <path id="Trazado_117535" data-name="Trazado 117535" d="M1102.076,4007.214a5.406,5.406,0,1,1-5.225-5.728A5.483,5.483,0,0,1,1102.076,4007.214Z" fill="#048db7"/>
                </g>
                <g id="Grupo_61239" data-name="Grupo 61239">
                  <path id="Trazado_117536" data-name="Trazado 117536" d="M1101.809,4006.957a4.922,4.922,0,1,1-4.765-5.052A4.911,4.911,0,0,1,1101.809,4006.957Z" fill="#de956a"/>
                </g>
                <g id="Grupo_61240" data-name="Grupo 61240">
                  <path id="Trazado_117537" data-name="Trazado 117537" d="M1098.753,4006.6a1.488,1.488,0,1,1-1.441-1.528A1.485,1.485,0,0,1,1098.753,4006.6Z" fill="#f95150"/>
                </g>
              </g>
            </g>
            <g id="Grupo_61245" data-name="Grupo 61245">
              <g id="Grupo_61243" data-name="Grupo 61243">
                <path id="Trazado_117538" data-name="Trazado 117538" d="M1063.061,4074.257a95.221,95.221,0,0,0-6.227,15.964c-7.277-4.9-16.868-11.953-18.7-15.244-1.8-3.218-1.043-11.381-.23-16.947.365-2.6.748-4.624.888-5.34.042-.187.057-.281.057-.281,8.631-3.23,9.045,15.351,9.045,15.351S1058.491,4072.543,1063.061,4074.257Z" fill="#ffa780"/>
              </g>
              <g id="Grupo_61244" data-name="Grupo 61244">
                <path id="Trazado_117539" data-name="Trazado 117539" d="M1041.55,4058.417l-3.645-.387c.365-2.6.748-4.624.888-5.34C1040.59,4052.948,1041.82,4055.476,1041.55,4058.417Z" fill="#f2d1c2"/>
              </g>
            </g>
          </g>
        </g>
      </g>
    </g>
    <g id="Grupo_61250" data-name="Grupo 61250">
      <path id="Trazado_117540" data-name="Trazado 117540" d="M1058.987,3939.912c-.064-1.222-.142-2.69-.13-3.782h-.039c-.3,1.026-.663,2.118-1.1,3.328l-1.548,4.251h-.857l-1.417-4.174c-.416-1.234-.768-2.365-1.015-3.405h-.025c-.027,1.092-.091,2.56-.169,3.874l-.235,3.757h-1.079l.611-8.763h1.443l1.495,4.238c.364,1.079.663,2.041.885,2.952h.039c.221-.884.532-1.846.923-2.952l1.559-4.238h1.444l.545,8.763h-1.1Z" fill="#3a3a3a"/>
      <path id="Trazado_117541" data-name="Trazado 117541" d="M1063.445,3935.7a.709.709,0,0,1-1.417,0,.7.7,0,0,1,.716-.715A.679.679,0,0,1,1063.445,3935.7Zm-1.273,8.061v-6.292h1.143v6.292Z" fill="#3a3a3a"/>
      <path id="Trazado_117542" data-name="Trazado 117542" d="M1065.058,3942.591a3,3,0,0,0,1.507.455c.832,0,1.223-.416,1.223-.937,0-.546-.325-.844-1.17-1.156-1.132-.4-1.664-1.027-1.664-1.781a1.94,1.94,0,0,1,2.171-1.847,3.14,3.14,0,0,1,1.547.391l-.286.832a2.449,2.449,0,0,0-1.287-.364c-.676,0-1.053.389-1.053.858,0,.52.377.754,1.2,1.065,1.092.416,1.651.962,1.651,1.9,0,1.1-.858,1.885-2.353,1.885a3.6,3.6,0,0,1-1.769-.429Z" fill="#3a3a3a"/>
      <path id="Trazado_117543" data-name="Trazado 117543" d="M1070.362,3939.172c0-.651-.013-1.184-.051-1.7h1l.051,1.013h.039a2.171,2.171,0,0,1,1.976-1.157,1.86,1.86,0,0,1,1.781,1.262h.027a2.555,2.555,0,0,1,.7-.819,2.141,2.141,0,0,1,1.39-.443c.832,0,2.068.546,2.068,2.731v3.705h-1.118V3940.2c0-1.209-.443-1.936-1.366-1.936a1.477,1.477,0,0,0-1.351,1.04,1.853,1.853,0,0,0-.092.572v3.887H1074.3v-3.771c0-1-.443-1.728-1.314-1.728a1.563,1.563,0,0,0-1.417,1.143,1.581,1.581,0,0,0-.091.56v3.8h-1.118Z" fill="#3a3a3a"/>
      <path id="Trazado_117544" data-name="Trazado 117544" d="M1084.688,3943.761l-.091-.793h-.039a2.343,2.343,0,0,1-1.924.935,1.792,1.792,0,0,1-1.924-1.806c0-1.522,1.352-2.354,3.783-2.34v-.13a1.3,1.3,0,0,0-1.43-1.456,3.136,3.136,0,0,0-1.638.468l-.26-.754a3.9,3.9,0,0,1,2.067-.56c1.924,0,2.392,1.314,2.392,2.574v2.354a8.753,8.753,0,0,0,.1,1.508Zm-.169-3.211c-1.248-.027-2.665.194-2.665,1.417a1.012,1.012,0,0,0,1.079,1.092,1.566,1.566,0,0,0,1.521-1.053,1.194,1.194,0,0,0,.065-.364Z" fill="#3a3a3a"/>
      <path id="Trazado_117545" data-name="Trazado 117545" d="M1094.711,3943.526a4.2,4.2,0,0,1-1.808.365,2.989,2.989,0,0,1-3.132-3.211,3.2,3.2,0,0,1,3.379-3.341,3.837,3.837,0,0,1,1.586.324l-.259.885a2.659,2.659,0,0,0-1.327-.3,2.372,2.372,0,0,0-.039,4.732,3.256,3.256,0,0,0,1.405-.311Z" fill="#3a3a3a"/>
      <path id="Trazado_117546" data-name="Trazado 117546" d="M1099.534,3943.761l-.092-.793h-.039a2.34,2.34,0,0,1-1.924.935,1.792,1.792,0,0,1-1.923-1.806c0-1.522,1.351-2.354,3.783-2.34v-.13a1.3,1.3,0,0,0-1.43-1.456,3.133,3.133,0,0,0-1.638.468l-.26-.754a3.9,3.9,0,0,1,2.067-.56c1.924,0,2.392,1.314,2.392,2.574v2.354a8.858,8.858,0,0,0,.1,1.508Zm-.17-3.211c-1.248-.027-2.665.194-2.665,1.417a1.012,1.012,0,0,0,1.079,1.092,1.566,1.566,0,0,0,1.522-1.053,1.2,1.2,0,0,0,.064-.364Z" fill="#3a3a3a"/>
      <path id="Trazado_117547" data-name="Trazado 117547" d="M1102.315,3939.172c0-.651-.013-1.184-.051-1.7h1.013l.066,1.04h.025a2.313,2.313,0,0,1,2.08-1.184c.871,0,2.224.521,2.224,2.679v3.757h-1.145v-3.627c0-1.015-.377-1.86-1.456-1.86a1.627,1.627,0,0,0-1.534,1.17,1.65,1.65,0,0,0-.078.534v3.783h-1.144Z" fill="#3a3a3a"/>
      <path id="Trazado_117548" data-name="Trazado 117548" d="M1110.856,3935.661v1.808h1.638v.871h-1.638v3.392c0,.781.221,1.223.859,1.223a2.548,2.548,0,0,0,.663-.078l.052.857a2.784,2.784,0,0,1-1.015.157,1.583,1.583,0,0,1-1.234-.481,2.328,2.328,0,0,1-.443-1.639v-3.431h-.974v-.871h.974v-1.508Z" fill="#3a3a3a"/>
      <path id="Trazado_117549" data-name="Trazado 117549" d="M1115.055,3935.7a.709.709,0,0,1-1.417,0,.7.7,0,0,1,.716-.715A.679.679,0,0,1,1115.055,3935.7Zm-1.274,8.061v-6.292h1.144v6.292Z" fill="#3a3a3a"/>
      <path id="Trazado_117550" data-name="Trazado 117550" d="M1122.257,3934.53v7.606c0,.558.014,1.2.053,1.625h-1.028l-.052-1.092h-.026a2.325,2.325,0,0,1-2.144,1.234c-1.522,0-2.692-1.286-2.692-3.2-.013-2.094,1.287-3.381,2.821-3.381a2.1,2.1,0,0,1,1.9.962h.026v-3.757Zm-1.144,5.5a2.011,2.011,0,0,0-.051-.48,1.682,1.682,0,0,0-1.652-1.326c-1.182,0-1.885,1.04-1.885,2.43,0,1.275.624,2.327,1.859,2.327a1.72,1.72,0,0,0,1.678-1.365,1.978,1.978,0,0,0,.051-.493Z" fill="#3a3a3a"/>
      <path id="Trazado_117551" data-name="Trazado 117551" d="M1127.64,3943.761l-.092-.793h-.039a2.343,2.343,0,0,1-1.924.935,1.792,1.792,0,0,1-1.924-1.806c0-1.522,1.352-2.354,3.783-2.34v-.13a1.3,1.3,0,0,0-1.429-1.456,3.137,3.137,0,0,0-1.639.468l-.26-.754a3.907,3.907,0,0,1,2.068-.56c1.923,0,2.391,1.314,2.391,2.574v2.354a8.851,8.851,0,0,0,.105,1.508Zm-.17-3.211c-1.248-.027-2.665.194-2.665,1.417a1.012,1.012,0,0,0,1.079,1.092,1.565,1.565,0,0,0,1.521-1.053,1.2,1.2,0,0,0,.065-.364Z" fill="#3a3a3a"/>
      <path id="Trazado_117552" data-name="Trazado 117552" d="M1135.854,3934.53v7.606c0,.558.014,1.2.053,1.625h-1.027l-.052-1.092h-.026a2.327,2.327,0,0,1-2.145,1.234c-1.521,0-2.691-1.286-2.691-3.2-.013-2.094,1.287-3.381,2.821-3.381a2.105,2.105,0,0,1,1.9.962h.026v-3.757Zm-1.143,5.5a2.013,2.013,0,0,0-.052-.48,1.682,1.682,0,0,0-1.651-1.326c-1.183,0-1.885,1.04-1.885,2.43,0,1.275.624,2.327,1.858,2.327a1.719,1.719,0,0,0,1.678-1.365,1.977,1.977,0,0,0,.052-.493Z" fill="#3a3a3a"/>
      <path id="Trazado_117553" data-name="Trazado 117553" d="M1055.049,3959.36l-.092-.793h-.039a2.339,2.339,0,0,1-1.924.936,1.793,1.793,0,0,1-1.924-1.807c0-1.521,1.352-2.353,3.784-2.34v-.129a1.3,1.3,0,0,0-1.431-1.456,3.136,3.136,0,0,0-1.638.467l-.26-.754a3.91,3.91,0,0,1,2.068-.559c1.924,0,2.391,1.313,2.391,2.574v2.354a8.843,8.843,0,0,0,.1,1.507Zm-.169-3.211c-1.248-.026-2.666.2-2.666,1.417a1.012,1.012,0,0,0,1.079,1.092,1.563,1.563,0,0,0,1.521-1.053,1.165,1.165,0,0,0,.066-.364Z" fill="#3a3a3a"/>
      <path id="Trazado_117554" data-name="Trazado 117554" d="M1057.83,3954.771c0-.65-.013-1.183-.052-1.7h1.014l.064,1.04h.027a2.314,2.314,0,0,1,2.08-1.183c.871,0,2.224.52,2.224,2.679v3.756h-1.145v-3.627c0-1.014-.377-1.859-1.456-1.859a1.625,1.625,0,0,0-1.534,1.17,1.65,1.65,0,0,0-.078.533v3.783h-1.144Zm1.066-2.782c-.026-.844.325-1.352.884-1.352a1.6,1.6,0,0,1,.806.286,1.3,1.3,0,0,0,.546.222c.208,0,.338-.118.364-.56h.611c.013.871-.286,1.313-.9,1.313a1.73,1.73,0,0,1-.793-.26,1.156,1.156,0,0,0-.559-.234c-.208,0-.312.221-.338.585Z" fill="#3a3a3a"/>
      <path id="Trazado_117555" data-name="Trazado 117555" d="M1068.529,3959.36l-.091-.793h-.04a2.337,2.337,0,0,1-1.923.936,1.793,1.793,0,0,1-1.924-1.807c0-1.521,1.351-2.353,3.783-2.34v-.129a1.3,1.3,0,0,0-1.431-1.456,3.13,3.13,0,0,0-1.637.467l-.26-.754a3.9,3.9,0,0,1,2.067-.559c1.924,0,2.392,1.313,2.392,2.574v2.354a8.85,8.85,0,0,0,.1,1.507Zm-.169-3.211c-1.248-.026-2.666.2-2.666,1.417a1.012,1.012,0,0,0,1.079,1.092,1.565,1.565,0,0,0,1.522-1.053,1.2,1.2,0,0,0,.065-.364Z" fill="#3a3a3a"/>
      <path id="Trazado_117556" data-name="Trazado 117556" d="M1076.745,3950.13v7.605c0,.559.014,1.2.053,1.625h-1.027l-.052-1.091h-.027a2.325,2.325,0,0,1-2.144,1.234c-1.522,0-2.692-1.286-2.692-3.2-.012-2.094,1.288-3.381,2.822-3.381a2.1,2.1,0,0,1,1.9.962h.027v-3.757Zm-1.143,5.5a2.023,2.023,0,0,0-.052-.481,1.683,1.683,0,0,0-1.652-1.326c-1.182,0-1.884,1.04-1.884,2.431,0,1.274.624,2.327,1.858,2.327a1.72,1.72,0,0,0,1.678-1.365,1.983,1.983,0,0,0,.052-.493Z" fill="#3a3a3a"/>
      <path id="Trazado_117557" data-name="Trazado 117557" d="M1079.917,3951.3a.709.709,0,0,1-1.417,0,.7.7,0,0,1,.716-.715A.678.678,0,0,1,1079.917,3951.3Zm-1.273,8.06v-6.292h1.143v6.292Z" fill="#3a3a3a"/>
      <path id="Trazado_117558" data-name="Trazado 117558" d="M1087.119,3950.13v7.605c0,.559.014,1.2.053,1.625h-1.027l-.052-1.091h-.027a2.325,2.325,0,0,1-2.144,1.234c-1.522,0-2.692-1.286-2.692-3.2-.012-2.094,1.288-3.381,2.822-3.381a2.1,2.1,0,0,1,1.9.962h.027v-3.757Zm-1.143,5.5a2.017,2.017,0,0,0-.052-.481,1.683,1.683,0,0,0-1.652-1.326c-1.182,0-1.884,1.04-1.884,2.431,0,1.274.624,2.327,1.858,2.327a1.72,1.72,0,0,0,1.678-1.365,1.977,1.977,0,0,0,.052-.493Z" fill="#3a3a3a"/>
      <path id="Trazado_117559" data-name="Trazado 117559" d="M1092.5,3959.36l-.092-.793h-.039a2.338,2.338,0,0,1-1.924.936,1.793,1.793,0,0,1-1.924-1.807c0-1.521,1.352-2.353,3.784-2.34v-.129a1.3,1.3,0,0,0-1.43-1.456,3.136,3.136,0,0,0-1.639.467l-.259-.754a3.9,3.9,0,0,1,2.067-.559c1.924,0,2.392,1.313,2.392,2.574v2.354a8.85,8.85,0,0,0,.1,1.507Zm-.17-3.211c-1.248-.026-2.665.2-2.665,1.417a1.012,1.012,0,0,0,1.079,1.092,1.566,1.566,0,0,0,1.522-1.053,1.191,1.191,0,0,0,.064-.364Z" fill="#3a3a3a"/>
      <path id="Trazado_117560" data-name="Trazado 117560" d="M1101.523,3959.36l-.091-.793h-.039a2.34,2.34,0,0,1-1.924.936,1.792,1.792,0,0,1-1.924-1.807c0-1.521,1.351-2.353,3.783-2.34v-.129a1.3,1.3,0,0,0-1.431-1.456,3.132,3.132,0,0,0-1.637.467l-.26-.754a3.906,3.906,0,0,1,2.067-.559c1.924,0,2.392,1.313,2.392,2.574v2.354a8.85,8.85,0,0,0,.1,1.507Zm-.169-3.211c-1.248-.026-2.666.2-2.666,1.417a1.013,1.013,0,0,0,1.08,1.092,1.564,1.564,0,0,0,1.521-1.053,1.192,1.192,0,0,0,.065-.364Z" fill="#3a3a3a"/>
      <path id="Trazado_117561" data-name="Trazado 117561" d="M1107.061,3950.13h1.143v9.23h-1.143Z" fill="#3a3a3a"/>
      <path id="Trazado_117562" data-name="Trazado 117562" d="M1113.613,3959.36l-.092-.793h-.039a2.337,2.337,0,0,1-1.923.936,1.793,1.793,0,0,1-1.924-1.807c0-1.521,1.351-2.353,3.783-2.34v-.129a1.3,1.3,0,0,0-1.431-1.456,3.13,3.13,0,0,0-1.637.467l-.26-.754a3.9,3.9,0,0,1,2.067-.559c1.924,0,2.392,1.313,2.392,2.574v2.354a8.85,8.85,0,0,0,.1,1.507Zm-.169-3.211c-1.248-.026-2.666.2-2.666,1.417a1.012,1.012,0,0,0,1.079,1.092,1.565,1.565,0,0,0,1.522-1.053,1.2,1.2,0,0,0,.065-.364Z" fill="#3a3a3a"/>
      <path id="Trazado_117563" data-name="Trazado 117563" d="M1119.15,3955.122c0-.806-.026-1.456-.051-2.054h1.026l.052,1.079h.026a2.473,2.473,0,0,1,2.236-1.222c1.521,0,2.665,1.287,2.665,3.2,0,2.263-1.377,3.38-2.86,3.38a2.2,2.2,0,0,1-1.936-.987h-.027v3.419h-1.131Zm1.131,1.677a2.679,2.679,0,0,0,.052.469,1.765,1.765,0,0,0,1.717,1.338c1.209,0,1.91-.988,1.91-2.431,0-1.261-.662-2.34-1.872-2.34a1.827,1.827,0,0,0-1.729,1.417,1.861,1.861,0,0,0-.078.469Z" fill="#3a3a3a"/>
      <path id="Trazado_117564" data-name="Trazado 117564" d="M1127.82,3951.3a.709.709,0,0,1-1.417,0,.7.7,0,0,1,.716-.715A.678.678,0,0,1,1127.82,3951.3Zm-1.273,8.06v-6.292h1.143v6.292Z" fill="#3a3a3a"/>
      <path id="Trazado_117565" data-name="Trazado 117565" d="M1130.226,3956.422a2.015,2.015,0,0,0,2.158,2.184,4.138,4.138,0,0,0,1.742-.325l.2.82a5.119,5.119,0,0,1-2.093.389,2.921,2.921,0,0,1-3.094-3.172c0-1.9,1.118-3.393,2.951-3.393,2.054,0,2.6,1.807,2.6,2.965a4.286,4.286,0,0,1-.039.532Zm3.354-.818a1.629,1.629,0,0,0-1.586-1.86,1.9,1.9,0,0,0-1.756,1.86Z" fill="#3a3a3a"/>
      <path id="Trazado_117566" data-name="Trazado 117566" d="M1135.387,3958.7l2.846-3.705c.274-.338.534-.637.82-.974v-.027h-3.407v-.923h4.8l-.012.715-2.809,3.654c-.26.35-.519.663-.806.987v.026h3.679v.91h-5.108Z" fill="#3a3a3a"/>
      <path id="Trazado_117567" data-name="Trazado 117567" d="M1145.15,3959.36l-.091-.793h-.039a2.341,2.341,0,0,1-1.924.936,1.793,1.793,0,0,1-1.924-1.807c0-1.521,1.351-2.353,3.783-2.34v-.129a1.3,1.3,0,0,0-1.431-1.456,3.13,3.13,0,0,0-1.637.467l-.26-.754a3.9,3.9,0,0,1,2.067-.559c1.924,0,2.392,1.313,2.392,2.574v2.354a8.863,8.863,0,0,0,.1,1.507Zm-.169-3.211c-1.248-.026-2.666.2-2.666,1.417a1.013,1.013,0,0,0,1.08,1.092,1.564,1.564,0,0,0,1.521-1.053,1.2,1.2,0,0,0,.065-.364Z" fill="#3a3a3a"/>
      <path id="Trazado_117568" data-name="Trazado 117568" d="M1052.838,3966.9a.709.709,0,0,1-1.417,0,.7.7,0,0,1,.716-.714A.679.679,0,0,1,1052.838,3966.9Zm-1.274,8.061v-6.292h1.144v6.292Z" fill="#3a3a3a"/>
      <path id="Trazado_117569" data-name="Trazado 117569" d="M1054.606,3970.372c0-.65-.013-1.184-.051-1.7h1.013l.066,1.04h.025a2.314,2.314,0,0,1,2.08-1.184c.871,0,2.224.521,2.224,2.679v3.757h-1.145v-3.627c0-1.015-.377-1.859-1.456-1.859a1.677,1.677,0,0,0-1.612,1.7v3.783h-1.144Z" fill="#3a3a3a"/>
      <path id="Trazado_117570" data-name="Trazado 117570" d="M1061.938,3974.961v-5.421h-.884v-.871h.884v-.3a2.965,2.965,0,0,1,.728-2.2,2.189,2.189,0,0,1,1.534-.585,2.647,2.647,0,0,1,.975.182l-.155.883a1.714,1.714,0,0,0-.729-.142c-.975,0-1.222.858-1.222,1.82v.338h1.521v.871h-1.521v5.421Z" fill="#3a3a3a"/>
      <path id="Trazado_117571" data-name="Trazado 117571" d="M1066.085,3972.022a2.016,2.016,0,0,0,2.158,2.185,4.147,4.147,0,0,0,1.742-.325l.2.819a5.1,5.1,0,0,1-2.094.39,2.922,2.922,0,0,1-3.094-3.172c0-1.9,1.118-3.394,2.951-3.394,2.054,0,2.6,1.808,2.6,2.965a4.083,4.083,0,0,1-.039.532Zm3.354-.818a1.628,1.628,0,0,0-1.585-1.859,1.9,1.9,0,0,0-1.756,1.859Z" fill="#3a3a3a"/>
      <path id="Trazado_117572" data-name="Trazado 117572" d="M1071.961,3970.632c0-.741-.013-1.378-.052-1.963h1l.039,1.234H1073a1.889,1.889,0,0,1,1.742-1.378,1.271,1.271,0,0,1,.324.039v1.08a1.692,1.692,0,0,0-.389-.04,1.606,1.606,0,0,0-1.534,1.47,3.209,3.209,0,0,0-.052.532v3.355h-1.131Z" fill="#3a3a3a"/>
      <path id="Trazado_117573" data-name="Trazado 117573" d="M1077.538,3966.9a.709.709,0,0,1-1.417,0,.7.7,0,0,1,.716-.714A.678.678,0,0,1,1077.538,3966.9Zm-1.273,8.061v-6.292h1.143v6.292Z" fill="#3a3a3a"/>
      <path id="Trazado_117574" data-name="Trazado 117574" d="M1085,3971.763a3.075,3.075,0,0,1-3.134,3.341,2.991,2.991,0,0,1-3.015-3.237,3.073,3.073,0,0,1,3.12-3.342A2.981,2.981,0,0,1,1085,3971.763Zm-4.992.065c0,1.378.793,2.418,1.911,2.418,1.092,0,1.911-1.027,1.911-2.444,0-1.067-.533-2.418-1.886-2.418S1080.008,3970.632,1080.008,3971.828Z" fill="#3a3a3a"/>
      <path id="Trazado_117575" data-name="Trazado 117575" d="M1086.443,3970.632c0-.741-.012-1.378-.051-1.963h1l.039,1.234h.051a1.89,1.89,0,0,1,1.743-1.378,1.284,1.284,0,0,1,.324.039v1.08a1.7,1.7,0,0,0-.39-.04,1.606,1.606,0,0,0-1.534,1.47,3.317,3.317,0,0,0-.052.532v3.355h-1.131Z" fill="#3a3a3a"/>
      <path id="Trazado_117576" data-name="Trazado 117576" d="M1098.884,3965.73v7.606c0,.559.013,1.2.053,1.625h-1.028l-.052-1.092h-.026a2.327,2.327,0,0,1-2.144,1.235c-1.522,0-2.692-1.288-2.692-3.2-.013-2.093,1.287-3.381,2.821-3.381a2.1,2.1,0,0,1,1.9.962h.026v-3.757Zm-1.144,5.5a1.964,1.964,0,0,0-.052-.48,1.681,1.681,0,0,0-1.651-1.326c-1.183,0-1.885,1.04-1.885,2.431,0,1.274.624,2.327,1.859,2.327a1.72,1.72,0,0,0,1.677-1.366,1.927,1.927,0,0,0,.052-.493Z" fill="#3a3a3a"/>
      <path id="Trazado_117577" data-name="Trazado 117577" d="M1101.419,3972.022a2.016,2.016,0,0,0,2.158,2.185,4.151,4.151,0,0,0,1.742-.325l.2.819a5.1,5.1,0,0,1-2.094.39,2.922,2.922,0,0,1-3.094-3.172c0-1.9,1.118-3.394,2.951-3.394,2.054,0,2.6,1.808,2.6,2.965a4.078,4.078,0,0,1-.039.532Zm3.354-.818a1.628,1.628,0,0,0-1.585-1.859,1.9,1.9,0,0,0-1.756,1.859Z" fill="#3a3a3a"/>
      <path id="Trazado_117578" data-name="Trazado 117578" d="M1107.3,3965.73h1.143v9.231H1107.3Z" fill="#3a3a3a"/>
      <path id="Trazado_117579" data-name="Trazado 117579" d="M1117.6,3974.727a4.219,4.219,0,0,1-1.808.364,2.989,2.989,0,0,1-3.133-3.211,3.2,3.2,0,0,1,3.38-3.341,3.842,3.842,0,0,1,1.586.324l-.26.885a2.653,2.653,0,0,0-1.326-.3,2.372,2.372,0,0,0-.039,4.732,3.248,3.248,0,0,0,1.4-.312Z" fill="#3a3a3a"/>
      <path id="Trazado_117580" data-name="Trazado 117580" d="M1124.207,3973.245c0,.65.014,1.222.053,1.716h-1.015l-.064-1.027h-.027a2.368,2.368,0,0,1-2.08,1.17c-.988,0-2.171-.546-2.171-2.756v-3.679h1.144v3.483c0,1.2.364,2,1.4,2a1.653,1.653,0,0,0,1.508-1.04,1.671,1.671,0,0,0,.1-.585v-3.861h1.144Z" fill="#3a3a3a"/>
      <path id="Trazado_117581" data-name="Trazado 117581" d="M1126.742,3972.022a2.017,2.017,0,0,0,2.158,2.185,4.156,4.156,0,0,0,1.743-.325l.2.819a5.1,5.1,0,0,1-2.094.39,2.923,2.923,0,0,1-3.094-3.172c0-1.9,1.119-3.394,2.952-3.394,2.053,0,2.6,1.808,2.6,2.965a4.078,4.078,0,0,1-.039.532Zm3.355-.818a1.63,1.63,0,0,0-1.586-1.859,1.9,1.9,0,0,0-1.756,1.859Z" fill="#3a3a3a"/>
      <path id="Trazado_117582" data-name="Trazado 117582" d="M1132.618,3965.73h1.144v9.231h-1.144Z" fill="#3a3a3a"/>
      <path id="Trazado_117583" data-name="Trazado 117583" d="M1135.687,3965.73h1.143v9.231h-1.143Z" fill="#3a3a3a"/>
      <path id="Trazado_117584" data-name="Trazado 117584" d="M1144.448,3971.763a3.075,3.075,0,0,1-3.134,3.341,2.991,2.991,0,0,1-3.015-3.237,3.073,3.073,0,0,1,3.12-3.342A2.981,2.981,0,0,1,1144.448,3971.763Zm-4.992.065c0,1.378.793,2.418,1.911,2.418,1.092,0,1.911-1.027,1.911-2.444,0-1.067-.533-2.418-1.885-2.418S1139.456,3970.632,1139.456,3971.828Z" fill="#3a3a3a"/>
      <path id="Trazado_117585" data-name="Trazado 117585" d="M1145.306,3974.285a.768.768,0,0,1,.78-.819.82.82,0,1,1-.78.819Z" fill="#3a3a3a"/>
    </g>
    <line id="Línea_699" data-name="Línea 699" x1="24.545" y2="113.241" transform="translate(1019.547 3959.36)" fill="none" stroke="#706f6f" stroke-miterlimit="10" stroke-width="1"/>
  </g>
</svg>
