<svg xmlns="http://www.w3.org/2000/svg" width="292" height="200.393" viewBox="0 0 292 200.393">
  <g id="Grupo_61067" data-name="Grupo 61067" transform="translate(-3362.274 -4020.745)">
    <rect id="Rectángulo_7606" data-name="Rectángulo 7606" width="292" height="200.393" rx="9" transform="translate(3362.274 4020.745)" fill="#fff"/>
    <g id="Grupo_61078" data-name="Grupo 61078">
      <path id="Trazado_117167" data-name="Trazado 117167" d="M3423.792,4195.86q-.273,10.962-.546,21.924h141.215a41.38,41.38,0,0,1,1.806-14.566l2.892,12.036a2.486,2.486,0,0,0,.822,1.571,2.08,2.08,0,0,1,.25.959h35.79c-.425-7.693-.09-17.9-.048-24.271a93.921,93.921,0,0,0-.132-11.122c-.725-6.443-3.476-12.5-4.461-18.911-.813-5.295-.4-10.691-.572-16.045-.145-4.6-.72-9.166-1.294-13.729l-4.107-32.659a18.627,18.627,0,0,1-.056-6.448c.277-1.214.8-2.367,1.011-3.6a7.62,7.62,0,0,0-5.142-8.314c-10.42-3.12-19.678-8.436-29.744-12.558-4.367-1.789-8.993-3.783-11.613-7.709-1.263-1.894-2.012-4.181-3.711-5.7-1.305-1.165-3.085-1.786-4.148-3.174a17.915,17.915,0,0,1-1.441-2.819,8.815,8.815,0,0,0-9.981-4.3c-3.572-2.7-8.322-3.018-12.8-2.991l-9.356.056c-6.185.037-12.63.135-18.136,2.951-2.9,1.484-7.04,1.847-8.21,4.887a40.844,40.844,0,0,1-18.74,21.173c-5.417,2.883-11.469,4.523-16.652,7.81-3.608,2.288-6.775,5.36-10.756,6.91-2.212.86-4.688,1.263-6.5,2.8s-2.368,4.868-.324,6.074c-2.592,10.865-5.079,22.477-5.139,33.647-.025,4.689.4,9.381.135,14.063-.262,4.63-1.2,9.205-1.418,13.837-.273,5.779.572,11.545.968,17.317C3424.138,4181.921,3423.965,4188.9,3423.792,4195.86Z" fill="#e1dbdd"/>
      <g id="Grupo_61067-2" data-name="Grupo 61067">
        <path id="Trazado_117168" data-name="Trazado 117168" d="M3460.877,4146.7a31.6,31.6,0,0,0-1.118,5.1q-.041,2.022-.163,4.041a19.594,19.594,0,0,0-.052,2.674,74.385,74.385,0,0,0,2.186,14.993,157.56,157.56,0,0,1,3.311,17.173,72.729,72.729,0,0,1,.323,10.61c-.2,5.058-.869,9.282-3.537,14-.145.256,0,.7.371.62l5.277-1.212a1.1,1.1,0,0,0,.719-.755l.484-4.263q.011-1.411,0-2.819a91.537,91.537,0,0,0-.543-9.391c-.409-3.95-.9-7.9-1.594-11.812-.652-3.666-1.513-7.292-2.364-10.914a100.3,100.3,0,0,1-2.826-16.059,37.65,37.65,0,0,1-.06-5.558,41.957,41.957,0,0,1,1.7-7.175c.04-.146-1.15.254-1.1.238C3461.671,4146.264,3460.96,4146.411,3460.877,4146.7Z" fill="#b2aaa6" opacity="0.109"/>
        <path id="Trazado_117169" data-name="Trazado 117169" d="M3458.022,4139.878a37.372,37.372,0,0,0-1.44,4.722l-1.3,2.664a58.245,58.245,0,0,1-4.259,6.634q-1.146,1.829-2.127,3.749a5.877,5.877,0,0,0-.783,4.764,18.939,18.939,0,0,0,.249,2.488c.53,4.616,1.245,9.194,1.683,13.823l-.054-.576a63.1,63.1,0,0,1,.033,7.924,61.106,61.106,0,0,1-.983,7.873q-.855,3.916-1.818,7.806a9.918,9.918,0,0,0,2.924,6.249,1.758,1.758,0,0,0,1.107,1.138,13.428,13.428,0,0,0,1.926.966c.762.331,2.038,1.065,2.611.051a14.381,14.381,0,0,0,2.974-7.7l.573-4.167a60.537,60.537,0,0,0,.106-12.893,97.76,97.76,0,0,0-1.682-10.726q-.649-3.111-1.384-6.2a61.6,61.6,0,0,1-1.523-8.214l.015.551-.005-3.085-.016.542a26.575,26.575,0,0,1,2.451-12.993,16.587,16.587,0,0,1,1.9-3.483c.092-.154-.486-.92-.53-.991C3458.678,4140.8,3458.025,4139.869,3458.022,4139.878Z" fill="#b2aaa6" opacity="0.109"/>
        <path id="Trazado_117170" data-name="Trazado 117170" d="M3457.19,4137.27a12.208,12.208,0,0,0-1.059,3.6,24.324,24.324,0,0,0-.531,4.009c-.062.735-.141,1.492-.169,2.229a57.671,57.671,0,0,0,1.621,13.788c1.327,6.39,2.9,12.684,3.11,19.239a50.752,50.752,0,0,1-.457,8.873l-.658,3.691a44.664,44.664,0,0,0-1.48,12.576c-.052.73,2-.091,2.088-.5,1.182-5.786,2.726-11.586,2.909-17.518.066-2.145.119-4.265.033-6.409a67.989,67.989,0,0,0-1.192-10.162c-1.06-5.493-2.559-10.923-3.316-16.472l-.293-2.558a30.8,30.8,0,0,1-.019-6.339,17.621,17.621,0,0,1,.394-5.08,14.821,14.821,0,0,1,1.082-3.845,5.613,5.613,0,0,0-1.08.324C3457.949,4136.81,3457.292,4136.985,3457.19,4137.27Z" fill="#b2aaa6" opacity="0.109"/>
        <path id="Trazado_117171" data-name="Trazado 117171" d="M3463.037,4138.286l-1.37,2.2-.728,2.577a23.194,23.194,0,0,0,.413,3.526,15.794,15.794,0,0,1,.3,2.24c.161,1.652.451,3.268.515,4.928a64.54,64.54,0,0,0,1,8.066c.93,5.577,2.2,11.123,2.758,16.756a67.83,67.83,0,0,1,.185,10.606,89.572,89.572,0,0,1-1.341,10.5l.276-1.265q-.571,2.367-1.076,4.749a7.29,7.29,0,0,0-.159,2.894.656.656,0,0,0,.9.523,2.521,2.521,0,0,0,1.182-1.134,18.425,18.425,0,0,0,1.676-2.6,23.225,23.225,0,0,0,1.748-3.481,70.112,70.112,0,0,0,3.277-11.071q1.053-4.237,1.807-8.538l.453-3.536a30.891,30.891,0,0,0-.184-7.172c-.418-3.607-1.223-7.166-1.939-10.72-.649-3.226-1.207-6.464-1.959-9.667l.112.584q-.235-1.4-.512-2.8a23.344,23.344,0,0,1-2.251-1.935,4.335,4.335,0,0,0-1.151-.949,31.817,31.817,0,0,1-4.981-1.177l.95,1.5q.1-2.711.191-5.42C3463.131,4138.462,3463.139,4138.123,3463.037,4138.286Z" fill="#b2aaa6" opacity="0.109"/>
        <path id="Trazado_117172" data-name="Trazado 117172" d="M3460.688,4136.055a37.127,37.127,0,0,0-1.259,4.946,33.562,33.562,0,0,0-.4,5.1,64.638,64.638,0,0,0,1.807,14.124c1.173,5.374,2.6,10.695,3.273,16.164a61.648,61.648,0,0,1,.459,8.049,29.3,29.3,0,0,1-.772,7.479,52.555,52.555,0,0,1-2.518,12.2c-.119.454.705.613.963.69.225.068,1.066.408,1.184-.044.994-3.795,2.094-7.581,2.713-11.463a63.141,63.141,0,0,0,.807-8.259,74.688,74.688,0,0,0-2.509-19.451,105.694,105.694,0,0,1-3.029-15.52,37.446,37.446,0,0,1-.108-5.915,33.889,33.889,0,0,1,1.546-7.481C3462.906,4136.47,3460.758,4135.828,3460.688,4136.055Z" fill="#b2aaa6" opacity="0.109"/>
        <path id="Trazado_117173" data-name="Trazado 117173" d="M3455.078,4139.839a16.518,16.518,0,0,0-1.355,4.318c-.144.78-.291,1.544-.379,2.33a63.677,63.677,0,0,0-.811,7.674c.008.912.073,1.851.144,2.76.438,5.573,1.734,11.022,2.72,16.512a71.055,71.055,0,0,1,1.2,10.095l0,4.01a53.255,53.255,0,0,1-.888,7.925l.066-.422q-.867,3.919-1.9,7.8a12.226,12.226,0,0,0,1.365,7.446c.055.271.321.33.385.017,1.009-4.915,2.2-9.786,2.932-14.752a58.529,58.529,0,0,0,.393-12.472,91.043,91.043,0,0,0-1.939-12.446,139.276,139.276,0,0,1-2.946-17.881,24.854,24.854,0,0,1,.919-10.958,6.012,6.012,0,0,0,.221-1.574C3455.2,4140.2,3455.171,4139.6,3455.078,4139.839Z" fill="#b2aaa6" opacity="0.109"/>
        <path id="Trazado_117174" data-name="Trazado 117174" d="M3457.88,4146.573a33.281,33.281,0,0,0-1.612,12.895c.294,4.366,1.486,8.673,2.389,12.932,1.337,6.306,2.676,12.583,2.863,19.05a69.516,69.516,0,0,1-.522,10.868,113.541,113.541,0,0,1-2.622,12.735c-.084.339,2.109.818,2.2.43.8-3.371,1.59-6.732,2.079-10.165a64.417,64.417,0,0,0,.641-8.357,69.016,69.016,0,0,0-.66-10.474c-.5-3.518-1.283-6.994-2.045-10.46-.617-2.8-1.219-5.591-1.57-8.44-.306-2.48-.52-4.959-.612-7.456a51.507,51.507,0,0,1,.051-5.271,33.976,33.976,0,0,1,1.6-7.753C3460.1,4146.956,3457.946,4146.353,3457.88,4146.573Z" fill="#b2aaa6" opacity="0.109"/>
        <path id="Trazado_117175" data-name="Trazado 117175" d="M3465.292,4137.5a18.27,18.27,0,0,0-1.958,5,25.48,25.48,0,0,0-.263,4.812,52.481,52.481,0,0,0,.572,8.1c.473,2.883,1.1,5.745,1.707,8.6,1.467,6.877,3.136,13.687,3.427,20.742a65.253,65.253,0,0,1-.39,10.569c-.481,3.952-1.409,7.832-2.254,11.717a1.071,1.071,0,0,0,1.069,1.414,6.978,6.978,0,0,0,2.864-2.164,40.111,40.111,0,0,0,4.6-7.487,4.574,4.574,0,0,0,.528-2.5,53.681,53.681,0,0,0,.6-10.275,71.872,71.872,0,0,0-3.611-19.426c-1.384-4.386-2.8-8.751-4.461-13.042a52.2,52.2,0,0,1-2.1-6.171l-.736-3.7a27.158,27.158,0,0,1,.719-4.022,4.247,4.247,0,0,0-.145-1.315A4.037,4.037,0,0,1,3465.292,4137.5Z" fill="#b2aaa6" opacity="0.109"/>
        <path id="Trazado_117176" data-name="Trazado 117176" d="M3456.917,4137.233a21.193,21.193,0,0,0-1.677,3.084,26.736,26.736,0,0,0-1.111,3.21,29.408,29.408,0,0,0-.852,5.934,60.179,60.179,0,0,0,.934,13.21c.4,2.524.846,5.04,1.207,7.57a79.433,79.433,0,0,1,.691,11.379l.039-.587a65.47,65.47,0,0,1-1.484,11.226l-.855,3.894a28.116,28.116,0,0,0,1.143,9.478c.062.473.35,1.181.925,1.243a1.764,1.764,0,0,0,1.422-1.058c.728-3.452,1.585-6.882,2.106-10.371.325-2.172.573-4.358.681-6.553a70.949,70.949,0,0,0-.058-8.616,84.814,84.814,0,0,0-1.5-10.3c-1.091-5.513-2.539-11.031-2.921-16.653l.152-7.977.375-2.455a54.026,54.026,0,0,1,2.152-7.437,4.468,4.468,0,0,1-.69.884A11.157,11.157,0,0,0,3456.917,4137.233Z" fill="#b2aaa6" opacity="0.109"/>
        <path id="Trazado_117177" data-name="Trazado 117177" d="M3459.876,4135.909c-.333.633-.706,1.265-.981,1.924l-.64,1.782-.436.725a6.314,6.314,0,0,0-.329,1.855,21.806,21.806,0,0,0-.131,2.38,64.841,64.841,0,0,0,.569,8.39c.612,4.435,1.514,8.812,2.421,13.2l-.317-1.564a67.83,67.83,0,0,1,1.56,11.393l-.017-1.873.028,5.864v-1.943a66.622,66.622,0,0,1-.6,7.792q-1.11,6.405-1.721,12.879a23.063,23.063,0,0,0,.051,3.283,1.789,1.789,0,0,0,.382,1.422c.487.716,1.289.479,1.585-.3q.654-1.567,1.155-3.189a60.753,60.753,0,0,0,1.443-8.388,81.622,81.622,0,0,0,.257-12.573c-.468-9.542-2.452-18.865-3.977-28.271l.232,1.439q-.434-2.97-.7-5.959-.09-1.8-.123-3.611l-.1,2.788a11.053,11.053,0,0,1,.617-4.248,48.305,48.305,0,0,1,2-5.389,7.769,7.769,0,0,0-1.124.019C3460.864,4135.739,3459.974,4135.721,3459.876,4135.909Z" fill="#b2aaa6" opacity="0.109"/>
        <path id="Trazado_117178" data-name="Trazado 117178" d="M3464.333,4142.368a23.937,23.937,0,0,0-1.561,5.878,41.973,41.973,0,0,0,.349,11.345c1.013,6.359,3.09,12.5,4.361,18.805a63.16,63.16,0,0,1-.634,29.23l.129-.554-1.184,4.187a1.634,1.634,0,0,0,.125,1.035.581.581,0,0,0,.572.387,2.9,2.9,0,0,0,2.281-.364l6.508-5.719.13-.554a40.494,40.494,0,0,0,.96-8.329,56.356,56.356,0,0,0-2.77-18.347c-1.787-5.5-4.2-10.78-6.362-16.142-.778-1.931-1.491-3.864-2.091-5.857a36.293,36.293,0,0,1-1.337-11.89l-.11.882.742-3.321-.426,1.341,1.487-3.789c.082-.211-.4.534-.333.431A7.926,7.926,0,0,0,3464.333,4142.368Z" fill="#b2aaa6" opacity="0.109"/>
        <path id="Trazado_117179" data-name="Trazado 117179" d="M3454.982,4142.32l-.938,2.58a22.11,22.11,0,0,0-.483,3.916c-.132,2.109-.222,4.221-.329,6.332-.291,5.757.8,11.537,1.784,17.18q.571,2.963.85,5.969a29.549,29.549,0,0,1,.537,5.946,50.435,50.435,0,0,1-1.554,13.651l-1.162,3.982-1.159,4.012c-.25,1.978,3.93,8.331,3.141,6.789.156.305.445.143.468-.13l1.418-9.51.691-4.143c.191-1.557.386-3.135.5-4.7a72.838,72.838,0,0,0-1.417-19.177c-.535-2.768-1.127-5.524-1.684-8.288-.5-2.493-1.055-4.991-1.324-7.521a45.088,45.088,0,0,1-.266-5.714,13.964,13.964,0,0,1,.462-4.187,17.308,17.308,0,0,1,1.275-5.021c.119-.355-.338-1.2-.462-1.516C3455.345,4142.81,3455.089,4142.024,3454.982,4142.32Z" fill="#b2aaa6" opacity="0.109"/>
      </g>
      <g id="Grupo_61068" data-name="Grupo 61068">
        <path id="Trazado_117180" data-name="Trazado 117180" d="M3463.337,4168.664a7.689,7.689,0,0,1,3.08-3.137q7.779-5.87,16.05-11,4.743-3.078,9.676-5.846l2.069-1.138q2.192-1.1,4.366-2.226a28.8,28.8,0,0,1,6.047-1.924l-.536.064a11.883,11.883,0,0,1,3.766-.06,3.376,3.376,0,0,0,3-1.929c.456-.351,1.011-2.024.251-2.363a4.688,4.688,0,0,0-3.253-1.045,5.467,5.467,0,0,0-1.541.009c-.671.069-1.346.127-2.014.224a20.146,20.146,0,0,0-6.226,2.232,54.836,54.836,0,0,0-5.6,3.542c-5.011,3.533-10,7.121-14.9,10.811l-6.886,5.251a50.289,50.289,0,0,1-6.544,6,15.545,15.545,0,0,0-1.536,1.259,8.719,8.719,0,0,0-1.381,2.028c.026-.047,1.045-.31,1.076-.321C3462.475,4169.033,3463.218,4168.878,3463.337,4168.664Z" fill="#b2aaa6" opacity="0.109"/>
        <path id="Trazado_117181" data-name="Trazado 117181" d="M3458.183,4168.173a8.936,8.936,0,0,1,2.042-3.351,3.826,3.826,0,0,1,.71-.616,288.879,288.879,0,0,1,26.093-21l-1.615.9a37.72,37.72,0,0,1,3.941-1.956,28.207,28.207,0,0,1,3.648-1.026l-.975.156q1.153-.066,2.3-.232a14.271,14.271,0,0,0,3.325-.807,24.727,24.727,0,0,0,6.106-2.982.887.887,0,1,0-.778-1.593,2.88,2.88,0,0,0-3-.808,20.078,20.078,0,0,0-1.986.313,22.151,22.151,0,0,0-5.078,1.816,69.461,69.461,0,0,0-11.183,7.236c-5.988,4.547-11.881,9.22-17.575,14.132q-2.4,2.339-5.019,4.425a3.948,3.948,0,0,0-.7.658l-.686.841a4.128,4.128,0,0,0-.743,1.978c-.036.156.524.878.576.962A6.47,6.47,0,0,1,3458.183,4168.173Z" fill="#b2aaa6" opacity="0.109"/>
        <path id="Trazado_117182" data-name="Trazado 117182" d="M3459.654,4159.241c1.882-3.583,4.769-5.106,8.058-7.817,7.043-5.8,14.063-11.617,21.293-17.2a41.407,41.407,0,0,1,5.261-3.663l2.286-1.165a17.815,17.815,0,0,1,3.9-1.187l-.474.1a10.231,10.231,0,0,1,3.02-.231,9.763,9.763,0,0,1,2.99.382c.413.074,1.062-.8,1.12-1.132a1.135,1.135,0,0,0-.768-1.168,6.55,6.55,0,0,0-4.924-1.573,4.96,4.96,0,0,0-1.467.114c-.653.117-1.312.217-1.958.369-4.223.994-7.673,3.891-10.658,6.884-4.165,4.178-8.645,8-12.947,12.034l-6,5.733a47.106,47.106,0,0,0-7.7,6.244,17.861,17.861,0,0,0-3.095,4.151,6.877,6.877,0,0,1,1.047-.4C3458.794,4159.651,3459.548,4159.443,3459.654,4159.241Z" fill="#b2aaa6" opacity="0.109"/>
        <path id="Trazado_117183" data-name="Trazado 117183" d="M3461.513,4165.349l1.371-1.385-1.371,1.385a23.209,23.209,0,0,1,2.886-2.5l-1.547.355q1.25-.174,2.508-.243l-1.034-.131a10.4,10.4,0,0,0,10.077,1.522,12.115,12.115,0,0,0,6.682-4.719l5.292-4.688q1.564-1.568,3.24-3.016a32.995,32.995,0,0,1,5.114-3.558q1.393-.661,2.8-1.3a8.824,8.824,0,0,0,4.592-2.178,24.64,24.64,0,0,0,2.34-2.415q1.419-1.545,2.706-3.2l1.14-1.6a1.267,1.267,0,0,0,.148-1.534q.142-2.344-1.686-1.912a8.57,8.57,0,0,0-1.32.006,17.311,17.311,0,0,0-4.269.846c-3.908,1.29-7.3,3.829-10.477,6.362-4.585,3.651-9.039,7.465-13.609,11.135a51.088,51.088,0,0,1-9.653,6.885,29.448,29.448,0,0,0-3.752,2.3,7.1,7.1,0,0,0-1.422,1.228,4.725,4.725,0,0,0-.963,2.392C3461.271,4165.552,3461.461,4165.4,3461.513,4165.349Z" fill="#b2aaa6" opacity="0.109"/>
        <path id="Trazado_117184" data-name="Trazado 117184" d="M3463.193,4159.534a15.558,15.558,0,0,1,3.142-3.905q6.375-5.631,12.8-11.208,4.987-4.065,10.05-8.036c3.1-2.449,6.191-5.19,9.672-7.109a17.229,17.229,0,0,1,5.745-2.164,16.355,16.355,0,0,1,4.973.053c.507.061,1.4,0,1.693-.525.277-.5-.112-1.235-.483-1.555a6.775,6.775,0,0,0-2.611-2.172,2.277,2.277,0,0,0-2.143-.01,14.1,14.1,0,0,0-2.457.439c-3.664.93-7.046,3.4-9.711,5.958-1.118,1.073-2.176,2.184-3.292,3.263l-6.643,6.025q-4.949,4.408-10,8.694a99.873,99.873,0,0,1-9.568,7.547l-1.047,1.02a13.733,13.733,0,0,0-2.269,3.063C3461.078,4158.839,3463.082,4159.738,3463.193,4159.534Z" fill="#b2aaa6" opacity="0.109"/>
        <path id="Trazado_117185" data-name="Trazado 117185" d="M3455.281,4164.8a13.114,13.114,0,0,1,2.119-2.936l.841-.824q5.184-3.837,10.127-7.976c5.514-4.529,11.076-9,16.779-13.29,2.034-1.529,4.089-2.969,6.254-4.309l-.484.246,2.749-1.377-.506.237a15.489,15.489,0,0,1,9.486-1.107c.736.069.956-.415.992-1.068.04-.716-.137-1.084-.868-1.171a22.216,22.216,0,0,0-7.664.163,23.883,23.883,0,0,0-8.534,4.057c-1.312.945-2.567,1.963-3.824,2.98-5.115,4.139-10.261,8.261-15.187,12.624q-4.5,4.063-9.238,7.858l-.794.83a13.065,13.065,0,0,0-1.953,2.84,3.8,3.8,0,0,0-.184,1.106A5.128,5.128,0,0,1,3455.281,4164.8Z" fill="#b2aaa6" opacity="0.109"/>
        <path id="Trazado_117186" data-name="Trazado 117186" d="M3460.444,4169.83a6.281,6.281,0,0,1,1.314-1.915,14.285,14.285,0,0,1,1.673-1.4,106.308,106.308,0,0,1,12.59-10.1q7.33-5.678,14.984-10.914a33.026,33.026,0,0,1,8.28-4.281,19.055,19.055,0,0,1,3.721-.669,9.433,9.433,0,0,0,4.972-.7c.442-.108.431-.622.3-.911a2.188,2.188,0,0,0-1.253-.982c-.68-.1-1.36-.234-2.046-.3a15.116,15.116,0,0,0-5.028.479,29.581,29.581,0,0,0-9.52,4.777c-7.679,5.35-15.152,11.084-22.314,17.107-2.72,2.289-5.465,4.6-8.108,6.978a8.3,8.3,0,0,0-1.74,2.3C3458.343,4169.156,3460.329,4170.036,3460.444,4169.83Z" fill="#b2aaa6" opacity="0.109"/>
        <path id="Trazado_117187" data-name="Trazado 117187" d="M3464.663,4164.985l.506-1.491-.209.5.8-1.394-.324.439,2.109-2.015-1.41,1.075c3.307-1.933,6.33-3.4,9.942-5.22a35.53,35.53,0,0,1,12.239-5.158,17.414,17.414,0,0,0,5.2-1.585c3.608-1.7,7.16-3.5,10.634-5.455,2.5-1.4,4.986-2.787,7.568-4.023l-.524.239a20.8,20.8,0,0,1,4.205-1.308,16.628,16.628,0,0,1,4.434-.4.668.668,0,0,0,.619-.839,3.571,3.571,0,0,0-1.536-1.806,41.929,41.929,0,0,0-3.576-2.64,3.567,3.567,0,0,0-2.178-.936h0a14.038,14.038,0,0,0-4.093.2,21.983,21.983,0,0,0-5.655,2.022,50.045,50.045,0,0,0-7.683,4.9q-6.918,5.288-14.266,9.957-7.577,5.2-14.72,10.973l.785-.417a3.35,3.35,0,0,0-1.656.914,4.047,4.047,0,0,0-1.188,1.339c-.237.313-.141,1.215-.152,1.578C3464.545,4164.27,3464.559,4165.293,3464.663,4164.985Z" fill="#b2aaa6" opacity="0.109"/>
        <path id="Trazado_117188" data-name="Trazado 117188" d="M3457.553,4160.918l1.184-1.364q2.013-1.778,4.12-3.447,3.25-2.6,6.328-5.4,4.839-4.332,9.878-8.433l-.394.317c3.4-2.626,6.753-5.321,10.257-7.807a40.821,40.821,0,0,1,5.518-3.233l-.6.254a17.822,17.822,0,0,1,3.9-1.214,13.741,13.741,0,0,1,4.041-.226l-1.187-.144,1.947.323c.781.13,1.666-.222,1.473-1.2s-2-1.275-2.783-1.425a22.326,22.326,0,0,0-5.524-.734,16.528,16.528,0,0,0-4.944,1.029,26.424,26.424,0,0,0-8.557,5.424c-2.475,2.275-4.869,4.66-7.214,7.068-4.282,4.4-8.154,9.164-12.443,13.555a16.493,16.493,0,0,0-3.273,3.579l-1.844,2.634a14.35,14.35,0,0,0-1.156,1.931c-.1.189.292-.2.307-.216A9.052,9.052,0,0,0,3457.553,4160.918Z" fill="#b2aaa6" opacity="0.109"/>
        <path id="Trazado_117189" data-name="Trazado 117189" d="M3461.129,4162.059a18.811,18.811,0,0,1,.753-3.442l-.736,1.8a14.992,14.992,0,0,0,1.77-1.582q5.767-6.534,11.889-12.738l-.4.409a168.617,168.617,0,0,1,14.364-10.984l-.5.343q2.409-1.683,4.847-3.322l-.523.315,2.777-1.663-.534.3c1.75-.862-5.987-2.834-4.074-3.289.672-.2,10.775.856,11.476.822a10.8,10.8,0,0,1,3.112-.043l.574-.232.447-.719c.539-.869-.972-1.962-1.38-2.3l-1.7-1.291a20.212,20.212,0,0,0-3.089-1.924,29.533,29.533,0,0,0-4.117-1.375,16.113,16.113,0,0,0-4.317.657,25.03,25.03,0,0,0-4.642,1.9,35.149,35.149,0,0,0-6.818,5.022q-4.209,3.906-8.322,7.913a14.576,14.576,0,0,0-6.34,14.741l.311-1a53.278,53.278,0,0,1-3.878,7.1,8.054,8.054,0,0,0-.887,2.367l.621-1.458c-2.941,3.978-1.973,1.786-2.925,3.853a11.1,11.1,0,0,1,1.119-.078A6.657,6.657,0,0,0,3461.129,4162.059Z" fill="#b2aaa6" opacity="0.109"/>
        <path id="Trazado_117190" data-name="Trazado 117190" d="M3464.846,4166.18l1.4-1.555-1.245.657a24.556,24.556,0,0,1,2.95-1.259,37.256,37.256,0,0,1,13.569-7.343l7.431-2.805q4.824-2.364,9.533-4.946a59.628,59.628,0,0,1,7.191-3.424,17.5,17.5,0,0,1,3.911-1.013,13.433,13.433,0,0,1,4,0l.44-.357.964-1.488a3.454,3.454,0,0,0,.043-2.609c-.2-.845-.338-1.868-1.129-2.353l-2.088-1.281a9.6,9.6,0,0,0-1.575-.114,14.765,14.765,0,0,0-4.044.4c-4.05.947-7.617,3.283-10.95,5.682-3.893,2.8-7.746,5.653-11.672,8.41q-5.364,3.726-10.61,7.618l-6.843,5.163c-.334.279-.693.549-1,.854a7.089,7.089,0,0,0-1.74,3.055c-.078.235.33-.133.354-.154A7.781,7.781,0,0,0,3464.846,4166.18Z" fill="#b2aaa6" opacity="0.109"/>
        <path id="Trazado_117191" data-name="Trazado 117191" d="M3456.2,4167.12a12.067,12.067,0,0,1,2.024-2.8,65.237,65.237,0,0,1,7.443-6.177q4.768-4.052,9.693-7.91c4.2-3.336,8.384-6.725,12.791-9.79a27.2,27.2,0,0,1,4.5-2.662,16.376,16.376,0,0,1,4.584-1.163l-.776.09q3.049,0,6.086-.3c.6-.038,1.346-.211,1.375-.924a1.228,1.228,0,0,0-.923-1.394,15.581,15.581,0,0,0-4.433-.2c-.674.085-1.351.173-2.022.282a24.94,24.94,0,0,0-8.947,3.805c-1.679,1.059-3.249,2.239-4.818,3.456q-7.733,6-15.238,12.286-4.592,3.888-9.237,7.714l-.818.774a11.692,11.692,0,0,0-2.026,2.8c-.091.17.29.955.331,1.072A10.036,10.036,0,0,1,3456.2,4167.12Z" fill="#b2aaa6" opacity="0.109"/>
      </g>
      <g id="Grupo_61069" data-name="Grupo 61069">
        <path id="Trazado_117192" data-name="Trazado 117192" d="M3590.214,4112.572c-.469,3.8-.818,7.508-1.548,11.238l.58-1.283a13.69,13.69,0,0,0-1.062,2.02c-.658,1.642-1.618,3.265-2.4,4.831-.119.239-.261.923.2.525a9.826,9.826,0,0,0,1.591-1.415,15.813,15.813,0,0,0,1.426-2.906q.651-2.5,1.308-5,.9-4.268,1.989-8.493C3592.43,4111.535,3590.26,4112.2,3590.214,4112.572Z" fill="#b2aaa6" opacity="0.109"/>
        <path id="Trazado_117193" data-name="Trazado 117193" d="M3586.747,4107.8l-4.051,7.014.626-.682a35.433,35.433,0,0,1-4.417,2.657,7.418,7.418,0,0,0-2.111,1.541l.448-.315-1.575,1.107-.183.52.235,1.946.448.665a8.022,8.022,0,0,0,1.2,1.173c.413.351,1.031.962,1.642.765a5.676,5.676,0,0,0,2.028-.8l.946-1.178a21.082,21.082,0,0,0,1.166-2.081c1.978-3.845,2.8-7.552,3.972-11.821.044-.161.157-.49-.018-.609A.232.232,0,0,0,3586.747,4107.8Z" fill="#b2aaa6" opacity="0.109"/>
        <path id="Trazado_117194" data-name="Trazado 117194" d="M3586.42,4102.888q-.843,4.23-1.772,8.443a13.452,13.452,0,0,1-.739,2.459,43.192,43.192,0,0,1-2.873,5.635c-.3.539,1.876.206,2.14-.107a14.458,14.458,0,0,0,2.625-4.277,29.879,29.879,0,0,0,1.023-3.582q.951-4.575,1.64-9.2C3588.549,4101.764,3586.5,4102.511,3586.42,4102.888Z" fill="#b2aaa6" opacity="0.109"/>
        <path id="Trazado_117195" data-name="Trazado 117195" d="M3592.634,4099.139a26.144,26.144,0,0,0-2.232,13.532,24.7,24.7,0,0,1-.373,3.159l.19-.907a17.112,17.112,0,0,1-1.3,3.258l.928-1.618a18.134,18.134,0,0,1-1.231,2c-.3.439-1.694,2.747,0,2.649a3.1,3.1,0,0,0,1.7-1.382,35.542,35.542,0,0,0,2.438-3.284c1.673-2.521,3.3-5.073,3.926-8.076a.583.583,0,0,0-.037-.719,3.893,3.893,0,0,0-.554-.889l-.51-.646a19.607,19.607,0,0,0-4.4-.492l1.388,1.385.063-7.908Z" fill="#b2aaa6" opacity="0.109"/>
        <path id="Trazado_117196" data-name="Trazado 117196" d="M3590.008,4101.789q-.751,3.939-1.522,7.875-.246,1.373-.623,2.716a24.551,24.551,0,0,1-3.114,6.088c-.248.382,1.752,1.282,2.106.77a22.155,22.155,0,0,0,2.638-4.692,21.326,21.326,0,0,0,.987-3.414q.855-4.359,1.683-8.722C3592.251,4101.954,3590.079,4101.422,3590.008,4101.789Z" fill="#b2aaa6" opacity="0.109"/>
        <path id="Trazado_117197" data-name="Trazado 117197" d="M3583.984,4106.215a96.794,96.794,0,0,1-2.312,9.781,11.808,11.808,0,0,1-1.16,2.948,15.563,15.563,0,0,1-1.455,2.977,22.361,22.361,0,0,0-.8,2.361c-.1.294.119.37.3.16,1.655-1.9,3.182-3.443,3.972-5.847q.431-1.733.788-3.48.673-4.14,1.063-8.32c.011-.086.217-1.053-.04-1.107C3584.058,4105.628,3584.037,4105.984,3583.984,4106.215Z" fill="#b2aaa6" opacity="0.109"/>
        <path id="Trazado_117198" data-name="Trazado 117198" d="M3587.124,4112.588c-.626,3.27-1.129,6.59-1.944,9.82a5.037,5.037,0,0,0-.242,2.249,4.549,4.549,0,0,1-1.183,3.709l.849-1.337-2.75,2.494c-.247.225.7.277.781.286.154.016,1.329.226,1.39-.032a30.547,30.547,0,0,1,2.087-5.613l-1.2,1.893a4.624,4.624,0,0,0,2.657-3.941q.9-4.491,1.735-8.993C3589.378,4112.726,3587.19,4112.246,3587.124,4112.588Z" fill="#b2aaa6" opacity="0.109"/>
        <path id="Trazado_117199" data-name="Trazado 117199" d="M3593.308,4105.926q-.488,4.263-.914,8.532a8.045,8.045,0,0,1-.526,2.511,20.414,20.414,0,0,1-2.193,4.364c-.321.526.439,1.248.875,1.336.757.153,1.723-.753,2.18-1.276,1.362-1.56,2.776-2.987,3.191-5.106a5.307,5.307,0,0,0,.07-1.973,9.8,9.8,0,0,0-.258-1.271,38.138,38.138,0,0,1-.967-5.858,2.8,2.8,0,0,0-.781-1.592A.424.424,0,0,0,3593.308,4105.926Z" fill="#b2aaa6" opacity="0.109"/>
        <path id="Trazado_117200" data-name="Trazado 117200" d="M3584.733,4104.624q-1.152,3.836-2.291,7.675a11.866,11.866,0,0,1-.845,2.188q-.45.966-.916,1.923a7.778,7.778,0,0,0-1.553,3.6c-.143.44.282.756.618.814a2.077,2.077,0,0,0,1.507-.511,15.062,15.062,0,0,0,2.686-4.811c1.229-3.8,1.909-7.921,2.753-11.777.109-.5-.63-.217-.758-.149C3585.521,4103.793,3584.876,4104.145,3584.733,4104.624Z" fill="#b2aaa6" opacity="0.109"/>
        <path id="Trazado_117201" data-name="Trazado 117201" d="M3588.245,4102.842a6.7,6.7,0,0,0-1.4,2.488,6.369,6.369,0,0,0-.635,1.468q-.349,1.026-.756,2.031a11.387,11.387,0,0,0-1.434,3.612c-.241.743-1.691,6.268.756,5.374a1.281,1.281,0,0,0,1.208-.917,12.723,12.723,0,0,0,1.425-2.806q.587-1.6,1.038-3.241.84-3.671,1.91-7.281c.141-.523.042-.924-.521-1.054C3589.327,4102.4,3588.56,4102.361,3588.245,4102.842Z" fill="#b2aaa6" opacity="0.109"/>
        <path id="Trazado_117202" data-name="Trazado 117202" d="M3593.151,4109.574c-.523,3.47-.97,6.968-1.636,10.417l.135-.4a25.294,25.294,0,0,1-1.138,3.042q-.628,1.21-1.358,2.362a1.254,1.254,0,0,0,2.058,1.378,4.2,4.2,0,0,0,2.435-2.863,10.344,10.344,0,0,0,.48-1.716,30.567,30.567,0,0,0-.067-3.436,58.176,58.176,0,0,1-.18-9.574.272.272,0,0,0-.393-.237C3593.218,4108.648,3593.176,4109.4,3593.151,4109.574Z" fill="#b2aaa6" opacity="0.109"/>
        <path id="Trazado_117203" data-name="Trazado 117203" d="M3584.071,4108.266l-2.405,12.3.317-.831c-.865,1.709-1.606,3.453-2.527,5.129l.882-1.1-1.333,1.253c-.254.239-.061,1.3-.033,1.586-.009-.09.1.9.3.531a31.205,31.205,0,0,1,2.169-3.953,10.462,10.462,0,0,0,1.12-2.134l.347-1.857q1.02-4.5,2.081-8.99a2.98,2.98,0,0,0-.411-1.534C3584.6,4108.736,3584.143,4107.807,3584.071,4108.266Z" fill="#b2aaa6" opacity="0.109"/>
      </g>
      <g id="Grupo_61070" data-name="Grupo 61070">
        <path id="Trazado_117204" data-name="Trazado 117204" d="M3571.48,4165.134l-.135,1.734-.818,3.46c-.462,1.777-.92,3.579-1.452,5.336-.861,2.845-1.945,5.525-2.066,8.528l-.015,2.383.627,2.391c.212,1.138.325,2.3.519,3.445.243,1.438.456,2.877.659,4.322a7.154,7.154,0,0,1,.139,1.77,8.181,8.181,0,0,0,.269,2.415l.144-1.766c-.827,2.757-2.177,5.339-2.515,8.23a15.476,15.476,0,0,0,.049,3.5,14.181,14.181,0,0,0,.729,3.219c.088.256.6.227.762.128.341-.206.266-.761.251-1.081-.051-1.089-.13-2.168-.215-3.255a10.64,10.64,0,0,1-.052-2.523,6.219,6.219,0,0,1,.379-2.524c.233-.922.5-1.832.74-2.751a20.945,20.945,0,0,0,1-5.073c.017-2.842-1.036-5.415-1.552-8.171l-.242-3.588-.063-2.478a26.711,26.711,0,0,1,2.349-10.533l-.748,1.192q.875-1.213,1.7-2.461a4.108,4.108,0,0,0,.929-2.051,24.739,24.739,0,0,0,.738-4.55,5.275,5.275,0,0,0-1.087.291C3572.421,4164.7,3571.5,4164.938,3571.48,4165.134Z" fill="#b2aaa6" opacity="0.109"/>
        <path id="Trazado_117205" data-name="Trazado 117205" d="M3568.031,4160.573l-.228,3.436.465-1.711-1.4,2.918.736-1.2a16.1,16.1,0,0,1-4.584,4.929,28.378,28.378,0,0,0-2.941,2.319,5.112,5.112,0,0,0-1.744,1.942,21.543,21.543,0,0,0-1.592,4.078c-.443,2.257.067,4.642.189,6.9q.079,1.726.064,3.453a20.885,20.885,0,0,1-.444,2.923l.165-.545-.582,1.864.174-.543a26.678,26.678,0,0,0-1.893,5.085,15.647,15.647,0,0,0,.257,6,3.584,3.584,0,0,0,1.217,2.042,42.649,42.649,0,0,0,3.094,3.209,3.6,3.6,0,0,0,2,1.29.665.665,0,0,0,.75-.724,25.959,25.959,0,0,1-.645-4.37,12.57,12.57,0,0,1,.734-4.374l-.191.539c1.081-2.38,2.145-4.645,2.265-7.3.15-3.31-1.061-6.433-1.479-9.678a19.659,19.659,0,0,1,.093-5.761,18.751,18.751,0,0,1,1.867-5.346c1.515-3.055,3.429-5.924,4.12-9.308a4.442,4.442,0,0,0-.206-1.572C3568.319,4161.22,3568.114,4160.243,3568.031,4160.573Z" fill="#b2aaa6" opacity="0.109"/>
        <path id="Trazado_117206" data-name="Trazado 117206" d="M3567.852,4155.855a10.2,10.2,0,0,1-.561,3.144q-.658,1.635-1.205,3.311a9.942,9.942,0,0,1-1.334,2.924,15.576,15.576,0,0,0-1.28,3.555,25.509,25.509,0,0,0-.213,11.188,41.077,41.077,0,0,1,1.146,6.433c.063,2.539-.916,4.707-1.874,7.121-1.171,2.949-.957,6.054-.488,9.116.125.811.577,1.259,1.4,1.068.916-.213.9-.771.785-1.575a16.353,16.353,0,0,1,.012-6.275c.372-1.558,1.225-2.969,1.719-4.485a14.974,14.974,0,0,0,.7-3.107,20.345,20.345,0,0,0-.711-6.334q-.282-1.277-.527-2.561a14.52,14.52,0,0,1-.271-4.929,14.21,14.21,0,0,1,.487-5.532q.442-1.536.983-3.039c.594-1.7,1.226-3.38,1.813-5.079q.425-1.244.88-2.479a11.266,11.266,0,0,0,.6-3.342,10.408,10.408,0,0,0-1.06.372C3568.772,4155.386,3567.871,4155.67,3567.852,4155.855Z" fill="#b2aaa6" opacity="0.109"/>
        <path id="Trazado_117207" data-name="Trazado 117207" d="M3572.2,4159.674c-.857-.563-.885,1.692-.9,2.033a23.012,23.012,0,0,1-.446,3.114c-.422,2.176-1.125,4.3-1.528,6.477a31.541,31.541,0,0,0-.2,10.5c.22,1.478.54,2.937.782,4.41a25.136,25.136,0,0,1,.3,5.231l.189-1.036a8.59,8.59,0,0,1-.617,2.372,14.014,14.014,0,0,1-.958,2.215,18.743,18.743,0,0,0-1.229,3.523,13.254,13.254,0,0,0-.382,3.534,29.539,29.539,0,0,0,.611,4.438c.443,2.24,3.019-2.05,3-2.013q1.665-2.643,3.127-5.4a6.586,6.586,0,0,0,1.156-3.077c-.055-2.366-.621-4.758-.11-7.112a22.732,22.732,0,0,1,1.157-3.222,17.44,17.44,0,0,0,1.029-3.939c.3-2.569-.366-5.039-.788-7.552a40.177,40.177,0,0,1-.234-12.232l-.278-.511a4.692,4.692,0,0,0-1.54-.526,7.8,7.8,0,0,0-2.316,1.326l1.512.926a3.014,3.014,0,0,0-.192-.861,2.926,2.926,0,0,1-.162-1.466c-.464-4.337-.622-4.451-.794-3.147-.062.465-.094.935-.136,1.4C3572.237,4159.144,3572.148,4159.639,3572.2,4159.674Z" fill="#b2aaa6" opacity="0.109"/>
        <path id="Trazado_117208" data-name="Trazado 117208" d="M3571.3,4154.65a12.206,12.206,0,0,1-.472,3.23,34.156,34.156,0,0,1-1.19,3.332c-.59,1.476-1.273,2.916-1.8,4.419a25.8,25.8,0,0,0-.853,13.747c.345,1.738.819,3.45,1.095,5.2a11.269,11.269,0,0,1-1.39,7.946,10.956,10.956,0,0,0-.657,1.988c-.15.661-.3,1.33-.4,2a19.921,19.921,0,0,0,.374,5.823,1.116,1.116,0,0,0,1.5.872c.747-.2.861-1.331.767-1.971q-.2-1.217-.3-2.449a12.348,12.348,0,0,1,1.081-6.074c.386-1.028.786-2,1.077-3.068.75-2.743.268-5.537-.378-8.252a33.459,33.459,0,0,1-1.111-6.118l.178-4.306a23.607,23.607,0,0,1,1.149-4.632c.53-1.532,1.215-3,1.823-4.506a34.266,34.266,0,0,0,1.19-3.332,12.168,12.168,0,0,0,.471-3.23C3573.472,4155,3571.295,4154.662,3571.3,4154.65Z" fill="#b2aaa6" opacity="0.109"/>
        <path id="Trazado_117209" data-name="Trazado 117209" d="M3565.625,4159.413a14.155,14.155,0,0,1-1.306,4.14q-.534,1.692-1.16,3.354-.794,2.19-1.643,4.36a21.96,21.96,0,0,0-1.474,4.483,24.6,24.6,0,0,0,.044,8.692,55.018,55.018,0,0,1,1.1,6.707,13.591,13.591,0,0,1-1.352,5.768,19.13,19.13,0,0,0-1.452,4.4,22.12,22.12,0,0,0,.078,5.447c.047.489.472,1.233,1.032,1.282.375.033,1.467-.661,1.381-1.111l-.375-5.661.3-1.423a22.4,22.4,0,0,1,1.146-2.971,16.187,16.187,0,0,0,1.071-3.027,13.639,13.639,0,0,0,.073-4.187c-.218-1.849-.626-3.648-.952-5.478q-.17-.867-.283-1.743a15.326,15.326,0,0,1-.138-4.344,17.036,17.036,0,0,1,.127-4.534,20.08,20.08,0,0,1,.636-3.328l-.281.843c.458-1.078,1.011-2.1,1.411-3.207.5-1.369,1.052-2.79,1.456-4.184a25.733,25.733,0,0,0,.815-5.141c.024-.272.009-.189-.069-.187A5.436,5.436,0,0,0,3565.625,4159.413Z" fill="#b2aaa6" opacity="0.109"/>
        <path id="Trazado_117210" data-name="Trazado 117210" d="M3568.527,4165.02a20.01,20.01,0,0,1-.837,4.425c-.441,1.38-1.024,2.692-1.589,4.022a39.544,39.544,0,0,0-1.649,4.483,19.3,19.3,0,0,0-.9,5.564c.013.663.079,1.464.157,2.119q.639,2.25,1.193,4.522a15.676,15.676,0,0,1,.39,1.792q.267,1.332.429,2.683l.166,3.253a40.85,40.85,0,0,1-1.243,6.4l1.029-1.993c-2.886,4.772-1.267,1.578-2.443,4.7l-.5,1.25q-.672,1.824,1.228,3.3l-.7-1.821.523,2.987-.185-1.574-.28,3.044c-.04.436.728-.486.724-.481.173-.242.808-.946.58-1.274l-.909-1.307.34,1.919.7-3.574a18.005,18.005,0,0,1,.067-3.038,4.181,4.181,0,0,1,.3-1.629,13.982,13.982,0,0,0,.555-2.5l-1,1.942a12.389,12.389,0,0,0,2.226-4.806,6.776,6.776,0,0,0,0-1.56,23.027,23.027,0,0,0-.549-3.463,44.136,44.136,0,0,1-1.307-7.237l-.265,2.109a6.686,6.686,0,0,0,.864-3.789,23.009,23.009,0,0,1,.251-3.547,26.455,26.455,0,0,1,1.7-6.264c.647-1.608,1.432-3.169,2-4.8a21.826,21.826,0,0,0,1.12-5.313C3570.724,4165.344,3568.526,4165.026,3568.527,4165.02Z" fill="#b2aaa6" opacity="0.109"/>
        <path id="Trazado_117211" data-name="Trazado 117211" d="M3574.439,4158.506c-.239,1.067-.386,2.084-.522,3.164a22.434,22.434,0,0,1-.971,3.939,39.892,39.892,0,0,0-1.988,8.854,31.135,31.135,0,0,0,.457,8.666c.281,1.431.639,2.843.886,4.281a22.251,22.251,0,0,1,.282,4.255l.093-.633a21.177,21.177,0,0,1-1.461,4.49,20.911,20.911,0,0,0-1.155,3.321,18.02,18.02,0,0,0,.236,7.672c.287,1.545,1.976.076,2.424-.34a27.539,27.539,0,0,0,2.39-2.683,2.492,2.492,0,0,0,.836-1.753c-.117-1.26-.328-2.495-.378-3.761a17.908,17.908,0,0,1,.479-4.511l-.142.664a36.409,36.409,0,0,0,1.683-5.753,10.746,10.746,0,0,0-.445-4.413c-.446-1.709-1.041-3.37-1.462-5.087a21.935,21.935,0,0,1-.677-3.832q-.084-2.169-.083-4.34l-.032.481c.261-2.2.47-4.409.651-6.613a37.245,37.245,0,0,0-.082-4.2,4,4,0,0,0-.587-1.473C3574.9,4158.949,3574.519,4158.151,3574.439,4158.506Z" fill="#b2aaa6" opacity="0.109"/>
        <path id="Trazado_117212" data-name="Trazado 117212" d="M3566.553,4158.139a7.5,7.5,0,0,1-1.417,3.764q-.676,1.334-1.4,2.638a30.686,30.686,0,0,0-2.282,5.185,24.367,24.367,0,0,0-1.136,6.842,37.061,37.061,0,0,0,.569,5.784,18.45,18.45,0,0,1,.256,5.565,17.758,17.758,0,0,1-1.136,3.838,18.109,18.109,0,0,0-1.278,4.075,21.786,21.786,0,0,0,.118,5.412,8.515,8.515,0,0,0,1.641,3.614c.516.358,1.765.135,1.614-.732a21.113,21.113,0,0,1-.465-5.714,19.537,19.537,0,0,1,1.749-5.345,12.769,12.769,0,0,0,.957-5.187,46.3,46.3,0,0,0-1.183-7.3l.088.506-.335-2.161.062.48a23.2,23.2,0,0,1,.64-9.123,42.489,42.489,0,0,1,1.767-4.638c.606-1.391,1.211-2.789,1.709-4.223l.514-1.536q.235-1.674.326-3.363c.024-.305-.506.4-.453.335C3567.237,4157.139,3566.589,4157.74,3566.553,4158.139Z" fill="#b2aaa6" opacity="0.109"/>
        <path id="Trazado_117213" data-name="Trazado 117213" d="M3569.476,4156.826l-.756,2.284.89-.228a3.428,3.428,0,0,0-1.527.04,4.379,4.379,0,0,0-1.142,1.159,7.05,7.05,0,0,0-.979,2.712,39.127,39.127,0,0,0-.834,4.788,37.883,37.883,0,0,0-.158,7.314,74.021,74.021,0,0,0,1.155,7.6l-.218-1.473.188,1.273.035-3.745a24.473,24.473,0,0,1-1.192,5.887,26.279,26.279,0,0,0-1.051,5.137,43.266,43.266,0,0,0,.484,12.944c.194,1.088,1.125,1.46,1.59.412a3.5,3.5,0,0,0,.359-2.117q.117-2.435,0-4.869-.172-2.2-.423-4.392l.129,1.674q-.062-1.44-.1-2.882l-.374,6.327a11.387,11.387,0,0,1,.972-3.719q.454-1.105.915-2.206a15.381,15.381,0,0,0,.872-4.706,65.942,65.942,0,0,0-.819-12.358l.191,1.445-.382-3.039.162,1.418-.3-3.008.133,1.393a29.3,29.3,0,0,1-.048-4.169l-.249,3.636.669-4.5-.273,1.147a13.746,13.746,0,0,1,1.217-3.436,22.338,22.338,0,0,1,1.27-2.48q.656-1.264,1.288-2.542a6.35,6.35,0,0,0,.544-2.871C3571.733,4156.453,3569.512,4156.423,3569.476,4156.826Z" fill="#b2aaa6" opacity="0.109"/>
        <path id="Trazado_117214" data-name="Trazado 117214" d="M3574.155,4163.091a48.455,48.455,0,0,0-1.33,4.691q-.535,1.641-1.089,3.275a34.664,34.664,0,0,0-1.357,6.763,31.08,31.08,0,0,0-.006,5.344,42.059,42.059,0,0,0,1.323,6.466c.576,2.274,1.108,4.684.431,7-.44,1.5-1.219,2.853-1.77,4.311-1.169,3.1-.737,6.2-.077,9.356a.937.937,0,0,0,.975.489,6.385,6.385,0,0,0,1.6-.6,12.8,12.8,0,0,0,1.863-1.01,1.709,1.709,0,0,0,1.048-1.16q-.259-1.453-.495-2.91l.059.541a19.928,19.928,0,0,1-.157-2.876,14.252,14.252,0,0,1,.551-3c.541-1.9,1.465-3.645,1.315-5.668a18.955,18.955,0,0,0-1.623-5.758,26.435,26.435,0,0,1-2.348-8.038,34.807,34.807,0,0,1,.758-9.481c.215-1.067.494-2.135.642-3.215a17.482,17.482,0,0,0,.033-2.928c0-.114.193-3.44.231-3.452-.119.036.031-.1-.138.059-.121.114-.161.538-.2.686A3.382,3.382,0,0,0,3574.155,4163.091Z" fill="#b2aaa6" opacity="0.109"/>
        <path id="Trazado_117215" data-name="Trazado 117215" d="M3565.711,4160.8a11.183,11.183,0,0,1-.716,3.461q-.692,1.649-1.227,3.353a8.729,8.729,0,0,0-.765,2.377,18.234,18.234,0,0,1-1.168,3.789,33.394,33.394,0,0,0-1.266,5.7q-.117.776-.187,1.557-.026,2.127-.136,4.251a48.993,48.993,0,0,0,.925,5.369,28.5,28.5,0,0,1,.375,3.448,24.351,24.351,0,0,1-2.026,6.932,16.511,16.511,0,0,0-.947,3.324,28.676,28.676,0,0,0-.022,5.426c.017.47.861,1,1.29.915a1.731,1.731,0,0,0,1.025-1.446,15.92,15.92,0,0,1-.282-6.481c.458-2.26,1.91-4.193,2.363-6.448a19.155,19.155,0,0,0-.245-6.977c-.2-1.17-.465-2.33-.667-3.5a28.168,28.168,0,0,0-.488-2.877,13.74,13.74,0,0,1,.581-8.305l-.247.853,1.066-3.165-.791,1.586q.972-1.371,1.912-2.762.483-1.208.886-2.446.418-1.271.9-2.519a11.35,11.35,0,0,0,.623-3.429,4.383,4.383,0,0,0-.487-1.507C3566.026,4161.375,3565.744,4160.536,3565.711,4160.8Z" fill="#b2aaa6" opacity="0.109"/>
      </g>
      <g id="Grupo_61071" data-name="Grupo 61071">
        <path id="Trazado_117216" data-name="Trazado 117216" d="M3525.953,4166.732c.292,2.589.657,5.172.914,7.766.535,5.384.517,10.825.516,16.229,0,1.935.19,4.061-.5,5.913-.484,1.3-1.226,2.479-1.73,3.78,0,0,.727-.247.817-.291.27-.129,1.028-.348,1.16-.64a8.239,8.239,0,0,1,1.055-1.973,8.467,8.467,0,0,0,.972-1.921,9.615,9.615,0,0,0,.328-2.759c.064-4.817.046-9.659-.2-14.471-.21-4.158-.761-8.258-1.227-12.388C3528.081,4166.121,3525.931,4166.536,3525.953,4166.732Z" fill="#b2aaa6" opacity="0.109"/>
        <path id="Trazado_117217" data-name="Trazado 117217" d="M3522.359,4155.317a26.731,26.731,0,0,0-.613,5.935,17.077,17.077,0,0,0,.444,3.356,18.885,18.885,0,0,1,.322,5.889,70.275,70.275,0,0,1,0,9.569l-1.09,8.333-.159.851a6.649,6.649,0,0,1-.832,2.062,16.6,16.6,0,0,0-1.357,1.847c-.288.652-.143.991-.058,1.815a.769.769,0,0,0,1.213.627,3.947,3.947,0,0,0,1.534-1.366c.334-.544.672-1.089.961-1.658,1.03-2.022.929-4.168,1.041-6.394.317-6.273.652-12.729-.282-18.961-.166-1.11-.394-2.215-.524-3.33a21.291,21.291,0,0,1,.574-6.667c.042-.184-.5-.865-.563-.97A7,7,0,0,1,3522.359,4155.317Z" fill="#b2aaa6" opacity="0.109"/>
        <path id="Trazado_117218" data-name="Trazado 117218" d="M3522.248,4158.373a145.87,145.87,0,0,1,1.4,25.137,9.275,9.275,0,0,1-.721,4.128c-.515,1.042-1.139,2.033-1.686,3.059.015-.03.719-.209.827-.254.3-.123,1.013-.276,1.2-.562a14.747,14.747,0,0,0,2.118-3.952,10.238,10.238,0,0,0,.314-2.224c.152-3.446.029-6.991-.057-10.429a115.307,115.307,0,0,0-1.332-15.779C3524.337,4157.644,3522.215,4158.171,3522.248,4158.373Z" fill="#b2aaa6" opacity="0.109"/>
        <path id="Trazado_117219" data-name="Trazado 117219" d="M3527.3,4153.7c-.586,1.959-1.6,5.078-1.471,6.724.2,2.479.752,5,1.166,7.427.681,3.987,1.45,7.988,1.79,12.024a26.87,26.87,0,0,1-.016,7.382l.436-1.236-.808,2.282,1.284-2.947-1.8,3.647c-.252.511-1.208,2.827.41,2.536a2.846,2.846,0,0,0,1.451-1.509,32.387,32.387,0,0,0,1.882-3.41,20.42,20.42,0,0,0,1.6-4.169,11.13,11.13,0,0,0,.013-3.4,12.186,12.186,0,0,0-1.865-6.307,17.109,17.109,0,0,1-2.978-8.8c-.541-2.367-1.162-4.682-1.791-7.031l-.186,2,.7-3.091a8.066,8.066,0,0,0,.181-1.574C3527.3,4154.375,3527.372,4153.475,3527.3,4153.7Z" fill="#b2aaa6" opacity="0.109"/>
        <path id="Trazado_117220" data-name="Trazado 117220" d="M3525.931,4157.135c.427,3.706.85,7.392,1.056,11.117.268,4.842.263,9.728.2,14.576a8.6,8.6,0,0,1-.522,3.176c-.485,1.21-1.22,2.308-1.818,3.465-.016.031,2.015.892,2.155.622.511-.99,1.11-1.936,1.6-2.935a8.319,8.319,0,0,0,.734-3.707q.081-6.117-.12-12.235-.079-3.517-.389-7.022-.38-3.218-.744-6.437a4.908,4.908,0,0,0-1.071-.333C3527.028,4157.426,3525.933,4157.152,3525.931,4157.135Z" fill="#b2aaa6" opacity="0.109"/>
        <path id="Trazado_117221" data-name="Trazado 117221" d="M3519.738,4163.328l.863,6.265.321,4.468c.208,3.88.215,7.771.218,11.655,0,1.719.082,3.741-.776,5.314-.431.789-.884,1.563-1.306,2.359a4.778,4.778,0,0,0-.254,1.563c.012-.117-.109.8.055.554a19.682,19.682,0,0,0,2.105-3.706,10.738,10.738,0,0,0,.644-2.961,67.979,67.979,0,0,0,.08-7.169c-.052-3.923-.188-7.841-.506-11.752a69.361,69.361,0,0,0-1.141-8.812,4.445,4.445,0,0,1-.159,1.11A4.136,4.136,0,0,0,3519.738,4163.328Z" fill="#b2aaa6" opacity="0.109"/>
        <path id="Trazado_117222" data-name="Trazado 117222" d="M3523.253,4169.764c.535,4.638.917,9.2,1.032,13.871q.074,3.485.064,6.969.016,1.7-.01,3.4a7.865,7.865,0,0,1-.724,3.157c-.528,1.063-1.153,2.06-1.66,3.137.008-.016,2.066.774,2.178.535.506-1.076,1.154-2.065,1.66-3.137a7.78,7.78,0,0,0,.723-3.158c.117-3.438.045-6.925-.053-10.363-.133-4.652-.5-9.248-1.032-13.873a6.078,6.078,0,0,0-1.085-.282C3524.358,4170.018,3523.256,4169.787,3523.253,4169.764Z" fill="#b2aaa6" opacity="0.109"/>
        <path id="Trazado_117223" data-name="Trazado 117223" d="M3529.7,4152.922a14.136,14.136,0,0,0-.747,3.445,14.6,14.6,0,0,0,.285,2.632c.391,2.927.348,5.525.505,8.588.323,6.3.918,12.582.919,18.892a9.993,9.993,0,0,1-.925,4.116,6.783,6.783,0,0,0-.738,2.081c-.048.355.678,1.123.958,1.269a.561.561,0,0,0,.856-.227,20.952,20.952,0,0,0,1.783-4.057,7.231,7.231,0,0,0,.258-2.275c-.117-2.513-.347-5.026-.566-7.532-.251-2.863-.417-5.723-.877-8.56q-.171-1.118-.363-2.23l-1.07-6.189c-.076-.742-.106-1.488-.205-2.228-.173-1.289-.513-2.554-.7-3.838l.192,1.572a11.443,11.443,0,0,1,.726-3.235,3.843,3.843,0,0,0-.139-1.113A4.094,4.094,0,0,1,3529.7,4152.922Z" fill="#b2aaa6" opacity="0.109"/>
        <path id="Trazado_117224" data-name="Trazado 117224" d="M3520.5,4157.486a9.489,9.489,0,0,0,.322,3.365,43.126,43.126,0,0,1,.862,6.3l.324,4.647a40.867,40.867,0,0,1-.081,8.494,56.316,56.316,0,0,1-.178,6.417,14.075,14.075,0,0,1-1.535,3.626,5.838,5.838,0,0,0-.575,1.682c-.12.377.581.04.62.023a3.46,3.46,0,0,0,1.363-.813,12.832,12.832,0,0,0,1.656-3.01,10.567,10.567,0,0,0,.6-4.182,73.9,73.9,0,0,0-.25-9.135q-.112-4.682-.538-9.346a47.653,47.653,0,0,0-.908-6.487,9.48,9.48,0,0,1-.32-3.364c0,.139-.642.8-.7.876C3521.071,4156.707,3520.5,4157.275,3520.5,4157.486Z" fill="#b2aaa6" opacity="0.109"/>
        <path id="Trazado_117225" data-name="Trazado 117225" d="M3524.238,4151.33a18.322,18.322,0,0,0-.6,4.951c.054,2.252.543,4.525.8,6.759a109.033,109.033,0,0,1,.676,11.973c.014,2.178.1,4.373-.066,6.545l.139-.762a9.137,9.137,0,0,1-.509,1.689q-.423.843-.9,1.659-.276,1.261-.52,2.529a3.447,3.447,0,0,0-.05,1.268,1.131,1.131,0,0,0,1.557.721.7.7,0,0,0,.567-.638,3.236,3.236,0,0,0,1.217-1.671,10.335,10.335,0,0,0,.793-3.7q.008-2.944.018-5.89.027-3.939-.17-7.875c-.2-3.795-.8-7.51-1.2-11.278a17.171,17.171,0,0,1-.121-3.034,12.263,12.263,0,0,1,.6-3.445C3526.428,4151.309,3524.309,4151.04,3524.238,4151.33Z" fill="#b2aaa6" opacity="0.109"/>
        <path id="Trazado_117226" data-name="Trazado 117226" d="M3528.249,4159.468a7.706,7.706,0,0,0-.043,3.429l.418,3.363q.3,3.114.639,6.224a21.19,21.19,0,0,1,.774,5.761c.1,3.718.469,7.486.27,11.2a13.323,13.323,0,0,1-.144,1.544,9.884,9.884,0,0,0-1.65,5.112,4.024,4.024,0,0,0,.173,1.581c.038.1.237.625.43.308a20.426,20.426,0,0,0,1.786-3.461,7.359,7.359,0,0,0,.412-1.623,44.734,44.734,0,0,0-.215-6.988l-.211-4.691-.343-10.45c-.185-2.089-.494-4.167-.688-6.256-.083-.886-.15-1.743-.3-2.621a13.37,13.37,0,0,1-.238-1.795,5.636,5.636,0,0,1,.129-2.534c-.032.247-.488.761-.6.945S3528.283,4159.21,3528.249,4159.468Z" fill="#b2aaa6" opacity="0.109"/>
        <path id="Trazado_117227" data-name="Trazado 117227" d="M3519.937,4163.746a67.623,67.623,0,0,1,1.2,10.927l.231,9.505q.108,2.821-.041,5.636a7.219,7.219,0,0,1-.685,3.072c-.5,1.015-1.112,1.98-1.649,2.977-.127.235.212.9.278,1.09a10.168,10.168,0,0,0,.461,1.027,19.82,19.82,0,0,0,2.222-4.211,10.2,10.2,0,0,0,.307-2.828c.029-3.276-.01-6.567-.113-9.842a80.965,80.965,0,0,0-1.485-15.354,13.651,13.651,0,0,0-.514-1.5C3520.184,4164.358,3519.891,4163.536,3519.937,4163.746Z" fill="#b2aaa6" opacity="0.109"/>
      </g>
      <g id="Grupo_61072" data-name="Grupo 61072">
        <path id="Trazado_117228" data-name="Trazado 117228" d="M3462.417,4116.01c.292,2.59.657,5.173.914,7.767.535,5.384.517,10.825.516,16.229,0,1.935.19,4.061-.5,5.912-.484,1.305-1.225,2.479-1.73,3.781,0,0,.727-.247.817-.291.27-.129,1.028-.348,1.16-.64a8.225,8.225,0,0,1,1.055-1.973,8.457,8.457,0,0,0,.972-1.921,9.616,9.616,0,0,0,.328-2.759c.064-4.817.046-9.659-.2-14.472-.21-4.157-.761-8.257-1.227-12.387C3464.546,4115.4,3462.4,4115.815,3462.417,4116.01Z" fill="#b2aaa6" opacity="0.109"/>
        <path id="Trazado_117229" data-name="Trazado 117229" d="M3458.824,4104.6a26.7,26.7,0,0,0-.614,5.936,17.1,17.1,0,0,0,.444,3.356,18.881,18.881,0,0,1,.322,5.889,70.242,70.242,0,0,1,0,9.569l-1.089,8.333-.16.851a6.644,6.644,0,0,1-.832,2.061,16.472,16.472,0,0,0-1.356,1.848c-.289.652-.144.991-.059,1.815a.769.769,0,0,0,1.213.627,3.941,3.941,0,0,0,1.534-1.366c.334-.544.672-1.09.961-1.658,1.03-2.022.929-4.168,1.041-6.394.317-6.273.652-12.729-.282-18.961-.166-1.11-.394-2.215-.524-3.33a21.291,21.291,0,0,1,.574-6.667c.042-.184-.5-.865-.563-.97A6.908,6.908,0,0,1,3458.824,4104.6Z" fill="#b2aaa6" opacity="0.109"/>
        <path id="Trazado_117230" data-name="Trazado 117230" d="M3458.712,4107.651a145.865,145.865,0,0,1,1.4,25.138,9.275,9.275,0,0,1-.721,4.128c-.515,1.042-1.139,2.033-1.686,3.059.015-.03.719-.209.827-.254.3-.123,1.013-.276,1.2-.562a14.727,14.727,0,0,0,2.118-3.953,10.213,10.213,0,0,0,.314-2.223c.152-3.446.029-6.991-.057-10.429a115.262,115.262,0,0,0-1.332-15.779C3460.8,4106.922,3458.679,4107.45,3458.712,4107.651Z" fill="#b2aaa6" opacity="0.109"/>
        <path id="Trazado_117231" data-name="Trazado 117231" d="M3463.769,4102.979c-.586,1.959-1.6,5.078-1.471,6.724.2,2.479.752,5,1.166,7.427.681,3.987,1.45,7.988,1.79,12.024a26.883,26.883,0,0,1-.016,7.382l.436-1.237-.808,2.283,1.284-2.947-1.8,3.647c-.253.511-1.209,2.827.409,2.536a2.846,2.846,0,0,0,1.451-1.509,32.4,32.4,0,0,0,1.882-3.41,20.423,20.423,0,0,0,1.6-4.169,11.134,11.134,0,0,0,.013-3.4,12.189,12.189,0,0,0-1.865-6.307,17.112,17.112,0,0,1-2.978-8.8c-.541-2.367-1.162-4.683-1.791-7.031l-.186,2,.7-3.091a8.065,8.065,0,0,0,.181-1.574C3463.76,4103.653,3463.836,4102.754,3463.769,4102.979Z" fill="#b2aaa6" opacity="0.109"/>
        <path id="Trazado_117232" data-name="Trazado 117232" d="M3462.4,4106.414c.427,3.706.85,7.392,1.056,11.117.268,4.842.263,9.728.2,14.576a8.6,8.6,0,0,1-.522,3.176c-.485,1.21-1.22,2.308-1.818,3.465-.016.031,2.015.892,2.155.622.511-.991,1.111-1.936,1.6-2.935a8.333,8.333,0,0,0,.735-3.707q.079-6.117-.121-12.236-.079-3.516-.389-7.022-.379-3.216-.744-6.436a4.88,4.88,0,0,0-1.071-.333C3463.492,4106.705,3462.4,4106.431,3462.4,4106.414Z" fill="#b2aaa6" opacity="0.109"/>
        <path id="Trazado_117233" data-name="Trazado 117233" d="M3456.2,4112.607l.863,6.265.321,4.468c.208,3.88.215,7.771.218,11.655,0,1.718.082,3.741-.776,5.313-.431.79-.884,1.564-1.306,2.36a4.778,4.778,0,0,0-.254,1.563c.012-.117-.109.8.055.554a19.711,19.711,0,0,0,2.1-3.706,10.73,10.73,0,0,0,.644-2.961,68.051,68.051,0,0,0,.08-7.169c-.052-3.924-.188-7.842-.506-11.753a69.385,69.385,0,0,0-1.141-8.812,4.439,4.439,0,0,1-.159,1.111A4.143,4.143,0,0,0,3456.2,4112.607Z" fill="#b2aaa6" opacity="0.109"/>
        <path id="Trazado_117234" data-name="Trazado 117234" d="M3459.717,4119.043c.535,4.638.917,9.2,1.032,13.871q.074,3.483.064,6.969.018,1.7-.01,3.4a7.869,7.869,0,0,1-.724,3.157c-.528,1.063-1.153,2.06-1.66,3.137.008-.016,2.066.774,2.178.535.506-1.076,1.154-2.065,1.66-3.137a7.777,7.777,0,0,0,.724-3.158c.116-3.439.044-6.925-.054-10.363-.132-4.652-.5-9.248-1.032-13.873a5.89,5.89,0,0,0-1.085-.282C3460.822,4119.3,3459.72,4119.066,3459.717,4119.043Z" fill="#b2aaa6" opacity="0.109"/>
        <path id="Trazado_117235" data-name="Trazado 117235" d="M3466.16,4102.2a14.127,14.127,0,0,0-.747,3.445,14.568,14.568,0,0,0,.285,2.632c.391,2.927.348,5.525.5,8.588.323,6.3.918,12.582.919,18.891a10,10,0,0,1-.925,4.117,6.786,6.786,0,0,0-.738,2.081c-.048.355.679,1.123.958,1.269a.562.562,0,0,0,.856-.227,20.943,20.943,0,0,0,1.783-4.057,7.252,7.252,0,0,0,.259-2.275c-.118-2.513-.348-5.026-.567-7.532-.251-2.863-.417-5.723-.877-8.561q-.17-1.115-.363-2.229l-1.07-6.189c-.076-.742-.106-1.488-.205-2.228-.173-1.289-.513-2.554-.7-3.839l.192,1.573a11.46,11.46,0,0,1,.726-3.235,3.838,3.838,0,0,0-.139-1.113A4.081,4.081,0,0,1,3466.16,4102.2Z" fill="#b2aaa6" opacity="0.109"/>
        <path id="Trazado_117236" data-name="Trazado 117236" d="M3456.965,4106.765a9.49,9.49,0,0,0,.322,3.365,43.215,43.215,0,0,1,.863,6.3l.323,4.647a40.867,40.867,0,0,1-.081,8.494,56.319,56.319,0,0,1-.178,6.417,14.09,14.09,0,0,1-1.535,3.626,5.825,5.825,0,0,0-.575,1.682c-.12.377.582.04.62.023a3.46,3.46,0,0,0,1.363-.813,12.813,12.813,0,0,0,1.656-3.01,10.558,10.558,0,0,0,.6-4.182,73.884,73.884,0,0,0-.25-9.135q-.112-4.683-.538-9.347a47.605,47.605,0,0,0-.908-6.486,9.488,9.488,0,0,1-.32-3.364c0,.139-.642.8-.7.876C3457.535,4105.986,3456.965,4106.554,3456.965,4106.765Z" fill="#b2aaa6" opacity="0.109"/>
        <path id="Trazado_117237" data-name="Trazado 117237" d="M3460.7,4100.609a18.326,18.326,0,0,0-.6,4.951c.054,2.252.543,4.525.8,6.759a109.16,109.16,0,0,1,.676,11.973c.014,2.178.1,4.373-.066,6.545l.139-.762a9.178,9.178,0,0,1-.509,1.689q-.423.843-.9,1.659-.276,1.262-.52,2.529a3.446,3.446,0,0,0-.05,1.268,1.13,1.13,0,0,0,1.557.721.7.7,0,0,0,.567-.638,3.243,3.243,0,0,0,1.217-1.671,10.346,10.346,0,0,0,.793-3.7q.007-2.944.018-5.889.027-3.939-.17-7.875c-.2-3.795-.8-7.51-1.2-11.278a17.207,17.207,0,0,1-.121-3.035,12.262,12.262,0,0,1,.6-3.444C3462.892,4100.588,3460.773,4100.319,3460.7,4100.609Z" fill="#b2aaa6" opacity="0.109"/>
        <path id="Trazado_117238" data-name="Trazado 117238" d="M3464.713,4108.747a7.7,7.7,0,0,0-.043,3.428l.418,3.364q.3,3.114.639,6.224a21.189,21.189,0,0,1,.774,5.761c.1,3.718.469,7.486.27,11.2a13.314,13.314,0,0,1-.144,1.544,9.893,9.893,0,0,0-1.65,5.112,4.023,4.023,0,0,0,.173,1.581c.038.1.237.625.43.308a20.5,20.5,0,0,0,1.787-3.461,7.412,7.412,0,0,0,.411-1.623,44.724,44.724,0,0,0-.215-6.988l-.211-4.691-.343-10.45c-.185-2.089-.494-4.167-.688-6.256-.083-.886-.15-1.743-.3-2.621a13.216,13.216,0,0,1-.237-1.8,5.613,5.613,0,0,1,.128-2.533c-.032.247-.488.761-.6.945S3464.747,4108.489,3464.713,4108.747Z" fill="#b2aaa6" opacity="0.109"/>
        <path id="Trazado_117239" data-name="Trazado 117239" d="M3456.4,4113.025a67.6,67.6,0,0,1,1.2,10.927l.231,9.5q.108,2.821-.041,5.636a7.224,7.224,0,0,1-.685,3.072c-.5,1.015-1.112,1.98-1.649,2.977-.127.235.212.9.278,1.09a10.174,10.174,0,0,0,.461,1.027,19.828,19.828,0,0,0,2.222-4.212,10.155,10.155,0,0,0,.307-2.827c.03-3.276-.009-6.567-.113-9.842a80.945,80.945,0,0,0-1.485-15.354,13.723,13.723,0,0,0-.514-1.5C3456.648,4113.637,3456.356,4112.815,3456.4,4113.025Z" fill="#b2aaa6" opacity="0.109"/>
      </g>
      <g id="Grupo_61073" data-name="Grupo 61073">
        <path id="Trazado_117240" data-name="Trazado 117240" d="M3559.041,4189.636a50.046,50.046,0,0,1-7.352,5.54l-7.507,3.122-.889.242a6.653,6.653,0,0,0-2.663,1.338,4.512,4.512,0,0,0-1.2,4.026,10.024,10.024,0,0,0,.815,2.728c1.313,2.981,3.31,6.108,4.787,8.759.168.3,2.177-.638,2.113-.753-1.428-2.561-2.94-5.093-4.277-7.7a14.626,14.626,0,0,1-1.1-2.687,3.921,3.921,0,0,1-.228-1.1,2.67,2.67,0,0,1,.1-1.567,2.135,2.135,0,0,1,.429-1.455,2.553,2.553,0,0,1,1-1.117l-.475.279c1.282-.586,2.693-.871,4.018-1.335,1.256-.44,2.43-.967,3.672-1.511,4.089-1.79,7.488-4.716,10.866-7.564a5.418,5.418,0,0,1-1.071.335A3.648,3.648,0,0,0,3559.041,4189.636Z" fill="#b2aaa6" opacity="0.109"/>
        <path id="Trazado_117241" data-name="Trazado 117241" d="M3558.9,4179.881a16.092,16.092,0,0,1-2.854,3.794q-1.449,1.617-2.963,3.175a33.882,33.882,0,0,1-6.38,4.378,39.873,39.873,0,0,1-6.461,2.873,5.816,5.816,0,0,0-1.587.666,6.426,6.426,0,0,0-2.391,4.6c-.593,4.717,1.914,8.111,3.863,12.528.216.489.737.049.889-.176.267-.4.648-1.052.457-1.536-.921-2.346-3.121-6.533-3.262-9.839a4.957,4.957,0,0,1,1.181-3.534,23.992,23.992,0,0,1,2.7-1.044,37.792,37.792,0,0,0,10.235-5.686,31.486,31.486,0,0,0,3.724-3.2,22.174,22.174,0,0,0,4.04-5.092,5.37,5.37,0,0,0-.58-.959S3558.883,4179.91,3558.9,4179.881Z" fill="#b2aaa6" opacity="0.109"/>
        <path id="Trazado_117242" data-name="Trazado 117242" d="M3555.063,4179.459a20.994,20.994,0,0,1-5.9,5.217,27.785,27.785,0,0,1-8.415,3.853c-.412.12-.83.221-1.233.367a6.355,6.355,0,0,0-2.927,1.7,4.845,4.845,0,0,0-.9,3.741,10.06,10.06,0,0,0,.814,2.727c1.3,2.95,3.279,6.034,4.749,8.659.134.24,2.127-.764,2.064-.878q-2.176-3.771-4.239-7.6a16.341,16.341,0,0,1-.942-2.138c-.683-2.016-.843-4.774,1.515-5.882l-1.307.524a54.183,54.183,0,0,0,8.146-3.042,34.482,34.482,0,0,0,5.922-3.6l2.476-2.028a29.8,29.8,0,0,0,2.241-2.5,4.164,4.164,0,0,1-1.037.427A3.674,3.674,0,0,0,3555.063,4179.459Z" fill="#b2aaa6" opacity="0.109"/>
        <path id="Trazado_117243" data-name="Trazado 117243" d="M3563.879,4178.2l-2.6,2.613-1.5,1.96c-7.667,9.535-8.154,6.007-13.469,8.937a7.564,7.564,0,0,0-1.677,1.062,4.889,4.889,0,0,0-1.143,1.678,6.252,6.252,0,0,0-.457,3.618,10.557,10.557,0,0,0,.762,2.509c1.049,2.46,2.442,5.114,3.513,7.363.439.921,1.131.9,1.891.358s2.017-1.587,1.894-2.634a24.392,24.392,0,0,0-1.141-8.249,8.312,8.312,0,0,1-.387-1.6l.075.549a6.34,6.34,0,0,1,.1-2.176,13.317,13.317,0,0,1,.956-2.042l-.4.545a4.913,4.913,0,0,1,1.045-.876L3548.9,4193a26.307,26.307,0,0,0,7.158-3.609,33.111,33.111,0,0,0,3.394-3.027l1.681-1.8a12.209,12.209,0,0,0,2.521-4.13,3.813,3.813,0,0,0,.146-1.112A5.807,5.807,0,0,1,3563.879,4178.2Z" fill="#b2aaa6" opacity="0.109"/>
        <path id="Trazado_117244" data-name="Trazado 117244" d="M3558.839,4178.21l-2.372,2.476a22.851,22.851,0,0,1-5.2,3.637,17.241,17.241,0,0,1-4.17,2.245,16.631,16.631,0,0,1-2.99,1.106c-1.616.511-3.405.747-4.324,2.312a5.1,5.1,0,0,0-.447,3.791,13.622,13.622,0,0,0,.742,2.177,92.649,92.649,0,0,0,4.794,8.623c.167.292,1.218.431,1.5.5,0,0,.724.236.573-.033-1.425-2.536-2.939-5.042-4.266-7.632a15.094,15.094,0,0,1-.942-2.137c-.649-1.982-.734-4.854,1.532-5.906a24.726,24.726,0,0,1,2.827-.94,33,33,0,0,0,5.879-2.536,25.016,25.016,0,0,0,2.815-1.7,16.217,16.217,0,0,0,2.575-1.88,19.885,19.885,0,0,0,3.619-3.483c-.028.03-1.073-.329-1.072-.329A4.786,4.786,0,0,0,3558.839,4178.21Z" fill="#b2aaa6" opacity="0.109"/>
        <path id="Trazado_117245" data-name="Trazado 117245" d="M3550.727,4184.549a32.438,32.438,0,0,1-5.135,3.76l-2.773,1.516a62.148,62.148,0,0,1-6.836,2.461,4.121,4.121,0,0,0-2.577,3.21,9.56,9.56,0,0,0-.149,3.941,10.3,10.3,0,0,0,.565,1.82,85.816,85.816,0,0,0,4.963,9.247c.153.276.254-.572.244-.513.059-.343.334-1.244.152-1.578-1.481-2.711-3.077-5.387-4.423-8.169a8.474,8.474,0,0,1-1.06-4.34l-.218,1.39a3.27,3.27,0,0,1,2.2-2.785q1.974-.549,3.913-1.215a35.307,35.307,0,0,0,10.831-6.523c.168-.136.174-.954.2-1.1A9.04,9.04,0,0,1,3550.727,4184.549Z" fill="#b2aaa6" opacity="0.109"/>
        <path id="Trazado_117246" data-name="Trazado 117246" d="M3553.578,4191.5l-2.486,1.982-5.391,3.193a34.829,34.829,0,0,1-6.41,2.287,3.6,3.6,0,0,0-2.608,2.118,6.4,6.4,0,0,0,.09,4.342,13.094,13.094,0,0,0,.724,1.707c1.337,2.76,3.036,5.567,4.464,8.142.137.247.851.32,1.063.372a8.765,8.765,0,0,0,1.115.163q-2.167-3.89-4.282-7.808a13.471,13.471,0,0,1-1.215-3.137,4.926,4.926,0,0,1,.734-4.123,4.415,4.415,0,0,1,2.382-1.235,33.809,33.809,0,0,0,5.977-2.2,40.966,40.966,0,0,0,8.021-5.269,9.351,9.351,0,0,1-1.082-.3C3554.6,4191.724,3553.7,4191.409,3553.578,4191.5Z" fill="#b2aaa6" opacity="0.109"/>
        <path id="Trazado_117247" data-name="Trazado 117247" d="M3564.239,4180.1a32.5,32.5,0,0,1-14.1,10.694c-1.744.712-3.838.952-5.276,2.267a5.619,5.619,0,0,0-1.592,3.657,9.07,9.07,0,0,0,.3,2.746c.988,4.112,2.81,6.492,5.084,10.944.069.135.149.173.265.129.14-.054-.052-.631-.039-.588l-2.583-8.559-.6-1.415a6.458,6.458,0,0,1-.229-2.475,4.2,4.2,0,0,1,.6-1.85,4.307,4.307,0,0,1,.63-.906,1.5,1.5,0,0,1,1.255-.807,52.154,52.154,0,0,0,5.633-2.285,25.692,25.692,0,0,0,2.662-1.551,49.335,49.335,0,0,0,5.387-4.3c1.9-1.738,1-.789,2.892-3.479.128-.184-.079-.959-.1-1.118A9.689,9.689,0,0,1,3564.239,4180.1Z" fill="#b2aaa6" opacity="0.109"/>
        <path id="Trazado_117248" data-name="Trazado 117248" d="M3557.365,4178.042c-3.562,3.172-6.958,6.762-11.154,9.051a53.984,53.984,0,0,1-9.291,3.928l1.39-.228c-1.314.127-2.04-.116-2.866.844a6.131,6.131,0,0,0-1.237,3.06,6.38,6.38,0,0,0,.19,2.652c.973,3.874,3.86,7.877,5.64,11,.082.144.735-.912.713-.877.1-.165.6-.777.467-1.031a40.342,40.342,0,0,1-4.14-8.054,8.874,8.874,0,0,1-.659-2.013l.759-3.51a24.884,24.884,0,0,1,1.709-1.862l-1.555.318a11.463,11.463,0,0,0,6.335-1.67,40.669,40.669,0,0,0,5.451-3.288c2.951-2.2,3.867-3.759,6.892-6.536C3556.552,4179.33,3556.821,4178.526,3557.365,4178.042Z" fill="#b2aaa6" opacity="0.109"/>
        <path id="Trazado_117249" data-name="Trazado 117249" d="M3560.794,4175.875a10.441,10.441,0,0,1-2.856,3.8,17.9,17.9,0,0,1-2.922,2.453,16.436,16.436,0,0,1-4.339,2.543,15.959,15.959,0,0,1-4.807,1.873l-2.526.4a1.662,1.662,0,0,0-.828.086,3.629,3.629,0,0,0-1.6,1.186,8.306,8.306,0,0,0-2,4.411,10.99,10.99,0,0,0,.3,3.234,88.16,88.16,0,0,0,3.486,9.6c.205.543.959.417,1.385.286.524-.16.878-.453.7-1.079l-2.8-9.821.1.691a25.259,25.259,0,0,1-.262-2.572,18.267,18.267,0,0,1,.16-2.2l-.161.648.441-1.482-.628,1.435q.649-1.108,1.273-2.232l-1,1.39.619-.5-.477.352a21.206,21.206,0,0,1,2.951-.932,31.014,31.014,0,0,0,7.169-2.993,28.175,28.175,0,0,0,4.8-3.443,30.19,30.19,0,0,1,3.146-3.446,11.345,11.345,0,0,0,2.908-3.879,7.755,7.755,0,0,1-1.119.077C3561.836,4175.76,3560.872,4175.755,3560.794,4175.875Z" fill="#b2aaa6" opacity="0.109"/>
        <path id="Trazado_117250" data-name="Trazado 117250" d="M3564.377,4183.257l-2.011,2.9.341-.426a63.424,63.424,0,0,1-6.338,4.952,11.015,11.015,0,0,1-4.19,2.012l-2.745,1.209c-1.768.71-3.668,1.011-5.182,2.2a5.231,5.231,0,0,0-1.6,3.578,6.891,6.891,0,0,0,.156,2.011l.285,1.095a19.833,19.833,0,0,0,4.255,10.822c.067.15,1.834-1.113,1.556-1.616a37.869,37.869,0,0,0-5.171-8.695l.828,1.567a6.121,6.121,0,0,1-.315-5.155q.492-.837.968-1.682a3.311,3.311,0,0,1,1.668-.912,23.987,23.987,0,0,0,4.172-1.67,18.707,18.707,0,0,0,5.627-3.773,50.681,50.681,0,0,0,4.984-4.086,37.624,37.624,0,0,0,2.57-3.983C3564.306,4183.478,3564.706,4182.784,3564.377,4183.257Z" fill="#b2aaa6" opacity="0.109"/>
        <path id="Trazado_117251" data-name="Trazado 117251" d="M3552.669,4184.944a24.4,24.4,0,0,1-4.526,4.12l-2.676,1.768a35.075,35.075,0,0,1-8.732,3.7,4.245,4.245,0,0,0-2.45,1.306,4.42,4.42,0,0,0-.888,2.023,9.382,9.382,0,0,0,.648,4.318c1.3,3.734,3.656,7.258,5.532,10.614.165.3.187.17.188-.065a4.515,4.515,0,0,0-.584-1.674q-2.079-3.844-4.159-7.689l-.754-3.557a3.79,3.79,0,0,1,1.5-2.533,4.43,4.43,0,0,1,1.266-.5,37.565,37.565,0,0,0,7.785-3.073,27.08,27.08,0,0,0,4.064-2.517,24.477,24.477,0,0,0,4.527-4.121,5.081,5.081,0,0,0-.355-1.064A11.031,11.031,0,0,1,3552.669,4184.944Z" fill="#b2aaa6" opacity="0.109"/>
      </g>
      <g id="Grupo_61074" data-name="Grupo 61074">
        <path id="Trazado_117252" data-name="Trazado 117252" d="M3577.854,4180.49l1.227-3.537a50.5,50.5,0,0,1,2.446-4.773,87.482,87.482,0,0,1,4.84-7.7c1.39-1.979,2.778-3.992,4.281-5.887a8.906,8.906,0,0,1,2.479-2.335l-1.479.569c2.439-.822,3.76,2.138,3.412,4.036a13.608,13.608,0,0,1-1.892,4.18,18.676,18.676,0,0,0-1.608,3.688c-2.915,9.219,1.122,18.547,4.821,26.9.151.342,2.229-.489,2.112-.753-4.146-9.366-8.889-20.526-3.283-30.436.838-1.481,1.892-3.037,1.987-4.786.085-1.565-.713-3.449-2.432-3.734a4.314,4.314,0,0,0-2.187.407,8.241,8.241,0,0,0-2.193,1.018,7.273,7.273,0,0,0-1.3,1.3c-1.35,1.622-2.539,3.378-3.765,5.1-1.765,2.471-3.5,4.976-5.021,7.609l-1.76,3.155a29.06,29.06,0,0,0-2.783,6.762,5.208,5.208,0,0,1,1.053-.387A4.568,4.568,0,0,0,3577.854,4180.49Z" fill="#b2aaa6" opacity="0.109"/>
        <path id="Trazado_117253" data-name="Trazado 117253" d="M3571.972,4181.786a21.326,21.326,0,0,1,2.177-6.667,67.352,67.352,0,0,1,3.3-6.4c1.844-3.078,3.9-6,6.03-8.887a40.959,40.959,0,0,1,3.1-4.079c1.106-1.138,3.288-2.2,4.068.348l-.071-.886.05,1.442.161-.874a13.367,13.367,0,0,0-.542,2.644,11.576,11.576,0,0,1-1.024,2.451l1.116-1.129a5.135,5.135,0,0,0-2.725,3.738l-.685,2.363a30.859,30.859,0,0,0-.942,7.86q0,1.361-.011,2.72a25.69,25.69,0,0,0,.648,4.168,62.455,62.455,0,0,0,3.367,10.216,1.7,1.7,0,0,0,1.549.952c.441-.1,1.118-1.05.928-1.51-.981-2.378-1.954-4.75-2.748-7.2a37.45,37.45,0,0,1-2.084-9.266,23.377,23.377,0,0,1,2.579-11.726c.9-1.734.214-.371.739-2.437.205-.806.521-1.591.672-2.412a4,4,0,0,0,.013-1.941,4.7,4.7,0,0,0-.95-1.641c-1.641-1.85-4.07-1.062-5.595.441a22.538,22.538,0,0,0-2.09,2.709c-1.66,2.263-3.286,4.571-4.8,6.935-1.3,2.035-2.535,4.1-3.663,6.238a48.783,48.783,0,0,0-2.279,4.952,15.788,15.788,0,0,0-1.469,4.967c-.049.208.473.855.549.979A10.718,10.718,0,0,1,3571.972,4181.786Z" fill="#b2aaa6" opacity="0.109"/>
        <path id="Trazado_117254" data-name="Trazado 117254" d="M3575.235,4167.115a71.492,71.492,0,0,1,3.287-6.451c1.544-2.609,3.266-5.116,5.034-7.576,1.143-1.592,2.283-3.2,3.5-4.736a8.592,8.592,0,0,1,2.207-1.993l-1.786.78c2.721-.913,4.082,1.787,3.777,3.979a10.987,10.987,0,0,1-1.539,3.648,19.324,19.324,0,0,0-1.578,3.22c-3.6,9.468.68,19.432,4.5,28.062.124.28,2.181-.613,2.064-.877-3.554-8.025-7.444-16.909-5.189-25.855l2.194-5.3a13.421,13.421,0,0,0,.977-1.872,5.878,5.878,0,0,0,.68-2.822c-.122-1.359-.891-3.119-2.461-3.29a7.02,7.02,0,0,0-3.973,1.331,13.481,13.481,0,0,0-3.292,3.662c-1.81,2.437-3.592,4.9-5.249,7.441l-1.929,3.07a50.209,50.209,0,0,0-3.288,6.449,5,5,0,0,1,1.039-.423C3574.315,4167.52,3575.161,4167.274,3575.235,4167.115Z" fill="#b2aaa6" opacity="0.109"/>
        <path id="Trazado_117255" data-name="Trazado 117255" d="M3574.771,4183.967l.592-3.71-.051.231q1.871-3.381,3.458-6.9,1.446-3.114,3.172-6.082c1.81-3.048,3.808-5.97,5.9-8.829a37.345,37.345,0,0,1,3.185-4.12,3.183,3.183,0,0,1,1.588-1,6.2,6.2,0,0,1,1.824.536l-1.1-.88,1.106,1.371-.381-.8.768,2.068-.22-1.759-.2,2.133.466-1.329a5.015,5.015,0,0,1-1.343,2.5,3.8,3.8,0,0,0-.646,1.211,19.327,19.327,0,0,0-.864,7.68,50.81,50.81,0,0,0,1.405,9.631,88.464,88.464,0,0,0,4,11.467.863.863,0,0,0,1,.291,1.343,1.343,0,0,0,.733-.9,8.544,8.544,0,0,0,.724-1.968,10.763,10.763,0,0,0,.51-2.6,138.515,138.515,0,0,1-3.8-13.707c-.24-1.106-.577-2.18-.832-3.28q-.1-.758-.257-1.5a6.524,6.524,0,0,0-.534-1.632l.15.463a7.75,7.75,0,0,1-.089-3.3q.327-.965.655-1.93a4.183,4.183,0,0,0-.4-3.1,3.8,3.8,0,0,0-2.82-2.187c-2.016-.162-3.44,1.529-4.534,3a117.708,117.708,0,0,0-8.113,12.036,66.11,66.11,0,0,0-3.2,6.415,10.77,10.77,0,0,0-1.325,6.934l.192-1.94-.523,3.364c-.081.52-.12,1.05-.171,1.574C3574.811,4183.31,3574.738,4184.177,3574.771,4183.967Z" fill="#b2aaa6" opacity="0.109"/>
        <path id="Trazado_117256" data-name="Trazado 117256" d="M3578.929,4167.387a77.629,77.629,0,0,1,5.241-9.526c1.67-2.536,3.437-5,5.247-7.44a21.653,21.653,0,0,1,2.227-2.81,3.88,3.88,0,0,1,2.9-1.29l-1.878-.521c2.465.839,2.5,3.4,1.836,5.384a29.541,29.541,0,0,1-1.9,3.612,20.408,20.408,0,0,0-1.8,5.27c-1.694,8.7,1.97,17.088,5.414,24.865.138.314,1.218.467,1.5.53.07.016.744.218.6-.115-2.4-5.425-4.807-10.888-5.592-16.835a23.779,23.779,0,0,1,1.119-11.051c.854-2.391,2.722-4.417,3.18-6.948a3.945,3.945,0,0,0-1.306-3.71,6.57,6.57,0,0,0-2.412-.941,3.335,3.335,0,0,0-2.055-.029c-1.787.6-2.935,2.552-3.986,3.968-1.807,2.436-3.593,4.893-5.246,7.438a81.793,81.793,0,0,0-5.241,9.522C3576.812,4166.685,3578.863,4167.526,3578.929,4167.387Z" fill="#b2aaa6" opacity="0.109"/>
        <path id="Trazado_117257" data-name="Trazado 117257" d="M3570.726,4172.854a48.118,48.118,0,0,1,3.261-6.407q1.885-3.121,3.978-6.107t4.294-5.877a12.391,12.391,0,0,1,1.15-1.357,3.632,3.632,0,0,1,2.974-1.307c1.858.277,2.488,2.314,2.4,3.957l.281-1.929c-.7,2.549-2.256,4.635-3.211,7.074a24.892,24.892,0,0,0-1.4,6.808c-.755,8.2,2.465,15.734,5.717,23.079.164.37.348-.586.332-.5a3.3,3.3,0,0,0,.122-1.582c-1.059-2.391-2.116-4.779-3.043-7.225a29.939,29.939,0,0,1-1.033-2.955,20.163,20.163,0,0,1-1.008-4.028,19.855,19.855,0,0,1-.721-4.783l1.829-8.891c.4-.8.89-1.569,1.3-2.371a11.041,11.041,0,0,0,1.213-5.438,4.131,4.131,0,0,0-1-2.631,2.662,2.662,0,0,0-3.44-.3,6.261,6.261,0,0,0-1.32,1.139,48.1,48.1,0,0,0-3.015,3.937q-2.153,2.947-4.169,5.986a51.4,51.4,0,0,0-2.82,4.665,36.527,36.527,0,0,0-2.385,4.827C3570.716,4171.281,3571.024,4172.21,3570.726,4172.854Z" fill="#b2aaa6" opacity="0.109"/>
        <path id="Trazado_117258" data-name="Trazado 117258" d="M3579.357,4171.778a136.665,136.665,0,0,1,8.527-12.353c1-1.272,2.053-2.282,3.785-2.321l-2.064-.5a3.143,3.143,0,0,1,2.261,2.34,4.753,4.753,0,0,1-.078,2.454,13.613,13.613,0,0,1-1.4,3.025,20.186,20.186,0,0,0-2.234,5.292c-2.114,9.065,1.617,17.745,5.223,25.89.127.287,1.266.409,1.519.458.075.014.718.2.583-.107-2.381-5.376-4.881-10.921-5.591-16.821a22.691,22.691,0,0,1,1.1-10.989,27.414,27.414,0,0,1,1.576-3.188,13.543,13.543,0,0,0,1.4-3.027,4.01,4.01,0,0,0-1.085-4.286,4.337,4.337,0,0,0-1.726-.714,6.571,6.571,0,0,0-2.367-.341,4.892,4.892,0,0,0-2.811,1.963,115.892,115.892,0,0,0-8.8,12.706C3577.295,4171.062,3579.228,4171.985,3579.357,4171.778Z" fill="#b2aaa6" opacity="0.109"/>
        <path id="Trazado_117259" data-name="Trazado 117259" d="M3578.234,4179.783a69,69,0,0,0,2.52-6.837,51.022,51.022,0,0,1,3.341-6.4,123.329,123.329,0,0,1,7.15-10.528c.967-1.307,2-3.054,3.535-3.776,1.888-.89,3.5.444,3.812,2.435l-.161-1.4-.472,1.979-.634,1.191a18.311,18.311,0,0,1-1.078,1.669,4.034,4.034,0,0,0-.776,1.493,23.556,23.556,0,0,0-1.746,7.686,33.749,33.749,0,0,0,.248,6.594c.71,5.132,2.986,10.084,5.011,14.806a2.351,2.351,0,0,0,1.583.8.585.585,0,0,0,.422-.838c-1.222-2.85-2.487-5.717-3.445-8.67-.622-1.92-1.111-3.851-1.577-5.813a20.665,20.665,0,0,1,.063-10.011l.547-2.035q.509-1.132.931-2.3c.324-.874.84-1.655,1.126-2.548a7.719,7.719,0,0,0,.27-1.827,9.971,9.971,0,0,0-.357-3.122,3.628,3.628,0,0,0-1.655-2.316c-1.436-.665-2.736.011-3.785,1.033a13.234,13.234,0,0,0-1.21,1.424c-1.847,2.4-3.6,4.879-5.3,7.388a72.231,72.231,0,0,0-4.708,7.76l-1.538,3.238q-1.061,3.406-2.416,6.705a3.078,3.078,0,0,0,.108,1.117A5.393,5.393,0,0,1,3578.234,4179.783Z" fill="#b2aaa6" opacity="0.109"/>
        <path id="Trazado_117260" data-name="Trazado 117260" d="M3571.652,4171.9q2.184-4.8,4.687-9.447,2.752-4.511,5.906-8.754c1.085-1.453,3.352-5.517,6.026-4.055a3.456,3.456,0,0,1,1.5,2.1c.643,2.4-1.053,4.465-2.085,6.449a22.769,22.769,0,0,0-2.078,13.233c.717,5.957,3.1,11.331,5.486,16.76.1.239,1.806-1.054,1.556-1.615-2.69-6.022-5.408-12.284-5.779-18.958a22.111,22.111,0,0,1,2.752-11.861c.795-1.449,1.744-3.076,1.668-4.8a3.444,3.444,0,0,0-2.062-3.231c-2.218-.749-3.97,1.628-5.138,3.142-2.086,2.7-4.079,5.483-5.987,8.314a81.392,81.392,0,0,0-4.7,7.762c-1.088,2.08-2.1,4.479-3.081,6.615-.1.221.467-.494.384-.388A7.384,7.384,0,0,0,3571.652,4171.9Z" fill="#b2aaa6" opacity="0.109"/>
        <path id="Trazado_117261" data-name="Trazado 117261" d="M3574.813,4175.889l.981-3.745,1.314-3.183,1.554-3.212,1.39-3.438.848-1.178q1.443-2.313,3-4.551c1.1-1.615,2.265-3.185,3.417-4.767a9.388,9.388,0,0,1,1.14-1.325,1.784,1.784,0,0,1,1.287-.638,1.734,1.734,0,0,1,1.285-.323c.795.046.853.374,1.149,1.13a1.394,1.394,0,0,1,.252,1.379,4.322,4.322,0,0,1-.432,1.511c-.54,1.3-1.353,2.487-1.794,3.824a27.525,27.525,0,0,0-1.414,6.053c-.7,7.445,2.167,14.622,4.947,21.364a1.081,1.081,0,0,0,1.743.5c.714-.564.211-1.974-.057-2.644a70.119,70.119,0,0,1-3.814-11.274l-.688-5.707a17.447,17.447,0,0,1,.238-3.021,9.89,9.89,0,0,1,1.077-3.707,19.285,19.285,0,0,1,1.187-3.263,9.949,9.949,0,0,0,1.2-4.913,4,4,0,0,0-1.6-2.871,3.556,3.556,0,0,0-2.716-.538,5.993,5.993,0,0,0-2.5,1.991c-.95,1.156-1.791,2.412-2.672,3.62-1.972,2.7-3.847,5.393-5.544,8.274a19.071,19.071,0,0,1-2.239,3.471,8.764,8.764,0,0,0-1.7,2.842,30.219,30.219,0,0,0-1.434,3.2,20.7,20.7,0,0,0-1.638,5.337c-.009.035,1.146-.05,1.121-.048C3573.733,4176.037,3574.78,4176.014,3574.813,4175.889Z" fill="#b2aaa6" opacity="0.109"/>
        <path id="Trazado_117262" data-name="Trazado 117262" d="M3578.218,4180.587q2.513-6.355,5.529-12.5a109.735,109.735,0,0,1,8.01-11.511,5.484,5.484,0,0,1,1.844-1.571l1.509-.263c1.51.093,2.364,1.923,2.43,3.2.106,2.051-1.361,3.827-2.288,5.56a16.4,16.4,0,0,0-1.827,6.569,27.461,27.461,0,0,0,.1,4.507,6.885,6.885,0,0,0,.216,3.507,71.252,71.252,0,0,0,4.7,13.333,3.857,3.857,0,0,0,1.062,1.179c-.1-.088.761.571.587.174a53.947,53.947,0,0,1-4.782-13.35,33.307,33.307,0,0,0-1.289-4.587l.294,1.377a54.051,54.051,0,0,1-.05-5.552,36.164,36.164,0,0,1,1.062-6.405l-.4,1.35c.82-1.857,1.7-3.69,2.669-5.47a13.594,13.594,0,0,0,.736-1.542,5.272,5.272,0,0,0,.3-3.324,3.153,3.153,0,0,0-1.915-2.278,2.976,2.976,0,0,0-2.8.6,11.626,11.626,0,0,0-1.935,2.067c-2.3,2.967-4.465,6.074-6.528,9.206-1.257,1.909-2.407,3.882-3.529,5.873a41.93,41.93,0,0,0-2.472,4.9,15.07,15.07,0,0,0-.593,1.8,48.948,48.948,0,0,1-1.846,5.038C3577.276,4181.806,3577.94,4181.27,3578.218,4180.587Z" fill="#b2aaa6" opacity="0.109"/>
        <path id="Trazado_117263" data-name="Trazado 117263" d="M3571.654,4175.278a48.924,48.924,0,0,1,3.256-6.383q1.884-3.125,3.977-6.113c1.558-2.213,3.094-4.51,4.84-6.574a6.364,6.364,0,0,1,1.981-1.7c1.717-.808,3.095.1,3.787,1.892l-.621-1.848a2.964,2.964,0,0,1-.046,1.974,4.877,4.877,0,0,1-.746,2.28c-.6,1.144-1.258,2.232-1.787,3.412a21.877,21.877,0,0,0-1.746,10.008c.339,7.329,3.471,14.242,6.394,20.843.146.33.271.122.273-.095a4.827,4.827,0,0,0-.584-1.674c-2.019-4.558-4.085-9.173-4.886-14.137a13.948,13.948,0,0,1-.271-3.259,16.533,16.533,0,0,1,.108-4.377,22.007,22.007,0,0,1,1.056-4.292,27.638,27.638,0,0,1,1.852-3.72,7.714,7.714,0,0,0,1.286-4.065,8.5,8.5,0,0,0-.637-2.417,5.871,5.871,0,0,0-1.066-2.092,2.659,2.659,0,0,0-3.1-.55,5.261,5.261,0,0,0-1.678,1.363,46.84,46.84,0,0,0-3.014,3.942c-1.428,1.968-2.828,3.955-4.166,5.986a72.547,72.547,0,0,0-5.2,9.477c-.073.155.318.961.354,1.064A5.538,5.538,0,0,1,3571.654,4175.278Z" fill="#b2aaa6" opacity="0.109"/>
      </g>
      <g id="Grupo_61075" data-name="Grupo 61075">
        <path id="Trazado_117264" data-name="Trazado 117264" d="M3597.261,4180.674c-.491,3.805-1.783,7.41-2.443,11.185,0-.01,1.058-.4,1.05-.4.073-.031.986-.322,1.014-.481.659-3.775,1.957-7.383,2.441-11.19a8.266,8.266,0,0,1-1.036.43A4.936,4.936,0,0,0,3597.261,4180.674Z" fill="#b2aaa6" opacity="0.109"/>
        <path id="Trazado_117265" data-name="Trazado 117265" d="M3595.073,4183.547c-.517,3.807-1.812,7.428-2.477,11.207a10.353,10.353,0,0,0-.236,1.757c0,.249.011.3.062.008.374-2.165.923-4.288,1.5-6.405a28.654,28.654,0,0,0,.7-3c.2-1.238.327-2.5.477-3.738C3595.126,4183.152,3595.056,4183.672,3595.073,4183.547Z" fill="#b2aaa6" opacity="0.109"/>
        <path id="Trazado_117266" data-name="Trazado 117266" d="M3597.743,4192.1c-.656,3.165-1.653,6.233-2.209,9.42a21.934,21.934,0,0,0,2.178.537c.555-3.184,1.551-6.252,2.207-9.414C3599.926,4192.615,3597.738,4192.13,3597.743,4192.1Z" fill="#b2aaa6" opacity="0.109"/>
        <path id="Trazado_117267" data-name="Trazado 117267" d="M3601.367,4186.943a47.875,47.875,0,0,1-1.159,8.127c-.32,1.251-.689,2.486-1.006,3.738a23.837,23.837,0,0,0-.665,4.773c0-.01,1.08-.356,1.066-.351a4.592,4.592,0,0,0,1.047-.4,24.083,24.083,0,0,1,.429-3.842c.336-1.573.844-3.109,1.242-4.666a48.511,48.511,0,0,0,1.161-8.123c0,.037-1.068.362-1.063.36A5.57,5.57,0,0,0,3601.367,4186.943Z" fill="#b2aaa6" opacity="0.109"/>
        <path id="Trazado_117268" data-name="Trazado 117268" d="M3598.768,4175.2a29.712,29.712,0,0,0-1.321,5.213c-.322,1.887-.242,3.667-.405,5.562a69.845,69.845,0,0,1-1.519,7.321c-.375,1.932-.788,3.83-1.012,5.788-.042.367.58,1.107.762,1.389-.049-.076.409.7.417.382a22.635,22.635,0,0,1,.259-3.814q.563-1.839,1.175-3.661c.3-1.006.525-1.917.739-2.922a47.847,47.847,0,0,0,.521-6.326,27.135,27.135,0,0,1,1.568-7.027c.061-.17-.5-.889-.553-.977C3599.4,4176.125,3598.758,4175.229,3598.768,4175.2Z" fill="#b2aaa6" opacity="0.109"/>
        <path id="Trazado_117269" data-name="Trazado 117269" d="M3603.746,4173.593a29.5,29.5,0,0,0-1.191,3.4l-1.149,3.406a30.455,30.455,0,0,1-.645,5.411,26.868,26.868,0,0,1-.752,4.454q-.235.927-.416,1.865-.2.969-.408,1.937a12.124,12.124,0,0,0-.385,2.977c-.037.43,1.869,1.683,1.952.9a53.286,53.286,0,0,1,1.086-6.024c.357-1.59.784-3.156,1.059-4.764a25.583,25.583,0,0,0,.329-3.213q.063-1.221.07-2.444a26.823,26.823,0,0,0-.7-4.5l-.217,2.114a13.387,13.387,0,0,1,1.2-3.4,5.559,5.559,0,0,0,.191-1.572C3603.759,4174.271,3603.846,4173.36,3603.746,4173.593Z" fill="#b2aaa6" opacity="0.109"/>
        <path id="Trazado_117270" data-name="Trazado 117270" d="M3601.032,4177.5q-.123,1.878-.388,3.744a34.426,34.426,0,0,1-.874,3.722q-.552,1.875-1,3.779a15.971,15.971,0,0,0-.43,3.76c-.009.178,2.162.465,2.154.626a15.961,15.961,0,0,1,.431-3.764q.444-1.905,1-3.78a34.454,34.454,0,0,0,.875-3.72q.267-1.854.382-3.723C3603.194,4177.979,3601.02,4177.641,3601.032,4177.5Z" fill="#b2aaa6" opacity="0.109"/>
        <path id="Trazado_117271" data-name="Trazado 117271" d="M3606.082,4172.813a13.091,13.091,0,0,0-1.137,3.423,4.547,4.547,0,0,0-.1,1.826c-.1,2.174-.226,4.241-.536,6.382a56.3,56.3,0,0,1-1.5,6.542,26.334,26.334,0,0,0-.81,3.768,9.285,9.285,0,0,0-.086,2.089,4.612,4.612,0,0,0,.236,1.757c.108.22.163.3.183-.024a17.816,17.816,0,0,1,.659-4.563q.342-1.418.766-2.811a42.366,42.366,0,0,0,.952-4.667c.218-1.525.4-3.054.548-4.587l.017-.18a11.442,11.442,0,0,1,1.095-6.731,3.281,3.281,0,0,0-.121-1.115A4.655,4.655,0,0,1,3606.082,4172.813Z" fill="#b2aaa6" opacity="0.109"/>
        <path id="Trazado_117272" data-name="Trazado 117272" d="M3596.574,4175.916a20.509,20.509,0,0,0-.5,2.548,9.546,9.546,0,0,0-.146,2.758,22.518,22.518,0,0,1-.465,4.572c-.353,1.574-.852,3.106-1.245,4.671a32.454,32.454,0,0,0-.922,5.745,8.542,8.542,0,0,1,.733-.851c.152-.2.609-.638.632-.929a31.332,31.332,0,0,1,.924-5.6c.407-1.561.887-3.1,1.234-4.679a23.068,23.068,0,0,0,.473-4.714l.016-1.9a28.286,28.286,0,0,1,.626-3.416c-.051.235-.559.721-.686.887C3597.1,4175.206,3596.632,4175.653,3596.574,4175.916Z" fill="#b2aaa6" opacity="0.109"/>
        <path id="Trazado_117273" data-name="Trazado 117273" d="M3600.641,4171.233a14.067,14.067,0,0,0-1.044,3.535l-.257,1.622c-.288,2.111-.229,4.253-.485,6.369a33.363,33.363,0,0,1-1.15,4.859q-.389,1.359-.7,2.737a23.533,23.533,0,0,0-.608,4.866c0-.03,2.163-.081,2.2-.429a44.968,44.968,0,0,1,1.089-6.1,48.4,48.4,0,0,0,1.4-6.125c.219-1.845.235-3.7.407-5.55a19.27,19.27,0,0,1,.333-2.452,14.193,14.193,0,0,1,1.044-3.537c.008-.02-1.143.051-1.121.049C3601.7,4171.085,3600.691,4171.1,3600.641,4171.233Z" fill="#b2aaa6" opacity="0.109"/>
        <path id="Trazado_117274" data-name="Trazado 117274" d="M3605.1,4177.753a12.978,12.978,0,0,0-1.082,3.4l-.1,1.876a17.633,17.633,0,0,1-.193,3.608q-.146,1.337-.339,2.668a41.457,41.457,0,0,1-1.235,5.627q-.41,1.391-.742,2.8a14.075,14.075,0,0,0-.407,3.828c-.011.286.455-.465.4-.386.218-.322.79-.949.812-1.36a16.01,16.01,0,0,1,.436-3.81l.473-1.871a54.3,54.3,0,0,0,1.483-6.57,39.567,39.567,0,0,0,.519-5.437,25.59,25.59,0,0,1,.1-2.866,13.228,13.228,0,0,1,1.075-3.4C3606.033,4176.54,3605.374,4177.069,3605.1,4177.753Z" fill="#b2aaa6" opacity="0.109"/>
        <path id="Trazado_117275" data-name="Trazado 117275" d="M3595.036,4184.053a16.774,16.774,0,0,1-.271,3.6,34.815,34.815,0,0,1-.931,3.786,40.218,40.218,0,0,0-1.443,7.556,3.9,3.9,0,0,0,.368,1.059,4.041,4.041,0,0,1,.374,1.057,39.973,39.973,0,0,1,1.435-7.553,36.848,36.848,0,0,0,.94-3.789,14.952,14.952,0,0,0,.252-3.6,4.269,4.269,0,0,0-.36-1.062A4.316,4.316,0,0,1,3595.036,4184.053Z" fill="#b2aaa6" opacity="0.109"/>
      </g>
      <g id="Grupo_61076" data-name="Grupo 61076">
        <path id="Trazado_117276" data-name="Trazado 117276" d="M3563.947,4143.143l-3.369,2.116a65.8,65.8,0,0,1-7.062,2.658q-4.5,1.683-9.055,3.245-5.992,2.166-12.144,3.846c-.573.175.268.164.391.15l7.889-.947a96.607,96.607,0,0,0,10.009-4.126c3.887-1.769,7.849-3.417,11.7-5.272a17.08,17.08,0,0,0,3.758-2.424,4.42,4.42,0,0,1-1.06.366A4.055,4.055,0,0,0,3563.947,4143.143Z" fill="#b2aaa6" opacity="0.109"/>
        <path id="Trazado_117277" data-name="Trazado 117277" d="M3563.245,4134.33a10.511,10.511,0,0,0-1.943,2.264,13.076,13.076,0,0,1-2.357,2.722,15.064,15.064,0,0,1-3.164,1.789l-13.675,6.837a42.92,42.92,0,0,1-13.959,3.853c-.465.089.411.557.374.539a3.065,3.065,0,0,0,1.526.443q3.4-.5,6.806-1.013a42.834,42.834,0,0,0,7.056-3.73c4.67-2.109,9.708-3.336,14.29-5.638a10.387,10.387,0,0,0,3.572-2.945,23.082,23.082,0,0,1,2.548-3.152C3564.441,4136.189,3563.124,4134.433,3563.245,4134.33Z" fill="#b2aaa6" opacity="0.109"/>
        <path id="Trazado_117278" data-name="Trazado 117278" d="M3558.967,4134.036a20.831,20.831,0,0,1-12.024,4.813q-8.258,3.059-16.587,5.919a6.508,6.508,0,0,0-1.372.793c.134-.089-.69.486-.384.408a60.655,60.655,0,0,0,11.662-3.258q1.542-.524,3.054-1.13c2.253-.893,4.765-1.8,7.067-2.833,3.726-1.668,7.46-3.03,10.646-5.6C3560.475,4133.6,3559.537,4133.586,3558.967,4134.036Z" fill="#b2aaa6" opacity="0.109"/>
        <path id="Trazado_117279" data-name="Trazado 117279" d="M3568.181,4132.674a10.183,10.183,0,0,0-1.879,1.9,2.188,2.188,0,0,1-.862.842,2.752,2.752,0,0,0-1.045,1.085,8.022,8.022,0,0,1-1.61,1.515q-.672.414-1.37.782a101.292,101.292,0,0,1-23.344,9.072c-.774.238-2.38.484-2.073,1.686.294,1.154,1.855.725,2.627.487q5.964-1.728,11.849-3.705l5.3-2.1c2.293-1.051,4.511-2.285,6.727-3.48a10.4,10.4,0,0,0,2.858-2.036,3.15,3.15,0,0,0,.756-1.011,3.784,3.784,0,0,1,1.837-2.8c.136-.108.127-1,.138-1.113A6.348,6.348,0,0,1,3568.181,4132.674Z" fill="#b2aaa6" opacity="0.109"/>
        <path id="Trazado_117280" data-name="Trazado 117280" d="M3562.684,4132.792a15.4,15.4,0,0,1-2.5,1.709,35.954,35.954,0,0,1-4.529,2.054q-4.851,2.157-9.861,3.923a64.146,64.146,0,0,0-13.782,4.239c-.285.1.63.234.516.214a4.673,4.673,0,0,0,1.576.171,62.644,62.644,0,0,0,13.664-3.8q5.068-1.81,9.96-4.051a42.989,42.989,0,0,0,4.611-2.128,15.127,15.127,0,0,0,2.495-1.708,8.339,8.339,0,0,1-1.07-.334C3563.7,4133.061,3562.795,4132.707,3562.684,4132.792Z" fill="#b2aaa6" opacity="0.109"/>
        <path id="Trazado_117281" data-name="Trazado 117281" d="M3556.75,4136.809a31.877,31.877,0,0,1-6.791,3.6q-4.879,2.22-9.949,3.976a51.858,51.858,0,0,1-13.758,4c-.21.048-.193,1.022-.2,1.109,0-.032-.094,1.169.033,1.127a112.542,112.542,0,0,1,13.75-4.052q3.331-1.142,6.576-2.516c3.469-1.42,7.038-2.7,10-5.02a3.945,3.945,0,0,0,.175-1.108A4.649,4.649,0,0,1,3556.75,4136.809Z" fill="#b2aaa6" opacity="0.109"/>
        <path id="Trazado_117282" data-name="Trazado 117282" d="M3558.55,4144.679c-1.892.929-3.811,1.749-5.752,2.582a145.655,145.655,0,0,1-23.552,7.916c-.213.05.639.365.713.391.324.116.984.484,1.337.362l13.683-4.151a93.7,93.7,0,0,0,9.921-3.919c1.964-.863,3.907-1.7,5.827-2.645a5.314,5.314,0,0,1-1.083-.291C3559.506,4144.89,3558.729,4144.59,3558.55,4144.679Z" fill="#b2aaa6" opacity="0.109"/>
        <path id="Trazado_117283" data-name="Trazado 117283" d="M3568.976,4133.442l-.663.876-.422.856-1.551,1.8a10.933,10.933,0,0,1-1.855,1.178c-1.548.844-3.207,1.527-4.808,2.25q-2.881,1.374-5.869,2.5a96.831,96.831,0,0,1-17.917,5.59c-.477.125-.073,2.317.276,2.225q5.611-1.357,11.161-2.941,5.148-1.734,10.113-3.94c2.234-1.013,4.5-2,6.7-3.108a10.709,10.709,0,0,0,3.572-2.52,7.382,7.382,0,0,0,.48-.811,5.217,5.217,0,0,1,1.088-1.733c.105-.136-.114-1.006-.128-1.114A5.807,5.807,0,0,1,3568.976,4133.442Z" fill="#b2aaa6" opacity="0.109"/>
        <path id="Trazado_117284" data-name="Trazado 117284" d="M3561.481,4132.288a28.119,28.119,0,0,1-4.383,3.722c-2.931,1.757-6.282,3.178-9.248,4.62l1.307-.524q-7.021,2.217-14.181,3.891a33.33,33.33,0,0,0-6.884,2.408c-.32.113-.608,1.146-.713,1.416,0,0-.331.717-.012.587l14.517-5.224q1.68-.512,3.31-1.171,2.917-1.05,5.829-2.11a16.188,16.188,0,0,0,4.268-1.765,20.045,20.045,0,0,0,4.754-4.127C3560.538,4133.462,3560.941,4132.789,3561.481,4132.288Z" fill="#b2aaa6" opacity="0.109"/>
        <path id="Trazado_117285" data-name="Trazado 117285" d="M3565.09,4130.342a6.7,6.7,0,0,0-1.447,1.623,7.977,7.977,0,0,1-1.211,1.668,7.245,7.245,0,0,1-2.531,1.76c-3.194,1.364-12.831,1.6-12.425,1.61q-2.729-.285-5.459-.535-5.351,3.362-10.427,7.138a1.468,1.468,0,0,0-.5,1.583,1.7,1.7,0,0,0,1.689.537,85.046,85.046,0,0,1,13.6-4.085l6.683-1.719a29.8,29.8,0,0,0,9.414-4.236,16.147,16.147,0,0,0,2.5-2.619,6.244,6.244,0,0,0,.906-1.3,6.973,6.973,0,0,1,1.446-1.629,4.279,4.279,0,0,1-1.117.1C3566.077,4130.244,3565.223,4130.216,3565.09,4130.342Z" fill="#b2aaa6" opacity="0.109"/>
        <path id="Trazado_117286" data-name="Trazado 117286" d="M3569.25,4136.445c-.466.6-.868,1.142-1.272,1.774-.555.867-.93,1.712-1.461,2.629l1.07-1.629a9.947,9.947,0,0,1-2.31,1.744,22.933,22.933,0,0,1-2.672,1.266q-6.426,2.577-12.781,5.326a66.147,66.147,0,0,1-13.969,4.21c-.413.1-.892.792-1.152,1.089.022-.026-.565.581-.219.541q5.534-.614,11.063-1.273,5.37-2.562,10.733-5.137a43.275,43.275,0,0,1,6.673-3.475,14.446,14.446,0,0,0,2.5-1.488,11.19,11.19,0,0,0,3.129-4.68l-1.144,1.791.6-.8C3568.482,4137.734,3568.793,4137.032,3569.25,4136.445Z" fill="#b2aaa6" opacity="0.109"/>
        <path id="Trazado_117287" data-name="Trazado 117287" d="M3556.62,4139.41a34.313,34.313,0,0,1-6.784,3.493q-4.819,2.2-9.835,3.905-6.781,2.356-13.756,4.061c-.143.038.5,2.182.733,2.119q6.975-1.709,13.761-4.062,5.016-1.709,9.835-3.9a34.293,34.293,0,0,0,6.785-3.494C3557.559,4141.382,3556.473,4139.516,3556.62,4139.41Z" fill="#b2aaa6" opacity="0.109"/>
      </g>
      <g id="Grupo_61077" data-name="Grupo 61077">
        <path id="Trazado_117288" data-name="Trazado 117288" d="M3561.769,4130.6l-3.266,1.4,1.01-.332c-1.829.453-3.718.667-5.563,1.012a10.237,10.237,0,0,0-3.5,1.346c-.224.138.68-.142.541-.1a8.161,8.161,0,0,0,1.481-.56l.741-.428-1.826.681c1.329-.318,2.709-.374,4.043-.661.814-.175,1.645-.391,2.439-.643a44.311,44.311,0,0,0,6.009-2.477C3563.213,4130.163,3562.441,4130.28,3561.769,4130.6Z" fill="#b2aaa6" opacity="0.109"/>
        <path id="Trazado_117289" data-name="Trazado 117289" d="M3567.635,4116.238a31.243,31.243,0,0,1-4.3,5.656,23.96,23.96,0,0,1-6.644,4.656,31.667,31.667,0,0,1-7.109,2.358,4.057,4.057,0,0,1-1.66.346,2.246,2.246,0,0,0-1.506.428c-.079.039.784.848.762.828.037.035.734.79.878.7a3.6,3.6,0,0,1,1.332-.681,6.168,6.168,0,0,1,3.32-.333,19.018,19.018,0,0,0,6.222-2.252,25.14,25.14,0,0,0,5.584-4.145l1.634-1.755a20.059,20.059,0,0,0,2.558-3.839,5.97,5.97,0,0,0-.536-.985A6.4,6.4,0,0,1,3567.635,4116.238Z" fill="#b2aaa6" opacity="0.109"/>
        <path id="Trazado_117290" data-name="Trazado 117290" d="M3557.876,4120.9a29.444,29.444,0,0,1-6.817,1.8,9.143,9.143,0,0,0-1.815.329,15.663,15.663,0,0,0-2.618,1.216c-.156.086.32-.082.35-.094.489-.19.992-.388,1.462-.624l.76-.382-1.8.744c.952-.228,1.911-.343,2.878-.5a29.138,29.138,0,0,0,5.541-1.6C3556.514,4121.518,3557.176,4121.155,3557.876,4120.9Z" fill="#b2aaa6" opacity="0.109"/>
        <path id="Trazado_117291" data-name="Trazado 117291" d="M3572.571,4114.582a24.068,24.068,0,0,1-2.653,3.869q-1.705,1.665-3.531,3.2a29.265,29.265,0,0,1-5.516,3.424,20.835,20.835,0,0,1-6.066,1.8,4.848,4.848,0,0,0-2.39.773c-.441.3-.2,1.222-.06,1.614a.633.633,0,0,0,1,.387c1.058-.706,2.859-.69,3.98-.96a23.937,23.937,0,0,0,6.309-2.564,16.989,16.989,0,0,0,4.878-3.795l1.16-1.647a22.574,22.574,0,0,0,2.662-3.868,3.428,3.428,0,0,0,.138-1.113A4.588,4.588,0,0,1,3572.571,4114.582Z" fill="#b2aaa6" opacity="0.109"/>
        <path id="Trazado_117292" data-name="Trazado 117292" d="M3559.461,4120.552a30.679,30.679,0,0,1-7.155,1.832,5.5,5.5,0,0,0-2.094.667,9.991,9.991,0,0,1,1.065.354c.139.04.9.368,1.09.268l.737-.4q1.426-.267,2.859-.493a29.449,29.449,0,0,0,5.658-1.626,4.185,4.185,0,0,1-1.078-.31C3560.4,4120.807,3559.647,4120.484,3559.461,4120.552Z" fill="#b2aaa6" opacity="0.109"/>
        <path id="Trazado_117293" data-name="Trazado 117293" d="M3551.449,4125.282a35.384,35.384,0,0,1-4.984,1,5.147,5.147,0,0,0-2.053.67c-.13.071-.169,1.034-.179,1.107a10.343,10.343,0,0,1-.119,1.115,5.338,5.338,0,0,1,2.053-.669,34.706,34.706,0,0,0,4.969-1.008,6.368,6.368,0,0,0,.167-1.108S3551.411,4125.292,3551.449,4125.282Z" fill="#b2aaa6" opacity="0.109"/>
        <path id="Trazado_117294" data-name="Trazado 117294" d="M3552.083,4132.888q-1.587.274-3.187.438a2.888,2.888,0,0,0-1.6.643,5.093,5.093,0,0,1,1.085.28c.1.024.953.337,1.092.255a2.923,2.923,0,0,1,1.6-.642q1.6-.157,3.187-.439a4.376,4.376,0,0,1-1.086-.279A3.859,3.859,0,0,0,3552.083,4132.888Z" fill="#b2aaa6" opacity="0.109"/>
        <path id="Trazado_117295" data-name="Trazado 117295" d="M3572.421,4117.722a24.524,24.524,0,0,1-5.165,4.677,27.972,27.972,0,0,1-5.256,2.639,24.89,24.89,0,0,1-5.7,1.359l-.883.1a3,3,0,0,0-1.58.619c-.231.133-.016.984,0,1.131,0-.028.137,1.182.294,1.092a5.727,5.727,0,0,1,2.463-.721,26.176,26.176,0,0,0,5.7-1.359,24.739,24.739,0,0,0,5.253-2.639,27.71,27.71,0,0,0,5.169-4.678c.109-.123-.109-1.022-.121-1.115A7.942,7.942,0,0,1,3572.421,4117.722Z" fill="#b2aaa6" opacity="0.109"/>
        <path id="Trazado_117296" data-name="Trazado 117296" d="M3561.7,4118.788a23.091,23.091,0,0,1-10.365,5.091q-1.361.27-2.737.422a5.385,5.385,0,0,0-2.119.682,4.328,4.328,0,0,0-1,1.228c.077-.106-.49.655-.22.513a2.8,2.8,0,0,1,1.591-.548q1.555-.285,3.121-.517a28.112,28.112,0,0,0,3.38-1.018,26.041,26.041,0,0,0,7-4.065C3560.925,4120.134,3561.138,4119.227,3561.7,4118.788Z" fill="#b2aaa6" opacity="0.109"/>
        <path id="Trazado_117297" data-name="Trazado 117297" d="M3569.48,4112.25a23.4,23.4,0,0,1-2.616,3.871,22.992,22.992,0,0,1-3.28,3.1,25.378,25.378,0,0,1-3.876,2.719,24.206,24.206,0,0,1-4.307,1.791l1.572-.208a30.7,30.7,0,0,0-6.309.392,3.45,3.45,0,0,0-1.648.688c-.41.24,1.434,1.392,1.751,1.222a6.739,6.739,0,0,1,2.463-.7,11.627,11.627,0,0,0,4.3-1.453,18.352,18.352,0,0,0,3.249-1.314,26.541,26.541,0,0,0,5.83-4.011,18.566,18.566,0,0,0,2.489-2.434,23.251,23.251,0,0,0,2.615-3.877,5.836,5.836,0,0,1-1.117.1A4.68,4.68,0,0,0,3569.48,4112.25Z" fill="#b2aaa6" opacity="0.109"/>
        <path id="Trazado_117298" data-name="Trazado 117298" d="M3572.686,4120.881l-16.15,8.632c-.311.021-.62.056-.927.106a4.2,4.2,0,0,0-1.617.642c-.383.23-.686.937-.9,1.3.062-.106-.436.72-.142.551a3.663,3.663,0,0,1,2.383-.711,15.534,15.534,0,0,0,2.408-.368,22.175,22.175,0,0,0,4.455-1.4,25.877,25.877,0,0,0,6.009-3.544,23.744,23.744,0,0,0,3.262-3.327C3571.956,4122.209,3572.193,4121.429,3572.686,4120.881Z" fill="#b2aaa6" opacity="0.109"/>
        <path id="Trazado_117299" data-name="Trazado 117299" d="M3553.526,4127.028a28.874,28.874,0,0,1-6.737,1.748l-.878.1a3.169,3.169,0,0,0-1.61.627c-.172.1.789,2.089.736,2.118a5.926,5.926,0,0,1,2.489-.728,30.534,30.534,0,0,0,6.728-1.745C3554.279,4129.14,3553.519,4127.03,3553.526,4127.028Z" fill="#b2aaa6" opacity="0.109"/>
      </g>
      <path id="Trazado_117300" data-name="Trazado 117300" d="M3476.029,4066.183c24.253,4.839,49.337-3.736,73.948-1.305" fill="none" stroke="#b2aaa6" stroke-miterlimit="10" stroke-width="1"/>
    </g>
    <line id="Línea_521" data-name="Línea 521" x2="67.517" y2="68.618" transform="translate(3407.763 4061.272)" fill="none" stroke="#706f6f" stroke-miterlimit="10" stroke-width="1"/>
    <g id="Grupo_61079" data-name="Grupo 61079">
      <path id="Trazado_117301" data-name="Trazado 117301" d="M3384.37,4044.874l-.98,2.971h-1.261l3.207-9.442h1.471l3.221,9.442h-1.3l-1.008-2.971Zm3.1-.951-.925-2.719c-.21-.615-.351-1.176-.49-1.723h-.029c-.139.561-.294,1.135-.476,1.709l-.924,2.733Z" fill="#3a3a3a"/>
      <path id="Trazado_117302" data-name="Trazado 117302" d="M3391.327,4043.181c0-.8-.014-1.487-.056-2.116h1.079l.042,1.331h.056a2.033,2.033,0,0,1,1.877-1.485,1.391,1.391,0,0,1,.35.041v1.162a1.908,1.908,0,0,0-.42-.041,1.73,1.73,0,0,0-1.654,1.582,3.6,3.6,0,0,0-.055.574v3.616h-1.219Z" fill="#3a3a3a"/>
      <path id="Trazado_117303" data-name="Trazado 117303" d="M3395.961,4043.181c0-.8-.014-1.487-.056-2.116h1.078l.042,1.331h.057a2.033,2.033,0,0,1,1.877-1.485,1.385,1.385,0,0,1,.35.041v1.162a1.91,1.91,0,0,0-.42-.041,1.73,1.73,0,0,0-1.654,1.582,3.6,3.6,0,0,0-.055.574v3.616h-1.219Z" fill="#3a3a3a"/>
      <path id="Trazado_117304" data-name="Trazado 117304" d="M3406.212,4046c0,.7.014,1.317.056,1.85h-1.092l-.071-1.108h-.028a2.548,2.548,0,0,1-2.241,1.262c-1.065,0-2.339-.59-2.339-2.971v-3.963h1.232v3.754c0,1.287.393,2.157,1.513,2.157a1.736,1.736,0,0,0,1.737-1.75v-4.161h1.233Z" fill="#3a3a3a"/>
      <path id="Trazado_117305" data-name="Trazado 117305" d="M3414.094,4041.065c-.028.491-.056,1.036-.056,1.862v3.937c0,1.555-.308,2.506-.967,3.1a3.6,3.6,0,0,1-2.465.812,4.386,4.386,0,0,1-2.255-.56l.308-.94a3.806,3.806,0,0,0,1.989.534c1.261,0,2.186-.659,2.186-2.368v-.757h-.028a2.419,2.419,0,0,1-2.158,1.134,3.029,3.029,0,0,1-2.885-3.3c0-2.3,1.5-3.6,3.053-3.6a2.254,2.254,0,0,1,2.116,1.176h.028l.056-1.022Zm-1.275,2.674a1.722,1.722,0,0,0-.07-.558,1.775,1.775,0,0,0-1.723-1.3c-1.176,0-2.016.994-2.016,2.562,0,1.331.672,2.438,2,2.438a1.8,1.8,0,0,0,1.709-1.262,2.161,2.161,0,0,0,.1-.658Z" fill="#3a3a3a"/>
      <path id="Trazado_117306" data-name="Trazado 117306" d="M3419.832,4047.845l-.1-.856h-.042a2.523,2.523,0,0,1-2.073,1.01,1.932,1.932,0,0,1-2.073-1.947c0-1.639,1.457-2.535,4.076-2.522v-.14a1.4,1.4,0,0,0-1.541-1.569,3.384,3.384,0,0,0-1.765.5l-.28-.812a4.213,4.213,0,0,1,2.228-.6c2.073,0,2.577,1.414,2.577,2.774v2.535a9.561,9.561,0,0,0,.112,1.625Zm-.182-3.461c-1.344-.028-2.872.211-2.872,1.527a1.09,1.09,0,0,0,1.163,1.176,1.687,1.687,0,0,0,1.639-1.133,1.3,1.3,0,0,0,.07-.392Z" fill="#3a3a3a"/>
      <path id="Trazado_117307" data-name="Trazado 117307" d="M3422.658,4046.583a3.232,3.232,0,0,0,1.625.49c.9,0,1.317-.447,1.317-1.008,0-.587-.35-.91-1.261-1.246-1.219-.435-1.793-1.107-1.793-1.92a2.092,2.092,0,0,1,2.34-1.988,3.38,3.38,0,0,1,1.667.42l-.309.9a2.643,2.643,0,0,0-1.387-.393c-.728,0-1.134.42-1.134.924,0,.56.406.812,1.289,1.148,1.176.449,1.778,1.037,1.778,2.047,0,1.19-.924,2.029-2.535,2.029a3.867,3.867,0,0,1-1.9-.461Z" fill="#3a3a3a"/>
    </g>
  </g>
</svg>
