<svg xmlns="http://www.w3.org/2000/svg" xmlns:xlink="http://www.w3.org/1999/xlink" width="256" height="179" viewBox="0 0 256 179">
  <defs>
    <clipPath id="clip-path">
      <rect id="Rectángulo_7440" data-name="Rectángulo 7440" width="256" height="179" rx="9" transform="translate(718.516 1174.332)" fill="none"/>
    </clipPath>
  </defs>
  <g id="Grupo_60806" data-name="Grupo 60806" transform="translate(-718.516 -1174.332)">
    <rect id="Rectángulo_7440-2" data-name="Rectángulo 7440" width="256" height="179" rx="9" transform="translate(718.516 1174.332)" fill="#fff"/>
    <g id="Grupo_60825" data-name="Grupo 60825">
      <g id="Grupo_60824" data-name="Grupo 60824" clip-path="url(#clip-path)">
        <g id="Grupo_60823" data-name="Grupo 60823">
          <g id="Grupo_60822" data-name="Grupo 60822">
            <g id="Grupo_60806-2" data-name="Grupo 60806">
              <path id="Trazado_116380" data-name="Trazado 116380" d="M775.427,1423.051c-2.5-57.589-7.448-81.346.635-92.181,14.752-19.774,10.518-31.432,15.259-41.014.843-1.7,18.029-22.414,17.93-24.311-.158-3.025-1.195-5.967-4.2-6.347l-9.269,14.148,4.247-14.653s6.7-8.447,5.355-12.364-1.576-6.1-5.932-4.971c-3.231.835-1.687-6.2-9.742-3.951-3.567.995-30.478,24.952-26.214,19.688,18.791-23.194,9.712-28.544,9.712-28.544-14.8,13.674-29.559,32.77-29.559,32.77s-16.277,29.276-14.237,58.177c.853,12.087-10.942,100.4-10.942,100.4Z" fill="#ffa780"/>
            </g>
            <path id="Trazado_116381" data-name="Trazado 116381" d="M718.811,1238.54c1.6-.625,198.947-39.278,261.473-40.036l3.032,118.611s-67.453-5.026-118.232-15.587-111.4-29.688-123.15-22.777-7.966,27.374-23.123,27.753-29.937-12.126-29.937-12.126Z" fill="#e2dad3"/>
            <g id="Grupo_60810" data-name="Grupo 60810">
              <g id="Grupo_60807" data-name="Grupo 60807">
                <path id="Trazado_116382" data-name="Trazado 116382" d="M740.085,1295.369c-1.007-1.447,14.611-9.517,26.289-18.423s17.525-12.479,21.055-11.92,4.737,4.662,3.576,6.434-19.192,24.242-20.344,27.188-9.243,19.462-9.243,19.462S747.812,1306.469,740.085,1295.369Z" fill="#ffa780"/>
              </g>
              <g id="Grupo_60808" data-name="Grupo 60808">
                <path id="Trazado_116383" data-name="Trazado 116383" d="M758.11,1318.638l-.433-1c8.091-3.51,10.963-13.852,12.044-17.746.186-.669.326-1.168.433-1.442.659-1.685,6.369-8.766,11.892-15.614,3.96-4.912,8.449-10.478,8.757-11.3a4.659,4.659,0,0,0-.351-3.894,4.218,4.218,0,0,0-3.108-2.081c-3.578-.571-10.267,3.9-20.64,11.814-11.575,8.827-17.532,12.193-17.592,12.226l-.532-.949c.059-.032,5.962-3.37,17.465-12.142,12.523-9.55,17.943-12.578,21.469-12.024a5.353,5.353,0,0,1,3.879,2.609,5.7,5.7,0,0,1,.429,4.825c-.353.935-3.624,5.016-8.93,11.6-4.958,6.148-11.128,13.8-11.725,15.327-.1.254-.225.718-.4,1.338C769.65,1304.215,766.678,1314.92,758.11,1318.638Z" fill="#dd886b"/>
              </g>
              <g id="Grupo_60809" data-name="Grupo 60809">
                <path id="Trazado_116384" data-name="Trazado 116384" d="M790.69,1269.952a3.871,3.871,0,1,1-3.9-3.839A3.871,3.871,0,0,1,790.69,1269.952Z" fill="#f2d1c2"/>
              </g>
            </g>
            <path id="Trazado_116385" data-name="Trazado 116385" d="M725.253,1250.284s211.829-40.231,237.978-39.441" fill="none" stroke="#10afff" stroke-miterlimit="10" stroke-width="1" stroke-dasharray="20"/>
            <path id="Trazado_116386" data-name="Trazado 116386" d="M903.386,1300.007c-2.653-.758-78.267-23.269-91.326-26.154" fill="none" stroke="#10afff" stroke-miterlimit="10" stroke-width="1" stroke-dasharray="20"/>
            <g id="Grupo_60821" data-name="Grupo 60821">
              <g id="Grupo_60811" data-name="Grupo 60811">
                <path id="Trazado_116387" data-name="Trazado 116387" d="M929.219,1243.247s-29.132-3.774-32.088-1.931-23.456,32.412-23.456,32.412,2.756,4.518,7.616,3.565,21.542-18.919,21.542-18.919l27.9-.252Z" fill="#dd886b"/>
              </g>
              <g id="Grupo_60812" data-name="Grupo 60812">
                <path id="Trazado_116388" data-name="Trazado 116388" d="M933.931,1244.979s-29.018.359-31.7,2.628-19.188,35.828-19.188,35.828,3.235,4.136,7.89,2.49,17.918-21.517,17.918-21.517l28.483-3.47Z" fill="#dd886b"/>
              </g>
              <g id="Grupo_60813" data-name="Grupo 60813">
                <path id="Trazado_116389" data-name="Trazado 116389" d="M928.34,1248.047s-16.853,2.884-19.2,5.25-15.666,33.99-15.666,33.99a6.622,6.622,0,0,0,7.418,1.025c4.2-2.109,15.306-21.341,15.306-21.341l15.25-3.887Z" fill="#dd886b"/>
              </g>
              <g id="Grupo_60814" data-name="Grupo 60814">
                <path id="Trazado_116390" data-name="Trazado 116390" d="M964.4,1286.988s-20.56-45.237-24.493-46.785c-3.951-1.552-36.033-13.852-40.626-12.857-3,.652-12.663,10.319-18.885,17.411-3.152,3.6-5.425,6.527-5.491,7.289a5.494,5.494,0,0,0,5.785,4.37c-3.066.725-5.715,5.429-5.156,6.982,1.466,4.042,25.221,24.594,28.114,35.677,1.721,6.538,19.821,17.677,29.014,20.644,5,1.614,62.988,71.414,62.988,71.414l42.162-38.2ZM921,1269.505c1.275,5.905-.761,10.385-4.462,9.972-3.682-.409-27.8-22.382-34.707-23.135a.688.688,0,0,0-.117-.007c.223-.028.45-.074.677-.12,5.171-1.119,18.774-11.852,18.774-11.852l17.517,8.832S919.63,1263.194,921,1269.505Z" fill="#ffa780"/>
              </g>
              <g id="Grupo_60815" data-name="Grupo 60815">
                <path id="Trazado_116391" data-name="Trazado 116391" d="M880.717,1256.423a3.352,3.352,0,0,1,.946-.084A8.481,8.481,0,0,1,880.717,1256.423Z" fill="#ffa780"/>
              </g>
              <g id="Grupo_60817" data-name="Grupo 60817">
                <g id="Grupo_60816" data-name="Grupo 60816">
                  <path id="Trazado_116392" data-name="Trazado 116392" d="M963.316,1380.218c-.313.2-1.051.278-2.73-.846-2.438-1.632-5.968-5.168-10.489-10.509-5.146-6.078-6.225-9.97-7.268-13.734-1.2-4.344-2.341-8.447-9.3-15.849-7.417-7.887-12.911-17.282-17.758-25.572-3.861-6.6-7.193-12.3-10.719-15.96-7.134-7.406-8.239-13.594-9.768-22.159-.215-1.209-.44-2.465-.691-3.78-2.086-10.909-3.606-14.371-7.072-16.107-1.244-.625-2.328,1.492-2.339,1.511l-.787-.4c.51-1.012,1.9-2.713,3.52-1.9,4.137,2.072,5.611,6.629,7.543,16.73.252,1.318.477,2.578.693,3.79,1.5,8.411,2.588,14.49,9.536,21.7,3.6,3.737,6.955,9.478,10.843,16.128,4.824,8.248,10.291,17.6,17.639,25.414,7.109,7.559,8.329,11.961,9.508,16.216,1.065,3.842,2.071,7.471,7.092,13.4,9.839,11.62,12.038,11.175,12.127,11.151l.488.722A.532.532,0,0,1,963.316,1380.218Z" fill="#45b7fe"/>
                </g>
              </g>
              <g id="Grupo_60818" data-name="Grupo 60818">
                <path id="Trazado_116393" data-name="Trazado 116393" d="M880.4,1244.757a5.191,5.191,0,0,1-1.788,6.661,4.949,4.949,0,0,1-3.7.628C874.973,1251.284,877.246,1248.353,880.4,1244.757Z" fill="#f2d1c2"/>
              </g>
              <path id="Trazado_116394" data-name="Trazado 116394" d="M885.64,1256.013a1.042,1.042,0,0,0-1.464.257l-21.393,31.337.505.151,22.581-30.276A1.042,1.042,0,0,0,885.64,1256.013Zm-.438,1.486-1.357,1.589a.331.331,0,0,1-.537-.384l1.066-1.8a.511.511,0,1,1,.828.592Z" fill="#d4c9b5"/>
              <g id="Grupo_60819" data-name="Grupo 60819">
                <path id="Trazado_116395" data-name="Trazado 116395" d="M891.143,1261.234c-.226,7.312,1.068,14.294,1.587,21.442-4.008-4.573-8.372-9.051-11.7-12.595a49.39,49.39,0,0,1-5.211-6.107,3.879,3.879,0,0,1-.282-.576c-.577-1.557,2.1-6.264,5.175-6.977a6.376,6.376,0,0,0,.953-.087,1.066,1.066,0,0,0,.166.008C883.806,1256.558,887.219,1258.528,891.143,1261.234Z" fill="#ffa780"/>
              </g>
              <g id="Grupo_60820" data-name="Grupo 60820">
                <path id="Trazado_116396" data-name="Trazado 116396" d="M885.325,1262.038a5.272,5.272,0,0,1-1.463,7.3,4.875,4.875,0,0,1-2.833.739,49.39,49.39,0,0,1-5.211-6.107,5.039,5.039,0,0,1,2.3-3.781A5.269,5.269,0,0,1,885.325,1262.038Z" fill="#f2d1c2"/>
              </g>
            </g>
          </g>
          <text id="Hilvanes_largos" data-name="Hilvanes largos" transform="translate(735.734 1201.012)" font-size="12" font-family="MyriadPro-Regular, Myriad Pro"><tspan x="0" y="0">Hilvanes largos</tspan></text>
          <text id="Hilvanar_por_las_marcas" data-name="Hilvanar por las marcas" transform="translate(792.17 1332.365)" font-size="12" font-family="MyriadPro-Regular, Myriad Pro"><tspan x="0" y="0">Hilvanar por las marcas</tspan></text>
          <line id="Línea_432" data-name="Línea 432" x2="5.52" y2="31.868" transform="translate(764.855 1205.156)" fill="none" stroke="#706f6f" stroke-miterlimit="10" stroke-width="1"/>
          <line id="Línea_433" data-name="Línea 433" x2="5.52" y2="31.868" transform="translate(852.202 1289.041)" fill="none" stroke="#706f6f" stroke-miterlimit="10" stroke-width="1"/>
        </g>
      </g>
    </g>
  </g>
</svg>
