<svg xmlns="http://www.w3.org/2000/svg" width="292" height="329" viewBox="0 0 292 329">
  <g id="Grupo_61180" data-name="Grupo 61180" transform="translate(-2135.698 -3324.711)">
    <rect id="Rectángulo_7597" data-name="Rectángulo 7597" width="292" height="329" rx="9" transform="translate(2135.698 3324.711)" fill="#fff"/>
    <path id="Trazado_117072" data-name="Trazado 117072" d="M2187.053,3599.989s2.094,22.678,8.873,26.5,12.427,2.694,12.427,2.694l-1.582-24.854-5.955-16.48Z" fill="#ffa780"/>
    <path id="Trazado_117073" data-name="Trazado 117073" d="M2315.327,3590.068l11.883,6.413s-.131,25.926-4.813,27.282-15.528,0-15.528,0,2.259-14.461,3.389-18.98S2315.327,3590.068,2315.327,3590.068Z" fill="#ffa780"/>
    <path id="Trazado_117074" data-name="Trazado 117074" d="M2210,3638.051a18.009,18.009,0,0,1,.046,5h42.928q1.869-7.174,3.739-14.35c.373,3.874,1.495,9.726,2.152,14.35h45.553a25.433,25.433,0,0,1,.771-3.743c3.469-9.216,6.954-18.489,8.761-28.168a9.539,9.539,0,0,0,.157-1.209c-3.677,2.3-7.34,4.751-11.388,6.1a46.088,46.088,0,0,1-9.685,1.74c-27.111,2.894-54.708,5.77-81.468.549a14.6,14.6,0,0,1-5.957-2.153c-1.914-1.4-3.08-3.6-4.8-5.237q1.133,4.531,2.5,9A174.381,174.381,0,0,0,2210,3638.051Z" fill="#36b1bf"/>
    <path id="Trazado_117075" data-name="Trazado 117075" d="M2234.585,3369.635q-23.662,10.466-46.7,22.273a8.953,8.953,0,0,0-2.6,1.749c-1.256,1.365-1.541,3.336-1.767,5.177q-1.455,11.825-2.909,23.65c-1.6,12.983-1,26.539-1.452,39.612-.227,6.622-.454,13.249-1.067,19.847-.493,5.3-1.236,10.594-1.385,15.92-.367,13.14,2.882,26.109,3.643,39.232.421,7.267.079,14.573.774,21.819,1.324,13.8,6.394,27.222,5.934,41.075A13.429,13.429,0,0,1,2194,3598c-.125,4.774.489,9.344.364,14.119a6,6,0,0,0,2.757,6.222c7.59,6.3,15.753,12.771,25.511,14.222a55.254,55.254,0,0,0,10.178.249l37.736-1.4c8.487-.315,17.034-.638,25.307-2.556s16.35-5.553,22.268-11.643c1.3-1.334-.592-3.084-.546-4.943a31.927,31.927,0,0,0-.174-3.539l-1-11.587-.718.292c2.787-.874,5.582.512,8.115,1.965a1.841,1.841,0,0,0,1.743.294c1.12-.63.4-3.014,1.671-3.217,2.182-22.109,5.126-44.259,7.308-66.368a53.1,53.1,0,0,0,.26-12.241c-.416-3.111-1.381-6.123-1.935-9.212a70.694,70.694,0,0,1-.792-11.447l-.271-18.122A138.6,138.6,0,0,1,2332.1,3464c.468-4.962,1.469-9.861,1.951-14.822,1.169-12.033-.734-24.129-2.631-36.068l-1.777-11.184a19.173,19.173,0,0,0-9.657-13.05c-4.72-2.4-10.068-3.2-15.11-4.82a48.008,48.008,0,0,1-14.224-7.384c-5.013-3.786-9.827-5.3-13.9-8.462-.4.148-.474-.2-.559.5a2.65,2.65,0,0,1-1.8,1.906c-13.22,5.045-28.431,6.7-40.381-.876C2235,3369.11,2234.877,3368.515,2234.585,3369.635Z" fill="#e1dbdd"/>
    <g id="Grupo_60986" data-name="Grupo 60986">
      <path id="Trazado_117076" data-name="Trazado 117076" d="M2187.226,3429.85a52.6,52.6,0,0,0-8.061-8.919,25.909,25.909,0,0,0,.562-3.839c-.078-.7-2.3-1.507-2.3-1.507a3.642,3.642,0,0,0,0-2.778c-.6-1.566-13.332-4.463-15.251-3.819-1.459.488-7.751,4.893-13.911,10.957-1.783,1.755-4.5,4.709-6.826,5.608-.179.069-4.791,8.245-5.747,8.981v19.886c7.969-6.178,13.9-10.662,13.925-10.724.157-.449,10.132,1.389,18.731-.642,3.8-.9,7.533-2.578,11.386-3.447a32.112,32.112,0,0,1,4.055-.629,1.2,1.2,0,0,1,.178-.02s1.535-3.364-1.372-4.513c-4.088-1.609-5.31-.029-12.659,1.408l-.391.049a16.618,16.618,0,0,1-1.954.033c-.319-.239-.449-1.154-.493-2.169a4.088,4.088,0,0,1,2.909-4.11l7.05-2.088s6.759,4.212,7.77,4.78c1.919,1.076,2.657.756,2.956.356.035-.048.067-.1.1-.149C2188.192,3431.929,2187.887,3430.959,2187.226,3429.85Z" fill="#ffa780"/>
      <g id="Grupo_60984" data-name="Grupo 60984">
        <path id="Trazado_116787" data-name="Trazado 116787" d="M2187.892,3432.554c-.055.065-.1.1-.1.116a1.382,1.382,0,0,1-.3-.089,2.269,2.269,0,0,1-1.4-1.535l1.156-1.195C2187.893,3430.951,2188.2,3431.92,2187.892,3432.554Z" fill="#f2d1c2"/>
      </g>
      <path id="Trazado_116788" data-name="Trazado 116788" d="M2179.156,3420.747c-1.08-.637-11.218.36-11.655.4a3.96,3.96,0,0,0-.237.393s11.072-.943,11.8-.515A1.315,1.315,0,0,0,2179.156,3420.747Z" fill="#dd886b"/>
      <path id="Trazado_116789" data-name="Trazado 116789" d="M2177.471,3415.472c.005-.022-11.618-2.62-11.618-2.62v.379l11.543,2.49A1.244,1.244,0,0,0,2177.471,3415.472Z" fill="#dd886b"/>
      <g id="Grupo_60985" data-name="Grupo 60985">
        <path id="Trazado_116790" data-name="Trazado 116790" d="M2179.664,3437.2a2.262,2.262,0,0,0,.071,2.419,32.083,32.083,0,0,1,4.056-.629,2.266,2.266,0,0,0-4.126-1.789Z" fill="#f2d1c2"/>
      </g>
    </g>
    <g id="Grupo_61029" data-name="Grupo 61029">
      <path id="Trazado_117077" data-name="Trazado 117077" d="M2316.736,3449.778c-2.875,10.49-5.984,20.947-8.534,31.522a96.031,96.031,0,0,0-2.575,16.009,113.516,113.516,0,0,0,.119,15.736c.767,10.768,2.67,21.406,4.274,32.069q2.427,16.134,4.113,32.366,1.93,18.576,2.884,37.236c.035.687,1.344.494,1.314-.094q-1.677-32.651-6.31-65.056c-3.057-21.308-7.878-42.886-3.408-64.358,1.239-5.952,2.936-11.8,4.542-17.662l4.9-17.863c.171-.623-1.156-.481-1.314.095Z" fill="#c6c1c3"/>
    </g>
    <g id="Grupo_61030" data-name="Grupo 61030">
      <path id="Trazado_117078" data-name="Trazado 117078" d="M2322.671,3565.4l-1.021,8.121a69.461,69.461,0,0,0-.823,8.028c-.021,2.562.826,4.978.951,7.519a76.017,76.017,0,0,1-.334,7.963c-.01.174,1.274.029,1.295-.347.147-2.569.436-5.178.343-7.752-.095-2.612-.98-5.1-.959-7.73a67.415,67.415,0,0,1,.8-7.809l1.048-8.34c.018-.146-1.247-.04-1.3.347Z" fill="#c6c1c3"/>
    </g>
    <g id="Grupo_61031" data-name="Grupo 61031">
      <path id="Trazado_117079" data-name="Trazado 117079" d="M2201.791,3476.442c1.906,9.044,1.686,18.308,1.176,27.485a269.815,269.815,0,0,0-.606,27.541c.422,9.136,1.209,18.334.095,27.453s-4.191,17.94-6.223,26.885c-2.269,9.988-3.738,20.215-2.733,30.464.063.638,1.361.316,1.3-.347-.909-9.267.268-18.57,2.192-27.637,1.909-8.995,4.93-17.782,6.418-26.859s.87-18.289.4-27.414c-.239-4.647-.423-9.294-.328-13.948.093-4.546.387-9.085.655-13.623.6-10.121,1.057-20.359-1.048-30.347-.135-.643-1.433-.3-1.3.347Z" fill="#c6c1c3"/>
    </g>
    <g id="Grupo_61032" data-name="Grupo 61032">
      <path id="Trazado_117080" data-name="Trazado 117080" d="M2193.9,3597.6a70.087,70.087,0,0,0-1.326-23.956c-.063-.275-1.3.032-1.295.347a98.814,98.814,0,0,1-.785,16.849c-.22,1.351-.5,2.694-.841,4.019-.233.894-1.011,2.291-.712,3.22.407,1.267,2.881.42,2.307-.532-.19-.315-1.4.176-1.3.347.372.617.3-.928.3-.941.1-.514.318-1.026.461-1.53.3-1.054.552-2.122.765-3.2a53.71,53.71,0,0,0,.8-5.76c.375-4.263.335-8.548.291-12.823l-1.295.347a70.111,70.111,0,0,1,1.325,23.956c-.018.155,1.25.042,1.3-.347Z" fill="#c6c1c3"/>
    </g>
    <g id="Grupo_61033" data-name="Grupo 61033">
      <path id="Trazado_117081" data-name="Trazado 117081" d="M2325.693,3438.276a46.044,46.044,0,0,0-6.941,9.735c-.118.221.453.162.525.151.236-.037.631-.133.756-.368a45.36,45.36,0,0,1,6.839-9.594c.2-.215-.177-.247-.314-.241a1.366,1.366,0,0,0-.865.317Z" fill="#c6c1c3"/>
    </g>
    <g id="Grupo_61034" data-name="Grupo 61034">
      <path id="Trazado_117082" data-name="Trazado 117082" d="M2316.067,3433.93a36.315,36.315,0,0,1,.068,14.786c-.108.534,1.2.336,1.3-.145a36.894,36.894,0,0,0-.073-14.988c-.1-.489-1.4-.162-1.3.347Z" fill="#c6c1c3"/>
    </g>
    <path id="Trazado_117083" data-name="Trazado 117083" d="M2234.735,3370.168c11.838,7.074,26.71,5.39,39.669.445a3.9,3.9,0,0,0,.812-.433,8.315,8.315,0,0,1,1-1.586c.079-.529.165-.247.542-.385h0s-5.143-16.361,3.333-29.2c0,0-15.4-8.595-42.366.652,0,0,4.3,15.71-1.864,28.552C2235.753,3368.438,2235.315,3369.189,2234.735,3370.168Z" fill="#ffa780"/>
    <g id="Grupo_61035" data-name="Grupo 61035">
      <path id="Trazado_117084" data-name="Trazado 117084" d="M2195.179,3395.635a21.205,21.205,0,0,0-.753,12.61,58.534,58.534,0,0,0,4.448,12.008c1.225,2.658,2.5,5.427,2.432,8.354a46.17,46.17,0,0,1-.968,5.721c-.289,1.915-.169,4.047,1.077,5.53" fill="none" stroke="#c6c1c3" stroke-miterlimit="10" stroke-width="0.5"/>
      <path id="Trazado_117085" data-name="Trazado 117085" d="M2203.089,3437.35c-1.08-6.023,2.955-11.816,3.187-17.931.1-2.527-.46-5.1.091-7.565a13.962,13.962,0,0,1,2.763-5.292,36.39,36.39,0,0,1,6.089-6.239c1.018-.819,2.524-1.583,3.524-.743" fill="none" stroke="#c6c1c3" stroke-miterlimit="10" stroke-width="0.5"/>
      <path id="Trazado_117086" data-name="Trazado 117086" d="M2281.7,3388.937c-3.966,4.785-8.146,10.15-8.037,16.363.052,2.923,1.069,5.729,1.666,8.59s.72,6.038-.845,8.506c-.681,1.073-1.688,2.376-.993,3.44" fill="none" stroke="#c6c1c3" stroke-miterlimit="10" stroke-width="0.5"/>
      <path id="Trazado_117087" data-name="Trazado 117087" d="M2291.029,3425.812c-.741-6.68,2.255-13.159,3.162-19.818a64.285,64.285,0,0,0,.15-11.789" fill="none" stroke="#c6c1c3" stroke-miterlimit="10" stroke-width="0.5"/>
      <path id="Trazado_117088" data-name="Trazado 117088" d="M2305.94,3397.615a58.862,58.862,0,0,0,.655,10.135,14.879,14.879,0,0,0,1.887,5.908,27.344,27.344,0,0,0,2.684,3.157,22.48,22.48,0,0,1,5.58,14.239" fill="none" stroke="#c6c1c3" stroke-miterlimit="10" stroke-width="0.5"/>
      <path id="Trazado_117089" data-name="Trazado 117089" d="M2271.737,3386.773a15.565,15.565,0,0,0-5.462,6.34,40.688,40.688,0,0,0-4.036,11.161c-.44,2.167-.7,4.367-1.179,6.526-1.128,5.1-3.45,10.381-1.8,15.338" fill="none" stroke="#c6c1c3" stroke-miterlimit="10" stroke-width="0.5"/>
      <path id="Trazado_117090" data-name="Trazado 117090" d="M2276.587,3397.144c-.249-.145-.451.256-.456.544-.039,2.451.856,4.809,1.287,7.222a35,35,0,0,1-.25,10.883,18.294,18.294,0,0,1-1.718,6.372,6.605,6.605,0,0,1-5.192,3.654" fill="none" stroke="#c6c1c3" stroke-miterlimit="10" stroke-width="0.5"/>
    </g>
    <g id="Grupo_61036" data-name="Grupo 61036" opacity="0.05">
      <path id="Trazado_117091" data-name="Trazado 117091" d="M2234.023,3369.737c.047.03.1.057.143.087.141-.062.279-.127.419-.189C2234.877,3368.514,2235,3369.11,2234.023,3369.737Z" fill="#3a3a3a"/>
      <path id="Trazado_117092" data-name="Trazado 117092" d="M2324.938,3392.724a17.814,17.814,0,0,0-4.949-3.85c-4.72-2.4-10.068-3.2-15.11-4.819a48.031,48.031,0,0,1-14.224-7.384c-5.013-3.786-9.827-5.3-13.9-8.462-.4.148-.474-.2-.559.5a2.65,2.65,0,0,1-1.8,1.906c-13.168,5.025-28.31,6.686-40.238-.789q-23.447,10.385-46.284,22.084a8.953,8.953,0,0,0-2.6,1.749,8.528,8.528,0,0,0-1.724,4.845c.046.807.095,1.644.084,2.554-.068,5.17-1.445,9.962-.569,15.2.641,3.826,2.121,7.486,2.6,11.335.477,3.792-.03,7.628-.154,11.448a57.24,57.24,0,0,0,1.582,15.328,1.74,1.74,0,0,0,.712,1.225,1.7,1.7,0,0,0,1.5-.225,22.28,22.28,0,0,0,7.931-6.857c2.182-3.063,3.713-6.81,6.906-8.8,3.737-2.327,8.528-1.517,12.9-2.036,9.48-1.126,17.546-8.721,27.092-8.64,4.554.038,9.095,1.86,13.569,1,4.555-.874,8.544-4.456,13.168-4.093,3.559.279,7,2.906,10.4,1.818,1.73-.555,3.16-2.031,4.975-2.124,2.454-.124,4.413,2.328,6.869,2.419a15.9,15.9,0,0,0,3.015-.5,14.1,14.1,0,0,1,4.559.277c5.5.94,11.111,1.921,15.98,4.636,1.834-1.3.275-4.354,1.232-6.39a10.318,10.318,0,0,1,2.059-2.291c1.785-1.946,2.007-4.886,1.534-7.484s-1.533-5.063-1.979-7.666a16.86,16.86,0,0,1,3.648-13.486A10.587,10.587,0,0,0,2324.938,3392.724Z" fill="#3a3a3a"/>
    </g>
    <g id="Grupo_60983" data-name="Grupo 60983">
      <g id="Grupo_60977" data-name="Grupo 60977">
        <path id="Trazado_116780" data-name="Trazado 116780" d="M2203.622,3453.911c2.256,5.631.869,12.943.869,12.943l-4.54.354a30.705,30.705,0,0,1-.987,3.016l-4.505-1.5.558-8.822s-8.806,1.68-10.7-1.308a1.765,1.765,0,0,1,.937-2.816s.64-.129,1.654-.3c-.408-1.5,1.284-2.062,1.284-2.062S2202.5,3451.1,2203.622,3453.911Z" fill="#dd886b"/>
      </g>
      <path id="Trazado_117093" data-name="Trazado 117093" d="M2210.145,3445.965c-.5-.665-.987-1.33-1.461-1.943-.306-.4-.6-.777-.887-1.126a17.867,17.867,0,0,0-2.068-2.3,1.091,1.091,0,0,0-.223-.141c-1.062-.4-2.493,1.757-2.16,3.937.367,2.413,3.7,6.886,3.7,6.886l-2.968,5.507a5.364,5.364,0,0,1-5.468,3.125c-3.78-.407-7.115-2.658-5.45-4.474,5.341-5.828,8.473-7.751,9.188-12.085.51-3.086-3.157-3.5-3.157-3.5a1.083,1.083,0,0,1-.116.146,31.936,31.936,0,0,1-2.627,3.157,41.954,41.954,0,0,1-8.588,6.408c-6.991,4.572-10.364,7.374-14.787,13.511-1.7,2.354-18.456,9.8-37.376,17.624v28.157c22.929-13.617,44.358-26.933,45.446-27.171,6.705-1.5,20.9-6.254,28.078-14.347,3.046-3.437,4.819-13.717,5.129-14.6C2214.508,3452.275,2212.369,3449.015,2210.145,3445.965Z" fill="#ffa780"/>
      <g id="Grupo_60978" data-name="Grupo 60978">
        <path id="Trazado_116782" data-name="Trazado 116782" d="M2208.03,3468.454s6.843-8.339,6.569-10.985-10.69-16.1-10.69-16.1-2.058-.2-2.083,3.037c-.029,3.921,5.1,13.758,5.1,13.758l-7.69,6.7Z" fill="#ffa780"/>
      </g>
      <g id="Grupo_60979" data-name="Grupo 60979">
        <rect id="Rectángulo_7654" data-name="Rectángulo 7654" width="8.683" height="0.294" transform="translate(2209.993 3462.827) rotate(-65.609)" fill="#dd886b"/>
      </g>
      <g id="Grupo_60980" data-name="Grupo 60980">
        <path id="Trazado_116783" data-name="Trazado 116783" d="M2203.555,3443.205a8.937,8.937,0,0,1,.21-1.871l.287.063c-1.163,5.289,3.059,9.733,3.1,9.776l.068.072-.04.091a31.159,31.159,0,0,1-2.233,4.441l-.175-.236a30.041,30.041,0,0,0,2.1-4.235A13.022,13.022,0,0,1,2203.555,3443.205Z" fill="#dd886b"/>
      </g>
      <g id="Grupo_60981" data-name="Grupo 60981">
        <path id="Trazado_116784" data-name="Trazado 116784" d="M2205.74,3444.185a2.266,2.266,0,0,1-.422-3.177,2.2,2.2,0,0,1,.411-.413,17.731,17.731,0,0,1,2.068,2.3C2206.943,3443.446,2206.152,3443.934,2205.74,3444.185Z" fill="#f2d1c2"/>
      </g>
      <g id="Grupo_60982" data-name="Grupo 60982">
        <path id="Trazado_116785" data-name="Trazado 116785" d="M2198.483,3444.456a2.261,2.261,0,0,1-2.037-1.306,31.8,31.8,0,0,0,2.627-3.157,2.266,2.266,0,0,1-.59,4.459Z" fill="#f2d1c2"/>
      </g>
    </g>
    <path id="Trazado_117094" data-name="Trazado 117094" d="M2179.752,3432.641l-.284,8.591,3.912.442,1.769-6.252-5.053-2.781Z" fill="#e1dbdd"/>
    <line id="Línea_521" data-name="Línea 521" x1="55.849" transform="translate(2278.944 3632.929)" fill="none" stroke="#706f6f" stroke-miterlimit="10" stroke-width="1"/>
    <line id="Línea_521-2" data-name="Línea 521" x1="55.849" transform="translate(2278.944 3500.569)" fill="none" stroke="#706f6f" stroke-miterlimit="10" stroke-width="1"/>
    <line id="Línea_521-3" data-name="Línea 521" x1="10.864" y2="58.991" transform="translate(2294.537 3367.146)" fill="none" stroke="#706f6f" stroke-miterlimit="10" stroke-width="1"/>
    <path id="Trazado_117460" data-name="Trazado 117460" d="M1.06-.923a17.8,17.8,0,0,0,2,.1,5.264,5.264,0,0,0,3.778-1.23,4.519,4.519,0,0,0,1.23-3.322,3.936,3.936,0,0,0-1.2-3.068A4.894,4.894,0,0,0,3.405-9.506a15.8,15.8,0,0,0-2.345.177Zm1.1-7.594a6.267,6.267,0,0,1,1.293-.114c2.333,0,3.474,1.28,3.461,3.3A3.285,3.285,0,0,1,3.279-1.709a6.965,6.965,0,0,1-1.116-.063ZM10.581-.9V-7.034H9.466V-.9Zm-.558-8.558a.68.68,0,0,0-.7.7A.663.663,0,0,0,10-8.073a.659.659,0,0,0,.71-.685A.662.662,0,0,0,10.023-9.455ZM12-1.189a3.5,3.5,0,0,0,1.724.418c1.458,0,2.295-.761,2.295-1.838,0-.913-.545-1.445-1.61-1.851-.8-.3-1.166-.532-1.166-1.04,0-.456.368-.837,1.027-.837a2.388,2.388,0,0,1,1.255.355l.279-.811a3.063,3.063,0,0,0-1.509-.38,1.893,1.893,0,0,0-2.117,1.8c0,.735.52,1.344,1.623,1.737.824.3,1.141.6,1.141,1.128,0,.507-.38.913-1.192.913a2.924,2.924,0,0,1-1.471-.444ZM17.453-.9h1.09V-4.6a1.538,1.538,0,0,1,.089-.545A1.525,1.525,0,0,1,20.014-6.26c.849,0,1.28.71,1.28,1.686V-.9h1.09V-4.688a1.837,1.837,0,0,1,.089-.558A1.444,1.444,0,0,1,23.792-6.26c.9,0,1.331.71,1.331,1.889V-.9h1.09V-4.511c0-2.13-1.2-2.662-2.016-2.662a2.094,2.094,0,0,0-1.357.431,2.528,2.528,0,0,0-.685.8h-.025a1.814,1.814,0,0,0-1.737-1.23,2.115,2.115,0,0,0-1.927,1.128h-.038l-.051-.989H17.4c.038.507.051,1.027.051,1.661Zm11.689,0V-7.034H28.026V-.9Zm-.558-8.558a.68.68,0,0,0-.7.7.663.663,0,0,0,.672.685.659.659,0,0,0,.71-.685A.662.662,0,0,0,28.584-9.455ZM30.993-.9h1.116V-4.587a1.6,1.6,0,0,1,.076-.52,1.585,1.585,0,0,1,1.5-1.141c1.052,0,1.42.824,1.42,1.813V-.9h1.116V-4.562c0-2.1-1.319-2.612-2.168-2.612A2.256,2.256,0,0,0,32.02-6.02h-.025l-.063-1.014h-.989c.038.507.051,1.027.051,1.661ZM43.164-7.034H42.048v3.765a1.632,1.632,0,0,1-.1.571,1.613,1.613,0,0,1-1.471,1.014c-1.014,0-1.369-.786-1.369-1.952v-3.4H37.991v3.588c0,2.155,1.154,2.688,2.117,2.688A2.309,2.309,0,0,0,42.137-1.9h.025l.063,1h.989c-.038-.482-.051-1.04-.051-1.674ZM46.131-.9V-7.034H45.015V-.9Zm-.558-8.558a.68.68,0,0,0-.7.7.663.663,0,0,0,.672.685.659.659,0,0,0,.71-.685A.662.662,0,0,0,45.573-9.455ZM47.982-.9h1.1V-4.169a3.14,3.14,0,0,1,.051-.52,1.565,1.565,0,0,1,1.5-1.433,1.676,1.676,0,0,1,.38.038V-7.135a1.207,1.207,0,0,0-.317-.038A1.841,1.841,0,0,0,49-5.829h-.051l-.038-1.2h-.976c.038.571.051,1.192.051,1.914ZM1.022,14.316H2.138v-9H1.022Zm7.4,0a8.64,8.64,0,0,1-.1-1.471V10.551c0-1.23-.456-2.51-2.333-2.51a3.808,3.808,0,0,0-2.016.545l.254.735a3.057,3.057,0,0,1,1.6-.456,1.265,1.265,0,0,1,1.395,1.42v.127c-2.371-.013-3.689.8-3.689,2.282a1.748,1.748,0,0,0,1.876,1.762,2.286,2.286,0,0,0,1.876-.913h.038l.089.773ZM7.247,12.25a1.164,1.164,0,0,1-.063.355A1.527,1.527,0,0,1,5.7,13.631a.987.987,0,0,1-1.052-1.065c0-1.192,1.382-1.407,2.6-1.382Zm5.566,2.067h1.116v-9H12.813ZM18.4,8.04A3,3,0,0,0,15.361,11.3,2.917,2.917,0,0,0,18.3,14.456,3,3,0,0,0,21.358,11.2,2.906,2.906,0,0,0,18.4,8.04Zm-.025.837c1.319,0,1.838,1.319,1.838,2.358,0,1.382-.8,2.383-1.864,2.383-1.09,0-1.864-1.014-1.864-2.358C16.489,10.094,17.06,8.877,18.378,8.877Zm4.387,5.439h1.1V11.045a3.14,3.14,0,0,1,.051-.52,1.565,1.565,0,0,1,1.5-1.433,1.676,1.676,0,0,1,.38.038V8.078a1.207,1.207,0,0,0-.317-.038,1.841,1.841,0,0,0-1.7,1.344h-.051l-.038-1.2h-.976c.038.571.051,1.192.051,1.914Zm3.563,0H31.31v-.887H27.722V13.4c.279-.317.532-.621.786-.964l2.738-3.563.013-.7H26.581v.9H29.9v.025c-.279.33-.532.621-.8.951L26.327,13.67Zm10.535,0a8.64,8.64,0,0,1-.1-1.471V10.551c0-1.23-.456-2.51-2.333-2.51a3.808,3.808,0,0,0-2.016.545l.254.735a3.057,3.057,0,0,1,1.6-.456,1.265,1.265,0,0,1,1.395,1.42v.127c-2.371-.013-3.689.8-3.689,2.282a1.748,1.748,0,0,0,1.876,1.762,2.286,2.286,0,0,0,1.876-.913h.038l.089.773ZM35.684,12.25a1.164,1.164,0,0,1-.063.355,1.527,1.527,0,0,1-1.483,1.027.987.987,0,0,1-1.052-1.065c0-1.192,1.382-1.407,2.6-1.382Zm3.36,2.206a.8.8,0,1,0-.748-.8A.742.742,0,0,0,39.044,14.456Z" transform="translate(2304.617 3344.589)" fill="#3a3a3a"/>
    <path id="Trazado_117461" data-name="Trazado 117461" d="M1.018-.823H5.81v-.933H2.129V-9.436H1.018Zm10.441,0a8.709,8.709,0,0,1-.1-1.482V-4.618c0-1.24-.46-2.53-2.351-2.53a3.839,3.839,0,0,0-2.032.55l.256.741a3.082,3.082,0,0,1,1.61-.46,1.275,1.275,0,0,1,1.406,1.431v.128c-2.39-.013-3.719.805-3.719,2.3A1.762,1.762,0,0,0,8.417-.682a2.3,2.3,0,0,0,1.891-.92h.038l.089.78ZM10.27-2.906a1.174,1.174,0,0,1-.064.358,1.539,1.539,0,0,1-1.5,1.035A1,1,0,0,1,7.65-2.586c0-1.2,1.393-1.419,2.62-1.393Zm2.466,1.789a3.527,3.527,0,0,0,1.738.422c1.47,0,2.313-.767,2.313-1.853,0-.92-.55-1.457-1.623-1.866-.805-.307-1.176-.537-1.176-1.048,0-.46.371-.843,1.035-.843a2.407,2.407,0,0,1,1.265.358l.281-.818a3.087,3.087,0,0,0-1.521-.383,1.908,1.908,0,0,0-2.134,1.815c0,.741.524,1.355,1.636,1.751.831.307,1.15.6,1.15,1.137,0,.511-.383.92-1.2.92a2.947,2.947,0,0,1-1.482-.447Zm12.652.294a8.709,8.709,0,0,1-.1-1.482V-4.618c0-1.24-.46-2.53-2.351-2.53A3.839,3.839,0,0,0,20.9-6.6l.256.741a3.082,3.082,0,0,1,1.61-.46,1.275,1.275,0,0,1,1.406,1.431v.128c-2.39-.013-3.719.805-3.719,2.3A1.762,1.762,0,0,0,22.347-.682a2.3,2.3,0,0,0,1.891-.92h.038l.089.78ZM24.2-2.906a1.174,1.174,0,0,1-.064.358,1.539,1.539,0,0,1-1.5,1.035A1,1,0,0,1,21.58-2.586c0-1.2,1.393-1.419,2.62-1.393ZM27.1-.823h1.112v-3.3a3.165,3.165,0,0,1,.051-.524,1.578,1.578,0,0,1,1.508-1.444,1.689,1.689,0,0,1,.383.038V-7.11a1.216,1.216,0,0,0-.319-.038,1.856,1.856,0,0,0-1.712,1.355h-.051l-.038-1.214H27.05c.038.575.051,1.2.051,1.93Zm4.23,0h1.112v-3.3a3.165,3.165,0,0,1,.051-.524A1.578,1.578,0,0,1,34-6.088a1.689,1.689,0,0,1,.383.038V-7.11a1.216,1.216,0,0,0-.319-.038,1.856,1.856,0,0,0-1.712,1.355H32.3l-.038-1.214H31.28c.038.575.051,1.2.051,1.93Zm9.355-6.185H39.561v3.8a1.645,1.645,0,0,1-.1.575,1.626,1.626,0,0,1-1.482,1.022c-1.022,0-1.38-.792-1.38-1.968V-7.008H35.472v3.617c0,2.173,1.163,2.709,2.134,2.709a2.327,2.327,0,0,0,2.045-1.15h.026l.064,1.01h1c-.038-.486-.051-1.048-.051-1.687Zm6.211,0-.051.933H46.82a2.057,2.057,0,0,0-1.93-1.073c-1.419,0-2.786,1.189-2.786,3.284A2.765,2.765,0,0,0,44.737-.848,2.208,2.208,0,0,0,46.7-1.883h.026v.69c0,1.559-.843,2.16-1.994,2.16A3.488,3.488,0,0,1,42.922.481l-.281.856a3.992,3.992,0,0,0,2.058.511,3.279,3.279,0,0,0,2.249-.741,3.557,3.557,0,0,0,.882-2.824V-5.308c0-.754.026-1.252.051-1.7Zm-.179,3.553a1.957,1.957,0,0,1-.089.6A1.644,1.644,0,0,1,45.069-1.7c-1.214,0-1.827-1.01-1.827-2.224,0-1.431.767-2.339,1.84-2.339a1.62,1.62,0,0,1,1.572,1.189,1.6,1.6,0,0,1,.064.511ZM54.143-.823a8.709,8.709,0,0,1-.1-1.482V-4.618c0-1.24-.46-2.53-2.351-2.53a3.839,3.839,0,0,0-2.032.55l.256.741a3.082,3.082,0,0,1,1.61-.46,1.275,1.275,0,0,1,1.406,1.431v.128c-2.39-.013-3.719.805-3.719,2.3A1.762,1.762,0,0,0,51.1-.682a2.3,2.3,0,0,0,1.891-.92h.038l.089.78ZM52.954-2.906a1.174,1.174,0,0,1-.064.358,1.539,1.539,0,0,1-1.5,1.035,1,1,0,0,1-1.061-1.073c0-1.2,1.393-1.419,2.62-1.393Zm2.466,1.789a3.527,3.527,0,0,0,1.738.422c1.47,0,2.313-.767,2.313-1.853,0-.92-.55-1.457-1.623-1.866-.805-.307-1.176-.537-1.176-1.048,0-.46.371-.843,1.035-.843a2.407,2.407,0,0,1,1.265.358l.281-.818a3.087,3.087,0,0,0-1.521-.383A1.908,1.908,0,0,0,55.6-5.334c0,.741.524,1.355,1.636,1.751.831.307,1.15.6,1.15,1.137,0,.511-.383.92-1.2.92A2.947,2.947,0,0,1,55.7-1.973ZM.979,14.513H2.1V10.781a1.362,1.362,0,0,1,.077-.537A1.616,1.616,0,0,1,3.689,9.12c1.061,0,1.431.843,1.431,1.84v3.553H6.245V10.833c0-2.134-1.329-2.645-2.16-2.645a2.315,2.315,0,0,0-1.15.319,2.087,2.087,0,0,0-.805.792H2.1V5.44H.979Zm11.54,0a8.709,8.709,0,0,1-.1-1.482V10.718c0-1.24-.46-2.53-2.351-2.53a3.839,3.839,0,0,0-2.032.55l.256.741a3.082,3.082,0,0,1,1.61-.46,1.275,1.275,0,0,1,1.406,1.431v.128c-2.39-.013-3.719.805-3.719,2.3a1.762,1.762,0,0,0,1.891,1.776,2.3,2.3,0,0,0,1.891-.92h.038l.089.78ZM11.331,12.43a1.174,1.174,0,0,1-.064.358,1.539,1.539,0,0,1-1.5,1.035A1,1,0,0,1,8.711,12.75c0-1.2,1.393-1.419,2.62-1.393Zm2.9,2.083h1.125V10.794a1.617,1.617,0,0,1,.077-.524,1.6,1.6,0,0,1,1.508-1.15c1.061,0,1.431.831,1.431,1.827v3.566H19.5V10.82c0-2.121-1.329-2.633-2.185-2.633A2.275,2.275,0,0,0,15.267,9.35h-.026l-.064-1.022h-1c.038.511.051,1.035.051,1.674ZM5.2,20.775v3.693H5.171a2.068,2.068,0,0,0-1.866-.946C1.8,23.523.519,24.788.532,26.845c0,1.879,1.15,3.144,2.645,3.144a2.288,2.288,0,0,0,2.109-1.214h.026l.051,1.073h1.01c-.038-.422-.051-1.048-.051-1.6V20.775Zm0,6.479a1.953,1.953,0,0,1-.051.486A1.691,1.691,0,0,1,3.5,29.082c-1.214,0-1.827-1.035-1.827-2.288,0-1.367.69-2.39,1.853-2.39a1.654,1.654,0,0,1,1.623,1.3,1.985,1.985,0,0,1,.051.473Zm7.962-.294a4.242,4.242,0,0,0,.038-.524,2.621,2.621,0,0,0-2.556-2.914c-1.8,0-2.9,1.47-2.9,3.335a2.872,2.872,0,0,0,3.042,3.118,5.01,5.01,0,0,0,2.058-.383l-.192-.805a4.067,4.067,0,0,1-1.712.319A1.982,1.982,0,0,1,8.813,26.96Zm-4.332-.805a1.864,1.864,0,0,1,1.725-1.827,1.6,1.6,0,0,1,1.559,1.827Zm5.329,3.4a3.527,3.527,0,0,0,1.738.422c1.47,0,2.313-.767,2.313-1.853,0-.92-.55-1.457-1.623-1.866-.805-.307-1.176-.537-1.176-1.048,0-.46.371-.843,1.035-.843a2.407,2.407,0,0,1,1.265.358l.281-.818a3.087,3.087,0,0,0-1.521-.383,1.908,1.908,0,0,0-2.134,1.815c0,.741.524,1.355,1.636,1.751.831.307,1.15.6,1.15,1.137,0,.511-.383.92-1.2.92a2.947,2.947,0,0,1-1.482-.447Zm9.943.294a8.709,8.709,0,0,1-.1-1.482V26.053c0-1.24-.46-2.53-2.351-2.53a3.839,3.839,0,0,0-2.032.55l.256.741a3.082,3.082,0,0,1,1.61-.46,1.275,1.275,0,0,1,1.406,1.431v.128c-2.39-.013-3.719.805-3.719,2.3a1.762,1.762,0,0,0,1.891,1.776,2.3,2.3,0,0,0,1.891-.92h.038l.089.78Zm-1.189-2.083a1.174,1.174,0,0,1-.064.358,1.539,1.539,0,0,1-1.5,1.035,1,1,0,0,1-1.061-1.073c0-1.2,1.393-1.419,2.62-1.393Zm2.9,4.613h1.112V29.018h.026a2.169,2.169,0,0,0,1.9.971c1.457,0,2.812-1.1,2.812-3.323,0-1.879-1.125-3.144-2.62-3.144a2.432,2.432,0,0,0-2.2,1.2H26.82l-.051-1.061h-1.01c.026.588.051,1.227.051,2.019Zm1.112-6.109A1.824,1.824,0,0,1,27,25.81a1.8,1.8,0,0,1,1.7-1.393c1.189,0,1.84,1.061,1.84,2.3,0,1.419-.69,2.39-1.879,2.39a1.735,1.735,0,0,1-1.687-1.316,2.533,2.533,0,0,1-.051-.46Zm10.607,3.578a8.709,8.709,0,0,1-.1-1.482V26.053c0-1.24-.46-2.53-2.351-2.53a3.839,3.839,0,0,0-2.032.55l.256.741a3.082,3.082,0,0,1,1.61-.46,1.275,1.275,0,0,1,1.406,1.431v.128c-2.39-.013-3.719.805-3.719,2.3a1.762,1.762,0,0,0,1.891,1.776,2.3,2.3,0,0,0,1.891-.92h.038l.089.78Zm-1.189-2.083a1.174,1.174,0,0,1-.064.358,1.539,1.539,0,0,1-1.5,1.035,1,1,0,0,1-1.061-1.073c0-1.2,1.393-1.419,2.62-1.393Zm2.9,2.083h1.112v-3.3a3.165,3.165,0,0,1,.051-.524,1.578,1.578,0,0,1,1.508-1.444,1.689,1.689,0,0,1,.383.038V23.561a1.216,1.216,0,0,0-.319-.038,1.856,1.856,0,0,0-1.712,1.355h-.051l-.038-1.214H39.19c.038.575.051,1.2.051,1.93Zm9.022-2.888a4.242,4.242,0,0,0,.038-.524,2.621,2.621,0,0,0-2.556-2.914c-1.8,0-2.9,1.47-2.9,3.335a2.872,2.872,0,0,0,3.042,3.118,5.01,5.01,0,0,0,2.058-.383l-.192-.805a4.067,4.067,0,0,1-1.712.319,1.982,1.982,0,0,1-2.121-2.147Zm-4.332-.805a1.864,1.864,0,0,1,1.725-1.827,1.6,1.6,0,0,1,1.559,1.827Zm9.981,2.62a3.2,3.2,0,0,1-1.38.307,2.121,2.121,0,0,1-2.147-2.313,2.14,2.14,0,0,1,2.185-2.339,2.608,2.608,0,0,1,1.3.294l.256-.869a3.759,3.759,0,0,0-1.559-.319,3.143,3.143,0,0,0-3.323,3.284,2.939,2.939,0,0,0,3.08,3.157,4.142,4.142,0,0,0,1.776-.358Zm2.633,1.073V23.663H55.421v6.185Zm-.562-8.626a.685.685,0,0,0-.7.7.7.7,0,1,0,.7-.7Zm6.645-.447v3.693H62.6a2.068,2.068,0,0,0-1.866-.946c-1.508,0-2.786,1.265-2.773,3.323,0,1.879,1.15,3.144,2.645,3.144a2.288,2.288,0,0,0,2.109-1.214h.026l.051,1.073H63.8c-.038-.422-.051-1.048-.051-1.6V20.775Zm0,6.479a1.953,1.953,0,0,1-.051.486,1.691,1.691,0,0,1-1.649,1.342c-1.214,0-1.827-1.035-1.827-2.288,0-1.367.69-2.39,1.853-2.39a1.654,1.654,0,0,1,1.623,1.3,1.985,1.985,0,0,1,.051.473Zm5.61-3.732a3.02,3.02,0,0,0-3.067,3.284,2.941,2.941,0,0,0,2.965,3.182,3.023,3.023,0,0,0,3.08-3.284A2.929,2.929,0,0,0,68.239,23.523Zm-.026.843c1.329,0,1.853,1.329,1.853,2.377,0,1.393-.805,2.4-1.879,2.4-1.1,0-1.879-1.022-1.879-2.377C66.309,25.593,66.884,24.366,68.213,24.366Zm4.6,5.623a.806.806,0,1,0-.754-.805A.748.748,0,0,0,72.814,29.989Z" transform="translate(2343.117 3487.21)" fill="#3a3a3a"/>
    <path id="Trazado_117462" data-name="Trazado 117462" d="M1.064-.72a13.2,13.2,0,0,0,1.752.1A4.393,4.393,0,0,0,5.84-1.434a2.358,2.358,0,0,0,.74-1.752,2.255,2.255,0,0,0-1.8-2.193V-5.4a2.077,2.077,0,0,0,1.48-1.921A1.834,1.834,0,0,0,5.529-8.87a3.615,3.615,0,0,0-2.4-.636,10.941,10.941,0,0,0-2.064.182ZM2.193-8.559a4.843,4.843,0,0,1,1-.078c1.142,0,1.921.4,1.921,1.428,0,.844-.7,1.467-1.895,1.467H2.193Zm0,3.673h.934c1.233,0,2.258.493,2.258,1.687,0,1.272-1.077,1.7-2.245,1.7a6.033,6.033,0,0,1-.947-.052ZM12.576-.694a8.844,8.844,0,0,1-.1-1.505V-4.548c0-1.259-.467-2.57-2.388-2.57A3.9,3.9,0,0,0,8.02-6.56l.26.753a3.13,3.13,0,0,1,1.635-.467,1.3,1.3,0,0,1,1.428,1.454v.13C8.916-4.7,7.566-3.873,7.566-2.355a1.79,1.79,0,0,0,1.921,1.8,2.34,2.34,0,0,0,1.921-.934h.039l.091.792ZM11.369-2.809a1.192,1.192,0,0,1-.065.363A1.563,1.563,0,0,1,9.785-1.395a1.011,1.011,0,0,1-1.077-1.09c0-1.22,1.415-1.441,2.661-1.415ZM12.9,2.019A2.9,2.9,0,0,0,14.847,1.3,3.445,3.445,0,0,0,15.6-1.278v-5.7H14.458v5.256c0,1.505-.117,2-.428,2.362a1.848,1.848,0,0,1-1.246.48ZM15.042-9.454a.7.7,0,0,0-.727.714.682.682,0,0,0,.7.7.67.67,0,0,0,.714-.7A.675.675,0,0,0,15.042-9.454Zm5.087,2.336a3.067,3.067,0,0,0-3.115,3.335A2.986,2.986,0,0,0,20.025-.551a3.07,3.07,0,0,0,3.128-3.335A2.975,2.975,0,0,0,20.129-7.118Zm-.026.857c1.35,0,1.882,1.35,1.882,2.414,0,1.415-.818,2.44-1.908,2.44-1.116,0-1.908-1.038-1.908-2.414C18.169-5.016,18.753-6.261,20.1-6.261ZM27.345-.694h1.129V-4.042a3.215,3.215,0,0,1,.052-.532,1.6,1.6,0,0,1,1.531-1.467A1.716,1.716,0,0,1,30.447-6V-7.079a1.235,1.235,0,0,0-.324-.039,1.885,1.885,0,0,0-1.739,1.376h-.052l-.039-1.233h-1c.039.584.052,1.22.052,1.96Zm9.163-2.933a4.308,4.308,0,0,0,.039-.532c0-1.155-.545-2.959-2.6-2.959C32.121-7.118,31-5.626,31-3.731A2.917,2.917,0,0,0,34.094-.564a5.088,5.088,0,0,0,2.089-.389l-.195-.818a4.13,4.13,0,0,1-1.739.324,2.012,2.012,0,0,1-2.154-2.18Zm-4.4-.818A1.893,1.893,0,0,1,33.86-6.3a1.626,1.626,0,0,1,1.583,1.856ZM42.244-1.784a3.244,3.244,0,0,1-1.4.311,2.154,2.154,0,0,1-2.18-2.349A2.174,2.174,0,0,1,40.881-6.2a2.648,2.648,0,0,1,1.324.3l.26-.883a3.818,3.818,0,0,0-1.583-.324A3.192,3.192,0,0,0,37.507-3.77,2.984,2.984,0,0,0,40.635-.564a4.207,4.207,0,0,0,1.8-.363Zm1.96-6.7v1.505H43.23v.87H44.2v3.426a2.327,2.327,0,0,0,.441,1.635,1.583,1.583,0,0,0,1.233.48A2.8,2.8,0,0,0,46.89-.72l-.052-.857a2.541,2.541,0,0,1-.662.078c-.636,0-.857-.441-.857-1.22V-6.106h1.635v-.87H45.32v-1.8Zm6.619,1.363a3.067,3.067,0,0,0-3.115,3.335A2.986,2.986,0,0,0,50.719-.551a3.07,3.07,0,0,0,3.128-3.335A2.975,2.975,0,0,0,50.822-7.118Zm-.026.857c1.35,0,1.882,1.35,1.882,2.414,0,1.415-.818,2.44-1.908,2.44-1.116,0-1.908-1.038-1.908-2.414C48.863-5.016,49.447-6.261,50.8-6.261Zm4.672,5.71a.76.76,0,0,0,.779-.818.757.757,0,0,0-.766-.818.767.767,0,0,0-.779.818A.764.764,0,0,0,55.469-.551Z" transform="translate(2343.117 3634.21)" fill="#3a3a3a"/>
  </g>
</svg>
