<svg xmlns="http://www.w3.org/2000/svg" xmlns:xlink="http://www.w3.org/1999/xlink" width="394.368" height="215.393" viewBox="0 0 394.368 215.393">
  <defs>
    <clipPath id="clip-path">
      <path id="Trazado_117464" data-name="Trazado 117464" d="M786.7,3553.825l-5.145,27.025s27.908,19.28,22.7,92.455c0,0,197.872-8.738,203.77-5.414,0,0,137.336-2.891,140.427,5.414v-119.48Z" fill="none"/>
    </clipPath>
    <clipPath id="clip-path-2">
      <rect id="Rectángulo_7597" data-name="Rectángulo 7597" width="394" height="215.393" rx="9" transform="translate(771.638 3506.005)" fill="none"/>
    </clipPath>
  </defs>
  <g id="Grupo_61182" data-name="Grupo 61182" transform="translate(-771.638 -3506.006)">
    <rect id="Rectángulo_7597-2" data-name="Rectángulo 7597" width="394" height="215.393" rx="9" transform="translate(771.638 3506.005)" fill="#fff"/>
    <rect id="Rectángulo_7683" data-name="Rectángulo 7683" width="394.368" height="159.661" transform="translate(771.638 3537.239)" fill="#e1dbdd"/>
    <path id="Trazado_117463" data-name="Trazado 117463" d="M786.7,3553.825l-5.145,27.025s27.908,19.28,22.7,92.455c0,0,197.872-8.738,203.77-5.414,0,0,137.336-2.891,140.427,5.414v-119.48Z" fill="#ead4b9"/>
    <g id="Grupo_61184" data-name="Grupo 61184" opacity="0.65">
      <g id="Grupo_61183" data-name="Grupo 61183" clip-path="url(#clip-path)">
        <g id="Grupo_61182-2" data-name="Grupo 61182">
          <line id="Línea_524" data-name="Línea 524" x1="1.866" y2="159.002" transform="translate(1201.125 3550.639)" fill="none" stroke="#575756" stroke-miterlimit="10" stroke-width="0.5"/>
          <line id="Línea_525" data-name="Línea 525" x1="1.866" y2="159.002" transform="translate(1192.698 3550.541)" fill="none" stroke="#575756" stroke-miterlimit="10" stroke-width="0.5"/>
          <line id="Línea_526" data-name="Línea 526" x1="1.866" y2="159.002" transform="translate(1184.27 3550.442)" fill="none" stroke="#575756" stroke-miterlimit="10" stroke-width="0.5"/>
          <line id="Línea_527" data-name="Línea 527" x1="1.866" y2="159.002" transform="translate(1175.843 3550.343)" fill="none" stroke="#575756" stroke-miterlimit="10" stroke-width="0.5"/>
          <line id="Línea_528" data-name="Línea 528" x1="1.866" y2="159.002" transform="translate(1167.415 3550.244)" fill="none" stroke="#575756" stroke-miterlimit="10" stroke-width="0.5"/>
          <line id="Línea_529" data-name="Línea 529" x1="1.866" y2="159.002" transform="translate(1158.987 3550.145)" fill="none" stroke="#575756" stroke-miterlimit="10" stroke-width="0.5"/>
          <line id="Línea_530" data-name="Línea 530" x1="1.866" y2="159.002" transform="translate(1150.56 3550.046)" fill="none" stroke="#575756" stroke-miterlimit="10" stroke-width="0.5"/>
          <line id="Línea_531" data-name="Línea 531" x1="1.866" y2="159.002" transform="translate(1142.132 3549.947)" fill="none" stroke="#575756" stroke-miterlimit="10" stroke-width="0.5"/>
          <line id="Línea_532" data-name="Línea 532" x1="1.866" y2="159.002" transform="translate(1133.704 3549.848)" fill="none" stroke="#575756" stroke-miterlimit="10" stroke-width="0.5"/>
          <line id="Línea_533" data-name="Línea 533" x1="1.866" y2="159.002" transform="translate(1125.277 3549.749)" fill="none" stroke="#575756" stroke-miterlimit="10" stroke-width="0.5"/>
          <line id="Línea_534" data-name="Línea 534" x1="1.866" y2="159.002" transform="translate(1116.849 3549.65)" fill="none" stroke="#575756" stroke-miterlimit="10" stroke-width="0.5"/>
          <line id="Línea_535" data-name="Línea 535" x1="1.866" y2="159.002" transform="translate(1108.421 3549.552)" fill="none" stroke="#575756" stroke-miterlimit="10" stroke-width="0.5"/>
          <line id="Línea_536" data-name="Línea 536" x1="1.866" y2="159.002" transform="translate(1099.994 3549.453)" fill="none" stroke="#575756" stroke-miterlimit="10" stroke-width="0.5"/>
          <line id="Línea_537" data-name="Línea 537" x1="1.866" y2="159.002" transform="translate(1091.566 3549.354)" fill="none" stroke="#575756" stroke-miterlimit="10" stroke-width="0.5"/>
          <line id="Línea_538" data-name="Línea 538" x1="1.866" y2="159.002" transform="translate(1083.138 3549.255)" fill="none" stroke="#575756" stroke-miterlimit="10" stroke-width="0.5"/>
          <line id="Línea_539" data-name="Línea 539" x1="1.866" y2="159.002" transform="translate(1074.711 3549.156)" fill="none" stroke="#575756" stroke-miterlimit="10" stroke-width="0.5"/>
          <line id="Línea_540" data-name="Línea 540" x1="1.866" y2="159.002" transform="translate(1066.283 3549.057)" fill="none" stroke="#575756" stroke-miterlimit="10" stroke-width="0.5"/>
          <line id="Línea_541" data-name="Línea 541" x1="1.866" y2="159.002" transform="translate(1057.855 3548.958)" fill="none" stroke="#575756" stroke-miterlimit="10" stroke-width="0.5"/>
          <line id="Línea_542" data-name="Línea 542" x1="1.866" y2="159.002" transform="translate(1049.428 3548.859)" fill="none" stroke="#575756" stroke-miterlimit="10" stroke-width="0.5"/>
          <line id="Línea_543" data-name="Línea 543" x1="1.866" y2="159.002" transform="translate(1041 3548.76)" fill="none" stroke="#575756" stroke-miterlimit="10" stroke-width="0.5"/>
          <line id="Línea_544" data-name="Línea 544" x1="1.866" y2="159.002" transform="translate(1032.573 3548.662)" fill="none" stroke="#575756" stroke-miterlimit="10" stroke-width="0.5"/>
          <line id="Línea_545" data-name="Línea 545" x1="1.866" y2="159.002" transform="translate(1024.145 3548.563)" fill="none" stroke="#575756" stroke-miterlimit="10" stroke-width="0.5"/>
          <line id="Línea_546" data-name="Línea 546" x1="1.866" y2="159.002" transform="translate(1015.717 3548.464)" fill="none" stroke="#575756" stroke-miterlimit="10" stroke-width="0.5"/>
          <line id="Línea_547" data-name="Línea 547" x1="1.866" y2="159.002" transform="translate(1007.29 3548.365)" fill="none" stroke="#575756" stroke-miterlimit="10" stroke-width="0.5"/>
          <line id="Línea_548" data-name="Línea 548" x1="1.866" y2="159.002" transform="translate(998.862 3548.266)" fill="none" stroke="#575756" stroke-miterlimit="10" stroke-width="0.5"/>
          <line id="Línea_549" data-name="Línea 549" x1="1.866" y2="159.002" transform="translate(990.434 3548.167)" fill="none" stroke="#575756" stroke-miterlimit="10" stroke-width="0.5"/>
          <line id="Línea_550" data-name="Línea 550" x1="1.866" y2="159.002" transform="translate(982.007 3548.068)" fill="none" stroke="#575756" stroke-miterlimit="10" stroke-width="0.5"/>
          <line id="Línea_551" data-name="Línea 551" x1="1.866" y2="159.002" transform="translate(973.579 3547.969)" fill="none" stroke="#575756" stroke-miterlimit="10" stroke-width="0.5"/>
          <line id="Línea_552" data-name="Línea 552" x1="1.866" y2="159.002" transform="translate(965.151 3547.871)" fill="none" stroke="#575756" stroke-miterlimit="10" stroke-width="0.5"/>
          <line id="Línea_553" data-name="Línea 553" x1="1.866" y2="159.002" transform="translate(956.724 3547.772)" fill="none" stroke="#575756" stroke-miterlimit="10" stroke-width="0.5"/>
          <line id="Línea_554" data-name="Línea 554" x1="1.866" y2="159.002" transform="translate(948.296 3547.673)" fill="none" stroke="#575756" stroke-miterlimit="10" stroke-width="0.5"/>
          <line id="Línea_555" data-name="Línea 555" x1="1.866" y2="159.002" transform="translate(939.868 3547.574)" fill="none" stroke="#575756" stroke-miterlimit="10" stroke-width="0.5"/>
          <line id="Línea_556" data-name="Línea 556" x1="1.866" y2="159.002" transform="translate(931.441 3547.475)" fill="none" stroke="#575756" stroke-miterlimit="10" stroke-width="0.5"/>
          <line id="Línea_557" data-name="Línea 557" x1="1.866" y2="159.002" transform="translate(923.013 3547.376)" fill="none" stroke="#575756" stroke-miterlimit="10" stroke-width="0.5"/>
          <line id="Línea_558" data-name="Línea 558" x1="1.866" y2="159.002" transform="translate(914.586 3547.277)" fill="none" stroke="#575756" stroke-miterlimit="10" stroke-width="0.5"/>
          <line id="Línea_559" data-name="Línea 559" x1="1.866" y2="159.002" transform="translate(906.158 3547.178)" fill="none" stroke="#575756" stroke-miterlimit="10" stroke-width="0.5"/>
          <line id="Línea_560" data-name="Línea 560" x1="1.866" y2="159.002" transform="translate(897.73 3547.08)" fill="none" stroke="#575756" stroke-miterlimit="10" stroke-width="0.5"/>
          <line id="Línea_561" data-name="Línea 561" x1="1.866" y2="159.002" transform="translate(889.303 3546.981)" fill="none" stroke="#575756" stroke-miterlimit="10" stroke-width="0.5"/>
          <line id="Línea_562" data-name="Línea 562" x1="1.866" y2="159.002" transform="translate(880.875 3546.882)" fill="none" stroke="#575756" stroke-miterlimit="10" stroke-width="0.5"/>
          <line id="Línea_563" data-name="Línea 563" x1="1.866" y2="159.002" transform="translate(872.447 3546.783)" fill="none" stroke="#575756" stroke-miterlimit="10" stroke-width="0.5"/>
          <line id="Línea_564" data-name="Línea 564" x1="1.866" y2="159.002" transform="translate(864.02 3546.684)" fill="none" stroke="#575756" stroke-miterlimit="10" stroke-width="0.5"/>
          <line id="Línea_565" data-name="Línea 565" x1="1.866" y2="159.002" transform="translate(855.592 3546.585)" fill="none" stroke="#575756" stroke-miterlimit="10" stroke-width="0.5"/>
          <line id="Línea_566" data-name="Línea 566" x1="1.866" y2="159.002" transform="translate(847.164 3546.486)" fill="none" stroke="#575756" stroke-miterlimit="10" stroke-width="0.5"/>
          <line id="Línea_567" data-name="Línea 567" x1="1.866" y2="159.002" transform="translate(838.737 3546.387)" fill="none" stroke="#575756" stroke-miterlimit="10" stroke-width="0.5"/>
          <line id="Línea_568" data-name="Línea 568" x1="1.866" y2="159.002" transform="translate(830.309 3546.289)" fill="none" stroke="#575756" stroke-miterlimit="10" stroke-width="0.5"/>
          <line id="Línea_569" data-name="Línea 569" x1="1.866" y2="159.002" transform="translate(821.881 3546.19)" fill="none" stroke="#575756" stroke-miterlimit="10" stroke-width="0.5"/>
          <line id="Línea_570" data-name="Línea 570" x1="1.866" y2="159.002" transform="translate(813.454 3546.091)" fill="none" stroke="#575756" stroke-miterlimit="10" stroke-width="0.5"/>
          <line id="Línea_571" data-name="Línea 571" x1="1.866" y2="159.002" transform="translate(805.026 3545.992)" fill="none" stroke="#575756" stroke-miterlimit="10" stroke-width="0.5"/>
          <line id="Línea_572" data-name="Línea 572" x1="1.866" y2="159.002" transform="translate(796.598 3545.893)" fill="none" stroke="#575756" stroke-miterlimit="10" stroke-width="0.5"/>
          <line id="Línea_573" data-name="Línea 573" x1="1.866" y2="159.002" transform="translate(788.171 3545.794)" fill="none" stroke="#575756" stroke-miterlimit="10" stroke-width="0.5"/>
          <line id="Línea_574" data-name="Línea 574" x1="1.866" y2="159.002" transform="translate(779.743 3545.695)" fill="none" stroke="#575756" stroke-miterlimit="10" stroke-width="0.5"/>
          <line id="Línea_575" data-name="Línea 575" x1="1.866" y2="159.002" transform="translate(771.315 3545.596)" fill="none" stroke="#575756" stroke-miterlimit="10" stroke-width="0.5"/>
          <line id="Línea_576" data-name="Línea 576" x1="1.866" y2="159.002" transform="translate(762.888 3545.498)" fill="none" stroke="#575756" stroke-miterlimit="10" stroke-width="0.5"/>
          <line id="Línea_577" data-name="Línea 577" x1="1.866" y2="159.002" transform="translate(754.46 3545.399)" fill="none" stroke="#575756" stroke-miterlimit="10" stroke-width="0.5"/>
          <line id="Línea_578" data-name="Línea 578" x1="1.866" y2="159.002" transform="translate(746.033 3545.3)" fill="none" stroke="#575756" stroke-miterlimit="10" stroke-width="0.5"/>
          <line id="Línea_579" data-name="Línea 579" x2="470.262" y2="5.518" transform="translate(739.99 3548.859)" fill="none" stroke="#575756" stroke-miterlimit="10" stroke-width="0.5"/>
          <line id="Línea_580" data-name="Línea 580" x2="470.262" y2="5.518" transform="translate(739.891 3557.287)" fill="none" stroke="#575756" stroke-miterlimit="10" stroke-width="0.5"/>
          <line id="Línea_581" data-name="Línea 581" x2="470.262" y2="5.518" transform="translate(739.792 3565.715)" fill="none" stroke="#575756" stroke-miterlimit="10" stroke-width="0.5"/>
          <line id="Línea_582" data-name="Línea 582" x2="470.262" y2="5.518" transform="translate(739.693 3574.142)" fill="none" stroke="#575756" stroke-miterlimit="10" stroke-width="0.5"/>
          <line id="Línea_583" data-name="Línea 583" x2="470.262" y2="5.518" transform="translate(739.594 3582.57)" fill="none" stroke="#575756" stroke-miterlimit="10" stroke-width="0.5"/>
          <line id="Línea_584" data-name="Línea 584" x2="470.262" y2="5.518" transform="translate(739.495 3590.998)" fill="none" stroke="#575756" stroke-miterlimit="10" stroke-width="0.5"/>
          <line id="Línea_585" data-name="Línea 585" x2="470.262" y2="5.518" transform="translate(739.396 3599.425)" fill="none" stroke="#575756" stroke-miterlimit="10" stroke-width="0.5"/>
          <line id="Línea_586" data-name="Línea 586" x2="470.262" y2="5.518" transform="translate(739.298 3607.853)" fill="none" stroke="#575756" stroke-miterlimit="10" stroke-width="0.5"/>
          <line id="Línea_587" data-name="Línea 587" x2="470.262" y2="5.518" transform="translate(739.199 3616.281)" fill="none" stroke="#575756" stroke-miterlimit="10" stroke-width="0.5"/>
          <line id="Línea_588" data-name="Línea 588" x2="470.262" y2="5.518" transform="translate(739.1 3624.708)" fill="none" stroke="#575756" stroke-miterlimit="10" stroke-width="0.5"/>
          <line id="Línea_589" data-name="Línea 589" x2="470.262" y2="5.518" transform="translate(739.001 3633.136)" fill="none" stroke="#575756" stroke-miterlimit="10" stroke-width="0.5"/>
          <line id="Línea_590" data-name="Línea 590" x2="470.262" y2="5.518" transform="translate(738.902 3641.563)" fill="none" stroke="#575756" stroke-miterlimit="10" stroke-width="0.5"/>
          <line id="Línea_591" data-name="Línea 591" x2="470.262" y2="5.518" transform="translate(738.803 3649.991)" fill="none" stroke="#575756" stroke-miterlimit="10" stroke-width="0.5"/>
          <line id="Línea_592" data-name="Línea 592" x2="470.262" y2="5.518" transform="translate(738.704 3658.419)" fill="none" stroke="#575756" stroke-miterlimit="10" stroke-width="0.5"/>
          <line id="Línea_593" data-name="Línea 593" x2="470.262" y2="5.518" transform="translate(738.605 3666.846)" fill="none" stroke="#575756" stroke-miterlimit="10" stroke-width="0.5"/>
          <line id="Línea_594" data-name="Línea 594" x2="470.262" y2="5.518" transform="translate(738.506 3675.274)" fill="none" stroke="#575756" stroke-miterlimit="10" stroke-width="0.5"/>
          <line id="Línea_595" data-name="Línea 595" x2="470.262" y2="5.518" transform="translate(738.408 3683.702)" fill="none" stroke="#575756" stroke-miterlimit="10" stroke-width="0.5"/>
          <line id="Línea_596" data-name="Línea 596" x2="470.262" y2="5.518" transform="translate(738.309 3692.129)" fill="none" stroke="#575756" stroke-miterlimit="10" stroke-width="0.5"/>
          <line id="Línea_597" data-name="Línea 597" x2="470.262" y2="5.518" transform="translate(738.21 3700.557)" fill="none" stroke="#575756" stroke-miterlimit="10" stroke-width="0.5"/>
        </g>
      </g>
    </g>
    <g id="Grupo_61185" data-name="Grupo 61185">
      <path id="Trazado_117465" data-name="Trazado 117465" d="M830.448,3713.27a5.614,5.614,0,0,1-2.314.416,4.1,4.1,0,0,1-4.329-4.433,4.361,4.361,0,0,1,4.576-4.6,4.711,4.711,0,0,1,2.08.39l-.273.923a4.139,4.139,0,0,0-1.768-.363c-2.054,0-3.419,1.312-3.419,3.614a3.185,3.185,0,0,0,3.367,3.522,4.529,4.529,0,0,0,1.846-.363Z" fill="#3a3a3a"/>
      <path id="Trazado_117466" data-name="Trazado 117466" d="M835.22,3713.556l-.092-.793h-.039a2.343,2.343,0,0,1-1.924.935,1.792,1.792,0,0,1-1.924-1.806c0-1.522,1.352-2.354,3.783-2.34v-.13a1.3,1.3,0,0,0-1.43-1.456,3.125,3.125,0,0,0-1.638.468l-.26-.754a3.91,3.91,0,0,1,2.068-.56c1.923,0,2.391,1.314,2.391,2.574v2.354a8.85,8.85,0,0,0,.1,1.508Zm-.169-3.211c-1.248-.027-2.666.194-2.666,1.417a1.012,1.012,0,0,0,1.079,1.092,1.564,1.564,0,0,0,1.521-1.053,1.2,1.2,0,0,0,.066-.364Z" fill="#3a3a3a"/>
      <path id="Trazado_117467" data-name="Trazado 117467" d="M838,3708.967c0-.651-.013-1.184-.052-1.7h1.014l.064,1.04h.027a2.313,2.313,0,0,1,2.08-1.184c.871,0,2.223.521,2.223,2.679v3.757h-1.144v-3.627c0-1.015-.377-1.86-1.456-1.86a1.626,1.626,0,0,0-1.534,1.17,1.649,1.649,0,0,0-.078.533v3.784H838Z" fill="#3a3a3a"/>
      <path id="Trazado_117468" data-name="Trazado 117468" d="M846.542,3705.456v1.808h1.638v.871h-1.638v3.392c0,.781.221,1.223.858,1.223a2.539,2.539,0,0,0,.662-.078l.053.857a2.774,2.774,0,0,1-1.014.157,1.585,1.585,0,0,1-1.235-.481,2.334,2.334,0,0,1-.442-1.639v-3.431h-.975v-.871h.975v-1.508Z" fill="#3a3a3a"/>
      <path id="Trazado_117469" data-name="Trazado 117469" d="M850.74,3705.5a.709.709,0,0,1-1.417,0,.7.7,0,0,1,.716-.715A.679.679,0,0,1,850.74,3705.5Zm-1.273,8.061v-6.292h1.143v6.292Z" fill="#3a3a3a"/>
      <path id="Trazado_117470" data-name="Trazado 117470" d="M857.942,3704.325v7.606c0,.558.014,1.2.053,1.625h-1.027l-.052-1.092h-.026a2.328,2.328,0,0,1-2.145,1.234c-1.521,0-2.691-1.286-2.691-3.2-.013-2.094,1.287-3.381,2.821-3.381a2.1,2.1,0,0,1,1.9.962h.027v-3.757Zm-1.143,5.5a2.011,2.011,0,0,0-.052-.48,1.681,1.681,0,0,0-1.651-1.326c-1.183,0-1.885,1.04-1.885,2.43,0,1.275.624,2.327,1.858,2.327a1.719,1.719,0,0,0,1.678-1.365,1.973,1.973,0,0,0,.052-.493Z" fill="#3a3a3a"/>
      <path id="Trazado_117471" data-name="Trazado 117471" d="M863.325,3713.556l-.092-.793h-.039a2.339,2.339,0,0,1-1.923.935,1.792,1.792,0,0,1-1.924-1.806c0-1.522,1.351-2.354,3.783-2.34v-.13a1.3,1.3,0,0,0-1.431-1.456,3.121,3.121,0,0,0-1.637.468l-.26-.754a3.9,3.9,0,0,1,2.067-.56c1.924,0,2.392,1.314,2.392,2.574v2.354a8.857,8.857,0,0,0,.1,1.508Zm-.169-3.211c-1.248-.027-2.666.194-2.666,1.417a1.012,1.012,0,0,0,1.079,1.092,1.566,1.566,0,0,0,1.522-1.053,1.194,1.194,0,0,0,.065-.364Z" fill="#3a3a3a"/>
      <path id="Trazado_117472" data-name="Trazado 117472" d="M871.54,3704.325v7.606c0,.558.014,1.2.053,1.625h-1.028l-.051-1.092h-.027a2.325,2.325,0,0,1-2.144,1.234c-1.522,0-2.692-1.286-2.692-3.2-.012-2.094,1.287-3.381,2.822-3.381a2.1,2.1,0,0,1,1.9.962h.026v-3.757Zm-1.144,5.5a2.01,2.01,0,0,0-.051-.48,1.682,1.682,0,0,0-1.652-1.326c-1.182,0-1.884,1.04-1.884,2.43,0,1.275.624,2.327,1.858,2.327a1.719,1.719,0,0,0,1.678-1.365,1.974,1.974,0,0,0,.051-.493Z" fill="#3a3a3a"/>
      <path id="Trazado_117473" data-name="Trazado 117473" d="M879.679,3713.556l-.092-.793h-.039a2.342,2.342,0,0,1-1.924.935,1.792,1.792,0,0,1-1.924-1.806c0-1.522,1.352-2.354,3.783-2.34v-.13a1.3,1.3,0,0,0-1.43-1.456,3.125,3.125,0,0,0-1.638.468l-.26-.754a3.91,3.91,0,0,1,2.068-.56c1.923,0,2.391,1.314,2.391,2.574v2.354a8.85,8.85,0,0,0,.1,1.508Zm-.169-3.211c-1.248-.027-2.666.194-2.666,1.417a1.012,1.012,0,0,0,1.079,1.092,1.564,1.564,0,0,0,1.521-1.053,1.2,1.2,0,0,0,.066-.364Z" fill="#3a3a3a"/>
      <path id="Trazado_117474" data-name="Trazado 117474" d="M882.46,3708.967c0-.651-.013-1.184-.052-1.7h1.014l.064,1.04h.027a2.313,2.313,0,0,1,2.08-1.184c.871,0,2.223.521,2.223,2.679v3.757h-1.144v-3.627c0-1.015-.377-1.86-1.456-1.86a1.626,1.626,0,0,0-1.534,1.17,1.649,1.649,0,0,0-.078.533v3.784H882.46Zm1.065-2.782c-.025-.845.326-1.353.885-1.353a1.6,1.6,0,0,1,.806.286,1.3,1.3,0,0,0,.546.222c.208,0,.338-.117.364-.56h.611c.013.871-.286,1.314-.9,1.314a1.717,1.717,0,0,1-.793-.261,1.162,1.162,0,0,0-.559-.233c-.208,0-.312.22-.339.585Z" fill="#3a3a3a"/>
      <path id="Trazado_117475" data-name="Trazado 117475" d="M893.16,3713.556l-.092-.793h-.039a2.34,2.34,0,0,1-1.924.935,1.792,1.792,0,0,1-1.923-1.806c0-1.522,1.351-2.354,3.783-2.34v-.13a1.3,1.3,0,0,0-1.43-1.456,3.128,3.128,0,0,0-1.639.468l-.259-.754a3.9,3.9,0,0,1,2.067-.56c1.924,0,2.392,1.314,2.392,2.574v2.354a8.857,8.857,0,0,0,.1,1.508Zm-.17-3.211c-1.248-.027-2.665.194-2.665,1.417a1.012,1.012,0,0,0,1.079,1.092,1.566,1.566,0,0,0,1.522-1.053,1.192,1.192,0,0,0,.064-.364Z" fill="#3a3a3a"/>
      <path id="Trazado_117476" data-name="Trazado 117476" d="M901.375,3704.325v7.606c0,.558.014,1.2.053,1.625H900.4l-.051-1.092h-.027a2.325,2.325,0,0,1-2.144,1.234c-1.522,0-2.692-1.286-2.692-3.2-.012-2.094,1.287-3.381,2.822-3.381a2.1,2.1,0,0,1,1.9.962h.026v-3.757Zm-1.144,5.5a2.01,2.01,0,0,0-.051-.48,1.682,1.682,0,0,0-1.652-1.326c-1.182,0-1.884,1.04-1.884,2.43,0,1.275.624,2.327,1.858,2.327a1.719,1.719,0,0,0,1.678-1.365,1.974,1.974,0,0,0,.051-.493Z" fill="#3a3a3a"/>
      <path id="Trazado_117477" data-name="Trazado 117477" d="M904.547,3705.5a.709.709,0,0,1-1.417,0,.7.7,0,0,1,.716-.715A.679.679,0,0,1,904.547,3705.5Zm-1.274,8.061v-6.292h1.144v6.292Z" fill="#3a3a3a"/>
      <path id="Trazado_117478" data-name="Trazado 117478" d="M911.749,3704.325v7.606c0,.558.014,1.2.053,1.625h-1.028l-.051-1.092H910.7a2.325,2.325,0,0,1-2.144,1.234c-1.522,0-2.692-1.286-2.692-3.2-.012-2.094,1.287-3.381,2.822-3.381a2.1,2.1,0,0,1,1.9.962h.026v-3.757Zm-1.144,5.5a2.01,2.01,0,0,0-.051-.48,1.682,1.682,0,0,0-1.652-1.326c-1.182,0-1.884,1.04-1.884,2.43,0,1.275.624,2.327,1.858,2.327a1.719,1.719,0,0,0,1.678-1.365,1.974,1.974,0,0,0,.051-.493Z" fill="#3a3a3a"/>
      <path id="Trazado_117479" data-name="Trazado 117479" d="M917.132,3713.556l-.092-.793H917a2.341,2.341,0,0,1-1.924.935,1.792,1.792,0,0,1-1.924-1.806c0-1.522,1.352-2.354,3.784-2.34v-.13a1.3,1.3,0,0,0-1.431-1.456,3.128,3.128,0,0,0-1.638.468l-.26-.754a3.91,3.91,0,0,1,2.068-.56c1.924,0,2.391,1.314,2.391,2.574v2.354a8.85,8.85,0,0,0,.1,1.508Zm-.169-3.211c-1.248-.027-2.666.194-2.666,1.417a1.012,1.012,0,0,0,1.079,1.092,1.564,1.564,0,0,0,1.521-1.053,1.165,1.165,0,0,0,.066-.364Z" fill="#3a3a3a"/>
      <path id="Trazado_117480" data-name="Trazado 117480" d="M919.64,3712.88a.768.768,0,0,1,.78-.819.82.82,0,1,1-.78.819Z" fill="#3a3a3a"/>
    </g>
    <path id="Trazado_117481" data-name="Trazado 117481" d="M806.636,3675.367s39.722,16.005,158.369,2.565" fill="none" stroke="#3a3a3a" stroke-miterlimit="10" stroke-width="1"/>
    <line id="Línea_598" data-name="Línea 598" x2="198.138" transform="translate(858.222 3567.767)" fill="none" stroke="#3a3a3a" stroke-miterlimit="10" stroke-width="1"/>
    <path id="Trazado_117482" data-name="Trazado 117482" d="M965.005,3668.771l-2.857,5.185-3.479-4.6,3.168-5.77Z" fill="#595959" stroke="#595959" stroke-miterlimit="10" stroke-width="0.5"/>
    <path id="Trazado_117483" data-name="Trazado 117483" d="M783.551,3570.363s33.913,5.565,29.474,97.215" fill="none" stroke="#595959" stroke-miterlimit="10" stroke-width="1" stroke-dasharray="6"/>
    <path id="Trazado_117484" data-name="Trazado 117484" d="M808.133,3655.763s172,.967,173.182,0,2.374-12.177,158.426,1.88" fill="none" stroke="#595959" stroke-miterlimit="10" stroke-width="1" stroke-dasharray="6"/>
    <line id="Línea_599" data-name="Línea 599" y2="113.753" transform="translate(840.515 3556.688)" fill="none" stroke="#3a3a3a" stroke-miterlimit="10" stroke-width="0.75"/>
    <line id="Línea_600" data-name="Línea 600" x1="6.04" y2="28.54" transform="translate(789.629 3556.688)" fill="none" stroke="#595959" stroke-miterlimit="10" stroke-width="1" stroke-dasharray="6"/>
    <line id="Línea_601" data-name="Línea 601" y2="113.753" transform="translate(874.022 3556.688)" fill="none" stroke="#3a3a3a" stroke-miterlimit="10" stroke-width="0.75"/>
    <line id="Línea_602" data-name="Línea 602" y2="113.753" transform="translate(908.538 3556.688)" fill="none" stroke="#3a3a3a" stroke-miterlimit="10" stroke-width="0.75"/>
    <line id="Línea_603" data-name="Línea 603" y2="113.753" transform="translate(942.178 3556.688)" fill="none" stroke="#3a3a3a" stroke-miterlimit="10" stroke-width="0.75"/>
    <line id="Línea_604" data-name="Línea 604" y2="106.898" transform="translate(977.877 3556.688)" fill="none" stroke="#3a3a3a" stroke-miterlimit="10" stroke-width="0.75"/>
    <line id="Línea_605" data-name="Línea 605" y2="106.898" transform="translate(1012.68 3556.688)" fill="none" stroke="#3a3a3a" stroke-miterlimit="10" stroke-width="0.75"/>
    <line id="Línea_606" data-name="Línea 606" y2="106.898" transform="translate(1047.491 3556.688)" fill="none" stroke="#3a3a3a" stroke-miterlimit="10" stroke-width="0.75"/>
    <line id="Línea_607" data-name="Línea 607" y2="106.898" transform="translate(1082.593 3556.688)" fill="none" stroke="#3a3a3a" stroke-miterlimit="10" stroke-width="0.75"/>
    <line id="Línea_608" data-name="Línea 608" y2="106.898" transform="translate(1117.105 3556.688)" fill="none" stroke="#3a3a3a" stroke-miterlimit="10" stroke-width="0.75"/>
    <line id="Línea_609" data-name="Línea 609" x1="350.112" transform="translate(789.629 3587.326)" fill="none" stroke="#3a3a3a" stroke-miterlimit="10" stroke-width="0.75"/>
    <line id="Línea_610" data-name="Línea 610" x1="339.016" transform="translate(806.093 3631.346)" fill="none" stroke="#3a3a3a" stroke-miterlimit="10" stroke-width="0.75"/>
    <g id="Grupo_61215" data-name="Grupo 61215">
      <g id="Grupo_61214" data-name="Grupo 61214" clip-path="url(#clip-path-2)">
        <g id="Grupo_61213" data-name="Grupo 61213">
          <g id="Grupo_61205" data-name="Grupo 61205">
            <g id="Grupo_61186" data-name="Grupo 61186">
              <path id="Trazado_117485" data-name="Trazado 117485" d="M944.1,3637.474l20.617,13.976s3.5-2.038,2.324-5.514-15.465-13.812-15.465-13.812Z" fill="#dd886b"/>
            </g>
            <g id="Grupo_61187" data-name="Grupo 61187">
              <path id="Trazado_117486" data-name="Trazado 117486" d="M947.8,3629.425l20.617,13.976s3.5-2.038,2.324-5.514-15.465-13.812-15.465-13.812Z" fill="#dd886b"/>
            </g>
            <g id="Grupo_61188" data-name="Grupo 61188">
              <path id="Trazado_117487" data-name="Trazado 117487" d="M941.1,3646.685l10.839,9.4s4.093-.982,2.513-6.187-9.314-10.835-9.314-10.835Z" fill="#dd886b"/>
            </g>
            <path id="Trazado_117488" data-name="Trazado 117488" d="M1169.489,3525.809c-22.135,7.881-186.581,62.463-186.581,62.463s-27.786,13.452-41.462,24.624c-2.83,2.3-13.816,23.913-12.869,26.235a11.647,11.647,0,0,0,2.865,3.994c0,.132-.006.269.006.4.321,3.449,10.981,19.688,10.981,19.688,9.943-1.834,2.261-17.12,1.47-19.294-.369-1.014,4.727-6.023,9.262-10.216a10.581,10.581,0,0,1,2.486-.773c5.183-.694,12.986,4.472,12.484,6.607s-5.156,12.727-5.156,12.727-15.908.355-13.142,7.745c0,0,14.952,3.048,19.321.611s16.571-20.967,17.5-23.079,8.8-20.355,13.252-24.941c3.406-3.526,151.159-42.069,169.586-44.828Z" fill="#ffa780"/>
            <g id="Grupo_61189" data-name="Grupo 61189">
              <path id="Trazado_117489" data-name="Trazado 117489" d="M943.365,3625.909c-3.387,3.77-12.5,14.276-11.862,17.122l-.542-.542c-.829-3.78,10.489-15.733,11.766-17.154Z" fill="#dd886b"/>
            </g>
            <g id="Grupo_61190" data-name="Grupo 61190">
              <path id="Trazado_117490" data-name="Trazado 117490" d="M936.362,3620.717c.98-.775,1.965-1.542,2.969-2.278a3.191,3.191,0,0,1-1.374-.539C937.444,3618.775,936.908,3619.721,936.362,3620.717Z" fill="#ffa780"/>
            </g>
            <g id="Grupo_61191" data-name="Grupo 61191">
              <path id="Trazado_117491" data-name="Trazado 117491" d="M941.768,3617.2c-.058.06-5.841,6.047-7.53,8.649l-.267-.641a99.742,99.742,0,0,1,7.18-8.6Z" fill="#dd886b"/>
            </g>
            <g id="Grupo_61201" data-name="Grupo 61201">
              <g id="Grupo_61196" data-name="Grupo 61196">
                <g id="Grupo_61192" data-name="Grupo 61192">
                  <path id="Trazado_117492" data-name="Trazado 117492" d="M954.6,3667.891c-1.512-.429-38.694-43.757-47.027-53.483a5.885,5.885,0,0,1-1.362-4.859,5.088,5.088,0,0,1,8.717-2.21c12.571,13.174,44.638,57.558,44.638,57.558Z" fill="#1e9dd0"/>
                </g>
                <g id="Grupo_61193" data-name="Grupo 61193">
                  <path id="Trazado_117493" data-name="Trazado 117493" d="M906.24,3609.442a5.094,5.094,0,0,1,8.141-.773c11.648,12.205,40.025,51.193,44.135,56.861l1.051-.633s-32.067-44.384-44.638-57.558A5.088,5.088,0,0,0,906.24,3609.442Z" fill="#048db7"/>
                </g>
                <g id="Grupo_61194" data-name="Grupo 61194">
                  <path id="Trazado_117494" data-name="Trazado 117494" d="M959.567,3664.894l2.328,5.755,2.153,5.312-4.737-4.052-4.712-4.017Z" fill="#de956a"/>
                </g>
                <g id="Grupo_61195" data-name="Grupo 61195">
                  <path id="Trazado_117495" data-name="Trazado 117495" d="M961.9,3670.649l2.152,5.312-4.737-4.053A20.909,20.909,0,0,1,961.9,3670.649Z" fill="#f95150"/>
                </g>
              </g>
              <g id="Grupo_61200" data-name="Grupo 61200">
                <g id="Grupo_61197" data-name="Grupo 61197">
                  <path id="Trazado_117496" data-name="Trazado 117496" d="M911.139,3605.873a4.629,4.629,0,1,1-4.9,4.474A4.7,4.7,0,0,1,911.139,3605.873Z" fill="#048db7"/>
                </g>
                <g id="Grupo_61198" data-name="Grupo 61198">
                  <path id="Trazado_117497" data-name="Trazado 117497" d="M910.919,3606.1a4.214,4.214,0,1,1-4.325,4.079A4.2,4.2,0,0,1,910.919,3606.1Z" fill="#de956a"/>
                </g>
                <g id="Grupo_61199" data-name="Grupo 61199">
                  <path id="Trazado_117498" data-name="Trazado 117498" d="M910.616,3608.718a1.274,1.274,0,1,1-1.308,1.233A1.271,1.271,0,0,1,910.616,3608.718Z" fill="#f95150"/>
                </g>
              </g>
            </g>
            <g id="Grupo_61204" data-name="Grupo 61204">
              <g id="Grupo_61202" data-name="Grupo 61202">
                <path id="Trazado_117499" data-name="Trazado 117499" d="M968.537,3639.275a81.506,81.506,0,0,0,13.668,5.331c-4.2,6.23-10.234,14.442-13.051,16.01-2.755,1.538-9.744.893-14.509.2-2.222-.313-3.959-.641-4.571-.761-.161-.036-.241-.048-.241-.048-2.766-7.39,13.142-7.745,13.142-7.745S967.07,3643.188,968.537,3639.275Z" fill="#ffa780"/>
              </g>
              <g id="Grupo_61203" data-name="Grupo 61203">
                <path id="Trazado_117500" data-name="Trazado 117500" d="M954.976,3657.692l-.331,3.121c-2.222-.313-3.959-.641-4.571-.761C950.294,3658.514,952.458,3657.461,954.976,3657.692Z" fill="#f2d1c2"/>
              </g>
            </g>
          </g>
          <g id="Grupo_61212" data-name="Grupo 61212">
            <g id="Grupo_61206" data-name="Grupo 61206">
              <path id="Trazado_117501" data-name="Trazado 117501" d="M1052.505,3649.122l1.258,1.726,19.59,26.94,9.154,9.754,86.982,6.789-1.274,40.248L1066.97,3716.7s-29.159-2.216-33.42-3.209c-3.318-.772-19.362-2.209-26.322-2.813a3.425,3.425,0,0,1-3.14-3.523,3.44,3.44,0,0,1,3.286-3.32l20.055-.85-28.957-7.633a3.342,3.342,0,0,1,.956-6.575l27.38,1.917-28.728-11.363a3.412,3.412,0,0,1,1.221-6.637,2.744,2.744,0,0,1,.3.02l30.663,4.455-19.554-20.082a2.7,2.7,0,0,1,3.335-4.207c6.2,3.853,26.869,16.162,28.632,16.632,8.463,2.258,11.522,1.345,11.522,1.345s-8.418-18.063-7.912-20.622c.011-.03.011-.05.022-.08a3.292,3.292,0,0,1,3.1-2.579A3.443,3.443,0,0,1,1052.505,3649.122Z" fill="#ffa780"/>
            </g>
            <g id="Grupo_61207" data-name="Grupo 61207">
              <path id="Trazado_117502" data-name="Trazado 117502" d="M1008.747,3704.9l-.156,4.919c-2.15-.1-3.841-1.238-3.8-2.582S1006.594,3704.861,1008.747,3704.9Z" fill="#f2d1c2"/>
            </g>
            <g id="Grupo_61208" data-name="Grupo 61208">
              <path id="Trazado_117503" data-name="Trazado 117503" d="M1001.246,3689.7l-.62,4.881c-2.132-.3-3.708-1.6-3.538-2.929S999.106,3689.465,1001.246,3689.7Z" fill="#f2d1c2"/>
            </g>
            <g id="Grupo_61209" data-name="Grupo 61209">
              <path id="Trazado_117504" data-name="Trazado 117504" d="M1001.04,3673.714l-1,4.818c-2.1-.47-3.571-1.882-3.3-3.2S998.925,3673.308,1001.04,3673.714Z" fill="#f2d1c2"/>
            </g>
            <g id="Grupo_61210" data-name="Grupo 61210">
              <path id="Trazado_117505" data-name="Trazado 117505" d="M1015.248,3654.223l-2.582,3.674c-1.59-1.154-2.31-2.869-1.605-3.872S1013.623,3653.118,1015.248,3654.223Z" fill="#f2d1c2"/>
            </g>
            <g id="Grupo_61211" data-name="Grupo 61211">
              <path id="Trazado_117506" data-name="Trazado 117506" d="M1052.505,3649.122l1.258,1.726-3.169,2.182c-1.466-2.187-1.949-4.485-1.181-5.451A3.443,3.443,0,0,1,1052.505,3649.122Z" fill="#f2d1c2"/>
            </g>
          </g>
        </g>
      </g>
    </g>
    <line id="Línea_611" data-name="Línea 611" x1="9.879" y2="21.967" transform="translate(877.237 3678.476)" fill="none" stroke="#706f6f" stroke-miterlimit="10" stroke-width="1"/>
  </g>
</svg>
