<svg xmlns="http://www.w3.org/2000/svg" xmlns:xlink="http://www.w3.org/1999/xlink" width="256" height="179" viewBox="0 0 256 179">
  <defs>
    <clipPath id="clip-path">
      <rect id="Rectángulo_7440" data-name="Rectángulo 7440" width="256" height="179" rx="9" transform="translate(2787.846 1660.908)" fill="none"/>
    </clipPath>
  </defs>
  <g id="Grupo_60921" data-name="Grupo 60921" transform="translate(-2787.846 -1660.908)">
    <rect id="Rectángulo_7440-2" data-name="Rectángulo 7440" width="256" height="179" rx="9" transform="translate(2787.846 1660.908)" fill="#fff"/>
    <g id="Grupo_60925" data-name="Grupo 60925">
      <g id="Grupo_60924" data-name="Grupo 60924" clip-path="url(#clip-path)">
        <g id="Grupo_60923" data-name="Grupo 60923">
          <path id="Trazado_116484" data-name="Trazado 116484" d="M3055.813,1766.064c.388-1.012,9.426-24.964,1.983-41.275a23.036,23.036,0,0,0-13.622-12.424c-27.511-9.983-47.961,22.669-48.165,23l2.555,1.572c.192-.312,19.382-30.9,44.586-21.751a20.136,20.136,0,0,1,11.914,10.843c6.922,15.159-1.961,38.723-2.052,38.959Z" fill="#272f32"/>
          <path id="Trazado_116485" data-name="Trazado 116485" d="M2987.115,1612.319s23.525,33.458,25.355,44.959-4.966,49.4-41.038,75.542l-12.808-7.842s25.364-45.327,19.343-68.745S2932.746,1605,2933.53,1605,2987.115,1612.319,2987.115,1612.319Z" fill="#ffa780"/>
          <path id="Trazado_116486" data-name="Trazado 116486" d="M3121.469,1764.41s-410.381-9.165-459,5.432-73.189,50.58,28.753,71.627,467.365,4.753,467.365,4.753Z" fill="#28848f"/>
          <path id="Trazado_116487" data-name="Trazado 116487" d="M3158.587,1815.942v10.81l-15.335-3.317-4.182-10.455h11.4Z" fill="#28848f"/>
          <path id="Trazado_116488" data-name="Trazado 116488" d="M3121.469,1752.947s-410.381-7.058-459,4.182-73.189,38.947,28.753,55.153,467.365,3.66,467.365,3.66Z" fill="#36b1bf"/>
          <path id="Trazado_116489" data-name="Trazado 116489" d="M3005.412,1750.76l55.938,67.807,3.659,108.727-166.657-86.52,3.812,53.323-45.744-1.568-31.628-71.955L2822.7,1805.3s25.826,1.24,15.422-24.036-33.553-9.941-33.553-9.941l-7.354-21.643Z" fill="#dcd0c9" style="isolation: isolate"/>
          <path id="Trazado_116490" data-name="Trazado 116490" d="M2983.843,1794.108l3.469,9.214s-33.37,8.47-65.08,5.816-42.928-10.828-42.928-10.828l9.031-4.389,14.332,2.987,49.5-1.317Z" fill="#272f32"/>
          <g id="Grupo_60921-2" data-name="Grupo 60921">
            <path id="Trazado_116491" data-name="Trazado 116491" d="M2921.75,1745.659c-23.055,11.257-37.428,52.675-37.428,52.675s33.883,16.907,98.057,1.541c0,0,6.44-11.988,27.258-21.073,0,0,.01-30.43-13.906-46.645C2995.731,1732.157,2944.8,1734.4,2921.75,1745.659Zm66.824,2.225c-18.588,13.351-35.647,9.835-35.647,9.835C2973.541,1747.529,2988.574,1747.884,2988.574,1747.884Z" fill="#daeaef"/>
          </g>
          <g id="Grupo_60922" data-name="Grupo 60922">
            <path id="Trazado_116492" data-name="Trazado 116492" d="M2921.75,1745.659c-23.055,11.257-37.428,52.675-37.428,52.675s33.883,16.907,98.057,1.541c0,0,6.44-11.988,27.258-21.073,0,0,.01-30.43-13.906-46.645C2995.731,1732.157,2944.8,1734.4,2921.75,1745.659Zm66.824,2.225c-18.588,13.351-35.647,9.835-35.647,9.835C2973.541,1747.529,2988.574,1747.884,2988.574,1747.884Z" fill="#daeaef"/>
          </g>
          <path id="Trazado_116493" data-name="Trazado 116493" d="M2971.818,1762.4a22.631,22.631,0,0,0-.029-3.362c-.162-1.446-1.626,1.028-1.626,1.028l.823,2.6Z" fill="#a7a9ac"/>
          <path id="Trazado_116494" data-name="Trazado 116494" d="M2804.57,1771.323s31.831-1.516,48.126-14.4c0,0,31.074,13.263,39.032,9.095l30.547-1.74" fill="none" stroke="#b59b93" stroke-miterlimit="10" stroke-width="1"/>
          <path id="Trazado_116495" data-name="Trazado 116495" d="M2952.954,1757.8c-9.536,2.051-16.571,6.949-15.713,10.939s9.285,5.563,18.821,3.512,16.57-6.949,15.712-10.939S2962.49,1755.753,2952.954,1757.8Z" fill="#a7a9ac"/>
          <ellipse id="Elipse_4940" data-name="Elipse 4940" cx="17.661" cy="7.391" rx="17.661" ry="7.391" transform="translate(2935.702 1759.242) rotate(-12.139)" fill="#e6e7e8"/>
          <path id="Trazado_116496" data-name="Trazado 116496" d="M2976.512,1758.055c-.313-.986.734-2.5,4.2-3.6,2.327-.737,4.616.039,4.932,1.819C2986.157,1759.182,2977.527,1761.259,2976.512,1758.055Z" fill="#ff3d2e"/>
          <path id="Trazado_116497" data-name="Trazado 116497" d="M2943.473,1762.276s-2.426,6.673,12.9,3.675,7.989-12.335-3.436-9.11S2943.473,1762.276,2943.473,1762.276Z" fill="#d1d3d4"/>
          <path id="Trazado_116498" data-name="Trazado 116498" d="M2942.225,1770.225a30.978,30.978,0,0,0,13.174-.107l-.52-2.778a16.6,16.6,0,0,1-9.875-.235Z" fill="#bcbec0"/>
          <path id="Trazado_116499" data-name="Trazado 116499" d="M2971.653,1760.906c-.561-1.551-2.329-2.7-4.877-3.355l-1.552.585c3.052,3.787-1.789,6.2-1.789,6.2l2.2,2.241C2968.809,1764.865,2971,1762.849,2971.653,1760.906Z" fill="#bcbec0"/>
          <path id="Trazado_116500" data-name="Trazado 116500" d="M2884.754,1797.145c-.286.768-.432,1.189-.432,1.189s33.883,16.907,98.057,1.541c0,0,4.377-8.145,17.572-16.095l-.969-8.371s-35.1,16.871-64.607,23A106.119,106.119,0,0,1,2884.754,1797.145Z" fill="#c7d9e0"/>
          <path id="Trazado_116501" data-name="Trazado 116501" d="M2930.545,1783.1s7.576-29.678,60.181-35.81c1.91-.223-3.224-6.987-3.224-6.987l-8.2-.89-56.814,12.741-13.727,19.458-3.538,14.685S2919.106,1787.163,2930.545,1783.1Z" fill="#6eb2bf"/>
          <path id="Trazado_116502" data-name="Trazado 116502" d="M2983.007,1733.039c-16.625,1.43-45.472,4.913-61.257,12.62-13.746,6.711-24.405,24.144-30.773,37.129a35.458,35.458,0,0,0,14.25,3.507s11.149-26.207,29.386-33.742,53.855-12.389,53.855-12.389A27.664,27.664,0,0,0,2983.007,1733.039Z" fill="#daeaef"/>
          <path id="Trazado_116503" data-name="Trazado 116503" d="M2983.007,1733.039c-16.625,1.43-45.472,4.913-61.257,12.62-13.746,6.711-24.405,24.144-30.773,37.129a32.682,32.682,0,0,0,8.608,2.842c2.14-5.265,11.669-26.483,29.1-34.362,18.476-8.351,53.287-12.806,58.39-13.426A28.841,28.841,0,0,0,2983.007,1733.039Z" fill="#c7d9e0"/>
          <path id="Trazado_116504" data-name="Trazado 116504" d="M2888.106,1779.813l-.328,1.042s6.965,2.591,8.113,2.753c0,0,3.829-1.964,1.459-7.266l-8.2-.375-1.978,4.141Z" fill="#5e98a3"/>
          <path id="Trazado_116505" data-name="Trazado 116505" d="M2887.778,1780.855c.627,0,3.608-2.461,2.095-4.468S2885.066,1780.837,2887.778,1780.855Z" fill="#7cc8d6"/>
          <path id="Trazado_116506" data-name="Trazado 116506" d="M2888.01,1779.068c.215,0,1.236-.843.718-1.531S2887.08,1779.062,2888.01,1779.068Z" fill="#4a7982"/>
          <path id="Trazado_116507" data-name="Trazado 116507" d="M2922.56,1775.156c-16.731,15.31-29.883,12.992-33.047,10.7-1.677,3.6-2.969,6.7-3.845,8.916,43.734,7.677,106.335-16.757,112.072-25.352,3.425-5.132.966-7.534-.529-6.743C2934.844,1795.648,2922.56,1775.156,2922.56,1775.156Z" fill="#6eb2bf"/>
          <path id="Trazado_116508" data-name="Trazado 116508" d="M2978.418,1758.544s3.773.363,4.7-1.34S2975.548,1757.561,2978.418,1758.544Z" fill="#ff892e"/>
          <line id="Línea_512" data-name="Línea 512" x1="0.433" y1="1.366" transform="translate(2922.974 1749.223)" fill="#6eb2bf"/>
          <path id="Trazado_116509" data-name="Trazado 116509" d="M2924.772,1750.408l-2.036-1.939,9.359-7.625,10.847,2.147.108.906Z" fill="#4a7982"/>
          <path id="Trazado_116510" data-name="Trazado 116510" d="M2905.817,1756.527l1.531.748,3.758,5.795-4.51-1.4Z" fill="#4a7982"/>
          <path id="Trazado_116511" data-name="Trazado 116511" d="M2922.736,1748.47l-1.71-6.779,20.4-3.491,1.519,4.792Z" fill="#5e98a3"/>
          <path id="Trazado_116512" data-name="Trazado 116512" d="M2914.354,1754.732l2.327,1.5,5.594-4.008L2921,1749.85a34.54,34.54,0,0,0-4.035-1.055C2916.663,1748.89,2914.354,1754.732,2914.354,1754.732Z" fill="#4a7982"/>
          <path id="Trazado_116513" data-name="Trazado 116513" d="M2919.059,1743.732l1.484,2.549,1.733,5.94-3.5-3.023.032-4.143Z" fill="#4a7982"/>
          <path id="Trazado_116514" data-name="Trazado 116514" d="M2914.354,1754.732l-3.7-6.141a28.559,28.559,0,0,1,8.407-4.859l1.98,6.248Z" fill="#5e98a3"/>
          <path id="Trazado_116515" data-name="Trazado 116515" d="M2897.526,1771.051c.621,1.52,5.443,2.694,13.58-7.982,0,0-4.266-4.47-5.289-6.542C2905.817,1756.527,2896.276,1767.987,2897.526,1771.051Z" fill="#5e98a3"/>
          <path id="Trazado_116516" data-name="Trazado 116516" d="M2997.959,1743.34l4.91-4.815-8.2-9.25-6.637,4.444Z" fill="#6eb2bf"/>
          <path id="Trazado_116517" data-name="Trazado 116517" d="M2949.534,1769.465l-1.308,1.412c.752,0,1.528-.037,2.323-.1Z" fill="#808285"/>
          <path id="Trazado_116518" data-name="Trazado 116518" d="M2971.477,1761.343l-4.216.386,3.174,1.21A6.884,6.884,0,0,0,2971.477,1761.343Z" fill="#808285"/>
          <path id="Trazado_116519" data-name="Trazado 116519" d="M2988.034,1733.719l1.34,1.3.069-.022.208.034c1.439.242,7.494,1.42,11.981,4.708l1.237-1.213-8.2-9.25Z" fill="#63a0ab"/>
          <path id="Trazado_116520" data-name="Trazado 116520" d="M2924.786,1794.77c34.961-4.658,68.808-19.141,72.954-25.353,3.425-5.132.966-7.534-.529-6.743-36.573,19.336-55.924,20.286-65.674,17.765A147.748,147.748,0,0,0,2924.786,1794.77Z" fill="#cedde0" style="mix-blend-mode: multiply;isolation: isolate"/>
          <path id="Trazado_116521" data-name="Trazado 116521" d="M2931.112,1890.4l-28.948,3.7-45.744-1.568-31.628-71.955c148.38,13.7,236.558-2.007,236.558-2.007l3.659,108.727Z" fill="#d8c3ba"/>
          <path id="Trazado_116522" data-name="Trazado 116522" d="M2747.474,1654.23c1.776-10.69,14.116-24.627,22.771-33.278,3.885,5.147,12.951,16.189,22.817,21.436-4.32,5.643-9.014,12.654-11.453,19.138-5.234,13.917,36.214,88.5,36.214,88.5l-12.55,5.347C2766.843,1726.184,2744.7,1670.927,2747.474,1654.23Z" fill="#ffa780"/>
          <path id="Trazado_116523" data-name="Trazado 116523" d="M2958.624,1724.978s-.317-.115-.9-.256a20.853,20.853,0,0,0-14.669,2.173,22.682,22.682,0,0,0-10.626,12.843l8.478-1.484s.223,27.175,5.089,28.01c4.911.841,6.088-7.305,6.088-7.305s.156,12.372,4.879,12.372c4.111,0,5.577-12.9,5.577-12.9s.346,9.44,4.716,9.448c4.216.008,2.9-20.106,2.9-20.106s3.708,16.409,7.194,15.537,1.219-21.434-5.925-30.495-7.842-8.592-7.842-8.592Z" fill="#ffa780"/>
          <path id="Trazado_116524" data-name="Trazado 116524" d="M3062.483,1852.237Z" fill="#bd2f40"/>
          <path id="Trazado_116525" data-name="Trazado 116525" d="M2869.7,1801.827a190.587,190.587,0,0,0,57.364,12.69S2889.4,1819.333,2869.7,1801.827Z" fill="#d8c3ba"/>
          <path id="Trazado_116526" data-name="Trazado 116526" d="M2867.787,1802.754s6.375,8.5,16.625,11.5C2884.412,1814.254,2870.037,1813.5,2867.787,1802.754Z" fill="#d8c3ba"/>
          <path id="Trazado_116527" data-name="Trazado 116527" d="M2817.823,1750.022c1.211.2,8.392,9.491,22.124,14.5s33.9,12.816,30.681,15.059-10.158-.028-10.158-.028,17.729,8.592,13.219,10.614-18.209-3.654-18.209-3.654,10.882,7.7,5.591,11.183-20.52-9.608-20.52-9.608,15.544,11.489,10.522,13.525-26.157-10.977-32.675-18.544-13-21.394-13.125-27.7-2.9-8.334-.225-8.2S2817.823,1750.022,2817.823,1750.022Z" fill="#ffa780"/>
        </g>
      </g>
    </g>
    <path id="Trazado_116528" data-name="Trazado 116528" d="M2825.72,1820.849a43.7,43.7,0,0,1,31.074,13.642" fill="none" stroke="#b59b93" stroke-miterlimit="10" stroke-width="1"/>
    <text id="Muesca_del_cuello." data-name="Muesca del 
cuello." transform="translate(2816.974 1704.219)" font-size="12" font-family="MyriadPro-Regular, Myriad Pro"><tspan x="0" y="0">Muesca del </tspan><tspan x="0" y="14.4">cuello.</tspan></text>
    <text id="Derecho" transform="translate(2897.019 1679.493)" font-size="12" font-family="MyriadPro-Regular, Myriad Pro"><tspan x="0" y="0">Derecho</tspan></text>
    <line id="Línea_513" data-name="Línea 513" y2="32.968" transform="translate(2851.905 1721.695)" fill="none" stroke="#706f6f" stroke-miterlimit="10" stroke-width="1"/>
    <line id="Línea_514" data-name="Línea 514" y2="98.716" transform="translate(2892.832 1672.432)" fill="none" stroke="#706f6f" stroke-miterlimit="10" stroke-width="1"/>
  </g>
</svg>
