<svg xmlns="http://www.w3.org/2000/svg" width="796" height="238" viewBox="0 0 796 238"><g transform="translate(-284 -10962.659)"><rect width="796" height="238" transform="translate(284 10962.659)" fill="#fff"/><g transform="translate(-250 209.659)"><g transform="translate(120 -213)"><path d="M-7039.333-708.667v85.333l16.68,16.68h63.32l16.68-16.68v-85.333Z" transform="translate(7785.333 11699.667)" fill="#ff9696" stroke="#5b4d52" stroke-width="2"/><path d="M2366.817,1193.9l3.021,1.093a24.3,24.3,0,0,1-3.825-6.875,24.324,24.324,0,0,1-3.825,6.875l3.021-1.093v65.144l-3.021-1.093a24.316,24.316,0,0,1,3.825,6.875,24.292,24.292,0,0,1,3.825-6.875l-3.021,1.093Z" transform="translate(-1572.188 9815.881)" fill="#5b4d52"/></g><rect width="200" height="60" rx="6" transform="translate(814 10898)" fill="#ff9696" opacity="0.25"/><g transform="translate(0 1)"><path d="M2366.817,1193.9l3.021,1.093a24.3,24.3,0,0,1-3.825-6.875,24.324,24.324,0,0,1-3.825,6.875l3.021-1.093v65.144l-3.021-1.093a24.316,24.316,0,0,1,3.825,6.875,24.292,24.292,0,0,1,3.825-6.875l-3.021,1.093Z" transform="translate(-1657.188 9617.881)" fill="#5b4d52"/><g transform="translate(-2328.455 10453.146)"><g transform="translate(2970.455 352.854)"><rect width="51.604" height="2.789" fill="#ffc49d"/><path d="M3018.9,356.507h-42.451l8.688,12.008h25.076Z" transform="translate(-2971.871 -353.717)" fill="#e6b18e"/></g><g transform="translate(2970.455 414.766)"><rect width="51.604" height="2.789" transform="translate(0 12.008)" fill="#ffc49d"/><path d="M3018.9,445.939h-42.451l8.688-12.008h25.076Z" transform="translate(-2971.871 -433.931)" fill="#e6b18e"/></g><rect width="31.555" height="47.246" transform="translate(2980.566 367.324)" fill="#c46588"/><path d="M2984.607,416.463a1.337,1.337,0,0,1-.323-2.634l24.034-6.009-24.129-5.315a1.336,1.336,0,0,1,0-2.611l23.526-5.146-23.545-5.519a1.336,1.336,0,0,1,.037-2.61l22.857-4.694-23.049-4.65a1.337,1.337,0,1,1,.528-2.621l29.486,5.949a1.336,1.336,0,0,1,0,2.619l-23.332,4.792,23.369,5.477a1.336,1.336,0,0,1-.02,2.607l-23.34,5.106,23.734,5.228a1.337,1.337,0,0,1,.037,2.6l-29.55,7.387A1.329,1.329,0,0,1,2984.607,416.463Z" transform="translate(-2.952 -5.147)" fill="#d97096"/></g><rect width="200" height="60" rx="6" transform="translate(573 10897)" fill="#ff9696" opacity="0.25"/><text transform="translate(592 10902)" fill="#12263f" font-size="16" font-family="Roboto-Regular, Roboto"><tspan x="15.289" y="17">Hilo marcado para </tspan><tspan x="3.746" y="41">rotar en 2 direcciones</tspan></text></g><text transform="translate(833 10916)" fill="#12263f" font-size="16" font-family="Roboto-Regular, Roboto"><tspan x="4.238" y="17">Hilo en molde bolsillo</tspan></text><g transform="translate(0 1)"><path d="M-7039.334-708.667v60.47l11.82,11.82h44.87l11.819-11.82v-60.47Z" transform="translate(8116.834 11519.085)" fill="#ff9696" stroke="#5b4d52" stroke-width="2"/><path d="M0,0V60.47l11.82,11.82H56.69L68.51,60.47V0Z" transform="translate(1227.548 10882.708) rotate(180)" fill="#ff9696" stroke="#5b4d52" stroke-width="2"/><path d="M2368.48,1192.217l4.1.774a18.779,18.779,0,0,1-5.2-4.872,18.765,18.765,0,0,1-5.2,4.872l4.106-.774v46.163l-4.106-.774a18.757,18.757,0,0,1,5.2,4.872,18.771,18.771,0,0,1,5.2-4.872l-4.1.774Z" transform="translate(-1255.679 9630.923)" fill="#5b4d52"/><path d="M6.293,4.1l4.1.774A18.786,18.786,0,0,1,5.2,0,18.765,18.765,0,0,1,0,4.872L4.106,4.1V50.26L0,49.486a18.757,18.757,0,0,1,5.2,4.872,18.777,18.777,0,0,1,5.2-4.872l-4.1.774Z" transform="translate(1198.538 10874.084) rotate(180)" fill="#5b4d52"/><path d="M2226.305,1143.755a29.6,29.6,0,0,0-18.491-10.87l-.469,2.906a26.7,26.7,0,0,1,4.551,51.588l.791-4.144a35.583,35.583,0,0,1-9.054,7.117,35.546,35.546,0,0,1,10.821,3.94l-2.177-3.931a29.589,29.589,0,0,0,14.027-46.606Z" transform="translate(-959.766 9671.64)" fill="#ffad54"/><rect width="238" height="60" rx="6" transform="translate(1054 10897)" fill="#ff9696" opacity="0.25"/><text transform="translate(1063 10902)" fill="#12263f" font-size="16" font-family="Roboto-Regular, Roboto"><tspan x="2.402" y="17">Bolsillos tizados en la tela con </tspan><tspan x="20.348" y="41">rotación en 2 direcciones</tspan></text></g></g></g></svg>