<svg xmlns="http://www.w3.org/2000/svg" xmlns:xlink="http://www.w3.org/1999/xlink" width="170.823" height="316" viewBox="0 0 170.823 316">
  <defs>
    <linearGradient id="linear-gradient" y1="0.5" x2="1" y2="0.5" gradientUnits="objectBoundingBox">
      <stop offset="0" stop-color="#f08e73"/>
      <stop offset="1" stop-color="#f9b99d"/>
    </linearGradient>
    <linearGradient id="linear-gradient-3" y1="0.5" x2="1" y2="0.5" gradientUnits="objectBoundingBox">
      <stop offset="0" stop-color="#5f3759"/>
      <stop offset="1" stop-color="#3c3257"/>
    </linearGradient>
    <linearGradient id="linear-gradient-5" y1="0.5" x2="1" y2="0.5" gradientUnits="objectBoundingBox">
      <stop offset="0" stop-color="#fac383"/>
      <stop offset="1" stop-color="#f19b6c"/>
    </linearGradient>
  </defs>
  <g id="Grupo_60359" data-name="Grupo 60359" transform="translate(-911.216 -22.908)">
    <g id="Grupo_60358" data-name="Grupo 60358" transform="translate(911.216 22.908)">
      <g id="Grupo_60355" data-name="Grupo 60355">
        <path id="Trazado_115265" data-name="Trazado 115265" d="M918.46,202.842l-.718,6.066.718,4.786h4.067s2.633-4.068,2.633-4.307.478-4.705.478-5.024a22.62,22.62,0,0,0-1.754-2.871Z" transform="translate(-911.41 -28.205)" fill="#feb396"/>
        <path id="Trazado_115266" data-name="Trazado 115266" d="M914.629,148.016l-.94,4.931L917.7,202.1l7.968-.551L929,148.016Z" transform="translate(-911.29 -26.619)" fill="#271f37"/>
        <path id="Trazado_115267" data-name="Trazado 115267" d="M913.837,87.428l.8,58.791h14.375l3.472-57.2Z" transform="translate(-911.294 -24.822)" fill="#271f37"/>
        <path id="Trazado_115268" data-name="Trazado 115268" d="M998.109,339.56l-6.5.381-1.046.062-.1-.325-2.07-6.934-.158-.53,7.411-1.754.589,2.183.646,2.394Z" transform="translate(-913.501 -32.03)" fill="#f28a81"/>
        <path id="Trazado_115269" data-name="Trazado 115269" d="M945.307,266.318q-.1,3.24-.287,6.505c-.939,16.929-3.229,34.475-2.395,52.379H930.5l-9.822-78.246-1.19-3.223a6.6,6.6,0,0,1-.257-3.663l.469-2.18c0-.019,0-.043,0-.062-1.346-25.769-.753-37.413-.635-58.221.012-1.913.019-3.9.019-5.985s.043-3.961.11-5.681c.074-1.881.179-3.553.3-5.028.085-1.018.18-1.944.277-2.775a33.84,33.84,0,0,1,1.024-5.688c.167-.493,1.21-.614,2.445-.575h0a34.469,34.469,0,0,1,4.571.575l8.424-1.235.146.412,6.853,19.353s.993,9.348,1.632,23.081q.073,1.537.136,3.145c.226,5.58.383,11.77.392,18.271.006,4.955-.076,10.09-.276,15.279q-.071,1.891-.169,3.787v.006c-.13,2.589-.293,5.185-.491,7.771l0,.022A138.213,138.213,0,0,1,945.307,266.318Z" transform="translate(-911.443 -26.773)" fill="#51242c"/>
        <path id="Trazado_115270" data-name="Trazado 115270" d="M997.189,328.892l-2.183-.031-7.862-.118-1.388-.019S965,271.232,952.723,222.3c-.92-2.622-1.768-5.135-2.561-7.557-1.839-5.62-3.376-10.752-4.755-15.631v0c-.3-1.061-.589-2.107-.877-3.142-2.509-9.111-4.562-17.484-7.171-26.742h-2.078l-2.538-12.7-.432-2.166,9.873-1.815,10.166-1.87,3.446-.635s8.878,8.852,10.3,12.168a103.5,103.5,0,0,1,3.872,10.583c4.625,15.06,5.516,29.515,9.363,48.9C984.3,246.757,988.122,270.044,997.189,328.892Z" transform="translate(-911.842 -26.679)" fill="#5d343a"/>
        <path id="Trazado_115271" data-name="Trazado 115271" d="M935.884,65.478l2.714-.5s.17,1.353.158,1.576a4.114,4.114,0,0,1-.212,1.057c-.142.406-.132.631-.6.726a2.385,2.385,0,0,1-.987-.052,1.253,1.253,0,0,1-.188-.571A18.541,18.541,0,0,0,935.884,65.478Z" transform="translate(-911.948 -24.156)" fill="#b9c5ef"/>
        <path id="Trazado_115272" data-name="Trazado 115272" d="M917.873,89.89c.781-3.127-.212-7.841,1.288-8.786,5.378-3.389,7.126-7,10.252-8.829,1.309-.762,2.437-1.407,3.4-1.946.4-.226.774-.434,1.12-.623.8-.442,1.457-.793,1.972-1.063.342-.18.622-.324.844-.438s.368-.183.48-.238a42.24,42.24,0,0,0-.447,5.432s.152-1.716,2.034-5.46l12.694.672,1.4,1.105,17.708,14.376-10.049,39.333,3.746,23.043,1.026,6.312-45.352-2.4-.937-29.016Z" transform="translate(-911.414 -24.244)" fill="#ebfffe"/>
        <path id="Trazado_115273" data-name="Trazado 115273" d="M952.086,68.179l-12.695-.671c-1.879,3.746-2.032,5.461-2.032,5.461a42.2,42.2,0,0,1,.445-5.432l.4-3.628c5.711-.017,10.55-6.225,11.69-8.079a2.341,2.341,0,0,0,.35-1.116l.072-1.353.356.1.818,8.488v0l.385,3.976.023.255Z" transform="translate(-911.992 -23.811)" fill="url(#linear-gradient)"/>
        <path id="Trazado_115274" data-name="Trazado 115274" d="M958.425,36.735c-.456,3.337-3.932,8.4-3.932,8.4l-.79,1.514a16.472,16.472,0,0,1-3.583,1.985,16.909,16.909,0,0,1-1.438-2.5s-3.333-2.057-.374-6.218l-7.21-.9c-.486-.056-1.005-.537-.795-.943.758-1.454-.247-1.662-.683-1.544-6.576,1.8-8.565-1.275-8.731-1.558a.057.057,0,0,1-.011-.017l0,0,0,0a57.386,57.386,0,0,0-1.347,7.658,21.571,21.571,0,0,1-1.538-8.056c.309-5.838,5.221-5.437,5.221-5.437s.909-4.544,4.582-5.64c10.68-3.188,14.234,8.246,14.234,8.246S959.158,31.386,958.425,36.735Z" transform="translate(-911.714 -22.908)" fill="#773634"/>
        <path id="Trazado_115275" data-name="Trazado 115275" d="M951.563,50.6c-.032.1-.064.2-.1.3a2.72,2.72,0,0,1-1.3.174l-.165,3.108a2.308,2.308,0,0,1-.346,1.118,22.7,22.7,0,0,1-4.605,5.125,11.685,11.685,0,0,1-7.087,2.953c-.142,0-.287,0-.439-.014-3.719-.2-7.931-4.628-8.379-13.226a34.432,34.432,0,0,1,.424-7.166c.2-1.88.484-3.569.734-4.874.037-.206.079-.4.115-.584.279-1.374.5-2.2.5-2.2l0,0c0,.009,0,.014.01.018.169.282,2.159,3.354,8.73,1.56.439-.118,1.443.087.685,1.543-.211.406.311.885.794.94l7.211.908c-2.957,4.158.374,6.216.374,6.216s.114.255.315.638A16.685,16.685,0,0,0,950.153,49,8.276,8.276,0,0,0,951.563,50.6Z" transform="translate(-911.747 -23.276)" fill="url(#linear-gradient)"/>
        <path id="Trazado_115276" data-name="Trazado 115276" d="M954.853,49.94A5.552,5.552,0,0,1,951.941,53a2.591,2.591,0,0,1-.392.114,2.288,2.288,0,0,1-.552.078,2.94,2.94,0,0,1-.361-.018.252.252,0,0,1-.064-.014,2.223,2.223,0,0,1-.534-.15,2.464,2.464,0,0,1-1.205-1.191,4.119,4.119,0,0,1-.4-1.566,5.947,5.947,0,0,1,.068-1.26c.023-.132.05-.269.082-.407a6.6,6.6,0,0,1,.292-.954c.009-.027.023-.049.032-.077.022-.05.042-.1.064-.151.1-.219.2-.434.314-.638.055-.1.115-.2.179-.3a5.153,5.153,0,0,1,.31-.456,5.552,5.552,0,0,1,.507-.589,3.256,3.256,0,0,1,3.5-1.086A2.52,2.52,0,0,1,955.1,45.77,5.6,5.6,0,0,1,954.853,49.94Z" transform="translate(-912.32 -23.538)" fill="#feb396"/>
        <path id="Trazado_115277" data-name="Trazado 115277" d="M954.2,47.183a1.88,1.88,0,0,0-1.332-.695,4.041,4.041,0,0,0-2.332.791,6.45,6.45,0,0,1,2.435-2.053.141.141,0,0,0-.115-.258,5.975,5.975,0,0,0-3.029,3.124,4.246,4.246,0,0,0,.533,3.517.139.139,0,0,0,.115.07.131.131,0,0,0,.078-.018.141.141,0,0,0,.052-.193,3.973,3.973,0,0,1-.509-3.287c.035-.108.077-.213.12-.314a4.488,4.488,0,0,1,2.591-1.1l.042,0a1.609,1.609,0,0,1,1.137.6.141.141,0,1,0,.215-.182Z" transform="translate(-912.357 -23.562)" fill="#f28a81"/>
        <path id="Trazado_115278" data-name="Trazado 115278" d="M953.485,69.616l-.046.863-6.569,1.93-3.725.348-1.8.169-2.816.263-1.166.11a14.225,14.225,0,0,1,1.267-3.837c.021-.05.044-.1.068-.15q.3-.675.7-1.473.316-.627.7-1.33c4.551-.07,9.3.066,11.744-.626,1.021-.287,1.729-.685,1.89-1.218a.707.707,0,0,0,.03-.163Z" transform="translate(-911.992 -24.141)" fill="#b9c5ef"/>
        <path id="Trazado_115279" data-name="Trazado 115279" d="M939.9,106.281c.049,4.176.245,8.364.545,12.477.066.933.137,1.862.213,2.779.152,1.912.339,3.8.535,5.663.006.016.006.027.012.043.027.268.054.552.087.82v.011c0,.054.011.115.016.175.84,7.672,1.719,14.677,2.5,20.476.06.432.114.858.175,1.278.077.54.142,1.064.218,1.578,0,.016.006.027.006.044.011.1.027.2.038.295.11.786.224,1.594.333,2.408.661,4.685,1.388,9.571,1.846,12.645.29,1.939.48,3.162.48,3.162.263-.033.525-.06.781-.093.448-.049.879-.093,1.3-.131l.213-.017c10.839-.977,13.836,1.567,21.355,1.654.694.011,1.436-.006,2.222-.044-.846-4.259-1.627-7.792-2.342-10.839-2.233-9.469-3.849-14.186-5.045-21.1-.339-1.949-.639-4.085-.912-6.548-.12-1.075-.235-2.21-.344-3.428,0-.066,0-.1,0-.1l2.1-13.148.339-2.141.5-3.091V111.1l1.8-11.253c0-.006-.83-22.076-.83-22.076A62.338,62.338,0,0,1,956.676,71l-3.053-2.654-.551-.48a19.377,19.377,0,0,0-4.008,4.04C945.106,77,939.672,87.447,939.9,106.281Z" transform="translate(-912.067 -24.241)" fill="url(#linear-gradient-3)"/>
        <path id="Trazado_115280" data-name="Trazado 115280" d="M954.19,64.362l-.034.234c-.161.533-.869.931-1.89,1.218l-.347-3.6v0S954.19,62.648,954.19,64.362Z" transform="translate(-912.424 -24.074)" fill="#b9c5ef"/>
        <path id="Trazado_115281" data-name="Trazado 115281" d="M937.762,67.9a42.24,42.24,0,0,0-.447,5.432l-.591-.437a17.165,17.165,0,0,0-.138-3c-.04-.45-.091-.893-.148-1.316-.232-1.717-.553-3.077-.553-3.077a11.293,11.293,0,0,0,2.172.689C937.94,66.764,937.843,67.34,937.762,67.9Z" transform="translate(-911.948 -24.171)" fill="#b9c5ef"/>
        <path id="Trazado_115282" data-name="Trazado 115282" d="M938,66.183l-.773,1.95-.281.706-.415,1.047-.061.155v0l-.179.451h0l-.351.882-.107.271-1.423-2.015L934,69.052l1.205-2.346.625-1.212A11.292,11.292,0,0,0,938,66.183Z" transform="translate(-911.892 -24.171)" fill="#ebfffe"/>
        <path id="Trazado_115283" data-name="Trazado 115283" d="M953.632,68.253l-.553-.481a19.288,19.288,0,0,0-4,4.041l-2.121.6-5.335,1.508-.193-.99-.711-3.644-.542-2.774c4.409-.069,9,.059,11.509-.565.081-.018.161-.04.238-.061,1.021-.287,1.728-.685,1.889-1.219Z" transform="translate(-912.075 -24.146)" fill="#ebfffe"/>
        <g id="Grupo_60346" data-name="Grupo 60346" transform="translate(29.225 103.829)">
          <path id="Trazado_115284" data-name="Trazado 115284" d="M941.335,129.911c0,.06.013.119.019.178h0Q941.345,130,941.335,129.911Z" transform="translate(-941.335 -129.911)" fill="#fff"/>
        </g>
        <path id="Trazado_115285" data-name="Trazado 115285" d="M934.435,149c-4.22-25.323,2.546-74.958,2.615-75.456l.361.05c-.069.5-6.827,50.077-2.615,75.346Z" transform="translate(-911.864 -24.41)" fill="#b9c5ef" opacity="0.5"/>
        <path id="Trazado_115286" data-name="Trazado 115286" d="M949.379,79.641l4.13,3.756s-10.575,17.425-12.263,35.219c-.1,1.031-.169,2.058-.2,3.086a42.3,42.3,0,0,0,.15,5.431c-.2-1.858-.374-3.747-.534-5.655q-.076-.9-.146-1.807c-.023-.324-.046-.648-.069-.972-.3-4.117-.5-8.3-.548-12.474-.227-18.839,5.208-29.286,9.17-34.375,2.236-2.88,4.7-6.047,4.7-6.047s3.655,3.487,3.792,6.038Z" transform="translate(-912.067 -24.18)" fill="#271f37" opacity="0.75"/>
        <path id="Trazado_115287" data-name="Trazado 115287" d="M933.976,69.089l.411.581c-.345.19-.717.4-1.12.623.118-.47.184-.712.184-.712a10.828,10.828,0,0,1,1.729-2.838Z" transform="translate(-911.871 -24.208)" fill="#0e0e56"/>
        <path id="Trazado_115288" data-name="Trazado 115288" d="M939.633,72.2l-.56.922-.086.146-.466.768-2.088-.763-.043-1.554-.03-1.128h0v-.017a.57.57,0,0,1,.18-.434v0l1.008-.963.429-.409a.455.455,0,0,1,.7.087l.368.586.573.916A1.755,1.755,0,0,1,939.633,72.2Z" transform="translate(-911.962 -24.264)" fill="#e04c3d"/>
        <path id="Trazado_115289" data-name="Trazado 115289" d="M939.713,72.222a1.755,1.755,0,0,0-.014-1.845l-.574-.916c.176,0,.4,0,.66,0s.565-.016.9-.03l.71,3.645-2.324.217.086-.146Z" transform="translate(-912.043 -24.288)" fill="#932519"/>
        <path id="Trazado_115290" data-name="Trazado 115290" d="M937.552,69.182l-1.008.965.061-.157.415-1.047A4.362,4.362,0,0,0,937.552,69.182Z" transform="translate(-911.968 -24.273)" fill="#932519"/>
        <path id="Trazado_115291" data-name="Trazado 115291" d="M936.379,71.777a2.562,2.562,0,0,1-.381-.245l.351-.882Z" transform="translate(-911.952 -24.324)" fill="#932519"/>
        <path id="Trazado_115292" data-name="Trazado 115292" d="M936.382,132.949l-1.565,2.892-2.109-2.069c-6.453-24.522,3.552-60.36,3.552-60.36l2.088.763c-.047.274-.094.546-.141.817-4.33,25.3-4.275,40.691-3.451,49.189C935.362,130.427,936.382,132.949,936.382,132.949Z" transform="translate(-911.79 -24.406)" fill="#e04c3d"/>
        <path id="Trazado_115293" data-name="Trazado 115293" d="M936.513,124.3l-.808.808-.76-.729-.074-.153c-.824-8.5-.878-23.886,3.452-49.189C935.985,89.344,934.873,118.444,936.513,124.3Z" transform="translate(-911.905 -24.454)" fill="#932519"/>
        <path id="Trazado_115294" data-name="Trazado 115294" d="M923.363,154.363h20.394l-.049-.339-.333-2.348-19.9-1.354-.093,3.462Z" transform="translate(-911.577 -26.687)" fill="#250f19"/>
        <path id="Trazado_115295" data-name="Trazado 115295" d="M946.488,132.019l-2.714.2a.337.337,0,0,1-.361-.312h0a.338.338,0,0,1,.311-.362l2.715-.2a.337.337,0,0,1,.361.312h0A.338.338,0,0,1,946.488,132.019Z" transform="translate(-912.172 -26.124)" fill="#271f37" opacity="0.75"/>
        <path id="Trazado_115296" data-name="Trazado 115296" d="M947.688,144.875l-2.7.342a.337.337,0,0,1-.378-.292h0a.338.338,0,0,1,.293-.377l2.7-.343a.338.338,0,0,1,.378.293h0A.337.337,0,0,1,947.688,144.875Z" transform="translate(-912.207 -26.506)" fill="#271f37" opacity="0.75"/>
        <path id="Trazado_115297" data-name="Trazado 115297" d="M950.324,160.067l-2.7.342a.338.338,0,0,1-.377-.293h0a.338.338,0,0,1,.293-.377l2.7-.342a.338.338,0,0,1,.377.293h0A.338.338,0,0,1,950.324,160.067Z" transform="translate(-912.285 -26.956)" fill="#271f37" opacity="0.75"/>
        <path id="Trazado_115298" data-name="Trazado 115298" d="M940.592,330.46v5.063a5.736,5.736,0,0,0-3.017.764c-.7.581-2.577.69-3.519.706h-.766l-.446-6.533Z" transform="translate(-911.858 -32.03)" fill="#f28a81"/>
        <path id="Trazado_115299" data-name="Trazado 115299" d="M942.646,347.032l-.054.3-.209,1.187h-7.172l-.312-.353-.344-.392-23.225.7-.113-1.336a.1.1,0,0,1,.1-.109Z" transform="translate(-911.217 -32.522)" fill="#c08a9b"/>
        <path id="Trazado_115300" data-name="Trazado 115300" d="M942.435,345.952c-.011.244-.028.49-.049.735H911.333a3.612,3.612,0,0,1,2.741-2.965c1.064-.253,2.183-.567,3.321-.918,2.595-.8,5.29-1.8,7.664-2.737a42.078,42.078,0,0,0,6.4-3.079h1.667c1.031-.019,3.087-.138,3.851-.774,1.037-.864,3.776-.835,3.776-.835l.49,3.152A20.085,20.085,0,0,1,942.435,345.952Z" transform="translate(-911.22 -32.176)" fill="#6d2847"/>
        <path id="Trazado_115301" data-name="Trazado 115301" d="M922.021,341.347a24.9,24.9,0,0,0,9.668-5.844l.061.026a1.869,1.869,0,0,1,.181,3.3,18.8,18.8,0,0,1-9.4,2.731A.565.565,0,0,1,922.021,341.347Z" transform="translate(-911.537 -32.18)" fill="#963c58"/>
        <path id="Trazado_115302" data-name="Trazado 115302" d="M942.435,346.179c-.011.244-.028.49-.049.735H911.333a3.612,3.612,0,0,1,2.741-2.965c1.064-.253,2.183-.567,3.321-.918a13.348,13.348,0,0,0,9.04,3.049C932.141,346.1,940.111,346.162,942.435,346.179Z" transform="translate(-911.22 -32.403)" fill="#963c58"/>
        <g id="Grupo_60347" data-name="Grupo 60347" transform="translate(75.666 305.641)">
          <path id="Trazado_115303" data-name="Trazado 115303" d="M1008.221,347.877H989.2l.127-1.79.3-.149-.3-6.444a.884.884,0,0,1,.75-.916l.034.03a4.792,4.792,0,0,0,3,1.083,5.7,5.7,0,0,0,3.59-1.418,1.713,1.713,0,0,1,2.275.11C1001.752,341.1,1008.221,347.877,1008.221,347.877Z" transform="translate(-989.195 -337.892)" fill="#6d2847"/>
          <path id="Trazado_115304" data-name="Trazado 115304" d="M1008.812,346.855H990.1a7.993,7.993,0,0,1,.347-.863,11.587,11.587,0,0,1,3.556-4.49,8.852,8.852,0,0,1,3.265-1.5,8.682,8.682,0,0,1,1.235-.206c.113-.012.226-.023.342-.028.219-.015.445-.023.673-.023C1004.478,339.745,1008.812,346.855,1008.812,346.855Z" transform="translate(-989.222 -337.947)" fill="#963c58"/>
          <rect id="Rectángulo_7497" data-name="Rectángulo 7497" width="18.708" height="1.279" transform="translate(0.882 8.907)" fill="#c08a9b"/>
        </g>
        <path id="Trazado_115305" data-name="Trazado 115305" d="M998.545,339.682a8.974,8.974,0,0,0-4.5,1.706,8.193,8.193,0,0,1-2.524-3.6,6.006,6.006,0,0,1-.192-.77,4.794,4.794,0,0,1,.775-.454,7.088,7.088,0,0,1,4.7-.479A25.841,25.841,0,0,0,998.545,339.682Z" transform="translate(-913.593 -32.191)" fill="#963c58"/>
        <path id="Trazado_115306" data-name="Trazado 115306" d="M990.424,346.184a8.415,8.415,0,0,0-.347.861v1.078H989.2l.126-1.791.3-.148Z" transform="translate(-913.53 -32.497)" fill="#963c58"/>
        <path id="Trazado_115307" data-name="Trazado 115307" d="M926.853,341.638a.3.3,0,0,1-.088-.014l-2.666-.881a.282.282,0,0,1,.177-.536l2.211.731-.295-1.57a.281.281,0,0,1,.081-.255.277.277,0,0,1,.257-.072l3.082.687-.823-1.977a.282.282,0,1,1,.52-.216l1.032,2.478a.281.281,0,0,1-.321.383l-3.2-.712.3,1.619a.28.28,0,0,1-.091.265A.287.287,0,0,1,926.853,341.638Z" transform="translate(-911.593 -32.235)" fill="#fff"/>
        <path id="Trazado_115308" data-name="Trazado 115308" d="M948.752,46.5a6.977,6.977,0,0,0-.316.638c-.032.078-.064.152-.093.23-2.61-.841-3.318-4.448-1.212-6.551-9.223.415-7.735-.865-7.971-2.264-5.349,1.541-7.9.263-8.826-.461.037-.2.076-.4.114-.585.279-1.371.5-2.2.5-2.2l0,0,0,0a.056.056,0,0,0,.011.017c.166.283,2.155,3.353,8.731,1.558.436-.118,1.441.09.683,1.544-.211.407.309.887.795.943l7.21.9C945.419,44.445,948.752,46.5,948.752,46.5Z" transform="translate(-911.784 -23.276)" fill="#f28a81"/>
        <path id="Trazado_115309" data-name="Trazado 115309" d="M951.86,65.554c-.077.021-.157.043-.238.061l-1.2-8.663a15.108,15.108,0,0,1-5.779,5.621c-3.969,2.151-6.413,1.338-6.413,1.338,5.711-.017,10.549-6.225,11.69-8.079a2.341,2.341,0,0,0,.35-1.116l.067-1.27a2.465,2.465,0,0,0,.361.018l.818,8.488v0Z" transform="translate(-912.018 -23.814)" fill="#db6951" opacity="0.5"/>
        <path id="Trazado_115310" data-name="Trazado 115310" d="M944.468,244.361l0-.022c.2-2.586.361-5.183.491-7.771v-.006q.1-1.9.169-3.787c.2-5.189.282-10.324.277-15.279-.009-6.5-.166-12.69-.392-18.271v0c-.256-.909-.506-1.806-.753-2.7-2.478-8.967-4.5-17.2-7.025-26.224a1.318,1.318,0,0,0-1.268-.964h0a1.317,1.317,0,0,1-1.292-1.059l-.531-2.656c-.908-4.552,5.242-8.6,9.877-8.341,0,0-.225-1.941-.394-2.815H923.236l.017-.575h0L923,162.932l-.078,2.834h0l-.046,1.688-.1,4.1a17.4,17.4,0,0,0-2.481.6,9.3,9.3,0,0,0-1.193.427c0,1.867-.015,5.315-.026,7.044h0a8.51,8.51,0,0,1,11.278,3.2,60.46,60.46,0,0,0,6.457,9.338,42.524,42.524,0,0,1,2.925,3.916h0l1.756,23.21c.927,12.246-7.939,27.984-8.4,43.2s7.451,37.161,7.854,62.732h1.692c-.834-17.9,1.456-35.45,2.395-52.379q.182-3.265.287-6.505A138.192,138.192,0,0,0,944.468,244.361Z" transform="translate(-911.45 -26.793)" fill="#3d1b21" opacity="0.5"/>
        <path id="Trazado_115311" data-name="Trazado 115311" d="M935.388,150.237l-6.549-.451a.861.861,0,0,0-.652.231.87.87,0,0,0-.276.635v3.756a.869.869,0,0,0,.868.868h6.55a.869.869,0,0,0,.867-.868v-3.3A.87.87,0,0,0,935.388,150.237Zm.234,4.171a.294.294,0,0,1-.293.294h-6.55a.294.294,0,0,1-.294-.294v-2.08h2.931a.306.306,0,0,0,0-.611h-2.931v-1.064a.289.289,0,0,1,.094-.214.285.285,0,0,1,.2-.08h.021l6.549.451a.294.294,0,0,1,.274.293Z" transform="translate(-911.712 -26.671)" fill="#afa9cb"/>
        <path id="Trazado_115312" data-name="Trazado 115312" d="M999.1,339.642l-.191.108c-.115,0-.229.016-.342.028a8.7,8.7,0,0,0-1.235.206l.342-.192-5.3.46a.276.276,0,0,1-.3-.256.279.279,0,0,1,.257-.3l6.607-.575a.282.282,0,0,1,.163.527Z" transform="translate(-913.615 -32.287)" fill="#fff"/>
        <path id="Trazado_115313" data-name="Trazado 115313" d="M964.772,153.179,950.105,150.8v1.188l14.667,2.326Z" transform="translate(-912.37 -26.701)" fill="#271f37" opacity="0.75"/>
        <path id="Trazado_115314" data-name="Trazado 115314" d="M958.585,36.735c-.456,3.337-3.932,8.4-3.932,8.4v0a2.522,2.522,0,0,0-1.317-1.436c-1.276-.548-2.878.18-4.006,1.677a6.687,6.687,0,0,0-.489.753s-3.333-2.057-.374-6.218c.182-3.337-3.568-2.547-3.753-2.506.225-.146,4.806-3.145.484-9.3-4.427-6.308-11.828,1-11.828,1s.909-4.544,4.582-5.64c10.68-3.188,14.234,8.246,14.234,8.246S959.318,31.386,958.585,36.735Z" transform="translate(-911.874 -22.908)" fill="#63212d"/>
        <path id="Trazado_115315" data-name="Trazado 115315" d="M932.686,70.381a208.463,208.463,0,0,0-5.07,56.647l-1.552,41.819a17.248,17.248,0,0,0-7.124,1.237,16.188,16.188,0,0,0-3.624,1.945c3.947-37.137,1.579-51.007,1.214-55.023-.534-5.814-1.3-10.958-1.62-14.038-.547-5.349-2.455-14.532.01-21.013a9.768,9.768,0,0,1,1.123-2.259c1.57-2.145,3.947-1.685,13.08-7.9a25.973,25.973,0,0,1,3.747-2.131S932.806,69.912,932.686,70.381Z" transform="translate(-911.29 -24.295)" fill="url(#linear-gradient-3)"/>
        <path id="Trazado_115316" data-name="Trazado 115316" d="M934.9,66.743a10.828,10.828,0,0,0-1.729,2.838s-.066.243-.184.712a208.4,208.4,0,0,0-5.068,56.649c-5.429-15.44-4.176-46.125-4.176-46.125l3.962-1.074-.088-.634a10.917,10.917,0,0,1,4.539-10.439Z" transform="translate(-911.584 -24.208)" fill="#271f37" opacity="0.75"/>
        <g id="Grupo_60348" data-name="Grupo 60348" transform="translate(11.691 105.804)">
          <path id="Trazado_115317" data-name="Trazado 115317" d="M925.506,133.653c-.1.873-.669,1.526-1.284,1.462a.793.793,0,0,1-.231-.06,1.563,1.563,0,0,1-.712-1.642c.091-.873.665-1.526,1.28-1.462a.929.929,0,0,1,.664.43A1.887,1.887,0,0,1,925.506,133.653Z" transform="translate(-923.265 -131.947)" fill="#271f37" opacity="0.75"/>
          <path id="Trazado_115318" data-name="Trazado 115318" d="M925.957,134.033c-.094.873-.668,1.526-1.283,1.463a.935.935,0,0,1-.661-.428.8.8,0,0,0,.231.06c.615.064,1.189-.589,1.284-1.462a1.887,1.887,0,0,0-.283-1.272A1.568,1.568,0,0,1,925.957,134.033Z" transform="translate(-923.287 -131.96)" fill="#1d1729" opacity="0.75"/>
        </g>
        <g id="Grupo_60349" data-name="Grupo 60349" transform="translate(10.527 132.008)">
          <path id="Trazado_115319" data-name="Trazado 115319" d="M924.3,160.6c-.045.877-.583,1.562-1.2,1.528a.88.88,0,0,1-.24-.05,1.562,1.562,0,0,1-.795-1.6c.048-.877.586-1.559,1.2-1.525a.925.925,0,0,1,.685.392A1.885,1.885,0,0,1,924.3,160.6Z" transform="translate(-922.065 -158.951)" fill="#271f37" opacity="0.75"/>
          <path id="Trazado_115320" data-name="Trazado 115320" d="M924.777,160.954c-.045.877-.586,1.562-1.2,1.528a.931.931,0,0,1-.686-.394.88.88,0,0,0,.24.05c.618.034,1.157-.651,1.2-1.528a1.885,1.885,0,0,0-.346-1.255A1.559,1.559,0,0,1,924.777,160.954Z" transform="translate(-922.09 -158.963)" fill="#1d1729" opacity="0.75"/>
        </g>
        <g id="Grupo_60350" data-name="Grupo 60350" transform="translate(10.926 117.242)">
          <path id="Trazado_115321" data-name="Trazado 115321" d="M924.717,145.382c-.048.877-.586,1.562-1.2,1.528a.784.784,0,0,1-.234-.048,1.564,1.564,0,0,1-.8-1.6c.046-.876.584-1.559,1.2-1.525a.932.932,0,0,1,.686.395A1.885,1.885,0,0,1,924.717,145.382Z" transform="translate(-922.477 -143.734)" fill="#271f37" opacity="0.75"/>
          <path id="Trazado_115322" data-name="Trazado 115322" d="M925.189,145.738c-.048.877-.586,1.562-1.2,1.528a.935.935,0,0,1-.682-.392.783.783,0,0,0,.234.048c.618.034,1.157-.651,1.2-1.528a1.885,1.885,0,0,0-.346-1.252A1.564,1.564,0,0,1,925.189,145.738Z" transform="translate(-922.501 -143.746)" fill="#1d1729" opacity="0.75"/>
        </g>
        <path id="Trazado_115323" data-name="Trazado 115323" d="M918.99,173.154l-.028,2.505a13.424,13.424,0,0,1-3.6-.561A16.189,16.189,0,0,1,918.99,173.154Z" transform="translate(-911.34 -27.364)" fill="#2b204f"/>
        <path id="Trazado_115324" data-name="Trazado 115324" d="M941.427,154.487l2.866,18.745,4.368.426,19.466,3.14,2.659,39.407a192.658,192.658,0,0,0,10.222,50.245l3.222,9.267a126.3,126.3,0,0,1,5.307,20.886l4.729,28.64-8.24,3.615,11.433.17c-9.069-58.852-12.886-82.134-17.86-107.214-3.741-18.86-4.691-33.062-9-47.7-7.519-.087-10.516-2.632-21.355-1.654l-.213.017c-.42.038-.851.082-1.3.131v0c-.256.028-.513.055-.781.088,0,0-.19-1.224-.48-3.162-.458-3.074-1.185-7.961-1.846-12.645-.109-.814-.223-1.622-.333-2.408Z" transform="translate(-912.113 -26.811)" fill="#51242c" opacity="0.5"/>
        <g id="Grupo_60353" data-name="Grupo 60353" transform="translate(17.216 18.699)">
          <g id="Grupo_60351" data-name="Grupo 60351" transform="translate(8.982)">
            <path id="Trazado_115325" data-name="Trazado 115325" d="M942.6,45.5a.148.148,0,0,1-.049-.009,6.6,6.6,0,0,0-3.5-.245.143.143,0,0,1-.07-.278,6.787,6.787,0,0,1,3.667.254.143.143,0,0,1,.085.183A.144.144,0,0,1,942.6,45.5Z" transform="translate(-938.235 -42.257)" fill="#5e2023"/>
            <path id="Trazado_115326" data-name="Trazado 115326" d="M938.395,42.426a7.618,7.618,0,0,1,1.64-.242,7.753,7.753,0,0,1,1.658.11,7.836,7.836,0,0,1,.82.191c.134.042.267.093.4.14a3.021,3.021,0,0,1,.394.162,6.758,6.758,0,0,1,1.457.9.5.5,0,0,1-.606.8l-.028-.023-.028-.025a5.833,5.833,0,0,0-1.182-.865,2.451,2.451,0,0,0-.33-.169c-.113-.049-.225-.1-.34-.151a6.866,6.866,0,0,0-.714-.228,7.172,7.172,0,0,0-3.018-.125l-.017,0a.242.242,0,0,1-.106-.472Z" transform="translate(-938.216 -42.178)" fill="#4f1019"/>
          </g>
          <g id="Grupo_60352" data-name="Grupo 60352">
            <path id="Trazado_115327" data-name="Trazado 115327" d="M931.406,45.5a.147.147,0,0,0,.049-.009,6.6,6.6,0,0,1,3.5-.245.143.143,0,1,0,.07-.278,6.786,6.786,0,0,0-3.667.254.143.143,0,0,0,.049.278Z" transform="translate(-929.027 -42.257)" fill="#5e2023"/>
            <path id="Trazado_115328" data-name="Trazado 115328" d="M935.526,42.426a7.619,7.619,0,0,0-1.64-.242,7.744,7.744,0,0,0-1.657.11,7.858,7.858,0,0,0-.821.191c-.134.042-.266.093-.4.14a3.015,3.015,0,0,0-.393.162,6.741,6.741,0,0,0-1.458.9.5.5,0,0,0,.607.8l.028-.023.029-.025A5.8,5.8,0,0,1,931,43.568a2.456,2.456,0,0,1,.33-.169c.114-.049.225-.1.34-.151a6.866,6.866,0,0,1,.714-.228,7.1,7.1,0,0,1,1.5-.223,7.179,7.179,0,0,1,1.519.1l.016,0a.242.242,0,0,0,.106-.472Z" transform="translate(-928.959 -42.178)" fill="#4f1019"/>
          </g>
          <path id="Trazado_115329" data-name="Trazado 115329" d="M936.718,48.1c0,1.005-.033,2-.06,3-.016.5-.021.995-.023,1.49a13.217,13.217,0,0,0,.063,1.474l-.1-.12a8.208,8.208,0,0,0,1.088.325,5.766,5.766,0,0,0,1.136.149,4.263,4.263,0,0,1-1.166.041,6.267,6.267,0,0,1-1.155-.228l-.083-.025-.017-.1a9.124,9.124,0,0,1-.122-1.519c-.009-.5.012-1.007.045-1.508A21.736,21.736,0,0,1,936.718,48.1Z" transform="translate(-929.176 -42.354)" fill="#f28a81"/>
          <path id="Trazado_115330" data-name="Trazado 115330" d="M937.187,58.37c.389.029.773.042,1.156.048a7.739,7.739,0,0,0,1.135-.06,2.835,2.835,0,0,0,1.973-.95,1.838,1.838,0,0,1-.8.867,3.055,3.055,0,0,1-1.142.355A5.191,5.191,0,0,1,937.187,58.37Z" transform="translate(-929.203 -42.63)" fill="#f28a81"/>
        </g>
        <g id="Grupo_60354" data-name="Grupo 60354" transform="translate(51.841 166.106)">
          <path id="Trazado_115331" data-name="Trazado 115331" d="M964.793,212.34l1.694,4.926a.274.274,0,0,0,.259.184h.958a.274.274,0,0,0,.274-.274v-.839l.777-.031a.848.848,0,0,0,.793-.659l.4-1.763Z" transform="translate(-964.647 -194.632)" fill="#f28a81"/>
          <path id="Trazado_115332" data-name="Trazado 115332" d="M972.759,204.809s1.354,5.056,1.043,6.733a2.943,2.943,0,0,1-.7,1.436c-1.933,2.233-7.027,2.014-8.245-1.005-1.033-2.555,2.075-7.164,2.075-7.164l-.006-2.32v-2.982l-.011-5.416,7.257.306-.388,2.861Z" transform="translate(-964.642 -194.091)" fill="#feb396"/>
        </g>
        <path id="Trazado_115333" data-name="Trazado 115333" d="M982.011,147.426l-3.636,31.512-2.212,19.171-2.091-.082-.971-.038-4.729-.2-1.567-.071h-.011l-1-.038-.628-.027-.431-.016-.476-52.266a25.483,25.483,0,0,1,2.026-10.205l-2.119-11.849,0-.022-2.927-16.37a34.936,34.936,0,0,1,4.941-24.965l2.479-3.888,1.135.295a16.75,16.75,0,0,1,4.156,1.7c.382.218.753.459,1.114.71a16.433,16.433,0,0,1,3.565,3.336,16.189,16.189,0,0,1,3.489,8.922c.748,10.462-1.7,14.464-2.752,38.888C981.318,137.084,982.907,143.456,982.011,147.426Z" transform="translate(-912.684 -24.544)" fill="#583d66"/>
        <path id="Trazado_115334" data-name="Trazado 115334" d="M961.234,106.927l2.928,16.371,0,.021,2.119,11.849a25.487,25.487,0,0,0-2.026,10.205l.476,52.266.431.016.628.027c.906-10.68,4.516-54.592,3.489-63.29a7.013,7.013,0,0,0-.153-.873c-.163-.634-.322-1.267-.48-1.889-9.2-37.294,1.141-53.26,1.141-53.26l-1.135-.295-2.479,3.887A34.937,34.937,0,0,0,961.234,106.927Z" transform="translate(-912.684 -24.544)" fill="#271f37" opacity="0.5"/>
        <path id="Trazado_115335" data-name="Trazado 115335" d="M977.664,123.472a44.658,44.658,0,0,1,.273,4.489c.039,1.343.066,2.91.087,4.641.153,14.11-.2,39.325.759,46.418l3.637-31.512c.9-3.97-.694-10.342-2.648-15.5,1.054-24.424,3.5-28.427,2.752-38.889a16.2,16.2,0,0,0-3.489-8.922,16.457,16.457,0,0,0-3.565-3.336C975.408,81.095,972.1,95,977.664,123.472Z" transform="translate(-913.092 -24.627)" fill="#271f37" opacity="0.25"/>
      </g>
      <path id="Trazado_115336" data-name="Trazado 115336" d="M975.877,83.665l.194,1.474a.581.581,0,0,0,.639.5h0a.884.884,0,0,0,.769-.685l.766-3.4Z" transform="translate(-913.134 -24.647)" fill="#f2726b"/>
      <path id="Trazado_115337" data-name="Trazado 115337" d="M977.943,83.061l2.092-.669s4.623.374,5.417,3.082c1.849-1.33.827-3.99.795-4.071s-.016-.925-1.217-1.006-3.909-.583-4.071-.616a1.306,1.306,0,0,0-1.281-.081c-.86.308-1.751.324-1.833.7s-.292.454-.259.714S977.943,83.061,977.943,83.061Z" transform="translate(-913.185 -24.589)" fill="#f2726b"/>
      <path id="Trazado_115338" data-name="Trazado 115338" d="M988.873,137.775l-1.147,1.382-.283.344c-8.682-7.18-6.143-23.288-3.9-37.49l.268-1.693c.7-4.472.4-7.257-.241-8.987a6.086,6.086,0,0,0-.53-1.12,4.4,4.4,0,0,0-.568-.759,3.426,3.426,0,0,0-2.643-1.13l-.25-2.222a5.647,5.647,0,0,1,4.471,1.769,6.367,6.367,0,0,1,.787.994,7.831,7.831,0,0,1,.8,1.617c.06.163.12.327.175.5.071.218.131.448.191.683.048.18.088.366.125.557.05.24.093.486.126.742.027.142.044.289.06.442.011.077.021.153.027.235.021.185.038.376.054.573.006.142.017.278.021.426s.016.289.016.437a30.35,30.35,0,0,1-.414,5.586l-.268,1.692C983.6,115.971,981.168,131.408,988.873,137.775Z" transform="translate(-913.244 -24.782)" fill="url(#linear-gradient-5)"/>
      <path id="Trazado_115339" data-name="Trazado 115339" d="M1021.724,36.065a4.055,4.055,0,0,0-1.156-3.778,3.981,3.981,0,0,1,2.178,2.823c.845-1-.111-3.89-1.333-4.957,1.044.156,4.445,3.58,3.356,6.025s-2.89,1.779-2.934,1.578S1021.724,36.065,1021.724,36.065Z" transform="translate(-914.46 -23.123)" fill="#63212d"/>
      <path id="Trazado_115340" data-name="Trazado 115340" d="M982.555,78.137l-2.409-.719a2.279,2.279,0,0,0-2.606,1.01l-2.554,4.252,3.087-2.735a19.642,19.642,0,0,1,2.793-.882C981.342,79.063,982.555,78.137,982.555,78.137Z" transform="translate(-913.108 -24.522)" fill="#f2726b"/>
      <path id="Trazado_115341" data-name="Trazado 115341" d="M1027.755,113.1a8.9,8.9,0,0,1-1.059-.213,15.45,15.45,0,0,1-4.564-2.315,1.069,1.069,0,0,1-.1-.071c-.191-.126-.382-.268-.585-.409-.688-.492-1.414-1.037-2.195-1.638-5.668-4.385-14.47-10.664-30.321-19.8a5.4,5.4,0,0,1-3.451,1.594.915.915,0,0,1-.126-.006,5.878,5.878,0,0,1-2.561-.644,23.987,23.987,0,0,0-6.454-1.775.707.707,0,0,1-.486-.748,1.107,1.107,0,0,1,.044-.3.612.612,0,0,1,.59-.437l1.343.011,3.336.033a5.845,5.845,0,0,0,1.737-.251,5.751,5.751,0,0,0,1.682-.775,2.406,2.406,0,0,0,1.054-2.135,1.622,1.622,0,0,0-1.229-1.442l-5.15-1.267-3.8,3.386a1.064,1.064,0,0,1-1.059.2.3.3,0,0,1-.137-.448l3.62-4.941a1.3,1.3,0,0,1,1.054-.54h2.681a12.367,12.367,0,0,1,7.726,2.719,23.276,23.276,0,0,0,7.022,3.986c12.144,4.144,18.188,5.979,23.916,8.12.17.065.339.125.508.191.431.163.863.327,1.3.5,2.178.851,4.4,1.785,6.989,2.948,1.48.667,3.074,1.4,4.854,2.25C1037.016,100.327,1034.494,114,1027.755,113.1Z" transform="translate(-913.085 -24.547)" fill="url(#linear-gradient)"/>
      <path id="Trazado_115342" data-name="Trazado 115342" d="M1030.995,105.892c-.054.3-1.9,4.963-2.889,7.447-.366.912-.611,1.534-.611,1.534s-4.434-.218-5.734-2.549a9.179,9.179,0,0,0,1.1-1.775,11.425,11.425,0,0,0,.8-2.267c1.6-6.388-1.344-14.366-1.453-14.649v-.006l7.011.732a7.887,7.887,0,0,1,1.2,2.392c.022.1.055.213.083.322a8.066,8.066,0,0,1,.5,2.714C1030.853,100.612,1031.061,105.477,1030.995,105.892Z" transform="translate(-914.496 -25.005)" fill="#d4cdf7"/>
      <path id="Trazado_115343" data-name="Trazado 115343" d="M1046.122,342.28c-.033,1.147-.083,2-.128,2.641-.053.709-.109,1.147-.153,1.413a.475.475,0,0,1-.471.394h-28.983a.482.482,0,0,1-.476-.417,5.058,5.058,0,0,1-.047-.534,4.766,4.766,0,0,1,3.979-4.823c5.241-.873,11.627-1.937,15.181-7.56a.476.476,0,0,1,.4-.223h6.909a.471.471,0,0,1,.373.178C1043.388,334.209,1046.25,338.071,1046.122,342.28Z" transform="translate(-914.32 -32.111)" fill="#2f1a1d"/>
      <path id="Trazado_115344" data-name="Trazado 115344" d="M1056.933,226.849h0l15.894-83.406H1040.19s-6.483,33.474-4.1,83.406h0l-.608,4.858,1.778,3.591s-1.819,68.98-4.281,91.9a.469.469,0,0,0,.286.486c1.8.767,10.589,4.242,13.348.1a13.126,13.126,0,0,0,2.047-9.93l-.682-4.349a.462.462,0,0,1,.014-.21c.717-2.375,13.825-40.661,14.336-61.453C1062.483,245.475,1056.933,226.849,1056.933,226.849Z" transform="translate(-914.828 -26.483)" fill="#0b151e"/>
      <path id="Trazado_115345" data-name="Trazado 115345" d="M1046.663,66.811l-13.636,9.423-.711-2.227-2.926-9.2,5.326-4.247,3.8-3.038.352-.279c.011.055.028.117.039.173a11.919,11.919,0,0,0,2.306,4.208,22.99,22.99,0,0,0,1.64,1.847c.112.117.223.229.33.336.777.771,1.533,1.438,2.138,1.941.716.6,1.225.974,1.331,1.047Z" transform="translate(-914.722 -23.926)" fill="url(#linear-gradient)"/>
      <g id="Grupo_60356" data-name="Grupo 60356" transform="translate(146.218 305.393)">
        <path id="Trazado_115346" data-name="Trazado 115346" d="M1082.218,345.494c-.021.284-.059.573-.1.868l-.1.611a.476.476,0,0,1-.47.409h-18.92a.464.464,0,0,1-.437-.289,3.834,3.834,0,0,1-.181-.656,6.686,6.686,0,0,1,.726-4.4,3.316,3.316,0,0,1,2.168-1.644h.028a13.475,13.475,0,0,0,1.414-.169,9.21,9.21,0,0,0,5.187-2.446.465.465,0,0,1,.339-.143l8.316.012a.492.492,0,0,1,.432.256A12.919,12.919,0,0,1,1082.218,345.494Z" transform="translate(-1061.905 -337.636)" fill="#2f1a1d"/>
        <path id="Trazado_115347" data-name="Trazado 115347" d="M1073.789,347.459h-11.16a.464.464,0,0,1-.439-.288,6.5,6.5,0,0,1,.545-5.055,3.323,3.323,0,0,1,2.171-1.645h.022a1.906,1.906,0,0,1,.252-.046c.073-.011.14-.017.213-.027a.227.227,0,0,0,.039-.006c.034-.006.067-.012.112-.016.157-.017.437-.046.8-.073,1.679-.107,5.137-.084,6.86,1.774a4.881,4.881,0,0,1,1.033,5.07A.475.475,0,0,1,1073.789,347.459Z" transform="translate(-1061.905 -337.714)" fill="#2f1a1d"/>
      </g>
      <path id="Trazado_115348" data-name="Trazado 115348" d="M1080.153,331.876a.487.487,0,0,1-.551.262c-.672-.163-2.73-.437-8.322-.016a.5.5,0,0,1-.306-.082A14.64,14.64,0,0,1,1067.66,325a5.538,5.538,0,0,1-.054-.781c-.1-33.712-9.818-67.206-14.41-80.644-1.207-3.516-2.135-7.033-2.173-7.2l-.006-.006v-6.181c-7.551-47.482-12.3-51.463-11.761-64.868.044-1.153.131-2.375.257-3.7.038-.458.087-.928.142-1.414a22.69,22.69,0,0,1-.4-4.155,78.373,78.373,0,0,1,1.12-12.609h32.636s5.559,9.589,6.815,18.462c-1.425,14.819-.677,28.874-2.916,66.67,0,0,7.568,15.437,8.709,30.447C1086.863,275.394,1082.463,326.858,1080.153,331.876Z" transform="translate(-915.013 -26.483)" fill="#16293c"/>
      <path id="Trazado_115349" data-name="Trazado 115349" d="M1036.618,78.025c-6.268,1.884-12.3,11.407-11.4,21.716,0,.011,0,.021,0,.032-.038-.119-.077-.25-.125-.376a12.133,12.133,0,0,1-.47-2c0-.006-.006-.011-.006-.016-1.278-8.764,6.509-18.865,8.005-20.705.152-.2.246-.295.246-.295l-.153-.475-.087-.283-.464-1.469s6.006-2.469,9.141-7.475a13.145,13.145,0,0,0,.786-1.453,12.254,12.254,0,0,0,.607-1.6,12.077,12.077,0,0,0,.345-1.546l3.456,4.865.011.016,0,.006C1048.254,69.643,1046.7,75.006,1036.618,78.025Z" transform="translate(-914.576 -24.069)" fill="#e8e3f9"/>
      <path id="Trazado_115350" data-name="Trazado 115350" d="M1072.594,141.176v.006a15.748,15.748,0,0,1-16.894,7.006,39.159,39.159,0,0,1-14.169,8.954c-.858.311-1.633.563-2.3.754a23.706,23.706,0,0,1-2.66.638,40.363,40.363,0,0,1-2.365-10.762v-.006c-.076-1.2-.087-2.337-.071-3.5a70.11,70.11,0,0,0-.879-14.246v-.006c-.087-.518-.18-1.059-.278-1.616l-.016-.536-.191-.6c-.972-3.014-5.341-16.829-7.525-27.34,0-.011,0-.021,0-.032-.9-10.309,5.127-19.832,11.4-21.716,10.08-3.02,11.635-8.382,9.9-11.068a.29.29,0,0,1,.06.038c.147.093.53.349,1.093.754.1.076.208.152.316.235a47.072,47.072,0,0,1,6.466,5.875q.287.31.573.638c.611.688,1.223,1.425,1.829,2.206.125.159.251.322.372.486s.24.311.354.475c.214.283.421.573.628.873s.415.6.617.906a39.917,39.917,0,0,1,3.342,6.127c.131.306.262.617.388.933.382.945.726,1.945,1.048,2.987a80.7,80.7,0,0,1,3.08,12.253c2.151,12.215,1.933,23.736,3.282,29.365.464,1.949,2.118,3.506,2.866,5.449.06.158.115.316.164.48A5.375,5.375,0,0,1,1072.594,141.176Z" transform="translate(-914.596 -24.219)" fill="#1b4166"/>
      <path id="Trazado_115351" data-name="Trazado 115351" d="M1058.536,102.017c-1.561,8.851-6.082,12.782-9.037,14.448a12.434,12.434,0,0,1-2.451,1.07c-.17.049-.257.065-.257.065v0q.77-1.434,1.518-2.884c4.521-8.747,8.436-17.658,9.1-23.288a7.569,7.569,0,0,0-.3-2.567c-.038-.169-.081-.333-.119-.491-.563-2.059-1.583-3.325-3.1-5.16.153.077,2.55,1.551,4.036,5.592.006,0,.006.016.011.021C1059.006,91.735,1059.6,95.989,1058.536,102.017Z" transform="translate(-915.238 -24.696)" fill="#d4cdf7"/>
      <path id="Trazado_115352" data-name="Trazado 115352" d="M1018.653,160.786c-7.722-1.5-14.767-8.8-14.767-8.8a.053.053,0,0,1,0,.017c-1.2,1.661-2.4,3.374-3.565,5.1l.063.775.228.636.012.028c.7,2.193,3.038,6.188,10.7,6.9,6.066.654,8.863-1.259,10.251-4.393A13.85,13.85,0,0,1,1018.653,160.786Z" transform="translate(-913.859 -26.737)" fill="#e8e3f9"/>
      <path id="Trazado_115353" data-name="Trazado 115353" d="M1056.142,91.726c-.578,4.887-3.609,12.252-7.36,19.838-.563,1.146-1.147,2.3-1.742,3.445-.5.972-1.01,1.934-1.519,2.889v.006c-.42.792-1.3,2.55-2.353,4.685-.742,1.507-1.573,3.2-2.392,4.876-1.78,3.658-3.505,7.214-4.149,8.54a.025.025,0,0,0-.006.016c-.115.191-1.261,2.184-3.08,5-.562.863-1.185,1.807-1.862,2.8,0,0,0,.006,0,.006-.306.453-.629.917-.956,1.387-.977,1.382-2.053,2.845-3.222,4.319a62.1,62.1,0,0,1-8.737,9.1,18.024,18.024,0,0,1-2.937-.841c-6.482-2.419-11.828-7.956-11.828-7.956,1.987-2.752,3.986-5.373,5.865-7.765l0,0c4.341-5.5,8.049-9.747,9.523-11.4-.289-.486-.589-.923-.437-1.355a1.106,1.106,0,0,1,1.158-.748s-.863-.676-.443-1.321a1.145,1.145,0,0,1,1.338-.486c.355-2.13.9-5.248,1.556-8.818.382-2.086.808-4.319,1.266-6.607v-.006c1.9-9.419,4.319-19.684,6.526-23.425a20.222,20.222,0,0,1,2.44-3c.513-.551,1.076-1.136,1.677-1.737a12.855,12.855,0,0,1,14.59-2.555.02.02,0,0,1,.016.006,12.363,12.363,0,0,1,3.68,2.615h.006a12.126,12.126,0,0,1,3.172,5.886A7.57,7.57,0,0,1,1056.142,91.726Z" transform="translate(-913.969 -24.583)" fill="#e8e3f9"/>
      <path id="Trazado_115354" data-name="Trazado 115354" d="M1058.247,94.039c-.649,5.477-4.379,14.071-8.748,22.584a10.828,10.828,0,0,1-2.708,1.135v0q.77-1.434,1.518-2.884c4.521-8.747,8.436-17.658,9.1-23.288a7.569,7.569,0,0,0-.3-2.567c-.038-.169-.081-.333-.119-.491a12.3,12.3,0,0,1,1.042,2.91A7.725,7.725,0,0,1,1058.247,94.039Z" transform="translate(-915.238 -24.854)" fill="#847caa" opacity="0.15"/>
      <path id="Trazado_115355" data-name="Trazado 115355" d="M1034.124,76.138a19.249,19.249,0,0,0,3.255-1.452,22.033,22.033,0,0,0,2.976-1.946,22.4,22.4,0,0,0,2.658-2.361,28.828,28.828,0,0,0,2.321-2.711c-.34.489-.653,1-1.016,1.477s-.736.946-1.152,1.378a20.336,20.336,0,0,1-2.645,2.434,19.93,19.93,0,0,1-3.044,1.914A15.058,15.058,0,0,1,1034.124,76.138Z" transform="translate(-914.862 -24.235)" fill="#847caa" opacity="0.5"/>
      <path id="Trazado_115356" data-name="Trazado 115356" d="M1022.825,111.016a9.308,9.308,0,0,1-1.1,1.774,5.73,5.73,0,0,1-1.1-3.413C1021.409,109.976,1022.137,110.524,1022.825,111.016Z" transform="translate(-914.462 -25.473)" fill="#847caa"/>
      <path id="Trazado_115357" data-name="Trazado 115357" d="M1045.95,345.82c-.038.4-.076.682-.108.873a.475.475,0,0,1-.472.394h-28.983a.482.482,0,0,1-.476-.417l0-.01a.479.479,0,0,1,.463-.539l29.088-.826A.479.479,0,0,1,1045.95,345.82Z" transform="translate(-914.322 -32.471)" fill="#231416"/>
      <path id="Trazado_115358" data-name="Trazado 115358" d="M1037.193,57.935c.634,4.865.274,8.671-.9,11.489a9.686,9.686,0,0,1-6.765,5.941,16.875,16.875,0,0,1-7.847-2.5,20.96,20.96,0,0,1-2.812-2.07c-2.937-2.555-4.859-5.477-6.186-6.831-.087-.092-.175-.175-.257-.25-.256-.235-.508-.481-.748-.743.344-.032.7-.082,1.06-.142,11.052-1.742,11.374-8.987,11.374-8.987,4.98-1.147,8.911,2.9,8.911,2.9l1.972-1.305,2.02-1.343.813-.551a22.985,22.985,0,0,1-.557,4.068A2.746,2.746,0,0,1,1037.193,57.935Z" transform="translate(-914.196 -23.817)" fill="url(#linear-gradient)"/>
      <path id="Trazado_115359" data-name="Trazado 115359" d="M1043.555,62.058a11.548,11.548,0,0,1-.341,1.545,23.037,23.037,0,0,1-1.64-1.847A2.975,2.975,0,0,1,1043.555,62.058Z" transform="translate(-915.083 -24.059)" fill="#938cac"/>
      <path id="Trazado_115360" data-name="Trazado 115360" d="M1037.453,52.961l-.044.027-.813.551-3.992,2.648s-3.931-4.051-8.911-2.9c0,0-.322,7.246-11.374,8.987-.36.06-.715.11-1.06.142-12.766,1.415-13.672-9.927-13.672-9.927a.084.084,0,0,1,.011.021c.2.246,5.187,3.676,7.825,2.315a.047.047,0,0,1-.011-.016c-2.31-3.932,1.9-17.714,11.963-19.029a13.316,13.316,0,0,1,5.367.442,5.315,5.315,0,0,1,2.136-1.256,8.929,8.929,0,0,1,9.189,2.544,12.581,12.581,0,0,1,2.572,4.194C1039.877,50.126,1037.453,52.961,1037.453,52.961Z" transform="translate(-913.779 -23.254)" fill="#773634"/>
      <path id="Trazado_115361" data-name="Trazado 115361" d="M1039.481,58.458a2.949,2.949,0,0,1-1.463,1.13,1.933,1.933,0,0,1-.475.12c-1.589.224-3.14-1.081-3.883-3.08a7.428,7.428,0,0,1-.387-1.528,6.068,6.068,0,0,1,.884-4.314,2.9,2.9,0,0,1,1.966-1.289c1.971-.273,3.877,1.791,4.27,4.609A6.057,6.057,0,0,1,1039.481,58.458Z" transform="translate(-914.835 -23.696)" fill="#f8b296"/>
      <path id="Trazado_115362" data-name="Trazado 115362" d="M1039.024,57.687a1.931,1.931,0,0,1-1.006.642,2.075,2.075,0,0,1-1.218-.088,3.6,3.6,0,0,1-1.758-1.652,5.3,5.3,0,0,1-.619-2.332,3.9,3.9,0,0,1,.616-2.294,4.4,4.4,0,0,0-.406,2.283,5.388,5.388,0,0,0,.648,2.212,3.5,3.5,0,0,0,1.6,1.588A1.942,1.942,0,0,0,1039.024,57.687Z" transform="translate(-914.871 -23.77)" fill="#db6951" opacity="0.5"/>
      <path id="Trazado_115363" data-name="Trazado 115363" d="M1017.827,66.805c1.01,1.159,1.948,2.369,2.95,3.514.5.572,1.014,1.132,1.564,1.649a7.763,7.763,0,0,0,1.792,1.333l-.113.008c.245-.128.487-.265.727-.406a3.578,3.578,0,0,0,.668-.5,2.748,2.748,0,0,1-.578.622,6.094,6.094,0,0,1-.688.5l-.05.032-.064-.025a6.591,6.591,0,0,1-1.96-1.28,16.444,16.444,0,0,1-1.6-1.682A32.994,32.994,0,0,1,1017.827,66.805Z" transform="translate(-914.379 -24.21)" fill="#db6951" opacity="0.5"/>
      <path id="Trazado_115364" data-name="Trazado 115364" d="M1019.767,65.477c.074-.617.178-1.228.287-1.838l.006-.034.029-.024a9.6,9.6,0,0,1,2.29-1.467,8,8,0,0,1,1.279-.468,6.593,6.593,0,0,1,1.334-.239,12.326,12.326,0,0,0-2.5.938,14.23,14.23,0,0,0-2.263,1.4l.035-.058C1020.11,64.284,1019.954,64.884,1019.767,65.477Z" transform="translate(-914.436 -24.05)" fill="#db6951" opacity="0.5"/>
      <path id="Trazado_115365" data-name="Trazado 115365" d="M1017.364,67.1a4.81,4.81,0,0,1-1.4-.167l.1-.016a4.247,4.247,0,0,1-.825.353,4.2,4.2,0,0,1,.688-.576l.039-.027.057.011A4.776,4.776,0,0,1,1017.364,67.1Z" transform="translate(-914.302 -24.206)" fill="#db6951" opacity="0.5"/>
      <path id="Trazado_115366" data-name="Trazado 115366" d="M1029.165,71.923a.135.135,0,0,1-.116-.065.137.137,0,0,1,.045-.188,4.02,4.02,0,0,0,1.524-2.169.136.136,0,1,1,.262.077,4.22,4.22,0,0,1-1.643,2.325A.135.135,0,0,1,1029.165,71.923Z" transform="translate(-914.711 -24.287)" fill="#db6951" opacity="0.5"/>
      <path id="Trazado_115367" data-name="Trazado 115367" d="M1073.781,139.03a6.517,6.517,0,0,1-3.364.891.885.885,0,0,1-.688-.349.858.858,0,0,1-.152-.3l-.733-2.692a.464.464,0,0,1,.361-.578,6.222,6.222,0,0,0,2.457-1.022,1.467,1.467,0,0,1,2.163.453,5.241,5.241,0,0,1,.289.634,6.889,6.889,0,0,1,.354,1.561A1.423,1.423,0,0,1,1073.781,139.03Z" transform="translate(-915.892 -26.223)" fill="#1d69b3"/>
      <path id="Trazado_115368" data-name="Trazado 115368" d="M1074.343,139.317a1.267,1.267,0,0,1-.344.29,6.518,6.518,0,0,1-3.363.884.873.873,0,0,1-.84-.649l-.039-.148a.885.885,0,0,0,.688.349,6.517,6.517,0,0,0,3.364-.891,1.452,1.452,0,0,0,.371-.316C1074.239,139,1074.293,139.153,1074.343,139.317Z" transform="translate(-915.919 -26.346)" fill="#16293c" opacity="0.25"/>
      <path id="Trazado_115369" data-name="Trazado 115369" d="M1073.285,136.824c.224.746.1,1.443-.28,1.557s-.87-.4-1.094-1.143-.1-1.443.28-1.557S1073.059,136.077,1073.285,136.824Z" transform="translate(-915.98 -26.252)" fill="#14314d"/>
      <path id="Trazado_115370" data-name="Trazado 115370" d="M1032.217,55.077a7.4,7.4,0,0,0,.386,1.533s-3.934-4.051-8.913-2.91c0,0-.318,7.246-11.37,8.992-13.776,2.176-14.733-9.787-14.733-9.787a.064.064,0,0,1,.012.022c.262.677,5.935,15.641,19.627,4.794,3.243-2.568,1.609-7.824,1.609-7.824s7.373-3.17,14.266.865A6.067,6.067,0,0,0,1032.217,55.077Z" transform="translate(-913.778 -23.673)" fill="#63212d"/>
      <path id="Trazado_115371" data-name="Trazado 115371" d="M1035.762,56.318a2.841,2.841,0,0,1-.26-1.166,2.483,2.483,0,0,1,.274-1.19,2.29,2.29,0,0,1,.828-.9,3.494,3.494,0,0,1,.538-.278c.191-.062.384-.113.576-.156a5.436,5.436,0,0,0-.991.6,2.585,2.585,0,0,0-.709.854A3.565,3.565,0,0,0,1035.762,56.318Z" transform="translate(-914.903 -23.789)" fill="#db6951" opacity="0.5"/>
      <path id="Trazado_115372" data-name="Trazado 115372" d="M1043.08,63.515a11.9,11.9,0,0,1-.6,1.606,12.978,12.978,0,0,1-.789,1.455c-.582-1.226-1.41-2.949-2.188-4.471a23.381,23.381,0,0,1-2.439,7.453,20.939,20.939,0,0,0,1.074-9.691,3,3,0,0,0,1.46-1.13,14.047,14.047,0,0,0,1.847,2.932A22.99,22.99,0,0,0,1043.08,63.515Z" transform="translate(-914.949 -23.97)" fill="#db6951" opacity="0.5"/>
      <path id="Trazado_115373" data-name="Trazado 115373" d="M1032.616,77.087c-1.493,1.841-9.282,11.941-8,20.7-3.206-12.589,8.007-21.76,8.007-21.76l.089.285.151.475S1032.773,76.892,1032.616,77.087Z" transform="translate(-914.563 -24.483)" fill="#16293c"/>
      <path id="Trazado_115374" data-name="Trazado 115374" d="M1041.547,124.722a9.961,9.961,0,0,1-1.06,4.537c-.322-.054-.644-.119-.961-.185a9.811,9.811,0,0,0,1.463-5.248v-.087c.163.033.327.066.5.093A6.749,6.749,0,0,1,1041.547,124.722Z" transform="translate(-915.022 -25.899)" fill="#e8e3f9" opacity="0.5"/>
      <path id="Trazado_115375" data-name="Trazado 115375" d="M977.658,89.252a2.865,2.865,0,0,1,2.887-2.7l.619,0a5.857,5.857,0,0,0,1.74-.246,4.035,4.035,0,0,0-4.647-1.694,4.457,4.457,0,0,0-3.218,4.06c-.885,14.349-4.19,87.4,11.157,122.307l2.049-.9C973.459,176.451,976.789,104.153,977.658,89.252Z" transform="translate(-913.083 -24.733)" fill="url(#linear-gradient-5)"/>
      <g id="Grupo_60357" data-name="Grupo 60357" transform="translate(64.375 130.373)">
        <path id="Trazado_115376" data-name="Trazado 115376" d="M979.8,184.905l-1.918,3.079c-1.277,1.711,1.635,2.146,1.635,2.146.445,1.614,2.24,1.158,2.24,1.158a7.671,7.671,0,0,0,1.25.839,2.255,2.255,0,0,0,1.692-.022s.906.749,1.566.474c1.987-.831,2.993-3.6,3.947-6.331C988.774,184.283,979.8,184.905,979.8,184.905Z" transform="translate(-977.559 -158.083)" fill="#ef7b60"/>
        <path id="Trazado_115377" data-name="Trazado 115377" d="M1010.688,165.6a246.1,246.1,0,0,0-19.073,17.315c-.006.006-.006.011-.011.011-.251.251-.508.513-.77.776-1.152,3.953-2.708,6.165-6.443,5.978a8.92,8.92,0,0,1-3.812-1.092c-.8-.432-1.54-.956-1.54-1.409a6.349,6.349,0,0,1,2.747-5.231l1.954-1.349c7.022-9.44,10.271-14.945,14.284-20.913.536-.8,1.087-1.6,1.66-2.425a6.251,6.251,0,0,0,.289,1.409l.011.027C1000.7,160.9,1003.027,164.895,1010.688,165.6Z" transform="translate(-977.603 -157.266)" fill="url(#linear-gradient)"/>
      </g>
      <path id="Trazado_115378" data-name="Trazado 115378" d="M1037.379,59.712c-1.229.846-3.424.831-4.238-.218s-3.844-3.97-6.8-3.806a17.366,17.366,0,0,1-13.661,8.283c-.087-.092-.175-.175-.257-.25-.256-.235-.508-.481-.748-.743.344-.032.7-.082,1.06-.142,11.052-1.742,11.374-8.987,11.374-8.987,4.98-1.147,8.911,2.9,8.911,2.9.742,2,2.294,3.3,3.883,3.08A1.933,1.933,0,0,0,1037.379,59.712Z" transform="translate(-914.196 -23.819)" fill="#db6951" opacity="0.5"/>
      <path id="Trazado_115379" data-name="Trazado 115379" d="M973.872,211.759a2.943,2.943,0,0,1-.7,1.436c.655-4.144-1.813-8.7-1.813-8.7l-4.364-1.79v-1.327l1.567.071,4.729.2-.459,3.38S974.182,210.082,973.872,211.759Z" transform="translate(-912.871 -28.202)" fill="#f28a81"/>
      <path id="Trazado_115380" data-name="Trazado 115380" d="M992,182.919c2.157-2.708,11.822-11.79,14-15.7-5.764-2.919-7.579-5.317-7.59-7.523.536-.8,1.087-1.6,1.66-2.425a6.245,6.245,0,0,0,.289,1.409l.011.027c.71,2.195,3.042,6.193,10.7,6.9A246.056,246.056,0,0,0,992,182.919Z" transform="translate(-913.613 -26.893)" fill="#f28a81"/>
      <path id="Trazado_115381" data-name="Trazado 115381" d="M1018.761,160.548c-7.721-1.5-14.765-8.8-14.765-8.8,1.987-2.752,3.986-5.373,5.865-7.765a.046.046,0,0,1,.017,0l-4.161,7.18A30.84,30.84,0,0,0,1018.761,160.548Z" transform="translate(-913.969 -26.499)" fill="#847caa" opacity="0.15"/>
      <path id="Trazado_115382" data-name="Trazado 115382" d="M1013.437,66.345a2.14,2.14,0,0,1,.676-.865,2.918,2.918,0,0,1,.96-.519,2.789,2.789,0,0,1,1.087-.144,2.163,2.163,0,0,1,1.053.314c-.355.151-.672.233-.979.337l-.9.289C1014.733,65.944,1014.16,66.159,1013.437,66.345Z" transform="translate(-914.249 -24.151)" fill="#4a1922"/>
      <path id="Trazado_115383" data-name="Trazado 115383" d="M1018.577,63a3.091,3.091,0,0,1,.368-2.1,5.027,5.027,0,0,1,1.425-1.622,6.547,6.547,0,0,1,1.876-.978c.337-.1.678-.176,1.018-.242a7.41,7.41,0,0,1,1.048-.059,8.465,8.465,0,0,1-.857.574c-.283.18-.557.366-.839.525-.539.361-1.081.687-1.569,1.071a9.65,9.65,0,0,0-1.379,1.228A6.43,6.43,0,0,0,1018.577,63Z" transform="translate(-914.399 -23.949)" fill="#4a1922"/>
      <path id="Trazado_115384" data-name="Trazado 115384" d="M1082.221,345.734c-.021.284-.059.573-.1.868l-.1.611a.476.476,0,0,1-.47.409h-18.92a.464.464,0,0,1-.437-.289,3.812,3.812,0,0,1-.181-.656Z" transform="translate(-915.689 -32.483)" fill="#231416"/>
      <path id="Trazado_115385" data-name="Trazado 115385" d="M1080.162,331.876s-2.364-63.4-5.706-79.262c.109-6.722,0-21.2,0-21.2s-5.275-16.544-5.6-31.648c2.091-12.346,5.6-46.588,5.6-46.588s-5.133,2.136-15.884.978c-8.862,5.678-15.987,7.1-19.051,7.458.038-.458.087-.928.142-1.414a.133.133,0,0,1,0-.044,39.23,39.23,0,0,0,16.468-9.708,15.749,15.749,0,0,0,16.894-7.006s5.559,9.583,6.815,18.456c-1.426,14.819-.677,28.874-2.916,66.67,0,0,7.568,15.437,8.709,30.447C1086.873,275.395,1082.472,326.858,1080.162,331.876Z" transform="translate(-915.022 -26.483)" fill="#0b151e" opacity="0.25"/>
      <path id="Trazado_115386" data-name="Trazado 115386" d="M1056.5,91.726c-.666,5.624-4.581,14.541-9.1,23.282-.5.972-1.01,1.934-1.519,2.889v.006c-.42.792-1.3,2.55-2.353,4.685-.742,1.507-1.573,3.2-2.392,4.876-1.78,3.658-3.5,7.214-4.149,8.54a.024.024,0,0,0-.006.016c-.153.251-2.059,3.577-4.942,7.8,0,0,0,.006,0,.006-.306.453-.629.917-.956,1.387-.977,1.382-2.053,2.845-3.222,4.319a62.1,62.1,0,0,1-8.737,9.1,18.017,18.017,0,0,1-2.937-.841L1028.219,145s7.268-25.964,9.741-31.817c9.8-5.237,11.975-24.277,8.311-27.3-3.194-2.643-11.128-1.359-13.116-.983.513-.551,1.076-1.136,1.677-1.737a12.855,12.855,0,0,1,14.59-2.555.02.02,0,0,1,.016.006,12.365,12.365,0,0,1,3.679,2.615h.006a12.124,12.124,0,0,1,3.172,5.886A7.573,7.573,0,0,1,1056.5,91.726Z" transform="translate(-914.33 -24.583)" fill="#d4cdf7" opacity="0.5"/>
      <path id="Trazado_115387" data-name="Trazado 115387" d="M988.946,137.886l-1.147,1.382c-8.534-9.988-5.307-24.223-4.461-28.766,3.866-15.31,2.124-18.406,2.124-18.406l-1.818-.655a6.093,6.093,0,0,0-.53-1.12l-.342-.5a7.067,7.067,0,0,0,2.816.758.916.916,0,0,0,.126.006c.06.163.12.327.175.5.071.218.131.448.191.683.048.18.087.366.125.557.05.24.093.486.126.742.027.142.044.289.06.442.011.077.021.153.027.235.021.185.038.376.054.573.006.142.016.278.021.426s.016.289.016.437a30.359,30.359,0,0,1-.414,5.586l-.268,1.692C983.677,116.082,981.241,131.519,988.946,137.886Z" transform="translate(-913.317 -24.893)" fill="#f19b6c"/>
      <path id="Trazado_115388" data-name="Trazado 115388" d="M978.692,186.733l-1.059,1.613a1.733,1.733,0,0,0,.486,2.393l1.047.7.118.236a1.242,1.242,0,0,0,1.7.535l1.107-.6-.481-.78s-1.485-.943-1.555-1.013-1.068-1.156-1.068-1.156l-.346-.236Z" transform="translate(-913.178 -27.767)" fill="#ef7b60"/>
      <path id="Trazado_115389" data-name="Trazado 115389" d="M1022.7,108.145a11.433,11.433,0,0,1-.8,2.267c-.688-.492-1.414-1.037-2.195-1.638-5.668-4.385-14.47-10.664-30.321-19.8l31.418,17.353s1.71-7.11-.06-13.017c.17.065.339.125.508.191C1021.358,93.779,1024.3,101.757,1022.7,108.145Z" transform="translate(-913.535 -24.867)" fill="#db6951" opacity="0.5"/>
      <path id="Trazado_115390" data-name="Trazado 115390" d="M1051.169,122.708s14.164-16.375,6.405-33.717c1.065,2.916,1.66,7.17.595,13.2-1.561,8.851-6.082,12.782-9.037,14.448a12.43,12.43,0,0,1-2.451,1.07c-.087.158-.175.316-.257.474v.006c-.42.792-1.3,2.55-2.353,4.685-.742,1.507-1.573,3.2-2.392,4.876-1.78,3.658-3.505,7.213-4.149,8.54a.025.025,0,0,0-.006.017c-.115.191-1.262,2.184-3.08,5,0,1.932-.06,3.6-.032,5.3v.064c.01.574.031,1.154.069,1.749v.006a40.363,40.363,0,0,0,2.365,10.762,23.707,23.707,0,0,0,2.66-.639c.666-.191,1.441-.442,2.3-.754a43.118,43.118,0,0,1-2.621-16.619Z" transform="translate(-914.87 -24.868)" fill="#16293c" opacity="0.5"/>
      <path id="Trazado_115391" data-name="Trazado 115391" d="M1032.973,85.069s-4.068,29.851-8.916,41.559c-4.772,11.527-13.733,15.486-14.012,15.606,4.341-5.5,8.049-9.747,9.523-11.4-.289-.486-.589-.923-.437-1.355a1.107,1.107,0,0,1,1.158-.748s-.863-.676-.443-1.321a1.145,1.145,0,0,1,1.338-.486c.355-2.13.9-5.248,1.557-8.818.382-2.086.808-4.319,1.266-6.607v-.006c1.9-9.419,4.319-19.684,6.526-23.425A20.212,20.212,0,0,1,1032.973,85.069Z" transform="translate(-914.148 -24.752)" fill="#fff" opacity="0.25"/>
      <path id="Trazado_115392" data-name="Trazado 115392" d="M1051.016,230.857c-7.551-47.482-12.3-51.463-11.761-64.868C1039.255,165.989,1060.632,189.042,1051.016,230.857Z" transform="translate(-915.013 -27.152)" fill="#1b4166" opacity="0.5"/>
      <path id="Trazado_115393" data-name="Trazado 115393" d="M1068.021,327.843a5.52,5.52,0,0,1-.054-.781c-.1-33.712-9.818-67.206-14.41-80.644-1.207-3.516-2.135-7.033-2.173-7.2.311.256,10.184,8.627,14.388,27.53C1069.424,283.194,1068.392,318.15,1068.021,327.843Z" transform="translate(-915.374 -29.324)" fill="#1b4166" opacity="0.5"/>
      <path id="Trazado_115394" data-name="Trazado 115394" d="M1024.038,37.867a10.1,10.1,0,0,1,4.805-1.541,4.784,4.784,0,0,1,2.493.586,7.09,7.09,0,0,1,1.913,1.715,7.226,7.226,0,0,1,1.46,4.826,13.5,13.5,0,0,1-1.292,4.893,17.85,17.85,0,0,0,.748-2.414,11,11,0,0,0,.335-2.486,8.137,8.137,0,0,0-.321-2.464,6.649,6.649,0,0,0-1.144-2.188,6.869,6.869,0,0,0-1.822-1.668,4.776,4.776,0,0,0-2.369-.592,8.536,8.536,0,0,0-2.467.385A12.014,12.014,0,0,0,1024.038,37.867Z" transform="translate(-914.563 -23.306)" fill="#63212d"/>
      <path id="Trazado_115395" data-name="Trazado 115395" d="M1024.038,38.222a9.392,9.392,0,0,1,4.617.052,4.461,4.461,0,0,1,2.023,1.191,4.9,4.9,0,0,1,1.124,2.068,5.3,5.3,0,0,1,.122,2.35,3.81,3.81,0,0,1-1.118,2.062,4.636,4.636,0,0,1-2.054,1.1,6.594,6.594,0,0,1-2.314.122,5.484,5.484,0,0,0,4.221-1.376,3.742,3.742,0,0,0,1.022-1.959,5.056,5.056,0,0,0-.142-2.231,4.619,4.619,0,0,0-1.04-1.969,4.451,4.451,0,0,0-1.907-1.163,8.106,8.106,0,0,0-2.251-.381A11.041,11.041,0,0,0,1024.038,38.222Z" transform="translate(-914.563 -23.354)" fill="#63212d"/>
      <path id="Trazado_115396" data-name="Trazado 115396" d="M1034.287,37.507c-5.072-4.658-11.057-.835-11.057-.835s-5.291,1.257-5.487,5.248c-1.349,12.57-12.1,12.9-12.1,12.9a.045.045,0,0,1-.011-.016c-2.31-3.932,1.9-17.714,11.963-19.029a13.316,13.316,0,0,1,5.367.442,5.315,5.315,0,0,1,2.136-1.256A8.929,8.929,0,0,1,1034.287,37.507Z" transform="translate(-913.999 -23.254)" fill="#992c2c" opacity="0.5"/>
      <path id="Trazado_115397" data-name="Trazado 115397" d="M1028.475,64.672c.927,1.174.425,3.115-1.121,4.334s-3.549,1.256-4.475.082-.425-3.115,1.121-4.334S1027.549,63.5,1028.475,64.672Z" transform="translate(-914.515 -24.121)" fill="#db6951" opacity="0.15"/>
      <path id="Trazado_115398" data-name="Trazado 115398" d="M1021.9,73.395a20.959,20.959,0,0,1-2.812-2.07,2.31,2.31,0,0,1,1.758.262A2.379,2.379,0,0,1,1021.9,73.395Z" transform="translate(-914.416 -24.342)" fill="#db6951" opacity="0.15"/>
    </g>
  </g>
</svg>
