<svg xmlns="http://www.w3.org/2000/svg" width="400.114" height="658.61" viewBox="0 0 400.114 658.61">
  <g id="Grupo_60738" data-name="Grupo 60738" transform="translate(-227.989 -30.334)">
    <g id="Capa_1" data-name="Capa 1" transform="translate(227.989 97.354)">
      <g id="Grupo_60725" data-name="Grupo 60725" transform="translate(294.174 10.075)">
        <path id="Trazado_116119" data-name="Trazado 116119" d="M477.985,96v4h4.624V96h1.248v9.559h-1.248V101.08h-4.624v4.482H476.75V96Z" transform="translate(-476.75 -95.492)"/>
        <path id="Trazado_116120" data-name="Trazado 116120" d="M490.828,101.681a3.355,3.355,0,0,1-3.419,3.645,3.263,3.263,0,0,1-3.29-3.531,3.352,3.352,0,0,1,3.4-3.645A3.251,3.251,0,0,1,490.828,101.681Zm-5.446.071c0,1.5.865,2.638,2.084,2.638,1.192,0,2.085-1.121,2.085-2.667,0-1.164-.581-2.638-2.055-2.638S485.382,100.448,485.382,101.752Z" transform="translate(-475.405 -95.1)"/>
        <path id="Trazado_116121" data-name="Trazado 116121" d="M491.136,100.164c0-.71-.015-1.291-.058-1.858h1.093l.057,1.106h.043a2.367,2.367,0,0,1,2.156-1.262,2.029,2.029,0,0,1,1.943,1.375h.028a2.8,2.8,0,0,1,.766-.893,2.332,2.332,0,0,1,1.517-.482c.907,0,2.255.595,2.255,2.978v4.042h-1.219v-3.886c0-1.319-.482-2.113-1.49-2.113a1.615,1.615,0,0,0-1.475,1.135,2.053,2.053,0,0,0-.1.623v4.241h-1.219v-4.113c0-1.092-.482-1.886-1.433-1.886a1.862,1.862,0,0,0-1.645,1.858v4.141h-1.219Z" transform="translate(-474.134 -95.1)"/>
        <path id="Trazado_116122" data-name="Trazado 116122" d="M501.086,105.64c.028-.468.058-1.162.058-1.773v-8.3h1.233v4.312h.028a2.554,2.554,0,0,1,2.34-1.262c1.7,0,2.908,1.418,2.893,3.5,0,2.454-1.546,3.673-3.078,3.673a2.445,2.445,0,0,1-2.3-1.29h-.043l-.057,1.134Zm1.291-2.751a2.349,2.349,0,0,0,.057.454,1.926,1.926,0,0,0,1.872,1.46c1.3,0,2.085-1.064,2.085-2.638,0-1.375-.708-2.553-2.042-2.553a1.991,1.991,0,0,0-1.9,1.533,2.524,2.524,0,0,0-.07.51Z" transform="translate(-472.307 -95.571)"/>
        <path id="Trazado_116123" data-name="Trazado 116123" d="M507.972,100.448c0-.809-.015-1.5-.058-2.142h1.093l.042,1.347h.057a2.06,2.06,0,0,1,1.9-1.5,1.358,1.358,0,0,1,.355.043v1.177a1.876,1.876,0,0,0-.426-.043,1.751,1.751,0,0,0-1.673,1.6,3.535,3.535,0,0,0-.057.582v3.659h-1.233Z" transform="translate(-471.061 -95.1)"/>
        <path id="Trazado_116124" data-name="Trazado 116124" d="M512.538,101.965a2.2,2.2,0,0,0,2.354,2.383,4.51,4.51,0,0,0,1.9-.355l.213.894a5.561,5.561,0,0,1-2.284.426,3.188,3.188,0,0,1-3.375-3.461c0-2.071,1.219-3.7,3.219-3.7,2.241,0,2.837,1.971,2.837,3.233a4.959,4.959,0,0,1-.043.582Zm3.659-.894a1.777,1.777,0,0,0-1.73-2.028,2.069,2.069,0,0,0-1.915,2.028Z" transform="translate(-470.434 -95.1)"/>
        <path id="Trazado_116125" data-name="Trazado 116125" d="M517.787,100.448c0-.809-.014-1.5-.058-2.142h1.093l.043,1.347h.057a2.061,2.061,0,0,1,1.9-1.5,1.351,1.351,0,0,1,.355.043v1.177a1.887,1.887,0,0,0-.427-.043,1.752,1.752,0,0,0-1.673,1.6,3.658,3.658,0,0,0-.057.582v3.659h-1.233Z" transform="translate(-469.269 -95.1)"/>
        <path id="Trazado_116126" data-name="Trazado 116126" d="M525.526,105.17l-.1-.864h-.043a2.555,2.555,0,0,1-2.1,1.021,1.955,1.955,0,0,1-2.1-1.971c0-1.659,1.475-2.567,4.127-2.552v-.143a1.415,1.415,0,0,0-1.561-1.588,3.418,3.418,0,0,0-1.787.511l-.284-.822a4.258,4.258,0,0,1,2.255-.61c2.1,0,2.61,1.432,2.61,2.807v2.567a9.791,9.791,0,0,0,.112,1.645Zm-.184-3.5c-1.361-.028-2.907.213-2.907,1.546a1.1,1.1,0,0,0,1.177,1.192,1.709,1.709,0,0,0,1.66-1.149,1.3,1.3,0,0,0,.07-.4Z" transform="translate(-468.638 -95.1)"/>
      </g>
      <g id="Grupo_60726" data-name="Grupo 60726" transform="translate(317.024 31.875)">
        <path id="Trazado_116127" data-name="Trazado 116127" d="M503.321,123.707a6.121,6.121,0,0,1-2.525.454,4.467,4.467,0,0,1-4.723-4.837,4.757,4.757,0,0,1,4.993-5.02,5.12,5.12,0,0,1,2.269.426l-.3,1.006a4.491,4.491,0,0,0-1.929-.4c-2.24,0-3.73,1.433-3.73,3.943,0,2.34,1.347,3.844,3.673,3.844a4.956,4.956,0,0,0,2.014-.4Z" transform="translate(-496.073 -113.95)"/>
        <path id="Trazado_116128" data-name="Trazado 116128" d="M509.635,120.115a3.356,3.356,0,0,1-3.419,3.645,3.264,3.264,0,0,1-3.29-3.531,3.352,3.352,0,0,1,3.4-3.646A3.251,3.251,0,0,1,509.635,120.115Zm-5.447.07c0,1.5.866,2.638,2.085,2.638,1.192,0,2.085-1.12,2.085-2.667,0-1.162-.582-2.637-2.056-2.637S504.188,118.881,504.188,120.185Z" transform="translate(-494.822 -113.534)"/>
        <path id="Trazado_116129" data-name="Trazado 116129" d="M509.943,118.881c0-.808-.015-1.5-.058-2.142h1.093l.043,1.347h.057a2.058,2.058,0,0,1,1.9-1.5,1.357,1.357,0,0,1,.355.043V117.8a1.887,1.887,0,0,0-.427-.043,1.751,1.751,0,0,0-1.673,1.6,3.659,3.659,0,0,0-.056.582V123.6h-1.233Z" transform="translate(-493.552 -113.534)"/>
        <path id="Trazado_116130" data-name="Trazado 116130" d="M520.026,120.115a3.355,3.355,0,0,1-3.418,3.645,3.264,3.264,0,0,1-3.291-3.531,3.352,3.352,0,0,1,3.4-3.646A3.251,3.251,0,0,1,520.026,120.115Zm-5.446.07c0,1.5.865,2.638,2.084,2.638,1.192,0,2.085-1.12,2.085-2.667,0-1.162-.581-2.637-2.055-2.637S514.58,118.881,514.58,120.185Z" transform="translate(-492.925 -113.534)"/>
        <path id="Trazado_116131" data-name="Trazado 116131" d="M520.334,118.6c0-.708-.015-1.29-.058-1.858h1.107l.071,1.135h.028a2.525,2.525,0,0,1,2.269-1.291c.951,0,2.425.568,2.425,2.922v4.1h-1.248v-3.957c0-1.107-.412-2.028-1.589-2.028a1.774,1.774,0,0,0-1.673,1.276,1.8,1.8,0,0,0-.085.582V123.6h-1.248Z" transform="translate(-491.655 -113.534)"/>
        <path id="Trazado_116132" data-name="Trazado 116132" d="M530.869,123.6l-.1-.864h-.043a2.556,2.556,0,0,1-2.1,1.021,1.956,1.956,0,0,1-2.1-1.971c0-1.659,1.475-2.567,4.128-2.553v-.142a1.416,1.416,0,0,0-1.561-1.588,3.435,3.435,0,0,0-1.788.51l-.283-.822a4.258,4.258,0,0,1,2.254-.61c2.1,0,2.61,1.432,2.61,2.809v2.567A9.778,9.778,0,0,0,532,123.6Zm-.184-3.5c-1.361-.028-2.907.212-2.907,1.546a1.1,1.1,0,0,0,1.177,1.192,1.707,1.707,0,0,0,1.659-1.149,1.267,1.267,0,0,0,.071-.4Z" transform="translate(-490.513 -113.534)"/>
        <path id="Trazado_116133" data-name="Trazado 116133" d="M541.318,114v8.3c0,.61.014,1.3.057,1.773h-1.12l-.057-1.191h-.03a2.538,2.538,0,0,1-2.339,1.347c-1.659,0-2.935-1.4-2.935-3.489-.015-2.284,1.4-3.688,3.077-3.688a2.294,2.294,0,0,1,2.071,1.05h.028V114Zm-1.248,6a2.209,2.209,0,0,0-.057-.525,1.836,1.836,0,0,0-1.8-1.446c-1.29,0-2.055,1.134-2.055,2.652,0,1.39.68,2.538,2.028,2.538a1.875,1.875,0,0,0,1.83-1.489,2.174,2.174,0,0,0,.057-.539Z" transform="translate(-488.986 -114.005)"/>
        <path id="Trazado_116134" data-name="Trazado 116134" d="M542.852,120.4a2.2,2.2,0,0,0,2.354,2.382,4.52,4.52,0,0,0,1.9-.355l.212.894a5.559,5.559,0,0,1-2.282.426,3.188,3.188,0,0,1-3.376-3.461c0-2.071,1.219-3.7,3.22-3.7,2.24,0,2.836,1.971,2.836,3.234a4.7,4.7,0,0,1-.043.582Zm3.66-.894a1.778,1.778,0,0,0-1.73-2.028,2.067,2.067,0,0,0-1.914,2.028Z" transform="translate(-487.751 -113.534)"/>
        <path id="Trazado_116135" data-name="Trazado 116135" d="M496.518,128.4h1.246v10.069h-1.246Z" transform="translate(-495.992 -111.376)"/>
        <path id="Trazado_116136" data-name="Trazado 116136" d="M503.233,138l-.1-.866h-.043a2.556,2.556,0,0,1-2.1,1.022,1.955,1.955,0,0,1-2.1-1.971c0-1.66,1.475-2.567,4.127-2.553v-.142a1.415,1.415,0,0,0-1.561-1.588,3.428,3.428,0,0,0-1.787.51l-.284-.822a4.259,4.259,0,0,1,2.255-.61c2.1,0,2.61,1.432,2.61,2.809v2.567a9.794,9.794,0,0,0,.112,1.645Zm-.184-3.5c-1.361-.028-2.907.213-2.907,1.546a1.1,1.1,0,0,0,1.177,1.191,1.709,1.709,0,0,0,1.66-1.148,1.3,1.3,0,0,0,.07-.4Z" transform="translate(-495.558 -110.906)"/>
        <path id="Trazado_116137" data-name="Trazado 116137" d="M507.687,133c0-.71-.015-1.29-.058-1.858h1.093l.057,1.107h.043a2.365,2.365,0,0,1,2.156-1.263,2.031,2.031,0,0,1,1.943,1.375h.028a2.836,2.836,0,0,1,.765-.893,2.344,2.344,0,0,1,1.518-.482c.907,0,2.255.6,2.255,2.979V138h-1.219v-3.886c0-1.319-.484-2.113-1.49-2.113a1.614,1.614,0,0,0-1.475,1.134,2.056,2.056,0,0,0-.1.624V138h-1.219v-4.113c0-1.092-.484-1.886-1.433-1.886a1.86,1.86,0,0,0-1.645,1.858V138h-1.219Z" transform="translate(-493.963 -110.906)"/>
        <path id="Trazado_116138" data-name="Trazado 116138" d="M521.569,138l-.1-.866h-.043a2.556,2.556,0,0,1-2.1,1.022,1.956,1.956,0,0,1-2.1-1.971c0-1.66,1.476-2.567,4.128-2.553v-.142a1.415,1.415,0,0,0-1.561-1.588,3.428,3.428,0,0,0-1.787.51l-.284-.822a4.259,4.259,0,0,1,2.255-.61c2.1,0,2.61,1.432,2.61,2.809v2.567A9.8,9.8,0,0,0,522.7,138Zm-.185-3.5c-1.361-.028-2.907.213-2.907,1.546a1.1,1.1,0,0,0,1.177,1.191,1.709,1.709,0,0,0,1.66-1.148,1.3,1.3,0,0,0,.07-.4Z" transform="translate(-492.211 -110.906)"/>
        <path id="Trazado_116139" data-name="Trazado 116139" d="M523.479,133c0-.71-.015-1.29-.058-1.858h1.106l.072,1.135h.027a2.527,2.527,0,0,1,2.269-1.291c.951,0,2.425.568,2.425,2.922V138h-1.248v-3.957c0-1.107-.41-2.028-1.588-2.028a1.772,1.772,0,0,0-1.673,1.276,1.794,1.794,0,0,0-.086.582V138h-1.246Z" transform="translate(-491.08 -110.906)"/>
        <path id="Trazado_116140" data-name="Trazado 116140" d="M536.12,131.139c-.03.5-.057,1.049-.057,1.886v3.986c0,1.574-.312,2.538-.979,3.134a3.637,3.637,0,0,1-2.5.823,4.422,4.422,0,0,1-2.284-.568l.312-.951a3.865,3.865,0,0,0,2.014.539c1.276,0,2.213-.667,2.213-2.4v-.766h-.03a2.449,2.449,0,0,1-2.183,1.149,3.068,3.068,0,0,1-2.922-3.348c0-2.325,1.517-3.645,3.091-3.645a2.281,2.281,0,0,1,2.142,1.192h.028l.057-1.036Zm-1.291,2.709a1.822,1.822,0,0,0-1.815-1.886c-1.191,0-2.042,1.006-2.042,2.595,0,1.348.681,2.468,2.028,2.468a1.822,1.822,0,0,0,1.73-1.276,2.136,2.136,0,0,0,.1-.667Z" transform="translate(-489.932 -110.906)"/>
        <path id="Trazado_116141" data-name="Trazado 116141" d="M540.721,138l-.1-.866h-.042a2.558,2.558,0,0,1-2.1,1.022,1.955,1.955,0,0,1-2.1-1.971c0-1.66,1.475-2.567,4.127-2.553v-.142a1.415,1.415,0,0,0-1.56-1.588,3.433,3.433,0,0,0-1.788.51l-.283-.822a4.254,4.254,0,0,1,2.254-.61c2.1,0,2.61,1.432,2.61,2.809v2.567a9.658,9.658,0,0,0,.114,1.645Zm-.185-3.5c-1.362-.028-2.907.213-2.907,1.546a1.1,1.1,0,0,0,1.177,1.191,1.709,1.709,0,0,0,1.659-1.148,1.3,1.3,0,0,0,.071-.4Z" transform="translate(-488.715 -110.906)"/>
      </g>
      <g id="Grupo_60727" data-name="Grupo 60727" transform="translate(336.954 77.513)">
        <path id="Trazado_116142" data-name="Trazado 116142" d="M521.476,157.958c-.07-1.333-.155-2.936-.142-4.127h-.043c-.325,1.12-.722,2.312-1.2,3.63L518.4,162.1h-.935l-1.547-4.553c-.454-1.347-.837-2.58-1.106-3.716h-.03c-.027,1.191-.1,2.794-.183,4.226l-.255,4.1h-1.178l.667-9.559h1.575l1.63,4.623c.4,1.178.724,2.228.965,3.22h.043c.241-.964.582-2.014,1.008-3.22l1.7-4.623h1.574l.6,9.559h-1.206Z" transform="translate(-512.882 -152.598)"/>
        <path id="Trazado_116143" data-name="Trazado 116143" d="M526.949,161.765l-.1-.864h-.043a2.556,2.556,0,0,1-2.1,1.021,1.956,1.956,0,0,1-2.1-1.971c0-1.659,1.475-2.567,4.128-2.553v-.142a1.415,1.415,0,0,0-1.561-1.588,3.418,3.418,0,0,0-1.787.511l-.284-.823a4.258,4.258,0,0,1,2.255-.609c2.1,0,2.61,1.432,2.61,2.807v2.567a9.793,9.793,0,0,0,.112,1.645Zm-.185-3.5c-1.361-.028-2.907.212-2.907,1.546A1.1,1.1,0,0,0,525.034,161a1.706,1.706,0,0,0,1.659-1.149,1.27,1.27,0,0,0,.071-.4Z" transform="translate(-511.158 -152.206)"/>
        <path id="Trazado_116144" data-name="Trazado 116144" d="M528.859,156.758c0-.708-.015-1.29-.058-1.858h1.106l.072,1.135h.027a2.524,2.524,0,0,1,2.269-1.29c.951,0,2.425.566,2.425,2.921v4.1h-1.248v-3.957c0-1.107-.411-2.028-1.588-2.028a1.772,1.772,0,0,0-1.673,1.276,1.794,1.794,0,0,0-.086.582v4.127h-1.246Z" transform="translate(-510.028 -152.206)"/>
        <path id="Trazado_116145" data-name="Trazado 116145" d="M541.5,154.9c-.03.5-.057,1.05-.057,1.887v3.985c0,1.574-.312,2.538-.979,3.134a3.638,3.638,0,0,1-2.5.823,4.421,4.421,0,0,1-2.282-.568l.311-.951a3.862,3.862,0,0,0,2.015.539c1.276,0,2.213-.667,2.213-2.4v-.765h-.03a2.448,2.448,0,0,1-2.183,1.148,3.068,3.068,0,0,1-2.922-3.347c0-2.326,1.517-3.645,3.091-3.645a2.281,2.281,0,0,1,2.142,1.191h.028l.057-1.036Zm-1.291,2.709a1.768,1.768,0,0,0-.071-.566,1.8,1.8,0,0,0-1.744-1.32c-1.191,0-2.042,1.006-2.042,2.6,0,1.347.68,2.468,2.028,2.468a1.824,1.824,0,0,0,1.73-1.277,2.132,2.132,0,0,0,.1-.667Z" transform="translate(-508.88 -152.206)"/>
        <path id="Trazado_116146" data-name="Trazado 116146" d="M546.1,161.765l-.1-.864h-.043a2.562,2.562,0,0,1-2.1,1.021,1.955,1.955,0,0,1-2.1-1.971c0-1.659,1.475-2.567,4.127-2.553v-.142a1.415,1.415,0,0,0-1.56-1.588,3.423,3.423,0,0,0-1.788.511l-.283-.823a4.25,4.25,0,0,1,2.254-.609c2.1,0,2.61,1.432,2.61,2.807v2.567a9.665,9.665,0,0,0,.113,1.645Zm-.186-3.5c-1.361-.028-2.907.212-2.907,1.546A1.105,1.105,0,0,0,544.186,161a1.708,1.708,0,0,0,1.659-1.149,1.3,1.3,0,0,0,.07-.4Z" transform="translate(-507.662 -152.206)"/>
        <path id="Trazado_116147" data-name="Trazado 116147" d="M514.117,172.96a2.2,2.2,0,0,0,2.354,2.382,4.509,4.509,0,0,0,1.9-.355l.213.894a5.561,5.561,0,0,1-2.284.426,3.188,3.188,0,0,1-3.375-3.461c0-2.071,1.219-3.7,3.219-3.7,2.241,0,2.837,1.971,2.837,3.233a4.972,4.972,0,0,1-.043.582Zm3.659-.894a1.777,1.777,0,0,0-1.73-2.028,2.068,2.068,0,0,0-1.915,2.028Z" transform="translate(-512.926 -149.577)"/>
        <path id="Trazado_116148" data-name="Trazado 116148" d="M519.366,171.158c0-.708-.014-1.29-.057-1.858h1.106l.072,1.135h.027a2.524,2.524,0,0,1,2.269-1.29c.951,0,2.425.566,2.425,2.921v4.1h-1.248v-3.957c0-1.107-.411-2.028-1.589-2.028a1.774,1.774,0,0,0-1.673,1.276,1.828,1.828,0,0,0-.085.582v4.127h-1.248Z" transform="translate(-511.761 -149.577)"/>
        <path id="Trazado_116149" data-name="Trazado 116149" d="M530.987,175.907a4.6,4.6,0,0,1-1.973.4,3.26,3.26,0,0,1-3.416-3.5,3.488,3.488,0,0,1,3.687-3.646,4.173,4.173,0,0,1,1.73.355l-.284.964a2.909,2.909,0,0,0-1.446-.325,2.588,2.588,0,0,0-.043,5.162,3.549,3.549,0,0,0,1.531-.339Z" transform="translate(-510.613 -149.575)"/>
        <path id="Trazado_116150" data-name="Trazado 116150" d="M535.277,176.165l-.1-.864h-.043a2.557,2.557,0,0,1-2.1,1.021,1.956,1.956,0,0,1-2.1-1.971c0-1.659,1.476-2.567,4.128-2.553v-.142a1.415,1.415,0,0,0-1.561-1.588,3.428,3.428,0,0,0-1.787.51l-.284-.822a4.258,4.258,0,0,1,2.255-.609c2.1,0,2.61,1.431,2.61,2.807v2.567a9.794,9.794,0,0,0,.112,1.645Zm-.185-3.5c-1.361-.028-2.907.213-2.907,1.546a1.1,1.1,0,0,0,1.177,1.192,1.709,1.709,0,0,0,1.66-1.149,1.3,1.3,0,0,0,.07-.4Z" transform="translate(-509.638 -149.577)"/>
        <path id="Trazado_116151" data-name="Trazado 116151" d="M535.762,178.544a2.018,2.018,0,0,0,1.361-.525c.341-.4.469-.935.469-2.58v-5.745h1.246v6.227a3.762,3.762,0,0,1-.822,2.822,3.166,3.166,0,0,1-2.127.781Zm3.219-10.779a.732.732,0,0,1-.779.766.745.745,0,0,1-.765-.766.764.764,0,0,1,.794-.781A.738.738,0,0,1,538.981,167.765Z" transform="translate(-508.757 -149.972)"/>
        <path id="Trazado_116152" data-name="Trazado 116152" d="M543.978,176.165l-.1-.864h-.044a2.559,2.559,0,0,1-2.1,1.021,1.955,1.955,0,0,1-2.1-1.971c0-1.659,1.475-2.567,4.127-2.553v-.142a1.415,1.415,0,0,0-1.56-1.588,3.432,3.432,0,0,0-1.788.51l-.283-.822a4.251,4.251,0,0,1,2.254-.609c2.1,0,2.61,1.431,2.61,2.807v2.567a9.658,9.658,0,0,0,.114,1.645Zm-.186-3.5c-1.361-.028-2.907.213-2.907,1.546a1.1,1.1,0,0,0,1.177,1.192,1.709,1.709,0,0,0,1.66-1.149,1.3,1.3,0,0,0,.07-.4Z" transform="translate(-508.05 -149.577)"/>
        <path id="Trazado_116153" data-name="Trazado 116153" d="M551.882,166.566v8.3c0,.61.013,1.3.056,1.773h-1.12l-.057-1.191h-.028a2.539,2.539,0,0,1-2.34,1.347c-1.659,0-2.935-1.4-2.935-3.489-.015-2.284,1.4-3.687,3.078-3.687a2.3,2.3,0,0,1,2.071,1.049h.027v-4.1Zm-1.249,6a2.2,2.2,0,0,0-.057-.525,1.833,1.833,0,0,0-1.8-1.446c-1.291,0-2.058,1.134-2.058,2.652,0,1.389.681,2.538,2.028,2.538a1.874,1.874,0,0,0,1.829-1.489,2.168,2.168,0,0,0,.057-.539Z" transform="translate(-506.987 -150.048)"/>
        <path id="Trazado_116154" data-name="Trazado 116154" d="M556.529,176.165l-.1-.864h-.043a2.557,2.557,0,0,1-2.1,1.021,1.956,1.956,0,0,1-2.1-1.971c0-1.659,1.476-2.567,4.128-2.553v-.142a1.416,1.416,0,0,0-1.561-1.588,3.428,3.428,0,0,0-1.787.51l-.284-.822a4.258,4.258,0,0,1,2.255-.609c2.1,0,2.61,1.431,2.61,2.807v2.567a9.793,9.793,0,0,0,.112,1.645Zm-.185-3.5c-1.361-.028-2.907.213-2.907,1.546a1.1,1.1,0,0,0,1.177,1.192,1.709,1.709,0,0,0,1.66-1.149,1.3,1.3,0,0,0,.07-.4Z" transform="translate(-505.758 -149.577)"/>
      </g>
      <g id="Grupo_60728" data-name="Grupo 60728" transform="translate(336.94 192.337)">
        <path id="Trazado_116155" data-name="Trazado 116155" d="M515.821,251.177h-2.907v-1.05h7.076v1.05h-2.921v8.51h-1.249Z" transform="translate(-512.914 -249.617)"/>
        <path id="Trazado_116156" data-name="Trazado 116156" d="M519.235,254.572c0-.808-.015-1.5-.058-2.142h1.093l.043,1.347h.057a2.059,2.059,0,0,1,1.9-1.5,1.358,1.358,0,0,1,.355.043v1.178a1.887,1.887,0,0,0-.427-.043,1.75,1.75,0,0,0-1.673,1.6,3.659,3.659,0,0,0-.056.582v3.659h-1.233Z" transform="translate(-511.771 -249.225)"/>
        <path id="Trazado_116157" data-name="Trazado 116157" d="M526.974,259.295l-.1-.866h-.043a2.558,2.558,0,0,1-2.1,1.022,1.955,1.955,0,0,1-2.1-1.971c0-1.66,1.475-2.567,4.127-2.553v-.142a1.415,1.415,0,0,0-1.56-1.588,3.432,3.432,0,0,0-1.788.51l-.283-.822a4.254,4.254,0,0,1,2.254-.61c2.1,0,2.61,1.432,2.61,2.809v2.567a9.665,9.665,0,0,0,.114,1.645Zm-.186-3.5c-1.361-.028-2.907.212-2.907,1.546a1.1,1.1,0,0,0,1.178,1.191,1.709,1.709,0,0,0,1.659-1.148,1.3,1.3,0,0,0,.07-.4Z" transform="translate(-511.139 -249.225)"/>
        <path id="Trazado_116158" data-name="Trazado 116158" d="M528.825,259.765c.03-.468.058-1.162.058-1.773v-8.3h1.233v4.312h.028a2.555,2.555,0,0,1,2.34-1.263c1.7,0,2.908,1.419,2.893,3.5,0,2.454-1.544,3.673-3.077,3.673a2.446,2.446,0,0,1-2.3-1.291h-.043l-.057,1.135Zm1.291-2.752a2.337,2.337,0,0,0,.057.454,1.925,1.925,0,0,0,1.872,1.461c1.3,0,2.086-1.063,2.086-2.638,0-1.375-.71-2.552-2.043-2.552a1.988,1.988,0,0,0-1.9,1.531,2.462,2.462,0,0,0-.071.511Z" transform="translate(-510.009 -249.696)"/>
        <path id="Trazado_116159" data-name="Trazado 116159" d="M537.115,250.9a.773.773,0,0,1-1.547,0,.762.762,0,0,1,.782-.78A.741.741,0,0,1,537.115,250.9Zm-1.389,8.794v-6.865h1.248v6.865Z" transform="translate(-508.778 -249.62)"/>
        <path id="Trazado_116160" data-name="Trazado 116160" d="M538.51,249.7h1.246v10.069H538.51Z" transform="translate(-508.241 -249.696)"/>
        <path id="Trazado_116161" data-name="Trazado 116161" d="M541.342,249.7h1.246v10.069h-1.246Z" transform="translate(-507.724 -249.696)"/>
        <path id="Trazado_116162" data-name="Trazado 116162" d="M548.057,259.295l-.1-.866h-.042a2.56,2.56,0,0,1-2.1,1.022,1.955,1.955,0,0,1-2.1-1.971c0-1.66,1.475-2.567,4.127-2.553v-.142a1.415,1.415,0,0,0-1.56-1.588,3.433,3.433,0,0,0-1.788.51l-.283-.822a4.254,4.254,0,0,1,2.254-.61c2.1,0,2.61,1.432,2.61,2.809v2.567a9.665,9.665,0,0,0,.113,1.645Zm-.186-3.5c-1.361-.028-2.907.212-2.907,1.546a1.1,1.1,0,0,0,1.178,1.191,1.709,1.709,0,0,0,1.659-1.148,1.3,1.3,0,0,0,.07-.4Z" transform="translate(-507.291 -249.225)"/>
        <path id="Trazado_116163" data-name="Trazado 116163" d="M558.506,249.7v8.3c0,.61.013,1.3.057,1.773h-1.121l-.057-1.191h-.028a2.538,2.538,0,0,1-2.34,1.347c-1.659,0-2.935-1.4-2.935-3.488-.015-2.285,1.4-3.688,3.078-3.688a2.3,2.3,0,0,1,2.071,1.05h.027v-4.1Zm-1.249,6a2.2,2.2,0,0,0-.057-.525,1.833,1.833,0,0,0-1.8-1.446c-1.291,0-2.058,1.134-2.058,2.652,0,1.389.681,2.538,2.028,2.538a1.875,1.875,0,0,0,1.829-1.489,2.168,2.168,0,0,0,.057-.539Z" transform="translate(-505.764 -249.696)"/>
        <path id="Trazado_116164" data-name="Trazado 116164" d="M560.04,256.089a2.2,2.2,0,0,0,2.356,2.383,4.51,4.51,0,0,0,1.9-.355l.213.894a5.561,5.561,0,0,1-2.284.426,3.187,3.187,0,0,1-3.375-3.461c0-2.071,1.219-3.7,3.219-3.7,2.241,0,2.837,1.971,2.837,3.234a4.912,4.912,0,0,1-.043.581Zm3.66-.893a1.777,1.777,0,0,0-1.73-2.028,2.068,2.068,0,0,0-1.914,2.028Z" transform="translate(-504.528 -249.225)"/>
        <path id="Trazado_116165" data-name="Trazado 116165" d="M565.281,249.7h1.248v10.069h-1.248Z" transform="translate(-503.354 -249.696)"/>
        <path id="Trazado_116166" data-name="Trazado 116166" d="M518.771,273.437a4.6,4.6,0,0,1-1.972.4,3.261,3.261,0,0,1-3.416-3.5,3.487,3.487,0,0,1,3.687-3.646,4.172,4.172,0,0,1,1.73.355l-.283.964a2.914,2.914,0,0,0-1.447-.325,2.588,2.588,0,0,0-.043,5.162,3.566,3.566,0,0,0,1.531-.339Z" transform="translate(-512.829 -246.594)"/>
        <path id="Trazado_116167" data-name="Trazado 116167" d="M520.592,265.3a.773.773,0,0,1-1.547,0,.761.761,0,0,1,.781-.78A.741.741,0,0,1,520.592,265.3Zm-1.39,8.794v-6.865h1.246v6.865Z" transform="translate(-511.795 -246.991)"/>
        <path id="Trazado_116168" data-name="Trazado 116168" d="M521.994,268.688c0-.71-.014-1.29-.057-1.858h1.106l.072,1.135h.027a2.525,2.525,0,0,1,2.269-1.291c.951,0,2.425.568,2.425,2.922v4.1h-1.248v-3.957c0-1.107-.413-2.028-1.589-2.028a1.774,1.774,0,0,0-1.673,1.276,1.8,1.8,0,0,0-.085.582v4.127h-1.248Z" transform="translate(-511.267 -246.597)"/>
        <path id="Trazado_116169" data-name="Trazado 116169" d="M530.22,265.139v1.971h1.788v.95H530.22v3.7c0,.85.241,1.333.937,1.333a2.761,2.761,0,0,0,.722-.085l.057.937a3.045,3.045,0,0,1-1.106.17,1.729,1.729,0,0,1-1.347-.525,2.543,2.543,0,0,1-.483-1.787V268.06h-1.064v-.95H529v-1.645Z" transform="translate(-510.171 -246.877)"/>
        <path id="Trazado_116170" data-name="Trazado 116170" d="M538.319,271.8c0,.708.014,1.333.058,1.872H537.27l-.071-1.12h-.028a2.585,2.585,0,0,1-2.269,1.276c-1.078,0-2.369-.6-2.369-3.007v-4.014h1.248v3.8c0,1.306.4,2.184,1.533,2.184a1.759,1.759,0,0,0,1.758-1.773v-4.212h1.248Z" transform="translate(-509.332 -246.572)"/>
        <path id="Trazado_116171" data-name="Trazado 116171" d="M539.191,268.972c0-.808-.015-1.5-.058-2.142h1.093l.043,1.347h.057a2.058,2.058,0,0,1,1.9-1.5,1.351,1.351,0,0,1,.355.043v1.178a1.882,1.882,0,0,0-.427-.044,1.753,1.753,0,0,0-1.673,1.6,3.654,3.654,0,0,0-.056.582v3.659h-1.233Z" transform="translate(-508.128 -246.597)"/>
        <path id="Trazado_116172" data-name="Trazado 116172" d="M549.274,270.206a3.355,3.355,0,0,1-3.418,3.645,3.264,3.264,0,0,1-3.291-3.532,3.352,3.352,0,0,1,3.4-3.645A3.251,3.251,0,0,1,549.274,270.206Zm-5.446.07c0,1.5.865,2.638,2.085,2.638,1.191,0,2.084-1.12,2.084-2.667,0-1.162-.581-2.637-2.055-2.637S543.828,268.972,543.828,270.276Z" transform="translate(-507.501 -246.597)"/>
        <path id="Trazado_116173" data-name="Trazado 116173" d="M549.582,268.688c0-.71-.014-1.29-.058-1.858h1.107l.072,1.135h.027A2.525,2.525,0,0,1,553,266.674c.951,0,2.425.568,2.425,2.922v4.1h-1.248v-3.957c0-1.107-.413-2.028-1.589-2.028a1.774,1.774,0,0,0-1.673,1.276,1.794,1.794,0,0,0-.085.582v4.127h-1.248Z" transform="translate(-506.231 -246.597)"/>
      </g>
      <g id="Grupo_60729" data-name="Grupo 60729" transform="translate(323.925 364.165)">
        <path id="Trazado_116174" data-name="Trazado 116174" d="M501.943,395.43h1.235v8.524h4.085v1.036h-5.319Z" transform="translate(-501.902 -394.919)"/>
        <path id="Trazado_116175" data-name="Trazado 116175" d="M511.456,404.6l-.1-.866h-.043a2.559,2.559,0,0,1-2.1,1.022,1.957,1.957,0,0,1-2.1-1.971c0-1.66,1.475-2.567,4.127-2.554v-.142a1.415,1.415,0,0,0-1.56-1.588,3.426,3.426,0,0,0-1.788.511l-.283-.822a4.246,4.246,0,0,1,2.254-.61c2.1,0,2.61,1.432,2.61,2.807v2.567a9.807,9.807,0,0,0,.114,1.646Zm-.185-3.5c-1.361-.028-2.907.212-2.907,1.546a1.1,1.1,0,0,0,1.177,1.192,1.708,1.708,0,0,0,1.659-1.148,1.315,1.315,0,0,0,.071-.4Z" transform="translate(-500.957 -394.527)"/>
        <path id="Trazado_116176" data-name="Trazado 116176" d="M513.365,399.875c0-.809-.014-1.5-.057-2.142H514.4l.044,1.347h.056a2.059,2.059,0,0,1,1.9-1.5,1.4,1.4,0,0,1,.355.041V398.8a1.887,1.887,0,0,0-.427-.043,1.752,1.752,0,0,0-1.673,1.6,3.615,3.615,0,0,0-.057.581v3.66h-1.233Z" transform="translate(-499.827 -394.527)"/>
        <path id="Trazado_116177" data-name="Trazado 116177" d="M523.175,397.733c-.03.5-.057,1.049-.057,1.886V403.6c0,1.574-.312,2.538-.979,3.134a3.633,3.633,0,0,1-2.5.824,4.407,4.407,0,0,1-2.282-.569l.311-.951a3.86,3.86,0,0,0,2.014.539c1.276,0,2.212-.666,2.212-2.4v-.766h-.028a2.449,2.449,0,0,1-2.184,1.148,3.068,3.068,0,0,1-2.921-3.347c0-2.326,1.517-3.645,3.091-3.645A2.279,2.279,0,0,1,522,398.768h.03l.057-1.035Zm-1.291,2.708a1.767,1.767,0,0,0-.071-.566,1.8,1.8,0,0,0-1.744-1.32c-1.191,0-2.042,1.008-2.042,2.6,0,1.347.68,2.468,2.028,2.468a1.825,1.825,0,0,0,1.73-1.277,2.161,2.161,0,0,0,.1-.666Z" transform="translate(-499.196 -394.527)"/>
        <path id="Trazado_116178" data-name="Trazado 116178" d="M530.181,401.108a3.356,3.356,0,0,1-3.419,3.646,3.264,3.264,0,0,1-3.29-3.532,3.351,3.351,0,0,1,3.4-3.645A3.251,3.251,0,0,1,530.181,401.108Zm-5.447.071c0,1.5.866,2.638,2.085,2.638,1.192,0,2.084-1.121,2.084-2.667,0-1.164-.581-2.638-2.055-2.638S524.734,399.875,524.734,401.179Z" transform="translate(-497.971 -394.527)"/>
        <path id="Trazado_116179" data-name="Trazado 116179" d="M539.028,395v8.3c0,.609.014,1.3.057,1.773h-1.12l-.057-1.192h-.03a2.539,2.539,0,0,1-2.339,1.348c-1.659,0-2.935-1.4-2.935-3.49-.015-2.284,1.4-3.687,3.077-3.687a2.294,2.294,0,0,1,2.071,1.049h.027V395Zm-1.249,6a2.195,2.195,0,0,0-.056-.524,1.836,1.836,0,0,0-1.8-1.447c-1.291,0-2.056,1.134-2.056,2.652,0,1.389.68,2.539,2.028,2.539a1.876,1.876,0,0,0,1.829-1.49,2.157,2.157,0,0,0,.056-.538Z" transform="translate(-496.304 -394.998)"/>
        <path id="Trazado_116180" data-name="Trazado 116180" d="M540.563,401.392a2.2,2.2,0,0,0,2.354,2.382,4.523,4.523,0,0,0,1.9-.354l.212.893a5.555,5.555,0,0,1-2.282.427,3.188,3.188,0,0,1-3.376-3.461c0-2.071,1.219-3.7,3.22-3.7,2.24,0,2.836,1.971,2.836,3.234a4.7,4.7,0,0,1-.043.581Zm3.66-.894a1.779,1.779,0,0,0-1.73-2.028,2.067,2.067,0,0,0-1.914,2.028Z" transform="translate(-495.069 -394.527)"/>
        <path id="Trazado_116181" data-name="Trazado 116181" d="M501.908,409.4h1.248v10.069h-1.248Z" transform="translate(-501.908 -392.369)"/>
        <path id="Trazado_116182" data-name="Trazado 116182" d="M508.624,419l-.1-.864h-.042a2.555,2.555,0,0,1-2.1,1.021,1.956,1.956,0,0,1-2.1-1.971c0-1.659,1.475-2.567,4.127-2.552v-.142a1.415,1.415,0,0,0-1.56-1.589,3.425,3.425,0,0,0-1.788.511l-.283-.823a4.267,4.267,0,0,1,2.254-.609c2.1,0,2.61,1.432,2.61,2.809v2.566a9.782,9.782,0,0,0,.114,1.645Zm-.184-3.5c-1.362-.028-2.907.213-2.907,1.546a1.1,1.1,0,0,0,1.177,1.192,1.707,1.707,0,0,0,1.659-1.149,1.3,1.3,0,0,0,.071-.4Z" transform="translate(-501.474 -391.898)"/>
        <path id="Trazado_116183" data-name="Trazado 116183" d="M518.038,418.739a4.581,4.581,0,0,1-1.972.4,3.261,3.261,0,0,1-3.418-3.5,3.488,3.488,0,0,1,3.688-3.646,4.186,4.186,0,0,1,1.729.355l-.283.965a2.894,2.894,0,0,0-1.446-.326,2.588,2.588,0,0,0-.044,5.162,3.539,3.539,0,0,0,1.531-.339Z" transform="translate(-499.947 -391.896)"/>
        <path id="Trazado_116184" data-name="Trazado 116184" d="M518.444,409.4h1.248v4.283h.028a2.317,2.317,0,0,1,.894-.88,2.58,2.58,0,0,1,1.276-.354c.922,0,2.4.566,2.4,2.935v4.085h-1.248v-3.943c0-1.106-.412-2.041-1.589-2.041a1.793,1.793,0,0,0-1.673,1.246,1.539,1.539,0,0,0-.085.6v4.141h-1.248Z" transform="translate(-498.889 -392.369)"/>
        <path id="Trazado_116185" data-name="Trazado 116185" d="M528.987,419l-.1-.864h-.042a2.555,2.555,0,0,1-2.1,1.021,1.956,1.956,0,0,1-2.1-1.971c0-1.659,1.476-2.567,4.128-2.552v-.142a1.416,1.416,0,0,0-1.561-1.589,3.418,3.418,0,0,0-1.787.511l-.284-.823a4.268,4.268,0,0,1,2.255-.609c2.1,0,2.61,1.432,2.61,2.809v2.566a9.791,9.791,0,0,0,.112,1.645Zm-.184-3.5c-1.361-.028-2.907.213-2.907,1.546a1.1,1.1,0,0,0,1.177,1.192,1.709,1.709,0,0,0,1.66-1.149,1.294,1.294,0,0,0,.07-.4Z" transform="translate(-497.757 -391.898)"/>
        <path id="Trazado_116186" data-name="Trazado 116186" d="M535.644,417.934h-.028a2.443,2.443,0,0,1-2.241,1.219c-1.6,0-2.907-1.39-2.907-3.476,0-2.565,1.659-3.7,3.105-3.7a2.256,2.256,0,0,1,2.113,1.191h.028l.043-1.036h1.178c-.03.583-.044,1.178-.044,1.887v7.786h-1.248Zm0-3.021a2.114,2.114,0,0,0-.057-.524,1.824,1.824,0,0,0-1.787-1.419c-1.291,0-2.071,1.091-2.071,2.638,0,1.361.653,2.553,2.028,2.553a1.859,1.859,0,0,0,1.787-1.361,2.11,2.11,0,0,0,.1-.6Z" transform="translate(-496.694 -391.898)"/>
        <path id="Trazado_116187" data-name="Trazado 116187" d="M543.393,417.1c0,.71.015,1.334.058,1.872h-1.107l-.071-1.12h-.028a2.581,2.581,0,0,1-2.269,1.276c-1.078,0-2.369-.595-2.369-3.006v-4.015h1.248v3.8c0,1.306.4,2.185,1.533,2.185a1.757,1.757,0,0,0,1.758-1.773v-4.213h1.248Z" transform="translate(-495.391 -391.874)"/>
        <path id="Trazado_116188" data-name="Trazado 116188" d="M545.027,415.792a2.2,2.2,0,0,0,2.354,2.383,4.51,4.51,0,0,0,1.9-.355l.213.894a5.565,5.565,0,0,1-2.284.425,3.188,3.188,0,0,1-3.375-3.461c0-2.071,1.219-3.7,3.22-3.7,2.24,0,2.836,1.971,2.836,3.233a4.721,4.721,0,0,1-.042.582Zm3.659-.894a1.777,1.777,0,0,0-1.729-2.028,2.069,2.069,0,0,0-1.916,2.028Z" transform="translate(-494.254 -391.898)"/>
        <path id="Trazado_116189" data-name="Trazado 116189" d="M551.89,410.441v1.971h1.788v.951H551.89v3.7c0,.851.241,1.334.937,1.334a2.767,2.767,0,0,0,.723-.085l.057.937a3.049,3.049,0,0,1-1.106.169,1.731,1.731,0,0,1-1.347-.524,2.546,2.546,0,0,1-.482-1.788v-3.744h-1.064v-.951h1.064v-1.645Z" transform="translate(-493.2 -392.179)"/>
        <path id="Trazado_116190" data-name="Trazado 116190" d="M558.123,419l-.1-.864h-.043a2.553,2.553,0,0,1-2.1,1.021,1.956,1.956,0,0,1-2.1-1.971c0-1.659,1.475-2.567,4.127-2.552v-.142a1.415,1.415,0,0,0-1.56-1.589,3.425,3.425,0,0,0-1.788.511l-.283-.823a4.267,4.267,0,0,1,2.254-.609c2.1,0,2.61,1.432,2.61,2.809v2.566a9.782,9.782,0,0,0,.114,1.645Zm-.185-3.5c-1.361-.028-2.907.213-2.907,1.546a1.1,1.1,0,0,0,1.177,1.192,1.707,1.707,0,0,0,1.659-1.149,1.3,1.3,0,0,0,.071-.4Z" transform="translate(-492.438 -391.898)"/>
      </g>
      <g id="Grupo_60730" data-name="Grupo 60730" transform="translate(304.747 423.109)">
        <path id="Trazado_116191" data-name="Trazado 116191" d="M485.727,445.414a11.854,11.854,0,0,1,2.255-.2,3.949,3.949,0,0,1,2.624.7,2,2,0,0,1,.793,1.686,2.271,2.271,0,0,1-1.617,2.1v.027a2.465,2.465,0,0,1,1.971,2.4,2.583,2.583,0,0,1-.808,1.915,4.808,4.808,0,0,1-3.305.893,14.424,14.424,0,0,1-1.915-.113Zm1.235,3.913h1.12c1.3,0,2.071-.68,2.071-1.6,0-1.121-.851-1.56-2.1-1.56a5.3,5.3,0,0,0-1.09.084Zm0,4.581a6.441,6.441,0,0,0,1.035.057c1.277,0,2.454-.467,2.454-1.858,0-1.3-1.121-1.844-2.468-1.844h-1.021Z" transform="translate(-485.684 -444.775)"/>
        <path id="Trazado_116192" data-name="Trazado 116192" d="M496.079,454.442l-.1-.864h-.043a2.558,2.558,0,0,1-2.1,1.021,1.956,1.956,0,0,1-2.1-1.971c0-1.659,1.475-2.567,4.127-2.553v-.142a1.414,1.414,0,0,0-1.56-1.588,3.425,3.425,0,0,0-1.788.511l-.283-.822a4.247,4.247,0,0,1,2.254-.61c2.1,0,2.61,1.432,2.61,2.807V452.8a9.782,9.782,0,0,0,.114,1.645Zm-.185-3.5c-1.361-.028-2.907.212-2.907,1.546a1.1,1.1,0,0,0,1.177,1.192,1.709,1.709,0,0,0,1.659-1.149,1.3,1.3,0,0,0,.071-.4Z" transform="translate(-484.587 -444.372)"/>
        <path id="Trazado_116193" data-name="Trazado 116193" d="M496.563,456.821a2.024,2.024,0,0,0,1.362-.524c.341-.4.468-.937.468-2.581v-5.744h1.248V454.2a3.767,3.767,0,0,1-.822,2.823,3.168,3.168,0,0,1-2.127.781Zm3.22-10.779a.732.732,0,0,1-.779.766.744.744,0,0,1-.766-.766.764.764,0,0,1,.794-.779A.738.738,0,0,1,499.783,446.042Z" transform="translate(-483.706 -444.766)"/>
        <path id="Trazado_116194" data-name="Trazado 116194" d="M507.183,450.953a3.354,3.354,0,0,1-3.418,3.645,3.263,3.263,0,0,1-3.29-3.531,3.351,3.351,0,0,1,3.4-3.645A3.25,3.25,0,0,1,507.183,450.953Zm-5.446.071c0,1.5.865,2.637,2.085,2.637,1.191,0,2.084-1.12,2.084-2.667,0-1.162-.581-2.637-2.055-2.637S501.738,449.719,501.738,451.024Z" transform="translate(-482.992 -444.372)"/>
        <path id="Trazado_116195" data-name="Trazado 116195" d="M516.032,444.843v8.3c0,.61.014,1.3.057,1.773h-1.12l-.057-1.191h-.03a2.538,2.538,0,0,1-2.339,1.347c-1.659,0-2.936-1.4-2.936-3.488-.014-2.285,1.4-3.687,3.078-3.687a2.294,2.294,0,0,1,2.071,1.049h.027v-4.1Zm-1.249,6a2.185,2.185,0,0,0-.056-.524,1.836,1.836,0,0,0-1.8-1.447c-1.291,0-2.057,1.134-2.057,2.652,0,1.389.68,2.539,2.028,2.539a1.876,1.876,0,0,0,1.829-1.49,2.159,2.159,0,0,0,.056-.538Z" transform="translate(-481.325 -444.843)"/>
        <path id="Trazado_116196" data-name="Trazado 116196" d="M517.566,451.236a2.2,2.2,0,0,0,2.354,2.383,4.509,4.509,0,0,0,1.9-.355l.213.894a5.557,5.557,0,0,1-2.284.427,3.188,3.188,0,0,1-3.375-3.461c0-2.071,1.219-3.7,3.22-3.7,2.24,0,2.836,1.971,2.836,3.233a4.674,4.674,0,0,1-.043.581Zm3.66-.893a1.779,1.779,0,0,0-1.73-2.028,2.067,2.067,0,0,0-1.914,2.028Z" transform="translate(-480.089 -444.372)"/>
        <path id="Trazado_116197" data-name="Trazado 116197" d="M485.691,459.243h1.248v10.069h-1.248Z" transform="translate(-485.691 -442.214)"/>
        <path id="Trazado_116198" data-name="Trazado 116198" d="M492.407,468.842l-.1-.866h-.043a2.556,2.556,0,0,1-2.1,1.022,1.956,1.956,0,0,1-2.1-1.971c0-1.66,1.475-2.567,4.128-2.553v-.142a1.416,1.416,0,0,0-1.561-1.588,3.427,3.427,0,0,0-1.787.51l-.284-.822a4.258,4.258,0,0,1,2.255-.61c2.1,0,2.61,1.432,2.61,2.809V467.2a9.793,9.793,0,0,0,.112,1.645Zm-.184-3.5c-1.361-.03-2.907.213-2.907,1.546a1.1,1.1,0,0,0,1.177,1.191,1.7,1.7,0,0,0,1.659-1.148,1.266,1.266,0,0,0,.071-.4Z" transform="translate(-485.257 -441.743)"/>
        <path id="Trazado_116199" data-name="Trazado 116199" d="M497.108,469.337v-5.914h-.964v-.951h.964v-.325a3.238,3.238,0,0,1,.795-2.4,2.39,2.39,0,0,1,1.673-.639,2.888,2.888,0,0,1,1.063.2l-.169.966a1.844,1.844,0,0,0-.795-.157c-1.064,0-1.333.937-1.333,1.987v.368H500v.951h-1.658v5.914Z" transform="translate(-483.783 -442.238)"/>
        <path id="Trazado_116200" data-name="Trazado 116200" d="M504.239,468.842l-.1-.866H504.1A2.556,2.556,0,0,1,502,469a1.956,1.956,0,0,1-2.1-1.971c0-1.66,1.475-2.567,4.128-2.553v-.142a1.416,1.416,0,0,0-1.561-1.588,3.428,3.428,0,0,0-1.787.51l-.284-.822a4.258,4.258,0,0,1,2.255-.61c2.1,0,2.61,1.432,2.61,2.809V467.2a9.793,9.793,0,0,0,.112,1.645Zm-.185-3.5c-1.361-.03-2.907.213-2.907,1.546a1.1,1.1,0,0,0,1.177,1.191,1.708,1.708,0,0,0,1.66-1.148,1.3,1.3,0,0,0,.07-.4Z" transform="translate(-483.097 -441.743)"/>
        <path id="Trazado_116201" data-name="Trazado 116201" d="M506.139,459.243h1.246v10.069h-1.246Z" transform="translate(-481.958 -442.214)"/>
        <path id="Trazado_116202" data-name="Trazado 116202" d="M514.975,459.243v8.3c0,.609.014,1.3.057,1.773h-1.12l-.057-1.191h-.028a2.541,2.541,0,0,1-2.34,1.347c-1.659,0-2.935-1.4-2.935-3.49-.015-2.282,1.4-3.687,3.077-3.687a2.293,2.293,0,0,1,2.071,1.05h.028v-4.1Zm-1.248,6a2.2,2.2,0,0,0-.057-.525,1.835,1.835,0,0,0-1.8-1.447c-1.29,0-2.056,1.135-2.056,2.654,0,1.389.68,2.538,2.028,2.538a1.876,1.876,0,0,0,1.829-1.489,2.168,2.168,0,0,0,.057-.539Z" transform="translate(-481.518 -442.214)"/>
        <path id="Trazado_116203" data-name="Trazado 116203" d="M519.623,468.842l-.1-.866h-.043a2.554,2.554,0,0,1-2.1,1.022,1.956,1.956,0,0,1-2.1-1.971c0-1.66,1.475-2.567,4.127-2.553v-.142a1.415,1.415,0,0,0-1.56-1.588,3.435,3.435,0,0,0-1.788.51l-.283-.822a4.257,4.257,0,0,1,2.254-.61c2.1,0,2.61,1.432,2.61,2.809V467.2a9.791,9.791,0,0,0,.114,1.645Zm-.184-3.5c-1.361-.03-2.907.213-2.907,1.546a1.1,1.1,0,0,0,1.177,1.191,1.706,1.706,0,0,0,1.659-1.148,1.3,1.3,0,0,0,.071-.4Z" transform="translate(-480.289 -441.743)"/>
      </g>
      <g id="Grupo_60731" data-name="Grupo 60731" transform="translate(67.628 357.682)">
        <path id="Trazado_116204" data-name="Trazado 116204" d="M285.632,389.947h5.149v1.036h-3.914v3.178h3.617v1.021h-3.617v4.326h-1.235Z" transform="translate(-285.094 -389.437)"/>
        <path id="Trazado_116205" data-name="Trazado 116205" d="M297.358,395.626a3.355,3.355,0,0,1-3.419,3.645,3.263,3.263,0,0,1-3.29-3.531,3.35,3.35,0,0,1,3.4-3.645A3.251,3.251,0,0,1,297.358,395.626Zm-5.447.071c0,1.5.866,2.637,2.085,2.637,1.192,0,2.085-1.12,2.085-2.667,0-1.162-.582-2.637-2.056-2.637S291.911,394.392,291.911,395.7Z" transform="translate(-284.178 -389.045)"/>
        <path id="Trazado_116206" data-name="Trazado 116206" d="M297.666,394.392c0-.808-.015-1.5-.058-2.14H298.7l.043,1.346h.057a2.057,2.057,0,0,1,1.9-1.5,1.354,1.354,0,0,1,.355.041v1.178a1.876,1.876,0,0,0-.426-.043,1.75,1.75,0,0,0-1.673,1.6,3.515,3.515,0,0,0-.057.582v3.659h-1.233Z" transform="translate(-282.908 -389.045)"/>
        <path id="Trazado_116207" data-name="Trazado 116207" d="M301.638,394.392c0-.808-.014-1.5-.057-2.14h1.091l.044,1.346h.056a2.06,2.06,0,0,1,1.9-1.5,1.353,1.353,0,0,1,.355.041v1.178a1.887,1.887,0,0,0-.427-.043,1.751,1.751,0,0,0-1.673,1.6,3.647,3.647,0,0,0-.057.582v3.659h-1.233Z" transform="translate(-282.182 -389.045)"/>
        <path id="Trazado_116208" data-name="Trazado 116208" d="M311.722,395.626a3.355,3.355,0,0,1-3.419,3.645,3.263,3.263,0,0,1-3.29-3.531,3.351,3.351,0,0,1,3.4-3.645A3.251,3.251,0,0,1,311.722,395.626Zm-5.446.071c0,1.5.865,2.637,2.084,2.637,1.192,0,2.085-1.12,2.085-2.667,0-1.162-.581-2.637-2.055-2.637S306.276,394.392,306.276,395.7Z" transform="translate(-281.556 -389.045)"/>
        <path id="Trazado_116209" data-name="Trazado 116209" d="M320.57,389.516v8.3c0,.61.013,1.3.056,1.773h-1.12l-.057-1.192h-.028a2.537,2.537,0,0,1-2.34,1.348c-1.659,0-2.935-1.4-2.935-3.489-.015-2.285,1.4-3.687,3.078-3.687a2.3,2.3,0,0,1,2.071,1.048h.027v-4.1Zm-1.249,6a2.188,2.188,0,0,0-.057-.524,1.834,1.834,0,0,0-1.8-1.447c-1.29,0-2.056,1.134-2.056,2.652,0,1.389.681,2.539,2.028,2.539a1.875,1.875,0,0,0,1.829-1.49,2.16,2.16,0,0,0,.057-.538Z" transform="translate(-279.889 -389.516)"/>
        <path id="Trazado_116210" data-name="Trazado 116210" d="M322.1,395.909a2.2,2.2,0,0,0,2.356,2.383,4.509,4.509,0,0,0,1.9-.355l.213.894a5.56,5.56,0,0,1-2.284.426,3.187,3.187,0,0,1-3.375-3.46c0-2.071,1.219-3.7,3.219-3.7,2.241,0,2.837,1.971,2.837,3.233a4.9,4.9,0,0,1-.043.581Zm3.66-.894a1.777,1.777,0,0,0-1.73-2.027,2.068,2.068,0,0,0-1.915,2.027Z" transform="translate(-278.653 -389.045)"/>
        <path id="Trazado_116211" data-name="Trazado 116211" d="M329.889,389.516h1.248v10.069h-1.248Z" transform="translate(-277.014 -389.516)"/>
        <path id="Trazado_116212" data-name="Trazado 116212" d="M336.6,399.115l-.1-.864h-.043a2.558,2.558,0,0,1-2.1,1.021,1.956,1.956,0,0,1-2.1-1.971c0-1.659,1.475-2.567,4.127-2.553V394.6a1.414,1.414,0,0,0-1.56-1.588,3.425,3.425,0,0,0-1.788.511l-.283-.823a4.257,4.257,0,0,1,2.254-.609c2.1,0,2.61,1.432,2.61,2.807v2.567a9.776,9.776,0,0,0,.114,1.645Zm-.184-3.5c-1.362-.027-2.907.213-2.907,1.547a1.1,1.1,0,0,0,1.177,1.192,1.709,1.709,0,0,0,1.659-1.149,1.3,1.3,0,0,0,.071-.4Z" transform="translate(-276.581 -389.045)"/>
        <path id="Trazado_116213" data-name="Trazado 116213" d="M290.567,413.257a4.6,4.6,0,0,1-1.973.4,3.261,3.261,0,0,1-3.418-3.5,3.488,3.488,0,0,1,3.687-3.646,4.172,4.172,0,0,1,1.73.355l-.283.964a2.91,2.91,0,0,0-1.447-.325,2.588,2.588,0,0,0-.043,5.162,3.544,3.544,0,0,0,1.531-.339Z" transform="translate(-285.177 -386.414)"/>
        <path id="Trazado_116214" data-name="Trazado 116214" d="M290.973,403.916h1.248V408.2h.028a2.315,2.315,0,0,1,.894-.879,2.569,2.569,0,0,1,1.276-.355c.922,0,2.4.568,2.4,2.936v4.085h-1.248v-3.943c0-1.107-.412-2.042-1.589-2.042a1.794,1.794,0,0,0-1.673,1.248,1.533,1.533,0,0,0-.085.6v4.141h-1.248Z" transform="translate(-284.119 -386.887)"/>
        <path id="Trazado_116215" data-name="Trazado 116215" d="M301.517,413.515l-.1-.866h-.043a2.554,2.554,0,0,1-2.1,1.022,1.956,1.956,0,0,1-2.1-1.971c0-1.66,1.475-2.567,4.127-2.553V409a1.415,1.415,0,0,0-1.56-1.589,3.426,3.426,0,0,0-1.788.511l-.283-.822a4.257,4.257,0,0,1,2.254-.61c2.1,0,2.61,1.432,2.61,2.809v2.567a9.785,9.785,0,0,0,.114,1.645Zm-.184-3.5c-1.361-.03-2.907.212-2.907,1.544a1.1,1.1,0,0,0,1.177,1.192,1.706,1.706,0,0,0,1.659-1.148,1.3,1.3,0,0,0,.071-.4Z" transform="translate(-282.986 -386.417)"/>
        <path id="Trazado_116216" data-name="Trazado 116216" d="M308.173,412.451h-.028a2.444,2.444,0,0,1-2.241,1.22c-1.6,0-2.907-1.389-2.907-3.476,0-2.566,1.659-3.7,3.105-3.7a2.257,2.257,0,0,1,2.113,1.192h.028l.043-1.036h1.177c-.028.582-.043,1.177-.043,1.887v7.786h-1.248Zm0-3.02a2.126,2.126,0,0,0-.057-.525,1.825,1.825,0,0,0-1.787-1.418c-1.291,0-2.071,1.091-2.071,2.637,0,1.362.653,2.554,2.028,2.554a1.86,1.86,0,0,0,1.787-1.362,2.14,2.14,0,0,0,.1-.6Z" transform="translate(-281.924 -386.417)"/>
        <path id="Trazado_116217" data-name="Trazado 116217" d="M315.922,411.619c0,.708.015,1.334.058,1.872h-1.107l-.071-1.121h-.028a2.584,2.584,0,0,1-2.269,1.277c-1.078,0-2.369-.595-2.369-3.006v-4.015h1.248v3.8c0,1.3.4,2.185,1.533,2.185a1.76,1.76,0,0,0,1.758-1.774v-4.212h1.248Z" transform="translate(-280.621 -386.392)"/>
        <path id="Trazado_116218" data-name="Trazado 116218" d="M317.556,410.31a2.2,2.2,0,0,0,2.354,2.382,4.512,4.512,0,0,0,1.9-.354l.213.893a5.56,5.56,0,0,1-2.284.426,3.188,3.188,0,0,1-3.375-3.461c0-2.071,1.219-3.7,3.219-3.7,2.241,0,2.837,1.971,2.837,3.234a5.005,5.005,0,0,1-.043.582Zm3.659-.894a1.777,1.777,0,0,0-1.73-2.028,2.068,2.068,0,0,0-1.915,2.028Z" transform="translate(-279.483 -386.417)"/>
        <path id="Trazado_116219" data-name="Trazado 116219" d="M324.419,404.959v1.971h1.788v.951h-1.788v3.7c0,.85.241,1.334.937,1.334a2.764,2.764,0,0,0,.723-.086l.057.937a3.046,3.046,0,0,1-1.106.17,1.728,1.728,0,0,1-1.347-.525,2.543,2.543,0,0,1-.482-1.787v-3.744h-1.064v-.951H323.2v-1.646Z" transform="translate(-278.43 -386.697)"/>
        <path id="Trazado_116220" data-name="Trazado 116220" d="M330.653,413.515l-.1-.866h-.043a2.557,2.557,0,0,1-2.1,1.022,1.956,1.956,0,0,1-2.1-1.971c0-1.66,1.475-2.567,4.127-2.553V409a1.416,1.416,0,0,0-1.56-1.589,3.423,3.423,0,0,0-1.788.511l-.283-.822a4.254,4.254,0,0,1,2.254-.61c2.1,0,2.61,1.432,2.61,2.809v2.567a9.785,9.785,0,0,0,.113,1.645Zm-.184-3.5c-1.362-.03-2.907.212-2.907,1.544a1.1,1.1,0,0,0,1.177,1.192A1.706,1.706,0,0,0,330.4,411.6a1.3,1.3,0,0,0,.071-.4Z" transform="translate(-277.667 -386.417)"/>
      </g>
      <g id="Grupo_60732" data-name="Grupo 60732" transform="translate(36.341 252.205)">
        <path id="Trazado_116221" data-name="Trazado 116221" d="M258.8,300.893a11.957,11.957,0,0,1,2.255-.2,3.949,3.949,0,0,1,2.624.7,2,2,0,0,1,.795,1.688,2.271,2.271,0,0,1-1.617,2.1v.028a2.464,2.464,0,0,1,1.971,2.4,2.582,2.582,0,0,1-.809,1.915,4.8,4.8,0,0,1-3.305.893,14.447,14.447,0,0,1-1.915-.114Zm1.235,3.914h1.12c1.306,0,2.071-.681,2.071-1.6,0-1.121-.85-1.56-2.1-1.56a5.318,5.318,0,0,0-1.092.084Zm0,4.581a6.59,6.59,0,0,0,1.035.057c1.277,0,2.454-.468,2.454-1.859,0-1.3-1.12-1.844-2.468-1.844h-1.021Z" transform="translate(-258.705 -300.254)"/>
        <path id="Trazado_116222" data-name="Trazado 116222" d="M271.61,306.432a3.356,3.356,0,0,1-3.419,3.646,3.264,3.264,0,0,1-3.29-3.532,3.351,3.351,0,0,1,3.4-3.645A3.251,3.251,0,0,1,271.61,306.432Zm-5.447.071c0,1.5.866,2.638,2.085,2.638,1.192,0,2.085-1.121,2.085-2.667,0-1.164-.582-2.638-2.056-2.638S266.163,305.2,266.163,306.5Z" transform="translate(-257.592 -299.851)"/>
        <path id="Trazado_116223" data-name="Trazado 116223" d="M271.909,300.322h1.246v10.071h-1.246Z" transform="translate(-256.312 -300.322)"/>
        <path id="Trazado_116224" data-name="Trazado 116224" d="M274.644,308.645a3.269,3.269,0,0,0,1.646.5c.907,0,1.333-.454,1.333-1.022,0-.595-.355-.921-1.276-1.262-1.235-.44-1.816-1.121-1.816-1.943A2.117,2.117,0,0,1,276.9,302.9a3.42,3.42,0,0,1,1.688.425l-.311.908a2.673,2.673,0,0,0-1.4-.4c-.737,0-1.148.426-1.148.937,0,.566.411.822,1.3,1.162,1.192.454,1.8,1.05,1.8,2.072,0,1.205-.935,2.056-2.567,2.056a3.911,3.911,0,0,1-1.928-.468Z" transform="translate(-255.87 -299.851)"/>
        <path id="Trazado_116225" data-name="Trazado 116225" d="M280.906,301.521a.773.773,0,0,1-1.546,0,.761.761,0,0,1,.78-.779A.74.74,0,0,1,280.906,301.521Zm-1.388,8.795v-6.865h1.246v6.865Z" transform="translate(-254.952 -300.245)"/>
        <path id="Trazado_116226" data-name="Trazado 116226" d="M282.3,300.322h1.248v10.071H282.3Z" transform="translate(-254.415 -300.322)"/>
        <path id="Trazado_116227" data-name="Trazado 116227" d="M285.132,300.322h1.248v10.071h-1.248Z" transform="translate(-253.898 -300.322)"/>
        <path id="Trazado_116228" data-name="Trazado 116228" d="M294.253,306.432a3.355,3.355,0,0,1-3.418,3.646,3.264,3.264,0,0,1-3.291-3.532,3.352,3.352,0,0,1,3.4-3.645A3.251,3.251,0,0,1,294.253,306.432Zm-5.446.071c0,1.5.864,2.638,2.085,2.638,1.191,0,2.084-1.121,2.084-2.667,0-1.164-.581-2.638-2.055-2.638S288.807,305.2,288.807,306.5Z" transform="translate(-253.458 -299.851)"/>
        <path id="Trazado_116229" data-name="Trazado 116229" d="M258.778,319.6c0-.808-.015-1.5-.058-2.142h1.093l.043,1.347h.057a2.06,2.06,0,0,1,1.9-1.5,1.342,1.342,0,0,1,.355.043v1.177a1.947,1.947,0,0,0-.426-.043,1.751,1.751,0,0,0-1.673,1.6,3.534,3.534,0,0,0-.057.583v3.658h-1.233Z" transform="translate(-258.72 -297.222)"/>
        <path id="Trazado_116230" data-name="Trazado 116230" d="M264.155,315.922a.773.773,0,0,1-1.547,0,.761.761,0,0,1,.781-.781A.741.741,0,0,1,264.155,315.922Zm-1.389,8.792v-6.864h1.246v6.864Z" transform="translate(-258.01 -297.616)"/>
        <path id="Trazado_116231" data-name="Trazado 116231" d="M265.5,324.791c.03-.467.058-1.162.058-1.773v-8.3h1.233v4.31h.03a2.556,2.556,0,0,1,2.339-1.262c1.7,0,2.908,1.418,2.894,3.5,0,2.454-1.546,3.673-3.078,3.673a2.442,2.442,0,0,1-2.3-1.29h-.044l-.056,1.134Zm1.291-2.751a2.432,2.432,0,0,0,.057.454,1.927,1.927,0,0,0,1.872,1.46c1.306,0,2.086-1.063,2.086-2.638,0-1.375-.71-2.552-2.043-2.552a1.989,1.989,0,0,0-1.9,1.531,2.447,2.447,0,0,0-.071.51Z" transform="translate(-257.482 -297.693)"/>
        <path id="Trazado_116232" data-name="Trazado 116232" d="M273.147,321.116A2.2,2.2,0,0,0,275.5,323.5a4.514,4.514,0,0,0,1.9-.355l.213.894a5.564,5.564,0,0,1-2.284.425,3.187,3.187,0,0,1-3.375-3.46c0-2.071,1.219-3.7,3.219-3.7,2.241,0,2.837,1.971,2.837,3.233a4.96,4.96,0,0,1-.043.582Zm3.66-.894a1.776,1.776,0,0,0-1.73-2.027,2.068,2.068,0,0,0-1.915,2.027Z" transform="translate(-256.303 -297.222)"/>
        <path id="Trazado_116233" data-name="Trazado 116233" d="M280.011,315.766v1.971H281.8v.95h-1.787v3.7c0,.851.241,1.334.937,1.334a2.773,2.773,0,0,0,.723-.085l.057.937a3.051,3.051,0,0,1-1.107.169,1.73,1.73,0,0,1-1.346-.524,2.544,2.544,0,0,1-.484-1.788v-3.744h-1.063v-.95h1.063v-1.646Z" transform="translate(-255.25 -297.503)"/>
        <path id="Trazado_116234" data-name="Trazado 116234" d="M283.059,321.116a2.2,2.2,0,0,0,2.356,2.383,4.51,4.51,0,0,0,1.9-.355l.213.894a5.565,5.565,0,0,1-2.284.425,3.187,3.187,0,0,1-3.375-3.46c0-2.071,1.219-3.7,3.219-3.7,2.241,0,2.837,1.971,2.837,3.233a4.97,4.97,0,0,1-.043.582Zm3.66-.894a1.776,1.776,0,0,0-1.73-2.027,2.068,2.068,0,0,0-1.915,2.027Z" transform="translate(-254.494 -297.222)"/>
        <path id="Trazado_116235" data-name="Trazado 116235" d="M292.184,324.321l-.1-.864h-.043a2.555,2.555,0,0,1-2.1,1.021,1.956,1.956,0,0,1-2.1-1.971c0-1.659,1.475-2.567,4.127-2.552v-.142a1.415,1.415,0,0,0-1.56-1.589,3.425,3.425,0,0,0-1.788.511l-.283-.823a4.267,4.267,0,0,1,2.254-.609c2.1,0,2.61,1.432,2.61,2.809v2.567a9.769,9.769,0,0,0,.113,1.644Zm-.185-3.5c-1.361-.028-2.907.213-2.907,1.546a1.1,1.1,0,0,0,1.177,1.192,1.707,1.707,0,0,0,1.659-1.149,1.29,1.29,0,0,0,.071-.4Z" transform="translate(-253.403 -297.222)"/>
        <path id="Trazado_116236" data-name="Trazado 116236" d="M300.089,314.723v8.3c0,.61.014,1.306.057,1.773h-1.12l-.057-1.191h-.03a2.536,2.536,0,0,1-2.339,1.347c-1.659,0-2.935-1.4-2.935-3.488-.015-2.284,1.4-3.687,3.077-3.687a2.3,2.3,0,0,1,2.071,1.049h.028v-4.1Zm-1.248,6a2.192,2.192,0,0,0-.057-.525,1.837,1.837,0,0,0-1.8-1.447c-1.29,0-2.055,1.135-2.055,2.652,0,1.391.68,2.539,2.028,2.539a1.876,1.876,0,0,0,1.829-1.489,2.176,2.176,0,0,0,.057-.539Z" transform="translate(-252.341 -297.693)"/>
        <path id="Trazado_116237" data-name="Trazado 116237" d="M307.141,320.832a3.354,3.354,0,0,1-3.419,3.645,3.263,3.263,0,0,1-3.29-3.531,3.351,3.351,0,0,1,3.4-3.645A3.251,3.251,0,0,1,307.141,320.832Zm-5.446.071c0,1.5.864,2.638,2.084,2.638,1.192,0,2.085-1.12,2.085-2.667,0-1.162-.581-2.637-2.055-2.637S301.695,319.6,301.695,320.9Z" transform="translate(-251.105 -297.222)"/>
      </g>
      <g id="Grupo_60733" data-name="Grupo 60733" transform="translate(0 211.592)">
        <path id="Trazado_116238" data-name="Trazado 116238" d="M230.258,272.964l-.993,3.007h-1.276l3.247-9.56h1.49l3.263,9.56h-1.32l-1.022-3.007Zm3.135-.964-.935-2.752c-.214-.624-.355-1.191-.5-1.744h-.03c-.142.566-.3,1.149-.481,1.73L230.514,272Z" transform="translate(-227.989 -265.9)"/>
        <path id="Trazado_116239" data-name="Trazado 116239" d="M235.824,276.05c.03-.468.058-1.162.058-1.773v-8.3h1.233v4.313h.028a2.555,2.555,0,0,1,2.34-1.262c1.7,0,2.908,1.418,2.893,3.5,0,2.454-1.544,3.673-3.077,3.673a2.446,2.446,0,0,1-2.3-1.291h-.043l-.057,1.135Zm1.291-2.752a2.337,2.337,0,0,0,.057.454,1.926,1.926,0,0,0,1.872,1.46c1.3,0,2.086-1.063,2.086-2.637,0-1.375-.71-2.554-2.043-2.554a1.99,1.99,0,0,0-1.9,1.533,2.46,2.46,0,0,0-.071.511Z" transform="translate(-226.559 -265.979)"/>
        <path id="Trazado_116240" data-name="Trazado 116240" d="M243.472,272.373a2.2,2.2,0,0,0,2.354,2.383,4.52,4.52,0,0,0,1.9-.355l.212.894a5.554,5.554,0,0,1-2.282.426,3.189,3.189,0,0,1-3.376-3.461c0-2.069,1.219-3.7,3.22-3.7,2.24,0,2.836,1.971,2.836,3.233a4.661,4.661,0,0,1-.043.581Zm3.66-.894a1.778,1.778,0,0,0-1.73-2.028,2.069,2.069,0,0,0-1.915,2.028Z" transform="translate(-225.38 -265.508)"/>
        <path id="Trazado_116241" data-name="Trazado 116241" d="M248.722,270.855c0-.809-.015-1.5-.058-2.142h1.093l.043,1.347h.057a2.058,2.058,0,0,1,1.9-1.5,1.354,1.354,0,0,1,.355.041v1.178a1.812,1.812,0,0,0-.426-.043,1.75,1.75,0,0,0-1.673,1.6,3.513,3.513,0,0,0-.057.581v3.66h-1.233Z" transform="translate(-224.215 -265.508)"/>
        <path id="Trazado_116242" data-name="Trazado 116242" d="M254.547,267.023v1.971h1.788v.95h-1.788v3.7c0,.851.241,1.333.937,1.333a2.841,2.841,0,0,0,.724-.084l.056.935a3.046,3.046,0,0,1-1.106.17,1.729,1.729,0,0,1-1.347-.525,2.541,2.541,0,0,1-.483-1.787v-3.745h-1.063v-.95h1.063v-1.645Z" transform="translate(-223.557 -265.788)"/>
        <path id="Trazado_116243" data-name="Trazado 116243" d="M262.646,273.683c0,.71.015,1.333.058,1.872H261.6l-.071-1.12H261.5a2.584,2.584,0,0,1-2.269,1.276c-1.079,0-2.369-.6-2.369-3.007V268.69h1.248v3.8c0,1.306.4,2.184,1.533,2.184a1.8,1.8,0,0,0,1.645-1.134,1.826,1.826,0,0,0,.114-.639V268.69h1.248Z" transform="translate(-222.718 -265.484)"/>
        <path id="Trazado_116244" data-name="Trazado 116244" d="M263.518,270.855c0-.809-.015-1.5-.058-2.142h1.093l.043,1.347h.057a2.057,2.057,0,0,1,1.9-1.5,1.36,1.36,0,0,1,.355.041v1.178a1.812,1.812,0,0,0-.426-.043,1.749,1.749,0,0,0-1.673,1.6,3.513,3.513,0,0,0-.057.581v3.66h-1.233Z" transform="translate(-221.514 -265.508)"/>
        <path id="Trazado_116245" data-name="Trazado 116245" d="M271.257,275.579l-.1-.864h-.043a2.557,2.557,0,0,1-2.1,1.021,1.956,1.956,0,0,1-2.1-1.971c0-1.659,1.475-2.567,4.127-2.553v-.142a1.415,1.415,0,0,0-1.56-1.588,3.422,3.422,0,0,0-1.788.511l-.283-.823a4.253,4.253,0,0,1,2.254-.609c2.1,0,2.61,1.432,2.61,2.807v2.567a9.792,9.792,0,0,0,.113,1.645Zm-.185-3.5c-1.362-.027-2.907.213-2.907,1.547a1.1,1.1,0,0,0,1.177,1.192A1.709,1.709,0,0,0,271,273.664a1.31,1.31,0,0,0,.071-.4Z" transform="translate(-220.882 -265.508)"/>
        <path id="Trazado_116246" data-name="Trazado 116246" d="M281.706,265.979v8.3c0,.61.014,1.3.057,1.773h-1.121l-.056-1.192h-.03a2.537,2.537,0,0,1-2.339,1.348c-1.66,0-2.936-1.4-2.936-3.489-.014-2.285,1.4-3.687,3.078-3.687a2.3,2.3,0,0,1,2.071,1.048h.027v-4.1Zm-1.249,6a2.2,2.2,0,0,0-.057-.525,1.834,1.834,0,0,0-1.8-1.446c-1.29,0-2.055,1.134-2.055,2.652,0,1.389.68,2.538,2.027,2.538a1.874,1.874,0,0,0,1.829-1.489,2.159,2.159,0,0,0,.057-.538Z" transform="translate(-219.356 -265.979)"/>
        <path id="Trazado_116247" data-name="Trazado 116247" d="M283.24,272.373a2.2,2.2,0,0,0,2.354,2.383,4.51,4.51,0,0,0,1.9-.355l.213.894a5.561,5.561,0,0,1-2.284.426,3.188,3.188,0,0,1-3.375-3.461c0-2.069,1.219-3.7,3.219-3.7,2.241,0,2.837,1.971,2.837,3.233a4.66,4.66,0,0,1-.043.581Zm3.659-.894a1.777,1.777,0,0,0-1.73-2.028,2.069,2.069,0,0,0-1.915,2.028Z" transform="translate(-218.12 -265.508)"/>
        <path id="Trazado_116248" data-name="Trazado 116248" d="M291.024,265.979h1.248V276.05h-1.248Z" transform="translate(-216.482 -265.979)"/>
        <path id="Trazado_116249" data-name="Trazado 116249" d="M297.74,275.579l-.1-.864H297.6a2.558,2.558,0,0,1-2.1,1.021,1.956,1.956,0,0,1-2.1-1.971c0-1.659,1.475-2.567,4.128-2.553v-.142a1.415,1.415,0,0,0-1.561-1.588,3.418,3.418,0,0,0-1.787.511l-.284-.823a4.258,4.258,0,0,1,2.255-.609c2.1,0,2.61,1.432,2.61,2.807v2.567a9.8,9.8,0,0,0,.112,1.645Zm-.185-3.5c-1.361-.027-2.907.213-2.907,1.547a1.1,1.1,0,0,0,1.177,1.192,1.708,1.708,0,0,0,1.659-1.149,1.274,1.274,0,0,0,.071-.4Z" transform="translate(-216.048 -265.508)"/>
        <path id="Trazado_116250" data-name="Trazado 116250" d="M228.517,290.449c.028-.468.057-1.164.057-1.773v-8.3h1.233v4.31h.03a2.556,2.556,0,0,1,2.339-1.262c1.7,0,2.908,1.418,2.894,3.5,0,2.454-1.546,3.673-3.078,3.673a2.443,2.443,0,0,1-2.3-1.289h-.043l-.057,1.134Zm1.29-2.752a2.432,2.432,0,0,0,.057.454,1.927,1.927,0,0,0,1.872,1.462c1.306,0,2.086-1.064,2.086-2.639,0-1.375-.71-2.552-2.043-2.552a1.989,1.989,0,0,0-1.9,1.531,2.531,2.531,0,0,0-.071.51Z" transform="translate(-227.893 -263.35)"/>
        <path id="Trazado_116251" data-name="Trazado 116251" d="M241.681,286.489a3.354,3.354,0,0,1-3.418,3.645,3.263,3.263,0,0,1-3.29-3.531,3.352,3.352,0,0,1,3.4-3.645A3.25,3.25,0,0,1,241.681,286.489Zm-5.446.071c0,1.5.864,2.638,2.085,2.638,1.192,0,2.084-1.12,2.084-2.667,0-1.162-.581-2.637-2.055-2.637S236.236,285.256,236.236,286.56Z" transform="translate(-226.714 -262.879)"/>
        <path id="Trazado_116252" data-name="Trazado 116252" d="M246.951,289.721a4.6,4.6,0,0,1-1.973.4,3.26,3.26,0,0,1-3.416-3.5,3.488,3.488,0,0,1,3.687-3.646,4.177,4.177,0,0,1,1.73.355l-.284.964a2.9,2.9,0,0,0-1.446-.325,2.587,2.587,0,0,0-.043,5.162,3.538,3.538,0,0,0,1.53-.339Z" transform="translate(-225.511 -262.877)"/>
        <path id="Trazado_116253" data-name="Trazado 116253" d="M251.241,289.979l-.1-.866H251.1a2.553,2.553,0,0,1-2.1,1.021,1.956,1.956,0,0,1-2.1-1.971c0-1.659,1.475-2.567,4.128-2.552v-.142a1.416,1.416,0,0,0-1.561-1.589,3.418,3.418,0,0,0-1.787.511l-.284-.822a4.258,4.258,0,0,1,2.255-.61c2.1,0,2.61,1.432,2.61,2.809v2.567a9.8,9.8,0,0,0,.112,1.645Zm-.184-3.5c-1.361-.03-2.907.212-2.907,1.544a1.1,1.1,0,0,0,1.177,1.192,1.706,1.706,0,0,0,1.659-1.149,1.256,1.256,0,0,0,.071-.4Z" transform="translate(-224.536 -262.879)"/>
        <path id="Trazado_116254" data-name="Trazado 116254" d="M253.15,284.972c0-.708-.015-1.291-.058-1.858h1.093l.056,1.106h.044a2.367,2.367,0,0,1,2.156-1.262,2.029,2.029,0,0,1,1.942,1.375h.03a2.835,2.835,0,0,1,.765-.893,2.344,2.344,0,0,1,1.518-.483c.907,0,2.255.6,2.255,2.979v4.042h-1.22v-3.887c0-1.319-.482-2.113-1.489-2.113a1.616,1.616,0,0,0-1.475,1.135,2.056,2.056,0,0,0-.1.624v4.241h-1.22v-4.113c0-1.093-.482-1.887-1.433-1.887a1.862,1.862,0,0,0-1.644,1.859v4.141H253.15Z" transform="translate(-223.406 -262.879)"/>
        <path id="Trazado_116255" data-name="Trazado 116255" d="M267.033,289.979l-.1-.866h-.043a2.555,2.555,0,0,1-2.1,1.021,1.956,1.956,0,0,1-2.1-1.971c0-1.659,1.475-2.567,4.128-2.552v-.142a1.416,1.416,0,0,0-1.561-1.589,3.417,3.417,0,0,0-1.787.511l-.284-.822a4.258,4.258,0,0,1,2.255-.61c2.1,0,2.61,1.432,2.61,2.809v2.567a9.8,9.8,0,0,0,.112,1.645Zm-.184-3.5c-1.361-.03-2.907.212-2.907,1.544a1.1,1.1,0,0,0,1.177,1.192,1.706,1.706,0,0,0,1.659-1.149,1.257,1.257,0,0,0,.071-.4Z" transform="translate(-221.654 -262.879)"/>
        <path id="Trazado_116256" data-name="Trazado 116256" d="M268.942,284.972c0-.708-.015-1.291-.058-1.858h1.106l.072,1.135h.027a2.525,2.525,0,0,1,2.269-1.291c.951,0,2.425.568,2.425,2.922v4.1h-1.248v-3.957c0-1.107-.411-2.028-1.588-2.028a1.771,1.771,0,0,0-1.673,1.276,1.792,1.792,0,0,0-.086.581v4.128h-1.246Z" transform="translate(-220.523 -262.879)"/>
        <path id="Trazado_116257" data-name="Trazado 116257" d="M281.584,283.114c-.03.5-.057,1.05-.057,1.887v3.985c0,1.574-.312,2.538-.979,3.134a3.643,3.643,0,0,1-2.5.822,4.432,4.432,0,0,1-2.282-.566l.311-.951a3.873,3.873,0,0,0,2.015.539c1.276,0,2.213-.667,2.213-2.4V288.8h-.03a2.449,2.449,0,0,1-2.183,1.149,3.069,3.069,0,0,1-2.922-3.348c0-2.326,1.517-3.645,3.091-3.645a2.279,2.279,0,0,1,2.142,1.192h.028l.057-1.036Zm-1.291,2.709a1.779,1.779,0,0,0-.071-.568,1.8,1.8,0,0,0-1.744-1.32c-1.191,0-2.042,1.008-2.042,2.6,0,1.348.68,2.468,2.028,2.468a1.825,1.825,0,0,0,1.73-1.276,2.137,2.137,0,0,0,.1-.667Z" transform="translate(-219.375 -262.879)"/>
        <path id="Trazado_116258" data-name="Trazado 116258" d="M286.185,289.979l-.1-.866h-.043a2.557,2.557,0,0,1-2.1,1.021,1.954,1.954,0,0,1-2.1-1.971c0-1.659,1.475-2.567,4.127-2.552v-.142a1.416,1.416,0,0,0-1.56-1.589,3.422,3.422,0,0,0-1.788.511l-.283-.822a4.25,4.25,0,0,1,2.254-.61c2.1,0,2.61,1.432,2.61,2.809v2.567a9.665,9.665,0,0,0,.114,1.645Zm-.186-3.5c-1.361-.03-2.907.212-2.907,1.544a1.1,1.1,0,0,0,1.178,1.192,1.707,1.707,0,0,0,1.659-1.149,1.29,1.29,0,0,0,.07-.4Z" transform="translate(-218.157 -262.879)"/>
      </g>
      <g id="Grupo_60734" data-name="Grupo 60734" transform="translate(13.86 77.002)">
        <path id="Trazado_116259" data-name="Trazado 116259" d="M248.446,157.3c0,3.29-2,5.034-4.439,5.034-2.525,0-4.3-1.957-4.3-4.851,0-3.034,1.887-5.02,4.439-5.02C246.758,152.466,248.446,154.466,248.446,157.3Zm-7.418.156c0,2.042,1.107,3.87,3.05,3.87,1.958,0,3.063-1.8,3.063-3.97,0-1.9-.992-3.887-3.049-3.887S241.028,155.359,241.028,157.459Z" transform="translate(-239.709 -152.111)"/>
        <path id="Trazado_116260" data-name="Trazado 116260" d="M247.065,164.145a2.024,2.024,0,0,0,1.362-.524c.341-.4.468-.937.468-2.582v-5.745h1.248v6.227a3.767,3.767,0,0,1-.822,2.822,3.169,3.169,0,0,1-2.127.781Zm3.22-10.779a.732.732,0,0,1-.779.766.745.745,0,0,1-.766-.766.765.765,0,0,1,.793-.78A.739.739,0,0,1,250.285,153.365Z" transform="translate(-238.366 -152.089)"/>
        <path id="Trazado_116261" data-name="Trazado 116261" d="M255.281,161.765l-.1-.864h-.043a2.558,2.558,0,0,1-2.1,1.021,1.956,1.956,0,0,1-2.1-1.971c0-1.659,1.475-2.567,4.128-2.553v-.142a1.416,1.416,0,0,0-1.561-1.588,3.418,3.418,0,0,0-1.787.511l-.284-.823a4.258,4.258,0,0,1,2.255-.609c2.1,0,2.61,1.432,2.61,2.807v2.567a9.793,9.793,0,0,0,.112,1.645Zm-.184-3.5c-1.361-.028-2.907.212-2.907,1.546A1.1,1.1,0,0,0,253.366,161a1.709,1.709,0,0,0,1.66-1.149,1.3,1.3,0,0,0,.07-.4Z" transform="translate(-237.659 -151.695)"/>
        <path id="Trazado_116262" data-name="Trazado 116262" d="M257.181,152.166h1.246v10.069h-1.246Z" transform="translate(-236.519 -152.166)"/>
        <path id="Trazado_116263" data-name="Trazado 116263" d="M260.784,158.56a2.2,2.2,0,0,0,2.354,2.382,4.512,4.512,0,0,0,1.9-.354l.213.893a5.561,5.561,0,0,1-2.284.426,3.187,3.187,0,0,1-3.375-3.46c0-2.071,1.219-3.7,3.219-3.7,2.241,0,2.837,1.971,2.837,3.233a4.961,4.961,0,0,1-.043.582Zm3.659-.894a1.777,1.777,0,0,0-1.73-2.028,2.068,2.068,0,0,0-1.915,2.028Z" transform="translate(-236.079 -151.695)"/>
        <path id="Trazado_116264" data-name="Trazado 116264" d="M265.928,160.489a3.264,3.264,0,0,0,1.645.5c.908,0,1.333-.453,1.333-1.021,0-.6-.354-.922-1.276-1.262-1.235-.44-1.815-1.121-1.815-1.944a2.117,2.117,0,0,1,2.369-2.013,3.42,3.42,0,0,1,1.688.425l-.312.908a2.665,2.665,0,0,0-1.4-.4c-.737,0-1.148.426-1.148.937,0,.566.412.822,1.3,1.162,1.191.454,1.8,1.05,1.8,2.071,0,1.206-.935,2.056-2.567,2.056a3.912,3.912,0,0,1-1.929-.468Z" transform="translate(-234.979 -151.695)"/>
        <path id="Trazado_116265" data-name="Trazado 116265" d="M240.162,171.442c0-.808-.014-1.5-.058-2.142H241.2l.043,1.348h.057a2.059,2.059,0,0,1,1.9-1.5,1.36,1.36,0,0,1,.355.041v1.178a1.886,1.886,0,0,0-.427-.043,1.751,1.751,0,0,0-1.673,1.6,3.648,3.648,0,0,0-.057.582v3.659h-1.233Z" transform="translate(-239.637 -149.066)"/>
        <path id="Trazado_116266" data-name="Trazado 116266" d="M245.539,167.765a.773.773,0,0,1-1.547,0,.762.762,0,0,1,.78-.781A.741.741,0,0,1,245.539,167.765Zm-1.389,8.793v-6.865H245.4v6.865Z" transform="translate(-238.927 -149.461)"/>
        <path id="Trazado_116267" data-name="Trazado 116267" d="M246.885,176.635c.028-.468.058-1.162.058-1.773v-8.3h1.233v4.312h.028a2.553,2.553,0,0,1,2.339-1.262c1.7,0,2.908,1.418,2.894,3.5,0,2.455-1.546,3.674-3.078,3.674a2.444,2.444,0,0,1-2.3-1.29h-.043l-.057,1.134Zm1.291-2.752a2.434,2.434,0,0,0,.056.454A1.928,1.928,0,0,0,250.1,175.8c1.306,0,2.086-1.064,2.086-2.638,0-1.377-.71-2.553-2.042-2.553a1.991,1.991,0,0,0-1.9,1.531,2.551,2.551,0,0,0-.07.511Z" transform="translate(-238.399 -149.537)"/>
        <path id="Trazado_116268" data-name="Trazado 116268" d="M254.532,172.96a2.2,2.2,0,0,0,2.354,2.382,4.51,4.51,0,0,0,1.9-.355l.213.894a5.561,5.561,0,0,1-2.284.426,3.188,3.188,0,0,1-3.375-3.461c0-2.071,1.219-3.7,3.219-3.7,2.241,0,2.837,1.971,2.837,3.233a4.945,4.945,0,0,1-.043.582Zm3.659-.894a1.777,1.777,0,0,0-1.73-2.028,2.068,2.068,0,0,0-1.915,2.028Z" transform="translate(-237.22 -149.066)"/>
        <path id="Trazado_116269" data-name="Trazado 116269" d="M261.4,167.609v1.971h1.788v.951H261.4v3.7c0,.851.241,1.333.937,1.333a2.84,2.84,0,0,0,.723-.084l.057.935a3.044,3.044,0,0,1-1.106.17,1.728,1.728,0,0,1-1.347-.525,2.541,2.541,0,0,1-.483-1.787v-3.744h-1.064v-.951h1.064v-1.645Z" transform="translate(-236.167 -149.347)"/>
        <path id="Trazado_116270" data-name="Trazado 116270" d="M264.444,172.96a2.2,2.2,0,0,0,2.354,2.382,4.51,4.51,0,0,0,1.9-.355l.213.894a5.561,5.561,0,0,1-2.284.426,3.188,3.188,0,0,1-3.375-3.461c0-2.071,1.219-3.7,3.22-3.7,2.24,0,2.836,1.971,2.836,3.233a4.725,4.725,0,0,1-.043.582Zm3.659-.894a1.777,1.777,0,0,0-1.729-2.028,2.068,2.068,0,0,0-1.916,2.028Z" transform="translate(-235.411 -149.066)"/>
        <path id="Trazado_116271" data-name="Trazado 116271" d="M273.568,176.165l-.1-.864h-.043a2.558,2.558,0,0,1-2.1,1.021,1.955,1.955,0,0,1-2.1-1.971c0-1.659,1.475-2.567,4.127-2.553v-.142a1.415,1.415,0,0,0-1.561-1.588,3.428,3.428,0,0,0-1.787.51l-.284-.822a4.258,4.258,0,0,1,2.255-.609c2.1,0,2.61,1.431,2.61,2.807v2.567a9.8,9.8,0,0,0,.112,1.645Zm-.185-3.5c-1.361-.028-2.907.213-2.907,1.546a1.1,1.1,0,0,0,1.177,1.192,1.709,1.709,0,0,0,1.66-1.149,1.3,1.3,0,0,0,.07-.4Z" transform="translate(-234.32 -149.066)"/>
        <path id="Trazado_116272" data-name="Trazado 116272" d="M281.473,166.566v8.3c0,.61.014,1.3.057,1.773h-1.12l-.057-1.191h-.028a2.539,2.539,0,0,1-2.34,1.347c-1.659,0-2.935-1.4-2.935-3.489-.015-2.284,1.4-3.687,3.077-3.687a2.292,2.292,0,0,1,2.071,1.049h.028v-4.1Zm-1.248,6a2.2,2.2,0,0,0-.057-.525,1.835,1.835,0,0,0-1.8-1.446c-1.289,0-2.055,1.134-2.055,2.652,0,1.389.68,2.538,2.028,2.538a1.874,1.874,0,0,0,1.829-1.489,2.168,2.168,0,0,0,.057-.539Z" transform="translate(-233.257 -149.537)"/>
        <path id="Trazado_116273" data-name="Trazado 116273" d="M288.525,172.676a3.355,3.355,0,0,1-3.418,3.645,3.263,3.263,0,0,1-3.291-3.531,3.351,3.351,0,0,1,3.4-3.645A3.25,3.25,0,0,1,288.525,172.676Zm-5.446.07c0,1.5.864,2.638,2.084,2.638,1.192,0,2.085-1.12,2.085-2.665,0-1.164-.581-2.638-2.055-2.638S283.079,171.442,283.079,172.746Z" transform="translate(-232.022 -149.066)"/>
        <path id="Trazado_116274" data-name="Trazado 116274" d="M288.728,174.887a3.253,3.253,0,0,0,1.645.5c.908,0,1.333-.453,1.333-1.021,0-.6-.355-.922-1.276-1.263-1.235-.439-1.815-1.12-1.815-1.943a2.117,2.117,0,0,1,2.369-2.013,3.424,3.424,0,0,1,1.688.425l-.312.907a2.681,2.681,0,0,0-1.4-.4c-.737,0-1.147.426-1.147.937,0,.566.41.822,1.3,1.162,1.192.454,1.8,1.05,1.8,2.071,0,1.205-.935,2.056-2.567,2.056a3.912,3.912,0,0,1-1.929-.468Z" transform="translate(-230.817 -149.066)"/>
      </g>
      <g id="Grupo_60735" data-name="Grupo 60735" transform="translate(14.37 34.884)">
        <path id="Trazado_116275" data-name="Trazado 116275" d="M247.389,126.254a6.122,6.122,0,0,1-2.525.454,4.468,4.468,0,0,1-4.723-4.837,4.757,4.757,0,0,1,4.993-5.021,5.12,5.12,0,0,1,2.269.426l-.3,1.006a4.51,4.51,0,0,0-1.929-.4c-2.241,0-3.73,1.432-3.73,3.943,0,2.34,1.347,3.843,3.673,3.843a4.936,4.936,0,0,0,2.014-.4Z" transform="translate(-240.141 -116.495)"/>
        <path id="Trazado_116276" data-name="Trazado 116276" d="M253.7,122.66a3.355,3.355,0,0,1-3.419,3.645,3.263,3.263,0,0,1-3.29-3.531,3.351,3.351,0,0,1,3.4-3.645A3.251,3.251,0,0,1,253.7,122.66Zm-5.447.071c0,1.5.864,2.638,2.085,2.638,1.192,0,2.084-1.121,2.084-2.667,0-1.164-.581-2.638-2.055-2.638S248.256,121.427,248.256,122.731Z" transform="translate(-238.89 -116.079)"/>
        <path id="Trazado_116277" data-name="Trazado 116277" d="M253.905,124.873a3.265,3.265,0,0,0,1.646.5c.907,0,1.332-.454,1.332-1.022,0-.595-.354-.921-1.276-1.262-1.235-.44-1.815-1.121-1.815-1.943a2.117,2.117,0,0,1,2.369-2.014,3.421,3.421,0,0,1,1.688.425l-.312.908a2.665,2.665,0,0,0-1.4-.4c-.737,0-1.148.426-1.148.937,0,.566.412.822,1.3,1.162,1.191.454,1.8,1.05,1.8,2.071,0,1.206-.935,2.058-2.567,2.058a3.925,3.925,0,0,1-1.929-.468Z" transform="translate(-237.685 -116.079)"/>
        <path id="Trazado_116278" data-name="Trazado 116278" d="M260.376,117.594v1.971h1.788v.95h-1.788v3.7c0,.851.241,1.334.937,1.334a2.774,2.774,0,0,0,.723-.085l.057.937a3.071,3.071,0,0,1-1.106.17,1.732,1.732,0,0,1-1.347-.525,2.545,2.545,0,0,1-.482-1.788v-3.744h-1.064v-.95h1.064V117.92Z" transform="translate(-236.864 -116.359)"/>
        <path id="Trazado_116279" data-name="Trazado 116279" d="M268.475,124.253c0,.71.014,1.334.057,1.872h-1.106l-.072-1.12h-.027a2.587,2.587,0,0,1-2.269,1.276c-1.078,0-2.369-.595-2.369-3.006v-4.014h1.248v3.8c0,1.3.4,2.184,1.533,2.184a1.761,1.761,0,0,0,1.758-1.773v-4.212h1.248Z" transform="translate(-236.025 -116.055)"/>
        <path id="Trazado_116280" data-name="Trazado 116280" d="M269.346,121.427c0-.809-.014-1.5-.057-2.142h1.091l.044,1.347h.056a2.061,2.061,0,0,1,1.9-1.5,1.357,1.357,0,0,1,.355.043v1.177a1.888,1.888,0,0,0-.427-.043,1.751,1.751,0,0,0-1.673,1.6,3.658,3.658,0,0,0-.057.582v3.659h-1.233Z" transform="translate(-234.82 -116.079)"/>
        <path id="Trazado_116281" data-name="Trazado 116281" d="M277.086,126.149l-.1-.864h-.044a2.553,2.553,0,0,1-2.1,1.021,1.955,1.955,0,0,1-2.1-1.971c0-1.659,1.475-2.567,4.127-2.552v-.143a1.415,1.415,0,0,0-1.56-1.588,3.419,3.419,0,0,0-1.788.511l-.283-.822a4.251,4.251,0,0,1,2.254-.61c2.1,0,2.61,1.432,2.61,2.807V124.5a9.656,9.656,0,0,0,.114,1.645Zm-.186-3.5c-1.361-.028-2.907.213-2.907,1.546a1.1,1.1,0,0,0,1.177,1.192,1.709,1.709,0,0,0,1.66-1.149,1.3,1.3,0,0,0,.07-.4Z" transform="translate(-234.189 -116.079)"/>
        <path id="Trazado_116282" data-name="Trazado 116282" d="M287.534,116.55v8.3c0,.61.013,1.3.056,1.773h-1.12l-.057-1.191h-.028a2.536,2.536,0,0,1-2.34,1.347c-1.659,0-2.935-1.4-2.935-3.489-.015-2.284,1.4-3.687,3.077-3.687a2.292,2.292,0,0,1,2.071,1.049h.028v-4.1Zm-1.249,6a2.2,2.2,0,0,0-.057-.525,1.834,1.834,0,0,0-1.8-1.447c-1.291,0-2.058,1.135-2.058,2.652,0,1.391.68,2.539,2.028,2.539a1.875,1.875,0,0,0,1.829-1.49,2.16,2.16,0,0,0,.057-.538Z" transform="translate(-232.662 -116.55)"/>
        <path id="Trazado_116283" data-name="Trazado 116283" d="M289.068,122.944a2.2,2.2,0,0,0,2.354,2.383,4.52,4.52,0,0,0,1.9-.355l.213.894a5.561,5.561,0,0,1-2.284.426,3.189,3.189,0,0,1-3.376-3.461c0-2.071,1.22-3.7,3.22-3.7,2.241,0,2.837,1.971,2.837,3.233a4.662,4.662,0,0,1-.044.582Zm3.66-.894a1.777,1.777,0,0,0-1.73-2.028,2.069,2.069,0,0,0-1.915,2.028Z" transform="translate(-231.426 -116.079)"/>
        <path id="Trazado_116284" data-name="Trazado 116284" d="M294.309,116.55h1.248v10.069h-1.248Z" transform="translate(-230.252 -116.55)"/>
        <path id="Trazado_116285" data-name="Trazado 116285" d="M304.655,125.892a4.6,4.6,0,0,1-1.973.4,3.262,3.262,0,0,1-3.418-3.5,3.487,3.487,0,0,1,3.687-3.645,4.175,4.175,0,0,1,1.73.354l-.283.965a2.9,2.9,0,0,0-1.447-.326,2.588,2.588,0,0,0-.043,5.163,3.542,3.542,0,0,0,1.531-.341Z" transform="translate(-229.348 -116.077)"/>
        <path id="Trazado_116286" data-name="Trazado 116286" d="M310.81,124.253c0,.71.015,1.334.058,1.872h-1.106L309.69,125h-.027a2.587,2.587,0,0,1-2.269,1.276c-1.078,0-2.369-.595-2.369-3.006v-4.014h1.248v3.8c0,1.3.4,2.184,1.531,2.184a1.76,1.76,0,0,0,1.76-1.773v-4.212h1.246Z" transform="translate(-228.296 -116.055)"/>
        <path id="Trazado_116287" data-name="Trazado 116287" d="M312.443,122.944a2.2,2.2,0,0,0,2.354,2.383,4.519,4.519,0,0,0,1.9-.355l.213.894a5.561,5.561,0,0,1-2.284.426,3.189,3.189,0,0,1-3.376-3.461c0-2.071,1.22-3.7,3.22-3.7,2.241,0,2.837,1.971,2.837,3.233a4.661,4.661,0,0,1-.044.582Zm3.66-.894a1.777,1.777,0,0,0-1.73-2.028,2.069,2.069,0,0,0-1.915,2.028Z" transform="translate(-227.159 -116.079)"/>
        <path id="Trazado_116288" data-name="Trazado 116288" d="M317.684,116.55h1.248v10.069h-1.248Z" transform="translate(-225.985 -116.55)"/>
        <path id="Trazado_116289" data-name="Trazado 116289" d="M320.516,116.55h1.248v10.069h-1.248Z" transform="translate(-225.468 -116.55)"/>
        <path id="Trazado_116290" data-name="Trazado 116290" d="M329.637,122.66a3.354,3.354,0,0,1-3.419,3.645,3.263,3.263,0,0,1-3.29-3.531,3.351,3.351,0,0,1,3.4-3.645A3.251,3.251,0,0,1,329.637,122.66Zm-5.446.071c0,1.5.864,2.638,2.084,2.638,1.192,0,2.085-1.121,2.085-2.667,0-1.164-.581-2.638-2.055-2.638S324.191,121.427,324.191,122.731Z" transform="translate(-225.028 -116.079)"/>
      </g>
      <g id="Grupo_60736" data-name="Grupo 60736" transform="translate(117.293)">
        <path id="Trazado_116291" data-name="Trazado 116291" d="M334.423,96.755a6.121,6.121,0,0,1-2.525.454,4.468,4.468,0,0,1-4.723-4.837,4.757,4.757,0,0,1,4.993-5.021,5.116,5.116,0,0,1,2.269.426l-.3,1.006a4.51,4.51,0,0,0-1.929-.4c-2.24,0-3.73,1.432-3.73,3.943,0,2.34,1.347,3.843,3.673,3.843a4.936,4.936,0,0,0,2.014-.4Z" transform="translate(-327.175 -86.996)"/>
        <path id="Trazado_116292" data-name="Trazado 116292" d="M340.185,94.754c0,.71.014,1.334.057,1.872h-1.106l-.072-1.12h-.027a2.587,2.587,0,0,1-2.269,1.276c-1.079,0-2.369-.595-2.369-3.006V89.762h1.248v3.8c0,1.3.4,2.184,1.533,2.184a1.76,1.76,0,0,0,1.758-1.773V89.762h1.248Z" transform="translate(-325.856 -86.556)"/>
        <path id="Trazado_116293" data-name="Trazado 116293" d="M341.818,93.445a2.2,2.2,0,0,0,2.354,2.383,4.52,4.52,0,0,0,1.9-.355l.213.894a5.561,5.561,0,0,1-2.283.426,3.189,3.189,0,0,1-3.376-3.461c0-2.071,1.22-3.7,3.22-3.7,2.241,0,2.837,1.971,2.837,3.233a4.668,4.668,0,0,1-.044.582Zm3.66-.894a1.777,1.777,0,0,0-1.73-2.028,2.069,2.069,0,0,0-1.915,2.028Z" transform="translate(-324.719 -86.58)"/>
        <path id="Trazado_116294" data-name="Trazado 116294" d="M347.059,87.051h1.248V97.12h-1.248Z" transform="translate(-323.545 -87.051)"/>
        <path id="Trazado_116295" data-name="Trazado 116295" d="M349.891,87.051h1.248V97.12h-1.248Z" transform="translate(-323.028 -87.051)"/>
        <path id="Trazado_116296" data-name="Trazado 116296" d="M359.012,93.161a3.355,3.355,0,0,1-3.419,3.645,3.263,3.263,0,0,1-3.29-3.531,3.352,3.352,0,0,1,3.4-3.645A3.251,3.251,0,0,1,359.012,93.161Zm-5.446.071c0,1.5.864,2.638,2.084,2.638,1.192,0,2.085-1.121,2.085-2.667,0-1.164-.581-2.638-2.055-2.638S353.566,91.928,353.566,93.232Z" transform="translate(-322.588 -86.58)"/>
      </g>
    </g>
    <g id="Capa_8" data-name="Capa 8" transform="translate(392.671 515.834)">
      <path id="Trazado_116297" data-name="Trazado 116297" d="M465.427,582.543c-4.354-7.222-11.8-12.083-16.595-19.021a31.7,31.7,0,0,1-5.091-12.318c-2.936-16.182,1.508-33.512,5.239-49.53.66-2.831,1.4-5.644,1.922-8.5.542-2.987.836-6.012,1.2-9.026,1.5-12.429,7.494-31.009,4.187-43.084-.158-.575-5.757.944-5.757.944-2.127-1.3-4.326,2.132-6.816,2.187l-45.163.99c-5.115.112-10.32.214-15.242-1.183-3.116-.885-6.264-2.376-9.446-1.77-1.716.328-2.26,1.63-2.757,3.3a94.4,94.4,0,0,0-1.731,46.658c.967,4.451,2.257,8.824,3.6,13.176a314.4,314.4,0,0,0,13.033,35.444c2.464,5.514,5.21,11.207,4.98,17.243-.352,9.219,4.756,18.469,10.576,25.628q4.722,5.811,10,11.141a32,32,0,0,0,6.925,5.682,12.493,12.493,0,0,0,8.643,1.6,9.818,9.818,0,0,0,7.283-10.839c-.824-4.8-5.281-8.833-4.629-13.661,1.955-.886,3.9,1.065,5.592,2.384a22.013,22.013,0,0,0,6.751,3.129l12.567,4.167c3.444,1.142,7.694,2.125,10.321-.376a3.261,3.261,0,0,0,1.126-2.554A4.367,4.367,0,0,0,465.427,582.543Zm-54.538-53.686c-2.3-5.28-1.485-11.329-.635-17.024.287-1.919.5-10.5,2.518-10.8,1.316,5.99,1.424,12.543,1.853,18.66.414,5.906-.369,12.755.828,18.512C414.744,534.8,412.276,532.049,410.889,528.857Z" transform="translate(-367.248 -440.928)" fill="#f4c6b8" style="isolation: isolate"/>
      <path id="Trazado_116298" data-name="Trazado 116298" d="M476.27,573.876a27.853,27.853,0,0,0,3.23,2.856c1.479,2.4.951,5.2-.8,7.405-1.01,1.271-2.745,1.667-4.348,1.922a64.042,64.042,0,0,1-32.923-2.972l-4.789-10.833a12.734,12.734,0,0,0-2.235-3.732l-2.36-2.954c-.232-.291-.527-.61-.9-.579-.666.053-.694,1.039-.423,1.651a46.063,46.063,0,0,0,2.663,4.107,22.869,22.869,0,0,1,1.771,4.656,31.552,31.552,0,0,0,3.875,8.855,37.715,37.715,0,0,1,3.237,5.676c.445.965.832,2.157.227,3.03a3.063,3.063,0,0,1-1.513.973c-10.377,3.914-22.062,1.537-32.484-2.256a17.143,17.143,0,0,1-5.028-2.532c-5.233-4.224-5.163-13.417-11.238-16.3l-1.126,1.85c-2.346.381-4.383-1.872-4.95-4.179s-.181-4.737-.428-7.1c-.337-3.238-1.852-6.242-2.414-9.448a16.583,16.583,0,0,1,4.114-13.926c1.343,2.35,3.237,5.806,4.58,8.156,3.306,5.784,6.633,11.6,10.855,16.752a74.265,74.265,0,0,0,8.346,7.976c2.734,2.384,6.372,4.546,9.976,4.945s7.768-1.8,8.154-5.408a10.441,10.441,0,0,0-1.119-4.935L418.2,542.956c2.386,3.26,6.582,5.052,9.766,7.54,2.075,1.621,3.848,3.591,5.783,5.377a42.64,42.64,0,0,0,20.179,10.37,12.258,12.258,0,0,0,6.124.064q-3.225-6.166-6.775-12.156C452.632,551.3,463.954,561.628,476.27,573.876Z" transform="translate(-364.358 -422.834)" fill="#442f29"/>
    </g>
    <g id="Capa_5" data-name="Capa 5" transform="translate(295.078 126.341)">
      <path id="Trazado_116299" data-name="Trazado 116299" d="M528,348.424q-2.168-11.507-3.893-23.091c-3.523-23.667-5.649-47.516-7.773-71.35q-3.365-37.76-6.731-75.518c-.863-9.691-1.787-19.613-5.915-28.424-6.1-13.028-24.74-17.585-38.732-20.93.39-3.576-1.929-7.013-4.931-8.993s-6.6-2.792-10.118-3.565c-11.431-2.516-22.976-5.022-34.681-4.99-2.528.007-5.178.168-7.339,1.482-1.892,1.151-3.179,3.046-4.6,4.747-11.733,14.074-32.415,15.167-50.026,20.225a22.627,22.627,0,0,0-7.363,3.225c-8.7,6.454-5.979,20.043-9.949,30.12-2.415,6.129-7.334,10.854-11.823,15.675-8.954,9.614-16.657,20.309-24.333,30.972-6.062,8.42-12.258,17.129-14.628,27.23a10.06,10.06,0,0,0-.206,5c.88,3.117,4.079,4.845,6.732,6.7a30.175,30.175,0,0,1,12.316,19.492c.453,2.694.551,5.506,1.692,7.988,4.367,9.5,19.612,7.654,26.226,15.749,3.329,4.074,3.679,9.936,2.313,15.016s-4.217,9.608-6.835,14.171c-.7,1.226-1.415,2.628-1.041,3.991s2.475,2.133,3.213.928l-.536,15.08c-.685,19.252-10.779,36.767-9.024,55.951.206,2.253.647,4.786,2.524,6.049a8,8,0,0,0,4.6.89l41.063-.335a2.708,2.708,0,0,1,1.141.155c1.241.559.953,2.366.575,3.673-2.334,8.059-.227,21.476-2.059,29.664-3.355,15-4.126,44.6-4.126,44.6,13.089,12.216,42.954,23.773,73.287,17.841,15.009-2.935,46.415-8.142,60.646-13.743,3.077-1.211,2.422-.582,5.5-1.793.394-.154.033-4.956,0-5.377s-.425-4.36-.134-4.055c.863-5.783,1.063-16.283-.1-22.013-.744-3.669.089-11.114-.668-14.781-1.476-7.152-2.67-7.005-2.025-14.279a9.353,9.353,0,0,1,1.063-4.174,3.355,3.355,0,0,1,3.679-1.645,179.36,179.36,0,0,1,1.164-48.169,2.5,2.5,0,0,1,2.637-2.714l21.186-2.681A123.713,123.713,0,0,0,528,348.424Zm-179.4-109.949a29.97,29.97,0,0,1-.668,3.219l-2.859,11.635c-.114.462-.331,1.019-.805,1.063a1.1,1.1,0,0,1-.64-.208c-4.173-2.446-6.415-7.119-8.419-11.52a1.414,1.414,0,0,1-.187-.84c.08-.4.482-.646.842-.848a27.7,27.7,0,0,0,9.2-8.374c1.334-1.925,1.983-3.856,2.987-.6A15.225,15.225,0,0,1,348.594,238.475Z" transform="translate(-284.721 -111.563)" fill="#af9f9c" stroke="#7c5b50" stroke-miterlimit="10" stroke-width="1" style="isolation: isolate"/>
    </g>
    <g id="Capa_3" data-name="Capa 3" transform="translate(302.937 128.311)">
      <path id="Trazado_116300" data-name="Trazado 116300" d="M343.645,138.6c3.824,6.751,4.012,14.872,4.559,22.612.731,10.365,2.269,20.819.666,31.085-1.528,9.783-5.832,18.882-10.088,27.822" transform="translate(-282.711 -108.597)" fill="none" stroke="#7c5b50" stroke-miterlimit="10" stroke-width="1" style="isolation: isolate"/>
      <path id="Trazado_116301" data-name="Trazado 116301" d="M291.367,223.931c6.9-1.154,13.844-2.311,20.844-2.336a64.927,64.927,0,0,1,20.99,3.414" transform="translate(-291.367 -93.446)" fill="none" stroke="#7c5b50" stroke-miterlimit="10" stroke-width="1" style="isolation: isolate"/>
      <path id="Trazado_116302" data-name="Trazado 116302" d="M374.833,127.129a34.632,34.632,0,0,1-5.024,13.919,111.939,111.939,0,0,0,11.571,5.858l-5.5,4.176a7.387,7.387,0,0,0-2.74,3.04,6.559,6.559,0,0,0,.4,4.465c1.5,4.093,3.946,7.76,6.1,11.551,8.093,14.25,12.176,30.45,14.525,46.668a26.028,26.028,0,0,1,.336,7.144c-.609,4.576-3.446,8.5-6.193,12.213-9.962,13.461-19.947,26.949-31.26,39.3" transform="translate(-279.376 -110.691)" fill="none" stroke="#7c5b50" stroke-miterlimit="10" stroke-width="1" style="isolation: isolate"/>
      <path id="Trazado_116303" data-name="Trazado 116303" d="M347.385,249.552a70.249,70.249,0,0,1,2.1,14.664" transform="translate(-281.141 -88.342)" fill="none" stroke="#7c5b50" stroke-miterlimit="10" stroke-width="1" style="isolation: isolate"/>
      <path id="Trazado_116304" data-name="Trazado 116304" d="M363.427,251.877,379.1,262.694a194.62,194.62,0,0,0-17.44,32.175c-.5,1.178-1.171,2.514-2.424,2.768a3.7,3.7,0,0,1-2-.331c-10.98-4.158-18.955-14.865-30.452-17.251" transform="translate(-284.902 -87.918)" fill="none" stroke="#7c5b50" stroke-miterlimit="10" stroke-width="1" style="isolation: isolate"/>
      <path id="Trazado_116305" data-name="Trazado 116305" d="M344.431,285.994c-1.484,3.565-1.586,7.526-2.208,11.337a104.5,104.5,0,0,1-3.312,12.632c-6.146,20.818-8.792,42.482-11.415,64.029a1.294,1.294,0,0,0,.115.915,1.26,1.26,0,0,0,.866.4c5.558.914,11.231-.064,16.863-.162s11.719.9,15.681,4.909" transform="translate(-284.777 -81.69)" fill="none" stroke="#7c5b50" stroke-miterlimit="10" stroke-width="1" style="isolation: isolate"/>
      <path id="Trazado_116306" data-name="Trazado 116306" d="M338.015,298.037a25.85,25.85,0,0,1-14.887,3.871" transform="translate(-285.569 -79.491)" fill="none" stroke="#7c5b50" stroke-miterlimit="10" stroke-width="1" style="isolation: isolate"/>
      <path id="Trazado_116307" data-name="Trazado 116307" d="M366.605,287.1l-2.151,37.356c-.28,4.883-.562,9.769-1.142,14.626-.637,5.339-1.633,10.63-2.34,15.961a148.425,148.425,0,0,0-1.167,25.433" transform="translate(-278.895 -81.487)" fill="none" stroke="#7c5b50" stroke-miterlimit="10" stroke-width="1" style="isolation: isolate"/>
      <path id="Trazado_116310" data-name="Trazado 116310" d="M444.849,261.6l1.587,32.46a165.881,165.881,0,0,1,.251,16.92c-.305,5.719-1.2,11.389-1.775,17.088a151.45,151.45,0,0,0,.014,30.4" transform="translate(-263.475 -86.143)" fill="none" stroke="#7c5b50" stroke-miterlimit="10" stroke-width="1" style="isolation: isolate"/>
      <path id="Trazado_116311" data-name="Trazado 116311" d="M445.134,342.185c4.024,15.487-4.988,32.48.28,47.587a1.18,1.18,0,0,0,.461.7,1.21,1.21,0,0,0,.821.03c9.986-2.006,20.081-4.047,29.312-8.35" transform="translate(-263.556 -71.432)" fill="none" stroke="#7c5b50" stroke-miterlimit="10" stroke-width="1" style="isolation: isolate"/>
      <path id="Trazado_116312" data-name="Trazado 116312" d="M472.683,281.121l-4.585-1.165a.8.8,0,0,0-.631.017.74.74,0,0,0-.258.538,9.891,9.891,0,0,0,.163,2.977l2.443,15.574a5.245,5.245,0,0,0,.62,2.052,2.688,2.688,0,0,0,3.023,1.068" transform="translate(-259.277 -82.802)" fill="none" stroke="#7c5b50" stroke-miterlimit="10" stroke-width="1" style="isolation: isolate"/>
      <path id="Trazado_116313" data-name="Trazado 116313" d="M449.882,284.33a18.786,18.786,0,0,0-.072,7.222c.072.383.311.869.689.776a.7.7,0,0,0,.333-.252,5.647,5.647,0,0,0-.633-7.671" transform="translate(-262.5 -81.993)" fill="none" stroke="#7c5b50" stroke-miterlimit="10" stroke-width="1" style="isolation: isolate"/>
      <path id="Trazado_116314" data-name="Trazado 116314" d="M448.505,259.586a6.244,6.244,0,0,0-.247,6.487.814.814,0,0,0,.4.4c.406.135.733-.341.887-.74.953-2.485,1.277-5.622-.582-7.527" transform="translate(-262.87 -86.762)" fill="none" stroke="#7c5b50" stroke-miterlimit="10" stroke-width="1" style="isolation: isolate"/>
      <path id="Trazado_116315" data-name="Trazado 116315" d="M446.352,234.6a8.477,8.477,0,0,0-.248,3.829,2.177,2.177,0,0,0,.453,1.132.9.9,0,0,0,1.113.219,1.238,1.238,0,0,0,.375-.494,6.957,6.957,0,0,0-.7-7.18" transform="translate(-263.14 -91.528)" fill="none" stroke="#7c5b50" stroke-miterlimit="10" stroke-width="1" style="isolation: isolate"/>
      <path id="Trazado_116316" data-name="Trazado 116316" d="M444.023,206.906a6.412,6.412,0,0,0-.365,5.567c.131.318.338.665.679.717.364.057.678-.251.893-.549a6.165,6.165,0,0,0-.259-7.338" transform="translate(-263.651 -96.42)" fill="none" stroke="#7c5b50" stroke-miterlimit="10" stroke-width="1" style="isolation: isolate"/>
      <path id="Trazado_116317" data-name="Trazado 116317" d="M449.088,132.719l6.815,14.512c.784,1.672,1.568,3.66.687,5.284-.8,1.477-2.683,2.035-3.679,3.388a1.742,1.742,0,0,0-.4,1.207,2.183,2.183,0,0,0,.439.939,20.146,20.146,0,0,0,8.938,7.126c1.28.516,2.861,1.212,2.908,2.591a3.238,3.238,0,0,1-.42,1.457c-2.7,5.682-6.295,10.923-8.718,16.73-3.6,8.617-4.5,18.2-8.375,26.7" transform="translate(-262.904 -109.671)" fill="none" stroke="#7c5b50" stroke-miterlimit="10" stroke-width="1" style="isolation: isolate"/>
      <path id="Trazado_116318" data-name="Trazado 116318" d="M471.853,151.9c-2.066,22.363-4.118,45.076.054,67.143" transform="translate(-258.851 -106.168)" fill="none" stroke="#7c5b50" stroke-miterlimit="10" stroke-width="1" style="isolation: isolate"/>
      <path id="Trazado_116319" data-name="Trazado 116319" d="M464.081,174.323c3.975,13.409,1.7,28.263,6.877,41.256" transform="translate(-259.837 -102.076)" fill="none" stroke="#7c5b50" stroke-miterlimit="10" stroke-width="1" style="isolation: isolate"/>
      <path id="Trazado_116320" data-name="Trazado 116320" d="M471.005,209.58c1.784,21.7,3.133,43.518,1.7,65.249-.448,6.8-1.167,13.6-1.058,20.411.087,5.494.714,10.965.909,16.455.227,6.368-.125,12.741-.364,19.109q-.514,13.65-.333,27.315" transform="translate(-258.573 -95.64)" fill="none" stroke="#7c5b50" stroke-miterlimit="10" stroke-width="1" style="isolation: isolate"/>
      <path id="Trazado_116321" data-name="Trazado 116321" d="M472.495,333.3c1,17.159-6.21,34.741-1.366,51.233" transform="translate(-258.859 -73.054)" fill="none" stroke="#7c5b50" stroke-miterlimit="10" stroke-width="1" style="isolation: isolate"/>
      <path id="Trazado_116322" data-name="Trazado 116322" d="M453.577,242.032a267.377,267.377,0,0,1-1.449-27.856c-.125-7.3-.251-14.606-.193-21.909.056-7.008.28-14.031-.33-21.013a176.536,176.536,0,0,0-2.909-18.327,37.632,37.632,0,0,1-10.974,1.543c-2.166-.083-4.322-.348-6.475-.613l-10.561-1.3a94.507,94.507,0,0,1-9.82-1.946c-5.719-1.29-8.9-2.353-12.02-4.3l.122,1.614c-.091-.358.634,2.485.536,2.094a66.4,66.4,0,0,1,2.759,20.187c-.09,13.784-1.527,36.232-2.263,45.87-1.994,26.1-18.655,47.243-18.655,47.243.816-1.093-3.458,4.912-2.689,3.785l4.211-.643,9.514.86c2.539.229,5.078.459,7.624.557,4.483.175,8.993-.053,13.44.542,3.745.5,7.392,1.579,11.128,2.151a55.973,55.973,0,0,0,7.483.577A82.741,82.741,0,0,0,457.39,267.6C456.485,259.081,454.619,250.556,453.577,242.032Z" transform="translate(-275.449 -107.19)" fill="#c0dee1" style="isolation: isolate"/>
      <path id="Trazado_116323" data-name="Trazado 116323" d="M327.538,225.395c4.263,6.932,11.944,11.2,16.313,18.06,2.274,3.575,3.679,7.877,7,10.508,3.049,2.415,7.133,2.949,11,3.4" transform="translate(-284.764 -92.752)" fill="none" stroke="#7c5b50" stroke-miterlimit="10" stroke-width="1" style="isolation: isolate"/>
      <ellipse id="Elipse_4937" data-name="Elipse 4937" cx="1.75" cy="3.209" rx="1.75" ry="3.209" transform="translate(44.882 190.399) rotate(-60)" fill="#af9f9c" stroke="#7c5b50" stroke-miterlimit="10" stroke-width="1"/>
      <ellipse id="Elipse_4938" data-name="Elipse 4938" cx="1.75" cy="3.209" rx="1.75" ry="3.209" transform="translate(52.622 194.868) rotate(-60)" fill="#af9f9c" stroke="#7c5b50" stroke-miterlimit="10" stroke-width="1"/>
      <ellipse id="Elipse_4939" data-name="Elipse 4939" cx="1.75" cy="3.209" rx="1.75" ry="3.209" transform="translate(61.739 199.651) rotate(-60)" fill="#af9f9c" stroke="#7c5b50" stroke-miterlimit="10" stroke-width="1"/>
      <path id="Trazado_116308" data-name="Trazado 116308" d="M396.514,113.229c-2.709,9.248-1.251,19.193,1.1,28.537s5.583,18.544,6.424,28.142c.71,8.082-.3,16.2-.746,24.3-.546,9.937-.244,19.934-1.491,29.808a96.573,96.573,0,0,1-34.3,61.955" transform="translate(-277.468 -113.229)" fill="none" stroke="#7c5b50" stroke-miterlimit="10" stroke-width="1" style="isolation: isolate"/>
      <path id="Trazado_116309" data-name="Trazado 116309" d="M431.343,119.183l7.2,36.929a176.172,176.172,0,0,1,2.908,18.327c.61,6.982.387,14.005.331,21.013-.058,7.3.067,14.607.193,21.909a267.058,267.058,0,0,0,1.449,27.856c1.724,14.113,5.708,28.23,3.853,42.326" transform="translate(-265.814 -112.142)" fill="none" stroke="#7c5b50" stroke-miterlimit="10" stroke-width="1" style="isolation: isolate"/>
    </g>
    <g id="Capa_6" data-name="Capa 6" transform="translate(402.586 284.644)">
      <path id="Trazado_116324" data-name="Trazado 116324" d="M379.041,248.693c-.87,1.048-2.2,1.744-2.736,3a5.762,5.762,0,0,0-.351,1.725,32.225,32.225,0,0,0-.138,7.685c8.835-.395,16.717-.222,25.552-.617,6.357-.285,12.722-.57,19.084-.421,4,.093,8,.358,12,.623l24.594,1.631.284-10.948a1.815,1.815,0,0,0-.233-1.162,1.673,1.673,0,0,0-.624-.447c-2.683-1.311-5.76-1.481-8.744-1.627l-21.759-1.068C410.184,246.287,394.559,245.712,379.041,248.693Z" transform="translate(-375.633 -245.243)" fill="#593b34"/>
      <path id="Trazado_116325" data-name="Trazado 116325" d="M430.694,253.01c-.052,1,.084,1.995.105,2.993a20.067,20.067,0,0,1-.587,4.8.519.519,0,0,0,.017.4.645.645,0,0,0,.4.214,18.663,18.663,0,0,0,3.409.54.957.957,0,0,0,.815-.2.731.731,0,0,0,.11-.473l-.011-13.141c0-.419-.071-.934-.506-1.088a2.112,2.112,0,0,0-.825.009,4.6,4.6,0,0,1-1.411-.255,2.048,2.048,0,0,0-1.411.028C430.352,247.064,430.743,252.091,430.694,253.01Z" transform="translate(-365.675 -245.197)" fill="#af9f9c" stroke="#7c5b50" stroke-miterlimit="10" stroke-width="0.75" style="isolation: isolate"/>
      <path id="Trazado_116326" data-name="Trazado 116326" d="M410.862,251.742c-.053,1,.083,1.995.1,2.994a20.007,20.007,0,0,1-.587,4.8.516.516,0,0,0,.017.4.649.649,0,0,0,.4.215,18.758,18.758,0,0,0,3.408.54.955.955,0,0,0,.815-.206.728.728,0,0,0,.11-.472l-.011-13.142c0-.417-.07-.934-.506-1.087a2.11,2.11,0,0,0-.825.008,4.6,4.6,0,0,1-1.411-.254,2.048,2.048,0,0,0-1.411.028C410.519,245.8,410.91,250.824,410.862,251.742Z" transform="translate(-369.296 -245.428)" fill="#af9f9c" stroke="#7c5b50" stroke-miterlimit="10" stroke-width="0.75" style="isolation: isolate"/>
      <path id="Trazado_116327" data-name="Trazado 116327" d="M391.313,251.742c-.053,1,.083,1.995.1,2.994a20.005,20.005,0,0,1-.587,4.8.521.521,0,0,0,.018.4.646.646,0,0,0,.4.215,18.759,18.759,0,0,0,3.408.54.959.959,0,0,0,.816-.206.735.735,0,0,0,.109-.472l-.011-13.142c0-.417-.07-.934-.506-1.087a2.111,2.111,0,0,0-.825.008,4.608,4.608,0,0,1-1.411-.254,2.044,2.044,0,0,0-1.41.028C390.97,245.8,391.362,250.824,391.313,251.742Z" transform="translate(-372.864 -245.428)" fill="#af9f9c" stroke="#7c5b50" stroke-miterlimit="10" stroke-width="0.75" style="isolation: isolate"/>
      <path id="Trazado_116328" data-name="Trazado 116328" d="M492.381,341.832a25.044,25.044,0,0,1-.129-6.942c.058-.617.569-2.269.18-2.78-.4-.526-2.54-.333-3.164-.357a44.4,44.4,0,0,0-13.318,1.524,4.694,4.694,0,0,0-1.594.667c-1.252.926-1.352,2.726-1.376,4.283a87.828,87.828,0,0,1-.812,10.572c-.777,5.628-2.1,11.182-2.57,16.843a18.825,18.825,0,0,0,.408,6.821c.47,1.612,1.654,3.331,3.332,3.265a4.386,4.386,0,0,0,2.157-.894,91.859,91.859,0,0,0,8.55-6.66,14.5,14.5,0,0,0,1.969-1.886c1.928-2.379,2.149-5.654,2.74-8.659a31.072,31.072,0,0,1,2.613-7.732,11.985,11.985,0,0,0,1.555-4.163A14.747,14.747,0,0,0,492.381,341.832Zm-11.013,11.724c-.65,1.025-1.651,1.789-2.332,2.8a32.553,32.553,0,0,1-1.835,3.2,1.239,1.239,0,0,1-1.138.544c-.578-.138-.739-.882-.724-1.477.078-2.985,1.7-5.76,1.826-8.744a21.805,21.805,0,0,1,.092-3.023c.108-.594.556-1.95,1.294-2.061.679-.1,1.3.959,1.657,1.418a7.824,7.824,0,0,1,1.948,4.514A5.09,5.09,0,0,1,481.368,353.556Z" transform="translate(-358.502 -229.674)" fill="#f4c6b8" style="isolation: isolate"/>
    </g>
    <g id="Capa_4" data-name="Capa 4" transform="translate(310.819 110.489)">
      <path id="Trazado_116329" data-name="Trazado 116329" d="M428.63,270.582c-.5-1.121-1.984-1.291-3.206-1.414-4.716-.475-9.081-2.6-13.585-4.074a108.277,108.277,0,0,0-14.186-3.927,20.282,20.282,0,0,1,6.647-3.6c5.387-1.349,11.14,1.838,16.526.487,1.41-.354,2.993-1.544,2.534-2.923a2.991,2.991,0,0,0-1.925-1.552,40.493,40.493,0,0,0-15.28-2.868c-5.75.046-11.411,1.317-17.019,2.582l-11.317,2.551c-2.485.559-5.242,1.332-6.538,3.5-.053-.2-.315-.556-.518-.49-.3.1-.364.479-.43.786-.5,2.279,4.932,2.082,3.29,3.738a55.189,55.189,0,0,0-4.657,7.473c-.946,2.187-4.841,7.743-5.786,9.93-1.1,2.554-1.859,2.479-2.628,5.154-.643,2.239-1.792,1.587-.373,3.435,1.048,1.366.673,1.178,2.375,1.432,4.828.72,9.689-.721,14.359-2.146l6.878-2.1a15.062,15.062,0,0,1,4.4-.874c2.287.012,4.419,1.054,6.562,1.853,5.476,2.043,11.384,2.564,17.207,3.065a6.652,6.652,0,0,0,2.52-.1,2.267,2.267,0,0,0,1.666-1.729c.19-1.486-1.505-2.431-2.915-2.939l-11.927-4.3a40.448,40.448,0,0,1-9.013-4.109c3.073-1.044,6.418-.856,9.648-.529a123.38,123.38,0,0,1,15.612,2.605c1.944.454,4,.953,5.9.322s5.389-2.545,4.042-4.1a8.468,8.468,0,0,0-1.923-.843c-.9-.082-.435.247-1.265-.109a11.071,11.071,0,0,0-2.224-.588c-1.741-.344-3.462-.777-5.183-1.209l-4.438-1.113a33.54,33.54,0,0,1-9.462-3.413c4.718,1.515,8,1.864,12.752,3.257,2.388.7,5.318,1.635,7.7,2.353a9.14,9.14,0,0,0,2.807.426,11.008,11.008,0,0,1,1.458-.021c.687-.138.7-1.157.87-1.814A3.148,3.148,0,0,0,428.63,270.582Z" transform="translate(-286.811 -70.309)" fill="#f4c6b8" style="isolation: isolate"/>
      <line id="Lnea_340" data-name="Lnea 340" y1="33.704" x2="12.844" transform="translate(194.008 7.167)" fill="none" stroke="#707070" stroke-miterlimit="10" stroke-width="1"/>
      <line id="Lnea_341" data-name="Lnea 341" y1="8.534" x2="22.651" transform="translate(206.852 45.838)" fill="none" stroke="#707070" stroke-miterlimit="10" stroke-width="1"/>
      <line id="Lnea_342" data-name="Lnea 342" x2="38.488" y2="12.395" transform="translate(208.604 61.543)" fill="none" stroke="#707070" stroke-miterlimit="10" stroke-width="1"/>
      <line id="Lnea_343" data-name="Lnea 343" x2="71.924" transform="translate(176.287 187.914)" fill="none" stroke="#707070" stroke-miterlimit="10" stroke-width="1"/>
      <line id="Lnea_344" data-name="Lnea 344" x1="129.01" y2="22.24" transform="translate(0 226.901)" fill="none" stroke="#707070" stroke-miterlimit="10" stroke-width="1"/>
      <line id="Lnea_345" data-name="Lnea 345" x2="28.68" y2="25.096" transform="translate(186.743 394.949)" fill="none" stroke="#707070" stroke-miterlimit="10" stroke-width="1"/>
      <line id="Lnea_346" data-name="Lnea 346" x2="35.449" y2="38.748" transform="translate(199.991 322.352)" fill="none" stroke="#707070" stroke-miterlimit="10" stroke-width="1"/>
      <line id="Lnea_347" data-name="Lnea 347" x1="18.252" y2="50.734" transform="translate(48.394 298.207)" fill="none" stroke="#707070" stroke-miterlimit="10" stroke-width="1"/>
      <line id="Lnea_348" data-name="Lnea 348" y1="0.362" x2="31.878" transform="translate(2.115 209.959)" fill="none" stroke="#707070" stroke-miterlimit="10" stroke-width="1"/>
      <line id="Lnea_349" data-name="Lnea 349" x1="96.819" y1="66.466" transform="translate(0 88.586)" fill="none" stroke="#707070" stroke-miterlimit="10" stroke-width="1"/>
      <line id="Lnea_350" data-name="Lnea 350" x1="64.829" y1="13.567" transform="translate(28.405 34.26)" fill="none" stroke="#707070" stroke-miterlimit="10" stroke-width="1"/>
      <line id="Lnea_351" data-name="Lnea 351" x1="24.175" y1="28.966" transform="translate(76.368)" fill="none" stroke="#707070" stroke-miterlimit="10" stroke-width="1"/>
    </g>
    <g id="Capa_7" data-name="Capa 7" transform="translate(408.714 30.611)">
      <g id="Grupo_60737" data-name="Grupo 60737">
        <path id="Trazado_116330" data-name="Trazado 116330" d="M392.076,135.364a93.2,93.2,0,0,0,2.486,24.043,13.69,13.69,0,0,0,2.122,5.265c2.065,2.7,5.653,3.63,8.966,4.39,14.253,3.264,27.14,6.33,41.438,3.269.8-.171-1.025-1.122-.522-1.767.667-.856-.979-5.241-1.228-6.3-1.14-4.85-1.82-10.333-2.959-15.184-1.276-5.43.445-4.7-2.38-9.511a23.061,23.061,0,0,1-2.814-14.666c.791-4.707,5.588-7.5,8.268-11.452a25.252,25.252,0,0,0,2.754-6.016,135.567,135.567,0,0,0,4.7-17.125,9.809,9.809,0,0,0,.24-4.011c-.192-.89-.622-1.721-.783-2.617-.358-2,.648-3.963,1.622-5.745a127.5,127.5,0,0,0-8.255-30.275A10.275,10.275,0,0,0,443.6,44.09c-1.672-1.6-4.15-1.943-6.451-2.2L424.734,40.48c-4.66-.527-9.618-1.009-13.832,1.049-3.166,1.546-5.509,4.34-7.754,7.055-5.039,6.095-10.218,12.461-12.184,20.12-.64,2.49-.93,5.092-1.968,7.443a16.042,16.042,0,0,0-1.553,3.842,9.794,9.794,0,0,0,.222,3.234l1.536,8.448a12.53,12.53,0,0,0,.682,2.643c1.638,3.9,6.625,5.209,9.1,8.639a12.451,12.451,0,0,1,1.876,4.586,26.834,26.834,0,0,1-1.473,16.329,8.567,8.567,0,0,1-2.369,3.487c-.974.766-2.2,1.154-3.193,1.9C392.124,130.53,392.134,133.239,392.076,135.364Z" transform="translate(-379.616 -28.893)" fill="#f4c6b8" style="isolation: isolate"/>
        <path id="Trazado_116331" data-name="Trazado 116331" d="M385.5,88.829c.574.969,1.762,1.829,2.759,1.308a2.782,2.782,0,0,0,1.119-1.858l1.153-4.158c.316-1.14.805-2.46,1.949-2.762s2.241.62,2.856,1.62c1.13,1.838,1.382,4.064,2.059,6.113s2.068,4.146,4.2,4.495c1.829-3.685-.137-8-.825-12.059a27.645,27.645,0,0,1,1.3-12.72A50.008,50.008,0,0,1,409.771,53.7a13.24,13.24,0,0,1,3.388-3.416,15.251,15.251,0,0,1,5.175-1.714l6.3-1.274c1.792-.362,4.017-.568,5.087.913.428.592.592,1.387,1.168,1.838a2.408,2.408,0,0,0,2.632-.138,15.525,15.525,0,0,1,2.372-1.481,4.791,4.791,0,0,1,3.073.1,12.208,12.208,0,0,1,6.55,5.734,36.276,36.276,0,0,1,3.133,8.313l2.734,9.568c.665,2.325,1.469,4.846,3.486,6.178a10.312,10.312,0,0,0,4.949,1.246,1.905,1.905,0,0,0,1.152-.15,1.707,1.707,0,0,0,.643-1.048c.781-2.748.035-5.677-.8-8.41a252.423,252.423,0,0,0-9.7-25.132,17.719,17.719,0,0,0-2.637-4.748c-1.782-2.06-4.392-3.174-6.906-4.221-5.175-2.153-10.428-4.329-15.989-5.027s-11.565.251-15.911,3.79c-1,.811-2.06,1.807-3.341,1.7a6.23,6.23,0,0,1-1.3-.343c-4.3-1.327-8.853,1.62-11.454,5.291s-3.978,8.085-6.492,11.815c-1.905,2.825-4.476,5.287-5.595,8.507-1.141,3.29-.6,6.9-.048,10.334C382.361,77.657,382.513,83.8,385.5,88.829Z" transform="translate(-380.814 -30.611)" fill="#7c5b50" stroke="#7c5b50" stroke-miterlimit="10" stroke-width="0.5"/>
      </g>
    </g>
  </g>
</svg>
