<svg xmlns="http://www.w3.org/2000/svg" width="403" height="463" viewBox="0 0 403 463">
  <g id="Grupo_61003" data-name="Grupo 61003" transform="translate(-2295.469 -2019.494)">
    <rect id="Rect치ngulo_7593" data-name="Rect치ngulo 7593" width="403" height="463" rx="9" transform="translate(2295.469 2019.494)" fill="#fff"/>
    <path id="Trazado_116926" data-name="Trazado 116926" d="M2420.469,2452.521H2496.5c-.027-.826-.067-15.763.157-16.541a2.775,2.775,0,0,1,.308-.676q-1.959.069-3.919.107a211.616,211.616,0,0,1-76.506-12.953q-.978-.359-1.952-.734a67.678,67.678,0,0,0,1.332,7.245C2416.765,2432.357,2418.313,2449.771,2420.469,2452.521Z" fill="#36b1bf"/>
    <path id="Trazado_116927" data-name="Trazado 116927" d="M2503.809,2452.521h75.69c2.687-5.035,4.753-24.5,6.145-30.033-13.36,3.872-27.407,5.892-41.226,7.833-13.723,1.928-27.48,3.856-41.3,4.69a2.754,2.754,0,0,1,.458.84C2503.838,2436.658,2503.819,2451.646,2503.809,2452.521Z" fill="#36b1bf"/>
    <path id="Trazado_116928" data-name="Trazado 116928" d="M2621.336,2381.448c-3.18,1.041-6.914,2.217-10,.922a.642.642,0,0,0-.148-.043c-.81-.14-1.106,1.028-1.05,1.848q.663,9.594,1.326,19.188a24.34,24.34,0,0,1-.03,6.343c.586-.13,1.164-.281,1.728-.452a12.993,12.993,0,0,0,3.56-1.557,12.256,12.256,0,0,0,3.048-3.169c3.452-4.881,5.058-10.874,5.531-16.833a67.794,67.794,0,0,0,.229-8.65A11.813,11.813,0,0,1,2621.336,2381.448Z" fill="#ffa780"/>
    <path id="Trazado_116929" data-name="Trazado 116929" d="M2404.316,2416.684c-3.221-2.141-7.708-4.348-10.014-7.452a176.355,176.355,0,0,1,1.571-28.684,19.327,19.327,0,0,1-13.641,2.077c-2.031-.45-3.988-1.191-5.969-1.8a17.825,17.825,0,0,0-.071,3.278c.733,9.364,6.327,22.409,12.111,29.744,4.816,6.109,12.563,10.527,20.23,9.205a5.056,5.056,0,0,0,2.378-.917,3.535,3.535,0,0,0,1.032-1.469A45.914,45.914,0,0,1,2404.316,2416.684Z" fill="#ffa780"/>
    <path id="Trazado_116930" data-name="Trazado 116930" d="M2462.8,2070.486c.636,4.748-1.849,9.493-5.379,12.731s-8,5.228-12.421,7.079a384.735,384.735,0,0,1-64.038,20.459c-4.549,1.026-10.083,2.966-10.632,7.6-.072.609.211,1.4.824,1.4s.37-1.288-.091-.886a295.1,295.1,0,0,0-7.062,49.889q-3.21,55.22-2.241,110.576c.576,32.842,2.257,65.653,3.939,98.457-2.047-.574,8,2.621,5.953,2.046,3.655.288,7,2,10.581,2.791a19.327,19.327,0,0,0,13.641-2.077,176.355,176.355,0,0,0-1.571,28.684c2.306,3.1,6.793,5.311,10.014,7.451a57.986,57.986,0,0,0,12.228,5.775,211.616,211.616,0,0,0,76.506,12.953c17.215-.3,34.317-2.695,51.368-5.09,22.4-3.147,45.408-6.492,65.1-17.622,2.739-1.547,2.159-6.2,1.942-9.336l-1.326-19.188c-.056-.82.24-1.988,1.05-1.848a.7.7,0,0,1,.148.043c3.086,1.295,6.82.12,10-.922s6.086-3.461,6.882-6.712c5.315-21.717,5.537-45.189,6.3-67.533.806-23.618,5.9-47.01,5.514-70.638-.212-12.953-2.073-25.856-1.861-38.81.2-12.242,2.25-24.539.593-36.671-1.5-10.99-3.228-22.2-6.439-32.817a41.2,41.2,0,0,0-5.055-11.662,31.32,31.32,0,0,0-8.633-8.1c-12.077-8-26.971-10.066-41.126-13.147s-29.017-8.016-37.742-19.58c-1.945-2.579-3.617-5.513-6.348-7.238-3.092-1.953-6.973-2-10.63-1.989l-48.287.167C2470.187,2066.729,2465.57,2067.177,2462.8,2070.486Z" fill="#e1dbdd"/>
    <g id="Grupo_61003-2" data-name="Grupo 61003" opacity="0.47">
      <path id="Trazado_116931" data-name="Trazado 116931" d="M2403.368,2174.97l3.511,41.341c1.168,13.759,2.534,27.517,3.464,41.295a108.246,108.246,0,0,1-.428,20.593c-.824,6.7-2.131,13.334-3.355,19.968-1.249,6.767-2.546,13.527-4.081,20.235-1.479,6.467-3.311,12.831-5.043,19.231a105.545,105.545,0,0,0-4.01,22.111,78.189,78.189,0,0,0,2.012,21.966c.229.97,2.406.4,2.173-.583a76.639,76.639,0,0,1-2.047-20.134,92.614,92.614,0,0,1,3.034-19.589c1.633-6.476,3.591-12.866,5.175-19.356,1.632-6.685,2.991-13.433,4.265-20.194,2.5-13.294,5.293-26.6,4.736-40.2-.279-6.823-.979-13.63-1.557-20.432l-1.723-20.3-3.953-46.54c-.08-.951-2.26-.437-2.173.583Z" fill="#847b7f"/>
    </g>
    <g id="Grupo_61004" data-name="Grupo 61004" opacity="0.47">
      <path id="Trazado_116932" data-name="Trazado 116932" d="M2612.977,2139.416a395.331,395.331,0,0,0-14.429,44.468,332.247,332.247,0,0,0-9.045,46.614,117.687,117.687,0,0,0-.394,23.689,218.31,218.31,0,0,0,3.776,23.449c3.216,15.92,6.29,31.862,9.051,47.868q4.65,26.957,8.321,54.07c.129.954,2.309.423,2.173-.582q-6.487-47.865-16.016-95.251c-1.565-7.778-3.241-15.543-4.346-23.4a114.571,114.571,0,0,1-.911-24.131,221.868,221.868,0,0,1,3.254-23.74q2.073-11.455,4.827-22.775a391.9,391.9,0,0,1,15.808-50.06c.444-1.135-1.732-1.075-2.069-.215Z" fill="#847b7f"/>
    </g>
    <g id="Grupo_61005" data-name="Grupo 61005" opacity="0.47">
      <path id="Trazado_116933" data-name="Trazado 116933" d="M2554.162,2089.678a105.685,105.685,0,0,0-21.037-3.556c-7.253-.416-14.546-.122-21.8-.019l-44.377.635-12.465.178c-1.155.017-2.488-.005-3.155,1.134-.626,1.068.433,1.383,1.336,1.173,1.336-.312.988-1.584-.342-1.274l-.167.038,1.023.064c.739.41-.906.073.5.26a7.329,7.329,0,0,0,1-.015l2.493-.035,4.986-.072,9.973-.142,19.944-.286,19.447-.278c6.6-.094,13.223-.332,19.821-.019a102.936,102.936,0,0,1,21.53,3.526c.8.214,2.565-.975,1.3-1.312Z" fill="#847b7f"/>
    </g>
    <g id="Grupo_61014" data-name="Grupo 61014">
      <g id="Grupo_61008" data-name="Grupo 61008">
        <g id="Grupo_61006" data-name="Grupo 61006">
          <path id="Trazado_116934" data-name="Trazado 116934" d="M2460.745,2127.658a17.467,17.467,0,0,1-3.358.049c-.119-.005-.237-.01-.366-.018-7.625-.378-23.642-2.407-27.933-4.155-5.3-2.16-113.393-1.68-113.393-1.68l-1.214-29.808s97.372,5.281,99.934,4.518c4.788-1.425,22.924-8.262,30.786-9.329,6.036-.825,16.928-2.367,22.692-1.971a9.849,9.849,0,0,1,2.866.534,1.2,1.2,0,0,1,.668.864,1.572,1.572,0,0,1-.845,1.667c-1.373.884-6.123,1.862-8.955,2.36,3.239-.2,20.826,1.1,24.344,2.847a2.01,2.01,0,0,1-.461,3.819c-1.958.389-18.16-.043-19.414.631s.458,1.052.458,1.052,22.464,1.509,24.072,2.753c1.113.873,1.116,3.041-1.185,3.692-1.637.458-22.687.926-23.222,1.214s-1.578,1.872-.645,1.81,16.084,1.958,17.365,2.578c1.82.889.961,2.823-.684,3.267s-29.526,1.057-30.211,1.855a24.038,24.038,0,0,1-2.968,2.413s10.756,3.952,11.488,4.351c1.862,1.022,2.83,2.773,1.879,3.861A3.022,3.022,0,0,1,2460.745,2127.658Z" fill="#ffa780"/>
        </g>
        <g id="Grupo_61007" data-name="Grupo 61007">
          <path id="Trazado_116935" data-name="Trazado 116935" d="M2456.248,2091.3l-.036-.369,5.393-.431.036.368Z" fill="#dd886b"/>
        </g>
      </g>
      <g id="Grupo_61009" data-name="Grupo 61009">
        <path id="Trazado_116936" data-name="Trazado 116936" d="M2460.745,2127.658a17.467,17.467,0,0,1-3.358.049,2.247,2.247,0,0,1,1.255-2.49,2.676,2.676,0,0,1,3.458.663,1.82,1.82,0,0,1,.316.983A3.029,3.029,0,0,1,2460.745,2127.658Z" fill="#f2d1c2"/>
      </g>
      <g id="Grupo_61010" data-name="Grupo 61010">
        <path id="Trazado_116937" data-name="Trazado 116937" d="M2485.656,2096.811a2.08,2.08,0,0,1-1.744.107c.041-.814.1-1.9.142-2.851a1.884,1.884,0,0,1,2.3.56A1.523,1.523,0,0,1,2485.656,2096.811Z" fill="#f2d1c2"/>
      </g>
      <g id="Grupo_61011" data-name="Grupo 61011">
        <path id="Trazado_116938" data-name="Trazado 116938" d="M2470.392,2087.906a2.036,2.036,0,0,1-1.438.186c0-.742.041-1.627.093-2.473a6.844,6.844,0,0,1,1.61.382,1.108,1.108,0,0,1,.616.8A1.706,1.706,0,0,1,2470.392,2087.906Z" fill="#f2d1c2"/>
      </g>
      <g id="Grupo_61012" data-name="Grupo 61012">
        <path id="Trazado_116939" data-name="Trazado 116939" d="M2489.825,2104.9a2.078,2.078,0,0,1-1.655.137c.017-.961.037-2.147.046-3.04a1.934,1.934,0,0,1,2.3.635A1.576,1.576,0,0,1,2489.825,2104.9Z" fill="#f2d1c2"/>
      </g>
      <g id="Grupo_61013" data-name="Grupo 61013">
        <path id="Trazado_116940" data-name="Trazado 116940" d="M2482.6,2113.886a1.983,1.983,0,0,1-1.635.124c.038-.831.082-1.822.11-2.639a1.782,1.782,0,0,1,2.222.465A1.447,1.447,0,0,1,2482.6,2113.886Z" fill="#f2d1c2"/>
      </g>
    </g>
    <g id="Grupo_61023" data-name="Grupo 61023">
      <g id="Grupo_61017" data-name="Grupo 61017">
        <g id="Grupo_61015" data-name="Grupo 61015">
          <path id="Trazado_116941" data-name="Trazado 116941" d="M2465.088,2133.609a15.789,15.789,0,0,0-2.9,1.691c-.1.066-.2.132-.3.207-6.308,4.3-18.85,14.518-21.518,18.4-3.294,4.794-123.043,96.26-123.043,96.26V2295.6s123.345-107.885,125.977-108.487c4.916-1.122,24.362-4.01,31.7-7.065,5.639-2.339,15.845-6.509,20.551-9.868a8.954,8.954,0,0,0,2.146-1.99,1.318,1.318,0,0,0,.075-1.165,1.81,1.81,0,0,0-1.68-1.147c-1.683-.13-6.309,1.4-9.019,2.391,2.887-1.485,17.192-11.817,19.2-15.3.942-1.647-.525-4.083-2.588-3.39-1.9.643-15.516,9.437-16.976,9.445s-.213-1.237-.213-1.237,18.358-13.055,19.019-15.069a2.426,2.426,0,0,0-3.135-2.894c-1.663.412-19.946,10.857-20.569,10.861s-2.426-.962-1.592-1.385,12.64-10.183,13.379-11.434c1.048-1.787-.8-3.179-2.461-2.751s-25.874,14.273-26.918,13.869a24.672,24.672,0,0,0-3.926-.756s6.935-9.32,7.332-10.077c1.006-1.934.829-4.1-.61-4.641A2.929,2.929,0,0,0,2465.088,2133.609Z" fill="#ffa780"/>
        </g>
        <g id="Grupo_61016" data-name="Grupo 61016">
          <rect id="Rect치ngulo_7657" data-name="Rect치ngulo 7657" width="5.414" height="0.411" transform="translate(2482.12 2170.473) rotate(-26.112)" fill="#dd886b"/>
        </g>
      </g>
      <g id="Grupo_61018" data-name="Grupo 61018">
        <path id="Trazado_116942" data-name="Trazado 116942" d="M2465.088,2133.609a15.789,15.789,0,0,0-2.9,1.691,2.583,2.583,0,0,0,2.5,1.716,2.506,2.506,0,0,0,2.579-2.419,2.182,2.182,0,0,0-.294-1.1A2.935,2.935,0,0,0,2465.088,2133.609Z" fill="#f2d1c2"/>
      </g>
      <g id="Grupo_61019" data-name="Grupo 61019">
        <path id="Trazado_116943" data-name="Trazado 116943" d="M2504.122,2150.025a1.9,1.9,0,0,0-1.554.8c.5.752,1.176,1.757,1.759,2.635a1.721,1.721,0,1,0-.2-3.436Z" fill="#f2d1c2"/>
      </g>
      <g id="Grupo_61020" data-name="Grupo 61020">
        <path id="Trazado_116944" data-name="Trazado 116944" d="M2496.174,2166.382a1.857,1.857,0,0,0-1.337.568c.43.7.969,1.524,1.5,2.3a6.236,6.236,0,0,0,1.159-1.2,1.212,1.212,0,0,0,.069-1.076A1.871,1.871,0,0,0,2496.174,2166.382Z" fill="#f2d1c2"/>
      </g>
      <g id="Grupo_61021" data-name="Grupo 61021">
        <path id="Trazado_116945" data-name="Trazado 116945" d="M2503.045,2140.186a1.894,1.894,0,0,0-1.495.726c.567.9,1.265,2.02,1.786,2.864a1.821,1.821,0,0,0,1.6-1.794A1.843,1.843,0,0,0,2503.045,2140.186Z" fill="#f2d1c2"/>
      </g>
      <g id="Grupo_61022" data-name="Grupo 61022">
        <path id="Trazado_116946" data-name="Trazado 116946" d="M2491.7,2135.384a1.809,1.809,0,0,0-1.471.728c.51.77,1.116,1.688,1.61,2.45a1.668,1.668,0,0,0,1.634-1.592A1.687,1.687,0,0,0,2491.7,2135.384Z" fill="#f2d1c2"/>
      </g>
    </g>
  </g>
</svg>
