<svg xmlns="http://www.w3.org/2000/svg" xmlns:xlink="http://www.w3.org/1999/xlink" width="256" height="179" viewBox="0 0 256 179">
  <defs>
    <clipPath id="clip-path">
      <rect id="Rectángulo_7440" data-name="Rectángulo 7440" width="256" height="179" rx="9" transform="translate(1128.668 1024.226)" fill="none"/>
    </clipPath>
  </defs>
  <g id="Grupo_60767" data-name="Grupo 60767" transform="translate(-1128.668 -1024.226)">
    <rect id="Rectángulo_7440-2" data-name="Rectángulo 7440" width="256" height="179" rx="9" transform="translate(1128.668 1024.226)" fill="#fff"/>
    <g id="Grupo_60805" data-name="Grupo 60805">
      <g id="Grupo_60804" data-name="Grupo 60804" clip-path="url(#clip-path)">
        <path id="Trazado_116354" data-name="Trazado 116354" d="M1318.307,1014.063l58.171,198.063s-190.53,12.126-193.539,13.137-94.966,3.031-95.977,0-5.557-125.291-5.557-125.291l27.284-99.046Z" fill="#4b70b1"/>
        <path id="Trazado_116355" data-name="Trazado 116355" d="M1128.141,1035.537c1.769-.253,93.474-5.811,93.474-5.811s8.842,18.724,22.232,21.615l6.063,62.435-37.137,14.736-6.316,2.772-28.042-2.772-.253,5.8s-22.231-.506-25.263,11.621-4.042,26.779.506,28.294,40.936,9.348,43.331,9.1v10.863l-74.153,1.769Z" fill="#c1b2aa" style="isolation: isolate"/>
        <g id="Grupo_60776" data-name="Grupo 60776">
          <g id="Grupo_60767-2" data-name="Grupo 60767">
            <path id="Trazado_116356" data-name="Trazado 116356" d="M1403.24,1143.015c-1.91-6.278-22.151-29.488-24.663-31.589-1.039-.88-12.95-11.322-18.79-12.335-.433-.077-6.731-1.264-11.27-1.895-2.367-.347-4.261-.528-4.58-.317-.915.985.135,2.315.135,2.315l-13.606-1.269-7.874-.74c-.079,0-3.292,5.742,5.185,7.973,1.24.346-3.941-.014-8.976-.414-3.842-.327-7.627-.654-8.386-.706a1.457,1.457,0,0,1-.146-.018s-2.952,4.086.486,7.5c1.245,1.22,4.342,1.809,8.716,3.061l-.627.4c-3.736,2.411-6.727,4.392-7.093,4.65-.041.024,4.4,6.218,8.241,5.028,3.5-1.1,11.526-4.117,12.833-4.611.208.143.431.257.641.379.176.11.31.2.445.279,3.272,2.729,14.683,12.421,16.929,16.648a.454.454,0,0,0,.066.073c-.413,1.668-2.595,2.892-6.033,1.008-4.671-2.567-9.341-11.871-21.583-12.9-3.913-.318-5.3,2.525-5.773,4.383a8.016,8.016,0,0,0-.267,1.474s2.583,2.093,6.534,5.65c5.2,4.641,9.859,8.953,19.317,17.5,15.843,14.318,28.618,12.681,33.17,16.281,4.529,3.595,51.806,45.968,51.806,45.968l32.168-29.339S1404.289,1146.426,1403.24,1143.015Z" fill="#ffa780"/>
          </g>
          <g id="Grupo_60768" data-name="Grupo 60768">
            <path id="Trazado_116357" data-name="Trazado 116357" d="M1367.316,1108.319l-23.026-8.5.275-.748,23.026,8.5Z" fill="#dd886b"/>
          </g>
          <g id="Grupo_60769" data-name="Grupo 60769">
            <path id="Trazado_116358" data-name="Trazado 116358" d="M1363.03,1117.779c-15.225-7.783-22.613-9.077-22.686-9.088l.129-.787c.3.051,7.56,1.313,22.92,9.166Z" fill="#dd886b"/>
          </g>
          <g id="Grupo_60770" data-name="Grupo 60770">
            <path id="Trazado_116359" data-name="Trazado 116359" d="M1325.068,1130.589a4.283,4.283,0,0,1-1.466,5.873,2.634,2.634,0,0,1-.281.153c-3.451-3.1-5.7-4.928-5.7-4.928a10.089,10.089,0,0,1,1.572-2.565A4.283,4.283,0,0,1,1325.068,1130.589Z" fill="#f2d1c2"/>
          </g>
          <g id="Grupo_60771" data-name="Grupo 60771">
            <path id="Trazado_116360" data-name="Trazado 116360" d="M1316.329,1116.644l1.978,3.2a3.5,3.5,0,0,1-.843.69,3.785,3.785,0,0,1-5.163-1.231C1312.544,1119.122,1314.127,1118.078,1316.329,1116.644Z" fill="#f2d1c2"/>
          </g>
          <g id="Grupo_60772" data-name="Grupo 60772">
            <path id="Trazado_116361" data-name="Trazado 116361" d="M1315.419,1104.419l-.3,3.158a3.724,3.724,0,0,1-3.982-3.518C1311.6,1104.1,1313.3,1104.25,1315.419,1104.419Z" fill="#f2d1c2"/>
          </g>
          <g id="Grupo_60773" data-name="Grupo 60773">
            <path id="Trazado_116362" data-name="Trazado 116362" d="M1327.706,1097.7l-.227,2.173a3.7,3.7,0,0,1-4.017-1.72,3.75,3.75,0,0,1-.393-.885Z" fill="#f2d1c2"/>
          </g>
          <g id="Grupo_60774" data-name="Grupo 60774">
            <path id="Trazado_116363" data-name="Trazado 116363" d="M1348.517,1097.2l.1,1.538a4.274,4.274,0,0,1-4.706-1.838C1344.256,1096.668,1346.15,1096.849,1348.517,1097.2Z" fill="#f2d1c2"/>
          </g>
          <g id="Grupo_60775" data-name="Grupo 60775">
            <path id="Trazado_116364" data-name="Trazado 116364" d="M1360.691,1125.877c-10.47-9.833-23.588-20.346-25.472-19.7-1.812.623-15.4,8.67-15.537,8.751l-.256-.34c.564-.333,13.646-8.515,15.534-9.165,3.112-1.068,21.518,15.4,26.277,19.873Z" fill="#dd886b"/>
          </g>
        </g>
        <g id="Grupo_60793" data-name="Grupo 60793">
          <g id="Grupo_60778" data-name="Grupo 60778">
            <g id="Grupo_60777" data-name="Grupo 60777">
              <path id="Trazado_116365" data-name="Trazado 116365" d="M1136.856,1070.117s23.527-14.858,26.8-14.453,33.077,18.5,33.077,18.5-.567,4.98-5.123,6.1-26.053-7.668-26.053-7.668l-24.076,10.909Z" fill="#dd886b"/>
            </g>
          </g>
          <g id="Grupo_60780" data-name="Grupo 60780">
            <g id="Grupo_60779" data-name="Grupo 60779">
              <path id="Trazado_116366" data-name="Trazado 116366" d="M1133.5,1073.484s25.077-11.261,28.286-10.381,30.772,23.135,30.772,23.135-1.13,4.844-5.786,5.286-23.975-11.345-23.975-11.345l-25.858,8.374Z" fill="#dd886b"/>
            </g>
          </g>
          <g id="Grupo_60782" data-name="Grupo 60782">
            <g id="Grupo_60781" data-name="Grupo 60781">
              <path id="Trazado_116367" data-name="Trazado 116367" d="M1139.525,1073.89s15.632-4.24,18.59-3.143,27.014,22.96,27.014,22.96a6.273,6.273,0,0,1-5.966,3.838c-4.449-.137-21.66-12.234-21.66-12.234l-14.653,2.74Z" fill="#dd886b"/>
            </g>
          </g>
          <g id="Grupo_60784" data-name="Grupo 60784">
            <g id="Grupo_60783" data-name="Grupo 60783">
              <path id="Trazado_116368" data-name="Trazado 116368" d="M1183.21,1062.349a2.672,2.672,0,0,0-.408.12c-1.4.865-3.151,3.106-5,6.04a.35.35,0,0,1-.043.083c-5.59,8.82-12.262,23.623-14.495,24.984-3.019,1.838-7.851.544-9.107-5.046-1.342-5.969-2.5-15.267-2.5-15.267l11.8-14.4s13.685,4.743,18.684,3.746c.048,0,.079-.021.126-.024.174-.042.708-.185.99-.266.121-.119.226-.22.316-.322,3.587-3.563,2.367-5.038,2.029-6.438a24.123,24.123,0,0,0-5.755-3.41c-.147-.055-.295-.126-.442-.2-8.177-3.618-18.389-6.572-21.224-5.941-4.346.975-25.294,18.3-28.058,21.206-2.765,2.892-1.641,49.963-1.641,49.963L1099.53,1187.5l36.049,31.7s27.233-86,30.878-89.389c6.717-6.206,12.677-16.867,13.257-23.252.8-8.887,5.449-23.875,8-33.392.616-2.27,1.106-4.23,1.4-5.716a17.013,17.013,0,0,0,.277-1.8,4.862,4.862,0,0,0,.019-.751C1189.268,1063.331,1186.142,1061.745,1183.21,1062.349Z" fill="#ffa780"/>
            </g>
          </g>
          <g id="Grupo_60786" data-name="Grupo 60786">
            <g id="Grupo_60785" data-name="Grupo 60785">
              <path id="Trazado_116369" data-name="Trazado 116369" d="M1183.786,1062.1a3.163,3.163,0,0,0-.847.305A8.425,8.425,0,0,0,1183.786,1062.1Z" fill="#ffa780"/>
            </g>
          </g>
          <g id="Grupo_60788" data-name="Grupo 60788">
            <g id="Grupo_60787" data-name="Grupo 60787">
              <path id="Trazado_116370" data-name="Trazado 116370" d="M1185.6,1055.554a4.6,4.6,0,0,1-6.242-.86l.487-2.55A24.123,24.123,0,0,1,1185.6,1055.554Z" fill="#f2d1c2"/>
            </g>
          </g>
          <path id="Trazado_116371" data-name="Trazado 116371" d="M1245.489,1051.341s-12.884,7.817-23.495,11.417-34.1,4.926-40.737-.948a39.078,39.078,0,0,0,3.411,26.337s26.526,51.158,29.937,52.674c0,0,2.084.758,6.631,0s3.437-.519,11.558-4.927c3.382-1.835,2.353-1.654,5.4-2.557,2.276-.675,3.411-.774,5.211.284.887.521,1.989.947,6.536.473,1.607-.167,3.127.437,6.158-.852s2.558-3.6,2.937-7.958S1248.71,1056.787,1245.489,1051.341Z" fill="#dcd0c9" style="isolation: isolate"/>
          <g id="Grupo_60790" data-name="Grupo 60790">
            <g id="Grupo_60789" data-name="Grupo 60789">
              <path id="Trazado_116372" data-name="Trazado 116372" d="M1189.56,1065.021c0,.048-.03.305-.068.738-.014.049-.01.113-.022.177-.063.275-.177.777-.346,1.441-.36,1.457-.894,3.5-1.521,5.834-1.52,5.611-3.517,12.846-4.439,16.14-2.145-6.32-3.63-12.806-6.42-18.96.331-.626.678-1.221,1.011-1.8a.35.35,0,0,0,.043-.083c1.638-2.793,3.137-4.972,4.342-5.905.092-.069.168-.122.245-.174a1.323,1.323,0,0,0,.139-.088,3.9,3.9,0,0,0,.78-.3,1.482,1.482,0,0,1,.268-.048C1186.225,1061.517,1189.454,1063.512,1189.56,1065.021Z" fill="#ffa780"/>
            </g>
          </g>
          <g id="Grupo_60792" data-name="Grupo 60792">
            <g id="Grupo_60791" data-name="Grupo 60791">
              <path id="Trazado_116373" data-name="Trazado 116373" d="M1189.492,1065.759c-.014.049-.01.113-.022.177-.063.275-.177.777-.346,1.441-.306,1.566-.8,3.526-1.412,5.8a.408.408,0,0,1-.109.038,3.354,3.354,0,0,1-1.429.133,4.475,4.475,0,0,1,1.108-8.794,3.415,3.415,0,0,1,2.108,1.1A.779.779,0,0,1,1189.492,1065.759Z" fill="#f2d1c2"/>
            </g>
          </g>
          <path id="Trazado_116374" data-name="Trazado 116374" d="M1238.857,1131.158s13.013-9.973,16.769-6.379a5.815,5.815,0,0,1,2.115,4.294C1257.741,1129.894,1257.805,1132.926,1238.857,1131.158Z" fill="#c1b2aa" style="isolation: isolate"/>
        </g>
        <g id="Grupo_60803" data-name="Grupo 60803">
          <g id="Grupo_60794" data-name="Grupo 60794">
            <rect id="Rectángulo_7612" data-name="Rectángulo 7612" width="0.436" height="14.723" rx="0.194" transform="translate(1359.266 1041.246) rotate(76.677)" fill="#622c31"/>
            <rect id="Rectángulo_7613" data-name="Rectángulo 7613" width="0.436" height="14.723" rx="0.194" transform="translate(1354.061 1050.267) rotate(166.677)" fill="#622c31"/>
            <rect id="Rectángulo_7614" data-name="Rectángulo 7614" width="0.436" height="14.723" rx="0.194" transform="translate(1348.472 1049.533) rotate(-148.323)" fill="#622c31"/>
            <rect id="Rectángulo_7615" data-name="Rectángulo 7615" width="0.436" height="14.723" rx="0.194" transform="translate(1345.774 1039.474) rotate(-58.323)" fill="#622c31"/>
            <rect id="Rectángulo_7616" data-name="Rectángulo 7616" width="0.436" height="14.723" rx="0.194" transform="translate(1359.513 1043.409) rotate(93.681)" fill="#622c31"/>
            <rect id="Rectángulo_7617" data-name="Rectángulo 7617" width="0.436" height="14.723" rx="0.194" transform="translate(1351.897 1050.514) rotate(-176.319)" fill="#622c31"/>
            <rect id="Rectángulo_7618" data-name="Rectángulo 7618" width="0.436" height="14.723" rx="0.194" transform="translate(1346.768 1048.178) rotate(-131.319)" fill="#622c31"/>
            <rect id="Rectángulo_7619" data-name="Rectángulo 7619" width="0.436" height="14.723" rx="0.194" transform="translate(1347.129 1037.769) rotate(-41.319)" fill="#622c31"/>
            <rect id="Rectángulo_7620" data-name="Rectángulo 7620" width="0.436" height="14.723" rx="0.194" transform="translate(1359.323 1044.836) rotate(104.898)" fill="#622c31"/>
            <rect id="Rectángulo_7621" data-name="Rectángulo 7621" width="0.436" height="14.723" rx="0.194" transform="translate(1350.471 1050.324) rotate(-165.102)" fill="#622c31"/>
            <rect id="Rectángulo_7622" data-name="Rectángulo 7622" width="0.436" height="14.723" rx="0.194" transform="translate(1345.893 1047.034) rotate(-120.102)" fill="#622c31"/>
            <rect id="Rectángulo_7623" data-name="Rectángulo 7623" width="0.436" height="14.723" rx="0.194" transform="translate(1348.272 1036.895) rotate(-30.102)" fill="#622c31"/>
            <rect id="Rectángulo_7624" data-name="Rectángulo 7624" width="0.436" height="14.723" rx="0.194" transform="matrix(0.084, 0.996, -0.996, 0.084, 1359.469, 1042.318)" fill="#622c31"/>
            <rect id="Rectángulo_7625" data-name="Rectángulo 7625" width="0.436" height="14.723" rx="0.194" transform="matrix(-0.996, 0.084, -0.084, -0.996, 1352.989, 1050.471)" fill="#622c31"/>
            <rect id="Rectángulo_7626" data-name="Rectángulo 7626" width="0.436" height="14.723" rx="0.194" transform="matrix(-0.764, -0.645, 0.645, -0.764, 1347.57, 1048.919)" fill="#622c31"/>
            <rect id="Rectángulo_7627" data-name="Rectángulo 7627" width="0.436" height="14.723" rx="0.194" transform="matrix(0.645, -0.764, 0.764, 0.645, 1346.388, 1038.571)" fill="#622c31"/>
            <rect id="Rectángulo_7628" data-name="Rectángulo 7628" width="0.436" height="14.723" rx="0.194" transform="translate(1359.059 1045.712) rotate(112.021)" fill="#622c31"/>
            <rect id="Rectángulo_7629" data-name="Rectángulo 7629" width="0.436" height="14.723" rx="0.194" transform="translate(1349.594 1050.06) rotate(-157.979)" fill="#622c31"/>
            <rect id="Rectángulo_7630" data-name="Rectángulo 7630" width="0.436" height="14.723" rx="0.194" transform="translate(1345.461 1046.228) rotate(-112.979)" fill="#622c31"/>
            <rect id="Rectángulo_7631" data-name="Rectángulo 7631" width="0.436" height="14.723" rx="0.194" transform="translate(1349.078 1036.462) rotate(-22.979)" fill="#622c31"/>
          </g>
          <g id="Grupo_60802" data-name="Grupo 60802">
            <g id="Grupo_60797" data-name="Grupo 60797">
              <g id="Grupo_60795" data-name="Grupo 60795">
                <path id="Trazado_116375" data-name="Trazado 116375" d="M1361.618,1093.237c-.829-.749-10.886-40.049-13.135-48.866a4.185,4.185,0,0,1,.661-3.525,3.615,3.615,0,0,1,6.248,1.335c3.865,12.347,10.331,50.711,10.331,50.711Z" fill="#1e9dd0"/>
              </g>
              <g id="Grupo_60796" data-name="Grupo 60796">
                <path id="Trazado_116376" data-name="Trazado 116376" d="M1349.195,1040.787a3.62,3.62,0,0,1,5.43,2.069c3.581,11.439,9.394,45.205,10.229,50.109l.869-.073s-6.466-38.364-10.331-50.711A3.615,3.615,0,0,0,1349.195,1040.787Z" fill="#048db7"/>
              </g>
            </g>
            <g id="Grupo_60801" data-name="Grupo 60801">
              <g id="Grupo_60798" data-name="Grupo 60798">
                <path id="Trazado_116377" data-name="Trazado 116377" d="M1353.439,1040.055a3.289,3.289,0,1,1-4.531,1.307A3.334,3.334,0,0,1,1353.439,1040.055Z" fill="#048db7"/>
              </g>
              <g id="Grupo_60799" data-name="Grupo 60799">
                <path id="Trazado_116378" data-name="Trazado 116378" d="M1353.227,1040.131a2.994,2.994,0,1,1-4.039,1.238A2.987,2.987,0,0,1,1353.227,1040.131Z" fill="#de956a"/>
              </g>
              <g id="Grupo_60800" data-name="Grupo 60800">
                <path id="Trazado_116379" data-name="Trazado 116379" d="M1352.211,1041.7a.906.906,0,1,1-1.222.375A.9.9,0,0,1,1352.211,1041.7Z" fill="#f95150"/>
              </g>
            </g>
          </g>
        </g>
      </g>
    </g>
  </g>
</svg>
