<svg xmlns="http://www.w3.org/2000/svg" xmlns:xlink="http://www.w3.org/1999/xlink" width="256" height="179" viewBox="0 0 256 179">
  <defs>
    <clipPath id="clip-path">
      <rect id="Rectángulo_7440" data-name="Rectángulo 7440" width="256" height="179" rx="9" transform="translate(1847.615 1698.083)" fill="none"/>
    </clipPath>
  </defs>
  <g id="Grupo_60990" data-name="Grupo 60990" transform="translate(-1847.615 -1698.083)">
    <g id="Grupo_60926" data-name="Grupo 60926">
      <rect id="Rectángulo_7440-2" data-name="Rectángulo 7440" width="256" height="179" rx="9" transform="translate(1847.615 1698.083)" fill="#fff"/>
      <line id="Línea_521" data-name="Línea 521" x1="29.68" y2="9.392" transform="translate(2006.031 1707.495)" fill="none" stroke="#706f6f" stroke-miterlimit="10" stroke-width="1"/>
      <g id="Grupo_60995" data-name="Grupo 60995">
        <g id="Grupo_60994" data-name="Grupo 60994" clip-path="url(#clip-path)">
          <g id="Grupo_60993" data-name="Grupo 60993">
            <path id="Trazado_116760" data-name="Trazado 116760" d="M1954.7,1698.314c-6.12,2.154-8.738,9.332-13.757,13.447a32.2,32.2,0,0,1-10.773,5.045l-24.833,8.055c-2.921.947-5.98,1.981-8.049,4.249-2.54,2.782-3.055,6.8-3.45,10.544-2.662,25.126-5.321,50.518-2.195,75.592,1.357,10.872-1.762,21.9-2.01,32.856-.154,7.1-.246,14.2-.052,21.295.347,12.8,1.61,25.569,1.816,38.374a209.218,209.218,0,0,1-.705,21.29l2.614.075c7.138.2,14.784,1.259,21.9,1.807a1.413,1.413,0,0,1,1.568,1.866l-.5,7.671a13.226,13.226,0,0,0,.555,6.082c1.963,4.592,8.009,5.41,13,5.552l31.184.885a30.761,30.761,0,0,0,6.193-.242,15.546,15.546,0,0,0,10.313-6.918c2.187,3.289,6.5,5.033,10.34,5.951a41.761,41.761,0,0,0,11.792.629,229.538,229.538,0,0,0,32.862-4.03c-.391-5.229-1.081-11.507-1-16.749a65.467,65.467,0,0,0,29.355-.83c.464-.122,1.066-.477.883-.927a15.292,15.292,0,0,1-.554-6.9c.544-4.461.7-9.561,1.026-14.042,1.336-18.16.127-36.438-.825-54.621-.666-12.717-3-24.84-3.187-37.573-.218-14.814,1.505-29.586,1.978-44.393s-.36-29.924-5.476-43.829a5.611,5.611,0,0,0-1.839-2.878c-11.163-7.507-25.755-9.583-38.761-13.022a28.658,28.658,0,0,1-7.037-2.505c-5.067-2.905-7.835-8.736-12.716-11.944a3.32,3.32,0,0,0-2.01-.292l-36.592.022c-.324,0-.749-.084-.786-.407S1955.009,1698.207,1954.7,1698.314Z" fill="#8c757e" opacity="0.26" style="isolation: isolate"/>
            <path id="Trazado_116761" data-name="Trazado 116761" d="M1912.294,1962.465a2.092,2.092,0,0,1-.955-.848c-.275-.618.138-1.318.479-1.912a10.622,10.622,0,0,0,1.4-4.823,26.537,26.537,0,0,1,.119-4.075,12.849,12.849,0,0,1,3.176-5.317,16.255,16.255,0,0,1-.227-5.008l.5-7.67a1.414,1.414,0,0,0-1.568-1.869c-7.119-.547-14.765-1.6-21.9-1.805l-.28-.008c-1.578,4.483-1.162,11.883-.969,15.106a21.762,21.762,0,0,0,.978,5.744,75.188,75.188,0,0,0,3.486,7.032,36.407,36.407,0,0,0,3.213,6.74c2.722,3.649,7.514,4.946,11.94,6.011l4.855,1.168a2.59,2.59,0,0,0,2.226-.154c1-.806.292-2.418-.546-3.392A23.352,23.352,0,0,0,1912.294,1962.465Z" fill="#ffa780"/>
            <g id="Grupo_60971" data-name="Grupo 60971">
              <g id="Grupo_60970" data-name="Grupo 60970">
                <g id="Grupo_60968" data-name="Grupo 60968">
                  <path id="Trazado_116762" data-name="Trazado 116762" d="M2032.179,1944.188v-.04h0Z" fill="#36b1bf"/>
                </g>
                <g id="Grupo_60969" data-name="Grupo 60969">
                  <path id="Trazado_116763" data-name="Trazado 116763" d="M1924.439,1973.2h47.706a15.281,15.281,0,0,0,1.237-4.556q1.167-7.534,2.335-15.069c.051-.331.18-.74.512-.773.387-.043.583.447.648.83.842,4.971,3.2,13.181,4.706,19.573h50.894c.155-6.647.192-14.959.543-19.115a16.592,16.592,0,0,1-.742-1.588c-.513-1.259-1.02-2.524-1.475-3.807a229.246,229.246,0,0,1-31.143,3.727,41.765,41.765,0,0,1-11.792-.629c-3.841-.918-8.154-2.662-10.341-5.951a15.543,15.543,0,0,1-10.314,6.918,30.74,30.74,0,0,1-6.192.242l-31.183-.885a21.924,21.924,0,0,1-9.637-1.983c.123,1.945.25,3.885.5,5.826a85.37,85.37,0,0,0,3.467,15.423A17.65,17.65,0,0,1,1924.439,1973.2Z" fill="#36b1bf"/>
                </g>
              </g>
            </g>
            <path id="Trazado_116764" data-name="Trazado 116764" d="M2057.3,1931.636a65.561,65.561,0,0,1-25.779,0c-.085,5.241.619,11.519,1,16.749-.569.111-1.142.2-1.713.309.455,1.282.962,2.547,1.475,3.807a10.338,10.338,0,0,0,1.286,2.482,5.125,5.125,0,0,1,.734,1.032c.524,1.2-.331,2.9.657,3.764.713.618,1.895.278,2.685.8,1.278.844.4,2.893-.807,3.834s-2.818,1.855-2.853,3.382a2.79,2.79,0,0,0,2.855,2.5,7.886,7.886,0,0,0,3.935-1.361,38.237,38.237,0,0,0,10.423-7.8c5.834-6.771,6.825-16.419,6.539-25.348A22.957,22.957,0,0,0,2057.3,1931.636Z" fill="#ffa780"/>
            <path id="Trazado_116765" data-name="Trazado 116765" d="M2018.373,1716.887a222.809,222.809,0,0,1,2.5,33.13,31.12,31.12,0,0,0-16.505-3.326l6.13,4.9a18.377,18.377,0,0,1,3.484,3.323c3.05,4.144,2.095,10.115-.493,14.563s-6.526,7.927-9.683,11.989a71.708,71.708,0,0,0-5.863,9.246,302.972,302.972,0,0,0-18.979,41" fill="none" stroke="#8c757e" stroke-miterlimit="10" stroke-width="0.5"/>
            <path id="Trazado_116766" data-name="Trazado 116766" d="M1934.421,1720.375l-7.2,20.732a2.114,2.114,0,0,0,1.786,3.257l9.495,2.949a73.535,73.535,0,0,0-14.451,12.51c8.427,3.518,12.775,12.675,16.384,21.066l38.106,50.146" fill="none" stroke="#8c757e" stroke-miterlimit="10" stroke-width="0.5"/>
            <path id="Trazado_116767" data-name="Trazado 116767" d="M1919.642,1789.54a65.594,65.594,0,0,1,4.345,29.831,167.672,167.672,0,0,1-5.41,29.892c-1.341,5.342-2.74,10.665-4.119,16-2.375,9.186-4.678,19-1.667,28" fill="none" stroke="#8c757e" stroke-miterlimit="10" stroke-width="0.5"/>
            <path id="Trazado_116768" data-name="Trazado 116768" d="M1908.8,1749.109a59.308,59.308,0,0,1,5.234,31.539" fill="none" stroke="#8c757e" stroke-miterlimit="10" stroke-width="0.5"/>
            <path id="Trazado_116769" data-name="Trazado 116769" d="M1899.679,1735.924a23.982,23.982,0,0,0-1.9,11.284c.269,11.493,3.467,22.682,5.874,33.924s4.028,23.019,1.164,34.159" fill="none" stroke="#8c757e" stroke-miterlimit="10" stroke-width="0.5"/>
            <path id="Trazado_116770" data-name="Trazado 116770" d="M2047.07,1739.532c-2.679,15.367-5.546,30.759-10.356,45.6-4.158,12.815-9.837,25.732-8.687,39.154.36,4.206,1.391,8.322,2.1,12.483.869,5.075,1.263,10.216,1.656,15.349l2.989,39.06a39.145,39.145,0,0,1-.167,10.729c-.541,2.674-1.634,5.2-2.439,7.8a37.49,37.49,0,0,0-.754,19.166" fill="none" stroke="#8c757e" stroke-miterlimit="10" stroke-width="0.5"/>
            <path id="Trazado_116771" data-name="Trazado 116771" d="M1978.962,1831.716c.722,10.674,2.329,23.043,2.21,33.822q-.716,16.889-2.373,33.511c-1.268,15.667-1.961,31.517-2.073,47.408" fill="none" stroke="#8c757e" stroke-miterlimit="10" stroke-width="0.5"/>
            <path id="Trazado_116772" data-name="Trazado 116772" d="M1914.217,1898.984a202.714,202.714,0,0,1,2.662,21.251c.253,3.509.358,7.264-1.438,10.283" fill="none" stroke="#8c757e" stroke-miterlimit="10" stroke-width="0.5"/>
            <path id="Trazado_116773" data-name="Trazado 116773" d="M1997.8,1735.924c1.761-5.814,4.9-21.889.858-33.91a23.242,23.242,0,0,0-4.288-3.836,3.138,3.138,0,0,0-1.844-.739c-12.2,0-25.194-.008-37.388,0-.235,0,.113.422-.043.276a65.209,65.209,0,0,0-1.066,15.479c.691,9.365,12.866,84.6,14.739,90.844,1.832,6.109,10.032,26.811,10.194,28.458.144-1.64,2.879-21.063,5.771-27.513C1987.807,1798.108,1995.924,1742.11,1997.8,1735.924Z" fill="#ffa780"/>
            <path id="Trazado_116774" data-name="Trazado 116774" d="M1960.111,1754.567c3.6,22.443,7.639,46.088,8.656,49.471,1.831,6.109,10.031,26.811,10.193,28.458.144-1.64,2.88-21.063,5.772-27.513,2.026-4.523,6.239-30.357,9.414-49.236Z" fill="#36b1bf"/>
            <g id="Grupo_60972" data-name="Grupo 60972">
              <path id="Trazado_116775" data-name="Trazado 116775" d="M1905.8,1935.76a21.984,21.984,0,0,1,1.163,8.521c-.212,3.154-1.568,6-1.905,9.119a31.387,31.387,0,0,0-.1,4.1,5.192,5.192,0,0,0,.8,3.234c1.236,1.561,3.58,1.587,5.385,1.577.352,0,1.3-.531.5-.526-2.319.014-4.957-.372-5.393-3.1a19.9,19.9,0,0,1,.6-8.4,23.725,23.725,0,0,0,.146-14.838c-.1-.309-1.289.039-1.193.32Z" fill="#dd886b"/>
            </g>
            <g id="Grupo_60973" data-name="Grupo 60973">
              <path id="Trazado_116776" data-name="Trazado 116776" d="M1897.71,1953.8a81.965,81.965,0,0,1,5.5,9.171,8.253,8.253,0,0,0,2.571,3.411c1.237.807,2.713,1.132,4,1.836.3.155,1.4-.292.963-.531a37.489,37.489,0,0,1-4.038-1.874,10.125,10.125,0,0,1-2.678-3.879,81.883,81.883,0,0,0-5.209-8.577c-.2-.285-1.354.1-1.115.443Z" fill="#dd886b"/>
            </g>
            <g id="Grupo_60974" data-name="Grupo 60974">
              <path id="Trazado_116777" data-name="Trazado 116777" d="M2038.3,1940.522a26.748,26.748,0,0,0,3.212,11.635c.89,1.665,1.618,3.421.536,5.188-1.281,2.092-3.737,2.428-5.992,2.283-.31-.019-1.379.527-.753.567a10.116,10.116,0,0,0,6.117-1.184,4.666,4.666,0,0,0,2.364-4.449,10.039,10.039,0,0,0-1.312-3.161,25.807,25.807,0,0,1-2.979-11.2c-.012-.291-1.21-.078-1.193.32Z" fill="#dd886b"/>
            </g>
            <g id="Grupo_60975" data-name="Grupo 60975">
              <path id="Trazado_116778" data-name="Trazado 116778" d="M2051.9,1943.822a130.161,130.161,0,0,1-3.063,13.727c-1.285,3.975-3.9,8.4-8.334,9.305-.478.1-1.051.633-.217.463a12.669,12.669,0,0,0,8.849-7.654,36.586,36.586,0,0,0,2.189-7.558q.885-4.243,1.756-8.486c.058-.284-1.116-.1-1.18.2Z" fill="#dd886b"/>
            </g>
            <g id="Grupo_60976" data-name="Grupo 60976">
              <path id="Trazado_116779" data-name="Trazado 116779" d="M2053.854,1952.088c-1.378,5.234-4.934,9.428-8.389,13.447-.185.215.155.283.309.289a1.083,1.083,0,0,0,.792-.309c3.488-4.056,7.087-8.316,8.476-13.6.1-.363-1.091-.19-1.187.173Z" fill="#dd886b"/>
            </g>
            <path id="Trazado_116878" data-name="Trazado 116878" d="M1999.774,1952.343a41.765,41.765,0,0,1-11.792-.629c-3.841-.918-8.153-2.662-10.34-5.951a15.548,15.548,0,0,1-10.314,6.918,30.68,30.68,0,0,1-6.192.241l-31.184-.884c-4.992-.142-11.039-.959-13-5.552a8.251,8.251,0,0,1-.572-2.493,12.715,12.715,0,0,0,.572,5.809c1.963,4.61,8.01,5.431,13,5.573l31.184.889a30.61,30.61,0,0,0,6.192-.244,15.546,15.546,0,0,0,10.314-6.943c2.187,3.3,6.491,5.051,10.34,5.972a41.619,41.619,0,0,0,11.792.633,228.9,228.9,0,0,0,32.856-4.047c-.079-1.053-.17-2.164-.264-3.277A229.263,229.263,0,0,1,1999.774,1952.343Z" fill="#aa988f" opacity="0.35" style="isolation: isolate"/>
          </g>
        </g>
      </g>
      <g id="Grupo_60983" data-name="Grupo 60983">
        <g id="Grupo_60977" data-name="Grupo 60977">
          <path id="Trazado_116780" data-name="Trazado 116780" d="M1972.823,1816.916c2.739,4.934,2.312,11.845,2.312,11.845l-4.148.856a29.134,29.134,0,0,1-.559,2.9l-4.333-.854-.515-8.208s-7.931,2.578-10.029.042a1.64,1.64,0,0,1,.536-2.708s.575-.195,1.49-.475c-.55-1.333.945-2.053.945-2.053S1971.455,1814.455,1972.823,1816.916Z" fill="#dd886b"/>
        </g>
        <path id="Trazado_116880" data-name="Trazado 116880" d="M1977.916,1808.82c-.538-.555-1.067-1.111-1.575-1.622-.328-.329-.649-.647-.951-.936a16.546,16.546,0,0,0-2.177-1.882.96.96,0,0,0-.222-.1c-1.027-.246-2.095,1.913-1.534,3.886.62,2.184,4.22,5.923,4.22,5.923l-2.1,5.429a4.988,4.988,0,0,1-4.681,3.523c-3.537.065-6.877-1.623-5.552-3.494,4.249-6,6.916-8.142,7.069-12.226.111-2.907-3.322-2.861-3.322-2.861a1.067,1.067,0,0,1-.09.148,29.428,29.428,0,0,1-2.056,3.22,39.028,39.028,0,0,1-7.178,6.917c-5.92,5.036-8.706,8.015-12.071,14.2-1.869,3.424-48.815,31.934-77.169,48.146H1908.7c22.5-15.613,45.567-31.537,46.62-31.912,6.015-2.163,18.564-8.211,24.241-16.518,2.41-3.528,2.846-13.222,3.031-14.07C1982.679,1814.135,1980.325,1811.376,1977.916,1808.82Z" fill="#ffa780"/>
        <g id="Grupo_60978" data-name="Grupo 60978">
          <path id="Trazado_116782" data-name="Trazado 116782" d="M1978.588,1829.824s5.343-8.495,4.781-10.906-11.745-13.614-11.745-13.614-1.923.061-1.569,3.046c.432,3.622,6.317,12.1,6.317,12.1l-6.315,7.081Z" fill="#ffa780"/>
        </g>
        <g id="Grupo_60979" data-name="Grupo 60979">
          <rect id="Rectángulo_7654" data-name="Rectángulo 7654" width="8.078" height="0.274" transform="translate(1979.744 1824.401) rotate(-72.816)" fill="#dd886b"/>
        </g>
        <g id="Grupo_60980" data-name="Grupo 60980">
          <path id="Trazado_116783" data-name="Trazado 116783" d="M1971.512,1807.043a8.274,8.274,0,0,1-.025-1.752l.272.025c-.456,5.017,3.959,8.626,4.006,8.661l.071.058-.026.089a29.131,29.131,0,0,1-1.543,4.359l-.189-.2a28.008,28.008,0,0,0,1.445-4.154A12.106,12.106,0,0,1,1971.512,1807.043Z" fill="#dd886b"/>
        </g>
        <g id="Grupo_60981" data-name="Grupo 60981">
          <path id="Trazado_116784" data-name="Trazado 116784" d="M1973.643,1807.692a2.106,2.106,0,0,1-.43-3.312,16.4,16.4,0,0,1,2.178,1.882C1974.667,1806.87,1973.994,1807.413,1973.643,1807.692Z" fill="#f2d1c2"/>
        </g>
        <g id="Grupo_60982" data-name="Grupo 60982">
          <path id="Trazado_116785" data-name="Trazado 116785" d="M1966.976,1808.789a2.1,2.1,0,0,1-2.032-.968,29.5,29.5,0,0,0,2.056-3.22,2.109,2.109,0,0,1-.024,4.185Z" fill="#f2d1c2"/>
        </g>
      </g>
      <g id="Grupo_60986" data-name="Grupo 60986">
        <path id="Trazado_116786" data-name="Trazado 116786" d="M1963.669,1777.2a24.231,24.231,0,0,0,2.164-2.889c.244-.6-1.21-2.252-1.21-2.252a3.392,3.392,0,0,0,1.236-2.269c.207-1.546-8.918-9.568-10.773-9.893-1.41-.249-8.509.56-16.237,2.783-2.237.643-5.765,1.854-8.07,1.554-.181-.023-8.588,4.837-8.762,4.809-1.374-.226-51.12,8.616-74.4,14.329V1811.3c23.176-7.3,81.557-28.4,81.8-28.607.328-.3,7.667,5.634,15.6,7.79,3.5.951,7.3,1.237,10.838,2.237a29.7,29.7,0,0,1,3.595,1.286,1.1,1.1,0,0,1,.155.062s2.748-2.068.881-4.3c-2.628-3.129-4.328-2.38-10.974-4.468l-.342-.133a15.4,15.4,0,0,1-1.612-.841c-.154-.337.145-1.142.56-1.992a3.8,3.8,0,0,1,4.2-2.068l6.692,1.422s3.655,6.444,4.23,7.357c1.091,1.731,1.836,1.8,2.258,1.6a1.4,1.4,0,0,0,.146-.079c.528-.375.709-1.3.661-2.5A48.856,48.856,0,0,0,1963.669,1777.2Z" fill="#ffa780"/>
        <g id="Grupo_60984" data-name="Grupo 60984">
          <path id="Trazado_116787" data-name="Trazado 116787" d="M1965.644,1790.573c-.074.029-.123.041-.136.049a1.307,1.307,0,0,1-.207-.207,2.109,2.109,0,0,1-.464-1.876l1.476-.464C1966.357,1789.264,1966.176,1790.191,1965.644,1790.573Z" fill="#f2d1c2"/>
        </g>
        <path id="Trazado_116788" data-name="Trazado 116788" d="M1963.743,1777.042c-.6-1-9.331-4.685-9.707-4.846a3.9,3.9,0,0,0-.368.217s9.47,4.144,9.872,4.814A1.16,1.16,0,0,0,1963.743,1777.042Z" fill="#dd886b"/>
        <path id="Trazado_116789" data-name="Trazado 116789" d="M1964.708,1771.981c.014-.015-8.336-7.3-8.336-7.3l-.169.309,8.332,7.159C1964.548,1772.162,1964.708,1771.981,1964.708,1771.981Z" fill="#dd886b"/>
        <g id="Grupo_60985" data-name="Grupo 60985">
          <path id="Trazado_116790" data-name="Trazado 116790" d="M1956.857,1790.715a2.1,2.1,0,0,0-1.015,2.009,29.99,29.99,0,0,1,3.595,1.286,2.108,2.108,0,0,0-2.58-3.293Z" fill="#f2d1c2"/>
        </g>
      </g>
    </g>
    <g id="Grupo_60996" data-name="Grupo 60996">
      <path id="Trazado_116881" data-name="Trazado 116881" d="M2038.939,1704.107h1.044v7.208h3.455v.876h-4.5Z" fill="#3a3a3a"/>
      <path id="Trazado_116882" data-name="Trazado 116882" d="M2045.743,1704.756a.654.654,0,0,1-1.307,0,.643.643,0,0,1,.66-.66A.627.627,0,0,1,2045.743,1704.756Zm-1.175,7.435v-5.8h1.055v5.8Z" fill="#3a3a3a"/>
      <path id="Trazado_116883" data-name="Trazado 116883" d="M2047.376,1707.958c0-.6-.013-1.092-.049-1.571h.936l.06.959h.024a2.135,2.135,0,0,1,1.919-1.091c.8,0,2.05.479,2.05,2.471v3.465h-1.054v-3.345c0-.936-.348-1.716-1.344-1.716a1.5,1.5,0,0,0-1.415,1.08,1.517,1.517,0,0,0-.072.491v3.49h-1.055Z" fill="#3a3a3a"/>
      <path id="Trazado_116884" data-name="Trazado 116884" d="M2054.623,1709.48a1.86,1.86,0,0,0,1.991,2.016,3.822,3.822,0,0,0,1.608-.3l.179.755a4.693,4.693,0,0,1-1.93.361,2.7,2.7,0,0,1-2.855-2.927c0-1.751,1.031-3.13,2.723-3.13a2.459,2.459,0,0,1,2.4,2.734,3.948,3.948,0,0,1-.036.491Zm3.095-.754a1.5,1.5,0,0,0-1.463-1.715,1.749,1.749,0,0,0-1.619,1.715Z" fill="#3a3a3a"/>
      <path id="Trazado_116885" data-name="Trazado 116885" d="M2063.262,1712.191l-.084-.731h-.036a2.163,2.163,0,0,1-1.776.863,1.653,1.653,0,0,1-1.774-1.667c0-1.4,1.247-2.171,3.49-2.159v-.119a1.2,1.2,0,0,0-1.319-1.344,2.894,2.894,0,0,0-1.512.432l-.239-.695a3.6,3.6,0,0,1,1.906-.516c1.775,0,2.207,1.211,2.207,2.374v2.171a8.157,8.157,0,0,0,.1,1.391Zm-.157-2.962c-1.151-.024-2.458.18-2.458,1.307a.935.935,0,0,0,1,1.008,1.445,1.445,0,0,0,1.4-.972,1.092,1.092,0,0,0,.059-.336Z" fill="#3a3a3a"/>
      <path id="Trazado_116886" data-name="Trazado 116886" d="M2073.389,1703.676v7.016c0,.516.011,1.1.048,1.5h-.948l-.048-1.007h-.024a2.145,2.145,0,0,1-1.979,1.139c-1.4,0-2.482-1.187-2.482-2.95-.013-1.931,1.188-3.118,2.6-3.118a1.942,1.942,0,0,1,1.751.888h.023v-3.467Zm-1.056,5.073a1.848,1.848,0,0,0-.048-.443,1.551,1.551,0,0,0-1.523-1.224c-1.091,0-1.739.96-1.739,2.243,0,1.175.576,2.147,1.715,2.147a1.586,1.586,0,0,0,1.547-1.259,1.833,1.833,0,0,0,.048-.456Z" fill="#3a3a3a"/>
      <path id="Trazado_116887" data-name="Trazado 116887" d="M2075.73,1709.48a1.861,1.861,0,0,0,1.992,2.016,3.815,3.815,0,0,0,1.607-.3l.18.755a4.7,4.7,0,0,1-1.931.361,2.7,2.7,0,0,1-2.854-2.927c0-1.751,1.031-3.13,2.722-3.13a2.459,2.459,0,0,1,2.4,2.734,4.161,4.161,0,0,1-.036.491Zm3.095-.754a1.5,1.5,0,0,0-1.463-1.715,1.749,1.749,0,0,0-1.619,1.715Z" fill="#3a3a3a"/>
      <path id="Trazado_116888" data-name="Trazado 116888" d="M2039.312,1720.787l1.139,3.262a15.036,15.036,0,0,1,.468,1.487h.036c.132-.479.3-.959.491-1.487l1.128-3.262h1.1l-2.279,5.805h-1.007l-2.206-5.805Z" fill="#3a3a3a"/>
      <path id="Trazado_116889" data-name="Trazado 116889" d="M2049.532,1725.009c0,.6.013,1.127.049,1.583h-.935l-.061-.947h-.023a2.188,2.188,0,0,1-1.919,1.079c-.913,0-2-.5-2-2.543v-3.394h1.054V1724c0,1.1.336,1.848,1.3,1.848a1.528,1.528,0,0,0,1.391-.96,1.553,1.553,0,0,0,.1-.54v-3.562h1.054Z" fill="#3a3a3a"/>
      <path id="Trazado_116890" data-name="Trazado 116890" d="M2051.875,1723.881a1.86,1.86,0,0,0,1.991,2.015,3.826,3.826,0,0,0,1.608-.3l.179.755a4.7,4.7,0,0,1-1.93.36,2.7,2.7,0,0,1-2.855-2.927c0-1.751,1.031-3.13,2.723-3.13a2.459,2.459,0,0,1,2.4,2.735,3.934,3.934,0,0,1-.036.491Zm3.095-.755a1.5,1.5,0,0,0-1.463-1.715,1.749,1.749,0,0,0-1.619,1.715Z" fill="#3a3a3a"/>
      <path id="Trazado_116891" data-name="Trazado 116891" d="M2057.3,1718.076h1.054v8.516H2057.3Z" fill="#3a3a3a"/>
      <path id="Trazado_116892" data-name="Trazado 116892" d="M2061.4,1719.12v1.667h1.512v.8H2061.4v3.13c0,.719.2,1.128.792,1.128a2.3,2.3,0,0,0,.612-.073l.048.791a2.583,2.583,0,0,1-.936.145,1.462,1.462,0,0,1-1.139-.444,2.15,2.15,0,0,1-.408-1.511v-3.166h-.9v-.8h.9V1719.4Z" fill="#3a3a3a"/>
      <path id="Trazado_116893" data-name="Trazado 116893" d="M2067.317,1726.592l-.084-.732h-.036a2.161,2.161,0,0,1-1.775.864,1.654,1.654,0,0,1-1.775-1.667c0-1.4,1.248-2.171,3.491-2.16v-.119a1.2,1.2,0,0,0-1.32-1.343,2.9,2.9,0,0,0-1.511.431l-.24-.695a3.6,3.6,0,0,1,1.907-.516c1.775,0,2.207,1.211,2.207,2.374v2.171a8.311,8.311,0,0,0,.095,1.392Zm-.156-2.962c-1.151-.025-2.458.18-2.458,1.307a.933.933,0,0,0,1,1.007,1.444,1.444,0,0,0,1.4-.971,1.109,1.109,0,0,0,.059-.336Z" fill="#3a3a3a"/>
      <path id="Trazado_116894" data-name="Trazado 116894" d="M2069.636,1725.968a.708.708,0,0,1,.719-.755.757.757,0,1,1-.719.755Z" fill="#3a3a3a"/>
    </g>
  </g>
</svg>
