<svg xmlns="http://www.w3.org/2000/svg" width="292" height="329" viewBox="0 0 292 329">
  <g id="Grupo_69782" data-name="Grupo 69782" transform="translate(4010.999 -5266)">
    <g id="Grupo_61179" data-name="Grupo 61179" transform="translate(-5881.487 2336.867)">
      <rect id="Rectángulo_7597" data-name="Rectángulo 7597" width="292" height="329" rx="9" transform="translate(1870.489 2929.132)" fill="#fff"/>
      <g id="Grupo_61028" data-name="Grupo 61028">
        <path id="Trazado_117065" data-name="Trazado 117065" d="M1917.722,3235.512a17.15,17.15,0,0,1,.044,4.763h40.892q1.782-6.834,3.562-13.67c.356,3.691,1.424,9.265,2.05,13.67h43.393a24.2,24.2,0,0,1,.735-3.566c3.3-8.778,6.624-17.612,8.346-26.832a9.237,9.237,0,0,0,.149-1.151c-3.5,2.188-6.992,4.525-10.848,5.806a43.791,43.791,0,0,1-9.226,1.658c-25.826,2.756-52.114,5.5-77.6.523a13.9,13.9,0,0,1-5.675-2.051c-1.823-1.336-2.934-3.428-4.567-4.989q1.078,4.317,2.379,8.574A166.087,166.087,0,0,0,1917.722,3235.512Z" fill="#36b1bf"/>
        <path id="Trazado_116947" data-name="Trazado 116947" d="M2032.34,3021.03a48.2,48.2,0,0,0-1.6-7.161c-1.381-4.188-3.826-8-4.83-12.3a93.831,93.831,0,0,0-43.411-23.1,13.325,13.325,0,0,0-4.6-.412,18.387,18.387,0,0,0-4.187,1.381,33.124,33.124,0,0,1-21.8.825c-4.447-1.379-7.614-3.284-11.8-1.252l-7.329,3.555c-9.86,4.783-19.737,9.574-30,13.418-5.169,1.936-10.85,3.956-13.719,8.673-4.747,7.8-5.209,17.972-4.552,27.083s2.765,18.05,4,27.1c2.087,15.269,1.683,30.767.754,46.15a157.019,157.019,0,0,0-.483,16.17,140.678,140.678,0,0,0,2.032,16.563q4.863,29.811,9.724,59.623c.207,1.27,1.236,2.951,2.313,2.246a8.065,8.065,0,0,0-2.585,6.2c3.056.77,6.249,1.611,8.57,3.743,1.711,1.573,2.828,3.751,4.7,5.125,1.636,1.2,28.624,16.416,30.615,16.8,25.491,4.973,15.507,2.756,41.333,0,3.113-.332,14.879-5.012,17.85-6,8.368-2.78,17.716-21.477,26.524-21.87,4.172-8.315,4.772-19.242,5.893-28.477,1.78-14.649,2.2-29.427,2.446-44.182C2038.821,3094.2,2038.406,3057.266,2032.34,3021.03Zm-26.349,64.446a124.477,124.477,0,0,1-2.654,12.794c-.342-1.338-1.535-2.247-2.434-3.295a12.645,12.645,0,0,1-2.615-6.277,22.718,22.718,0,0,1,.864-10.645c.809-2.484,2.837-7.734,5.457-8.681C2007.611,3073.768,2006.745,3080.543,2005.991,3085.476Zm7.828,57.451c-2.719-.306-4.147-3.487-4.184-6.223-.035-2.644.692-5.326.163-7.9a.463.463,0,0,0-.055.034l-.047,1.886c-.674-.357-.553-1.434.047-1.886l.007-.306c.022.09.03.181.048.272a1.058,1.058,0,0,1,.162-.1,1.938,1.938,0,0,1,2.2.838,5.658,5.658,0,0,1,.756,2.408A51.275,51.275,0,0,1,2013.819,3142.927Z" fill="#e1dbdd"/>
        <path id="Trazado_117045" data-name="Trazado 117045" d="M1917.961,3055.893c-2.121,5.319.142,11.235,1.421,16.818a96.385,96.385,0,0,1,1.819,16.932c.486,10.145.958,20.456-1.444,30.325-.908,3.733-2.218,7.354-3.394,11.012-7.114,22.121-9.323,45.465-13.528,68.319" fill="none" stroke="#c6c1c3" stroke-miterlimit="10" stroke-width="0.5"/>
        <path id="Trazado_117046" data-name="Trazado 117046" d="M2018.1,3023.65c-7.234,12.293-13.469,27.131-14.082,41.708-.2,4.86,3.3,9.529,3.487,14.28.211,5.329-2.269,9.265-2.754,14.576-.3,3.25-1.013,6.453-1.254,9.708a33.625,33.625,0,0,0,2.4,15.152c.721,1.762,1.591,3.459,2.368,5.2,2.987,6.672,4.586,13.866,6.166,21l8.821,39.835c1.18,5.325,2.366,10.773,1.729,16.19" fill="none" stroke="#c6c1c3" stroke-miterlimit="10" stroke-width="0.5"/>
        <path id="Trazado_117047" data-name="Trazado 117047" d="M1985.929,2997.74c-4.9,24.688-2.918,50.177-.357,75.216.706,6.9,1.462,13.835,3.368,20.5s5.036,13.117,9.93,18.031" fill="none" stroke="#c6c1c3" stroke-miterlimit="10" stroke-width="0.5" opacity="0.45"/>
        <path id="Trazado_117048" data-name="Trazado 117048" d="M2017.07,3077.789a11.108,11.108,0,0,0-5.581,6.16,22.034,22.034,0,0,0-.94,6.894" fill="none" stroke="#c6c1c3" stroke-miterlimit="10" stroke-width="0.5"/>
        <path id="Trazado_117049" data-name="Trazado 117049" d="M2009.945,3026.659l-4.015,6.722c-2.772,4.641-5.629,9.568-5.689,14.973-.042,3.809,1.32,7.47,2.351,11.138s1.729,7.657.4,11.226c-.788,2.113-2.235,3.918-3.165,5.973-2.551,5.637-2.595,14.9,2.063,17.787.773.479.893,1.6,1.124,2.478a9.116,9.116,0,0,1,.087,3.283c-.356,3.315-1.076,6.59-1.27,9.919a17.2,17.2,0,0,0,1.856,9.682" fill="none" stroke="#c6c1c3" stroke-miterlimit="10" stroke-width="0.5"/>
        <path id="Trazado_117050" data-name="Trazado 117050" d="M1932.921,3053.539c-2.368,12.918.251,26.165.524,39.3.2,9.538-.848,19.064-.813,28.6a126.307,126.307,0,0,0,1.243,17.214c.651,4.6,1.586,9.249,3.84,13.31" fill="none" stroke="#c6c1c3" stroke-miterlimit="10" stroke-width="0.5"/>
        <path id="Trazado_117051" data-name="Trazado 117051" d="M1967.743,2994.028c-.558-.1-.879.6-1,1.157-1.479,6.976-2.86,14.278-.988,21.16" fill="none" stroke="#c6c1c3" stroke-miterlimit="10" stroke-width="0.5"/>
        <path id="Trazado_117052" data-name="Trazado 117052" d="M1957.848,3014.452a23.384,23.384,0,0,1-5.032,10.256,69.737,69.737,0,0,1-8.163,8.14" fill="none" stroke="#c6c1c3" stroke-miterlimit="10" stroke-width="0.5"/>
        <path id="Trazado_117053" data-name="Trazado 117053" d="M1936.522,2998.7a62.858,62.858,0,0,1-.213,9.235" fill="none" stroke="#c6c1c3" stroke-miterlimit="10" stroke-width="0.5"/>
        <path id="Trazado_117054" data-name="Trazado 117054" d="M1918.15,3168.606a56.065,56.065,0,0,1-2,9.221,102.985,102.985,0,0,0-2.725,36.625" fill="none" stroke="#c6c1c3" stroke-miterlimit="10" stroke-width="0.5"/>
        <path id="Trazado_117055" data-name="Trazado 117055" d="M2011.283,3181.594q-.21,10.185.341,20.368a16.372,16.372,0,0,0,1.282,6.505" fill="none" stroke="#c6c1c3" stroke-miterlimit="10" stroke-width="0.5"/>
        <path id="Trazado_117056" data-name="Trazado 117056" d="M1924.309,3051.7a3.441,3.441,0,0,0-5.809,1.255c-.219.67-.228,1.393-.428,2.069a1.893,1.893,0,0,1-1.376,1.449c-.815.114-1.488-.571-2.137-1.076a6.043,6.043,0,0,0-6.7-.372" fill="none" stroke="#c6c1c3" stroke-miterlimit="10" stroke-width="0.5"/>
        <path id="Trazado_117057" data-name="Trazado 117057" d="M2016.7,3208.844l-3.03,10.51-3.1,10.772a6.218,6.218,0,0,0-.345,3.072c6.674-1.081,11.85-6.791,14.243-13.114,1.582-4.179,3.375-11.037,2.673-16.116C2023.432,3204.77,2020.063,3206.74,2016.7,3208.844Z" fill="#ffa780"/>
        <g id="Grupo_61027" data-name="Grupo 61027">
          <path id="Trazado_117058" data-name="Trazado 117058" d="M1912.217,3213.462c-1.123-1.21-2.043-2.639-3.241-3.785C1910.174,3210.823,1911.093,3212.253,1912.217,3213.462Z" fill="#ffa780"/>
          <path id="Trazado_117059" data-name="Trazado 117059" d="M1914.776,3215.4c.194.095.393.181.593.264C1915.169,3215.584,1914.971,3215.5,1914.776,3215.4Z" fill="#ffa780"/>
          <path id="Trazado_117060" data-name="Trazado 117060" d="M1916.085,3215.935h0c-.224-.076-.446-.158-.665-.247C1915.639,3215.777,1915.861,3215.859,1916.085,3215.935Z" fill="#ffa780"/>
          <path id="Trazado_117061" data-name="Trazado 117061" d="M1914.148,3215.064c.137.081.279.153.42.227C1914.427,3215.217,1914.285,3215.145,1914.148,3215.064Z" fill="#ffa780"/>
          <path id="Trazado_117062" data-name="Trazado 117062" d="M1911.351,3218.247q-1.306-4.252-2.379-8.574c-.046-.044-.089-.092-.136-.136-2.321-2.132-5.514-2.973-8.57-3.743a8.065,8.065,0,0,1,2.585-6.2c-1.077.705-2.106-.976-2.313-2.246-.054-.332-.109-.664-.163-1-2.025,2-2.327,6.849-1.976,9.04.514,3.2,1.869,6.192,2.964,9.243a50.62,50.62,0,0,0,2.649,6.783,18.063,18.063,0,0,0,11.568,8.885Q1913.24,3224.356,1911.351,3218.247Z" fill="#ffa780"/>
          <path id="Trazado_117063" data-name="Trazado 117063" d="M1912.875,3214.117a8.144,8.144,0,0,0,.664.545A8.144,8.144,0,0,1,1912.875,3214.117Z" fill="#ffa780"/>
          <path id="Trazado_117064" data-name="Trazado 117064" d="M1912.752,3214c-.169-.16-.336-.321-.495-.491C1912.416,3213.676,1912.583,3213.838,1912.752,3214Z" fill="#ffa780"/>
        </g>
        <path id="Trazado_117066" data-name="Trazado 117066" d="M1942.888,2978.183c2.948-.343,5.61,1.02,9.025,2.079a33.124,33.124,0,0,0,21.8-.825,18.387,18.387,0,0,1,4.187-1.381s-4.624-13.592,1.723-23.208c0,0-15.771-6.924-35.964,0,0,0,4.616,11.924,0,21.539C1943.353,2977.025,1943.1,2977.621,1942.888,2978.183Z" fill="#ffa780"/>
        <path id="Trazado_117067" data-name="Trazado 117067" d="M1990.69,3095.637c-4.148,4.545-.734-7.8-1.974-1.774-.474,2.309,3.7-4.416,2.978-2.172a23.244,23.244,0,0,0,1.3,17.254c-4.365-3.707-3.818-10.465-5.673-15.883-1.037-3.029-2.89-5.72-4.016-8.718-1.516-4.034-1.654-8.434-1.774-12.741q-.551-19.65-1.1-39.3l.479,35.542c.15,11.189.518,23.1,6.811,32.357a38.625,38.625,0,0,1-5.042-12.994l3.64,13.717.161-7.1,3.3,4.411-.007-10.284c.6,1.257-.988,2.815-.974,1.421.009-.926-4.011-1.94-3.822-3.127,0-.135,3.408,7.945,3.743,7.619l-2.526-6.593,1.642,6.577c.7.6,5.73,3.551,5.893,4.456.071-2.729-3.114.026-2.62-2.659-.836,3.722-4.228-12.707-6.132-9.4l3.822,3.127,2.027,6.268.567-3.8.717,6.356,1.208-5.956a31.946,31.946,0,0,1-.128,10.922,12.172,12.172,0,0,1-.995-5.138l-1.643,5.742a14.872,14.872,0,0,1-4.52-7.2l-1.292,3.26a15.352,15.352,0,0,0,3.775,5.8l2.454-1.967a2.175,2.175,0,0,1,1.054,3.062,20.658,20.658,0,0,1,5.21-17.2" transform="matrix(-0.017, -1, 1, -0.017, -1072.677, 5083.64)" fill="none" stroke="#c4c2c3" stroke-miterlimit="10" stroke-width="3" opacity="0.34"/>
        <path id="Trazado_117068" data-name="Trazado 117068" d="M1917.888,3058.893l.008,7.362a15.726,15.726,0,0,1,.34-5.273,12.109,12.109,0,0,1,.694,6.273l-.712-5.635,1.559,7.15a20.515,20.515,0,0,1-5.2-6.115,5.949,5.949,0,0,1,1.327,6.307,25.712,25.712,0,0,1-5.3-9.324,4.84,4.84,0,0,0-.361,3.231,16.616,16.616,0,0,1,3.318-8.038,9.182,9.182,0,0,1-1.14,10.656,8.069,8.069,0,0,0,9.387,2.463,3.688,3.688,0,0,1-2.908,4.745l5-2.232a3.824,3.824,0,0,1-1.2,3.607c-.509-1.559,1.619-3.11,3.047-2.3a2.614,2.614,0,0,1,.126,4.152l1.126-2.6,1.422,2.671-4.324,10.8a3.11,3.11,0,0,1,.75-2.766,45.65,45.65,0,0,1-5.322,13.312,17.5,17.5,0,0,1,2.368-10.3,46.606,46.606,0,0,1-2.463,12.674,65.914,65.914,0,0,1,.125-14.443,143.534,143.534,0,0,1-.172,16.862l.1-9.485a72.651,72.651,0,0,1-4.334,25.7l.176-2.024a18.851,18.851,0,0,1-1.318,12.5,19.734,19.734,0,0,1,3.032-10.159,10.067,10.067,0,0,1-1.2,5.888l3.129-6.9a16.1,16.1,0,0,1-2.555,5.89,81,81,0,0,1,3.227-17.134c-.364.57.623,1.2,1.193.842a2.273,2.273,0,0,0,.755-1.8,146.778,146.778,0,0,0,.259-24.143,11.967,11.967,0,0,1-4.246-7.317c3.741,16.74-2.5,34.1-1.628,51.229a17.872,17.872,0,0,1,5.984-10.2,34.012,34.012,0,0,1-.214,9.114,54.4,54.4,0,0,1,.377-10.1l1.472,12.458a10.083,10.083,0,0,0-.338-3.962l.806,3.257-.191-4.288-6.256,8.148-.71-1.864-3.593,8.576a9.132,9.132,0,0,1-.566-3.775,17.624,17.624,0,0,0-1.809,4.9l1.508-6.436-.7,4" fill="none" stroke="#c4c2c3" stroke-miterlimit="10" stroke-width="3" opacity="0.34"/>
        <path id="Trazado_117069" data-name="Trazado 117069" d="M1957.853,3017.025c.176-.468.723.288.585.769a21.3,21.3,0,0,1-13.195,13.952,41.491,41.491,0,0,0,10.73-9.322,4.345,4.345,0,0,0-1.929,1.467" fill="none" stroke="#c4c2c3" stroke-miterlimit="10" stroke-width="3" opacity="0.34"/>
        <path id="Trazado_117070" data-name="Trazado 117070" d="M1969.035,2996.521a.635.635,0,0,0,.161-1.029,110.992,110.992,0,0,0-2.333,13.06,13.529,13.529,0,0,0,1.326-7.368,44.466,44.466,0,0,0-2.172,14.069,6.034,6.034,0,0,1,1.814-1.841" fill="none" stroke="#c4c2c3" stroke-miterlimit="10" stroke-width="3" opacity="0.34"/>
        <path id="Trazado_117071" data-name="Trazado 117071" d="M1988.83,2998.173a224.041,224.041,0,0,0-7.613,34.447,21.536,21.536,0,0,0,1.4-4.878l3.969-19.588c1.091,3.067.317,6.438-.265,9.641a77.435,77.435,0,0,0-1.032,19.549" fill="none" stroke="#c4c2c3" stroke-miterlimit="10" stroke-width="3" opacity="0.34"/>
        <line id="Línea_521" data-name="Línea 521" x1="63" y2="62" transform="translate(1982.987 2991.633)" fill="none" stroke="#706f6f" stroke-miterlimit="10" stroke-width="1"/>
        <line id="Línea_521-2" data-name="Línea 521" x1="46.577" y2="27.094" transform="translate(2003.411 3181.633)" fill="none" stroke="#706f6f" stroke-miterlimit="10" stroke-width="1"/>
        <line id="Línea_521-3" data-name="Línea 521" x1="80.595" y1="0.332" transform="translate(1969.393 3230.301)" fill="none" stroke="#706f6f" stroke-miterlimit="10" stroke-width="1"/>
      </g>
    </g>
    <text id="Arruga_horizontal." data-name="Arruga horizontal." transform="translate(-3832.081 5325)" fill="#3a3a3a" font-size="13" font-family="MyriadPro-Regular, Myriad Pro"><tspan x="0" y="0">Arruga horizontal.</tspan></text>
    <text id="Bajo_ondulado." data-name="Bajo ondulado." transform="translate(-3828.081 5519.5)" fill="#3a3a3a" font-size="13" font-family="MyriadPro-Regular, Myriad Pro"><tspan x="0" y="0">Bajo ondulado.</tspan></text>
    <text id="Bajo_que_cuelga_en_el_centro." data-name="Bajo que cuelga 
en el centro." transform="translate(-3832.081 5566.5)" fill="#3a3a3a" font-size="13" font-family="MyriadPro-Regular, Myriad Pro"><tspan x="0" y="0">Bajo que cuelga </tspan><tspan x="0" y="16.8">en el centro.</tspan></text>
  </g>
</svg>
