<svg xmlns="http://www.w3.org/2000/svg" xmlns:xlink="http://www.w3.org/1999/xlink" width="256.376" height="179" viewBox="0 0 256.376 179">
  <defs>
    <clipPath id="clip-path">
      <rect id="Rectángulo_7434" data-name="Rectángulo 7434" width="256" height="179" rx="9" transform="translate(741.084 727.395)" fill="none"/>
    </clipPath>
    <clipPath id="clip-path-2">
      <path id="Trazado_116344" data-name="Trazado 116344" d="M915.33,793.954,893.144,727.4H849.495s-67.763,17.685-75.239,21.062-33.172,18.568-33.172,20.256v66.076S913.4,794.356,915.33,793.954Z" fill="none"/>
    </clipPath>
  </defs>
  <g id="Grupo_60739" data-name="Grupo 60739" transform="translate(-740.708 -727.395)">
    <rect id="Rectángulo_7434-2" data-name="Rectángulo 7434" width="256" height="179" rx="9" transform="translate(741.084 727.395)" fill="#fff"/>
    <g id="Grupo_60743" data-name="Grupo 60743">
      <g id="Grupo_60742" data-name="Grupo 60742" clip-path="url(#clip-path)">
        <g id="Grupo_60741" data-name="Grupo 60741">
          <g id="Grupo_60740" data-name="Grupo 60740">
            <g id="Grupo_60739-2" data-name="Grupo 60739">
              <path id="Trazado_116332" data-name="Trazado 116332" d="M785.825,946.8,631.174,809.885,804.1,599.088,969.928,718.811l-21.3,29.18s-32.668,45.864-44.485,60.268c-12.152,14.815-55.034,57.259-55.034,57.259Z" fill="#ede3b7"/>
            </g>
          </g>
        </g>
      </g>
    </g>
    <g id="Grupo_60756" data-name="Grupo 60756">
      <g id="Grupo_60744" data-name="Grupo 60744">
        <path id="Trazado_116333" data-name="Trazado 116333" d="M929.151,834.276l-2.733-9.474s-7.024-19.015-14.172-43.48a15.826,15.826,0,0,1,15.294,11.065c3.318,10.521,7.813,24.724,8.069,25.25.408.841-5.892,7.328-4.845,10.766a44.117,44.117,0,0,1,1.431,6.367Z" fill="#c1bbc4"/>
      </g>
      <g id="Grupo_60745" data-name="Grupo 60745">
        <path id="Trazado_116334" data-name="Trazado 116334" d="M945.448,823.516l-7.937-5.85s-17.648-15.3-35.008-31.793a16.829,16.829,0,0,0,4.219,19.25c10,9.564,20.468,18.246,20.881,18.677.647.674,8.917-2.984,11.778-.809a44.055,44.055,0,0,0,5.475,3.551Z" fill="#e4d6ea"/>
      </g>
      <g id="Grupo_60746" data-name="Grupo 60746">
        <path id="Trazado_116335" data-name="Trazado 116335" d="M934.722,839.444c.357-.439,4.021-5.019,4.021-5.019s3.714,2.457,3.007,5.464a86.707,86.707,0,0,1-3.522,9.54l-5.2-7Z" fill="#ffa780"/>
      </g>
      <g id="Grupo_60748" data-name="Grupo 60748">
        <g id="Grupo_60747" data-name="Grupo 60747">
          <path id="Trazado_116336" data-name="Trazado 116336" d="M980.013,834.124c-.074-.089-.159-.174-.237-.255-.058-.061-.124-.126-.186-.179a4.1,4.1,0,0,0-.358-.308c-.164-.127-.344-.261-.527-.388-2.893-1.964-8.332-3.827-13.561-5.309-.694-.205-1.395-.394-2.081-.575l-1.021-.268c-.28-.077-.564-.146-.836-.219-.221-.057-.434-.109-.647-.161-.327-.082-.647-.16-.966-.238-.205-.048-.406-.1-.612-.152-4.094-.994-7.114-1.593-7.114-1.593l-8.6-5.533-1.217,2.063-1.62,2.753-1.892,3.211s8.044,8.082,16.276,14.912c6.624,5.492,13.36,10.161,16.12,9.161a17.087,17.087,0,0,0,6.512-4.834C980.814,842.359,982.844,837.268,980.013,834.124Zm-9,12.959c-3.747.762-10.361-4.6-14.979-8.93-2.982-2.8-5.14-5.171-5.14-5.171l2.065-3.921c1.532.116,3.09.315,4.638.59.375.067.746.142,1.129.214a3.19,3.19,0,0,0,.316.066c.173.031.343.07.513.11q.864.184,1.716.393c.39.095.761.19,1.124.281.13.038.26.077.394.108,1.088.292,2.152.612,3.179.943.752.246,1.492.495,2.2.756.685.24,1.342.5,1.979.751.043.013.082.034.126.046.31.134.617.255.911.38.621.267,1.222.534,1.775.8.22.1.428.2.624.3.169.079.326.161.483.244,2.083,1.047,3.485,2.016,3.888,2.678.042.073.084.145.118.213a5.4,5.4,0,0,1-.562,4.452A9.251,9.251,0,0,1,971.014,847.083Z" fill="#ff5e56"/>
        </g>
      </g>
      <g id="Grupo_60750" data-name="Grupo 60750">
        <g id="Grupo_60749" data-name="Grupo 60749">
          <path id="Trazado_116337" data-name="Trazado 116337" d="M946.926,854.44c-1.275-3.646-3.013-7.707-4.8-11.55-.254-.545-.508-1.089-.767-1.626-.713-1.517-1.415-2.979-2.1-4.349-.331-.665-.658-1.319-.966-1.931-.088-.177-.183-.357-.27-.534-.1-.2-.206-.408-.3-.6-1.309-2.573-2.373-4.566-2.915-5.572-.076-.141-.133-.261-.19-.361-.081-.133-.126-.237-.157-.293a.186.186,0,0,1-.038-.06l-3.639.918-3.081.771-2.319.582,2.885,9.813s-.046.467-.1,1.278c-.031.345-.059.76-.089,1.235-.068.946-.143,2.1-.215,3.413-.38,6.941-.62,18.1,1.235,22.837,1.29,3.293,4.664,4.039,8.325,3.363,4.246-.779,8.863-3.5,10.965-6.346C949.6,863.781,948.717,859.521,946.926,854.44Zm-10.525,15a4.02,4.02,0,0,1-2.781-1.034c-1.573-1.73-3.236-13.083-1.812-23.281a.9.9,0,0,1,.023-.158c.141-1.008.316-2.007.527-2.978l1.039-.2,3.309-.672a.673.673,0,0,1,.042.053c.211.361,1.4,2.348,2.811,5.046,2.969,5.68,6.932,14.529,5,18.179A9.012,9.012,0,0,1,936.4,869.441Z" fill="#ff5e56"/>
        </g>
      </g>
      <g id="Grupo_60751" data-name="Grupo 60751">
        <path id="Trazado_116338" data-name="Trazado 116338" d="M927.866,845.574q1.978-.348,3.979-.613c.145-1,.308-2,.516-2.972l4.344-.875a16.151,16.151,0,0,1,1.938,2.773c1.288-.305,2.2-.673,3.487-.994-3.772-8.161-7.705-15.333-7.705-15.333l-9.034,2.273,2.882,9.816S928.054,842.081,927.866,845.574Z" fill="#ff5e56"/>
      </g>
      <g id="Grupo_60752" data-name="Grupo 60752">
        <path id="Trazado_116339" data-name="Trazado 116339" d="M979.234,833.38c-3.74-2.96-13.476-5.662-20.251-7.31-.306.892-.632,1.771-1,2.623-.125.323-.255.643-.383.964,9.7,1.717,19.2,6.152,20.356,8.056a4.768,4.768,0,0,1-.412,4.666c.053,1.4-.047,2.229-.025,3.535C977.522,846.289,984.6,837.622,979.234,833.38Z" fill="#ff5e56"/>
      </g>
      <g id="Grupo_60755" data-name="Grupo 60755">
        <g id="Grupo_60753" data-name="Grupo 60753">
          <path id="Trazado_116340" data-name="Trazado 116340" d="M929.592,815.562a2.472,2.472,0,0,1-3.236,1.092.469.469,0,0,1-.141-.057.423.423,0,0,1-.113-.076,2.486,2.486,0,0,1,2.314-4.393.427.427,0,0,1,.127.05.544.544,0,0,1,.127.083A2.478,2.478,0,0,1,929.592,815.562Z" fill="#c1bbc4"/>
        </g>
        <g id="Grupo_60754" data-name="Grupo 60754">
          <path id="Trazado_116341" data-name="Trazado 116341" d="M928.67,812.261l-2.314,4.393a.469.469,0,0,1-.141-.057.423.423,0,0,1-.113-.076l2.314-4.393a.427.427,0,0,1,.127.05A.544.544,0,0,1,928.67,812.261Z" fill="#9b8b86"/>
        </g>
      </g>
      <path id="Trazado_116342" data-name="Trazado 116342" d="M931.808,845.126a40.832,40.832,0,0,1,.432,4.905c-.146,6.9,1.784,13.711,4.161,19.41.328.8.676,1.588,1.025,2.333a72.613,72.613,0,0,0,7.107,12.276s-3.249,10.3-6.938,22.27h37.114l.447-8.144,14.564-24.724c.254-.426.5-.869.729-1.308a31.54,31.54,0,0,0,3.639-14.651,3.714,3.714,0,0,0-1.569-3.05l-1.261-.9a3.189,3.189,0,0,0-.423-.262,3.739,3.739,0,0,0-4.439.727l.044-1.91a5.293,5.293,0,0,0-2.535-4.621,5.288,5.288,0,0,0-6.405.694l-.1.1.043-2.061.072-3.6a2.321,2.321,0,0,0-.007-.234,4.246,4.246,0,0,0-1.776-3.36,4.32,4.32,0,0,0-5.831.706l-2.7,3.178s1.3-3.652,2.2-6.685a29.95,29.95,0,0,0,.74-2.946,3.655,3.655,0,0,0,.056-.811c-.081-.835-2.955-2.168-5.656-3.24a4.879,4.879,0,0,0-6.412,2.894c-.653,1.829-1.408,3.986-2.1,6.037-.448,1.326-.868,2.618-1.225,3.732a24.968,24.968,0,0,0-.938,3.512c-.178,1.67-4.436,6.388-6.946,9.043-1.063,1.123-1.808,1.873-1.808,1.873s-3.164-5.613-5.521-10.21c-.628-1.222-1.194-2.372-1.649-3.353-.216-.484-.4-.9-.545-1.268a3.389,3.389,0,0,0-2.546-2.2,7.413,7.413,0,0,0-3.854.415s.437,2.594.785,5.281C931.795,845.019,931.8,845.062,931.808,845.126Z" fill="#ffa780"/>
    </g>
    <g id="Grupo_60760" data-name="Grupo 60760">
      <path id="Trazado_116343" data-name="Trazado 116343" d="M915.33,793.954,893.144,727.4H849.495s-67.763,17.685-75.239,21.062-33.172,18.568-33.172,20.256v66.076S913.4,794.356,915.33,793.954Z" fill="#e4d8d1"/>
      <g id="Grupo_60759" data-name="Grupo 60759" opacity="0.47">
        <g id="Grupo_60758" data-name="Grupo 60758" clip-path="url(#clip-path-2)">
          <g id="Grupo_60757" data-name="Grupo 60757">
            <line id="Línea_352" data-name="Línea 352" x2="31.727" y2="132.754" transform="translate(905.832 661.596)" fill="none" stroke="#575756" stroke-miterlimit="10" stroke-width="0.5"/>
            <line id="Línea_353" data-name="Línea 353" x2="31.727" y2="132.754" transform="translate(898.796 663.278)" fill="none" stroke="#575756" stroke-miterlimit="10" stroke-width="0.5"/>
            <line id="Línea_354" data-name="Línea 354" x2="31.727" y2="132.754" transform="translate(891.76 664.959)" fill="none" stroke="#575756" stroke-miterlimit="10" stroke-width="0.5"/>
            <line id="Línea_355" data-name="Línea 355" x2="31.727" y2="132.754" transform="translate(884.723 666.641)" fill="none" stroke="#575756" stroke-miterlimit="10" stroke-width="0.5"/>
            <line id="Línea_356" data-name="Línea 356" x2="31.727" y2="132.754" transform="translate(877.687 668.323)" fill="none" stroke="#575756" stroke-miterlimit="10" stroke-width="0.5"/>
            <line id="Línea_357" data-name="Línea 357" x2="31.727" y2="132.754" transform="translate(870.65 670.004)" fill="none" stroke="#575756" stroke-miterlimit="10" stroke-width="0.5"/>
            <line id="Línea_358" data-name="Línea 358" x2="31.727" y2="132.754" transform="translate(863.614 671.686)" fill="none" stroke="#575756" stroke-miterlimit="10" stroke-width="0.5"/>
            <line id="Línea_359" data-name="Línea 359" x2="31.727" y2="132.754" transform="translate(856.578 673.367)" fill="none" stroke="#575756" stroke-miterlimit="10" stroke-width="0.5"/>
            <line id="Línea_360" data-name="Línea 360" x2="31.727" y2="132.754" transform="translate(849.541 675.049)" fill="none" stroke="#575756" stroke-miterlimit="10" stroke-width="0.5"/>
            <line id="Línea_361" data-name="Línea 361" x2="31.727" y2="132.754" transform="translate(842.505 676.731)" fill="none" stroke="#575756" stroke-miterlimit="10" stroke-width="0.5"/>
            <line id="Línea_362" data-name="Línea 362" x2="31.727" y2="132.754" transform="translate(835.468 678.412)" fill="none" stroke="#575756" stroke-miterlimit="10" stroke-width="0.5"/>
            <line id="Línea_363" data-name="Línea 363" x2="31.727" y2="132.754" transform="translate(828.432 680.094)" fill="none" stroke="#575756" stroke-miterlimit="10" stroke-width="0.5"/>
            <line id="Línea_364" data-name="Línea 364" x2="31.727" y2="132.754" transform="translate(821.395 681.775)" fill="none" stroke="#575756" stroke-miterlimit="10" stroke-width="0.5"/>
            <line id="Línea_365" data-name="Línea 365" x2="31.727" y2="132.754" transform="translate(814.359 683.457)" fill="none" stroke="#575756" stroke-miterlimit="10" stroke-width="0.5"/>
            <line id="Línea_366" data-name="Línea 366" x2="31.727" y2="132.754" transform="translate(807.323 685.139)" fill="none" stroke="#575756" stroke-miterlimit="10" stroke-width="0.5"/>
            <line id="Línea_367" data-name="Línea 367" x2="31.727" y2="132.754" transform="translate(800.286 686.82)" fill="none" stroke="#575756" stroke-miterlimit="10" stroke-width="0.5"/>
            <line id="Línea_368" data-name="Línea 368" x2="31.727" y2="132.754" transform="translate(793.25 688.502)" fill="none" stroke="#575756" stroke-miterlimit="10" stroke-width="0.5"/>
            <line id="Línea_369" data-name="Línea 369" x2="31.727" y2="132.754" transform="translate(786.213 690.184)" fill="none" stroke="#575756" stroke-miterlimit="10" stroke-width="0.5"/>
            <line id="Línea_370" data-name="Línea 370" x2="31.727" y2="132.754" transform="translate(779.177 691.865)" fill="none" stroke="#575756" stroke-miterlimit="10" stroke-width="0.5"/>
            <line id="Línea_371" data-name="Línea 371" x2="31.727" y2="132.754" transform="translate(772.141 693.547)" fill="none" stroke="#575756" stroke-miterlimit="10" stroke-width="0.5"/>
            <line id="Línea_372" data-name="Línea 372" x2="31.727" y2="132.754" transform="translate(765.104 695.228)" fill="none" stroke="#575756" stroke-miterlimit="10" stroke-width="0.5"/>
            <line id="Línea_373" data-name="Línea 373" x2="31.727" y2="132.754" transform="translate(758.068 696.91)" fill="none" stroke="#575756" stroke-miterlimit="10" stroke-width="0.5"/>
            <line id="Línea_374" data-name="Línea 374" x2="31.727" y2="132.754" transform="translate(751.031 698.592)" fill="none" stroke="#575756" stroke-miterlimit="10" stroke-width="0.5"/>
            <line id="Línea_375" data-name="Línea 375" x2="31.727" y2="132.754" transform="translate(743.995 700.273)" fill="none" stroke="#575756" stroke-miterlimit="10" stroke-width="0.5"/>
            <line id="Línea_376" data-name="Línea 376" x2="31.727" y2="132.754" transform="translate(736.959 701.955)" fill="none" stroke="#575756" stroke-miterlimit="10" stroke-width="0.5"/>
            <line id="Línea_377" data-name="Línea 377" x2="31.727" y2="132.754" transform="translate(729.922 703.636)" fill="none" stroke="#575756" stroke-miterlimit="10" stroke-width="0.5"/>
            <line id="Línea_378" data-name="Línea 378" x2="31.727" y2="132.754" transform="translate(722.886 705.318)" fill="none" stroke="#575756" stroke-miterlimit="10" stroke-width="0.5"/>
            <line id="Línea_379" data-name="Línea 379" x2="31.727" y2="132.754" transform="translate(715.849 707)" fill="none" stroke="#575756" stroke-miterlimit="10" stroke-width="0.5"/>
            <line id="Línea_380" data-name="Línea 380" x2="31.727" y2="132.754" transform="translate(708.813 708.681)" fill="none" stroke="#575756" stroke-miterlimit="10" stroke-width="0.5"/>
            <line id="Línea_381" data-name="Línea 381" x2="31.727" y2="132.754" transform="translate(701.777 710.363)" fill="none" stroke="#575756" stroke-miterlimit="10" stroke-width="0.5"/>
            <line id="Línea_382" data-name="Línea 382" x2="31.727" y2="132.754" transform="translate(694.74 712.045)" fill="none" stroke="#575756" stroke-miterlimit="10" stroke-width="0.5"/>
            <line id="Línea_383" data-name="Línea 383" x2="31.727" y2="132.754" transform="translate(687.704 713.726)" fill="none" stroke="#575756" stroke-miterlimit="10" stroke-width="0.5"/>
            <line id="Línea_384" data-name="Línea 384" x2="31.727" y2="132.754" transform="translate(680.667 715.408)" fill="none" stroke="#575756" stroke-miterlimit="10" stroke-width="0.5"/>
            <line id="Línea_385" data-name="Línea 385" x2="31.727" y2="132.754" transform="translate(673.631 717.089)" fill="none" stroke="#575756" stroke-miterlimit="10" stroke-width="0.5"/>
            <line id="Línea_386" data-name="Línea 386" x2="31.727" y2="132.754" transform="translate(666.594 718.771)" fill="none" stroke="#575756" stroke-miterlimit="10" stroke-width="0.5"/>
            <line id="Línea_387" data-name="Línea 387" x2="31.727" y2="132.754" transform="translate(659.558 720.453)" fill="none" stroke="#575756" stroke-miterlimit="10" stroke-width="0.5"/>
            <line id="Línea_388" data-name="Línea 388" x2="31.727" y2="132.754" transform="translate(652.522 722.134)" fill="none" stroke="#575756" stroke-miterlimit="10" stroke-width="0.5"/>
            <line id="Línea_389" data-name="Línea 389" x2="31.727" y2="132.754" transform="translate(645.485 723.816)" fill="none" stroke="#575756" stroke-miterlimit="10" stroke-width="0.5"/>
            <line id="Línea_390" data-name="Línea 390" x2="31.727" y2="132.754" transform="translate(638.449 725.497)" fill="none" stroke="#575756" stroke-miterlimit="10" stroke-width="0.5"/>
            <line id="Línea_391" data-name="Línea 391" x2="31.727" y2="132.754" transform="translate(631.412 727.179)" fill="none" stroke="#575756" stroke-miterlimit="10" stroke-width="0.5"/>
            <line id="Línea_392" data-name="Línea 392" x2="31.727" y2="132.754" transform="translate(624.376 728.861)" fill="none" stroke="#575756" stroke-miterlimit="10" stroke-width="0.5"/>
            <line id="Línea_393" data-name="Línea 393" x2="31.727" y2="132.754" transform="translate(617.34 730.542)" fill="none" stroke="#575756" stroke-miterlimit="10" stroke-width="0.5"/>
            <line id="Línea_394" data-name="Línea 394" x2="31.727" y2="132.754" transform="translate(610.303 732.224)" fill="none" stroke="#575756" stroke-miterlimit="10" stroke-width="0.5"/>
            <line id="Línea_395" data-name="Línea 395" x2="31.727" y2="132.754" transform="translate(603.267 733.906)" fill="none" stroke="#575756" stroke-miterlimit="10" stroke-width="0.5"/>
            <line id="Línea_396" data-name="Línea 396" x2="31.727" y2="132.754" transform="translate(596.23 735.587)" fill="none" stroke="#575756" stroke-miterlimit="10" stroke-width="0.5"/>
            <line id="Línea_397" data-name="Línea 397" x2="31.727" y2="132.754" transform="translate(589.194 737.269)" fill="none" stroke="#575756" stroke-miterlimit="10" stroke-width="0.5"/>
            <line id="Línea_398" data-name="Línea 398" x2="31.727" y2="132.754" transform="translate(582.158 738.95)" fill="none" stroke="#575756" stroke-miterlimit="10" stroke-width="0.5"/>
            <line id="Línea_399" data-name="Línea 399" x2="31.727" y2="132.754" transform="translate(575.121 740.632)" fill="none" stroke="#575756" stroke-miterlimit="10" stroke-width="0.5"/>
            <line id="Línea_400" data-name="Línea 400" x2="31.727" y2="132.754" transform="translate(568.085 742.314)" fill="none" stroke="#575756" stroke-miterlimit="10" stroke-width="0.5"/>
            <line id="Línea_401" data-name="Línea 401" x2="31.727" y2="132.754" transform="translate(561.048 743.995)" fill="none" stroke="#575756" stroke-miterlimit="10" stroke-width="0.5"/>
            <line id="Línea_402" data-name="Línea 402" x2="31.727" y2="132.754" transform="translate(554.012 745.677)" fill="none" stroke="#575756" stroke-miterlimit="10" stroke-width="0.5"/>
            <line id="Línea_403" data-name="Línea 403" x2="31.727" y2="132.754" transform="translate(546.976 747.359)" fill="none" stroke="#575756" stroke-miterlimit="10" stroke-width="0.5"/>
            <line id="Línea_404" data-name="Línea 404" x2="31.727" y2="132.754" transform="translate(539.939 749.04)" fill="none" stroke="#575756" stroke-miterlimit="10" stroke-width="0.5"/>
            <line id="Línea_405" data-name="Línea 405" x2="31.727" y2="132.754" transform="translate(532.903 750.722)" fill="none" stroke="#575756" stroke-miterlimit="10" stroke-width="0.5"/>
            <line id="Línea_406" data-name="Línea 406" x2="31.727" y2="132.754" transform="translate(525.866 752.403)" fill="none" stroke="#575756" stroke-miterlimit="10" stroke-width="0.5"/>
            <line id="Línea_407" data-name="Línea 407" y1="93.834" x2="392.631" transform="translate(520.028 663.188)" fill="none" stroke="#575756" stroke-miterlimit="10" stroke-width="0.5"/>
            <line id="Línea_408" data-name="Línea 408" y1="93.834" x2="392.631" transform="translate(521.71 670.224)" fill="none" stroke="#575756" stroke-miterlimit="10" stroke-width="0.5"/>
            <line id="Línea_409" data-name="Línea 409" y1="93.834" x2="392.631" transform="translate(523.391 677.261)" fill="none" stroke="#575756" stroke-miterlimit="10" stroke-width="0.5"/>
            <line id="Línea_410" data-name="Línea 410" y1="93.834" x2="392.631" transform="translate(525.073 684.297)" fill="none" stroke="#575756" stroke-miterlimit="10" stroke-width="0.5"/>
            <line id="Línea_411" data-name="Línea 411" y1="93.834" x2="392.631" transform="translate(526.754 691.333)" fill="none" stroke="#575756" stroke-miterlimit="10" stroke-width="0.5"/>
            <line id="Línea_412" data-name="Línea 412" y1="93.834" x2="392.631" transform="translate(528.436 698.37)" fill="none" stroke="#575756" stroke-miterlimit="10" stroke-width="0.5"/>
            <line id="Línea_413" data-name="Línea 413" y1="93.834" x2="392.631" transform="translate(530.118 705.406)" fill="none" stroke="#575756" stroke-miterlimit="10" stroke-width="0.5"/>
            <line id="Línea_414" data-name="Línea 414" y1="93.834" x2="392.631" transform="translate(531.799 712.443)" fill="none" stroke="#575756" stroke-miterlimit="10" stroke-width="0.5"/>
            <line id="Línea_415" data-name="Línea 415" y1="93.834" x2="392.631" transform="translate(533.481 719.479)" fill="none" stroke="#575756" stroke-miterlimit="10" stroke-width="0.5"/>
            <line id="Línea_416" data-name="Línea 416" y1="93.834" x2="392.631" transform="translate(535.162 726.516)" fill="none" stroke="#575756" stroke-miterlimit="10" stroke-width="0.5"/>
            <line id="Línea_417" data-name="Línea 417" y1="93.834" x2="392.631" transform="translate(536.844 733.552)" fill="none" stroke="#575756" stroke-miterlimit="10" stroke-width="0.5"/>
            <line id="Línea_418" data-name="Línea 418" y1="93.834" x2="392.631" transform="translate(538.526 740.588)" fill="none" stroke="#575756" stroke-miterlimit="10" stroke-width="0.5"/>
            <line id="Línea_419" data-name="Línea 419" y1="93.834" x2="392.631" transform="translate(540.207 747.625)" fill="none" stroke="#575756" stroke-miterlimit="10" stroke-width="0.5"/>
            <line id="Línea_420" data-name="Línea 420" y1="93.834" x2="392.631" transform="translate(541.889 754.661)" fill="none" stroke="#575756" stroke-miterlimit="10" stroke-width="0.5"/>
            <line id="Línea_421" data-name="Línea 421" y1="93.834" x2="392.631" transform="translate(543.57 761.698)" fill="none" stroke="#575756" stroke-miterlimit="10" stroke-width="0.5"/>
            <line id="Línea_422" data-name="Línea 422" y1="93.834" x2="392.631" transform="translate(545.252 768.734)" fill="none" stroke="#575756" stroke-miterlimit="10" stroke-width="0.5"/>
            <line id="Línea_423" data-name="Línea 423" y1="93.834" x2="392.631" transform="translate(546.934 775.77)" fill="none" stroke="#575756" stroke-miterlimit="10" stroke-width="0.5"/>
            <line id="Línea_424" data-name="Línea 424" y1="93.834" x2="392.631" transform="translate(548.615 782.807)" fill="none" stroke="#575756" stroke-miterlimit="10" stroke-width="0.5"/>
            <line id="Línea_425" data-name="Línea 425" y1="93.834" x2="392.631" transform="translate(550.297 789.843)" fill="none" stroke="#575756" stroke-miterlimit="10" stroke-width="0.5"/>
          </g>
        </g>
      </g>
      <path id="Trazado_116345" data-name="Trazado 116345" d="M740.9,782.7s20.6-25,53.124-31.658l97.191-23.227" fill="none" stroke="#595959" stroke-miterlimit="10" stroke-width="0.5"/>
      <line id="Línea_426" data-name="Línea 426" x2="16.41" y2="68.663" transform="translate(862.152 727.819)" fill="none" stroke="#595959" stroke-miterlimit="10" stroke-width="0.5"/>
      <line id="Línea_427" data-name="Línea 427" x2="17.86" y2="74.734" transform="translate(826.325 733.526)" fill="none" stroke="#595959" stroke-miterlimit="10" stroke-width="0.5"/>
      <line id="Línea_428" data-name="Línea 428" x2="17.088" y2="70.141" transform="translate(792 744.25)" fill="none" stroke="#595959" stroke-miterlimit="10" stroke-width="0.5"/>
      <line id="Línea_429" data-name="Línea 429" x2="15.882" y2="66.456" transform="translate(758.177 759.614)" fill="none" stroke="#595959" stroke-miterlimit="10" stroke-width="0.5"/>
      <line id="Línea_430" data-name="Línea 430" x1="167.405" y2="40.008" transform="translate(741.802 775.587)" fill="none" stroke="#595959" stroke-miterlimit="10" stroke-width="0.5"/>
      <path id="Trazado_116346" data-name="Trazado 116346" d="M743.484,822.631s60.981-17.846,81.983-19.506c36.588-2.892,75.641-17.627,81.054-19.284" fill="none" stroke="#595959" stroke-miterlimit="10" stroke-width="0.5"/>
      <line id="Línea_431" data-name="Línea 431" x1="31.248" y2="54.973" transform="translate(798.043 752.511)" fill="none" stroke="#595959" stroke-miterlimit="10" stroke-width="0.5"/>
      <rect id="Rectángulo_7609" data-name="Rectángulo 7609" width="3.808" height="3.808" transform="translate(783.029 744.25) rotate(-45)" fill="#595959" stroke="#595959" stroke-miterlimit="10" stroke-width="0.5"/>
      <rect id="Rectángulo_7610" data-name="Rectángulo 7610" width="3.808" height="3.808" transform="translate(870.696 803.284) rotate(-45)" fill="#595959" stroke="#595959" stroke-miterlimit="10" stroke-width="0.5"/>
      <rect id="Rectángulo_7611" data-name="Rectángulo 7611" width="3.808" height="3.808" transform="translate(902.155 761.906) rotate(-45)" fill="#595959" stroke="#595959" stroke-miterlimit="10" stroke-width="0.5"/>
    </g>
    <g id="Grupo_60766" data-name="Grupo 60766">
      <path id="Trazado_116347" data-name="Trazado 116347" d="M884.644,829.224c-.028-.01-.046-.01-.074-.02-2.359-.466-19.009,7.292-19.009,7.292s-.841-2.819,1.24-10.62c.433-1.625,11.779-20.676,15.33-26.392a2.491,2.491,0,0,0-3.878-3.073l-18.51,18.024,4.107-28.265c.012-.093.015-.186.018-.279a3.145,3.145,0,0,0-6.118-1.124l-10.474,26.48,1.767-25.238a3.081,3.081,0,0,0-6.061-.881l-7.035,26.691-.784-18.486a3.16,3.16,0,0,0-6.307-.134c-.557,6.415-1.882,21.2-2.593,24.263-.916,3.927-2.958,30.805-2.958,30.805L812.4,906.32h37.087l.7-43.731,8.991-8.439,24.832-18.056,1.592-1.16a3.173,3.173,0,0,0,1.421-2.851A3.033,3.033,0,0,0,884.644,829.224Z" fill="#ffa780"/>
      <g id="Grupo_60761" data-name="Grupo 60761">
        <path id="Trazado_116348" data-name="Trazado 116348" d="M834.188,794.6l-4.534-.144c.092-1.982,1.141-3.541,2.38-3.5S834.22,792.615,834.188,794.6Z" fill="#f2d1c2"/>
      </g>
      <g id="Grupo_60762" data-name="Grupo 60762">
        <path id="Trazado_116349" data-name="Trazado 116349" d="M848.192,787.685l-4.5-.572c.279-1.965,1.471-3.417,2.7-3.261S848.412,785.712,848.192,787.685Z" fill="#f2d1c2"/>
      </g>
      <g id="Grupo_60763" data-name="Grupo 60763">
        <path id="Trazado_116350" data-name="Trazado 116350" d="M862.93,787.494l-4.441-.922c.433-1.937,1.735-3.292,2.948-3.04S863.3,785.545,862.93,787.494Z" fill="#f2d1c2"/>
      </g>
      <g id="Grupo_60764" data-name="Grupo 60764">
        <path id="Trazado_116351" data-name="Trazado 116351" d="M880.9,800.591l-3.387-2.38c1.064-1.466,2.644-2.129,3.569-1.479S881.915,799.094,880.9,800.591Z" fill="#f2d1c2"/>
      </g>
      <g id="Grupo_60765" data-name="Grupo 60765">
        <path id="Trazado_116352" data-name="Trazado 116352" d="M885.6,834.934l-1.592,1.16L882,833.172c2.016-1.351,4.134-1.8,5.024-1.089A3.173,3.173,0,0,1,885.6,834.934Z" fill="#f2d1c2"/>
      </g>
    </g>
    <path id="Trazado_116353" data-name="Trazado 116353" d="M914.351,795.077l-.848-.7-14.812,3.46,5.455,10.425Z" fill="#ede3b7"/>
  </g>
</svg>
